<svg width="1660" height="1660" viewBox="0 0 1660 1660" fill="none" xmlns="http://www.w3.org/2000/svg">
<path d="M513.36 539.46C724.45 539.46 935.54 539.46 1146.64 539.46C1146.64 551.7 1146.65 563.94 1146.65 576.18C1138.25 576.91 1129.86 577.63 1121.46 578.36C1121.2 586.51 1120.94 594.66 1120.68 602.8C1112.04 603.03 1103.4 603.26 1094.75 603.5C1094.74 611.65 1094.72 619.8 1094.71 627.94C1086.31 628.42 1077.92 628.9 1069.52 629.38C1069.75 638.02 1069.98 646.66 1070.22 655.31C1018.61 655.31 967.01 655.31 915.4 655.31C915.35 647.72 915.3 640.13 915.25 632.55C906.07 632.44 896.89 632.33 887.72 632.22C887.7 623.26 887.68 614.3 887.66 605.33C878.76 605.3 869.85 605.27 860.95 605.24C860.88 590.45 860.82 575.67 860.75 560.88C851.48 561.22 842.02 561.45 832.38 561.58C821.52 561.72 810.89 561.72 800.49 561.58C800.32 576 800.15 590.42 799.97 604.84C791.33 604.89 782.68 604.93 774.04 604.98C774.02 613.77 774.01 622.56 773.99 631.35C765.16 631.46 756.33 631.58 747.5 631.69C747.53 639.86 747.55 648.04 747.58 656.21C696.54 656.86 645.51 657.5 594.47 658.15C594.34 649.66 594.21 641.17 594.08 632.69C585.77 632.61 577.45 632.53 569.14 632.45C569.16 625.16 569.18 617.86 569.2 610.57C561.46 610.45 553.72 610.33 545.98 610.2C545.86 601.3 545.74 592.41 545.62 583.51C535.74 583.45 525.86 583.39 515.98 583.34C515.18 583.31 514.39 583.29 513.59 583.26C513.51 568.65 513.43 554.05 513.36 539.46Z" fill="url(#paint0_linear_87_19795)" stroke="#010101" stroke-width="4" stroke-miterlimit="10"/>
<g opacity="0.93">
<path opacity="0.93" d="M579.68 566.3H554.25V591.73H579.68V566.3Z" fill="#F0EFEF"/>
<path opacity="0.93" d="M605.11 591.73H579.68V617.16H605.11V591.73Z" fill="#F0EFEF"/>
<path opacity="0.93" d="M630.55 566.3H605.12V591.73H630.55V566.3Z" fill="#F0EFEF"/>
<path opacity="0.93" d="M630.55 617.17H605.12V642.6H630.55V617.17Z" fill="#F0EFEF"/>
<path opacity="0.93" d="M655.98 591.73H630.55V617.16H655.98V591.73Z" fill="#F0EFEF"/>
<path opacity="0.93" d="M681.41 617.17H655.98V642.6H681.41V617.17Z" fill="#F0EFEF"/>
</g>
<g opacity="0.93">
<path opacity="0.93" d="M898.64 566.3H873.21V591.73H898.64V566.3Z" fill="#F0EFEF"/>
<path opacity="0.93" d="M924.07 591.73H898.64V617.16H924.07V591.73Z" fill="#F0EFEF"/>
<path opacity="0.93" d="M949.5 566.3H924.07V591.73H949.5V566.3Z" fill="#F0EFEF"/>
<path opacity="0.93" d="M949.5 617.17H924.07V642.6H949.5V617.17Z" fill="#F0EFEF"/>
<path opacity="0.93" d="M974.93 591.73H949.5V617.16H974.93V591.73Z" fill="#F0EFEF"/>
<path opacity="0.93" d="M1000.36 617.17H974.93V642.6H1000.36V617.17Z" fill="#F0EFEF"/>
</g>
<defs>
<linearGradient id="paint0_linear_87_19795" x1="513.356" y1="598.795" x2="1146.64" y2="598.795" gradientUnits="userSpaceOnUse">
<stop/>
<stop offset="0.3083" stop-color="#050505"/>
<stop offset="0.6952" stop-color="#151515"/>
<stop offset="1" stop-color="#262626"/>
</linearGradient>
</defs>
</svg>
