<svg width="1660" height="1660" viewBox="0 0 1660 1660" fill="none" xmlns="http://www.w3.org/2000/svg">
<path d="M615.31 451.96C696.09 459.31 771.35 491.33 836.28 541.96" stroke="black" stroke-width="20" stroke-miterlimit="10"/>
<path d="M1044.69 451.96C963.91 459.31 888.65 491.33 823.72 541.96" stroke="black" stroke-width="20" stroke-miterlimit="10"/>
<path d="M829.52 389.42C798.6 360.45 775.17 325.62 761.77 287.14C651.17 307.97 562.72 378.7 530.89 470.06C552.7 474.17 575.37 476.35 598.64 476.35C690.21 476.36 772.55 442.81 829.52 389.42Z" fill="#E0E0DF" stroke="#070707" stroke-width="4" stroke-miterlimit="10"/>
<path d="M897.27 287.14C883.87 325.62 860.43 360.44 829.52 389.42C886.49 442.81 968.83 476.36 1060.4 476.36C1083.67 476.36 1106.34 474.18 1128.15 470.07C1096.32 378.7 1007.87 307.97 897.27 287.14Z" fill="#010101" stroke="#070707" stroke-width="4" stroke-miterlimit="10"/>
<path d="M761.77 287.14C775.17 325.62 798.61 360.44 829.52 389.42C860.44 360.45 883.87 325.62 897.27 287.14C875.46 283.03 852.79 280.85 829.52 280.85C806.25 280.85 783.58 283.04 761.77 287.14Z" fill="#010101" stroke="#070707" stroke-width="4" stroke-miterlimit="10"/>
</svg>
