<svg width="1660" height="1660" viewBox="0 0 1660 1660" fill="none" xmlns="http://www.w3.org/2000/svg">
<path d="M615.31 451.96C696.09 459.31 771.35 491.33 836.28 541.96" stroke="black" stroke-width="20" stroke-miterlimit="10"/>
<path d="M1044.69 451.96C963.91 459.31 888.65 491.33 823.72 541.96" stroke="black" stroke-width="20" stroke-miterlimit="10"/>
<path d="M897.75 287.15C875.94 283.04 853.27 280.86 830 280.86C806.73 280.86 784.06 283.04 762.25 287.15C651.65 307.98 563.2 378.71 531.37 470.07C553.18 474.18 575.85 476.36 599.12 476.36C690.69 476.36 773.02 442.82 830 389.42C886.98 442.81 969.31 476.36 1060.88 476.36C1084.15 476.36 1106.82 474.18 1128.63 470.07C1096.8 378.7 1008.35 307.97 897.75 287.15Z" fill="black" stroke="#010101" stroke-width="4" stroke-miterlimit="10"/>
</svg>
