<svg width="1660" height="1660" viewBox="0 0 1660 1660" fill="none" xmlns="http://www.w3.org/2000/svg">
<path d="M903.91 173.97C688.64 105.33 492.93 175.17 476.1 240.47C460.11 302.61 519.85 339.58 525.66 343.02L527.57 343.21C527.57 343.21 605.95 312.88 767.74 327.43C929.55 341.98 1101.07 415.92 1138.1 445.69C1138.1 445.69 1181.23 460.8 1193.01 425.66C1208.07 380.59 1098.25 235.93 903.91 173.97Z" fill="#2B2C2B" stroke="#010101" stroke-width="4" stroke-miterlimit="10"/>
<path d="M705.66 375.19C580.86 371.12 532.63 383.33 532.63 383.33C532.63 383.33 325.95 490.64 535.87 529.6C787 576.21 1011.56 430.47 1011.56 430.47C1011.56 430.47 830.43 379.26 705.66 375.19Z" fill="#2B2C2B" stroke="#010101" stroke-width="4" stroke-miterlimit="10"/>
<path d="M1138.1 445.69C1101.07 415.92 929.56 341.97 767.74 327.43C605.95 312.88 527.57 343.21 527.57 343.21L525.66 343.02C525.96 343.19 526.18 343.31 526.18 343.31C526.18 343.31 520.27 343.53 519.28 350C518.72 353.75 519.87 360.45 521.86 373.07C523.57 384.05 532.62 383.32 532.62 383.32C532.62 383.32 580.84 371.11 705.65 375.18C830.42 379.25 1011.55 430.47 1011.55 430.47C1079.58 445.47 1128.5 471.03 1128.5 471.03C1137.22 460.75 1138.1 445.69 1138.1 445.69Z" fill="#1E1E1E" stroke="#010101" stroke-width="4" stroke-miterlimit="10"/>
<path d="M522.78 283.06C522.78 283.06 523.85 286.95 526.4 292.35C527.62 295.06 529.34 298.1 531.25 301.24C533.25 304.35 535.54 307.56 538.13 310.46C539.37 311.94 540.71 313.35 542.12 314.64C543.43 315.99 544.89 317.19 546.27 318.3C547.63 319.48 549.05 320.44 550.44 321.33C551.73 322.28 553.05 323.09 554.34 323.7C555.57 324.36 556.69 325.02 557.72 325.51C558.77 325.95 559.7 326.33 560.47 326.63C561.98 327.26 562.84 327.62 562.84 327.62L563.17 327.77C565.3 328.63 566.31 331.07 565.42 333.19C564.55 335.31 562.13 336.32 560.02 335.43C559.86 335.37 559.71 335.3 559.55 335.21C559.55 335.21 558.63 334.69 556.98 333.76C556.17 333.29 555.2 332.72 554.1 332.08C552.98 331.39 551.82 330.48 550.52 329.57C549.21 328.68 547.89 327.6 546.56 326.36C545.17 325.18 543.76 323.94 542.44 322.47C541.07 321.05 539.7 319.57 538.48 317.94C537.15 316.38 535.96 314.68 534.83 312.97C532.51 309.58 530.59 305.94 528.94 302.49C527.4 299 526.05 295.73 525.17 292.82C523.33 287.06 522.78 283.06 522.78 283.06Z" fill="#212216" stroke="#010101" stroke-width="4" stroke-miterlimit="10"/>
<path d="M604.81 327.58C604.81 327.58 604.53 327.32 604.03 326.84C603.46 326.3 602.81 325.61 601.95 324.7C600.31 322.86 598.1 320.12 595.79 316.71C594.71 314.96 593.46 313.12 592.36 311.03C591.19 309 590.07 306.79 589.02 304.47C587.89 302.19 587.06 299.71 586.02 297.26C585.19 294.75 584.29 292.21 583.55 289.63C582.88 287.02 582.08 284.47 581.61 281.88C581.14 279.31 580.56 276.78 580.2 274.3C579.9 271.84 579.58 269.45 579.3 267.18C579.16 264.91 579.02 262.76 578.89 260.77C578.55 256.83 578.76 253.5 578.72 251.21C578.73 248.9 578.71 247.59 578.71 247.59C578.71 247.59 578.85 248.9 579.08 251.2C579.34 253.48 579.45 256.77 580.15 260.65C580.52 262.58 580.84 264.69 581.21 266.91C581.7 269.1 582.23 271.4 582.78 273.79C583.33 276.16 584.13 278.56 584.86 281.01C585.54 283.47 586.58 285.86 587.44 288.3C588.39 290.7 589.51 293.04 590.52 295.35C591.75 297.57 592.75 299.84 594.04 301.87C595.27 303.94 596.49 305.9 597.76 307.68C598.94 309.51 600.29 311.07 601.42 312.59C603.83 315.46 605.99 317.71 607.57 319.13C608.36 319.81 608.99 320.39 609.37 320.65C609.8 320.98 610.03 321.15 610.03 321.15L610.16 321.27C611.96 322.66 612.33 325.26 610.93 327.06C609.55 328.88 606.95 329.22 605.11 327.83C605.02 327.74 604.9 327.66 604.81 327.58Z" fill="#212216" stroke="#010101" stroke-width="4" stroke-miterlimit="10"/>
<path d="M628.63 325.03C628.63 325.03 628.36 324.65 627.94 323.97C627.39 323.2 626.81 322.14 626.21 320.9C625.58 319.65 625.01 318.14 624.39 316.55C623.99 314.87 623.31 313.22 623.12 311.39C623.01 310.52 622.88 309.65 622.72 308.78C622.54 307.94 622.67 307.06 622.63 306.23C622.66 304.57 622.51 303.09 622.85 301.79C623.24 299.28 623.51 297.61 623.51 297.61C623.51 297.61 623.75 299.27 624.11 301.75C624.21 302.98 624.78 304.35 625.22 305.79C625.47 306.5 625.59 307.26 626 307.97C626.33 308.66 626.69 309.39 627.04 310.09C627.65 311.55 628.72 312.78 629.45 314C630.37 315.14 631.17 316.2 631.98 317.01C632.8 317.82 633.43 318.45 633.87 318.77C634.35 319.18 634.66 319.43 634.66 319.43L634.77 319.53C636.54 320.97 636.84 323.63 635.35 325.42C633.89 327.2 631.25 327.47 629.46 326.01C629.15 325.73 628.86 325.39 628.63 325.03Z" fill="#212216" stroke="#010101" stroke-width="4" stroke-miterlimit="10"/>
<path d="M578.33 332.12C578.33 332.12 577.98 331.67 577.4 330.9C576.84 330.13 576.12 329.04 575.3 327.71C573.69 325.03 571.77 321.33 570.53 317.41C569.93 315.44 569.45 313.46 569.19 311.55C569.06 310.61 568.92 309.71 568.91 308.84C568.87 307.96 568.78 307.17 568.85 306.41C568.89 304.91 569.03 303.68 569.24 302.83C569.38 301.99 569.46 301.5 569.46 301.5C569.46 301.5 569.49 301.99 569.6 302.84C569.61 303.69 569.79 304.88 570.16 306.27C570.26 306.97 570.56 307.71 570.8 308.49C571.01 309.26 571.36 310.04 571.68 310.85C572.38 312.46 573.29 314.09 574.32 315.65C576.3 318.78 578.82 321.49 580.78 323.38C581.78 324.3 582.64 325.05 583.21 325.52C583.82 325.98 584.13 326.22 584.13 326.22L584.2 326.28C586.04 327.69 586.38 330.3 585 332.13C583.57 333.96 580.97 334.31 579.12 332.89C578.81 332.68 578.53 332.42 578.33 332.12Z" fill="#212216" stroke="#010101" stroke-width="4" stroke-miterlimit="10"/>
<path d="M760.06 324.95C760.06 324.95 759.34 320.35 759.01 313.66C758.86 310.27 758.68 306.35 758.84 302.14C758.93 297.96 759.29 293.47 759.76 289.04C760.11 286.83 760.38 284.61 760.81 282.45C761.29 280.31 761.6 278.17 762.2 276.16C762.79 274.15 763.2 272.18 763.88 270.39C764.54 268.6 765.07 266.87 765.77 265.35C766.46 263.85 767.09 262.47 767.64 261.21C768.23 260.02 768.85 259.01 769.34 258.18C770.29 256.5 770.84 255.57 770.84 255.57C770.84 255.57 770.4 256.58 769.67 258.33C769.3 259.23 768.76 260.27 768.36 261.53C767.94 262.79 767.47 264.22 766.98 265.79C766.46 267.33 766.19 269.08 765.77 270.89C765.29 272.69 765.12 274.67 764.76 276.65C764.42 278.65 764.35 280.77 764.13 282.88C763.98 285 763.98 287.17 763.9 289.31C763.93 293.63 764.09 297.94 764.5 301.96C764.81 305.99 765.41 309.72 765.91 312.9C767.03 319.3 768.14 323.28 768.14 323.28C768.75 325.47 767.48 327.75 765.26 328.38C763.07 329 760.79 327.73 760.15 325.51C760.12 325.36 760.11 325.22 760.06 325.07V324.95Z" fill="#212216" stroke="#010101" stroke-width="4" stroke-miterlimit="10"/>
<path d="M790.28 327.77C790.28 327.77 790.28 325.29 790.56 321.82C790.86 318.32 791.49 313.69 792.67 309.16C793.24 306.91 794 304.7 794.81 302.68C795.64 300.65 796.65 298.86 797.6 297.42C798.63 296.02 799.48 294.87 800.27 294.23C800.98 293.55 801.39 293.16 801.39 293.16C801.39 293.16 801.06 293.63 800.55 294.45C799.94 295.22 799.4 296.51 798.76 298.01C798.17 299.56 797.66 301.38 797.34 303.4C797.02 305.43 796.78 307.58 796.78 309.76C796.68 314.11 797.05 318.44 797.56 321.65C798.06 324.91 798.52 326.88 798.52 326.88C799.08 329.12 797.71 331.37 795.48 331.92C793.21 332.45 790.96 331.1 790.43 328.87C790.34 328.54 790.32 328.21 790.28 327.91V327.77Z" fill="#212216" stroke="#010101" stroke-width="4" stroke-miterlimit="10"/>
<path d="M857.17 338.62C857.17 338.62 857.24 338.17 857.39 337.37C857.55 336.52 857.79 335.33 858.14 334.02C858.81 331.32 860.05 327.86 861.59 324.61C862.5 323.01 863.16 321.37 864.22 320.02C865.25 318.65 865.99 317.32 866.95 316.37C868.75 314.48 869.99 313.23 869.99 313.23C869.99 313.23 869.21 314.77 868.04 317.06C867.43 318.18 867.12 319.67 866.62 321.12C866.08 322.56 865.91 324.28 865.57 325.88C865.06 329.14 864.95 332.41 865.09 334.82C865.13 336.06 865.25 337.02 865.31 337.64C865.4 338.35 865.46 338.75 865.46 338.75V338.85C865.75 341.14 864.13 343.23 861.84 343.51C859.54 343.81 857.44 342.18 857.16 339.88C857.06 339.45 857.11 339.02 857.17 338.62Z" fill="#212216" stroke="#010101" stroke-width="4" stroke-miterlimit="10"/>
<path d="M975.51 365.35C975.51 365.35 975.68 365.37 975.99 365.4C976.21 365.42 976.66 365.45 977.28 365.46C978.45 365.44 980.22 365.41 982.35 365.04C983.41 364.92 984.55 364.62 985.76 364.36C986.93 363.98 988.22 363.69 989.48 363.13C990.77 362.68 992.06 362.1 993.35 361.43C994.67 360.83 995.87 359.94 997.16 359.18C998.41 358.37 999.53 357.37 1000.72 356.47C1001.8 355.43 1002.82 354.41 1003.88 353.42C1004.79 352.32 1005.69 351.27 1006.54 350.26C1007.38 349.25 1008.01 348.16 1008.68 347.2C1010.05 345.3 1010.86 343.51 1011.51 342.32C1012.19 341.11 1012.54 340.41 1012.54 340.41C1012.54 340.41 1012.28 341.15 1011.85 342.45C1011.37 343.73 1010.87 345.66 1009.8 347.79C1009.29 348.87 1008.82 350.1 1008.15 351.27C1007.44 352.47 1006.7 353.72 1005.92 355.01C1005.03 356.24 1004.08 357.5 1003.13 358.79C1002.03 359.95 1000.96 361.22 999.76 362.35C998.54 363.41 997.34 364.61 995.97 365.51C994.68 366.54 993.31 367.42 991.96 368.2C990.63 369.06 989.2 369.64 987.9 370.31C986.54 370.84 985.27 371.43 984.05 371.78C981.61 372.61 979.5 373.02 977.95 373.3C977.21 373.42 976.58 373.5 976.08 373.54C975.66 373.59 975.43 373.61 975.43 373.61C973.15 373.79 971.16 372.09 970.95 369.81C970.75 367.53 972.49 365.52 974.74 365.33C974.98 365.33 975.2 365.33 975.42 365.32L975.51 365.35Z" fill="#212216" stroke="#010101" stroke-width="4" stroke-miterlimit="10"/>
<path d="M1000.53 373.81C1000.62 373.8 1000.91 373.92 1001.82 374.05C1002.65 374.2 1003.93 374.35 1005.49 374.43C1008.63 374.59 1012.89 374.37 1016.98 373.14C1019.05 372.58 1021.03 371.73 1022.83 370.76C1023.77 370.32 1024.57 369.74 1025.37 369.23C1026.18 368.72 1026.9 368.18 1027.5 367.63C1028.83 366.59 1029.8 365.58 1030.46 364.82C1031.13 364.12 1031.53 363.69 1031.53 363.69C1031.53 363.69 1031.25 364.19 1030.76 365.05C1030.28 365.94 1029.55 367.17 1028.45 368.52C1027.93 369.23 1027.33 369.97 1026.62 370.67C1025.92 371.4 1025.21 372.2 1024.34 372.91C1022.7 374.37 1020.72 375.8 1018.6 376.93C1014.42 379.35 1009.69 380.73 1006.04 381.38C1004.22 381.71 1002.68 381.88 1001.57 381.95C1000.47 382.05 999.64 382.01 999.74 382.02C997.46 381.8 995.81 379.77 996.03 377.51C996.23 375.24 998.25 373.59 1000.53 373.81Z" fill="#212216" stroke="#010101" stroke-width="4" stroke-miterlimit="10"/>
<path d="M1068.87 400.6C1068.87 400.6 1068.98 400.65 1069.17 400.75C1069.29 400.82 1069.6 400.96 1069.99 401.12C1070.77 401.4 1071.99 401.86 1073.51 402.2C1075.01 402.55 1076.85 402.84 1078.83 402.93C1080.83 403.07 1082.98 402.93 1085.13 402.61C1087.31 402.29 1089.45 401.69 1091.42 401.01C1092.43 400.66 1093.32 400.23 1094.25 399.84C1095.14 399.49 1095.92 398.97 1096.67 398.59C1098.23 397.81 1099.38 396.94 1100.22 396.39C1101.08 395.81 1101.55 395.5 1101.55 395.5C1101.55 395.5 1101.17 395.93 1100.45 396.67C1099.75 397.41 1098.79 398.52 1097.42 399.65C1096.73 400.19 1096.08 400.92 1095.22 401.49C1094.4 402.06 1093.51 402.74 1092.62 403.35C1090.71 404.55 1088.54 405.71 1086.23 406.6C1083.94 407.47 1081.55 408.18 1079.21 408.55C1076.9 408.98 1074.69 409.14 1072.77 409.11C1070.84 409.14 1069.22 408.93 1068.06 408.78C1067.48 408.7 1066.99 408.59 1066.61 408.51C1066.3 408.45 1066.12 408.41 1066.12 408.41C1063.89 407.89 1062.48 405.67 1062.99 403.43C1063.5 401.19 1065.73 399.8 1067.94 400.3C1068.27 400.35 1068.59 400.47 1068.87 400.6Z" fill="#212216" stroke="#010101" stroke-width="4" stroke-miterlimit="10"/>
<path d="M1110.48 420.91C1110.48 420.91 1110.86 421 1111.46 421.16C1111.98 421.3 1112.78 421.5 1113.86 421.63C1116 422.01 1118.88 422.15 1121.84 421.91C1123.22 421.63 1124.8 421.59 1126.08 421.12C1127.36 420.62 1128.74 420.34 1129.7 419.76C1131.72 418.58 1133.07 417.8 1133.07 417.8C1133.07 417.8 1132.03 419.01 1130.43 420.82C1129.65 421.76 1128.44 422.48 1127.23 423.46C1125.97 424.48 1124.44 425.04 1122.94 425.9C1119.88 427.24 1116.58 428.21 1114.02 428.61C1112.76 428.85 1111.66 428.99 1110.81 429.04C1110.09 429.11 1109.64 429.13 1109.64 429.13C1107.31 429.31 1105.31 427.58 1105.14 425.27C1104.94 422.96 1106.66 420.94 1109 420.76C1109.49 420.72 1109.92 420.76 1110.37 420.88L1110.48 420.91Z" fill="#212216" stroke="#010101" stroke-width="4" stroke-miterlimit="10"/>
<path opacity="0.4" d="M705.66 375.19C580.86 371.12 532.63 383.33 532.63 383.33C532.63 383.33 325.95 490.64 535.87 529.6C787 576.21 1011.56 430.47 1011.56 430.47C1011.56 430.47 830.43 379.26 705.66 375.19ZM847.47 477.97C775.53 515.63 647.04 545.18 536.63 523.25C426.25 501.31 439.46 450.52 492.08 415.79C522.95 395.41 615.21 370.83 729.95 383.69C844.64 396.55 919.37 440.31 847.47 477.97Z" fill="#444A29" stroke="#010101" stroke-width="4" stroke-miterlimit="10"/>
<path opacity="0.5" d="M1138.1 445.69C1101.07 415.92 929.56 341.97 767.74 327.43C605.95 312.88 527.57 343.21 527.57 343.21L525.66 343.02C525.96 343.19 526.18 343.31 526.18 343.31C526.18 343.31 520.27 343.53 519.28 350C518.72 353.75 519.87 360.45 521.86 373.07C523.57 384.05 532.62 383.32 532.62 383.32C532.62 383.32 580.84 371.11 705.65 375.18C830.42 379.25 1011.55 430.47 1011.55 430.47C1079.58 445.47 1128.5 471.03 1128.5 471.03C1137.22 460.75 1138.1 445.69 1138.1 445.69ZM938.52 404.3C896.64 395.45 714 345.79 569.78 371.83C524.81 379.95 515.68 350.55 561.1 341.82C629.41 328.68 773.59 314.15 942 368.9C990.41 384.63 980.41 413.15 938.52 404.3Z" fill="#0D1420"/>
<path opacity="0.4" d="M903.91 173.97C688.64 105.33 492.93 175.17 476.1 240.47C460.11 302.61 519.85 339.58 525.66 343.02L527.57 343.21C527.57 343.21 605.95 312.88 767.74 327.43C929.55 341.98 1101.07 415.92 1138.1 445.69C1138.1 445.69 1181.23 460.8 1193.01 425.66C1208.07 380.59 1098.25 235.93 903.91 173.97ZM1168.03 399.88C1150.35 437.03 1139.74 423.75 1145.5 412.79C1151.24 401.84 1137.09 418.95 1113.32 418.33C1089.52 417.72 1104.39 398.27 1110.18 392.09C1115.96 385.91 1079.26 399.86 1049.14 390.34C1029.51 384.15 1034.52 370.07 1038.19 359.3C1041.85 348.53 1035.58 361.24 1018.02 364.78C1000.46 368.34 1012.5 351.57 1017.11 336.35C1021.7 321.13 994.78 368.24 931.83 348.83C868.89 329.44 873.7 312.26 876.71 302.71C879.72 293.14 864.3 327.34 825.72 322.03C787.13 316.72 807.86 295.93 808.16 287.66C808.45 279.4 794.84 285.84 788.04 302.28C781.25 318.73 758.97 298.72 774.41 250.98C780.37 232.53 760.32 262.37 756.1 280.64C751.86 298.9 731.36 314.17 687.89 313.17C644.38 312.19 627.35 292.17 623.6 281.1C619.86 270 618.22 282.89 619.48 301.74C620.76 320.58 584.73 282.33 582.47 242.81C581.57 226.81 570.7 266.89 580.63 295.88C590.57 324.87 571.91 307.14 568.76 293.68C565.56 280.22 558.52 299.37 564.45 312.68C570.4 326.02 535.39 309.42 523.29 277.78C511.2 246.17 520.94 301.64 530.07 314.36C539.19 327.08 513.42 339.42 489.55 293.66C469.35 254.92 494.51 197.31 586.28 170.72C678.08 144.14 804.59 139.48 943.74 196.24C1082.91 252.97 1185.7 362.69 1168.03 399.88Z" fill="#444A29"/>
<path d="M500.56 232.05C500.56 232.05 500.88 231.49 501.56 230.53C502.22 229.52 503.23 228.07 504.72 226.28C507.59 222.63 512.21 217.57 518.86 211.94C522.27 209.25 525.91 206.06 530.34 203.22C532.49 201.72 534.75 200.18 537.08 198.57C539.55 197.15 542.07 195.65 544.69 194.13C549.86 190.86 555.79 188.3 561.88 185.22C564.92 183.6 568.22 182.45 571.53 181.12C574.88 179.81 578.29 178.47 581.77 177.09C588.86 174.68 596.29 172.43 604.04 170.02C611.85 168.13 619.97 166.17 628.36 164.32C636.8 162.91 645.47 161.44 654.32 159.95C663.29 159.05 672.41 158.13 681.71 157.18C700.31 156.18 719.61 155.14 739.18 155.93C744.14 156.04 749.1 156.13 754.12 156.25C758.98 156.64 763.85 157.03 768.75 157.43C773.62 157.84 778.53 158.23 783.45 158.63L790.82 159.23L798.25 160.34C808.15 161.96 818.1 163.47 827.93 165.21C837.6 167.46 847.24 169.72 856.82 171.95C875.74 177.11 894.16 183.01 911.48 189.98C920.3 193.11 928.63 196.99 936.78 200.73C940.85 202.62 944.95 204.36 948.88 206.33C952.75 208.36 956.6 210.37 960.38 212.35C964.18 214.33 967.89 216.28 971.56 218.21C975.14 220.31 978.67 222.38 982.12 224.41C985.58 226.47 988.97 228.5 992.31 230.49C995.61 232.47 998.72 234.68 1001.82 236.7C1014.38 244.74 1025.31 252.94 1034.79 260.41C1044.28 267.87 1052.23 274.76 1058.66 280.56C1065.08 286.35 1069.82 291.24 1073.05 294.57C1076.2 297.92 1077.84 299.78 1077.84 299.78C1077.84 299.78 1076.07 298.09 1072.57 295.06C1069.08 292.01 1063.83 287.77 1057.08 282.4C1050.29 277.1 1041.96 270.84 1032.05 264.13C1027.22 260.63 1021.74 257.34 1016.1 253.72C1010.52 250.01 1004.43 246.49 998.1 242.75C994.92 240.92 991.74 238.91 988.39 237.11C985.03 235.32 981.58 233.5 978.08 231.65C974.61 229.78 971.07 227.88 967.46 225.96C963.79 224.21 960.02 222.41 956.25 220.62C952.46 218.81 948.62 216.98 944.71 215.13C940.8 213.34 936.74 211.78 932.7 210.07C924.53 206.76 916.32 203 907.61 200.18C903.31 198.64 898.98 197.1 894.6 195.55C892.4 194.78 890.22 193.99 888.01 193.22C885.78 192.57 883.52 191.93 881.24 191.27C876.74 189.98 872.2 188.68 867.61 187.36C863.03 186.11 858.55 184.44 853.82 183.54C844.46 181.42 835.05 179.29 825.58 177.15C816.07 175.66 806.52 174.16 796.96 172.65L789.79 171.51L782.42 170.86C777.54 170.42 772.64 169.99 767.74 169.56C762.84 169.12 757.96 168.68 753.1 168.25C748.34 168.13 743.6 167.99 738.85 167.87C734.04 167.73 729.26 167.6 724.49 167.47L717.37 167.22C714.98 167.27 712.66 167.31 710.28 167.35C700.86 167.6 691.57 167.6 682.42 168.02C673.3 168.71 664.31 169.37 655.56 170.03C646.84 171.17 638.31 172.29 630 173.36C621.8 174.96 613.79 176.49 606.07 177.98C598.47 179.97 591.05 181.78 584.03 183.79C570.15 188.29 557.51 192.85 546.89 198.15C544.22 199.47 541.63 200.74 539.14 201.98C536.73 203.38 534.43 204.73 532.23 206.04C527.68 208.52 523.95 211.38 520.38 213.79C516.94 216.31 514.01 218.77 511.43 220.87C508.96 223.11 506.8 224.96 505.26 226.68C503.65 228.32 502.48 229.64 501.7 230.59C500.91 231.51 500.56 232.05 500.56 232.05Z" fill="#8E8D8D" stroke="#010101" stroke-width="4" stroke-miterlimit="10"/>
</svg>
