<svg width="1660" height="1660" viewBox="0 0 1660 1660" fill="none" xmlns="http://www.w3.org/2000/svg">
<path d="M1124.31 464.27V605.09C1116.62 605.09 1110.38 598.85 1110.38 591.16V478.2C1110.38 470.51 1116.62 464.27 1124.31 464.27Z" fill="#12AA86"/>
<path d="M1115.02 461.64V607.72C1115.02 620.71 1125.55 631.24 1138.54 631.24H1176.92V438.12H1138.54C1125.55 438.12 1115.02 448.65 1115.02 461.64Z" fill="#231F20"/>
<path d="M1176.92 438.12V631.24H1180.58C1180.91 631.24 1181.23 631.24 1181.56 631.23C1202.13 630.71 1218.65 613.87 1218.65 593.18V476.19C1218.65 455.49 1202.13 438.66 1181.56 438.14C1181.23 438.13 1180.91 438.13 1180.58 438.13H1176.92V438.12Z" fill="#12AA86"/>
<path d="M1176.92 438.12V631.24H1180.58C1180.91 631.24 1181.23 631.24 1181.56 631.23V438.14C1181.23 438.13 1180.91 438.13 1180.58 438.13H1176.92V438.12Z" fill="#168566"/>
<path opacity="0.21" d="M1115.02 528.41V607.72C1115.02 620.71 1125.55 631.24 1138.54 631.24H1180.58C1180.91 631.24 1181.23 631.24 1181.56 631.23C1202.13 630.71 1218.65 613.87 1218.65 593.18V528.42H1115.02V528.41Z" fill="#010101"/>
<path d="M529.4 464.27V605.09C537.09 605.09 543.33 598.85 543.33 591.16V478.2C543.32 470.51 537.09 464.27 529.4 464.27Z" fill="#12AA86"/>
<path d="M538.68 461.64V607.72C538.68 620.71 528.15 631.24 515.16 631.24H476.78V438.12H515.16C528.15 438.12 538.68 448.65 538.68 461.64Z" fill="#231F20"/>
<path d="M476.78 438.12V631.24H473.12C472.79 631.24 472.47 631.24 472.14 631.23C451.57 630.71 435.05 613.87 435.05 593.18V476.19C435.05 455.49 451.57 438.66 472.14 438.14C472.47 438.13 472.79 438.13 473.12 438.13H476.78V438.12Z" fill="#12AA86"/>
<path d="M476.78 438.12V631.24H473.12C472.79 631.24 472.47 631.24 472.14 631.23V438.14C472.47 438.13 472.79 438.13 473.12 438.13H476.78V438.12Z" fill="#168566"/>
<path opacity="0.21" d="M538.68 528.41V607.72C538.68 620.71 528.15 631.24 515.16 631.24H473.12C472.79 631.24 472.47 631.24 472.14 631.23C451.57 630.71 435.05 613.87 435.05 593.18V528.42H538.68V528.41Z" fill="#010101"/>
<path d="M510.37 448.73C532.13 313.98 693.4 203.61 849.66 212.58C992.01 220.75 1128.63 301.16 1147.97 444.02" stroke="#231F20" stroke-width="40" stroke-miterlimit="10"/>
</svg>
