<svg width="1660" height="1660" viewBox="0 0 1660 1660" fill="none" xmlns="http://www.w3.org/2000/svg">
<path d="M447.45 278.05C460.407 278.05 470.91 267.547 470.91 254.59C470.91 241.633 460.407 231.13 447.45 231.13C434.493 231.13 423.99 241.633 423.99 254.59C423.99 267.547 434.493 278.05 447.45 278.05Z" fill="#010101" stroke="#030303" stroke-miterlimit="10"/>
<path d="M653.68 342.3C646.27 327.54 616.95 294.2 571.08 258.93C476.58 186.28 457.98 240.01 443 243.48" stroke="#030303" stroke-width="6" stroke-miterlimit="10"/>
<path d="M1212.55 278.05C1225.51 278.05 1236.01 267.547 1236.01 254.59C1236.01 241.633 1225.51 231.13 1212.55 231.13C1199.59 231.13 1189.09 241.633 1189.09 254.59C1189.09 267.547 1199.59 278.05 1212.55 278.05Z" fill="#010101" stroke="#030303" stroke-miterlimit="10"/>
<path d="M1006.32 342.3C1013.73 327.54 1043.05 294.2 1088.92 258.93C1183.42 186.28 1202.02 240.01 1217 243.48" stroke="#030303" stroke-width="6" stroke-miterlimit="10"/>
<path d="M563.48 196.1C576.437 196.1 586.94 185.597 586.94 172.64C586.94 159.683 576.437 149.18 563.48 149.18C550.523 149.18 540.02 159.683 540.02 172.64C540.02 185.597 550.523 196.1 563.48 196.1Z" fill="#010101" stroke="#030303" stroke-miterlimit="10"/>
<path d="M755.27 288.58C750.02 272.92 725.7 235.78 685.25 194.39C601.95 109.14 575.95 159.7 560.63 161.02" stroke="#030303" stroke-width="6" stroke-miterlimit="10"/>
<path d="M1096.52 196.1C1109.48 196.1 1119.98 185.597 1119.98 172.64C1119.98 159.683 1109.48 149.18 1096.52 149.18C1083.56 149.18 1073.06 159.683 1073.06 172.64C1073.06 185.597 1083.56 196.1 1096.52 196.1Z" fill="#010101" stroke="#030303" stroke-miterlimit="10"/>
<path d="M904.73 288.58C909.98 272.92 934.3 235.78 974.75 194.39C1058.05 109.14 1084.05 159.7 1099.37 161.02" stroke="#030303" stroke-width="6" stroke-miterlimit="10"/>
</svg>
