<svg width="1660" height="1660" viewBox="0 0 1660 1660" fill="none" xmlns="http://www.w3.org/2000/svg">
<path d="M637.91 1241.99C632.79 1240.44 632.92 1220.85 637.91 1205.16C643.43 1187.79 656.26 1170.93 661.45 1172.89C666.68 1174.87 661.06 1195.89 655.56 1211.51C650.43 1226.08 643.15 1243.58 637.91 1241.99Z" fill="#5C4529" stroke="#010101" stroke-width="4" stroke-miterlimit="10"/>
<path d="M1031 1228.68C1035.92 1226.6 1033.72 1207.13 1027.11 1192.06C1019.79 1175.38 1005.25 1159.96 1000.29 1162.46C995.3 1164.98 1003.11 1185.29 1010.23 1200.24C1016.87 1214.18 1025.96 1230.81 1031 1228.68Z" fill="#5C4529" stroke="#010101" stroke-width="4" stroke-miterlimit="10"/>
<path d="M535.29 1019.95C549.1 1054.13 558.55 1103.86 599.53 1152.71C644.84 1206.71 707.37 1238.45 740.72 1258.04" stroke="#010101" stroke-width="14" stroke-miterlimit="10"/>
<path d="M1093.36 913.9C1093.37 950.76 1100.2 1014.45 1080.52 1075.1C1058.77 1142.15 1012.7 1195.02 989.13 1225.69" stroke="#010101" stroke-width="14" stroke-miterlimit="10"/>
<path d="M993.53 1227.96C987.02 1255.42 973.79 1273.61 960.73 1273.57C953.23 1273.55 944.1 1267.52 943.85 1261.57C943.5 1253.29 960.56 1249.34 959.8 1242.21C958.99 1234.57 941.33 1234.17 942.09 1231.26C945.28 1219.08 952.03 1226.8 969.15 1225.06C975.72 1224.39 979.15 1223.09 985.56 1221.38C989.44 1220.35 991.93 1225.55 993.53 1227.96Z" fill="#010101" stroke="#010101" stroke-width="4" stroke-miterlimit="10"/>
<path d="M615.05 858.27C598.4 875.07 591.86 884.31 561.86 922.54C536.73 954.56 534.79 958.31 531.04 967.72C526.9 978.1 524.6 991.09 526.34 1007.94C529.04 1034.03 509.35 1035.88 523.89 1081.29C526.64 1089.89 515.61 1096.06 521.31 1127.24C528.38 1165.91 590.96 1239.19 637.99 1242.6C645.06 1243.11 632.86 1226.47 640.98 1206.2C649.07 1186.02 664.71 1186.58 667.93 1173.01C670.43 1162.47 664.88 1138.88 661.37 1127.25C662.52 1130.46 667.96 1145.45 669.22 1149.23C674.91 1166.29 664.53 1183.36 664.06 1213.61C663.68 1238.04 670.92 1250.52 670.92 1260.65C670.92 1267.93 666.87 1272.61 665.92 1281.29C664.94 1290.21 664.64 1298.45 670.07 1304.15C681.68 1316.33 705.94 1312.2 744.33 1306.8C765.95 1303.76 798.04 1299.48 838.28 1294.99C838.27 1294.92 838.25 1294.85 838.24 1294.78C838.22 1294.64 838.18 1294.43 838.13 1294.16C926.15 1310.31 994.17 1309.85 1003.07 1292.79C1009.19 1281.06 1007.74 1274.35 1007.74 1274.35C1006.53 1265.34 1003.32 1261.75 1002.18 1255.36C999.11 1238.11 1003.29 1226.66 1003.11 1202.08C1002.91 1175.39 989.02 1166.11 993.72 1138.08C994.73 1132.07 1000.19 1115.36 1000.11 1115.73C997.37 1127.53 993.38 1151.37 996.57 1161.76C1000.68 1175.13 1016.26 1173.76 1025.66 1193.48C1034.2 1211.4 1025.95 1227.24 1029.5 1229.44C1030.07 1229.79 1030.71 1229.67 1031.05 1229.67C1047.42 1229.67 1129.67 1161.05 1140.5 1105.03C1143.3 1090.54 1137.95 1075.01 1137.95 1075.01C1136.29 1070.72 1135.73 1070.91 1135.15 1068.18C1133.24 1059.28 1138.93 1056.03 1140.98 1041.76C1141.83 1035.82 1141.5 1031.84 1141.09 1029.23C1140.89 1027.94 1140.51 1026.32 1139.75 1023.07C1138.48 1017.66 1137.85 1014.95 1137.03 1012.76C1134.65 1006.38 1132.98 1007.16 1132.24 1003.2C1131.5 999.2 1133.16 998.13 1133.52 991.46C1133.66 988.76 1133.49 986.87 1133.13 983.08C1132.34 974.63 1131.85 969.43 1129.37 962.85C1128.77 961.25 1126.64 955.84 1122.29 949.67C1119.23 945.33 1116.15 942.15 1114.5 940.45C1112.66 938.56 1111 937.03 1109.72 935.9C1109.79 932.78 1109.61 928.36 1108.42 923.22C1107.36 918.64 1104.14 907.86 1091.88 894.77C1078.99 881.01 1067.78 879.37 1028.11 849.08C1018.83 841.99 1004.72 833.85 1000.76 832.27C978.99 823.6 969.06 819.77 959.24 818.64C944.09 816.9 929.58 814.46 917.7 821.27C905.05 828.52 906.61 839.41 897.29 856.78C888.01 874.07 865.09 903.09 841.34 902.97C825.9 902.89 810.24 885.44 779.56 850.53C758.62 826.71 755.42 819.54 749.64 815.21C749.22 814.89 746.69 813.37 744.14 812.11C715.73 798.06 666.11 813.21 630.02 843.84C625.71 847.5 622.16 851.09 615.05 858.27ZM642.02 1097.45C634.12 1089.58 640.82 1087.61 643.36 1057.41C644.98 1038.14 642.86 1019.87 645.31 1019.92C648.32 1019.97 655.7 1047.96 654.16 1059.51C649.44 1094.82 653.03 1104.82 661.37 1127.24C656.17 1115.21 649.04 1104.44 642.02 1097.45ZM1017.48 1084.98C1010.93 1092.33 1004.52 1103.44 1000.12 1115.74C1006.98 1092.91 1009.9 1082.75 1002.86 1047.74C1000.56 1036.29 1006.09 1007.97 1009.09 1007.75C1011.53 1007.58 1010.61 1025.92 1013.5 1045.08C1018.03 1075.09 1024.85 1076.7 1017.48 1084.98Z" fill="#BCA88C" stroke="#010101" stroke-width="4" stroke-miterlimit="10"/>
<path d="M650.72 1010.2C645.54 1009.66 649.96 971.1 636.49 929.29C634.84 924.16 637.15 924.61 628 898.94C622.46 883.41 606.72 867.77 613.06 861.32C630.06 844.01 642.08 835.9 652.38 829.73C669.05 819.74 706.51 799.79 736.54 810.37C740.5 811.76 740.39 813.26 742.44 814.73C752.83 822.17 753.74 836.01 779.11 863.14C802.88 888.56 815.86 902.44 831.76 902.07C864.45 901.31 914.46 877.53 922.7 834.15C929.33 799.27 992.35 828.22 1008.26 837.3C1014.24 840.71 1026.34 849.3 1041.53 860.74C1049.03 866.39 1057.55 870.98 1061.68 874.47C1057.68 879.02 1051.32 886.12 1045.68 893.92C1040.62 900.92 1029.87 917.26 1021.74 936.85C1011.56 961.41 1009.2 990.38 1009.09 1007.74C993.14 991.7 958.57 968.98 922.2 952.17C905.14 944.28 878.81 940.79 833.49 938.04C818.2 937.11 801.68 938.9 764.72 942.7C749.34 947.59 707.48 953.83 679.01 978.98C660.72 995.15 655.19 1010.67 650.72 1010.2Z" fill="#AA9982" stroke="#010101" stroke-width="4" stroke-miterlimit="10"/>
<path d="M621.36 1236.78C620.13 1230.27 616.03 1213.6 624.78 1195.61C636.43 1171.65 659.01 1164.33 667.7 1161.09C667.7 1171.06 666.05 1176.92 661.62 1180.69C648.64 1191.77 646.54 1192.81 641.83 1201.07C636.63 1210.22 637.18 1217.44 638.81 1241.05C633.62 1240.46 627.09 1239.3 621.36 1236.78Z" fill="#E79A33"/>
<path d="M1048.42 1219.56C1049.39 1213.27 1052.61 1195.22 1043.61 1178.13C1031.63 1155.37 1005.81 1147.43 996.21 1145.07C995.45 1157.3 998.34 1165.16 1002.71 1168.68C1015.56 1179.01 1020.29 1181.25 1025.08 1189.09C1030.38 1197.76 1033.11 1204.45 1030.43 1227.76C1033.46 1228.47 1042.68 1223.92 1048.42 1219.56Z" fill="#E79532"/>
<path d="M942.36 898.12C944.21 898 946.09 898.05 947.93 898.31C948.23 898.35 948.71 898.3 948.93 898.08C949.16 897.84 948.8 897.73 948.61 897.71C946.66 897.44 944.64 897.38 942.68 897.51C942.45 897.53 941.89 897.55 941.79 897.83C941.69 898.09 942.21 898.13 942.36 898.12Z" fill="white"/>
<path d="M944.5 897.85C944.5 899.01 944.53 900.17 944.57 901.32C944.59 901.89 944.62 902.46 944.65 903.02C944.68 903.51 944.65 904.05 944.86 904.51C945.03 904.9 946.49 904.84 946.31 904.43C946.11 903.98 946.16 903.39 946.14 902.91C946.11 902.36 946.09 901.82 946.07 901.27C946.03 900.16 946.01 899.04 946 897.93C946 897.49 944.5 897.44 944.5 897.85Z" fill="white"/>
<path d="M949.65 897.53C949.62 900.07 949.65 902.61 949.72 905.15C949.73 905.53 951.21 905.36 951.2 904.89C951.13 902.35 951.11 899.81 951.13 897.27C951.13 896.91 949.65 897.06 949.65 897.53Z" fill="white"/>
<path d="M951.13 901.35C952.52 900.78 953.95 900.46 955.43 900.39C955.59 900.38 956.1 900.29 955.96 900.03C955.83 899.77 955.27 899.79 955.04 899.8C953.34 899.88 951.65 900.25 950.08 900.9C950 900.93 949.86 901 949.86 901.11C949.86 901.22 950 901.29 950.07 901.33C950.37 901.46 950.83 901.48 951.13 901.35Z" fill="white"/>
<path d="M955.26 897.9C955.26 900.01 955.34 902.12 955.52 904.22C955.55 904.63 957.05 904.48 957.01 904.05C956.83 901.95 956.75 899.84 956.75 897.73C956.75 897.34 955.26 897.44 955.26 897.9Z" fill="white"/>
<path d="M958.35 897.56C958.43 899.62 958.61 901.67 958.9 903.7C958.97 904.22 958.98 904.56 959.51 904.79C959.98 904.99 960.51 904.95 961.01 904.98C962.02 905.05 963.02 905.22 964 905.46C964.17 905.5 964.74 905.6 964.8 905.34C964.86 905.08 964.29 904.92 964.14 904.88C963.39 904.69 962.64 904.55 961.88 904.44C961.51 904.39 961.13 904.35 960.76 904.32C960.56 904.31 960.36 904.29 960.16 904.28C960.07 904.28 959.97 904.27 959.88 904.27C959.58 904.25 959.69 904.28 960.22 904.37C960.32 904.45 960.42 904.54 960.52 904.62C960.39 904.41 960.4 904.1 960.36 903.86C960.32 903.57 960.28 903.29 960.25 903C960.18 902.43 960.11 901.86 960.06 901.28C959.95 900.15 959.88 899.02 959.83 897.88C959.79 897.42 958.34 897.23 958.35 897.56Z" fill="white"/>
<path d="M960.11 901.1C961.35 901.09 962.59 901.08 963.83 901.07C963.97 901.07 964.52 901.06 964.4 900.78C964.29 900.52 963.75 900.44 963.52 900.44C962.28 900.45 961.04 900.46 959.8 900.47C959.66 900.47 959.11 900.48 959.23 900.76C959.33 901.02 959.88 901.1 960.11 901.1Z" fill="white"/>
<path d="M960.11 898.13C961.44 898.07 962.92 898.11 964.18 898.24C964.36 898.26 964.91 898.33 964.97 898.05C965.02 897.79 964.41 897.66 964.27 897.65C962.66 897.48 961.06 897.44 959.44 897.51C959.25 897.52 958.88 897.65 959.11 897.88C959.35 898.11 959.8 898.15 960.11 898.13Z" fill="white"/>
<path d="M946.64 907.45C947.15 909.71 947.5 911.98 947.7 914.28C947.74 914.73 949.23 914.73 949.2 914.34C949 912.04 948.65 909.76 948.14 907.51C948.03 907.04 946.56 907.12 946.64 907.45Z" fill="white"/>
<path d="M945.22 908.44C946.98 907.76 948.86 907.42 950.75 907.45C950.95 907.45 951.31 907.38 951.11 907.12C950.92 906.87 950.44 906.76 950.14 906.76C948.06 906.73 945.98 907.07 944.04 907.83C943.73 907.95 944.03 908.21 944.2 908.3C944.47 908.43 944.91 908.56 945.22 908.44Z" fill="white"/>
<path d="M952.95 907.59C954.51 907.43 956.06 907.37 957.65 907.41C957.89 907.42 958.43 907.36 958.54 907.1C958.66 906.82 958.11 906.8 957.98 906.79C956.28 906.74 954.58 906.81 952.89 906.99C952.71 907.01 952.16 907.1 952.18 907.37C952.19 907.65 952.8 907.61 952.95 907.59Z" fill="white"/>
<path d="M954.91 907.37C955.07 909.61 955.23 911.86 955.39 914.1C955.42 914.54 956.92 914.48 956.89 914.07C956.73 911.83 956.57 909.58 956.41 907.34C956.38 906.91 954.88 906.96 954.91 907.37Z" fill="white"/>
<path d="M959.93 907.11C960.32 909.15 960.71 911.19 961.11 913.23C961.19 913.64 961.23 913.99 961.68 914.11C962.15 914.24 962.72 914.16 963.2 914.16C964.24 914.16 965.28 914.16 966.32 914.16C966.55 914.16 967.11 914.1 967.21 913.84C967.31 913.56 966.79 913.54 966.64 913.54C965.93 913.54 965.22 913.54 964.51 913.54C964.16 913.54 963.8 913.54 963.45 913.54C963.27 913.54 963.1 913.54 962.92 913.54C962.83 913.54 962.74 913.54 962.65 913.54C962.5 913.55 962.47 913.54 962.58 913.53C962.65 913.57 962.72 913.6 962.79 913.64C962.6 913.5 962.61 913.2 962.57 912.99C962.52 912.73 962.47 912.46 962.42 912.2C962.31 911.61 962.19 911.02 962.08 910.42C961.86 909.26 961.63 908.1 961.41 906.93C961.33 906.49 959.85 906.71 959.93 907.11Z" fill="white"/>
<path d="M938.72 917.89C939.28 919.97 939.54 922.13 939.47 924.28C939.45 924.76 940.89 925.06 940.9 924.73C940.97 922.52 940.72 920.31 940.14 918.17C940.03 917.74 938.61 917.49 938.72 917.89Z" fill="white"/>
<path d="M940.03 917.88C941.53 917.58 943.06 917.42 944.6 917.43C944.75 917.43 945.28 917.44 945.18 917.16C945.09 916.9 944.52 916.8 944.31 916.8C942.55 916.79 940.8 916.94 939.07 917.29C938.99 917.31 938.84 917.36 938.82 917.46C938.8 917.57 938.93 917.66 939 917.71C939.27 917.88 939.7 917.95 940.03 917.88Z" fill="white"/>
<path d="M940.48 920.88C941.87 920.65 943.27 920.42 944.66 920.19C944.8 920.17 945.33 920.05 945.17 919.8C945.01 919.56 944.47 919.59 944.24 919.63C942.85 919.86 941.45 920.09 940.06 920.32C939.92 920.34 939.39 920.46 939.55 920.71C939.71 920.95 940.25 920.92 940.48 920.88Z" fill="white"/>
<path d="M947.84 916.55C947.02 919.04 946.17 921.51 945.27 923.97C945.13 924.34 946.57 924.78 946.72 924.35C947.61 921.89 948.47 919.41 949.29 916.93C949.41 916.55 947.98 916.13 947.84 916.55Z" fill="white"/>
<path d="M948.28 917.3C950.01 919.58 950.03 922.62 951.34 925.1C951.52 925.45 952.97 925.14 952.74 924.71C951.42 922.22 951.42 919.21 949.68 916.91C949.43 916.57 948.02 916.95 948.28 917.3Z" fill="white"/>
<path d="M947.83 923.07C948.95 922.77 950.07 922.47 951.18 922.17C951.32 922.13 951.84 921.98 951.66 921.74C951.48 921.52 950.94 921.58 950.72 921.64C949.6 921.94 948.48 922.24 947.37 922.54C947.23 922.58 946.71 922.73 946.89 922.97C947.06 923.19 947.6 923.13 947.83 923.07Z" fill="white"/>
<path d="M960.13 919.18C959.89 918.03 958.26 917.58 957.27 917.46C956.06 917.3 954.74 917.48 953.78 918.29C953.4 918.61 953.1 919.03 952.95 919.51C952.76 920.09 952.86 920.72 953.07 921.29C953.49 922.43 954.28 923.44 955.41 923.95C956.12 924.27 956.94 924.39 957.71 924.28C958.44 924.18 959.1 923.88 959.74 923.54C960.03 923.39 959.71 923.16 959.54 923.09C959.26 922.97 958.8 922.89 958.51 923.04C957.88 923.37 957.02 923.88 956.32 923.58C955.52 923.23 955 922.42 954.65 921.65C954.27 920.82 954.18 919.9 954.74 919.14C955.22 918.49 955.99 918.08 956.79 918.05C957.53 918.02 958.49 918.32 958.66 919.13C958.76 919.52 960.23 919.65 960.13 919.18Z" fill="white"/>
<path d="M961.57 917.75C961.68 918.79 961.79 919.84 961.89 920.88C962 921.9 962.04 922.96 962.21 923.97C962.39 925.05 963.94 924.76 964.71 924.67C965.74 924.55 966.75 924.38 967.76 924.17C967.96 924.13 968.28 923.98 968.04 923.77C967.81 923.56 967.3 923.57 967.02 923.63C966.21 923.8 965.4 923.94 964.58 924.05C964.37 924.08 964.16 924.1 963.95 924.13C963.84 924.14 963.74 924.15 963.63 924.16C963.59 924.16 963.55 924.17 963.52 924.17C963.37 924.18 963.45 924.2 963.77 924.22C963.78 924.2 963.7 924.01 963.7 923.98C963.69 923.88 963.68 923.77 963.67 923.67C963.65 923.45 963.62 923.24 963.6 923.02C963.42 921.28 963.24 919.54 963.06 917.81C963.02 917.34 961.53 917.36 961.57 917.75Z" fill="white"/>
<path d="M963.71 920.85C964.28 920.65 964.85 920.47 965.43 920.3C965.71 920.22 966 920.14 966.29 920.06C966.43 920.02 966.58 919.98 966.72 919.95C966.79 919.93 966.85 919.92 966.92 919.9C966.96 919.89 967.01 919.88 967.05 919.87C966.98 919.89 966.99 919.88 967.07 919.86C967.21 919.83 967.74 919.7 967.56 919.45C967.4 919.22 966.85 919.26 966.62 919.31C965.36 919.62 964.12 919.97 962.9 920.4C962.73 920.46 962.38 920.65 962.66 920.83C962.94 920.98 963.42 920.95 963.71 920.85Z" fill="white"/>
<path d="M962.98 917.88C964.22 917.55 965.5 917.41 966.77 917.49C966.95 917.5 967.35 917.45 967.15 917.18C966.96 916.92 966.51 916.79 966.2 916.77C964.73 916.68 963.26 916.82 961.83 917.2C961.51 917.29 961.81 917.59 961.96 917.67C962.25 917.84 962.65 917.97 962.98 917.88Z" fill="white"/>
<path d="M968.2 901.05C972.93 902.03 977.32 905.2 979.55 909.52C981.65 913.6 982.4 918.79 981.63 923.3C981.46 924.29 984.36 923.79 984.52 922.89C985.34 918.09 984.58 912.46 982.16 908.2C979.59 903.69 975.05 900.64 970.01 899.59C969.37 899.46 968.45 899.71 967.96 900.14C967.5 900.55 967.6 900.93 968.2 901.05Z" fill="white"/>
<path d="M970.92 909.8C972.96 910.82 973.65 912.86 974.19 914.94C974.96 917.85 974.75 920.68 974.37 923.63C974.21 924.87 977.14 924.38 977.28 923.31C977.69 920.14 977.87 917.1 977.04 913.99C976.42 911.65 975.48 909.48 973.2 908.34C972.57 908.03 971.71 908.22 971.14 908.59C970.75 908.83 970.29 909.48 970.92 909.8Z" fill="white"/>
<path d="M670.93 1159.28C722.1 1130.14 774.81 1142.85 831.52 1145.24C895.82 1147.96 925.77 1127.24 992.78 1149.23" stroke="#010101" stroke-width="4" stroke-miterlimit="10"/>
<path d="M654.34 1057.27C690.84 1027.02 753.1 1033.74 834.12 1033.05C907.67 1032.42 962.4 1021.1 1003.41 1050.56" stroke="#010101" stroke-width="4" stroke-miterlimit="10"/>
<path d="M646.58 1021.11C662.26 986.77 704.01 961.38 720.05 955.54C773.9 935.92 874.34 933.34 927.6 954.17C963.07 968.04 997.49 992.71 1009.09 1007.76" stroke="#010101" stroke-width="4" stroke-miterlimit="10"/>
<path d="M670.93 1260.65C728.24 1267.93 771.65 1257.2 832.07 1250.93C865.81 1247.43 914.58 1268.35 1001.17 1252.87" stroke="#010101" stroke-width="4" stroke-miterlimit="10"/>
<path d="M611.18 862.05C620.33 880.88 629.52 903.65 636.57 930.02C646.57 967.45 649.21 1000.76 649.08 1027.02" stroke="#010101" stroke-width="4" stroke-miterlimit="10"/>
<path d="M1063.49 875.68C1051.55 887.37 1032.52 909.03 1020.58 940.78C1009.65 969.86 1009.27 995.18 1010.34 1010.52" stroke="#010101" stroke-width="4" stroke-miterlimit="10"/>
<path d="M560.91 930.53C572.75 940.08 585.49 951.61 598.17 965.37C619.12 988.11 633.78 1010.3 644.03 1028.9" stroke="#010101" stroke-width="4" stroke-miterlimit="10"/>
<path d="M525.47 1019.68C548.03 1026.82 567.77 1030.57 581.77 1037.18C596.41 1044.09 622.89 1055.09 641.97 1069.39" stroke="#010101" stroke-width="4" stroke-miterlimit="10"/>
<path d="M524.84 1086.38C539.76 1084.82 557.33 1083.93 576.96 1084.73C600.96 1085.72 621.81 1088.99 638.71 1092.69" stroke="#010101" stroke-width="4" stroke-miterlimit="10"/>
<path d="M537.25 1164.79C544.01 1155.39 559.18 1139.51 577.99 1127.29C603.45 1110.77 631.55 1105.57 645.17 1103.69" stroke="#010101" stroke-width="4" stroke-miterlimit="10"/>
<path d="M667.32 1159.28C662.75 1160.63 636.16 1168.92 623.32 1194.12C613.55 1213.31 618.45 1232.73 619.99 1238.35" stroke="#010101" stroke-width="4" stroke-miterlimit="10"/>
<path d="M1109.73 935.91C1094.37 944.95 1076.68 956.88 1058.6 972.4C1038.1 990 1022.98 1012.22 1011.62 1027.03" stroke="#010101" stroke-width="4" stroke-miterlimit="10"/>
<path d="M1132.26 1003.2C1112.65 1006.81 1094.7 1012.92 1071.33 1024.54C1044.1 1038.08 1032.95 1051.82 1018.29 1063.17" stroke="#010101" stroke-width="4" stroke-miterlimit="10"/>
<path d="M1135.16 1068.18C1119.9 1065.73 1099.48 1064.39 1076.06 1067.7C1049.04 1071.52 1033.67 1075.86 1019.87 1081.63" stroke="#010101" stroke-width="4" stroke-miterlimit="10"/>
<path d="M1050.57 1220.64C1049.1 1216.76 1058.5 1194.52 1039.35 1169.61C1023.63 1149.15 1000.09 1143.79 994.46 1142.65" stroke="#010101" stroke-width="4" stroke-miterlimit="10"/>
<path d="M1011.63 1094.28C1025.3 1092.18 1057.69 1096.32 1078.96 1103.69C1105.36 1112.85 1120.91 1122.26 1132.26 1129.37" stroke="#010101" stroke-width="4" stroke-miterlimit="10"/>
<path d="M834.91 905.66C834.79 952.97 834.84 991.47 834.91 1018.07C835.03 1064.97 835.2 1070.4 834.91 1089.16C834.03 1146.86 831.48 1159.32 831.51 1194.88C831.53 1218.17 832.66 1252.57 838.27 1294.98" stroke="#303030" stroke-width="7" stroke-miterlimit="10"/>
<path d="M836.41 886.89V880.58" stroke="#62597E" stroke-width="0.25"/>
<path d="M835.48 886.89V880.58" stroke="#62597E" stroke-width="0.25"/>
<path d="M833.63 880.58V886.89" stroke="#62597E" stroke-width="0.25"/>
<path d="M834.56 886.89V880.58" stroke="#62597E" stroke-width="0.25"/>
<path d="M832.71 880.57V886.88" stroke="#62597E" stroke-width="0.25"/>
<path d="M836.41 893.2V886.89" stroke="#62597E" stroke-width="0.25"/>
<path d="M835.48 893.2V886.89" stroke="#62597E" stroke-width="0.25"/>
<path d="M833.63 886.89V893.2" stroke="#62597E" stroke-width="0.25"/>
<path d="M834.56 893.2V886.89" stroke="#62597E" stroke-width="0.25"/>
<path d="M832.71 886.88V893.19" stroke="#62597E" stroke-width="0.25"/>
<path d="M836.41 899.51V893.2" stroke="#62597E" stroke-width="0.25"/>
<path d="M835.48 899.51V893.2" stroke="#62597E" stroke-width="0.25"/>
<path d="M833.63 893.2V899.51" stroke="#62597E" stroke-width="0.25"/>
<path d="M834.56 899.51V893.2" stroke="#62597E" stroke-width="0.25"/>
<path d="M832.71 893.19V899.51" stroke="#62597E" stroke-width="0.25"/>
<path d="M836.41 905.82V899.51" stroke="#62597E" stroke-width="0.25"/>
<path d="M835.48 905.82V899.51" stroke="#62597E" stroke-width="0.25"/>
<path d="M833.63 899.51V905.82" stroke="#62597E" stroke-width="0.25"/>
<path d="M834.56 905.82V899.51" stroke="#62597E" stroke-width="0.25"/>
<path d="M832.71 899.51V905.82" stroke="#62597E" stroke-width="0.25"/>
<path d="M836.41 912.13V905.82" stroke="#62597E" stroke-width="0.25"/>
<path d="M835.48 912.13V905.82" stroke="#62597E" stroke-width="0.25"/>
<path d="M833.63 905.82V912.13" stroke="#62597E" stroke-width="0.25"/>
<path d="M834.56 912.13V905.82" stroke="#62597E" stroke-width="0.25"/>
<path d="M832.71 905.82V912.13" stroke="#62597E" stroke-width="0.25"/>
<path d="M836.41 918.44V912.13" stroke="#62597E" stroke-width="0.25"/>
<path d="M835.48 918.44V912.13" stroke="#62597E" stroke-width="0.25"/>
<path d="M833.63 912.13V918.44" stroke="#62597E" stroke-width="0.25"/>
<path d="M834.56 918.44V912.13" stroke="#62597E" stroke-width="0.25"/>
<path d="M832.71 912.13V918.44" stroke="#62597E" stroke-width="0.25"/>
<path d="M836.41 924.75V918.44" stroke="#62597E" stroke-width="0.25"/>
<path d="M835.48 924.75V918.44" stroke="#62597E" stroke-width="0.25"/>
<path d="M833.63 918.44V924.75" stroke="#62597E" stroke-width="0.25"/>
<path d="M834.56 924.75V918.44" stroke="#62597E" stroke-width="0.25"/>
<path d="M832.71 918.44V924.75" stroke="#62597E" stroke-width="0.25"/>
<path d="M836.41 931.06V924.75" stroke="#62597E" stroke-width="0.25"/>
<path d="M835.48 931.06V924.75" stroke="#62597E" stroke-width="0.25"/>
<path d="M833.63 924.75V931.06" stroke="#62597E" stroke-width="0.25"/>
<path d="M834.56 931.06V924.75" stroke="#62597E" stroke-width="0.25"/>
<path d="M832.71 924.75V931.06" stroke="#62597E" stroke-width="0.25"/>
<path d="M836.41 937.37V931.06" stroke="#62597E" stroke-width="0.25"/>
<path d="M835.48 937.37V931.06" stroke="#62597E" stroke-width="0.25"/>
<path d="M833.63 931.06V937.37" stroke="#62597E" stroke-width="0.25"/>
<path d="M834.56 937.37V931.06" stroke="#62597E" stroke-width="0.25"/>
<path d="M832.71 931.06V937.37" stroke="#62597E" stroke-width="0.25"/>
<path d="M836.41 943.68V937.37" stroke="#62597E" stroke-width="0.25"/>
<path d="M835.48 943.68V937.37" stroke="#62597E" stroke-width="0.25"/>
<path d="M833.63 937.37V943.68" stroke="#62597E" stroke-width="0.25"/>
<path d="M834.56 943.68V937.37" stroke="#62597E" stroke-width="0.25"/>
<path d="M832.71 937.37V943.68" stroke="#62597E" stroke-width="0.25"/>
<path d="M836.41 949.99V943.68" stroke="#62597E" stroke-width="0.25"/>
<path d="M835.48 949.99V943.68" stroke="#62597E" stroke-width="0.25"/>
<path d="M833.63 943.68V950" stroke="#62597E" stroke-width="0.25"/>
<path d="M834.56 949.99V943.68" stroke="#62597E" stroke-width="0.25"/>
<path d="M832.71 943.69V950" stroke="#62597E" stroke-width="0.25"/>
<path d="M836.41 956.3V949.99" stroke="#62597E" stroke-width="0.25"/>
<path d="M835.48 956.3V949.99" stroke="#62597E" stroke-width="0.25"/>
<path d="M833.63 950V956.31" stroke="#62597E" stroke-width="0.25"/>
<path d="M834.56 956.31V950" stroke="#62597E" stroke-width="0.25"/>
<path d="M832.71 950V956.31" stroke="#62597E" stroke-width="0.25"/>
<path d="M836.41 962.61V956.3" stroke="#62597E" stroke-width="0.25"/>
<path d="M835.48 962.62V956.31" stroke="#62597E" stroke-width="0.25"/>
<path d="M833.63 956.31V962.62" stroke="#62597E" stroke-width="0.25"/>
<path d="M834.56 962.62V956.31" stroke="#62597E" stroke-width="0.25"/>
<path d="M832.71 956.31V962.62" stroke="#62597E" stroke-width="0.25"/>
<path d="M836.41 968.92V962.61" stroke="#62597E" stroke-width="0.25"/>
<path d="M835.48 968.93V962.62" stroke="#62597E" stroke-width="0.25"/>
<path d="M833.63 962.62V968.93" stroke="#62597E" stroke-width="0.25"/>
<path d="M834.56 968.93V962.62" stroke="#62597E" stroke-width="0.25"/>
<path d="M832.71 962.62V968.93" stroke="#62597E" stroke-width="0.25"/>
<path d="M836.41 975.23V968.92" stroke="#62597E" stroke-width="0.25"/>
<path d="M835.48 975.24V968.93" stroke="#62597E" stroke-width="0.25"/>
<path d="M833.63 968.93V975.24" stroke="#62597E" stroke-width="0.25"/>
<path d="M834.56 975.24V968.93" stroke="#62597E" stroke-width="0.25"/>
<path d="M832.71 968.93V975.24" stroke="#62597E" stroke-width="0.25"/>
<path d="M836.41 981.54V975.23" stroke="#62597E" stroke-width="0.25"/>
<path d="M835.48 981.55V975.24" stroke="#62597E" stroke-width="0.25"/>
<path d="M833.63 975.24V981.55" stroke="#62597E" stroke-width="0.25"/>
<path d="M834.56 981.55V975.24" stroke="#62597E" stroke-width="0.25"/>
<path d="M832.71 975.24V981.55" stroke="#62597E" stroke-width="0.25"/>
<path d="M836.41 987.85V981.54" stroke="#62597E" stroke-width="0.25"/>
<path d="M835.48 987.86V981.55" stroke="#62597E" stroke-width="0.25"/>
<path d="M833.63 981.55V987.86" stroke="#62597E" stroke-width="0.25"/>
<path d="M834.56 987.86V981.55" stroke="#62597E" stroke-width="0.25"/>
<path d="M832.71 981.55V987.86" stroke="#62597E" stroke-width="0.25"/>
<path d="M836.41 994.16V987.85" stroke="#62597E" stroke-width="0.25"/>
<path d="M835.48 994.17V987.86" stroke="#62597E" stroke-width="0.25"/>
<path d="M833.63 987.86V994.17" stroke="#62597E" stroke-width="0.25"/>
<path d="M834.56 994.17V987.86" stroke="#62597E" stroke-width="0.25"/>
<path d="M832.71 987.86V994.17" stroke="#62597E" stroke-width="0.25"/>
<path d="M836.41 1000.47V994.16" stroke="#62597E" stroke-width="0.25"/>
<path d="M835.48 1000.48V994.17" stroke="#62597E" stroke-width="0.25"/>
<path d="M833.63 994.17V1000.48" stroke="#62597E" stroke-width="0.25"/>
<path d="M834.56 1000.48V994.17" stroke="#62597E" stroke-width="0.25"/>
<path d="M832.71 994.18V1000.49" stroke="#62597E" stroke-width="0.25"/>
<path d="M836.43 1006.78L836.41 1000.47" stroke="#62597E" stroke-width="0.25"/>
<path d="M835.51 1006.79L835.48 1000.48" stroke="#62597E" stroke-width="0.25"/>
<path d="M833.63 1000.48L833.65 1006.79" stroke="#62597E" stroke-width="0.25"/>
<path d="M834.58 1006.79L834.56 1000.48" stroke="#62597E" stroke-width="0.25"/>
<path d="M832.71 1000.49L832.73 1006.8" stroke="#62597E" stroke-width="0.25"/>
<path d="M836.46 1013.09L836.43 1006.78" stroke="#62597E" stroke-width="0.25"/>
<path d="M835.53 1013.1L835.51 1006.79" stroke="#62597E" stroke-width="0.25"/>
<path d="M833.65 1006.79L833.68 1013.1" stroke="#62597E" stroke-width="0.25"/>
<path d="M834.61 1013.1L834.58 1006.79" stroke="#62597E" stroke-width="0.25"/>
<path d="M832.73 1006.8L832.75 1013.11" stroke="#62597E" stroke-width="0.25"/>
<path d="M836.49 1019.4L836.46 1013.09" stroke="#62597E" stroke-width="0.25"/>
<path d="M835.56 1019.41L835.53 1013.1" stroke="#62597E" stroke-width="0.25"/>
<path d="M833.68 1013.11L833.71 1019.42" stroke="#62597E" stroke-width="0.25"/>
<path d="M834.63 1019.41L834.61 1013.1" stroke="#62597E" stroke-width="0.25"/>
<path d="M832.75 1013.11L832.78 1019.42" stroke="#62597E" stroke-width="0.25"/>
<path d="M836.51 1025.71L836.49 1019.4" stroke="#62597E" stroke-width="0.25"/>
<path d="M835.59 1025.72L835.56 1019.41" stroke="#62597E" stroke-width="0.25"/>
<path d="M833.71 1019.42L833.74 1025.73" stroke="#62597E" stroke-width="0.25"/>
<path d="M834.66 1025.72L834.63 1019.41" stroke="#62597E" stroke-width="0.25"/>
<path d="M832.78 1019.42L832.81 1025.73" stroke="#62597E" stroke-width="0.25"/>
<path d="M836.55 1032.02L836.51 1025.71" stroke="#62597E" stroke-width="0.25"/>
<path d="M835.62 1032.03L835.59 1025.72" stroke="#62597E" stroke-width="0.25"/>
<path d="M833.74 1025.73L833.77 1032.04" stroke="#62597E" stroke-width="0.25"/>
<path d="M834.69 1032.03L834.66 1025.72" stroke="#62597E" stroke-width="0.25"/>
<path d="M832.81 1025.73L832.84 1032.04" stroke="#62597E" stroke-width="0.25"/>
<path d="M836.58 1038.34L836.55 1032.02" stroke="#62597E" stroke-width="0.25"/>
<path d="M835.65 1038.34L835.62 1032.03" stroke="#62597E" stroke-width="0.25"/>
<path d="M833.77 1032.04L833.8 1038.35" stroke="#62597E" stroke-width="0.25"/>
<path d="M834.72 1038.34L834.69 1032.03" stroke="#62597E" stroke-width="0.25"/>
<path d="M832.84 1032.04L832.87 1038.35" stroke="#62597E" stroke-width="0.25"/>
<path d="M836.61 1044.65L836.58 1038.34" stroke="#62597E" stroke-width="0.25"/>
<path d="M835.68 1044.65L835.65 1038.34" stroke="#62597E" stroke-width="0.25"/>
<path d="M833.8 1038.35L833.83 1044.66" stroke="#62597E" stroke-width="0.25"/>
<path d="M834.75 1044.66L834.72 1038.34" stroke="#62597E" stroke-width="0.25"/>
<path d="M832.87 1038.35L832.9 1044.66" stroke="#62597E" stroke-width="0.25"/>
<path d="M836.63 1050.97L836.61 1044.65" stroke="#62597E" stroke-width="0.25"/>
<path d="M835.7 1050.97L835.68 1044.65" stroke="#62597E" stroke-width="0.25"/>
<path d="M833.83 1044.66L833.85 1050.97" stroke="#62597E" stroke-width="0.25"/>
<path d="M834.77 1050.97L834.75 1044.66" stroke="#62597E" stroke-width="0.25"/>
<path d="M832.9 1044.66L832.92 1050.97" stroke="#62597E" stroke-width="0.25"/>
<path d="M836.63 1057.29V1050.97" stroke="#62597E" stroke-width="0.25"/>
<path d="M835.71 1057.29L835.7 1050.97" stroke="#62597E" stroke-width="0.25"/>
<path d="M833.85 1050.97V1057.28" stroke="#62597E" stroke-width="0.25"/>
<path d="M834.78 1057.29L834.77 1050.97" stroke="#62597E" stroke-width="0.25"/>
<path d="M832.92 1050.97L832.93 1057.28" stroke="#62597E" stroke-width="0.25"/>
<path d="M836.6 1063.62L836.63 1057.29" stroke="#62597E" stroke-width="0.25"/>
<path d="M835.68 1063.61L835.71 1057.29" stroke="#62597E" stroke-width="0.25"/>
<path d="M833.85 1057.28L833.82 1063.6" stroke="#62597E" stroke-width="0.25"/>
<path d="M834.75 1063.61L834.78 1057.29" stroke="#62597E" stroke-width="0.25"/>
<path d="M832.93 1057.28L832.9 1063.59" stroke="#62597E" stroke-width="0.25"/>
<path d="M836.53 1069.95L836.6 1063.62" stroke="#62597E" stroke-width="0.25"/>
<path d="M835.6 1069.94L835.68 1063.61" stroke="#62597E" stroke-width="0.25"/>
<path d="M833.82 1063.6L833.75 1069.91" stroke="#62597E" stroke-width="0.25"/>
<path d="M834.68 1069.93L834.75 1063.61" stroke="#62597E" stroke-width="0.25"/>
<path d="M832.9 1063.59L832.82 1069.9" stroke="#62597E" stroke-width="0.25"/>
<path d="M836.42 1076.28L836.53 1069.95" stroke="#62597E" stroke-width="0.25"/>
<path d="M835.49 1076.26L835.6 1069.94" stroke="#62597E" stroke-width="0.25"/>
<path d="M833.75 1069.91L833.64 1076.22" stroke="#62597E" stroke-width="0.25"/>
<path d="M834.56 1076.24L834.68 1069.93" stroke="#62597E" stroke-width="0.25"/>
<path d="M832.82 1069.9L832.71 1076.2" stroke="#62597E" stroke-width="0.25"/>
<path d="M836.27 1082.6L836.42 1076.28" stroke="#62597E" stroke-width="0.25"/>
<path d="M835.34 1082.58L835.49 1076.26" stroke="#62597E" stroke-width="0.25"/>
<path d="M833.64 1076.22L833.49 1082.53" stroke="#62597E" stroke-width="0.25"/>
<path d="M834.42 1082.56L834.56 1076.24" stroke="#62597E" stroke-width="0.25"/>
<path d="M832.71 1076.21L832.57 1082.51" stroke="#62597E" stroke-width="0.25"/>
<path d="M836.11 1088.92L836.27 1082.6" stroke="#62597E" stroke-width="0.25"/>
<path d="M835.19 1088.9L835.34 1082.58" stroke="#62597E" stroke-width="0.25"/>
<path d="M833.49 1082.53L833.34 1088.84" stroke="#62597E" stroke-width="0.25"/>
<path d="M834.26 1088.87L834.42 1082.56" stroke="#62597E" stroke-width="0.25"/>
<path d="M832.57 1082.51L832.41 1088.82" stroke="#62597E" stroke-width="0.25"/>
<path d="M835.92 1095.24L836.11 1088.92" stroke="#62597E" stroke-width="0.25"/>
<path d="M835 1095.21L835.19 1088.9" stroke="#62597E" stroke-width="0.25"/>
<path d="M833.34 1088.85L833.14 1095.15" stroke="#62597E" stroke-width="0.25"/>
<path d="M834.07 1095.18L834.26 1088.87" stroke="#62597E" stroke-width="0.25"/>
<path d="M832.41 1088.82L832.22 1095.12" stroke="#62597E" stroke-width="0.25"/>
<path d="M835.7 1101.57L835.92 1095.25" stroke="#62597E" stroke-width="0.25"/>
<path d="M834.77 1101.53L835 1095.22" stroke="#62597E" stroke-width="0.25"/>
<path d="M833.14 1095.16L832.92 1101.46" stroke="#62597E" stroke-width="0.25"/>
<path d="M833.85 1101.5L834.07 1095.19" stroke="#62597E" stroke-width="0.25"/>
<path d="M832.22 1095.13L832 1101.43" stroke="#62597E" stroke-width="0.25"/>
<path d="M835.45 1107.89L835.7 1101.57" stroke="#62597E" stroke-width="0.25"/>
<path d="M834.53 1107.85L834.77 1101.53" stroke="#62597E" stroke-width="0.25"/>
<path d="M832.92 1101.46L832.68 1107.77" stroke="#62597E" stroke-width="0.25"/>
<path d="M833.6 1107.81L833.85 1101.5" stroke="#62597E" stroke-width="0.25"/>
<path d="M832 1101.43L831.75 1107.73" stroke="#62597E" stroke-width="0.25"/>
<path d="M835.17 1114.21L835.45 1107.89" stroke="#62597E" stroke-width="0.25"/>
<path d="M834.24 1114.17L834.53 1107.85" stroke="#62597E" stroke-width="0.25"/>
<path d="M832.68 1107.77L832.39 1114.08" stroke="#62597E" stroke-width="0.25"/>
<path d="M833.32 1114.12L833.6 1107.81" stroke="#62597E" stroke-width="0.25"/>
<path d="M831.75 1107.73L831.47 1114.03" stroke="#62597E" stroke-width="0.25"/>
<path d="M834.85 1120.53L835.17 1114.21" stroke="#62597E" stroke-width="0.25"/>
<path d="M833.92 1120.48L834.24 1114.17" stroke="#62597E" stroke-width="0.25"/>
<path d="M832.39 1114.08L832.07 1120.38" stroke="#62597E" stroke-width="0.25"/>
<path d="M833 1120.43L833.32 1114.12" stroke="#62597E" stroke-width="0.25"/>
<path d="M831.47 1114.04L831.15 1120.33" stroke="#62597E" stroke-width="0.25"/>
<path d="M834.5 1126.85L834.85 1120.53" stroke="#62597E" stroke-width="0.25"/>
<path d="M833.57 1126.8L833.92 1120.48" stroke="#62597E" stroke-width="0.25"/>
<path d="M832.07 1120.38L831.72 1126.69" stroke="#62597E" stroke-width="0.25"/>
<path d="M832.65 1126.74L833 1120.43" stroke="#62597E" stroke-width="0.25"/>
<path d="M831.15 1120.34L830.8 1126.63" stroke="#62597E" stroke-width="0.25"/>
<path d="M834.11 1133.16L834.5 1126.85" stroke="#62597E" stroke-width="0.25"/>
<path d="M833.19 1133.1L833.57 1126.8" stroke="#62597E" stroke-width="0.25"/>
<path d="M831.72 1126.69L831.34 1132.99" stroke="#62597E" stroke-width="0.25"/>
<path d="M832.26 1133.05L832.65 1126.74" stroke="#62597E" stroke-width="0.25"/>
<path d="M830.8 1126.63L830.42 1132.93" stroke="#62597E" stroke-width="0.25"/>
<path d="M833.71 1139.47L834.11 1133.16" stroke="#62597E" stroke-width="0.25"/>
<path d="M832.78 1139.41L833.19 1133.1" stroke="#62597E" stroke-width="0.25"/>
<path d="M831.34 1132.99L830.94 1139.29" stroke="#62597E" stroke-width="0.25"/>
<path d="M831.86 1139.35L832.26 1133.05" stroke="#62597E" stroke-width="0.25"/>
<path d="M830.42 1132.93L830.01 1139.23" stroke="#62597E" stroke-width="0.25"/>
<path d="M833.29 1145.77L833.71 1139.47" stroke="#62597E" stroke-width="0.25"/>
<path d="M832.37 1145.71L832.78 1139.41" stroke="#62597E" stroke-width="0.25"/>
<path d="M830.94 1139.29L830.52 1145.59" stroke="#62597E" stroke-width="0.25"/>
<path d="M831.45 1145.65L831.86 1139.35" stroke="#62597E" stroke-width="0.25"/>
<path d="M830.01 1139.23L829.6 1145.52" stroke="#62597E" stroke-width="0.25"/>
<path d="M832.89 1152.06L833.29 1145.77" stroke="#62597E" stroke-width="0.25"/>
<path d="M831.96 1152L832.37 1145.71" stroke="#62597E" stroke-width="0.25"/>
<path d="M830.52 1145.59L830.11 1151.88" stroke="#62597E" stroke-width="0.25"/>
<path d="M831.04 1151.94L831.45 1145.65" stroke="#62597E" stroke-width="0.25"/>
<path d="M829.6 1145.52L829.19 1151.82" stroke="#62597E" stroke-width="0.25"/>
<path d="M832.51 1158.33L832.89 1152.06" stroke="#62597E" stroke-width="0.25"/>
<path d="M831.59 1158.28L831.96 1152" stroke="#62597E" stroke-width="0.25"/>
<path d="M830.11 1151.88L829.74 1158.18" stroke="#62597E" stroke-width="0.25"/>
<path d="M830.66 1158.23L831.04 1151.94" stroke="#62597E" stroke-width="0.25"/>
<path d="M829.19 1151.82L828.81 1158.13" stroke="#62597E" stroke-width="0.25"/>
<path d="M832.19 1164.61L832.51 1158.34" stroke="#62597E" stroke-width="0.25"/>
<path d="M831.26 1164.56L831.59 1158.28" stroke="#62597E" stroke-width="0.25"/>
<path d="M829.74 1158.18L829.41 1164.48" stroke="#62597E" stroke-width="0.25"/>
<path d="M830.34 1164.52L830.66 1158.23" stroke="#62597E" stroke-width="0.25"/>
<path d="M828.81 1158.13L828.49 1164.44" stroke="#62597E" stroke-width="0.25"/>
<path d="M831.94 1170.87L832.19 1164.61" stroke="#62597E" stroke-width="0.25"/>
<path d="M831.01 1170.84L831.26 1164.56" stroke="#62597E" stroke-width="0.25"/>
<path d="M829.41 1164.48L829.16 1170.78" stroke="#62597E" stroke-width="0.25"/>
<path d="M830.08 1170.81L830.34 1164.52" stroke="#62597E" stroke-width="0.25"/>
<path d="M828.49 1164.44L828.23 1170.75" stroke="#62597E" stroke-width="0.25"/>
<path d="M831.76 1177.14L831.94 1170.88" stroke="#62597E" stroke-width="0.25"/>
<path d="M830.84 1177.12L831.01 1170.84" stroke="#62597E" stroke-width="0.25"/>
<path d="M829.16 1170.78L828.98 1177.08" stroke="#62597E" stroke-width="0.25"/>
<path d="M829.91 1177.1L830.08 1170.81" stroke="#62597E" stroke-width="0.25"/>
<path d="M828.23 1170.75L828.06 1177.06" stroke="#62597E" stroke-width="0.25"/>
<path d="M831.66 1183.42L831.76 1177.14" stroke="#62597E" stroke-width="0.25"/>
<path d="M830.74 1183.41L830.84 1177.12" stroke="#62597E" stroke-width="0.25"/>
<path d="M828.98 1177.08L828.88 1183.39" stroke="#62597E" stroke-width="0.25"/>
<path d="M829.81 1183.4L829.91 1177.1" stroke="#62597E" stroke-width="0.25"/>
<path d="M828.06 1177.06L827.96 1183.38" stroke="#62597E" stroke-width="0.25"/>
<path d="M831.63 1189.69L831.66 1183.42" stroke="#62597E" stroke-width="0.25"/>
<path d="M830.71 1189.69L830.74 1183.41" stroke="#62597E" stroke-width="0.25"/>
<path d="M828.88 1183.39L828.86 1189.7" stroke="#62597E" stroke-width="0.25"/>
<path d="M829.78 1189.69L829.81 1183.4" stroke="#62597E" stroke-width="0.25"/>
<path d="M827.96 1183.38L827.93 1189.7" stroke="#62597E" stroke-width="0.25"/>
<path d="M831.68 1195.97L831.63 1189.69" stroke="#62597E" stroke-width="0.25"/>
<path d="M830.76 1195.98L830.71 1189.69" stroke="#62597E" stroke-width="0.25"/>
<path d="M828.86 1189.7L828.9 1196" stroke="#62597E" stroke-width="0.25"/>
<path d="M829.83 1195.99L829.78 1189.69" stroke="#62597E" stroke-width="0.25"/>
<path d="M827.93 1189.7L827.98 1196.01" stroke="#62597E" stroke-width="0.25"/>
<path d="M831.79 1202.25C831.74 1200.16 831.7 1198.07 831.68 1195.97" stroke="#62597E" stroke-width="0.25"/>
<path d="M830.86 1202.27C830.81 1200.18 830.77 1198.08 830.75 1195.98" stroke="#62597E" stroke-width="0.25"/>
<path d="M828.9 1196C828.92 1198.1 828.96 1200.2 829.01 1202.31" stroke="#62597E" stroke-width="0.25"/>
<path d="M829.94 1202.29C829.89 1200.19 829.85 1198.09 829.83 1195.99" stroke="#62597E" stroke-width="0.25"/>
<path d="M827.98 1196.01C828 1198.12 828.04 1200.22 828.09 1202.33" stroke="#62597E" stroke-width="0.25"/>
<path d="M831.97 1208.52L831.79 1202.25" stroke="#62597E" stroke-width="0.25"/>
<path d="M831.04 1208.55L830.86 1202.27" stroke="#62597E" stroke-width="0.25"/>
<path d="M829.01 1202.31L829.19 1208.61" stroke="#62597E" stroke-width="0.25"/>
<path d="M830.11 1208.58L829.94 1202.29" stroke="#62597E" stroke-width="0.25"/>
<path d="M828.09 1202.33L828.26 1208.64" stroke="#62597E" stroke-width="0.25"/>
<path d="M832.21 1214.79C832.13 1212.7 832.03 1210.61 831.97 1208.52" stroke="#62597E" stroke-width="0.25"/>
<path d="M831.28 1214.83C831.2 1212.74 831.1 1210.64 831.04 1208.55" stroke="#62597E" stroke-width="0.25"/>
<path d="M829.19 1208.61C829.25 1210.71 829.35 1212.81 829.43 1214.91" stroke="#62597E" stroke-width="0.25"/>
<path d="M830.36 1214.87C830.28 1212.77 830.17 1210.68 830.12 1208.58" stroke="#62597E" stroke-width="0.25"/>
<path d="M828.26 1208.64C828.32 1210.74 828.42 1212.85 828.5 1214.95" stroke="#62597E" stroke-width="0.25"/>
<path d="M832.51 1221.06L832.21 1214.79" stroke="#62597E" stroke-width="0.25"/>
<path d="M831.59 1221.11L831.28 1214.83" stroke="#62597E" stroke-width="0.25"/>
<path d="M829.43 1214.92L829.74 1221.21" stroke="#62597E" stroke-width="0.25"/>
<path d="M830.66 1221.16L830.36 1214.88" stroke="#62597E" stroke-width="0.25"/>
<path d="M828.5 1214.96L828.81 1221.26" stroke="#62597E" stroke-width="0.25"/>
<path d="M832.89 1227.33L832.51 1221.06" stroke="#62597E" stroke-width="0.25"/>
<path d="M831.96 1227.39L831.59 1221.11" stroke="#62597E" stroke-width="0.25"/>
<path d="M829.74 1221.22L830.11 1227.51" stroke="#62597E" stroke-width="0.25"/>
<path d="M831.04 1227.45L830.66 1221.17" stroke="#62597E" stroke-width="0.25"/>
<path d="M828.81 1221.27L829.19 1227.57" stroke="#62597E" stroke-width="0.25"/>
<path d="M833.32 1233.6L832.89 1227.33" stroke="#62597E" stroke-width="0.25"/>
<path d="M832.4 1233.66L831.96 1227.39" stroke="#62597E" stroke-width="0.25"/>
<path d="M830.11 1227.51L830.55 1233.8" stroke="#62597E" stroke-width="0.25"/>
<path d="M831.47 1233.73L831.04 1227.45" stroke="#62597E" stroke-width="0.25"/>
<path d="M829.19 1227.57L829.63 1233.87" stroke="#62597E" stroke-width="0.25"/>
<path d="M833.82 1239.85C833.65 1237.76 833.46 1235.68 833.32 1233.59" stroke="#62597E" stroke-width="0.25"/>
<path d="M832.9 1239.93C832.73 1237.84 832.54 1235.75 832.4 1233.66" stroke="#62597E" stroke-width="0.25"/>
<path d="M830.55 1233.8C830.69 1235.9 830.89 1237.99 831.05 1240.09" stroke="#62597E" stroke-width="0.25"/>
<path d="M831.98 1240.01C831.81 1237.92 831.62 1235.83 831.48 1233.73" stroke="#62597E" stroke-width="0.25"/>
<path d="M829.63 1233.87C829.77 1235.97 829.97 1238.07 830.13 1240.17" stroke="#62597E" stroke-width="0.25"/>
<path d="M834.39 1246.11C834.2 1244.03 833.99 1241.94 833.82 1239.86" stroke="#62597E" stroke-width="0.25"/>
<path d="M833.47 1246.2C833.28 1244.11 833.07 1242.03 832.9 1239.94" stroke="#62597E" stroke-width="0.25"/>
<path d="M831.06 1240.09C831.22 1242.19 831.43 1244.28 831.63 1246.37" stroke="#62597E" stroke-width="0.25"/>
<path d="M832.54 1246.28C832.35 1244.19 832.14 1242.1 831.97 1240.01" stroke="#62597E" stroke-width="0.25"/>
<path d="M830.13 1240.17C830.29 1242.27 830.5 1244.36 830.7 1246.46" stroke="#62597E" stroke-width="0.25"/>
<path d="M835.02 1252.36C834.8 1250.28 834.58 1248.2 834.39 1246.11" stroke="#62597E" stroke-width="0.25"/>
<path d="M834.1 1252.45C833.88 1250.37 833.66 1248.28 833.47 1246.19" stroke="#62597E" stroke-width="0.25"/>
<path d="M831.62 1246.37C831.81 1248.46 832.02 1250.56 832.25 1252.65" stroke="#62597E" stroke-width="0.25"/>
<path d="M833.17 1252.55C832.94 1250.46 832.73 1248.37 832.54 1246.28" stroke="#62597E" stroke-width="0.25"/>
<path d="M830.7 1246.46C830.89 1248.56 831.1 1250.65 831.33 1252.74" stroke="#62597E" stroke-width="0.25"/>
<path d="M835.7 1258.6C835.45 1256.52 835.23 1254.44 835.01 1252.36" stroke="#62597E" stroke-width="0.25"/>
<path d="M834.78 1258.7C834.53 1256.62 834.31 1254.53 834.09 1252.45" stroke="#62597E" stroke-width="0.25"/>
<path d="M832.25 1252.65C832.47 1254.74 832.68 1256.83 832.94 1258.92" stroke="#62597E" stroke-width="0.25"/>
<path d="M833.86 1258.81C833.61 1256.73 833.39 1254.64 833.17 1252.55" stroke="#62597E" stroke-width="0.25"/>
<path d="M831.33 1252.74C831.55 1254.83 831.77 1256.93 832.02 1259.02" stroke="#62597E" stroke-width="0.25"/>
<path d="M836.45 1264.83L835.7 1258.6" stroke="#62597E" stroke-width="0.25"/>
<path d="M835.53 1264.95L834.78 1258.7" stroke="#62597E" stroke-width="0.25"/>
<path d="M832.94 1258.92L833.69 1265.18" stroke="#62597E" stroke-width="0.25"/>
<path d="M834.61 1265.06L833.86 1258.81" stroke="#62597E" stroke-width="0.25"/>
<path d="M832.02 1259.02L832.77 1265.29" stroke="#62597E" stroke-width="0.25"/>
<path d="M837.26 1271.06L836.45 1264.83" stroke="#62597E" stroke-width="0.25"/>
<path d="M836.34 1271.19L835.53 1264.95" stroke="#62597E" stroke-width="0.25"/>
<path d="M833.69 1265.18L834.5 1271.43" stroke="#62597E" stroke-width="0.25"/>
<path d="M835.42 1271.31L834.61 1265.06" stroke="#62597E" stroke-width="0.25"/>
<path d="M832.77 1265.29L833.58 1271.56" stroke="#62597E" stroke-width="0.25"/>
<path d="M838.13 1277.28L837.26 1271.06" stroke="#62597E" stroke-width="0.25"/>
<path d="M837.22 1277.41L836.34 1271.19" stroke="#62597E" stroke-width="0.25"/>
<path d="M834.5 1271.43L835.38 1277.68" stroke="#62597E" stroke-width="0.25"/>
<path d="M836.3 1277.55L835.42 1271.31" stroke="#62597E" stroke-width="0.25"/>
<path d="M833.58 1271.56L834.47 1277.81" stroke="#62597E" stroke-width="0.25"/>
<path d="M839.07 1283.49C838.75 1281.42 838.42 1279.35 838.14 1277.28" stroke="#62597E" stroke-width="0.25"/>
<path d="M838.15 1283.63C837.83 1281.56 837.5 1279.49 837.21 1277.41" stroke="#62597E" stroke-width="0.25"/>
<path d="M835.38 1277.68C835.66 1279.76 836 1281.84 836.32 1283.92" stroke="#62597E" stroke-width="0.25"/>
<path d="M837.24 1283.77C836.92 1281.69 836.59 1279.62 836.3 1277.54" stroke="#62597E" stroke-width="0.25"/>
<path d="M834.47 1277.81C834.75 1279.9 835.09 1281.97 835.41 1284.06" stroke="#62597E" stroke-width="0.25"/>
<path d="M840.05 1289.69C839.69 1287.63 839.38 1285.56 839.06 1283.49" stroke="#62597E" stroke-width="0.25"/>
<path d="M839.14 1289.84C838.78 1287.77 838.47 1285.7 838.15 1283.63" stroke="#62597E" stroke-width="0.25"/>
<path d="M836.32 1283.92C836.64 1286 836.95 1288.08 837.31 1290.15" stroke="#62597E" stroke-width="0.25"/>
<path d="M838.23 1289.99C837.87 1287.92 837.56 1285.84 837.24 1283.77" stroke="#62597E" stroke-width="0.25"/>
<path d="M835.41 1284.06C835.73 1286.14 836.04 1288.22 836.4 1290.3" stroke="#62597E" stroke-width="0.25"/>
<path d="M841.09 1295.89L840.05 1289.69" stroke="#62597E" stroke-width="0.25"/>
<path d="M840.18 1296.05L839.14 1289.84" stroke="#62597E" stroke-width="0.25"/>
<path d="M837.31 1290.15L838.36 1296.37" stroke="#62597E" stroke-width="0.25"/>
<path d="M839.27 1296.21L838.23 1290" stroke="#62597E" stroke-width="0.25"/>
<path d="M836.4 1290.3L837.44 1296.52" stroke="#62597E" stroke-width="0.25"/>
<path d="M747.84 859.69C741.07 845.12 739.33 838.06 738.64 811.49C738.18 793.84 741.14 770.93 750.06 770.72C755.97 770.58 763.37 777.91 776.06 796.04C785.04 808.86 809.44 833.81 831.51 834.76C867.39 836.31 873.38 828.71 886.58 812.64C908.85 785.55 920.8 768.07 929.75 770.64C936.07 772.46 936.95 785.66 937.99 801.41C938.73 812.55 939.42 814.63 935.59 835.09C931.43 857.29 924.01 866.75 911.57 878.04C903.28 885.57 875.02 905.18 834.91 905.66C794.04 906.15 763.04 892.38 747.84 859.69Z" fill="url(#paint0_radial_87_18546)" stroke="#010101" stroke-width="4" stroke-miterlimit="10"/>
<path d="M756.19 789.04C758.25 795.71 762.44 806 771.33 816.53C782.51 829.77 795.59 836.83 803.03 840.21" stroke="#010101" stroke-width="4" stroke-miterlimit="10"/>
<path d="M916.3 797.98C913.42 804.4 907.96 814.21 897.82 823.78C885.06 835.82 871.17 841.53 863.35 844.15" stroke="#010101" stroke-width="4" stroke-miterlimit="10"/>
<path d="M835.79 832.87C834.15 871.79 834.73 889.82 834.93 908.8" stroke="#232323" stroke-width="7" stroke-miterlimit="10"/>
<path d="M836.95 839.59L837.17 833.27" stroke="#62597E" stroke-width="0.25"/>
<path d="M836.02 839.56L836.25 833.24" stroke="#62597E" stroke-width="0.25"/>
<path d="M834.4 833.17L834.17 839.49" stroke="#62597E" stroke-width="0.25"/>
<path d="M835.1 839.52L835.32 833.2" stroke="#62597E" stroke-width="0.25"/>
<path d="M833.47 833.14L833.25 839.46" stroke="#62597E" stroke-width="0.25"/>
<path d="M836.75 845.88L836.95 839.58" stroke="#62597E" stroke-width="0.25"/>
<path d="M835.82 845.86L836.02 839.55" stroke="#62597E" stroke-width="0.25"/>
<path d="M834.17 839.48L833.97 845.8" stroke="#62597E" stroke-width="0.25"/>
<path d="M834.9 845.83L835.1 839.51" stroke="#62597E" stroke-width="0.25"/>
<path d="M833.25 839.45L833.04 845.77" stroke="#62597E" stroke-width="0.25"/>
<path d="M836.57 852.19L836.75 845.88" stroke="#62597E" stroke-width="0.25"/>
<path d="M835.64 852.17L835.82 845.86" stroke="#62597E" stroke-width="0.25"/>
<path d="M833.97 845.8L833.79 852.12" stroke="#62597E" stroke-width="0.25"/>
<path d="M834.72 852.14L834.9 845.83" stroke="#62597E" stroke-width="0.25"/>
<path d="M833.04 845.77L832.87 852.1" stroke="#62597E" stroke-width="0.25"/>
<path d="M836.42 858.5L836.57 852.19" stroke="#62597E" stroke-width="0.25"/>
<path d="M835.5 858.48L835.64 852.17" stroke="#62597E" stroke-width="0.25"/>
<path d="M833.79 852.12L833.64 858.44" stroke="#62597E" stroke-width="0.25"/>
<path d="M834.57 858.46L834.72 852.14" stroke="#62597E" stroke-width="0.25"/>
<path d="M832.87 852.1L832.72 858.42" stroke="#62597E" stroke-width="0.25"/>
<path d="M836.31 864.8L836.42 858.5" stroke="#62597E" stroke-width="0.25"/>
<path d="M835.38 864.79L835.5 858.48" stroke="#62597E" stroke-width="0.25"/>
<path d="M833.64 858.44L833.53 864.76" stroke="#62597E" stroke-width="0.25"/>
<path d="M834.45 864.77L834.57 858.46" stroke="#62597E" stroke-width="0.25"/>
<path d="M832.72 858.42L832.6 864.74" stroke="#62597E" stroke-width="0.25"/>
<path d="M836.23 871.11L836.31 864.8" stroke="#62597E" stroke-width="0.25"/>
<path d="M835.3 871.1L835.38 864.79" stroke="#62597E" stroke-width="0.25"/>
<path d="M833.53 864.76L833.45 871.08" stroke="#62597E" stroke-width="0.25"/>
<path d="M834.38 871.09L834.45 864.77" stroke="#62597E" stroke-width="0.25"/>
<path d="M832.6 864.74L832.52 871.07" stroke="#62597E" stroke-width="0.25"/>
<path d="M836.18 877.41L836.23 871.11" stroke="#62597E" stroke-width="0.25"/>
<path d="M835.26 877.41L835.3 871.1" stroke="#62597E" stroke-width="0.25"/>
<path d="M833.45 871.08L833.41 877.4" stroke="#62597E" stroke-width="0.25"/>
<path d="M834.33 877.4L834.38 871.09" stroke="#62597E" stroke-width="0.25"/>
<path d="M832.52 871.07L832.48 877.4" stroke="#62597E" stroke-width="0.25"/>
<path d="M836.18 883.71V877.41" stroke="#62597E" stroke-width="0.25"/>
<path d="M835.25 883.72L835.26 877.41" stroke="#62597E" stroke-width="0.25"/>
<path d="M833.41 877.4L833.4 883.72" stroke="#62597E" stroke-width="0.25"/>
<path d="M834.33 883.72V877.4" stroke="#62597E" stroke-width="0.25"/>
<path d="M832.48 877.4L832.47 883.72" stroke="#62597E" stroke-width="0.25"/>
<path d="M836.21 890.02L836.18 883.71" stroke="#62597E" stroke-width="0.25"/>
<path d="M835.28 890.03L835.25 883.72" stroke="#62597E" stroke-width="0.25"/>
<path d="M833.4 883.72L833.43 890.04" stroke="#62597E" stroke-width="0.25"/>
<path d="M834.36 890.03L834.33 883.72" stroke="#62597E" stroke-width="0.25"/>
<path d="M832.47 883.72L832.5 890.05" stroke="#62597E" stroke-width="0.25"/>
<path d="M836.27 896.33L836.21 890.02" stroke="#62597E" stroke-width="0.25"/>
<path d="M835.34 896.34L835.28 890.03" stroke="#62597E" stroke-width="0.25"/>
<path d="M833.43 890.04L833.49 896.36" stroke="#62597E" stroke-width="0.25"/>
<path d="M834.42 896.35L834.36 890.03" stroke="#62597E" stroke-width="0.25"/>
<path d="M832.5 890.05L832.56 896.37" stroke="#62597E" stroke-width="0.25"/>
<path d="M836.34 902.65L836.27 896.33" stroke="#62597E" stroke-width="0.25"/>
<path d="M835.41 902.66L835.34 896.34" stroke="#62597E" stroke-width="0.25"/>
<path d="M833.49 896.36L833.56 902.68" stroke="#62597E" stroke-width="0.25"/>
<path d="M834.49 902.67L834.42 896.35" stroke="#62597E" stroke-width="0.25"/>
<path d="M832.56 896.37L832.64 902.69" stroke="#62597E" stroke-width="0.25"/>
<path d="M836.41 908.98L836.34 902.65" stroke="#62597E" stroke-width="0.25"/>
<path d="M835.48 908.99L835.41 902.66" stroke="#62597E" stroke-width="0.25"/>
<path d="M833.56 902.68L833.63 909.01" stroke="#62597E" stroke-width="0.25"/>
<path d="M834.56 909L834.49 902.67" stroke="#62597E" stroke-width="0.25"/>
<path d="M832.64 902.7L832.7 909.02" stroke="#62597E" stroke-width="0.25"/>
<path d="M837.34 842.6C837.67 838.55 838.89 836.91 837.89 835.06C837.32 834 836.26 833.3 835.21 833.16C835.14 833.15 833.46 832.96 832.26 834.27C830.87 835.79 831.67 837.61 830.86 841.08C829.92 845.1 828.13 845.63 828.52 847.35C829.21 850.36 835.51 852.14 837.29 849.84C838.27 848.56 836.96 847.23 837.34 842.6ZM835.56 847.57C834.62 848.83 831.09 847.72 830.79 846C830.7 845.47 830.93 844.98 831.37 844.03C831.85 842.99 832.15 842.35 832.8 842.04C833.68 841.62 834.86 841.99 835.41 842.86C835.7 843.32 835.72 843.88 835.77 844.99C835.84 846.43 835.87 847.16 835.56 847.57ZM836.12 838.92C835.51 839.53 834.68 839.25 834.27 839.12C833.89 838.99 833.37 838.74 833.15 838.03C832.91 837.27 833.23 836.56 833.32 836.44C833.87 835.62 834.78 835.65 834.94 835.66C835.14 835.67 835.96 835.72 836.4 836.51C836.81 837.26 836.68 838.35 836.12 838.92Z" fill="#342F28" stroke="#010101" stroke-miterlimit="10"/>
<defs>
<radialGradient id="paint0_radial_87_18546" cx="0" cy="0" r="1" gradientUnits="userSpaceOnUse" gradientTransform="translate(838.586 838.031) scale(85.3621)">
<stop stop-color="#BCA88C"/>
<stop offset="0.5503" stop-color="#B4A287"/>
<stop offset="0.9994" stop-color="#AA9982"/>
</radialGradient>
</defs>
</svg>
