<svg width="1660" height="1660" viewBox="0 0 1660 1660" fill="none" xmlns="http://www.w3.org/2000/svg">
<path d="M637.91 1241.77C632.79 1240.22 632.92 1220.63 637.91 1204.94C643.43 1187.57 656.26 1170.71 661.45 1172.67C666.68 1174.65 661.06 1195.67 655.56 1211.29C650.43 1225.85 643.15 1243.36 637.91 1241.77Z" fill="#13161B" stroke="#010101" stroke-width="4" stroke-miterlimit="10"/>
<path d="M1031 1228.45C1035.92 1226.37 1033.72 1206.9 1027.11 1191.83C1019.79 1175.15 1005.25 1159.73 1000.29 1162.23C995.3 1164.75 1003.11 1185.06 1010.23 1200.01C1016.87 1213.95 1025.96 1230.59 1031 1228.45Z" fill="#13161B" stroke="#010101" stroke-width="4" stroke-miterlimit="10"/>
<path d="M535.29 1019.73C549.1 1053.91 558.55 1103.64 599.53 1152.49C644.84 1206.49 707.37 1238.23 740.72 1257.82" stroke="#010101" stroke-width="14" stroke-miterlimit="10"/>
<path d="M1093.36 913.67C1093.37 950.53 1100.2 1014.22 1080.52 1074.87C1058.77 1141.92 1012.7 1194.79 989.13 1225.46" stroke="#010101" stroke-width="14" stroke-miterlimit="10"/>
<path d="M993.53 1227.73C987.02 1255.19 973.79 1273.38 960.73 1273.34C953.23 1273.32 944.1 1267.29 943.85 1261.34C943.5 1253.06 960.56 1249.11 959.8 1241.98C958.99 1234.34 941.33 1233.94 942.09 1231.03C945.28 1218.85 952.03 1226.57 969.15 1224.83C975.72 1224.16 979.15 1222.86 985.56 1221.15C989.44 1220.13 991.93 1225.32 993.53 1227.73Z" fill="#010101" stroke="#010101" stroke-width="4" stroke-miterlimit="10"/>
<path d="M615.05 858.05C598.4 874.85 591.86 884.09 561.86 922.32C536.73 954.34 534.79 958.09 531.04 967.5C526.9 977.88 524.6 990.87 526.34 1007.72C529.04 1033.81 509.35 1035.66 523.89 1081.07C526.64 1089.67 515.61 1095.84 521.31 1127.02C528.38 1165.69 590.96 1238.97 637.99 1242.38C645.06 1242.89 632.86 1226.25 640.98 1205.98C649.07 1185.8 664.71 1186.36 667.93 1172.79C670.43 1162.25 664.88 1138.66 661.37 1127.03C662.52 1130.24 667.96 1145.23 669.22 1149.01C674.91 1166.07 664.53 1183.14 664.06 1213.39C663.68 1237.82 670.92 1250.3 670.92 1260.43C670.92 1267.71 666.87 1272.39 665.92 1281.07C664.94 1289.99 664.64 1298.23 670.07 1303.93C681.68 1316.11 705.94 1311.98 744.33 1306.58C765.95 1303.54 798.04 1299.26 838.28 1294.77C838.27 1294.7 838.25 1294.63 838.24 1294.56C838.22 1294.42 838.18 1294.21 838.13 1293.94C926.15 1310.09 994.17 1309.63 1003.07 1292.57C1009.19 1280.84 1007.74 1274.13 1007.74 1274.13C1006.53 1265.12 1003.32 1261.53 1002.18 1255.14C999.11 1237.89 1003.29 1226.44 1003.11 1201.86C1002.91 1175.17 989.02 1165.89 993.72 1137.86C994.73 1131.85 1000.19 1115.14 1000.11 1115.51C997.37 1127.31 993.38 1151.15 996.57 1161.54C1000.68 1174.91 1016.26 1173.54 1025.66 1193.26C1034.2 1211.18 1025.95 1227.02 1029.5 1229.22C1030.07 1229.57 1030.71 1229.45 1031.05 1229.45C1047.42 1229.45 1129.67 1160.83 1140.5 1104.81C1143.3 1090.32 1137.95 1074.79 1137.95 1074.79C1136.29 1070.5 1135.73 1070.69 1135.15 1067.96C1133.24 1059.06 1138.93 1055.81 1140.98 1041.54C1141.83 1035.6 1141.5 1031.62 1141.09 1029.01C1140.89 1027.72 1140.51 1026.1 1139.75 1022.85C1138.48 1017.44 1137.85 1014.73 1137.03 1012.54C1134.65 1006.16 1132.98 1006.94 1132.24 1002.98C1131.5 998.98 1133.16 997.91 1133.52 991.24C1133.66 988.54 1133.49 986.65 1133.13 982.86C1132.34 974.41 1131.85 969.21 1129.37 962.63C1128.77 961.03 1126.64 955.62 1122.29 949.45C1119.23 945.11 1116.15 941.93 1114.5 940.23C1112.66 938.34 1111 936.81 1109.72 935.68C1109.79 932.56 1109.61 928.14 1108.42 923C1107.36 918.42 1104.14 907.64 1091.88 894.55C1078.99 880.79 1067.78 879.15 1028.11 848.86C1018.83 841.77 1004.72 833.63 1000.76 832.05C978.99 823.38 969.06 819.55 959.24 818.42C944.09 816.68 929.58 814.24 917.7 821.05C905.05 828.3 906.61 839.19 897.29 856.56C888.01 873.85 865.09 902.87 841.34 902.75C825.9 902.67 810.24 885.22 779.56 850.31C758.62 826.49 755.42 819.32 749.64 814.99C749.22 814.67 746.69 813.15 744.14 811.89C715.73 797.84 666.11 812.99 630.02 843.62C625.71 847.28 622.16 850.87 615.05 858.05ZM642.02 1097.23C634.12 1089.36 640.82 1087.39 643.36 1057.19C644.98 1037.92 642.86 1019.65 645.31 1019.7C648.32 1019.75 655.7 1047.74 654.16 1059.29C649.44 1094.6 653.03 1104.6 661.37 1127.02C656.17 1114.98 649.04 1104.22 642.02 1097.23ZM1017.48 1084.76C1010.93 1092.11 1004.52 1103.22 1000.12 1115.52C1006.98 1092.69 1009.9 1082.53 1002.86 1047.52C1000.56 1036.07 1006.09 1007.75 1009.09 1007.53C1011.53 1007.36 1010.61 1025.7 1013.5 1044.86C1018.03 1074.87 1024.85 1076.48 1017.48 1084.76Z" fill="url(#paint0_radial_87_17846)" stroke="#010101" stroke-width="4" stroke-miterlimit="10"/>
<path d="M650.72 1009.98C645.54 1009.44 649.96 970.88 636.49 929.07C634.84 923.94 637.15 924.39 628 898.72C622.46 883.19 606.72 867.55 613.06 861.1C630.06 843.79 642.08 835.68 652.38 829.51C669.05 819.52 706.51 799.57 736.54 810.15C740.5 811.54 740.39 813.05 742.44 814.51C752.83 821.95 753.74 835.79 779.11 862.92C802.88 888.34 815.86 902.22 831.76 901.85C864.45 901.09 914.46 877.31 922.7 833.93C929.33 799.05 992.35 828 1008.26 837.08C1014.24 840.49 1026.34 849.08 1041.53 860.52C1049.03 866.17 1057.55 870.76 1061.68 874.25C1057.68 878.8 1051.32 885.9 1045.68 893.7C1040.62 900.7 1029.87 917.04 1021.74 936.63C1011.56 961.19 1009.2 990.16 1009.09 1007.52C993.14 991.48 958.57 968.76 922.2 951.95C905.14 944.06 878.81 940.57 833.49 937.82C818.2 936.89 801.68 938.68 764.72 942.48C749.34 947.37 707.48 953.61 679.01 978.76C660.72 994.93 655.19 1010.45 650.72 1009.98Z" fill="url(#paint1_radial_87_17846)"/>
<path d="M621.36 1236.56C620.13 1230.05 616.03 1213.38 624.78 1195.39C636.43 1171.43 659.01 1164.11 667.7 1160.87C667.7 1170.84 666.05 1176.7 661.62 1180.47C648.64 1191.55 646.54 1192.59 641.83 1200.85C636.63 1210 637.18 1217.22 638.81 1240.83C633.62 1240.24 627.09 1239.07 621.36 1236.56Z" fill="url(#paint2_radial_87_17846)"/>
<path d="M1048.42 1219.34C1049.39 1213.05 1052.61 1195 1043.61 1177.91C1031.63 1155.15 1005.81 1147.21 996.21 1144.85C995.45 1157.08 998.34 1164.94 1002.71 1168.46C1015.56 1178.79 1020.29 1181.03 1025.08 1188.87C1030.38 1197.54 1033.11 1204.23 1030.43 1227.54C1033.46 1228.25 1042.68 1223.7 1048.42 1219.34Z" fill="url(#paint3_radial_87_17846)"/>
<path d="M942.36 897.9C944.21 897.78 946.09 897.83 947.93 898.09C948.23 898.13 948.71 898.08 948.93 897.86C949.16 897.62 948.8 897.51 948.61 897.49C946.66 897.22 944.64 897.16 942.68 897.29C942.45 897.31 941.89 897.33 941.79 897.61C941.69 897.87 942.21 897.91 942.36 897.9Z" fill="white"/>
<path d="M944.5 897.63C944.5 898.79 944.53 899.95 944.57 901.1C944.59 901.67 944.62 902.24 944.65 902.8C944.68 903.29 944.65 903.83 944.86 904.29C945.03 904.68 946.49 904.62 946.31 904.21C946.11 903.76 946.16 903.17 946.14 902.69C946.11 902.14 946.09 901.6 946.07 901.05C946.03 899.94 946.01 898.82 946 897.71C946 897.27 944.5 897.22 944.5 897.63Z" fill="white"/>
<path d="M949.65 897.31C949.62 899.85 949.65 902.39 949.72 904.93C949.73 905.31 951.21 905.14 951.2 904.67C951.13 902.13 951.11 899.59 951.13 897.05C951.13 896.69 949.65 896.84 949.65 897.31Z" fill="white"/>
<path d="M951.13 901.13C952.52 900.56 953.95 900.24 955.43 900.17C955.59 900.16 956.1 900.07 955.96 899.81C955.83 899.55 955.27 899.57 955.04 899.58C953.34 899.66 951.65 900.03 950.08 900.68C950 900.71 949.86 900.78 949.86 900.89C949.86 901 950 901.07 950.07 901.11C950.37 901.23 950.83 901.25 951.13 901.13Z" fill="white"/>
<path d="M955.26 897.67C955.26 899.78 955.34 901.89 955.52 903.99C955.55 904.4 957.05 904.25 957.01 903.82C956.83 901.72 956.75 899.61 956.75 897.5C956.75 897.11 955.26 897.22 955.26 897.67Z" fill="white"/>
<path d="M958.35 897.34C958.43 899.4 958.61 901.45 958.9 903.48C958.97 904 958.98 904.34 959.51 904.57C959.98 904.77 960.51 904.73 961.01 904.76C962.02 904.83 963.02 905 964 905.24C964.17 905.28 964.74 905.38 964.8 905.12C964.86 904.86 964.29 904.7 964.14 904.66C963.39 904.47 962.64 904.33 961.88 904.22C961.51 904.17 961.13 904.13 960.76 904.1C960.56 904.08 960.36 904.07 960.16 904.06C960.07 904.06 959.97 904.05 959.88 904.05C959.58 904.03 959.69 904.06 960.22 904.15C960.32 904.23 960.42 904.32 960.52 904.4C960.39 904.19 960.4 903.88 960.36 903.64C960.32 903.35 960.28 903.07 960.25 902.78C960.18 902.21 960.11 901.64 960.06 901.06C959.95 899.93 959.88 898.8 959.83 897.66C959.79 897.19 958.34 897 958.35 897.34Z" fill="white"/>
<path d="M960.11 900.88C961.35 900.87 962.59 900.86 963.83 900.85C963.97 900.85 964.52 900.84 964.4 900.56C964.29 900.3 963.75 900.22 963.52 900.22C962.28 900.23 961.04 900.24 959.8 900.25C959.66 900.25 959.11 900.26 959.23 900.54C959.33 900.79 959.88 900.88 960.11 900.88Z" fill="white"/>
<path d="M960.11 897.91C961.44 897.85 962.92 897.89 964.18 898.02C964.36 898.04 964.91 898.11 964.97 897.83C965.02 897.57 964.41 897.44 964.27 897.43C962.66 897.26 961.06 897.22 959.44 897.29C959.25 897.3 958.88 897.43 959.11 897.66C959.35 897.89 959.8 897.92 960.11 897.91Z" fill="white"/>
<path d="M946.64 907.22C947.15 909.48 947.5 911.75 947.7 914.05C947.74 914.5 949.23 914.5 949.2 914.11C949 911.81 948.65 909.53 948.14 907.28C948.03 906.82 946.56 906.89 946.64 907.22Z" fill="white"/>
<path d="M945.22 908.21C946.98 907.53 948.86 907.19 950.75 907.22C950.95 907.22 951.31 907.15 951.11 906.89C950.92 906.64 950.44 906.53 950.14 906.53C948.06 906.5 945.98 906.84 944.04 907.6C943.73 907.72 944.03 907.98 944.2 908.07C944.47 908.2 944.91 908.33 945.22 908.21Z" fill="white"/>
<path d="M952.95 907.37C954.51 907.21 956.06 907.15 957.65 907.19C957.89 907.2 958.43 907.14 958.54 906.88C958.66 906.6 958.11 906.58 957.98 906.57C956.28 906.52 954.58 906.59 952.89 906.77C952.71 906.79 952.16 906.88 952.18 907.15C952.19 907.42 952.8 907.39 952.95 907.37Z" fill="white"/>
<path d="M954.91 907.15C955.07 909.39 955.23 911.64 955.39 913.88C955.42 914.32 956.92 914.26 956.89 913.85C956.73 911.61 956.57 909.36 956.41 907.12C956.38 906.68 954.88 906.74 954.91 907.15Z" fill="white"/>
<path d="M959.93 906.89C960.32 908.93 960.71 910.97 961.11 913.01C961.19 913.42 961.23 913.77 961.68 913.89C962.15 914.02 962.72 913.94 963.2 913.94C964.24 913.94 965.28 913.94 966.32 913.94C966.55 913.94 967.11 913.88 967.21 913.62C967.31 913.34 966.79 913.32 966.64 913.32C965.93 913.32 965.22 913.32 964.51 913.32C964.16 913.32 963.8 913.32 963.45 913.32C963.27 913.32 963.1 913.32 962.92 913.32C962.83 913.32 962.74 913.32 962.65 913.32C962.5 913.33 962.47 913.32 962.58 913.31C962.65 913.35 962.72 913.38 962.79 913.42C962.6 913.28 962.61 912.98 962.57 912.77C962.52 912.51 962.47 912.24 962.42 911.98C962.31 911.39 962.19 910.8 962.08 910.2C961.86 909.04 961.63 907.88 961.41 906.71C961.33 906.27 959.85 906.49 959.93 906.89Z" fill="white"/>
<path d="M938.72 917.67C939.28 919.75 939.54 921.91 939.47 924.06C939.45 924.54 940.89 924.84 940.9 924.51C940.97 922.3 940.72 920.09 940.14 917.95C940.03 917.52 938.61 917.26 938.72 917.67Z" fill="white"/>
<path d="M940.03 917.66C941.53 917.36 943.06 917.2 944.6 917.21C944.75 917.21 945.28 917.22 945.18 916.94C945.09 916.68 944.52 916.58 944.31 916.58C942.55 916.57 940.8 916.72 939.07 917.07C938.99 917.09 938.84 917.14 938.82 917.24C938.8 917.35 938.93 917.44 939 917.49C939.27 917.66 939.7 917.72 940.03 917.66Z" fill="white"/>
<path d="M940.48 920.65C941.87 920.42 943.27 920.19 944.66 919.96C944.8 919.94 945.33 919.82 945.17 919.57C945.01 919.33 944.47 919.36 944.24 919.4C942.85 919.63 941.45 919.86 940.06 920.09C939.92 920.11 939.39 920.23 939.55 920.48C939.71 920.72 940.25 920.69 940.48 920.65Z" fill="white"/>
<path d="M947.84 916.33C947.02 918.82 946.17 921.29 945.27 923.75C945.13 924.12 946.57 924.56 946.72 924.13C947.61 921.67 948.47 919.19 949.29 916.71C949.41 916.32 947.98 915.9 947.84 916.33Z" fill="white"/>
<path d="M948.28 917.08C950.01 919.36 950.03 922.4 951.34 924.88C951.52 925.23 952.97 924.92 952.74 924.49C951.42 922 951.42 918.99 949.68 916.69C949.43 916.35 948.02 916.72 948.28 917.08Z" fill="white"/>
<path d="M947.83 922.85C948.95 922.55 950.07 922.25 951.18 921.95C951.32 921.91 951.84 921.76 951.66 921.52C951.48 921.3 950.94 921.36 950.72 921.42C949.6 921.72 948.48 922.02 947.37 922.32C947.23 922.36 946.71 922.51 946.89 922.75C947.06 922.97 947.6 922.91 947.83 922.85Z" fill="white"/>
<path d="M960.13 918.96C959.89 917.81 958.26 917.36 957.27 917.24C956.06 917.08 954.74 917.26 953.78 918.07C953.4 918.39 953.1 918.81 952.95 919.29C952.76 919.87 952.86 920.5 953.07 921.07C953.49 922.21 954.28 923.22 955.41 923.73C956.12 924.05 956.94 924.17 957.71 924.06C958.44 923.96 959.1 923.66 959.74 923.32C960.03 923.17 959.71 922.94 959.54 922.87C959.26 922.75 958.8 922.67 958.51 922.82C957.88 923.15 957.02 923.66 956.32 923.36C955.52 923.01 955 922.2 954.65 921.43C954.27 920.6 954.18 919.68 954.74 918.92C955.22 918.27 955.99 917.86 956.79 917.83C957.53 917.8 958.49 918.1 958.66 918.91C958.76 919.29 960.23 919.42 960.13 918.96Z" fill="white"/>
<path d="M961.57 917.52C961.68 918.56 961.79 919.61 961.89 920.65C962 921.67 962.04 922.73 962.21 923.74C962.39 924.82 963.94 924.53 964.71 924.44C965.74 924.32 966.75 924.15 967.76 923.94C967.96 923.9 968.28 923.75 968.04 923.54C967.81 923.33 967.3 923.34 967.02 923.4C966.21 923.57 965.4 923.71 964.58 923.82C964.37 923.85 964.16 923.87 963.95 923.9C963.84 923.91 963.74 923.92 963.63 923.93C963.59 923.93 963.55 923.94 963.52 923.94C963.37 923.95 963.45 923.97 963.77 923.99C963.78 923.97 963.7 923.78 963.7 923.75C963.69 923.65 963.68 923.54 963.67 923.44C963.65 923.22 963.62 923.01 963.6 922.79C963.42 921.05 963.24 919.31 963.06 917.58C963.02 917.12 961.53 917.14 961.57 917.52Z" fill="white"/>
<path d="M963.71 920.62C964.28 920.42 964.85 920.24 965.43 920.07C965.71 919.99 966 919.91 966.29 919.83C966.43 919.79 966.58 919.75 966.72 919.72C966.79 919.7 966.85 919.69 966.92 919.67C966.96 919.66 967.01 919.65 967.05 919.64C966.98 919.66 966.99 919.65 967.07 919.63C967.21 919.6 967.74 919.47 967.56 919.22C967.4 918.99 966.85 919.03 966.62 919.08C965.36 919.39 964.12 919.74 962.9 920.17C962.73 920.23 962.38 920.42 962.66 920.6C962.94 920.76 963.42 920.72 963.71 920.62Z" fill="white"/>
<path d="M962.98 917.66C964.22 917.33 965.5 917.19 966.77 917.27C966.95 917.28 967.35 917.23 967.15 916.96C966.96 916.7 966.51 916.57 966.2 916.55C964.73 916.46 963.26 916.6 961.83 916.98C961.51 917.07 961.81 917.37 961.96 917.45C962.25 917.62 962.65 917.75 962.98 917.66Z" fill="white"/>
<path d="M968.2 900.82C972.93 901.8 977.32 904.97 979.55 909.29C981.65 913.37 982.4 918.56 981.63 923.07C981.46 924.06 984.36 923.56 984.52 922.66C985.34 917.86 984.58 912.23 982.16 907.97C979.59 903.46 975.05 900.41 970.01 899.36C969.37 899.23 968.45 899.48 967.96 899.91C967.5 900.32 967.6 900.7 968.2 900.82Z" fill="white"/>
<path d="M970.92 909.57C972.96 910.59 973.65 912.63 974.19 914.71C974.96 917.62 974.75 920.45 974.37 923.4C974.21 924.64 977.14 924.15 977.28 923.08C977.69 919.91 977.87 916.87 977.04 913.76C976.42 911.42 975.48 909.25 973.2 908.11C972.57 907.8 971.71 907.99 971.14 908.36C970.75 908.61 970.29 909.26 970.92 909.57Z" fill="white"/>
<path d="M670.93 1159.05C722.1 1129.91 774.81 1142.62 831.52 1145.01C895.82 1147.73 925.77 1127.01 992.78 1149" stroke="#010101" stroke-width="4" stroke-miterlimit="10"/>
<path d="M654.34 1057.05C690.84 1026.8 753.1 1033.52 834.12 1032.83C907.67 1032.2 962.4 1020.88 1003.41 1050.34" stroke="#010101" stroke-width="4" stroke-miterlimit="10"/>
<path d="M646.58 1020.88C662.26 986.54 704.01 961.15 720.05 955.31C773.9 935.69 874.34 933.11 927.6 953.94C963.07 967.81 997.49 992.48 1009.09 1007.53" stroke="#010101" stroke-width="4" stroke-miterlimit="10"/>
<path d="M670.93 1260.42C728.24 1267.7 771.65 1256.97 832.07 1250.7C865.81 1247.2 914.58 1268.12 1001.17 1252.64" stroke="#010101" stroke-width="4" stroke-miterlimit="10"/>
<path d="M611.18 861.83C620.33 880.66 629.52 903.43 636.57 929.8C646.57 967.23 649.21 1000.54 649.08 1026.8" stroke="#010101" stroke-width="4" stroke-miterlimit="10"/>
<path d="M1063.49 875.46C1051.55 887.15 1032.52 908.81 1020.58 940.56C1009.65 969.64 1009.27 994.96 1010.34 1010.3" stroke="#010101" stroke-width="4" stroke-miterlimit="10"/>
<path d="M560.91 930.31C572.75 939.86 585.49 951.39 598.17 965.15C619.12 987.89 633.78 1010.08 644.03 1028.68" stroke="#010101" stroke-width="4" stroke-miterlimit="10"/>
<path d="M525.47 1019.45C548.03 1026.59 567.77 1030.34 581.77 1036.95C596.41 1043.86 622.89 1054.86 641.97 1069.16" stroke="#010101" stroke-width="4" stroke-miterlimit="10"/>
<path d="M524.84 1086.16C539.76 1084.6 557.33 1083.71 576.96 1084.51C600.96 1085.5 621.81 1088.77 638.71 1092.47" stroke="#010101" stroke-width="4" stroke-miterlimit="10"/>
<path d="M537.25 1164.57C544.01 1155.17 559.18 1139.29 577.99 1127.07C603.45 1110.55 631.55 1105.35 645.17 1103.47" stroke="#010101" stroke-width="4" stroke-miterlimit="10"/>
<path d="M667.32 1159.05C662.75 1160.4 636.16 1168.69 623.32 1193.89C613.55 1213.08 618.45 1232.5 619.99 1238.12" stroke="#010101" stroke-width="4" stroke-miterlimit="10"/>
<path d="M1109.73 935.69C1094.37 944.73 1076.68 956.66 1058.6 972.18C1038.1 989.78 1022.98 1012 1011.62 1026.81" stroke="#010101" stroke-width="4" stroke-miterlimit="10"/>
<path d="M1132.26 1002.97C1112.65 1006.58 1094.7 1012.69 1071.33 1024.31C1044.1 1037.85 1032.95 1051.59 1018.29 1062.94" stroke="#010101" stroke-width="4" stroke-miterlimit="10"/>
<path d="M1135.16 1067.95C1119.9 1065.5 1099.48 1064.16 1076.06 1067.47C1049.04 1071.29 1033.67 1075.63 1019.87 1081.4" stroke="#010101" stroke-width="4" stroke-miterlimit="10"/>
<path d="M1050.57 1220.42C1049.1 1216.54 1058.5 1194.3 1039.35 1169.39C1023.63 1148.93 1000.09 1143.57 994.46 1142.43" stroke="#010101" stroke-width="4" stroke-miterlimit="10"/>
<path d="M1011.63 1094.05C1025.3 1091.95 1057.69 1096.09 1078.96 1103.46C1105.36 1112.62 1120.91 1122.03 1132.26 1129.14" stroke="#010101" stroke-width="4" stroke-miterlimit="10"/>
<path d="M834.91 905.44C834.79 952.75 834.84 991.25 834.91 1017.85C835.03 1064.75 835.2 1070.18 834.91 1088.94C834.03 1146.64 831.48 1159.1 831.51 1194.66C831.53 1217.95 832.66 1252.35 838.27 1294.76" stroke="#303030" stroke-width="7" stroke-miterlimit="10"/>
<path d="M836.41 886.67V880.36" stroke="#62597E" stroke-width="0.25"/>
<path d="M835.48 886.67V880.36" stroke="#62597E" stroke-width="0.25"/>
<path d="M833.63 880.35V886.66" stroke="#62597E" stroke-width="0.25"/>
<path d="M834.56 886.66V880.35" stroke="#62597E" stroke-width="0.25"/>
<path d="M832.71 880.35V886.66" stroke="#62597E" stroke-width="0.25"/>
<path d="M836.41 892.98V886.67" stroke="#62597E" stroke-width="0.25"/>
<path d="M835.48 892.98V886.67" stroke="#62597E" stroke-width="0.25"/>
<path d="M833.63 886.66V892.97" stroke="#62597E" stroke-width="0.25"/>
<path d="M834.56 892.98V886.67" stroke="#62597E" stroke-width="0.25"/>
<path d="M832.71 886.66V892.97" stroke="#62597E" stroke-width="0.25"/>
<path d="M836.41 899.29V892.98" stroke="#62597E" stroke-width="0.25"/>
<path d="M835.48 899.29V892.98" stroke="#62597E" stroke-width="0.25"/>
<path d="M833.63 892.97V899.28" stroke="#62597E" stroke-width="0.25"/>
<path d="M834.56 899.29V892.98" stroke="#62597E" stroke-width="0.25"/>
<path d="M832.71 892.97V899.28" stroke="#62597E" stroke-width="0.25"/>
<path d="M836.41 905.6V899.29" stroke="#62597E" stroke-width="0.25"/>
<path d="M835.48 905.6V899.29" stroke="#62597E" stroke-width="0.25"/>
<path d="M833.63 899.28V905.6" stroke="#62597E" stroke-width="0.25"/>
<path d="M834.56 905.6V899.29" stroke="#62597E" stroke-width="0.25"/>
<path d="M832.71 899.28V905.59" stroke="#62597E" stroke-width="0.25"/>
<path d="M836.41 911.91V905.6" stroke="#62597E" stroke-width="0.25"/>
<path d="M835.48 911.91V905.6" stroke="#62597E" stroke-width="0.25"/>
<path d="M833.63 905.6V911.91" stroke="#62597E" stroke-width="0.25"/>
<path d="M834.56 911.91V905.6" stroke="#62597E" stroke-width="0.25"/>
<path d="M832.71 905.59V911.9" stroke="#62597E" stroke-width="0.25"/>
<path d="M836.41 918.22V911.91" stroke="#62597E" stroke-width="0.25"/>
<path d="M835.48 918.22V911.91" stroke="#62597E" stroke-width="0.25"/>
<path d="M833.63 911.91V918.22" stroke="#62597E" stroke-width="0.25"/>
<path d="M834.56 918.22V911.91" stroke="#62597E" stroke-width="0.25"/>
<path d="M832.71 911.9V918.22" stroke="#62597E" stroke-width="0.25"/>
<path d="M836.41 924.53V918.22" stroke="#62597E" stroke-width="0.25"/>
<path d="M835.48 924.53V918.22" stroke="#62597E" stroke-width="0.25"/>
<path d="M833.63 918.22V924.53" stroke="#62597E" stroke-width="0.25"/>
<path d="M834.56 924.53V918.22" stroke="#62597E" stroke-width="0.25"/>
<path d="M832.71 918.22V924.53" stroke="#62597E" stroke-width="0.25"/>
<path d="M836.41 930.84V924.53" stroke="#62597E" stroke-width="0.25"/>
<path d="M835.48 930.84V924.53" stroke="#62597E" stroke-width="0.25"/>
<path d="M833.63 924.53V930.84" stroke="#62597E" stroke-width="0.25"/>
<path d="M834.56 930.84V924.53" stroke="#62597E" stroke-width="0.25"/>
<path d="M832.71 924.53V930.84" stroke="#62597E" stroke-width="0.25"/>
<path d="M836.41 937.15V930.84" stroke="#62597E" stroke-width="0.25"/>
<path d="M835.48 937.15V930.84" stroke="#62597E" stroke-width="0.25"/>
<path d="M833.63 930.84V937.15" stroke="#62597E" stroke-width="0.25"/>
<path d="M834.56 937.15V930.84" stroke="#62597E" stroke-width="0.25"/>
<path d="M832.71 930.84V937.15" stroke="#62597E" stroke-width="0.25"/>
<path d="M836.41 943.46V937.15" stroke="#62597E" stroke-width="0.25"/>
<path d="M835.48 943.46V937.15" stroke="#62597E" stroke-width="0.25"/>
<path d="M833.63 937.15V943.46" stroke="#62597E" stroke-width="0.25"/>
<path d="M834.56 943.46V937.15" stroke="#62597E" stroke-width="0.25"/>
<path d="M832.71 937.15V943.46" stroke="#62597E" stroke-width="0.25"/>
<path d="M836.41 949.77V943.46" stroke="#62597E" stroke-width="0.25"/>
<path d="M835.48 949.77V943.46" stroke="#62597E" stroke-width="0.25"/>
<path d="M833.63 943.46V949.77" stroke="#62597E" stroke-width="0.25"/>
<path d="M834.56 949.77V943.46" stroke="#62597E" stroke-width="0.25"/>
<path d="M832.71 943.46V949.77" stroke="#62597E" stroke-width="0.25"/>
<path d="M836.41 956.08V949.77" stroke="#62597E" stroke-width="0.25"/>
<path d="M835.48 956.08V949.77" stroke="#62597E" stroke-width="0.25"/>
<path d="M833.63 949.77V956.08" stroke="#62597E" stroke-width="0.25"/>
<path d="M834.56 956.08V949.77" stroke="#62597E" stroke-width="0.25"/>
<path d="M832.71 949.77V956.08" stroke="#62597E" stroke-width="0.25"/>
<path d="M836.41 962.39V956.08" stroke="#62597E" stroke-width="0.25"/>
<path d="M835.48 962.39V956.08" stroke="#62597E" stroke-width="0.25"/>
<path d="M833.63 956.08V962.39" stroke="#62597E" stroke-width="0.25"/>
<path d="M834.56 962.39V956.08" stroke="#62597E" stroke-width="0.25"/>
<path d="M832.71 956.08V962.39" stroke="#62597E" stroke-width="0.25"/>
<path d="M836.41 968.7V962.39" stroke="#62597E" stroke-width="0.25"/>
<path d="M835.48 968.7V962.39" stroke="#62597E" stroke-width="0.25"/>
<path d="M833.63 962.39V968.7" stroke="#62597E" stroke-width="0.25"/>
<path d="M834.56 968.7V962.39" stroke="#62597E" stroke-width="0.25"/>
<path d="M832.71 962.4V968.71" stroke="#62597E" stroke-width="0.25"/>
<path d="M836.41 975.01V968.7" stroke="#62597E" stroke-width="0.25"/>
<path d="M835.48 975.01V968.7" stroke="#62597E" stroke-width="0.25"/>
<path d="M833.63 968.71V975.02" stroke="#62597E" stroke-width="0.25"/>
<path d="M834.56 975.01V968.7" stroke="#62597E" stroke-width="0.25"/>
<path d="M832.71 968.71V975.02" stroke="#62597E" stroke-width="0.25"/>
<path d="M836.41 981.32V975.01" stroke="#62597E" stroke-width="0.25"/>
<path d="M835.48 981.32V975.01" stroke="#62597E" stroke-width="0.25"/>
<path d="M833.63 975.02V981.33" stroke="#62597E" stroke-width="0.25"/>
<path d="M834.56 981.32V975.01" stroke="#62597E" stroke-width="0.25"/>
<path d="M832.71 975.02V981.33" stroke="#62597E" stroke-width="0.25"/>
<path d="M836.41 987.63V981.32" stroke="#62597E" stroke-width="0.25"/>
<path d="M835.48 987.63V981.32" stroke="#62597E" stroke-width="0.25"/>
<path d="M833.63 981.33V987.64" stroke="#62597E" stroke-width="0.25"/>
<path d="M834.56 987.64V981.32" stroke="#62597E" stroke-width="0.25"/>
<path d="M832.71 981.33V987.64" stroke="#62597E" stroke-width="0.25"/>
<path d="M836.41 993.94V987.63" stroke="#62597E" stroke-width="0.25"/>
<path d="M835.48 993.94V987.63" stroke="#62597E" stroke-width="0.25"/>
<path d="M833.63 987.64V993.95" stroke="#62597E" stroke-width="0.25"/>
<path d="M834.56 993.95V987.64" stroke="#62597E" stroke-width="0.25"/>
<path d="M832.71 987.64V993.95" stroke="#62597E" stroke-width="0.25"/>
<path d="M836.41 1000.25V993.94" stroke="#62597E" stroke-width="0.25"/>
<path d="M835.48 1000.25V993.94" stroke="#62597E" stroke-width="0.25"/>
<path d="M833.63 993.95V1000.26" stroke="#62597E" stroke-width="0.25"/>
<path d="M834.56 1000.26V993.95" stroke="#62597E" stroke-width="0.25"/>
<path d="M832.71 993.95V1000.26" stroke="#62597E" stroke-width="0.25"/>
<path d="M836.43 1006.56L836.41 1000.25" stroke="#62597E" stroke-width="0.25"/>
<path d="M835.51 1006.56L835.48 1000.25" stroke="#62597E" stroke-width="0.25"/>
<path d="M833.63 1000.26L833.65 1006.57" stroke="#62597E" stroke-width="0.25"/>
<path d="M834.58 1006.57L834.56 1000.26" stroke="#62597E" stroke-width="0.25"/>
<path d="M832.71 1000.26L832.73 1006.57" stroke="#62597E" stroke-width="0.25"/>
<path d="M836.46 1012.87L836.43 1006.56" stroke="#62597E" stroke-width="0.25"/>
<path d="M835.53 1012.87L835.51 1006.56" stroke="#62597E" stroke-width="0.25"/>
<path d="M833.65 1006.57L833.68 1012.88" stroke="#62597E" stroke-width="0.25"/>
<path d="M834.61 1012.88L834.58 1006.57" stroke="#62597E" stroke-width="0.25"/>
<path d="M832.73 1006.57L832.75 1012.89" stroke="#62597E" stroke-width="0.25"/>
<path d="M836.49 1019.18L836.46 1012.87" stroke="#62597E" stroke-width="0.25"/>
<path d="M835.56 1019.18L835.53 1012.87" stroke="#62597E" stroke-width="0.25"/>
<path d="M833.68 1012.88L833.71 1019.19" stroke="#62597E" stroke-width="0.25"/>
<path d="M834.63 1019.19L834.61 1012.88" stroke="#62597E" stroke-width="0.25"/>
<path d="M832.75 1012.89L832.78 1019.2" stroke="#62597E" stroke-width="0.25"/>
<path d="M836.51 1025.49L836.49 1019.18" stroke="#62597E" stroke-width="0.25"/>
<path d="M835.59 1025.49L835.56 1019.18" stroke="#62597E" stroke-width="0.25"/>
<path d="M833.71 1019.19L833.73 1025.5" stroke="#62597E" stroke-width="0.25"/>
<path d="M834.66 1025.5L834.63 1019.19" stroke="#62597E" stroke-width="0.25"/>
<path d="M832.78 1019.2L832.81 1025.51" stroke="#62597E" stroke-width="0.25"/>
<path d="M836.55 1031.8L836.51 1025.49" stroke="#62597E" stroke-width="0.25"/>
<path d="M835.62 1031.8L835.59 1025.49" stroke="#62597E" stroke-width="0.25"/>
<path d="M833.73 1025.5L833.77 1031.81" stroke="#62597E" stroke-width="0.25"/>
<path d="M834.69 1031.81L834.66 1025.5" stroke="#62597E" stroke-width="0.25"/>
<path d="M832.81 1025.51L832.84 1031.82" stroke="#62597E" stroke-width="0.25"/>
<path d="M836.58 1038.11L836.55 1031.8" stroke="#62597E" stroke-width="0.25"/>
<path d="M835.65 1038.12L835.62 1031.81" stroke="#62597E" stroke-width="0.25"/>
<path d="M833.77 1031.81L833.8 1038.13" stroke="#62597E" stroke-width="0.25"/>
<path d="M834.72 1038.12L834.69 1031.81" stroke="#62597E" stroke-width="0.25"/>
<path d="M832.84 1031.82L832.87 1038.13" stroke="#62597E" stroke-width="0.25"/>
<path d="M836.61 1044.42L836.58 1038.11" stroke="#62597E" stroke-width="0.25"/>
<path d="M835.68 1044.43L835.65 1038.12" stroke="#62597E" stroke-width="0.25"/>
<path d="M833.8 1038.13L833.83 1044.44" stroke="#62597E" stroke-width="0.25"/>
<path d="M834.75 1044.43L834.72 1038.12" stroke="#62597E" stroke-width="0.25"/>
<path d="M832.87 1038.13L832.9 1044.44" stroke="#62597E" stroke-width="0.25"/>
<path d="M836.63 1050.74L836.61 1044.43" stroke="#62597E" stroke-width="0.25"/>
<path d="M835.7 1050.74L835.68 1044.43" stroke="#62597E" stroke-width="0.25"/>
<path d="M833.83 1044.44L833.85 1050.75" stroke="#62597E" stroke-width="0.25"/>
<path d="M834.77 1050.75L834.75 1044.43" stroke="#62597E" stroke-width="0.25"/>
<path d="M832.9 1044.44L832.92 1050.75" stroke="#62597E" stroke-width="0.25"/>
<path d="M836.63 1057.07V1050.74" stroke="#62597E" stroke-width="0.25"/>
<path d="M835.71 1057.06L835.7 1050.74" stroke="#62597E" stroke-width="0.25"/>
<path d="M833.85 1050.75V1057.06" stroke="#62597E" stroke-width="0.25"/>
<path d="M834.78 1057.06L834.77 1050.75" stroke="#62597E" stroke-width="0.25"/>
<path d="M832.92 1050.75L832.93 1057.06" stroke="#62597E" stroke-width="0.25"/>
<path d="M836.6 1063.4L836.63 1057.07" stroke="#62597E" stroke-width="0.25"/>
<path d="M835.68 1063.39L835.71 1057.06" stroke="#62597E" stroke-width="0.25"/>
<path d="M833.85 1057.06L833.82 1063.37" stroke="#62597E" stroke-width="0.25"/>
<path d="M834.75 1063.38L834.78 1057.06" stroke="#62597E" stroke-width="0.25"/>
<path d="M832.93 1057.06L832.9 1063.37" stroke="#62597E" stroke-width="0.25"/>
<path d="M836.53 1069.73L836.6 1063.4" stroke="#62597E" stroke-width="0.25"/>
<path d="M835.6 1069.72L835.68 1063.39" stroke="#62597E" stroke-width="0.25"/>
<path d="M833.82 1063.37L833.75 1069.69" stroke="#62597E" stroke-width="0.25"/>
<path d="M834.68 1069.7L834.75 1063.38" stroke="#62597E" stroke-width="0.25"/>
<path d="M832.9 1063.37L832.82 1069.67" stroke="#62597E" stroke-width="0.25"/>
<path d="M836.42 1076.05L836.53 1069.73" stroke="#62597E" stroke-width="0.25"/>
<path d="M835.49 1076.04L835.6 1069.72" stroke="#62597E" stroke-width="0.25"/>
<path d="M833.75 1069.69L833.64 1076" stroke="#62597E" stroke-width="0.25"/>
<path d="M834.56 1076.02L834.68 1069.7" stroke="#62597E" stroke-width="0.25"/>
<path d="M832.82 1069.67L832.71 1075.98" stroke="#62597E" stroke-width="0.25"/>
<path d="M836.27 1082.38L836.42 1076.06" stroke="#62597E" stroke-width="0.25"/>
<path d="M835.34 1082.35L835.49 1076.04" stroke="#62597E" stroke-width="0.25"/>
<path d="M833.64 1076L833.49 1082.31" stroke="#62597E" stroke-width="0.25"/>
<path d="M834.42 1082.33L834.56 1076.02" stroke="#62597E" stroke-width="0.25"/>
<path d="M832.71 1075.98L832.57 1082.29" stroke="#62597E" stroke-width="0.25"/>
<path d="M836.11 1088.7L836.27 1082.38" stroke="#62597E" stroke-width="0.25"/>
<path d="M835.19 1088.67L835.34 1082.36" stroke="#62597E" stroke-width="0.25"/>
<path d="M833.49 1082.31L833.34 1088.62" stroke="#62597E" stroke-width="0.25"/>
<path d="M834.26 1088.65L834.42 1082.33" stroke="#62597E" stroke-width="0.25"/>
<path d="M832.57 1082.29L832.41 1088.6" stroke="#62597E" stroke-width="0.25"/>
<path d="M835.92 1095.02L836.11 1088.7" stroke="#62597E" stroke-width="0.25"/>
<path d="M835 1094.99L835.19 1088.67" stroke="#62597E" stroke-width="0.25"/>
<path d="M833.34 1088.62L833.14 1094.93" stroke="#62597E" stroke-width="0.25"/>
<path d="M834.07 1094.96L834.26 1088.65" stroke="#62597E" stroke-width="0.25"/>
<path d="M832.41 1088.6L832.22 1094.9" stroke="#62597E" stroke-width="0.25"/>
<path d="M835.7 1101.34L835.92 1095.02" stroke="#62597E" stroke-width="0.25"/>
<path d="M834.77 1101.31L835 1094.99" stroke="#62597E" stroke-width="0.25"/>
<path d="M833.14 1094.93L832.92 1101.24" stroke="#62597E" stroke-width="0.25"/>
<path d="M833.85 1101.27L834.07 1094.96" stroke="#62597E" stroke-width="0.25"/>
<path d="M832.22 1094.9L832 1101.21" stroke="#62597E" stroke-width="0.25"/>
<path d="M835.45 1107.67L835.7 1101.34" stroke="#62597E" stroke-width="0.25"/>
<path d="M834.53 1107.63L834.77 1101.31" stroke="#62597E" stroke-width="0.25"/>
<path d="M832.92 1101.24L832.68 1107.55" stroke="#62597E" stroke-width="0.25"/>
<path d="M833.6 1107.59L833.85 1101.28" stroke="#62597E" stroke-width="0.25"/>
<path d="M832 1101.21L831.75 1107.51" stroke="#62597E" stroke-width="0.25"/>
<path d="M835.17 1113.99L835.45 1107.67" stroke="#62597E" stroke-width="0.25"/>
<path d="M834.24 1113.94L834.53 1107.63" stroke="#62597E" stroke-width="0.25"/>
<path d="M832.68 1107.55L832.39 1113.86" stroke="#62597E" stroke-width="0.25"/>
<path d="M833.32 1113.9L833.6 1107.59" stroke="#62597E" stroke-width="0.25"/>
<path d="M831.75 1107.51L831.47 1113.81" stroke="#62597E" stroke-width="0.25"/>
<path d="M834.85 1120.31L835.17 1113.99" stroke="#62597E" stroke-width="0.25"/>
<path d="M833.92 1120.26L834.24 1113.94" stroke="#62597E" stroke-width="0.25"/>
<path d="M832.39 1113.86L832.07 1120.16" stroke="#62597E" stroke-width="0.25"/>
<path d="M833 1120.21L833.32 1113.9" stroke="#62597E" stroke-width="0.25"/>
<path d="M831.47 1113.81L831.15 1120.11" stroke="#62597E" stroke-width="0.25"/>
<path d="M834.5 1126.63L834.85 1120.31" stroke="#62597E" stroke-width="0.25"/>
<path d="M833.57 1126.57L833.92 1120.26" stroke="#62597E" stroke-width="0.25"/>
<path d="M832.07 1120.16L831.72 1126.46" stroke="#62597E" stroke-width="0.25"/>
<path d="M832.65 1126.52L833 1120.21" stroke="#62597E" stroke-width="0.25"/>
<path d="M831.15 1120.11L830.8 1126.41" stroke="#62597E" stroke-width="0.25"/>
<path d="M834.11 1132.94L834.5 1126.63" stroke="#62597E" stroke-width="0.25"/>
<path d="M833.19 1132.88L833.57 1126.57" stroke="#62597E" stroke-width="0.25"/>
<path d="M831.72 1126.46L831.34 1132.76" stroke="#62597E" stroke-width="0.25"/>
<path d="M832.26 1132.82L832.65 1126.52" stroke="#62597E" stroke-width="0.25"/>
<path d="M830.8 1126.41L830.42 1132.71" stroke="#62597E" stroke-width="0.25"/>
<path d="M833.71 1139.25L834.11 1132.94" stroke="#62597E" stroke-width="0.25"/>
<path d="M832.78 1139.19L833.19 1132.88" stroke="#62597E" stroke-width="0.25"/>
<path d="M831.34 1132.77L830.94 1139.06" stroke="#62597E" stroke-width="0.25"/>
<path d="M831.86 1139.12L832.26 1132.82" stroke="#62597E" stroke-width="0.25"/>
<path d="M830.42 1132.71L830.01 1139" stroke="#62597E" stroke-width="0.25"/>
<path d="M833.29 1145.54L833.71 1139.25" stroke="#62597E" stroke-width="0.25"/>
<path d="M832.37 1145.48L832.78 1139.19" stroke="#62597E" stroke-width="0.25"/>
<path d="M830.94 1139.06L830.52 1145.36" stroke="#62597E" stroke-width="0.25"/>
<path d="M831.45 1145.42L831.86 1139.12" stroke="#62597E" stroke-width="0.25"/>
<path d="M830.01 1139L829.6 1145.3" stroke="#62597E" stroke-width="0.25"/>
<path d="M832.89 1151.83L833.29 1145.54" stroke="#62597E" stroke-width="0.25"/>
<path d="M831.96 1151.77L832.37 1145.48" stroke="#62597E" stroke-width="0.25"/>
<path d="M830.52 1145.36L830.11 1151.66" stroke="#62597E" stroke-width="0.25"/>
<path d="M831.04 1151.72L831.45 1145.42" stroke="#62597E" stroke-width="0.25"/>
<path d="M829.6 1145.3L829.19 1151.6" stroke="#62597E" stroke-width="0.25"/>
<path d="M832.51 1158.11L832.89 1151.83" stroke="#62597E" stroke-width="0.25"/>
<path d="M831.59 1158.06L831.96 1151.77" stroke="#62597E" stroke-width="0.25"/>
<path d="M830.11 1151.66L829.74 1157.96" stroke="#62597E" stroke-width="0.25"/>
<path d="M830.66 1158.01L831.04 1151.72" stroke="#62597E" stroke-width="0.25"/>
<path d="M829.19 1151.6L828.81 1157.9" stroke="#62597E" stroke-width="0.25"/>
<path d="M832.19 1164.38L832.51 1158.11" stroke="#62597E" stroke-width="0.25"/>
<path d="M831.26 1164.34L831.59 1158.06" stroke="#62597E" stroke-width="0.25"/>
<path d="M829.74 1157.96L829.41 1164.25" stroke="#62597E" stroke-width="0.25"/>
<path d="M830.34 1164.3L830.66 1158.01" stroke="#62597E" stroke-width="0.25"/>
<path d="M828.81 1157.9L828.49 1164.21" stroke="#62597E" stroke-width="0.25"/>
<path d="M831.94 1170.65L832.19 1164.38" stroke="#62597E" stroke-width="0.25"/>
<path d="M831.01 1170.62L831.26 1164.34" stroke="#62597E" stroke-width="0.25"/>
<path d="M829.41 1164.25L829.16 1170.56" stroke="#62597E" stroke-width="0.25"/>
<path d="M830.08 1170.59L830.34 1164.3" stroke="#62597E" stroke-width="0.25"/>
<path d="M828.49 1164.21L828.23 1170.52" stroke="#62597E" stroke-width="0.25"/>
<path d="M831.76 1176.92L831.94 1170.65" stroke="#62597E" stroke-width="0.25"/>
<path d="M830.84 1176.9L831.01 1170.62" stroke="#62597E" stroke-width="0.25"/>
<path d="M829.16 1170.56L828.98 1176.86" stroke="#62597E" stroke-width="0.25"/>
<path d="M829.91 1176.88L830.08 1170.59" stroke="#62597E" stroke-width="0.25"/>
<path d="M828.23 1170.52L828.06 1176.84" stroke="#62597E" stroke-width="0.25"/>
<path d="M831.66 1183.19L831.76 1176.92" stroke="#62597E" stroke-width="0.25"/>
<path d="M830.74 1183.18L830.84 1176.9" stroke="#62597E" stroke-width="0.25"/>
<path d="M828.98 1176.86L828.88 1183.17" stroke="#62597E" stroke-width="0.25"/>
<path d="M829.81 1183.17L829.91 1176.88" stroke="#62597E" stroke-width="0.25"/>
<path d="M828.06 1176.84L827.96 1183.16" stroke="#62597E" stroke-width="0.25"/>
<path d="M831.63 1189.47L831.66 1183.19" stroke="#62597E" stroke-width="0.25"/>
<path d="M830.71 1189.47L830.74 1183.18" stroke="#62597E" stroke-width="0.25"/>
<path d="M828.88 1183.17L828.86 1189.47" stroke="#62597E" stroke-width="0.25"/>
<path d="M829.78 1189.47L829.81 1183.17" stroke="#62597E" stroke-width="0.25"/>
<path d="M827.96 1183.16L827.93 1189.47" stroke="#62597E" stroke-width="0.25"/>
<path d="M831.68 1195.75L831.63 1189.47" stroke="#62597E" stroke-width="0.25"/>
<path d="M830.76 1195.76L830.71 1189.47" stroke="#62597E" stroke-width="0.25"/>
<path d="M828.86 1189.47L828.9 1195.78" stroke="#62597E" stroke-width="0.25"/>
<path d="M829.83 1195.77L829.78 1189.47" stroke="#62597E" stroke-width="0.25"/>
<path d="M827.93 1189.47L827.98 1195.79" stroke="#62597E" stroke-width="0.25"/>
<path d="M831.79 1202.02C831.74 1199.93 831.7 1197.84 831.68 1195.74" stroke="#62597E" stroke-width="0.25"/>
<path d="M830.86 1202.04C830.81 1199.94 830.77 1197.85 830.75 1195.75" stroke="#62597E" stroke-width="0.25"/>
<path d="M828.9 1195.78C828.92 1197.88 828.96 1199.98 829.01 1202.09" stroke="#62597E" stroke-width="0.25"/>
<path d="M829.94 1202.06C829.89 1199.96 829.85 1197.86 829.83 1195.76" stroke="#62597E" stroke-width="0.25"/>
<path d="M827.98 1195.79C828 1197.9 828.04 1200 828.09 1202.11" stroke="#62597E" stroke-width="0.25"/>
<path d="M831.97 1208.3L831.79 1202.02" stroke="#62597E" stroke-width="0.25"/>
<path d="M831.04 1208.33L830.86 1202.04" stroke="#62597E" stroke-width="0.25"/>
<path d="M829.01 1202.09L829.19 1208.39" stroke="#62597E" stroke-width="0.25"/>
<path d="M830.11 1208.36L829.94 1202.06" stroke="#62597E" stroke-width="0.25"/>
<path d="M828.09 1202.11L828.26 1208.42" stroke="#62597E" stroke-width="0.25"/>
<path d="M832.21 1214.57C832.13 1212.48 832.03 1210.39 831.97 1208.3" stroke="#62597E" stroke-width="0.25"/>
<path d="M831.28 1214.61C831.2 1212.52 831.1 1210.42 831.04 1208.33" stroke="#62597E" stroke-width="0.25"/>
<path d="M829.19 1208.39C829.25 1210.49 829.35 1212.59 829.43 1214.69" stroke="#62597E" stroke-width="0.25"/>
<path d="M830.36 1214.65C830.28 1212.55 830.17 1210.46 830.12 1208.36" stroke="#62597E" stroke-width="0.25"/>
<path d="M828.26 1208.42C828.32 1210.52 828.42 1212.63 828.5 1214.73" stroke="#62597E" stroke-width="0.25"/>
<path d="M832.51 1220.84L832.21 1214.57" stroke="#62597E" stroke-width="0.25"/>
<path d="M831.59 1220.89L831.28 1214.61" stroke="#62597E" stroke-width="0.25"/>
<path d="M829.43 1214.69L829.74 1220.99" stroke="#62597E" stroke-width="0.25"/>
<path d="M830.66 1220.94L830.36 1214.65" stroke="#62597E" stroke-width="0.25"/>
<path d="M828.5 1214.73L828.81 1221.04" stroke="#62597E" stroke-width="0.25"/>
<path d="M832.89 1227.11L832.51 1220.84" stroke="#62597E" stroke-width="0.25"/>
<path d="M831.96 1227.17L831.59 1220.89" stroke="#62597E" stroke-width="0.25"/>
<path d="M829.74 1220.99L830.11 1227.29" stroke="#62597E" stroke-width="0.25"/>
<path d="M831.04 1227.23L830.66 1220.94" stroke="#62597E" stroke-width="0.25"/>
<path d="M828.81 1221.04L829.19 1227.35" stroke="#62597E" stroke-width="0.25"/>
<path d="M833.32 1233.37L832.89 1227.11" stroke="#62597E" stroke-width="0.25"/>
<path d="M832.4 1233.44L831.96 1227.17" stroke="#62597E" stroke-width="0.25"/>
<path d="M830.11 1227.29L830.55 1233.58" stroke="#62597E" stroke-width="0.25"/>
<path d="M831.47 1233.51L831.04 1227.23" stroke="#62597E" stroke-width="0.25"/>
<path d="M829.19 1227.35L829.63 1233.65" stroke="#62597E" stroke-width="0.25"/>
<path d="M833.82 1239.63C833.65 1237.54 833.46 1235.46 833.32 1233.37" stroke="#62597E" stroke-width="0.25"/>
<path d="M832.9 1239.71C832.73 1237.62 832.54 1235.53 832.4 1233.44" stroke="#62597E" stroke-width="0.25"/>
<path d="M830.55 1233.58C830.69 1235.68 830.89 1237.77 831.05 1239.87" stroke="#62597E" stroke-width="0.25"/>
<path d="M831.98 1239.79C831.81 1237.7 831.62 1235.61 831.48 1233.51" stroke="#62597E" stroke-width="0.25"/>
<path d="M829.63 1233.65C829.77 1235.75 829.97 1237.85 830.13 1239.95" stroke="#62597E" stroke-width="0.25"/>
<path d="M834.39 1245.88C834.2 1243.8 833.99 1241.71 833.82 1239.63" stroke="#62597E" stroke-width="0.25"/>
<path d="M833.47 1245.97C833.28 1243.88 833.07 1241.8 832.9 1239.71" stroke="#62597E" stroke-width="0.25"/>
<path d="M831.06 1239.87C831.22 1241.97 831.43 1244.06 831.63 1246.15" stroke="#62597E" stroke-width="0.25"/>
<path d="M832.54 1246.06C832.35 1243.97 832.14 1241.88 831.97 1239.79" stroke="#62597E" stroke-width="0.25"/>
<path d="M830.13 1239.94C830.29 1242.04 830.5 1244.13 830.7 1246.23" stroke="#62597E" stroke-width="0.25"/>
<path d="M835.02 1252.13C834.8 1250.05 834.58 1247.97 834.39 1245.88" stroke="#62597E" stroke-width="0.25"/>
<path d="M834.1 1252.23C833.87 1250.15 833.66 1248.06 833.47 1245.97" stroke="#62597E" stroke-width="0.25"/>
<path d="M831.62 1246.15C831.81 1248.24 832.02 1250.34 832.25 1252.43" stroke="#62597E" stroke-width="0.25"/>
<path d="M833.17 1252.33C832.94 1250.24 832.73 1248.15 832.54 1246.06" stroke="#62597E" stroke-width="0.25"/>
<path d="M830.7 1246.24C830.89 1248.34 831.1 1250.43 831.33 1252.52" stroke="#62597E" stroke-width="0.25"/>
<path d="M835.7 1258.37C835.45 1256.29 835.23 1254.21 835.01 1252.13" stroke="#62597E" stroke-width="0.25"/>
<path d="M834.78 1258.48C834.53 1256.4 834.31 1254.31 834.09 1252.23" stroke="#62597E" stroke-width="0.25"/>
<path d="M832.25 1252.42C832.47 1254.51 832.68 1256.6 832.94 1258.69" stroke="#62597E" stroke-width="0.25"/>
<path d="M833.86 1258.59C833.61 1256.51 833.39 1254.42 833.17 1252.33" stroke="#62597E" stroke-width="0.25"/>
<path d="M831.33 1252.52C831.55 1254.61 831.77 1256.71 832.02 1258.8" stroke="#62597E" stroke-width="0.25"/>
<path d="M836.45 1264.61L835.7 1258.37" stroke="#62597E" stroke-width="0.25"/>
<path d="M835.53 1264.72L834.78 1258.48" stroke="#62597E" stroke-width="0.25"/>
<path d="M832.94 1258.69L833.69 1264.96" stroke="#62597E" stroke-width="0.25"/>
<path d="M834.61 1264.84L833.86 1258.59" stroke="#62597E" stroke-width="0.25"/>
<path d="M832.02 1258.8L832.77 1265.07" stroke="#62597E" stroke-width="0.25"/>
<path d="M837.26 1270.84L836.45 1264.61" stroke="#62597E" stroke-width="0.25"/>
<path d="M836.34 1270.96L835.53 1264.73" stroke="#62597E" stroke-width="0.25"/>
<path d="M833.69 1264.96L834.5 1271.21" stroke="#62597E" stroke-width="0.25"/>
<path d="M835.42 1271.09L834.61 1264.84" stroke="#62597E" stroke-width="0.25"/>
<path d="M832.77 1265.07L833.58 1271.33" stroke="#62597E" stroke-width="0.25"/>
<path d="M838.13 1277.06L837.26 1270.84" stroke="#62597E" stroke-width="0.25"/>
<path d="M837.22 1277.19L836.34 1270.96" stroke="#62597E" stroke-width="0.25"/>
<path d="M834.5 1271.21L835.38 1277.46" stroke="#62597E" stroke-width="0.25"/>
<path d="M836.3 1277.32L835.42 1271.09" stroke="#62597E" stroke-width="0.25"/>
<path d="M833.58 1271.33L834.47 1277.59" stroke="#62597E" stroke-width="0.25"/>
<path d="M839.07 1283.27C838.75 1281.2 838.42 1279.13 838.14 1277.06" stroke="#62597E" stroke-width="0.25"/>
<path d="M838.15 1283.41C837.83 1281.34 837.5 1279.27 837.22 1277.19" stroke="#62597E" stroke-width="0.25"/>
<path d="M835.38 1277.46C835.66 1279.54 836 1281.62 836.32 1283.7" stroke="#62597E" stroke-width="0.25"/>
<path d="M837.24 1283.55C836.92 1281.47 836.59 1279.4 836.3 1277.32" stroke="#62597E" stroke-width="0.25"/>
<path d="M834.47 1277.59C834.75 1279.68 835.09 1281.75 835.41 1283.84" stroke="#62597E" stroke-width="0.25"/>
<path d="M840.05 1289.47C839.69 1287.41 839.38 1285.34 839.06 1283.27" stroke="#62597E" stroke-width="0.25"/>
<path d="M839.14 1289.62C838.78 1287.55 838.47 1285.48 838.15 1283.41" stroke="#62597E" stroke-width="0.25"/>
<path d="M836.32 1283.69C836.64 1285.77 836.95 1287.85 837.31 1289.92" stroke="#62597E" stroke-width="0.25"/>
<path d="M838.23 1289.77C837.87 1287.7 837.56 1285.62 837.24 1283.55" stroke="#62597E" stroke-width="0.25"/>
<path d="M835.41 1283.83C835.73 1285.91 836.04 1287.99 836.4 1290.07" stroke="#62597E" stroke-width="0.25"/>
<path d="M841.09 1295.67L840.05 1289.47" stroke="#62597E" stroke-width="0.25"/>
<path d="M840.18 1295.82L839.14 1289.62" stroke="#62597E" stroke-width="0.25"/>
<path d="M837.31 1289.92L838.36 1296.14" stroke="#62597E" stroke-width="0.25"/>
<path d="M839.27 1295.98L838.23 1289.77" stroke="#62597E" stroke-width="0.25"/>
<path d="M836.4 1290.07L837.44 1296.3" stroke="#62597E" stroke-width="0.25"/>
<path d="M747.84 859.46C741.07 844.89 739.33 837.83 738.64 811.26C738.18 793.61 741.14 770.7 750.06 770.49C755.97 770.35 763.37 777.68 776.06 795.81C785.04 808.63 809.44 833.58 831.51 834.53C867.39 836.08 873.38 828.48 886.58 812.41C908.85 785.32 920.8 767.84 929.75 770.41C936.07 772.23 936.95 785.43 937.99 801.18C938.73 812.32 939.42 814.4 935.59 834.86C931.43 857.06 924.01 866.52 911.57 877.81C903.28 885.34 875.02 904.95 834.91 905.43C794.04 905.93 763.04 892.15 747.84 859.46Z" fill="url(#paint4_radial_87_17846)" stroke="#010101" stroke-width="4" stroke-miterlimit="10"/>
<path d="M756.19 788.82C758.25 795.49 762.44 805.78 771.33 816.31C782.51 829.55 795.59 836.61 803.03 839.99" stroke="#010101" stroke-width="4" stroke-miterlimit="10"/>
<path d="M916.3 797.76C913.42 804.18 907.96 813.99 897.82 823.56C885.06 835.6 871.17 841.31 863.35 843.93" stroke="#010101" stroke-width="4" stroke-miterlimit="10"/>
<path d="M835.79 832.65C834.15 871.57 834.73 889.6 834.93 908.58" stroke="#232323" stroke-width="7" stroke-miterlimit="10"/>
<path d="M836.95 839.36L837.17 833.05" stroke="#62597E" stroke-width="0.25"/>
<path d="M836.02 839.33L836.25 833.01" stroke="#62597E" stroke-width="0.25"/>
<path d="M834.4 832.95L834.17 839.27" stroke="#62597E" stroke-width="0.25"/>
<path d="M835.1 839.3L835.32 832.98" stroke="#62597E" stroke-width="0.25"/>
<path d="M833.47 832.91L833.25 839.23" stroke="#62597E" stroke-width="0.25"/>
<path d="M836.75 845.66L836.95 839.35" stroke="#62597E" stroke-width="0.25"/>
<path d="M835.82 845.63L836.02 839.32" stroke="#62597E" stroke-width="0.25"/>
<path d="M834.17 839.26L833.97 845.58" stroke="#62597E" stroke-width="0.25"/>
<path d="M834.9 845.6L835.1 839.29" stroke="#62597E" stroke-width="0.25"/>
<path d="M833.25 839.23L833.04 845.55" stroke="#62597E" stroke-width="0.25"/>
<path d="M836.57 851.97L836.75 845.66" stroke="#62597E" stroke-width="0.25"/>
<path d="M835.64 851.94L835.82 845.63" stroke="#62597E" stroke-width="0.25"/>
<path d="M833.97 845.58L833.79 851.9" stroke="#62597E" stroke-width="0.25"/>
<path d="M834.72 851.92L834.9 845.6" stroke="#62597E" stroke-width="0.25"/>
<path d="M833.04 845.55L832.87 851.87" stroke="#62597E" stroke-width="0.25"/>
<path d="M836.42 858.27L836.57 851.97" stroke="#62597E" stroke-width="0.25"/>
<path d="M835.5 858.25L835.64 851.94" stroke="#62597E" stroke-width="0.25"/>
<path d="M833.79 851.9L833.64 858.21" stroke="#62597E" stroke-width="0.25"/>
<path d="M834.57 858.23L834.72 851.92" stroke="#62597E" stroke-width="0.25"/>
<path d="M832.87 851.87L832.72 858.2" stroke="#62597E" stroke-width="0.25"/>
<path d="M836.31 864.58L836.42 858.27" stroke="#62597E" stroke-width="0.25"/>
<path d="M835.38 864.56L835.5 858.25" stroke="#62597E" stroke-width="0.25"/>
<path d="M833.64 858.22L833.53 864.53" stroke="#62597E" stroke-width="0.25"/>
<path d="M834.45 864.55L834.57 858.23" stroke="#62597E" stroke-width="0.25"/>
<path d="M832.72 858.2L832.6 864.52" stroke="#62597E" stroke-width="0.25"/>
<path d="M836.23 870.88L836.31 864.58" stroke="#62597E" stroke-width="0.25"/>
<path d="M835.3 870.87L835.38 864.56" stroke="#62597E" stroke-width="0.25"/>
<path d="M833.53 864.53L833.45 870.85" stroke="#62597E" stroke-width="0.25"/>
<path d="M834.38 870.86L834.45 864.55" stroke="#62597E" stroke-width="0.25"/>
<path d="M832.6 864.52L832.52 870.85" stroke="#62597E" stroke-width="0.25"/>
<path d="M836.18 877.19L836.23 870.88" stroke="#62597E" stroke-width="0.25"/>
<path d="M835.26 877.18L835.3 870.87" stroke="#62597E" stroke-width="0.25"/>
<path d="M833.45 870.86L833.41 877.18" stroke="#62597E" stroke-width="0.25"/>
<path d="M834.33 877.18L834.38 870.86" stroke="#62597E" stroke-width="0.25"/>
<path d="M832.52 870.85L832.48 877.17" stroke="#62597E" stroke-width="0.25"/>
<path d="M836.18 883.49V877.19" stroke="#62597E" stroke-width="0.25"/>
<path d="M835.25 883.49L835.26 877.18" stroke="#62597E" stroke-width="0.25"/>
<path d="M833.41 877.18L833.4 883.5" stroke="#62597E" stroke-width="0.25"/>
<path d="M834.33 883.49V877.18" stroke="#62597E" stroke-width="0.25"/>
<path d="M832.48 877.17L832.47 883.5" stroke="#62597E" stroke-width="0.25"/>
<path d="M836.21 889.8L836.18 883.49" stroke="#62597E" stroke-width="0.25"/>
<path d="M835.28 889.8L835.25 883.49" stroke="#62597E" stroke-width="0.25"/>
<path d="M833.4 883.5L833.43 889.82" stroke="#62597E" stroke-width="0.25"/>
<path d="M834.36 889.81L834.33 883.49" stroke="#62597E" stroke-width="0.25"/>
<path d="M832.47 883.5L832.5 889.82" stroke="#62597E" stroke-width="0.25"/>
<path d="M836.27 896.11L836.21 889.8" stroke="#62597E" stroke-width="0.25"/>
<path d="M835.34 896.12L835.28 889.8" stroke="#62597E" stroke-width="0.25"/>
<path d="M833.43 889.82L833.49 896.14" stroke="#62597E" stroke-width="0.25"/>
<path d="M834.42 896.13L834.36 889.81" stroke="#62597E" stroke-width="0.25"/>
<path d="M832.5 889.82L832.56 896.15" stroke="#62597E" stroke-width="0.25"/>
<path d="M836.34 902.43L836.27 896.11" stroke="#62597E" stroke-width="0.25"/>
<path d="M835.41 902.44L835.34 896.12" stroke="#62597E" stroke-width="0.25"/>
<path d="M833.49 896.14L833.56 902.46" stroke="#62597E" stroke-width="0.25"/>
<path d="M834.49 902.45L834.42 896.13" stroke="#62597E" stroke-width="0.25"/>
<path d="M832.56 896.15L832.64 902.47" stroke="#62597E" stroke-width="0.25"/>
<path d="M836.41 908.76L836.34 902.43" stroke="#62597E" stroke-width="0.25"/>
<path d="M835.48 908.77L835.41 902.44" stroke="#62597E" stroke-width="0.25"/>
<path d="M833.56 902.46L833.63 908.78" stroke="#62597E" stroke-width="0.25"/>
<path d="M834.56 908.78L834.49 902.45" stroke="#62597E" stroke-width="0.25"/>
<path d="M832.64 902.47L832.7 908.79" stroke="#62597E" stroke-width="0.25"/>
<path d="M837.34 842.38C837.67 838.33 838.89 836.69 837.89 834.84C837.32 833.78 836.26 833.08 835.21 832.94C835.14 832.93 833.46 832.74 832.26 834.05C830.87 835.57 831.67 837.39 830.86 840.86C829.92 844.88 828.13 845.41 828.52 847.13C829.21 850.14 835.51 851.92 837.29 849.62C838.27 848.34 836.96 847.01 837.34 842.38ZM835.56 847.35C834.62 848.61 831.09 847.5 830.79 845.78C830.7 845.25 830.93 844.76 831.37 843.81C831.85 842.77 832.15 842.13 832.8 841.82C833.68 841.4 834.86 841.77 835.41 842.64C835.7 843.1 835.72 843.66 835.77 844.77C835.84 846.21 835.87 846.93 835.56 847.35ZM836.12 838.7C835.51 839.31 834.68 839.03 834.27 838.9C833.89 838.77 833.37 838.52 833.15 837.81C832.91 837.05 833.23 836.34 833.32 836.22C833.87 835.4 834.78 835.43 834.94 835.44C835.14 835.45 835.96 835.5 836.4 836.29C836.81 837.04 836.68 838.13 836.12 838.7Z" fill="#342F28" stroke="#010101" stroke-miterlimit="10"/>
<defs>
<radialGradient id="paint0_radial_87_17846" cx="0" cy="0" r="1" gradientUnits="userSpaceOnUse" gradientTransform="translate(829.977 1059.22) scale(297.42 265.844)">
<stop stop-color="#6D6D6F"/>
<stop offset="0.2476" stop-color="#6B6B6D"/>
<stop offset="0.4543" stop-color="#656567"/>
<stop offset="0.6463" stop-color="#5B5B5C"/>
<stop offset="0.8282" stop-color="#4D4D4E"/>
<stop offset="1" stop-color="#3D3D3E"/>
</radialGradient>
<radialGradient id="paint1_radial_87_17846" cx="0" cy="0" r="1" gradientUnits="userSpaceOnUse" gradientTransform="translate(836.602 908.552) scale(178.215 159.295)">
<stop stop-color="#2F2E30"/>
<stop offset="0.3514" stop-color="#2C2B2D"/>
<stop offset="0.8633" stop-color="#222224"/>
<stop offset="0.9994" stop-color="#1F1E20"/>
</radialGradient>
<radialGradient id="paint2_radial_87_17846" cx="0" cy="0" r="1" gradientUnits="userSpaceOnUse" gradientTransform="translate(643.49 1200.84) scale(35.9576 32.1402)">
<stop stop-color="#2F2E30"/>
<stop offset="0.3514" stop-color="#2C2B2D"/>
<stop offset="0.8633" stop-color="#222224"/>
<stop offset="0.9994" stop-color="#1F1E20"/>
</radialGradient>
<radialGradient id="paint3_radial_87_17846" cx="0" cy="0" r="1" gradientUnits="userSpaceOnUse" gradientTransform="translate(1022.91 1186.21) scale(37.8429 33.8253)">
<stop stop-color="#2F2E30"/>
<stop offset="0.3514" stop-color="#2C2B2D"/>
<stop offset="0.8633" stop-color="#222224"/>
<stop offset="0.9994" stop-color="#1F1E20"/>
</radialGradient>
<radialGradient id="paint4_radial_87_17846" cx="0" cy="0" r="1" gradientUnits="userSpaceOnUse" gradientTransform="translate(838.563 837.792) scale(88.6691 79.2555)">
<stop stop-color="#2F2E30"/>
<stop offset="0.3514" stop-color="#2C2B2D"/>
<stop offset="0.8633" stop-color="#222224"/>
<stop offset="0.9994" stop-color="#1F1E20"/>
</radialGradient>
</defs>
</svg>
