<svg width="1660" height="1660" viewBox="0 0 1660 1660" fill="none" xmlns="http://www.w3.org/2000/svg">
<path d="M831.99 708.93C790.83 710.03 756.07 690.6 756.94 684.9C757.32 682.4 763 685.5 778.3 679.78C793.1 674.25 794.65 669.38 804.01 668.94C814.56 668.44 814.99 674.5 826.75 674.96C840.07 675.48 842.32 667.82 855.2 669.03C861.05 669.58 861.04 671.21 874.8 676.33C894 683.47 900.31 682.65 900.67 685.35C901.53 691.62 868.95 707.94 831.99 708.93Z" fill="#28181C"/>
<path d="M857.54 638.51C849.06 635.89 844.33 639.06 844.33 639.06C839.62 641.76 839.9 645.47 835.28 647.83C829.38 650.83 822.8 647.9 821.96 647.51C816.92 645.18 816.78 641.93 812.39 639.87C807.26 637.46 801.98 639.32 798.37 640.59C788.78 643.96 773.17 657.89 756.02 679.5C752.57 683.85 751.65 689.73 753.71 694.88C767.93 730.52 795.61 755.62 830.23 752.6C860.41 749.96 892.36 725.71 906.08 694.56C908.64 688.74 907.4 681.92 902.95 677.38C880.64 654.61 863.09 640.22 857.54 638.51ZM833.4 710.72C793.09 711.8 758.92 692.87 759.85 687.3C760.61 682.74 765.82 687.78 780.81 682.17C795.31 676.75 796.82 671.98 805.99 671.55C816.32 671.06 816.74 677 828.26 677.45C841.31 677.96 843.51 670.45 856.12 671.64C861.85 672.18 861.84 673.77 875.32 678.79C894.12 685.79 898.1 682.92 898.46 685.56C899.31 691.7 869.6 709.75 833.4 710.72Z" fill="url(#paint0_radial_87_19400)" stroke="#010101" stroke-width="4" stroke-miterlimit="10"/>
<path d="M830.71 697.44C808.78 697.5 813.53 690.29 795.73 695.17C777.08 700.29 776.61 734.18 776.59 738.2C776.54 747.52 779.54 756.78 785.54 774.91C793.84 799.99 797.99 812.52 805.13 817.75C820.78 829.21 847.28 826.83 861.27 813.62C866.6 808.58 869.46 800.02 875.16 782.88C881.67 763.35 884.92 753.58 885.07 740.2C885.17 731.6 886.99 698.49 869.93 694.05C850.31 688.94 853.87 697.37 830.71 697.44Z" fill="url(#paint1_radial_87_19400)" stroke="#010101" stroke-width="4" stroke-miterlimit="10"/>
<path d="M776.6 686.63C776.79 692.52 833.17 690.25 833.17 690.25C833.17 690.25 889.91 688.43 889.78 685.77C889.78 685.73 889.71 685.62 889.66 685.38C889.51 684.63 890.59 684.42 889.91 683.82C888.54 682.6 885.17 681.84 885.17 681.84C884.58 681.77 880.04 679.99 870.95 676.44C865.13 674.16 863.57 673.35 859.56 672.25C856.26 671.35 854.56 670.9 852.4 671.03C850.17 671.16 847.6 672.19 842.45 674.24C839.97 675.23 838.77 675.8 836.27 676.6C834.31 677.23 832.92 677.67 831.55 677.9C829.53 678.23 826.81 678.52 814.87 673.23C809.96 671.05 803.07 672.21 799.92 673.98C791.76 678.56 776.6 683.55 776.6 683.56V685.31C776.6 685.3 776.6 686.53 776.6 686.63Z" fill="url(#paint2_radial_87_19400)" stroke="#010101" stroke-width="4" stroke-miterlimit="10"/>
<defs>
<radialGradient id="paint0_radial_87_19400" cx="0" cy="0" r="1" gradientUnits="userSpaceOnUse" gradientTransform="translate(830.042 695.165) scale(66.3181 72.2105)">
<stop stop-color="#F26757"/>
<stop offset="1" stop-color="#931F62"/>
</radialGradient>
<radialGradient id="paint1_radial_87_19400" cx="0" cy="0" r="1" gradientUnits="userSpaceOnUse" gradientTransform="translate(830.892 758.747) scale(60.6183)">
<stop stop-color="#F5A3C1"/>
<stop offset="1" stop-color="#F16F9C"/>
</radialGradient>
<radialGradient id="paint2_radial_87_19400" cx="0" cy="0" r="1" gradientUnits="userSpaceOnUse" gradientTransform="translate(833.354 680.845) scale(41.7758 25.0936)">
<stop offset="0.184" stop-color="#E5E5E5"/>
<stop offset="1" stop-color="#F2F2F2"/>
</radialGradient>
</defs>
</svg>
