<svg width="1660" height="1660" viewBox="0 0 1660 1660" fill="none" xmlns="http://www.w3.org/2000/svg">
<path d="M752.02 685.72C751.85 661.11 780.53 638.58 800.74 641.64C813.08 643.51 818.87 654.4 831.2 652.27C840.37 650.68 841.68 643.87 849.27 641.04C866.7 634.55 901.37 655.02 907.14 681.35C913.88 712.11 879.52 743.34 846.74 748.8C812.42 754.51 781.04 732.68 773.21 725.98C762.42 716.77 752.14 702.98 752.02 685.72Z" fill="url(#paint0_radial_87_19307)" stroke="#010101" stroke-width="4" stroke-miterlimit="10"/>
<path d="M753.47 684.23C764.57 687.56 778.46 690.4 794.51 690.69C797.55 690.74 803.04 688.12 809.27 690.23C815.25 692.26 815.7 695.86 822.18 698.07C823.84 698.64 831.29 700.96 837.86 697.61C843.19 694.9 842.84 691.07 847.54 688.39C853.73 684.87 860.92 687.74 865.53 688.85C873.65 690.8 886.33 690.3 905.65 678.24" fill="url(#paint1_radial_87_19307)"/>
<path d="M753.47 684.23C764.57 687.56 778.46 690.4 794.51 690.69C797.55 690.74 803.04 688.12 809.27 690.23C815.25 692.26 815.7 695.86 822.18 698.07C823.84 698.64 831.29 700.96 837.86 697.61C843.19 694.9 842.84 691.07 847.54 688.39C853.73 684.87 860.92 687.74 865.53 688.85C873.65 690.8 886.33 690.3 905.65 678.24" stroke="#010101" stroke-width="4" stroke-miterlimit="10"/>
<defs>
<radialGradient id="paint0_radial_87_19307" cx="0" cy="0" r="1" gradientUnits="userSpaceOnUse" gradientTransform="translate(830 694.789) scale(67.4613)">
<stop stop-color="#931A1E"/>
<stop offset="1" stop-color="#7F143D"/>
</radialGradient>
<radialGradient id="paint1_radial_87_19307" cx="0" cy="0" r="1" gradientUnits="userSpaceOnUse" gradientTransform="translate(829.569 688.808) scale(54.3238)">
<stop stop-color="#931A1E"/>
<stop offset="1" stop-color="#7F143D"/>
</radialGradient>
</defs>
</svg>
