<svg width="1660" height="1660" viewBox="0 0 1660 1660" fill="none" xmlns="http://www.w3.org/2000/svg">
<path d="M830 781.16C791.67 781.16 760.61 791.71 760.61 837.64C760.61 859.45 776.26 885.01 792.69 905.83C811.72 929.94 848.29 929.94 867.31 905.83C883.74 885 899.39 859.45 899.39 837.64C899.39 791.71 868.33 781.16 830 781.16ZM862.53 894.73C845.94 915.75 814.06 915.75 797.47 894.73C783.14 876.57 769.5 854.29 769.5 835.28C769.5 795.23 796.59 786.04 830 786.04C863.41 786.04 890.5 795.24 890.5 835.28C890.5 854.3 876.86 876.58 862.53 894.73Z" fill="#DEA73A"/>
<path opacity="0.42" d="M769.5 835.28C769.5 834.49 769.51 833.71 769.53 832.94L760.78 841.69C761.35 848.47 763.28 855.55 766.17 862.69L773.62 855.24C771.03 848.41 769.5 841.66 769.5 835.28Z" fill="white"/>
<path opacity="0.42" d="M842.34 786.52L846.88 781.98C841.48 781.41 835.82 781.16 830 781.16C826.98 781.16 824.01 781.23 821.1 781.37L815.77 786.7C820.33 786.24 825.1 786.04 830 786.04C834.23 786.03 838.36 786.18 842.34 786.52Z" fill="white"/>
<path opacity="0.42" d="M803.66 901.07L795.57 909.16C799.76 913.58 804.6 917.01 809.81 919.44L819.98 909.27C814.12 907.83 808.53 905.1 803.66 901.07Z" fill="white"/>
<path opacity="0.42" d="M894.36 810.37L888.04 816.69C889.64 821.99 890.5 828.14 890.5 835.28C890.5 836.48 890.45 837.69 890.34 838.91L899.09 830.16C898.46 822.47 896.84 815.93 894.36 810.37Z" fill="white"/>
<path opacity="0.42" d="M783.55 875L776.2 882.35C777.5 884.5 778.86 886.63 780.25 888.74L787.64 881.35C786.24 879.25 784.87 877.13 783.55 875Z" fill="white"/>
<path opacity="0.42" d="M877.7 791.3C875.53 789.96 873.23 788.78 870.81 787.74L866.41 792.14C868.79 793.21 871.03 794.45 873.12 795.87L877.7 791.3Z" fill="white"/>
</svg>
