<svg width="1660" height="1660" viewBox="0 0 1660 1660" fill="none" xmlns="http://www.w3.org/2000/svg">
<path d="M874.52 1459.22C884.14 1459.46 888.17 1459.03 889.11 1458.8C907.04 1454.4 938.65 1433.04 950.18 1422.43C957.16 1416 969.03 1404.39 983.01 1396.16C983.01 1396.16 991.17 1391.36 1002.71 1390.06C1008.12 1389.45 1011.1 1389.98 1013.5 1391.47C1017.84 1394.15 1019.14 1399.24 1019.6 1400.85C1022.41 1410.68 1030.63 1418.9 1043.05 1431.34C1049.43 1437.73 1066.63 1454.94 1089.49 1456.2C1112.12 1457.44 1123.73 1454.32 1123.73 1454.32C1126.45 1453.59 1132.01 1451.91 1138.27 1453.85C1143.67 1455.53 1147.29 1459.19 1149.06 1461.36C1156.74 1470.77 1156.34 1473.04 1158.91 1491.85C1159.6 1496.92 1163.12 1497.21 1164.07 1501.23C1165.35 1506.68 1163.63 1510.41 1161.72 1518.12C1158.66 1530.52 1160.55 1531.32 1158.44 1537.35C1154.74 1547.92 1146.01 1553.85 1140.62 1557.52C1133.66 1562.25 1108.05 1573.28 1011.04 1577.49C997.82 1578.06 979.21 1574.51 970.8 1565.32C967.63 1561.86 965.18 1557.31 958.62 1552.36C957.56 1551.56 951.8 1547.21 945.02 1546.73C932.7 1545.85 930.52 1564.17 915 1565.02C894.6 1566.14 871.65 1563.63 860.42 1550.46C856.04 1545.32 851.92 1543.51 851.68 1534.06C851.47 1525.89 855.7 1519.02 860.59 1511.08C867.54 1499.79 871.95 1492.79 870.31 1486.85C869.57 1484.15 867.42 1480.96 867.76 1476.22C868.08 1471.76 870.9 1472.32 870.45 1467.75C870.14 1464.57 869.86 1463.79 870.58 1461.54C870.81 1460.86 870.24 1459.12 874.52 1459.22Z" fill="url(#paint0_radial_87_58)" stroke="#010101" stroke-width="4" stroke-miterlimit="10"/>
<path d="M870.26 1470.39C874.44 1471.07 880.71 1472.34 887.98 1474.92C906.59 1481.52 917.45 1491.57 924.93 1497.31C945.67 1513.22 968.41 1517.46 984.42 1520.45C1011.73 1525.54 1033.44 1521.02 1060.02 1515.49C1083.36 1510.63 1093.91 1505.39 1130.67 1498.14C1141.45 1496.01 1152.37 1493.65 1158.28 1492.72" fill="url(#paint1_radial_87_58)"/>
<path d="M870.26 1470.39C874.44 1471.07 880.71 1472.34 887.98 1474.92C906.59 1481.52 917.45 1491.57 924.93 1497.31C945.67 1513.22 968.41 1517.46 984.42 1520.45C1011.73 1525.54 1033.44 1521.02 1060.02 1515.49C1083.36 1510.63 1093.91 1505.39 1130.67 1498.14C1141.45 1496.01 1152.37 1493.65 1158.28 1492.72" stroke="#010101" stroke-width="4" stroke-miterlimit="10"/>
<path d="M870.63 1488.69C877.78 1489.94 888.88 1492.47 901.39 1498.13C925.31 1508.96 931.75 1521 956.75 1535.73C968.41 1542.6 980.26 1549.57 996.82 1553.08C1023.61 1558.75 1046.4 1551.9 1069.95 1544.82C1094.32 1537.49 1099.74 1531.78 1126.55 1525.4C1141.15 1521.93 1153.38 1520.33 1161.4 1519.52" fill="url(#paint2_radial_87_58)"/>
<path d="M870.63 1488.69C877.78 1489.94 888.88 1492.47 901.39 1498.13C925.31 1508.96 931.75 1521 956.75 1535.73C968.41 1542.6 980.26 1549.57 996.82 1553.08C1023.61 1558.75 1046.4 1551.9 1069.95 1544.82C1094.32 1537.49 1099.74 1531.78 1126.55 1525.4C1141.15 1521.93 1153.38 1520.33 1161.4 1519.52" stroke="#010101" stroke-width="4" stroke-miterlimit="10"/>
<path d="M879.9 1507.63C899.28 1511.27 913.29 1517.52 922.45 1522.5C930.46 1526.86 933.9 1529.78 960.87 1548.94C977.98 1561.09 986.54 1567.17 987.31 1567.53C1012.43 1579.31 1040.64 1570.57 1074.48 1560.09C1094.02 1554.04 1100.26 1549.86 1126.54 1542.74C1140.16 1539.05 1151.52 1536.64 1159.09 1535.16" fill="url(#paint3_radial_87_58)"/>
<path d="M879.9 1507.63C899.28 1511.27 913.29 1517.52 922.45 1522.5C930.46 1526.86 933.9 1529.78 960.87 1548.94C977.98 1561.09 986.54 1567.17 987.31 1567.53C1012.43 1579.31 1040.64 1570.57 1074.48 1560.09C1094.02 1554.04 1100.26 1549.86 1126.54 1542.74C1140.16 1539.05 1151.52 1536.64 1159.09 1535.16" stroke="#010101" stroke-width="4" stroke-miterlimit="10"/>
<path d="M955.51 1521.68C961.71 1525.76 971.37 1531.17 984.02 1534.49C994.22 1537.17 1014.14 1540.52 1071.61 1522.92C1086.32 1518.42 1112.45 1507.99 1135.15 1498.46" fill="url(#paint4_radial_87_58)"/>
<path d="M955.51 1521.68C961.71 1525.76 971.37 1531.17 984.02 1534.49C994.22 1537.17 1014.14 1540.52 1071.61 1522.92C1086.32 1518.42 1112.45 1507.99 1135.15 1498.46" stroke="#010101" stroke-width="4" stroke-miterlimit="10"/>
<path d="M895.44 1460.79C905.34 1467.05 919.15 1474.52 936.61 1480.42C944.54 1483.1 962.96 1488.75 987.28 1490.24C1008.15 1491.51 1023.78 1489.14 1062.33 1481.06C1086.22 1476.05 1115.53 1469.56 1149.07 1461.36" fill="url(#paint5_radial_87_58)"/>
<path d="M895.44 1460.79C905.34 1467.05 919.15 1474.52 936.61 1480.42C944.54 1483.1 962.96 1488.75 987.28 1490.24C1008.15 1491.51 1023.78 1489.14 1062.33 1481.06C1086.22 1476.05 1115.53 1469.56 1149.07 1461.36" stroke="#010101" stroke-width="4" stroke-miterlimit="10"/>
<path d="M909.77 1446.38C936.68 1423.83 970.9 1409.02 1007.13 1400.81C1009.87 1400.19 1016.18 1398.07 1025.81 1398.26C1026.67 1398.28 1035.06 1399.58 1035.11 1404.94C1035.2 1413.87 1040.67 1415.92 1043.03 1419.38C1044.36 1421.33 1040.52 1426.87 1038.56 1426.82C1037.32 1426.79 1035.94 1425.38 1035.76 1423.96C1035.58 1422.52 1036.71 1421.78 1036.56 1421.18C1036.27 1419.98 1030.68 1418.53 1014.2 1422.03C983.62 1428.52 961.26 1438.48 939.4 1455.66C934.28 1459.69 928.98 1464.67 921.1 1467.74C916.05 1469.7 908.59 1468.07 906.09 1463.36C903.08 1457.68 906.46 1449.15 909.77 1446.38Z" fill="url(#paint6_radial_87_58)" stroke="#010101" stroke-width="4" stroke-miterlimit="10"/>
<path d="M909.88 1448.88C910.91 1447.49 912.7 1445.08 915.31 1444.86C918.66 1444.58 921.52 1448.09 922.65 1450.73C923.99 1453.87 924.06 1458.55 920.94 1461.75C918.29 1464.46 913.5 1465.94 910.28 1463.76C906.35 1461.1 907.5 1454.84 907.67 1453.91C907.78 1453.29 908.23 1451.1 909.88 1448.88Z" fill="#1C2E18" stroke="#010101" stroke-width="4" stroke-miterlimit="10"/>
<path d="M932.8 1447.68C934.799 1447.68 936.42 1446.06 936.42 1444.06C936.42 1442.06 934.799 1440.44 932.8 1440.44C930.801 1440.44 929.18 1442.06 929.18 1444.06C929.18 1446.06 930.801 1447.68 932.8 1447.68Z" fill="#1C2E18" stroke="#010101" stroke-width="4" stroke-miterlimit="10"/>
<path d="M953.81 1436.82C956.533 1436.82 958.74 1434.93 958.74 1432.6C958.74 1430.27 956.533 1428.38 953.81 1428.38C951.087 1428.38 948.88 1430.27 948.88 1432.6C948.88 1434.93 951.087 1436.82 953.81 1436.82Z" fill="#1C2E18" stroke="#010101" stroke-width="4" stroke-miterlimit="10"/>
<path d="M976.78 1426.66C979.194 1426.66 981.15 1424.7 981.15 1422.29C981.15 1419.88 979.194 1417.92 976.78 1417.92C974.367 1417.92 972.41 1419.88 972.41 1422.29C972.41 1424.7 974.367 1426.66 976.78 1426.66Z" fill="#1C2E18" stroke="#010101" stroke-width="4" stroke-miterlimit="10"/>
<path d="M999.02 1464.8C1002.06 1464.8 1004.52 1463.27 1004.52 1461.38C1004.52 1459.49 1002.06 1457.96 999.02 1457.96C995.983 1457.96 993.52 1459.49 993.52 1461.38C993.52 1463.27 995.983 1464.8 999.02 1464.8Z" fill="#1C2E18" stroke="#010101" stroke-width="4" stroke-miterlimit="10"/>
<path d="M1028.9 1439.63C1031.56 1439.63 1033.72 1438.05 1033.72 1436.11C1033.72 1434.17 1031.56 1432.59 1028.9 1432.59C1026.24 1432.59 1024.08 1434.17 1024.08 1436.11C1024.08 1438.05 1026.24 1439.63 1028.9 1439.63Z" fill="#1C2E18" stroke="#010101" stroke-width="4" stroke-miterlimit="10"/>
<path d="M1037.61 1460.54C1040.75 1460.54 1043.3 1459.04 1043.3 1457.2C1043.3 1455.36 1040.75 1453.86 1037.61 1453.86C1034.47 1453.86 1031.92 1455.36 1031.92 1457.2C1031.92 1459.04 1034.47 1460.54 1037.61 1460.54Z" fill="#1C2E18" stroke="#010101" stroke-width="4" stroke-miterlimit="10"/>
<path d="M1025.26 1474.41C1028.24 1474.41 1030.66 1473.1 1030.66 1471.48C1030.66 1469.86 1028.24 1468.55 1025.26 1468.55C1022.28 1468.55 1019.86 1469.86 1019.86 1471.48C1019.86 1473.1 1022.28 1474.41 1025.26 1474.41Z" fill="#1C2E18" stroke="#010101" stroke-width="4" stroke-miterlimit="10"/>
<path d="M1059.27 1471.48C1062.16 1471.48 1064.5 1470.43 1064.5 1469.13C1064.5 1467.83 1062.16 1466.78 1059.27 1466.78C1056.38 1466.78 1054.04 1467.83 1054.04 1469.13C1054.04 1470.43 1056.38 1471.48 1059.27 1471.48Z" fill="#1C2E18" stroke="#010101" stroke-width="4" stroke-miterlimit="10"/>
<path d="M1065.3 1461.38C1067.97 1461.38 1070.13 1460.44 1070.13 1459.29C1070.13 1458.14 1067.97 1457.2 1065.3 1457.2C1062.63 1457.2 1060.47 1458.14 1060.47 1459.29C1060.47 1460.44 1062.63 1461.38 1065.3 1461.38Z" fill="#1C2E18" stroke="#010101" stroke-width="4" stroke-miterlimit="10"/>
<path d="M1056.65 1452.3C1058.76 1452.3 1060.47 1450.99 1060.47 1449.38C1060.47 1447.77 1058.76 1446.46 1056.65 1446.46C1054.54 1446.46 1052.83 1447.77 1052.83 1449.38C1052.83 1450.99 1054.54 1452.3 1056.65 1452.3Z" fill="#1C2E18" stroke="#010101" stroke-width="4" stroke-miterlimit="10"/>
<path d="M1096.46 1461.95C1096.46 1462.73 1093.8 1463.36 1090.53 1463.36C1087.25 1463.36 1084.6 1462.73 1084.6 1461.95C1084.6 1461.17 1087.26 1460.54 1090.53 1460.54C1093.81 1460.54 1096.46 1461.17 1096.46 1461.95Z" fill="#1C2E18" stroke="#010101" stroke-width="4" stroke-miterlimit="10"/>
<path d="M984.13 1511.82C984.47 1507.25 984.8 1502.68 985.14 1498.1C991.74 1497.4 990.2 1497.57 996.8 1496.87C998.29 1501.98 999.78 1507.09 1001.26 1512.2C1001.41 1512.7 1001.02 1513.2 1000.49 1513.19C995.28 1513.01 990.07 1512.83 984.86 1512.65C984.43 1512.63 984.1 1512.25 984.13 1511.82Z" fill="#1C2E18" stroke="#010101" stroke-width="4" stroke-miterlimit="10"/>
<path d="M1021.99 1511.23C1022.4 1506.35 1022.8 1501.48 1023.21 1496.6C1031.14 1495.18 1030.23 1495.34 1038.16 1493.92C1040.38 1498.66 1042.6 1503.39 1044.81 1508.13C1045.2 1508.95 1044.66 1509.92 1043.76 1510.02C1036.92 1510.83 1030.09 1511.64 1023.25 1512.45C1022.54 1512.54 1021.93 1511.95 1021.99 1511.23Z" fill="#1C2E18" stroke="#010101" stroke-width="4" stroke-miterlimit="10"/>
<path d="M1068.92 1499.59V1486.68C1076.86 1484.62 1077.73 1484.36 1086.15 1484.13C1089.08 1488.22 1089.87 1490.01 1092.8 1494.09C1093.93 1495.67 1093 1497.88 1091.08 1498.17L1070.88 1501.25C1069.84 1501.42 1068.92 1500.62 1068.92 1499.59Z" fill="#1C2E18" stroke="#010101" stroke-width="4" stroke-miterlimit="10"/>
<path d="M1117.31 1488.03C1117.61 1483.9 1117.92 1479.76 1118.22 1475.63C1125.52 1474.06 1124.95 1474.18 1132.25 1472.61C1133.65 1475.19 1135.05 1477.77 1136.45 1480.36C1138.11 1483.42 1136.21 1487.21 1132.76 1487.7C1128.18 1488.35 1123.61 1489 1119.03 1489.64C1118.07 1489.77 1117.24 1488.99 1117.31 1488.03Z" fill="#1C2E18" stroke="#010101" stroke-width="4" stroke-miterlimit="10"/>
<path d="M785.48 1459.22C775.86 1459.46 771.83 1459.03 770.89 1458.8C752.96 1454.4 721.35 1433.04 709.82 1422.43C702.84 1416 690.97 1404.39 676.99 1396.16C676.99 1396.16 668.83 1391.36 657.29 1390.06C651.88 1389.45 648.9 1389.98 646.5 1391.47C642.16 1394.15 640.86 1399.24 640.4 1400.85C637.59 1410.68 629.37 1418.9 616.95 1431.34C610.57 1437.73 593.37 1454.94 570.51 1456.2C547.88 1457.44 536.27 1454.32 536.27 1454.32C533.55 1453.59 527.99 1451.91 521.73 1453.85C516.33 1455.53 512.71 1459.19 510.94 1461.36C503.26 1470.77 503.66 1473.04 501.09 1491.85C500.4 1496.92 496.88 1497.21 495.93 1501.23C494.65 1506.68 496.37 1510.41 498.28 1518.12C501.34 1530.52 499.45 1531.32 501.56 1537.35C505.26 1547.92 513.99 1553.85 519.38 1557.52C526.34 1562.25 551.95 1573.28 648.96 1577.49C662.18 1578.06 680.79 1574.51 689.2 1565.32C692.37 1561.86 694.82 1557.31 701.38 1552.36C702.44 1551.56 708.2 1547.21 714.98 1546.73C727.3 1545.85 729.48 1564.17 745 1565.02C765.4 1566.14 788.35 1563.63 799.58 1550.46C803.96 1545.32 808.08 1543.51 808.32 1534.06C808.53 1525.89 804.3 1519.02 799.41 1511.08C792.46 1499.79 788.05 1492.79 789.69 1486.85C790.43 1484.15 792.58 1480.96 792.24 1476.22C791.92 1471.76 789.1 1472.32 789.55 1467.75C789.86 1464.57 790.14 1463.79 789.42 1461.54C789.19 1460.86 789.76 1459.12 785.48 1459.22Z" fill="url(#paint7_radial_87_58)" stroke="#010101" stroke-width="4" stroke-miterlimit="10"/>
<path d="M789.74 1470.39C785.56 1471.07 779.29 1472.34 772.02 1474.92C753.41 1481.52 742.55 1491.57 735.07 1497.31C714.33 1513.22 691.59 1517.46 675.58 1520.45C648.27 1525.54 626.56 1521.02 599.98 1515.49C576.64 1510.63 566.09 1505.39 529.33 1498.14C518.55 1496.01 507.63 1493.65 501.72 1492.72" fill="url(#paint8_radial_87_58)"/>
<path d="M789.74 1470.39C785.56 1471.07 779.29 1472.34 772.02 1474.92C753.41 1481.52 742.55 1491.57 735.07 1497.31C714.33 1513.22 691.59 1517.46 675.58 1520.45C648.27 1525.54 626.56 1521.02 599.98 1515.49C576.64 1510.63 566.09 1505.39 529.33 1498.14C518.55 1496.01 507.63 1493.65 501.72 1492.72" stroke="#010101" stroke-width="4" stroke-miterlimit="10"/>
<path d="M789.37 1488.69C782.22 1489.94 771.12 1492.47 758.61 1498.13C734.69 1508.96 728.25 1521 703.25 1535.73C691.59 1542.6 679.74 1549.57 663.18 1553.08C636.39 1558.75 613.6 1551.9 590.05 1544.82C565.68 1537.49 560.26 1531.78 533.45 1525.4C518.85 1521.93 506.62 1520.33 498.6 1519.52" fill="url(#paint9_radial_87_58)"/>
<path d="M789.37 1488.69C782.22 1489.94 771.12 1492.47 758.61 1498.13C734.69 1508.96 728.25 1521 703.25 1535.73C691.59 1542.6 679.74 1549.57 663.18 1553.08C636.39 1558.75 613.6 1551.9 590.05 1544.82C565.68 1537.49 560.26 1531.78 533.45 1525.4C518.85 1521.93 506.62 1520.33 498.6 1519.52" stroke="#010101" stroke-width="4" stroke-miterlimit="10"/>
<path d="M780.1 1507.63C760.72 1511.27 746.71 1517.52 737.55 1522.5C729.54 1526.86 726.1 1529.78 699.13 1548.94C682.02 1561.09 673.46 1567.17 672.69 1567.53C647.57 1579.31 619.36 1570.57 585.52 1560.09C565.98 1554.04 559.74 1549.86 533.46 1542.74C519.84 1539.05 508.48 1536.64 500.91 1535.16" fill="url(#paint10_radial_87_58)"/>
<path d="M780.1 1507.63C760.72 1511.27 746.71 1517.52 737.55 1522.5C729.54 1526.86 726.1 1529.78 699.13 1548.94C682.02 1561.09 673.46 1567.17 672.69 1567.53C647.57 1579.31 619.36 1570.57 585.52 1560.09C565.98 1554.04 559.74 1549.86 533.46 1542.74C519.84 1539.05 508.48 1536.64 500.91 1535.16" stroke="#010101" stroke-width="4" stroke-miterlimit="10"/>
<path d="M704.49 1521.68C698.29 1525.76 688.63 1531.17 675.98 1534.49C665.78 1537.17 645.86 1540.52 588.39 1522.92C573.68 1518.42 547.55 1507.99 524.85 1498.46" fill="url(#paint11_radial_87_58)"/>
<path d="M704.49 1521.68C698.29 1525.76 688.63 1531.17 675.98 1534.49C665.78 1537.17 645.86 1540.52 588.39 1522.92C573.68 1518.42 547.55 1507.99 524.85 1498.46" stroke="#010101" stroke-width="4" stroke-miterlimit="10"/>
<path d="M764.56 1460.79C754.66 1467.05 740.85 1474.52 723.39 1480.42C715.46 1483.1 697.04 1488.75 672.72 1490.24C651.85 1491.51 636.22 1489.14 597.67 1481.06C573.78 1476.05 544.47 1469.56 510.93 1461.36" fill="url(#paint12_radial_87_58)"/>
<path d="M764.56 1460.79C754.66 1467.05 740.85 1474.52 723.39 1480.42C715.46 1483.1 697.04 1488.75 672.72 1490.24C651.85 1491.51 636.22 1489.14 597.67 1481.06C573.78 1476.05 544.47 1469.56 510.93 1461.36" stroke="#010101" stroke-width="4" stroke-miterlimit="10"/>
<path d="M750.23 1446.38C723.32 1423.83 689.1 1409.02 652.87 1400.81C650.13 1400.19 643.82 1398.07 634.19 1398.26C633.33 1398.28 624.94 1399.58 624.89 1404.94C624.8 1413.87 619.33 1415.92 616.97 1419.38C615.64 1421.33 619.48 1426.87 621.44 1426.82C622.68 1426.79 624.06 1425.38 624.24 1423.96C624.42 1422.52 623.29 1421.78 623.44 1421.18C623.73 1419.98 629.32 1418.53 645.8 1422.03C676.38 1428.52 698.74 1438.48 720.6 1455.66C725.72 1459.69 731.02 1464.67 738.9 1467.74C743.95 1469.7 751.41 1468.07 753.91 1463.36C756.92 1457.68 753.54 1449.15 750.23 1446.38Z" fill="url(#paint13_radial_87_58)" stroke="#010101" stroke-width="4" stroke-miterlimit="10"/>
<path d="M750.12 1448.88C749.09 1447.49 747.3 1445.08 744.69 1444.86C741.34 1444.58 738.48 1448.09 737.35 1450.73C736.01 1453.87 735.94 1458.55 739.06 1461.75C741.71 1464.46 746.5 1465.94 749.72 1463.76C753.65 1461.1 752.5 1454.84 752.33 1453.91C752.22 1453.29 751.77 1451.1 750.12 1448.88Z" fill="#1C2E18" stroke="#010101" stroke-width="4" stroke-miterlimit="10"/>
<path d="M727.2 1447.68C729.199 1447.68 730.82 1446.06 730.82 1444.06C730.82 1442.06 729.199 1440.44 727.2 1440.44C725.201 1440.44 723.58 1442.06 723.58 1444.06C723.58 1446.06 725.201 1447.68 727.2 1447.68Z" fill="#1C2E18" stroke="#010101" stroke-width="4" stroke-miterlimit="10"/>
<path d="M706.19 1436.82C708.913 1436.82 711.12 1434.93 711.12 1432.6C711.12 1430.27 708.913 1428.38 706.19 1428.38C703.467 1428.38 701.26 1430.27 701.26 1432.6C701.26 1434.93 703.467 1436.82 706.19 1436.82Z" fill="#1C2E18" stroke="#010101" stroke-width="4" stroke-miterlimit="10"/>
<path d="M683.22 1426.66C685.634 1426.66 687.59 1424.7 687.59 1422.29C687.59 1419.88 685.634 1417.92 683.22 1417.92C680.807 1417.92 678.85 1419.88 678.85 1422.29C678.85 1424.7 680.807 1426.66 683.22 1426.66Z" fill="#1C2E18" stroke="#010101" stroke-width="4" stroke-miterlimit="10"/>
<path d="M660.98 1464.8C664.018 1464.8 666.48 1463.27 666.48 1461.38C666.48 1459.49 664.018 1457.96 660.98 1457.96C657.942 1457.96 655.48 1459.49 655.48 1461.38C655.48 1463.27 657.942 1464.8 660.98 1464.8Z" fill="#1C2E18" stroke="#010101" stroke-width="4" stroke-miterlimit="10"/>
<path d="M631.1 1439.63C633.762 1439.63 635.92 1438.05 635.92 1436.11C635.92 1434.17 633.762 1432.59 631.1 1432.59C628.438 1432.59 626.28 1434.17 626.28 1436.11C626.28 1438.05 628.438 1439.63 631.1 1439.63Z" fill="#1C2E18" stroke="#010101" stroke-width="4" stroke-miterlimit="10"/>
<path d="M622.39 1460.54C625.533 1460.54 628.08 1459.04 628.08 1457.2C628.08 1455.36 625.533 1453.86 622.39 1453.86C619.248 1453.86 616.7 1455.36 616.7 1457.2C616.7 1459.04 619.248 1460.54 622.39 1460.54Z" fill="#1C2E18" stroke="#010101" stroke-width="4" stroke-miterlimit="10"/>
<path d="M634.74 1474.41C637.722 1474.41 640.14 1473.1 640.14 1471.48C640.14 1469.86 637.722 1468.55 634.74 1468.55C631.758 1468.55 629.34 1469.86 629.34 1471.48C629.34 1473.1 631.758 1474.41 634.74 1474.41Z" fill="#1C2E18" stroke="#010101" stroke-width="4" stroke-miterlimit="10"/>
<path d="M600.73 1471.48C603.618 1471.48 605.96 1470.43 605.96 1469.13C605.96 1467.83 603.618 1466.78 600.73 1466.78C597.842 1466.78 595.5 1467.83 595.5 1469.13C595.5 1470.43 597.842 1471.48 600.73 1471.48Z" fill="#1C2E18" stroke="#010101" stroke-width="4" stroke-miterlimit="10"/>
<path d="M594.7 1461.38C597.368 1461.38 599.53 1460.44 599.53 1459.29C599.53 1458.14 597.368 1457.2 594.7 1457.2C592.033 1457.2 589.87 1458.14 589.87 1459.29C589.87 1460.44 592.033 1461.38 594.7 1461.38Z" fill="#1C2E18" stroke="#010101" stroke-width="4" stroke-miterlimit="10"/>
<path d="M603.35 1452.3C605.46 1452.3 607.17 1450.99 607.17 1449.38C607.17 1447.77 605.46 1446.46 603.35 1446.46C601.24 1446.46 599.53 1447.77 599.53 1449.38C599.53 1450.99 601.24 1452.3 603.35 1452.3Z" fill="#1C2E18" stroke="#010101" stroke-width="4" stroke-miterlimit="10"/>
<path d="M563.54 1461.95C563.54 1462.73 566.2 1463.36 569.47 1463.36C572.75 1463.36 575.4 1462.73 575.4 1461.95C575.4 1461.17 572.74 1460.54 569.47 1460.54C566.19 1460.54 563.54 1461.17 563.54 1461.95Z" fill="#1C2E18" stroke="#010101" stroke-width="4" stroke-miterlimit="10"/>
<path d="M675.87 1511.82C675.53 1507.25 675.2 1502.68 674.86 1498.1C668.26 1497.4 669.8 1497.57 663.2 1496.87C661.71 1501.98 660.22 1507.09 658.74 1512.2C658.59 1512.7 658.98 1513.2 659.51 1513.19C664.72 1513.01 669.93 1512.83 675.14 1512.65C675.57 1512.63 675.9 1512.25 675.87 1511.82Z" fill="#1C2E18" stroke="#010101" stroke-width="4" stroke-miterlimit="10"/>
<path d="M638.01 1511.23C637.6 1506.35 637.2 1501.48 636.79 1496.6C628.86 1495.18 629.77 1495.34 621.84 1493.92C619.62 1498.66 617.4 1503.39 615.19 1508.13C614.8 1508.95 615.34 1509.92 616.24 1510.02C623.08 1510.83 629.91 1511.64 636.75 1512.45C637.46 1512.54 638.07 1511.95 638.01 1511.23Z" fill="#1C2E18" stroke="#010101" stroke-width="4" stroke-miterlimit="10"/>
<path d="M591.08 1499.59V1486.68C583.14 1484.62 582.27 1484.36 573.85 1484.13C570.92 1488.22 570.13 1490.01 567.2 1494.09C566.07 1495.67 567 1497.88 568.92 1498.17L589.12 1501.25C590.16 1501.42 591.08 1500.62 591.08 1499.59Z" fill="#1C2E18" stroke="#010101" stroke-width="4" stroke-miterlimit="10"/>
<path d="M542.69 1488.03C542.39 1483.9 542.08 1479.76 541.78 1475.63C534.48 1474.06 535.05 1474.18 527.75 1472.61C526.35 1475.19 524.95 1477.77 523.55 1480.36C521.89 1483.42 523.79 1487.21 527.24 1487.7C531.82 1488.35 536.39 1489 540.97 1489.64C541.93 1489.77 542.76 1488.99 542.69 1488.03Z" fill="#1C2E18" stroke="#010101" stroke-width="4" stroke-miterlimit="10"/>
<defs>
<radialGradient id="paint0_radial_87_58" cx="0" cy="0" r="1" gradientUnits="userSpaceOnUse" gradientTransform="translate(1008.09 1483.68) scale(128.993)">
<stop stop-color="#07A89C"/>
<stop offset="0.2254" stop-color="#0AA99A"/>
<stop offset="0.4666" stop-color="#11AB93"/>
<stop offset="0.7151" stop-color="#1AAE88"/>
<stop offset="0.9671" stop-color="#21B477"/>
<stop offset="1" stop-color="#20B574"/>
</radialGradient>
<radialGradient id="paint1_radial_87_58" cx="0" cy="0" r="1" gradientUnits="userSpaceOnUse" gradientTransform="translate(1014.28 1496.52) scale(103.495 103.495)">
<stop stop-color="#07A89C"/>
<stop offset="0.2254" stop-color="#0AA99A"/>
<stop offset="0.4666" stop-color="#11AB93"/>
<stop offset="0.7151" stop-color="#1AAE88"/>
<stop offset="0.9671" stop-color="#21B477"/>
<stop offset="1" stop-color="#20B574"/>
</radialGradient>
<radialGradient id="paint2_radial_87_58" cx="0" cy="0" r="1" gradientUnits="userSpaceOnUse" gradientTransform="translate(1016.01 1521.93) scale(105.455)">
<stop stop-color="#07A89C"/>
<stop offset="0.2254" stop-color="#0AA99A"/>
<stop offset="0.4666" stop-color="#11AB93"/>
<stop offset="0.7151" stop-color="#1AAE88"/>
<stop offset="0.9671" stop-color="#21B477"/>
<stop offset="1" stop-color="#20B574"/>
</radialGradient>
<radialGradient id="paint3_radial_87_58" cx="0" cy="0" r="1" gradientUnits="userSpaceOnUse" gradientTransform="translate(1019.5 1540.4) scale(101.393)">
<stop stop-color="#07A89C"/>
<stop offset="0.2254" stop-color="#0AA99A"/>
<stop offset="0.4666" stop-color="#11AB93"/>
<stop offset="0.7151" stop-color="#1AAE88"/>
<stop offset="0.9671" stop-color="#21B477"/>
<stop offset="1" stop-color="#20B574"/>
</radialGradient>
<radialGradient id="paint4_radial_87_58" cx="0" cy="0" r="1" gradientUnits="userSpaceOnUse" gradientTransform="translate(1045.32 1517.55) scale(64.9299)">
<stop stop-color="#07A89C"/>
<stop offset="0.2254" stop-color="#0AA99A"/>
<stop offset="0.4666" stop-color="#11AB93"/>
<stop offset="0.7151" stop-color="#1AAE88"/>
<stop offset="0.9671" stop-color="#21B477"/>
<stop offset="1" stop-color="#20B574"/>
</radialGradient>
<radialGradient id="paint5_radial_87_58" cx="0" cy="0" r="1" gradientUnits="userSpaceOnUse" gradientTransform="translate(1022.25 1475.68) scale(90.2838 90.2837)">
<stop stop-color="#07A89C"/>
<stop offset="0.2254" stop-color="#0AA99A"/>
<stop offset="0.4666" stop-color="#11AB93"/>
<stop offset="0.7151" stop-color="#1AAE88"/>
<stop offset="0.9671" stop-color="#21B477"/>
<stop offset="1" stop-color="#20B574"/>
</radialGradient>
<radialGradient id="paint6_radial_87_58" cx="0" cy="0" r="1" gradientUnits="userSpaceOnUse" gradientTransform="translate(974.114 1433.41) scale(54.8762)">
<stop stop-color="#07A89C"/>
<stop offset="0.2254" stop-color="#0AA99A"/>
<stop offset="0.4666" stop-color="#11AB93"/>
<stop offset="0.7151" stop-color="#1AAE88"/>
<stop offset="0.9671" stop-color="#21B477"/>
<stop offset="1" stop-color="#20B574"/>
</radialGradient>
<radialGradient id="paint7_radial_87_58" cx="0" cy="0" r="1" gradientUnits="userSpaceOnUse" gradientTransform="translate(651.907 1483.68) rotate(180) scale(128.993)">
<stop stop-color="#07A89C"/>
<stop offset="0.2254" stop-color="#0AA99A"/>
<stop offset="0.4666" stop-color="#11AB93"/>
<stop offset="0.7151" stop-color="#1AAE88"/>
<stop offset="0.9671" stop-color="#21B477"/>
<stop offset="1" stop-color="#20B574"/>
</radialGradient>
<radialGradient id="paint8_radial_87_58" cx="0" cy="0" r="1" gradientUnits="userSpaceOnUse" gradientTransform="translate(645.725 1496.52) rotate(180) scale(103.495 103.495)">
<stop stop-color="#07A89C"/>
<stop offset="0.2254" stop-color="#0AA99A"/>
<stop offset="0.4666" stop-color="#11AB93"/>
<stop offset="0.7151" stop-color="#1AAE88"/>
<stop offset="0.9671" stop-color="#21B477"/>
<stop offset="1" stop-color="#20B574"/>
</radialGradient>
<radialGradient id="paint9_radial_87_58" cx="0" cy="0" r="1" gradientUnits="userSpaceOnUse" gradientTransform="translate(643.991 1521.93) rotate(180) scale(105.455)">
<stop stop-color="#07A89C"/>
<stop offset="0.2254" stop-color="#0AA99A"/>
<stop offset="0.4666" stop-color="#11AB93"/>
<stop offset="0.7151" stop-color="#1AAE88"/>
<stop offset="0.9671" stop-color="#21B477"/>
<stop offset="1" stop-color="#20B574"/>
</radialGradient>
<radialGradient id="paint10_radial_87_58" cx="0" cy="0" r="1" gradientUnits="userSpaceOnUse" gradientTransform="translate(640.502 1540.4) rotate(180) scale(101.393)">
<stop stop-color="#07A89C"/>
<stop offset="0.2254" stop-color="#0AA99A"/>
<stop offset="0.4666" stop-color="#11AB93"/>
<stop offset="0.7151" stop-color="#1AAE88"/>
<stop offset="0.9671" stop-color="#21B477"/>
<stop offset="1" stop-color="#20B574"/>
</radialGradient>
<radialGradient id="paint11_radial_87_58" cx="0" cy="0" r="1" gradientUnits="userSpaceOnUse" gradientTransform="translate(614.676 1517.55) rotate(180) scale(64.9299)">
<stop stop-color="#07A89C"/>
<stop offset="0.2254" stop-color="#0AA99A"/>
<stop offset="0.4666" stop-color="#11AB93"/>
<stop offset="0.7151" stop-color="#1AAE88"/>
<stop offset="0.9671" stop-color="#21B477"/>
<stop offset="1" stop-color="#20B574"/>
</radialGradient>
<radialGradient id="paint12_radial_87_58" cx="0" cy="0" r="1" gradientUnits="userSpaceOnUse" gradientTransform="translate(637.748 1475.68) rotate(180) scale(90.2838 90.2837)">
<stop stop-color="#07A89C"/>
<stop offset="0.2254" stop-color="#0AA99A"/>
<stop offset="0.4666" stop-color="#11AB93"/>
<stop offset="0.7151" stop-color="#1AAE88"/>
<stop offset="0.9671" stop-color="#21B477"/>
<stop offset="1" stop-color="#20B574"/>
</radialGradient>
<radialGradient id="paint13_radial_87_58" cx="0" cy="0" r="1" gradientUnits="userSpaceOnUse" gradientTransform="translate(685.886 1433.41) rotate(180) scale(54.8762)">
<stop stop-color="#07A89C"/>
<stop offset="0.2254" stop-color="#0AA99A"/>
<stop offset="0.4666" stop-color="#11AB93"/>
<stop offset="0.7151" stop-color="#1AAE88"/>
<stop offset="0.9671" stop-color="#21B477"/>
<stop offset="1" stop-color="#20B574"/>
</radialGradient>
</defs>
</svg>
