<svg width="1660" height="1660" viewBox="0 0 1660 1660" fill="none" xmlns="http://www.w3.org/2000/svg">
<path d="M868.47 1544.2C868.54 1551.24 867.64 1558.25 868.47 1575.35C869.47 1596.06 937.71 1585.76 936.21 1580.37C934.71 1574.95 923.33 1564.27 870.51 1543.1" fill="url(#paint0_linear_87_186)"/>
<path d="M868.47 1544.2C868.54 1551.24 867.64 1558.25 868.47 1575.35C869.47 1596.06 937.71 1585.76 936.21 1580.37C934.71 1574.95 923.33 1564.27 870.51 1543.1" stroke="#010101" stroke-width="4" stroke-miterlimit="10"/>
<path d="M879.83 1383.21C916.96 1381.21 913.9 1378.51 961.2 1379.83C982.45 1380.42 964.55 1412.29 982.16 1471.25C991.02 1500.93 990.49 1517.23 1003.95 1528.33C1009.18 1532.64 1029.05 1547.07 1054.06 1551.42C1057.98 1552.1 1066.13 1553.25 1073.67 1559.26C1079.79 1564.13 1081.35 1567.74 1083.07 1577.9C1083.82 1582.34 1075.82 1585.43 1073.67 1583.66C1071.53 1581.89 1073.91 1577.17 1071.56 1571.58C1069.45 1566.57 1067.34 1563.3 1064.52 1561.43C1054.12 1554.51 1045.31 1558.76 1037.67 1553.12C1037.13 1552.72 1034.8 1550.95 1031.4 1550.43C1029.07 1550.08 1026.02 1550.28 1025.73 1551.33C1025.38 1552.61 1029.33 1554.74 1030.21 1555.21C1036.62 1558.66 1041.5 1557.9 1053.19 1560.28C1057.25 1561.11 1058.22 1561.51 1059.16 1562.07C1064.06 1564.99 1066.95 1570.21 1067.85 1573.25C1069.34 1578.33 1069.71 1585.02 1067.82 1585.64C1027.8 1598.66 1003.74 1596.83 954.84 1594.12C946.72 1593.67 939.51 1581.88 927.93 1573.06C920.73 1567.58 913.51 1560.84 895.93 1555.2C880.79 1550.35 876.09 1552.79 870.56 1546.84C862.2 1537.84 864.33 1522.96 864.89 1519.09C866.44 1508.3 870.78 1505.25 874.74 1494.32C878.2 1484.76 878.83 1476.22 878.32 1459.7C876.65 1406.03 865.55 1383.98 879.83 1383.21Z" fill="url(#paint1_linear_87_186)" stroke="#010101" stroke-width="4" stroke-miterlimit="10"/>
<path d="M791.53 1544.2C791.46 1551.24 792.36 1558.25 791.53 1575.35C790.53 1596.06 722.29 1585.76 723.79 1580.37C725.29 1574.95 736.67 1564.27 789.49 1543.1" fill="url(#paint2_linear_87_186)"/>
<path d="M791.53 1544.2C791.46 1551.24 792.36 1558.25 791.53 1575.35C790.53 1596.06 722.29 1585.76 723.79 1580.37C725.29 1574.95 736.67 1564.27 789.49 1543.1" stroke="#010101" stroke-width="4" stroke-miterlimit="10"/>
<path d="M780.17 1383.21C743.04 1381.21 746.1 1378.51 698.8 1379.83C677.55 1380.42 695.45 1412.29 677.84 1471.25C668.98 1500.93 669.51 1517.23 656.05 1528.33C650.82 1532.64 630.95 1547.07 605.94 1551.42C602.02 1552.1 593.87 1553.25 586.33 1559.26C580.21 1564.13 578.65 1567.74 576.93 1577.9C576.18 1582.34 584.18 1585.43 586.33 1583.66C588.47 1581.89 586.09 1577.17 588.44 1571.58C590.55 1566.57 592.66 1563.3 595.48 1561.43C605.88 1554.51 614.69 1558.76 622.34 1553.12C622.88 1552.72 625.21 1550.95 628.61 1550.43C630.94 1550.08 633.99 1550.28 634.28 1551.33C634.63 1552.61 630.68 1554.74 629.8 1555.21C623.39 1558.66 618.51 1557.9 606.82 1560.28C602.76 1561.11 601.79 1561.51 600.85 1562.07C595.95 1564.99 593.06 1570.21 592.16 1573.25C590.67 1578.33 590.3 1585.02 592.19 1585.64C632.21 1598.66 656.27 1596.83 705.17 1594.12C713.29 1593.67 720.5 1581.88 732.08 1573.06C739.28 1567.58 746.5 1560.84 764.08 1555.2C779.22 1550.35 783.92 1552.79 789.45 1546.84C797.81 1537.84 795.68 1522.96 795.12 1519.09C793.57 1508.3 789.23 1505.25 785.27 1494.32C781.81 1484.76 781.18 1476.22 781.69 1459.7C783.35 1406.03 794.45 1383.98 780.17 1383.21Z" fill="url(#paint3_linear_87_186)" stroke="#010101" stroke-width="4" stroke-miterlimit="10"/>
<defs>
<linearGradient id="paint0_linear_87_186" x1="868.113" y1="1565.42" x2="936.232" y2="1565.42" gradientUnits="userSpaceOnUse">
<stop stop-color="#998575"/>
<stop offset="0.0999" stop-color="#A99582"/>
<stop offset="0.231" stop-color="#B8A48E"/>
<stop offset="0.3911" stop-color="#C2AE96"/>
<stop offset="0.6603" stop-color="#C6B199"/>
<stop offset="0.7115" stop-color="#B29D89"/>
<stop offset="0.7802" stop-color="#A38F7D"/>
<stop offset="0.8634" stop-color="#9B8777"/>
<stop offset="1" stop-color="#998575"/>
</linearGradient>
<linearGradient id="paint1_linear_87_186" x1="864.23" y1="1487.79" x2="1083.12" y2="1487.79" gradientUnits="userSpaceOnUse">
<stop stop-color="#C6B199"/>
<stop offset="0.0542" stop-color="#CBB9A4"/>
<stop offset="0.1811" stop-color="#D4C8BA"/>
<stop offset="0.3215" stop-color="#DBD5CC"/>
<stop offset="0.4807" stop-color="#E1DEDA"/>
<stop offset="0.6744" stop-color="#E4E4E2"/>
<stop offset="1" stop-color="#E5E5E5"/>
</linearGradient>
<linearGradient id="paint2_linear_87_186" x1="791.887" y1="1565.42" x2="723.768" y2="1565.42" gradientUnits="userSpaceOnUse">
<stop stop-color="#998575"/>
<stop offset="0.0999" stop-color="#A99582"/>
<stop offset="0.231" stop-color="#B8A48E"/>
<stop offset="0.3911" stop-color="#C2AE96"/>
<stop offset="0.6603" stop-color="#C6B199"/>
<stop offset="0.7115" stop-color="#B29D89"/>
<stop offset="0.7802" stop-color="#A38F7D"/>
<stop offset="0.8634" stop-color="#9B8777"/>
<stop offset="1" stop-color="#998575"/>
</linearGradient>
<linearGradient id="paint3_linear_87_186" x1="795.77" y1="1487.79" x2="576.88" y2="1487.79" gradientUnits="userSpaceOnUse">
<stop stop-color="#C6B199"/>
<stop offset="0.0542" stop-color="#CBB9A4"/>
<stop offset="0.1811" stop-color="#D4C8BA"/>
<stop offset="0.3215" stop-color="#DBD5CC"/>
<stop offset="0.4807" stop-color="#E1DEDA"/>
<stop offset="0.6744" stop-color="#E4E4E2"/>
<stop offset="1" stop-color="#E5E5E5"/>
</linearGradient>
</defs>
</svg>
