<svg width="1660" height="1660" viewBox="0 0 1660 1660" fill="none" xmlns="http://www.w3.org/2000/svg">
<path d="M939.3 1500.33C932.52 1496.42 925.73 1492.52 918.95 1488.61C912.99 1500.33 907.03 1506.84 901.07 1518.56C907.65 1520 911.49 1526.64 918.06 1528.08C924.23 1518.82 933.13 1509.57 939.3 1500.33Z" fill="#010101"/>
<path d="M1082.28 1509.45C1082.02 1509.02 1081.76 1508.6 1081.5 1508.17C1047.75 1496.75 1039.64 1494.36 1002.72 1468.54C991.34 1460.58 987.84 1439.4 979.04 1372.21C951.78 1371.55 924.52 1370.9 897.27 1370.24C897.9 1396.53 897.89 1418.18 895.13 1432.3C892.76 1444.42 886.79 1455.94 886.79 1455.94C884.18 1471.85 881.58 1487.75 878.97 1503.66C891.23 1512.3 903.5 1520.94 915.76 1529.58C915.76 1529.57 915.77 1529.11 915.77 1529.1C915.77 1529.06 915.79 1528.2 915.79 1528.16C915.79 1528.12 916.29 1504.17 916.32 1502.82C922.07 1504.33 927.9 1506.3 933.19 1508.93C931.1 1511.37 927.81 1515.41 924.52 1519.45L933.19 1508.93C941.59 1513.1 948.66 1518.92 951.96 1527.16C955.22 1535.31 952.41 1539.86 955.46 1549.27C960.74 1565.51 976.26 1573.96 986.81 1579.7C1017.51 1596.4 1048.1 1591.49 1051.98 1590.81C1086.02 1584.84 1105.78 1562.79 1111.09 1556.46C1101.48 1540.8 1091.88 1525.13 1082.28 1509.45Z" fill="url(#paint0_linear_87_120)" stroke="#010101" stroke-width="4" stroke-miterlimit="10"/>
<path d="M924.52 1519.46L915.85 1529.98C917.94 1527.54 921.23 1523.5 924.52 1519.46Z" fill="url(#paint1_linear_87_120)" stroke="#010101" stroke-width="4" stroke-miterlimit="10"/>
<path d="M942.17 1423.23C941.71 1432.55 953.26 1457.75 954.3 1481.13C955.5 1508.18 1030.3 1534.03 1034.78 1534.2C1049.01 1527.73 1067.27 1514.65 1081.5 1508.18" stroke="#010101" stroke-width="5" stroke-miterlimit="10"/>
<path d="M1035.41 1534.19L1052.6 1590.82" stroke="#010101" stroke-width="5" stroke-miterlimit="10"/>
<path d="M727.34 1500.33C734.12 1496.42 740.91 1492.52 747.69 1488.61C753.65 1500.33 759.61 1506.84 765.57 1518.56C758.99 1520 755.15 1526.64 748.58 1528.08C742.41 1518.82 733.51 1509.57 727.34 1500.33Z" fill="#010101"/>
<path d="M584.35 1509.45C584.61 1509.02 584.87 1508.6 585.13 1508.17C618.88 1496.75 626.99 1494.36 663.91 1468.54C675.29 1460.58 678.79 1439.4 687.59 1372.21C714.85 1371.55 742.11 1370.9 769.36 1370.24C768.73 1396.53 768.74 1418.18 771.5 1432.3C773.87 1444.42 779.84 1455.94 779.84 1455.94C782.45 1471.85 785.05 1487.75 787.66 1503.66C775.4 1512.3 763.13 1520.94 750.87 1529.58C750.87 1529.57 750.86 1529.11 750.86 1529.1C750.86 1529.06 750.84 1528.2 750.84 1528.16C750.84 1528.12 750.34 1504.17 750.31 1502.82C744.56 1504.33 738.73 1506.3 733.44 1508.93C735.53 1511.37 738.82 1515.41 742.11 1519.45L733.44 1508.93C725.04 1513.1 717.97 1518.92 714.67 1527.16C711.41 1535.31 714.22 1539.86 711.17 1549.27C705.89 1565.51 690.37 1573.96 679.82 1579.7C649.12 1596.4 618.53 1591.49 614.65 1590.81C580.61 1584.84 560.85 1562.79 555.54 1556.46C565.16 1540.8 574.75 1525.13 584.35 1509.45Z" fill="url(#paint2_linear_87_120)" stroke="#010101" stroke-width="4" stroke-miterlimit="10"/>
<path d="M742.12 1519.46L750.79 1529.98C748.69 1527.54 745.41 1523.5 742.12 1519.46Z" fill="url(#paint3_linear_87_120)" stroke="#010101" stroke-width="4" stroke-miterlimit="10"/>
<path d="M724.47 1423.23C724.93 1432.55 713.38 1457.75 712.34 1481.13C711.14 1508.18 636.34 1534.03 631.86 1534.2C617.63 1527.73 599.37 1514.65 585.14 1508.18" stroke="#010101" stroke-width="5" stroke-miterlimit="10"/>
<path d="M631.23 1534.19L614.04 1590.82" stroke="#010101" stroke-width="5" stroke-miterlimit="10"/>
<defs>
<linearGradient id="paint0_linear_87_120" x1="882.974" y1="1514.68" x2="1070.97" y2="1446.26" gradientUnits="userSpaceOnUse">
<stop offset="0.4178" stop-color="#171618"/>
<stop offset="0.5095" stop-color="#1C1B1C"/>
<stop offset="0.646" stop-color="#282726"/>
<stop offset="0.8104" stop-color="#393934"/>
<stop offset="0.9953" stop-color="#535145"/>
<stop offset="1" stop-color="#545246"/>
</linearGradient>
<linearGradient id="paint1_linear_87_120" x1="914.665" y1="1526.72" x2="925.702" y2="1522.71" gradientUnits="userSpaceOnUse">
<stop offset="0.4178" stop-color="#171618"/>
<stop offset="0.5095" stop-color="#1C1B1C"/>
<stop offset="0.646" stop-color="#282726"/>
<stop offset="0.8104" stop-color="#393934"/>
<stop offset="0.9953" stop-color="#535145"/>
<stop offset="1" stop-color="#545246"/>
</linearGradient>
<linearGradient id="paint2_linear_87_120" x1="783.663" y1="1514.68" x2="595.67" y2="1446.26" gradientUnits="userSpaceOnUse">
<stop offset="0.4178" stop-color="#171618"/>
<stop offset="0.5095" stop-color="#1C1B1C"/>
<stop offset="0.646" stop-color="#282726"/>
<stop offset="0.8104" stop-color="#393934"/>
<stop offset="0.9953" stop-color="#535145"/>
<stop offset="1" stop-color="#545246"/>
</linearGradient>
<linearGradient id="paint3_linear_87_120" x1="751.972" y1="1526.72" x2="740.936" y2="1522.71" gradientUnits="userSpaceOnUse">
<stop offset="0.4178" stop-color="#171618"/>
<stop offset="0.5095" stop-color="#1C1B1C"/>
<stop offset="0.646" stop-color="#282726"/>
<stop offset="0.8104" stop-color="#393934"/>
<stop offset="0.9953" stop-color="#535145"/>
<stop offset="1" stop-color="#545246"/>
</linearGradient>
</defs>
</svg>
