<svg width="1660" height="1660" viewBox="0 0 1660 1660" fill="none" xmlns="http://www.w3.org/2000/svg">
<path d="M965.72 1345.84C970.28 1327.49 970.36 1325.09 970.08 1322.29C969.76 1319.13 969.45 1316.31 967.78 1313.57C965.1 1309.18 959.62 1306.1 955.84 1308.63C952.48 1310.88 951.88 1316.61 951.48 1320.55C951 1325.24 951.9 1325.84 953.09 1337.12C954 1345.75 953.75 1348.1 955.62 1350.2C957.55 1352.37 960.8 1353.22 962.97 1351.65C964.53 1350.52 965.07 1348.44 965.72 1345.84Z" fill="#090909" stroke="#010101" stroke-width="4" stroke-miterlimit="10"/>
<path d="M885.55 1356.76C884.69 1355.96 884.76 1355.22 882.91 1348.4C881.33 1342.57 881.3 1343.18 880.8 1340.84C879.71 1335.77 878.91 1332.02 880.33 1328.34C880.5 1327.9 881.31 1325.87 883.14 1324.27C886.65 1321.19 892.2 1321.18 894.61 1324.56C895.52 1325.84 895.76 1327.74 896.25 1331.54C896.67 1334.79 896.61 1336.59 896.72 1339.97C897.04 1349.5 897.99 1349.88 897.19 1352.01C895.3 1356.95 888.42 1359.44 885.55 1356.76Z" fill="#090909" stroke="#010101" stroke-width="4" stroke-miterlimit="10"/>
<path d="M885.76 1357.23C897.85 1352.54 914.64 1347.59 935.08 1346.14C947.08 1345.29 957.8 1345.83 966.81 1346.9C964.3 1403.23 965.76 1445.23 974.46 1468.47C980.89 1485.64 993.42 1502.47 994.85 1504.38C1002.36 1514.36 1007.12 1518.16 1012.35 1520.65C1019.23 1523.92 1025.75 1524.35 1034.76 1524.95C1049.85 1525.94 1052.23 1523.34 1058.09 1525.26C1070.51 1529.33 1081.13 1548.05 1077.43 1558.11C1065.33 1590.95 889.44 1560.71 887.11 1531.71C886.88 1528.86 888.03 1522.27 888.95 1518.2C891.39 1507.43 894.85 1502.88 897.55 1489.96C897.55 1489.96 898.17 1486.99 898.78 1482.9C901.15 1466.95 899.23 1449.82 896.32 1427.03C892.67 1398.42 890.55 1385.18 889.87 1380.98C888.29 1371.26 886.84 1363.12 885.76 1357.23Z" fill="url(#paint0_linear_87_152)" stroke="#010101" stroke-width="4" stroke-miterlimit="10"/>
<path d="M887.41 1539.38C884.71 1532.31 884.45 1521.82 886.8 1520.96C888.89 1520.2 891.89 1527.48 900.61 1530.17C903.64 1531.1 906.16 1531.11 907.06 1531.09C915.28 1530.91 918.8 1525.45 926.71 1522.19C932.01 1520 937.7 1517.66 942.98 1520.04C944 1520.5 946.82 1521.77 948.2 1524.64C950.57 1529.57 945.91 1533.37 947.89 1539.37C948.03 1539.79 949.58 1544.27 953.42 1545.82C957.46 1547.45 961.04 1544.63 967.54 1542.14C968.94 1541.6 978.55 1537.99 986.88 1538.46C996.43 1539 996.95 1544.5 1009.29 1548.9C1011.94 1549.84 1023.45 1553.7 1036.92 1551.36C1043.74 1550.18 1044.99 1548.46 1061.48 1543.07C1067.41 1541.13 1072.33 1539.69 1075.6 1538.77C1076.71 1543.63 1077.82 1548.48 1078.93 1553.34C1037.04 1569.89 1001.75 1571.97 979.43 1571.29C964.37 1570.83 898.65 1568.82 887.41 1539.38Z" fill="url(#paint1_radial_87_152)" stroke="#010101" stroke-width="4" stroke-miterlimit="10"/>
<path d="M878.33 1552.06L878.46 1551.33C878.46 1551.32 878.88 1549 878.88 1548.99C878.89 1548.94 880.78 1538.45 880.83 1538.16C903.59 1538.17 919.62 1543.41 930.06 1548.19C943.59 1554.39 949.21 1560.52 964.02 1563.91C970.99 1565.51 974.09 1565.15 998.89 1563.91C1040.28 1561.84 1048.99 1561.97 1065.21 1557.98C1073.37 1555.98 1079.91 1553.8 1084.13 1552.28C1084.97 1556.99 1085.8 1561.7 1086.64 1566.41C1072.77 1574.15 1048.42 1585.1 1016.89 1586.26C1011.37 1586.46 980.64 1587.29 956.52 1576.66C954.44 1575.74 944.06 1571.07 929.63 1565.27C919.97 1561.38 915.13 1559.44 912.25 1558.74C903.52 1556.62 883.28 1553.36 880.4 1553.87C880.17 1553.91 879.04 1554.15 878.54 1553.58C878.29 1553.29 878.29 1552.91 878.3 1552.71C878.38 1550.48 880.17 1544.28 880.62 1542.53C880.84 1541.67 881.13 1540.37 881.3 1538.72" fill="url(#paint2_radial_87_152)"/>
<path d="M878.33 1552.06L878.46 1551.33C878.46 1551.32 878.88 1549 878.88 1548.99C878.89 1548.94 880.78 1538.45 880.83 1538.16C903.59 1538.17 919.62 1543.41 930.06 1548.19C943.59 1554.39 949.21 1560.52 964.02 1563.91C970.99 1565.51 974.09 1565.15 998.89 1563.91C1040.28 1561.84 1048.99 1561.97 1065.21 1557.98C1073.37 1555.98 1079.91 1553.8 1084.13 1552.28C1084.97 1556.99 1085.8 1561.7 1086.64 1566.41C1072.77 1574.15 1048.42 1585.1 1016.89 1586.26C1011.37 1586.46 980.64 1587.29 956.52 1576.66C954.44 1575.74 944.06 1571.07 929.63 1565.27C919.97 1561.38 915.13 1559.44 912.25 1558.74C903.52 1556.62 883.28 1553.36 880.4 1553.87C880.17 1553.91 879.04 1554.15 878.54 1553.58C878.29 1553.29 878.29 1552.91 878.3 1552.71C878.38 1550.48 880.17 1544.28 880.62 1542.53C880.84 1541.67 881.13 1540.37 881.3 1538.72" stroke="#010101" stroke-width="4" stroke-miterlimit="10"/>
<path d="M875.13 1552.11C874.5 1561.41 873.87 1570.71 873.24 1580.01C885.15 1582.29 897.06 1584.58 908.97 1586.86C909.27 1586.55 909.58 1586.23 909.88 1585.92C909.72 1582.77 909.56 1579.62 909.41 1576.46C918.31 1579.3 927.22 1582.13 936.12 1584.97C935.74 1586.44 935.14 1588.21 936.12 1588.75C946.12 1594.29 987.21 1596.84 996.15 1595.9C996.54 1595.89 997.22 1595.87 998.06 1595.84C1009.58 1595.48 1017.63 1594.92 1024.4 1594.22C1046.59 1591.93 1057.74 1591.25 1069.46 1588.75C1079.47 1586.61 1087.54 1584.15 1092.86 1582.37C1092.15 1577.01 1091.44 1571.65 1090.73 1566.29C1015.79 1587.57 980.92 1584.91 963.07 1577.64C960.41 1576.56 947.57 1571.07 929.6 1565.28C912.24 1559.69 898.45 1556.5 888.62 1554.53C883.08 1553.42 878.42 1552.63 875.13 1552.11Z" fill="url(#paint3_radial_87_152)" stroke="#010101" stroke-width="4" stroke-miterlimit="10"/>
<path d="M694.28 1345.84C689.72 1327.49 689.64 1325.09 689.92 1322.29C690.24 1319.13 690.55 1316.31 692.22 1313.57C694.9 1309.18 700.38 1306.1 704.16 1308.63C707.52 1310.88 708.12 1316.61 708.52 1320.55C709 1325.24 708.1 1325.84 706.91 1337.12C706 1345.75 706.25 1348.1 704.38 1350.2C702.45 1352.37 699.2 1353.22 697.03 1351.65C695.47 1350.52 694.93 1348.44 694.28 1345.84Z" fill="#090909" stroke="#010101" stroke-width="4" stroke-miterlimit="10"/>
<path d="M774.45 1356.76C775.31 1355.96 775.24 1355.22 777.09 1348.4C778.67 1342.57 778.7 1343.18 779.2 1340.84C780.29 1335.77 781.09 1332.02 779.67 1328.34C779.5 1327.9 778.69 1325.87 776.86 1324.27C773.35 1321.19 767.8 1321.18 765.39 1324.56C764.48 1325.84 764.24 1327.74 763.75 1331.54C763.33 1334.79 763.39 1336.59 763.28 1339.97C762.96 1349.5 762.01 1349.88 762.81 1352.01C764.7 1356.95 771.58 1359.44 774.45 1356.76Z" fill="#090909" stroke="#010101" stroke-width="4" stroke-miterlimit="10"/>
<path d="M774.24 1357.23C762.15 1352.54 745.36 1347.59 724.92 1346.14C712.92 1345.29 702.2 1345.83 693.19 1346.9C695.7 1403.23 694.24 1445.23 685.54 1468.47C679.11 1485.64 666.58 1502.47 665.15 1504.38C657.64 1514.36 652.88 1518.16 647.65 1520.65C640.77 1523.92 634.25 1524.35 625.24 1524.95C610.15 1525.94 607.77 1523.34 601.91 1525.26C589.49 1529.33 578.87 1548.05 582.57 1558.11C594.67 1590.95 770.56 1560.71 772.89 1531.71C773.12 1528.86 771.97 1522.27 771.05 1518.2C768.61 1507.43 765.15 1502.88 762.45 1489.96C762.45 1489.96 761.83 1486.99 761.22 1482.9C758.85 1466.95 760.77 1449.82 763.68 1427.03C767.33 1398.42 769.45 1385.18 770.13 1380.98C771.71 1371.26 773.16 1363.12 774.24 1357.23Z" fill="url(#paint4_linear_87_152)" stroke="#010101" stroke-width="4" stroke-miterlimit="10"/>
<path d="M772.59 1539.38C775.29 1532.31 775.55 1521.82 773.2 1520.96C771.11 1520.2 768.11 1527.48 759.39 1530.17C756.36 1531.1 753.84 1531.11 752.94 1531.09C744.72 1530.91 741.2 1525.45 733.29 1522.19C727.99 1520 722.3 1517.66 717.02 1520.04C716 1520.5 713.18 1521.77 711.8 1524.64C709.43 1529.57 714.09 1533.37 712.11 1539.37C711.97 1539.79 710.42 1544.27 706.58 1545.82C702.54 1547.45 698.96 1544.63 692.46 1542.14C691.06 1541.6 681.45 1537.99 673.12 1538.46C663.57 1539 663.05 1544.5 650.71 1548.9C648.06 1549.84 636.55 1553.7 623.08 1551.36C616.26 1550.18 615.01 1548.46 598.52 1543.07C592.59 1541.13 587.67 1539.69 584.4 1538.77C583.29 1543.63 582.18 1548.48 581.07 1553.34C622.96 1569.89 658.25 1571.97 680.57 1571.29C695.63 1570.83 761.35 1568.82 772.59 1539.38Z" fill="url(#paint5_radial_87_152)" stroke="#010101" stroke-width="4" stroke-miterlimit="10"/>
<path d="M781.67 1552.06L781.54 1551.33C781.54 1551.32 781.12 1549 781.12 1548.99C781.11 1548.94 779.22 1538.45 779.17 1538.16C756.41 1538.17 740.38 1543.41 729.94 1548.19C716.41 1554.39 710.79 1560.52 695.98 1563.91C689.01 1565.51 685.91 1565.15 661.11 1563.91C619.72 1561.84 611.01 1561.97 594.79 1557.98C586.63 1555.98 580.09 1553.8 575.87 1552.28C575.03 1556.99 574.2 1561.7 573.36 1566.41C587.23 1574.15 611.58 1585.1 643.11 1586.26C648.63 1586.46 679.36 1587.29 703.48 1576.66C705.56 1575.74 715.94 1571.07 730.37 1565.27C740.03 1561.38 744.87 1559.44 747.75 1558.74C756.48 1556.62 776.72 1553.36 779.6 1553.87C779.83 1553.91 780.96 1554.15 781.46 1553.58C781.71 1553.29 781.71 1552.91 781.7 1552.71C781.62 1550.48 779.83 1544.28 779.38 1542.53C779.16 1541.67 778.87 1540.37 778.7 1538.72" fill="url(#paint6_radial_87_152)"/>
<path d="M781.67 1552.06L781.54 1551.33C781.54 1551.32 781.12 1549 781.12 1548.99C781.11 1548.94 779.22 1538.45 779.17 1538.16C756.41 1538.17 740.38 1543.41 729.94 1548.19C716.41 1554.39 710.79 1560.52 695.98 1563.91C689.01 1565.51 685.91 1565.15 661.11 1563.91C619.72 1561.84 611.01 1561.97 594.79 1557.98C586.63 1555.98 580.09 1553.8 575.87 1552.28C575.03 1556.99 574.2 1561.7 573.36 1566.41C587.23 1574.15 611.58 1585.1 643.11 1586.26C648.63 1586.46 679.36 1587.29 703.48 1576.66C705.56 1575.74 715.94 1571.07 730.37 1565.27C740.03 1561.38 744.87 1559.44 747.75 1558.74C756.48 1556.62 776.72 1553.36 779.6 1553.87C779.83 1553.91 780.96 1554.15 781.46 1553.58C781.71 1553.29 781.71 1552.91 781.7 1552.71C781.62 1550.48 779.83 1544.28 779.38 1542.53C779.16 1541.67 778.87 1540.37 778.7 1538.72" stroke="#010101" stroke-width="4" stroke-miterlimit="10"/>
<path d="M784.87 1552.11C785.5 1561.41 786.13 1570.71 786.76 1580.01C774.85 1582.29 762.94 1584.58 751.03 1586.86C750.73 1586.55 750.42 1586.23 750.12 1585.92C750.28 1582.77 750.44 1579.62 750.59 1576.46C741.69 1579.3 732.78 1582.13 723.88 1584.97C724.26 1586.44 724.86 1588.21 723.88 1588.75C713.88 1594.29 672.79 1596.84 663.85 1595.9C663.46 1595.89 662.78 1595.87 661.94 1595.84C650.42 1595.48 642.37 1594.92 635.6 1594.22C613.41 1591.93 602.26 1591.25 590.54 1588.75C580.53 1586.61 572.46 1584.15 567.14 1582.37C567.85 1577.01 568.56 1571.65 569.27 1566.29C644.21 1587.57 679.08 1584.91 696.93 1577.64C699.59 1576.56 712.43 1571.07 730.4 1565.28C747.76 1559.69 761.55 1556.5 771.38 1554.53C776.92 1553.42 781.58 1552.63 784.87 1552.11Z" fill="url(#paint7_radial_87_152)" stroke="#010101" stroke-width="4" stroke-miterlimit="10"/>
<defs>
<linearGradient id="paint0_linear_87_152" x1="885.762" y1="1459.05" x2="1078.17" y2="1459.05" gradientUnits="userSpaceOnUse">
<stop stop-color="#010101"/>
<stop offset="0.1443" stop-color="#0D0D0D"/>
<stop offset="0.4052" stop-color="#212222"/>
<stop offset="0.7504" stop-color="#3A3B3B"/>
<stop offset="1" stop-color="#4E4E4E"/>
</linearGradient>
<radialGradient id="paint1_radial_87_152" cx="0" cy="0" r="1" gradientUnits="userSpaceOnUse" gradientTransform="translate(982.048 1545.22) scale(70.945)">
<stop stop-color="#07A89C"/>
<stop offset="0.2254" stop-color="#0AA99A"/>
<stop offset="0.4666" stop-color="#11AB93"/>
<stop offset="0.7151" stop-color="#1AAE88"/>
<stop offset="0.9671" stop-color="#21B477"/>
<stop offset="1" stop-color="#20B574"/>
</radialGradient>
<radialGradient id="paint2_radial_87_152" cx="0" cy="0" r="1" gradientUnits="userSpaceOnUse" gradientTransform="translate(982.45 1562.27) scale(75.6083)">
<stop stop-color="#07A89C"/>
<stop offset="0.2254" stop-color="#0AA99A"/>
<stop offset="0.4666" stop-color="#11AB93"/>
<stop offset="0.7151" stop-color="#1AAE88"/>
<stop offset="0.9671" stop-color="#21B477"/>
<stop offset="1" stop-color="#20B574"/>
</radialGradient>
<radialGradient id="paint3_radial_87_152" cx="0" cy="0" r="1" gradientUnits="userSpaceOnUse" gradientTransform="translate(983.048 1574.1) scale(79.189)">
<stop stop-color="#07A89C"/>
<stop offset="0.2254" stop-color="#0AA99A"/>
<stop offset="0.4666" stop-color="#11AB93"/>
<stop offset="0.7151" stop-color="#1AAE88"/>
<stop offset="0.9671" stop-color="#21B477"/>
<stop offset="1" stop-color="#20B574"/>
</radialGradient>
<linearGradient id="paint4_linear_87_152" x1="774.238" y1="1459.05" x2="581.832" y2="1459.05" gradientUnits="userSpaceOnUse">
<stop stop-color="#010101"/>
<stop offset="0.1443" stop-color="#0D0D0D"/>
<stop offset="0.4052" stop-color="#212222"/>
<stop offset="0.7504" stop-color="#3A3B3B"/>
<stop offset="1" stop-color="#4E4E4E"/>
</linearGradient>
<radialGradient id="paint5_radial_87_152" cx="0" cy="0" r="1" gradientUnits="userSpaceOnUse" gradientTransform="translate(677.952 1545.22) scale(70.945)">
<stop stop-color="#07A89C"/>
<stop offset="0.2254" stop-color="#0AA99A"/>
<stop offset="0.4666" stop-color="#11AB93"/>
<stop offset="0.7151" stop-color="#1AAE88"/>
<stop offset="0.9671" stop-color="#21B477"/>
<stop offset="1" stop-color="#20B574"/>
</radialGradient>
<radialGradient id="paint6_radial_87_152" cx="0" cy="0" r="1" gradientUnits="userSpaceOnUse" gradientTransform="translate(677.55 1562.27) scale(75.6083)">
<stop stop-color="#07A89C"/>
<stop offset="0.2254" stop-color="#0AA99A"/>
<stop offset="0.4666" stop-color="#11AB93"/>
<stop offset="0.7151" stop-color="#1AAE88"/>
<stop offset="0.9671" stop-color="#21B477"/>
<stop offset="1" stop-color="#20B574"/>
</radialGradient>
<radialGradient id="paint7_radial_87_152" cx="0" cy="0" r="1" gradientUnits="userSpaceOnUse" gradientTransform="translate(676.953 1574.1) scale(79.189)">
<stop stop-color="#07A89C"/>
<stop offset="0.2254" stop-color="#0AA99A"/>
<stop offset="0.4666" stop-color="#11AB93"/>
<stop offset="0.7151" stop-color="#1AAE88"/>
<stop offset="0.9671" stop-color="#21B477"/>
<stop offset="1" stop-color="#20B574"/>
</radialGradient>
</defs>
</svg>
