<svg width="1660" height="1660" viewBox="0 0 1660 1660" fill="none" xmlns="http://www.w3.org/2000/svg">
<g opacity="0.7">
<g opacity="0.7">
<g opacity="0.7">
<path opacity="0.7" d="M954.29 627.14C953.39 623 955.2 618.78 958.19 615.91C961.41 612.82 965.71 611.26 969.9 609.98C979.12 607.16 988.7 605.73 998.28 604.79C1003.76 604.25 1009.26 603.88 1014.76 603.5C1015.26 603.47 1016.41 603.29 1016.7 602.82C1017 602.33 1016.44 602.35 1016.02 602.37C1005.47 603.09 994.9 603.83 984.47 605.65C979.32 606.55 974.22 607.72 969.22 609.26C964.8 610.63 960.3 612.24 956.66 615.19C952.92 618.21 950.33 623.04 951.39 627.92C951.52 628.51 954.43 627.81 954.29 627.14Z" fill="#2B332A"/>
</g>
</g>
<g opacity="0.7">
<g opacity="0.7">
<path opacity="0.7" d="M1011.43 604.18C1012.08 606.37 1010.85 608.72 1010.1 610.75C1009.31 612.88 1008.49 615 1007.6 617.08C1005.88 621.1 1003.9 625.02 1001.43 628.64C999.18 631.94 996.55 634.98 993.45 637.51C991.93 638.75 990.31 639.85 988.59 640.79C987.27 641.51 985.5 642.32 984.03 641.56C982.31 640.67 981.98 638.06 981.81 636.34C981.6 634.22 981.86 632.07 982.46 630.03C983.64 625.97 986.19 622.46 989.3 619.66C990.71 618.39 992.49 616.66 994.35 616.12C996.44 615.51 997.66 617.77 997.97 619.49C998.62 623.2 996.58 626.96 994.21 629.65C991.28 633 987.18 635.87 983 637.4C980.87 638.18 978.57 638.5 976.32 638.15C975.14 637.96 974 637.6 972.93 637.04C972.42 636.77 971.9 636.48 971.47 636.09C971.34 635.97 971.19 635.84 971.09 635.7C970.49 634.8 971.54 634.82 970.09 635.08C970.57 634.99 971.66 634.74 971.74 634.12C971.82 633.5 970.9 633.48 970.5 633.55C968.18 633.96 967.02 635.96 969.2 637.55C971.13 638.96 973.49 639.64 975.85 639.82C981.1 640.23 986.15 638.06 990.43 635.19C994.29 632.6 998.01 629.34 999.9 625C1001.4 621.55 1001.83 615.13 996.81 614.48C994.35 614.16 991.97 615.41 990.03 616.79C987.94 618.28 986.01 619.99 984.32 621.93C981 625.73 978.78 630.54 978.82 635.65C978.83 637.84 979.11 641.01 980.98 642.48C982.58 643.74 984.86 643.57 986.71 643.1C991.26 641.95 995.47 638.52 998.7 635.25C1002.79 631.11 1005.93 626.23 1008.49 621.03C1009.86 618.25 1011.06 615.39 1012.17 612.5C1012.74 611.02 1013.29 609.53 1013.82 608.03C1014.35 606.51 1014.78 605 1014.31 603.41C1014.04 602.44 1011.15 603.23 1011.43 604.18Z" fill="#2B332A"/>
</g>
</g>
<g opacity="0.7">
<g opacity="0.7">
<path opacity="0.7" d="M1025.72 617.46C1024.95 621.74 1024.25 626.04 1023.65 630.35C1023.31 632.81 1021.93 637.87 1025.93 637.98C1029.51 638.08 1031.71 634.76 1033.38 632.09C1035.36 628.93 1036.99 625.54 1038.22 622.02C1039.65 617.95 1040.52 613.71 1040.86 609.42C1039.9 609.61 1038.93 609.81 1037.97 610C1038.43 616.33 1038.89 622.65 1039.34 628.98C1039.41 629.91 1042.07 629.14 1042.23 628.4C1044.57 617.79 1047.37 605.81 1056.59 598.98C1055.72 599.04 1054.86 599.11 1053.99 599.17C1054.15 602.55 1054.31 605.93 1054.47 609.31C1054.5 610.03 1056.23 609.56 1056.48 609.47C1059.72 608.26 1062.83 606.72 1065.72 604.83C1068.45 603.05 1071.33 600.97 1073.46 598.48C1074.63 597.11 1075.79 593.88 1073.15 593.4C1070.31 592.88 1067.48 595.76 1065.79 597.67C1063.8 599.93 1062.33 602.7 1061.54 605.61C1060.8 608.35 1060.45 611.74 1061.31 614.49C1062.15 617.17 1064.65 618.68 1067.26 617.23C1068.62 616.47 1069.32 614.9 1070.04 613.6C1070.94 611.97 1071.77 610.29 1072.6 608.62C1075.7 602.38 1080.29 593.46 1088.41 593.36C1088.83 593.35 1091.37 592.51 1090.15 591.91C1086.67 590.19 1082.04 591.68 1079.67 594.6C1077.17 597.66 1076.79 602.89 1078.66 606.36C1080.52 609.82 1084.9 609.72 1087.43 607.01C1088.69 605.67 1089.4 603.92 1089.96 602.19C1090.78 599.63 1091.48 597.03 1092.08 594.42C1093.42 588.56 1094.23 582.59 1094.51 576.59C1094.56 575.48 1091.68 576.08 1091.62 576.98C1091.01 585.52 1090.33 594.07 1089.78 602.61C1089.62 605.16 1089.8 608.9 1093.05 609.25C1094.88 609.45 1098.96 608.14 1097.93 605.59C1097.55 604.64 1094.69 605.52 1095.03 606.37C1095.25 606.91 1095.17 607.8 1094.43 607.7C1093.31 607.55 1092.84 605.68 1092.72 604.8C1092.53 603.48 1092.69 602.13 1092.78 600.81C1092.9 599.18 1093.01 597.55 1093.13 595.92C1093.59 589.48 1094.05 583.03 1094.52 576.59C1093.56 576.72 1092.59 576.85 1091.63 576.98C1091.26 584.96 1089.95 592.88 1087.7 600.54C1087.23 602.14 1086.8 603.82 1085.99 605.29C1085.45 606.27 1084.56 607.9 1083.26 607.31C1080.49 606.04 1080.21 601.4 1080.6 598.86C1081.12 595.43 1083.96 591.33 1087.85 593.25C1088.43 592.77 1089.01 592.28 1089.59 591.8C1084.13 591.87 1079.35 594.8 1075.86 598.85C1071.84 603.52 1069.81 609.48 1066.73 614.74C1066.58 615 1065.6 616.32 1066.15 616.24C1065.73 616.3 1065.11 615.41 1064.91 615.13C1064.16 614.04 1063.97 612.7 1063.86 611.41C1063.65 608.84 1064.04 606.24 1064.9 603.81C1065.78 601.31 1067.2 598.97 1069.07 597.07C1069.5 596.63 1069.96 596.22 1070.43 595.83C1070.67 595.64 1070.91 595.45 1071.16 595.27C1071.21 595.23 1071.26 595.2 1071.31 595.16C1071.73 594.89 1071.81 594.84 1071.56 594.99C1072.36 595.54 1071.65 597.17 1071.3 597.77C1070.58 598.99 1069.26 599.97 1068.2 600.87C1066.96 601.93 1065.67 602.92 1064.31 603.82C1061.52 605.69 1058.52 607.2 1055.38 608.37C1056.05 608.42 1056.72 608.47 1057.39 608.53C1057.23 605.15 1057.07 601.77 1056.91 598.39C1056.87 597.44 1054.64 598.34 1054.31 598.58C1044.79 605.64 1041.78 617.82 1039.37 628.79C1040.33 628.6 1041.3 628.4 1042.26 628.21C1041.8 621.88 1041.34 615.56 1040.89 609.23C1040.83 608.36 1038.06 609 1038 609.81C1037.36 617.9 1034.77 625.8 1030.37 632.63C1029.85 633.43 1027.87 637.05 1026.73 636.18C1025.35 635.14 1026.28 632.05 1026.47 630.69C1027.09 626.13 1027.82 621.59 1028.64 617.07C1028.8 616.04 1025.89 616.53 1025.72 617.46Z" fill="#2B332A"/>
</g>
</g>
<g opacity="0.7">
<g opacity="0.7">
<path opacity="0.7" d="M1029.34 608.06C1029.74 606.3 1030.52 604.65 1031.61 603.21C1032.13 602.52 1032.75 601.89 1033.41 601.33C1033.72 601.07 1034.04 600.83 1034.37 600.6C1034.75 600.35 1035.14 600.13 1035.41 599.99C1035.65 599.87 1036.39 599.4 1035.77 599.24C1035.16 599.08 1034.28 599.34 1033.74 599.61C1030.16 601.41 1027.38 604.62 1026.48 608.56C1026.37 609.06 1027.39 608.89 1027.64 608.84C1028.02 608.77 1028.4 608.66 1028.74 608.5C1028.92 608.42 1029.29 608.27 1029.34 608.06Z" fill="#2B332A"/>
</g>
</g>
<g opacity="0.7">
<g opacity="0.7">
<path opacity="0.7" d="M564.01 600.36C578.54 592.46 594 586.42 610.04 582.4C609.73 581.76 609.42 581.12 609.11 580.47C601.97 583.3 596.11 588.87 592.61 595.68C590.89 599.03 589.75 602.71 589.34 606.45C589.01 609.46 588.7 614.95 593.15 614.79C595.06 614.72 596.95 613.5 597.78 611.77C598.87 609.5 597.93 606.87 597.07 604.7C596.55 605.2 596.03 605.69 595.5 606.19C601 605.42 606.15 603.15 610.32 599.47C610.8 599.04 611.05 598.38 610.46 597.92C609.85 597.43 608.96 597.72 608.38 598.08C604.7 600.36 601.67 604.92 602.07 609.4C602.54 614.67 609.77 612.49 612.87 611.53C617.47 610.11 621.84 607.98 625.81 605.25C627.85 603.85 629.76 602.28 631.54 600.57C633.12 599.05 635.23 597.28 635.93 595.13C636.67 592.86 634.88 591.59 632.78 591.56C630.45 591.53 628.09 592.2 626 593.2C621.61 595.29 618.11 598.9 614.95 602.5C611.64 606.27 608.58 610.48 607.22 615.38C606.63 617.49 606.04 620.17 607.69 621.96C608.98 623.35 611.06 623.58 612.85 623.35C615.47 623.02 617.89 621.83 620.27 620.74C623.04 619.47 625.75 618.09 628.41 616.59C633.7 613.61 638.73 610.21 643.47 606.42C642.74 606.04 642.01 605.65 641.28 605.27C638.37 608.81 635.9 612.72 634.02 616.9C633.1 618.94 629.64 626.04 634.61 625.8C636.54 625.71 638.69 624.22 640.3 623.26C642.12 622.17 643.86 620.96 645.48 619.59C648.72 616.86 651.45 613.65 653.68 610.06C652.75 609.94 651.83 609.81 650.9 609.69C649.68 612.84 648.7 616.09 648 619.4C647.52 621.65 647.1 624.13 648.02 626.34C648.95 628.57 651.19 629.44 653.47 628.69C656.1 627.83 658.44 625.44 660.34 623.51C664.15 619.64 667.41 614.4 667 608.76C666.83 606.45 666.09 603.84 663.61 603.07C661 602.26 659.03 604.75 660.15 607.13C663.21 613.63 671.9 612.14 677.61 613.22C677.81 612.49 678.02 611.76 678.22 611.03C671.93 611.2 666.04 616.13 665.12 622.43C664.91 623.84 664.91 625.55 665.83 626.73C666.82 628 668.52 628.22 670.01 627.89C673.24 627.15 675.91 624.12 677.69 621.49C679.97 618.14 681.45 614.36 682.87 610.59C683.47 609 680.58 608.97 680.09 610.22C678.45 614.39 677.74 618.89 678.21 623.36C678.4 625.19 679.22 626.61 681.09 627.07C682.75 627.48 684.51 627.04 685.98 626.22C691.77 622.97 691.94 615.35 695.13 610.18C694.2 610.06 693.28 609.93 692.35 609.81C691.34 612.82 689.07 615.75 689.14 619.04C689.2 621.93 691.34 623.97 694.12 624.34C696.87 624.7 699.68 623.63 701.56 621.62C703.79 619.23 704.6 615.9 705.12 612.76C705.36 611.32 702.62 611.62 702.26 612.67C700.41 618.03 698.19 623.26 695.6 628.3C693.12 633.14 690.38 638.03 687.05 642.35C685.57 644.27 683.73 646.31 681.4 647.19C679.26 647.99 675.84 647.17 676.58 644.26C677.15 642.03 678.99 639.9 680.52 638.24C682.09 636.53 683.93 635.03 685.91 633.81C689.94 631.33 694.71 629.91 699.46 630.03C701.63 630.08 704.36 630.57 705.11 632.95C705.86 635.33 704.32 637.96 702.85 639.72C702.1 640.62 701.25 641.41 700.3 642.1C699.48 642.69 697.82 643.95 696.75 643.78C695.01 643.51 695.26 640.37 695.56 639.22C696.76 634.66 700.49 630.92 704.03 628.04C712.14 621.43 723.2 616.36 725.89 605.28C726.24 603.86 723.71 604.31 723.2 604.92C720.49 608.18 720.8 612.45 719.82 616.34C718.79 620.39 715.38 623.33 711.14 623.34C709.46 623.34 708.94 625.54 710.9 625.54C715.4 625.54 719.84 622.9 721.84 618.83C723.83 614.76 722.66 609.43 725.65 605.83C724.75 605.71 723.86 605.59 722.96 605.47C721.57 611.22 717.14 615.48 712.61 618.96C708.1 622.41 703.2 625.33 699.11 629.3C695.8 632.52 691.59 637.67 692.56 642.66C693.89 649.52 702.37 643.93 704.94 641.05C706.74 639.04 708.35 636.34 708.24 633.55C708.13 630.81 706.14 628.99 703.61 628.29C698.42 626.85 692.22 628.31 687.45 630.5C682.4 632.82 678.01 636.58 675.08 641.31C673.69 643.55 672.58 646.6 675.11 648.5C677.27 650.12 680.36 649.95 682.73 648.96C685.72 647.72 688.12 645.19 689.99 642.62C692.13 639.68 694.04 636.54 695.85 633.38C699.55 626.9 702.63 620.08 705.07 613.03C704.12 613 703.16 612.97 702.21 612.94C701.6 616.59 699.89 623.16 694.84 622.1C689.04 620.88 694.18 613.12 695.16 610.17C695.73 608.45 693.01 608.77 692.38 609.8C691.01 612.01 690.21 614.48 689.34 616.92C688.53 619.19 687.68 621.66 685.96 623.42C685.21 624.19 684.14 624.96 683.02 625.02C681.13 625.11 681.12 622.88 681.06 621.51C680.89 617.78 681.53 614.07 682.89 610.6C681.96 610.48 681.04 610.35 680.11 610.23C678.91 613.41 677.68 616.63 675.93 619.55C675.06 620.99 674.04 622.37 672.85 623.56C672.06 624.34 670.04 626.45 668.78 625.68C667.53 624.92 667.98 622.52 668.25 621.38C668.59 619.9 669.31 618.49 670.25 617.3C672.15 614.88 674.91 613.32 678.01 613.24C679.35 613.2 680.38 611.38 678.62 611.05C674.32 610.24 669.33 611.17 665.46 608.77C664.66 608.27 663.95 607.66 663.41 606.88C663.17 606.53 662.94 606.15 662.82 605.73C662.8 605.67 662.78 605.61 662.77 605.56C662.87 605.19 662.78 605.06 662.48 605.17C661.86 604.9 662.76 605.54 662.73 605.51C664.17 606.73 664.22 609.25 664.09 610.97C663.77 615.14 661.41 618.86 658.64 621.87C657.21 623.42 655.6 624.89 653.86 626.08C653.17 626.55 652.39 627.08 651.62 626.49C651.05 626.05 650.8 625.28 650.64 624.61C650.15 622.52 650.71 620.35 651.18 618.31C651.82 615.51 652.68 612.77 653.72 610.09C653.98 609.41 653.47 608.92 652.82 608.82C652.06 608.7 651.33 609.09 650.94 609.72C647.33 615.52 642.05 620.27 635.87 623.2C635.92 623.18 635 623.62 635.1 623.65C634.92 623.6 634.91 623.07 634.9 622.92C634.86 622.16 635.18 621.41 635.44 620.72C636.06 619.02 636.77 617.36 637.57 615.74C639.25 612.33 641.34 609.15 643.75 606.21C644.88 604.84 642.45 604.35 641.56 605.06C634.69 610.55 627.19 615.21 619.2 618.89C617.22 619.8 611.79 623.01 610 620.23C608.91 618.54 609.99 615.63 610.62 613.93C611.33 612.03 612.29 610.23 613.42 608.55C615.68 605.18 618.45 602 621.42 599.24C624.19 596.66 627.55 594.19 631.44 593.84C632.22 593.77 633.34 593.64 633.18 594.75C633.04 595.73 632.13 596.57 631.5 597.26C630.19 598.72 628.77 600.07 627.27 601.33C624.23 603.87 620.86 605.99 617.24 607.63C615.29 608.52 613.27 609.25 611.21 609.82C609.8 610.21 606.98 611.35 605.65 610.23C604.16 608.98 605.41 605.66 606.06 604.25C607 602.24 608.49 600.64 610.36 599.48C609.71 599.02 609.07 598.55 608.42 598.09C604.86 601.24 600.51 603.34 595.78 604C595.2 604.08 593.87 604.61 594.21 605.49C594.87 607.15 595.72 609.11 595.22 610.92C594.95 611.89 593.76 613.27 592.82 612.16C591.91 611.09 592.13 609.18 592.19 607.89C592.27 606.39 592.46 604.89 592.77 603.42C594.03 597.45 597.28 591.82 601.78 587.71C604.33 585.38 607.24 583.55 610.45 582.28C612.06 581.64 610.97 579.99 609.52 580.35C593.24 584.43 577.49 590.57 562.74 598.59C560.98 599.51 562.53 601.16 564.01 600.36Z" fill="#2B332A"/>
</g>
</g>
<g opacity="0.7">
<g opacity="0.7">
<path opacity="0.7" d="M577.28 591.36C579.97 590.18 583.19 591.94 585.13 593.78C587.52 596.04 589.57 598.87 593.24 598.58C593.84 598.53 594.79 598.38 595.17 597.85C595.53 597.34 594.85 597.2 594.45 597.23C592.65 597.37 591.11 596.05 589.92 594.86C588.65 593.58 587.49 592.21 585.94 591.26C583.01 589.48 579.4 589.11 576.23 590.5C575.92 590.63 575.04 591 575.4 591.46C575.72 591.85 576.93 591.51 577.28 591.36Z" fill="#2B332A"/>
</g>
</g>
<g opacity="0.7">
<g opacity="0.7">
<path opacity="0.7" d="M583.31 584.48C586.14 581.55 590.81 581.93 594.47 582.6C599.31 583.48 604.26 584.89 609.1 583.22C609.67 583.03 610.47 582.55 610.28 581.82C610.1 581.15 609.12 581 608.56 581.2C603.4 582.97 598.12 580.6 592.95 580.11C588.61 579.7 584.03 580.34 580.88 583.61C580.39 584.12 580.68 584.8 581.26 585.04C581.96 585.32 582.81 584.99 583.31 584.48Z" fill="#2B332A"/>
</g>
</g>
</g>
</svg>
