<svg width="1660" height="1660" viewBox="0 0 1660 1660" fill="none" xmlns="http://www.w3.org/2000/svg">
<g opacity="0.7">
<g opacity="0.7">
<g opacity="0.7">
<path opacity="0.7" d="M1059.98 568.59C1060.17 576.57 1061.93 584.47 1065.23 591.74C1065.82 593.03 1066.24 594.51 1067.89 594.5C1069.36 594.49 1070.54 593.66 1070.97 592.27C1072.16 588.44 1072.33 584.05 1072.29 580.06C1071.32 580.32 1070.36 580.58 1069.39 580.84C1069.56 584 1072.39 590.39 1076.4 587.06C1077.84 585.86 1078.42 583.6 1078.5 581.81C1078.59 579.83 1078.11 577.87 1077 576.22C1075.9 574.57 1073.85 574.7 1072.37 575.89C1070.91 577.07 1070.3 579.09 1070.35 580.9C1070.45 584.37 1073.53 590.26 1077.7 587.59C1079.47 586.46 1080.08 583.52 1080.41 581.61C1080.84 579.09 1080.7 576.52 1080.04 574.06C1079.8 573.16 1077.06 573.9 1077.14 574.84C1077.3 576.79 1078.13 579.32 1079.93 580.38C1081.48 581.29 1083.92 580.72 1084.62 578.99C1085.49 576.85 1085.44 574.62 1084.58 572.52C1084.19 571.57 1083.71 570.62 1083.57 569.6C1083.48 568.94 1083.51 567.26 1084.32 566.93C1084.72 566.77 1085.44 566.38 1085.12 565.87C1084.82 565.4 1083.57 565.76 1083.22 565.9C1081.02 566.79 1080.2 568.95 1080.86 571.19C1081.27 572.57 1082.06 573.82 1082.31 575.24C1082.45 576.05 1082.37 576.86 1082.2 577.66C1082.11 578.09 1082.01 578.54 1081.88 578.96C1081.85 579.06 1081.82 579.16 1081.79 579.26C1081.52 579.7 1081.58 579.76 1081.99 579.44C1082.35 579.41 1082.71 579.38 1083.06 579.35C1081 579.19 1080.16 575.69 1080.03 574.07C1079.06 574.33 1078.1 574.59 1077.13 574.85C1078.11 578.5 1077.91 582.42 1076.37 585.89C1076.35 585.94 1075.81 586.92 1075.81 586.92C1076.66 586.88 1076.75 586.72 1076.08 586.43C1075.93 586.3 1075.79 586.16 1075.66 586.01C1075.03 585.31 1074.54 584.45 1074.14 583.6C1073.39 582 1072.99 580.17 1073.46 578.43C1073.56 578.07 1073.68 577.7 1073.85 577.37C1073.87 577.34 1074.66 576.26 1074.66 576.26C1073.66 576.24 1073.41 576.4 1073.89 576.77C1074 576.9 1074.1 577.03 1074.19 577.17C1074.48 577.58 1074.72 578.05 1074.92 578.51C1075.59 580.1 1075.79 581.87 1075.48 583.56C1075.34 584.31 1075.11 585.04 1074.77 585.73C1074.64 586.01 1074.49 586.27 1074.31 586.52C1074.55 586.44 1074.78 586.36 1075.02 586.28C1075.04 586.18 1074.12 585.29 1074.02 585.15C1072.94 583.67 1072.4 581.91 1072.3 580.09C1072.26 579.27 1069.39 579.86 1069.4 580.87C1069.44 584.32 1069.12 587.77 1068.44 591.16C1068.35 591.62 1068.26 592.11 1068.14 592.56C1067.98 593.13 1067.67 593.19 1068.58 593.08C1069.51 592.97 1069.13 592.97 1068.82 592.43C1068.6 592.04 1068.42 591.6 1068.24 591.2C1067.57 589.75 1066.97 588.28 1066.43 586.78C1064.22 580.71 1063.05 574.3 1062.9 567.84C1062.86 567.03 1059.96 567.56 1059.98 568.59Z" fill="#232620"/>
</g>
</g>
<g opacity="0.7">
<g opacity="0.7">
<path opacity="0.7" d="M1088.14 572.66C1089.12 570.64 1089.52 568.39 1089.19 566.16C1089.03 565.11 1088.53 564.21 1087.44 563.93C1086.09 563.59 1084.46 564.27 1084.06 565.65C1083.48 567.66 1083.72 570.09 1084.32 572.06C1084.9 573.97 1085.93 576.47 1088.25 576.53C1089.72 576.57 1091.13 575.79 1092 574.64C1092.77 573.63 1093.02 572.35 1093.69 571.28C1094.06 570.68 1093.37 570.3 1092.86 570.26C1092.19 570.21 1091.33 570.49 1090.96 571.09C1090.52 571.79 1090.26 572.58 1089.93 573.33C1089.78 573.67 1089.61 574.04 1089.38 574.32C1089.28 574.44 1088.97 574.74 1088.9 574.72C1088.87 574.71 1089.19 574.65 1089.18 574.66C1089.19 574.64 1089.16 574.68 1089.06 574.6C1088.8 574.4 1088.6 574.18 1088.42 573.91C1087.99 573.28 1087.68 572.57 1087.42 571.86C1086.89 570.39 1086.62 568.8 1086.71 567.24C1086.73 566.85 1086.77 566.46 1086.83 566.08C1086.86 565.91 1086.88 565.73 1086.92 565.56C1086.94 565.49 1086.97 565.41 1086.97 565.34C1087.01 564.91 1085.92 565.83 1085.87 565.7C1085.88 565.72 1086.04 565.98 1086.09 566.1C1086.24 566.44 1086.28 566.83 1086.32 567.2C1086.53 568.99 1086.19 570.85 1085.4 572.46C1085.1 573.07 1085.67 573.44 1086.23 573.48C1086.85 573.54 1087.84 573.27 1088.14 572.66Z" fill="#232620"/>
</g>
</g>
<g opacity="0.7">
<g opacity="0.7">
<path opacity="0.7" d="M1092.33 556.29C1092.3 555.44 1092.27 554.58 1092.55 553.76C1092.66 553.43 1092.83 553.2 1093.03 552.92C1093.14 552.76 1093.39 552.76 1093.02 552.82C1092.65 552.88 1092.8 552.84 1092.87 552.93C1092.96 553.03 1093.21 553.09 1093.32 553.17C1093.45 553.26 1093.58 553.37 1093.69 553.49C1093.92 553.72 1094.13 553.98 1094.29 554.26C1094.6 554.81 1094.76 555.45 1094.85 556.08C1095.03 557.4 1094.84 558.74 1094.64 560.05C1094.34 561.93 1094.04 563.8 1093.74 565.68C1093.57 566.73 1096.48 566.22 1096.63 565.29C1097 563 1097.44 560.7 1097.71 558.39C1097.9 556.75 1097.98 554.91 1097.15 553.41C1096.08 551.48 1093.95 550.88 1091.94 551.74C1090.98 552.15 1090.19 552.89 1089.77 553.86C1089.34 554.86 1089.39 556 1089.43 557.07C1089.47 557.91 1092.37 557.35 1092.33 556.29Z" fill="#232620"/>
</g>
</g>
<g opacity="0.7">
<g opacity="0.7">
<path opacity="0.7" d="M1095.17 570.48C1095.48 570.9 1095.79 571.32 1096.11 571.74C1096.2 571.81 1096.31 571.85 1096.42 571.86C1096.57 571.9 1096.71 571.91 1096.86 571.89C1097.05 571.88 1097.23 571.86 1097.42 571.81C1097.62 571.77 1097.81 571.72 1098 571.65C1098.11 571.6 1098.22 571.55 1098.33 571.5C1098.51 571.41 1098.66 571.3 1098.8 571.16C1098.84 571.1 1098.87 571.05 1098.91 570.99C1098.95 570.87 1098.93 570.78 1098.83 570.7C1098.52 570.28 1098.21 569.86 1097.89 569.44C1097.8 569.37 1097.69 569.33 1097.58 569.32C1097.43 569.28 1097.29 569.27 1097.14 569.29C1096.95 569.3 1096.77 569.32 1096.58 569.37C1096.38 569.41 1096.19 569.46 1096 569.53C1095.89 569.58 1095.78 569.63 1095.67 569.68C1095.49 569.77 1095.34 569.88 1095.2 570.02C1095.16 570.08 1095.13 570.13 1095.09 570.19C1095.05 570.31 1095.07 570.41 1095.17 570.48Z" fill="#232620"/>
</g>
</g>
</g>
</svg>
