<svg width="1660" height="1660" viewBox="0 0 1660 1660" fill="none" xmlns="http://www.w3.org/2000/svg">
<path d="M587.48 582.69C587.15 584.36 586.79 586.16 587.32 587.83C587.74 589.16 588.73 590.35 590.08 590.8C591.59 591.3 593.06 590.53 594.16 589.52C595.29 588.48 596.25 587.22 597.02 585.89C597.91 584.36 598.55 582.69 598.92 580.96C599.12 580.02 597.67 579.62 597.47 580.56C597.12 582.2 596.53 583.76 595.68 585.21C594.89 586.55 593.87 587.95 592.6 588.87C592 589.3 591.28 589.6 590.54 589.37C589.96 589.19 589.47 588.74 589.15 588.23C588.17 586.7 588.59 584.75 588.92 583.08C589.12 582.14 587.67 581.74 587.48 582.69Z" fill="#9F3333"/>
<path d="M595.52 577.79C597.01 578 597.66 579.47 598.06 580.76C598.58 582.45 598.92 584.22 599.14 585.97C599.6 589.64 599.46 593.37 598.76 597C598.61 597.77 599.76 598.41 600.13 597.58C601.27 595.03 602.61 592.58 604.15 590.25C604.88 589.14 605.64 588 606.55 587.03C607.04 586.5 607.57 586.02 608.21 585.67C608.77 585.37 610.24 584.94 610.37 585.99C610.49 586.94 611.99 586.95 611.87 585.99C611.69 584.55 610.48 583.67 609.03 583.84C607.29 584.05 605.87 585.44 604.83 586.75C602.39 589.81 600.43 593.28 598.83 596.83C599.29 597.02 599.74 597.22 600.2 597.41C601.02 593.2 601.12 588.9 600.45 584.66C600.03 581.96 599.38 576.83 595.91 576.35C594.97 576.21 594.56 577.66 595.52 577.79Z" fill="#9F3333"/>
<path d="M610.66 590.4C612.24 592.36 610.41 595.23 610.45 597.42C610.48 599 611.37 600.76 613 601.18C614.74 601.63 616.17 600.17 617.09 598.89C618.28 597.24 618.87 595.27 618.9 593.24C618.92 592.41 617.6 592.2 617.43 593.04C616.92 595.45 616.72 597.91 616.93 600.37C617.04 601.71 617.02 604.21 618.53 604.86C620.18 605.56 621.26 603.4 621.86 602.26C622.87 600.34 623.47 598.28 623.74 596.13C623.24 596.13 622.74 596.13 622.24 596.13C622.49 598.82 622.73 601.51 622.98 604.2C623.48 604.2 623.98 604.2 624.48 604.2C624.37 603.07 624.47 601.96 624.88 600.89C625.25 599.92 626.61 597.43 627.86 598.34C628.78 599.02 629.18 600.66 629.47 601.72C629.84 603.05 629.98 604.4 629.97 605.77C630.46 605.7 630.95 605.64 631.44 605.57C631.13 604.13 631.5 602.62 632.46 601.49C632.85 601.03 633.69 600.1 634.33 600.73C634.57 600.96 634.5 601.96 634.53 602.3C634.58 602.89 634.61 603.49 634.62 604.08C634.63 605.64 634.57 608.87 637 608.57C638.2 608.42 638.96 607.26 639.68 606.42C640.81 605.09 641.89 603.71 642.92 602.29C644.72 599.82 646.6 597.17 647.35 594.15C647.69 592.81 648.16 587.81 645.74 588.14C644.78 588.27 644.25 589.24 644 590.08C643.52 591.71 643.39 593.54 643.16 595.22C642.69 598.72 642.33 602.28 642.31 605.81C642.29 607.98 643.21 611.21 646.04 610.79C648.59 610.41 649.39 606.99 649.04 604.85C648.65 602.48 645.8 600.47 643.79 602.54C643.12 603.23 644.18 604.29 644.85 603.6C645.91 602.51 647.25 603.77 647.52 604.88C647.77 605.9 647.6 607.17 647.13 608.11C646.59 609.19 645.45 609.81 644.5 608.72C643.57 607.66 643.79 605.95 643.84 604.65C643.94 602.09 644.14 599.53 644.44 596.98C644.6 595.61 644.79 594.25 645.01 592.9C645.06 592.6 645.51 589.7 645.81 589.85C646.05 589.97 646.13 591.24 646.14 591.37C646.18 591.97 646.14 592.56 646.03 593.15C645.8 594.39 645.32 595.58 644.74 596.7C643.65 598.8 642.22 600.75 640.79 602.63C639.99 603.68 639.16 604.7 638.3 605.7C638 606.05 637.67 606.6 637.25 606.83C636.41 607.29 636.2 606.53 636.11 605.85C635.85 603.89 636.47 601.47 635.53 599.63C634.55 597.71 632.16 599.46 631.26 600.55C630 602.07 629.55 604.03 629.97 605.95C630.15 606.79 631.43 606.58 631.44 605.75C631.46 603.71 631.14 601.7 630.39 599.8C629.87 598.48 629.16 596.7 627.51 596.58C625.99 596.46 624.8 597.89 624.09 599.05C623.16 600.59 622.79 602.39 622.96 604.18C623.05 605.13 624.55 605.14 624.46 604.18C624.21 601.49 623.97 598.8 623.72 596.11C623.63 595.13 622.34 595.16 622.22 596.11C622.03 597.58 621.65 599.03 621.06 600.4C620.79 601.03 620.47 601.64 620.12 602.24C619.76 602.84 619.21 603.89 618.76 602.81C618.25 601.6 618.33 599.75 618.33 598.44C618.32 596.75 618.51 595.08 618.86 593.42C618.37 593.35 617.88 593.29 617.39 593.22C617.36 594.92 616.88 596.55 615.9 597.95C615.47 598.56 614.78 599.48 614 599.69C612.95 599.97 612.2 598.89 612 598C611.64 596.38 612.55 594.64 612.71 593.03C612.85 591.65 612.59 590.41 611.71 589.32C611.11 588.59 610.06 589.66 610.66 590.4Z" fill="#9F3333"/>
<path d="M572.75 583.54C576.61 583.54 576.62 577.54 572.75 577.54C568.89 577.54 568.88 583.54 572.75 583.54Z" fill="#3F3C3C"/>
<path d="M579.43 597.24C583.29 597.24 583.3 591.24 579.43 591.24C575.56 591.24 575.56 597.24 579.43 597.24Z" fill="#3F3C3C"/>
<path d="M591.37 607.43C595.23 607.43 595.24 601.43 591.37 601.43C587.51 601.43 587.5 607.43 591.37 607.43Z" fill="#3F3C3C"/>
</svg>
