<svg width="1660" height="1660" viewBox="0 0 1660 1660" fill="none" xmlns="http://www.w3.org/2000/svg">
<g opacity="0.7">
<g opacity="0.7">
<g opacity="0.7">
<path opacity="0.7" d="M1052.72 584.45C1050.96 582.74 1047.94 583.54 1046.33 585.07C1044.53 586.79 1043.52 589.61 1042.89 591.96C1041.71 596.38 1041.43 602.82 1045.52 605.91C1047.27 607.23 1049.56 607.72 1051.7 607.22C1054.2 606.63 1055.87 604.74 1057.03 602.54C1058.12 600.48 1058.96 597.82 1057.94 595.56C1057.09 593.67 1055.25 592.67 1053.25 592.44C1047.63 591.8 1043.82 596.41 1042.87 601.5C1042.66 602.64 1045.58 602.18 1045.77 601.15C1046.27 598.48 1047.72 594.48 1050.89 594.1C1052.24 593.94 1053.65 594.46 1054.52 595.51C1055.67 596.89 1055.61 598.8 1055.14 600.44C1054.67 602.06 1053.74 603.96 1052.45 605.08C1051.31 606.08 1049.85 605.71 1048.63 605.01C1045.42 603.17 1044.88 598.83 1045.13 595.49C1045.3 593.3 1045.8 591.13 1046.63 589.1C1047.04 588.09 1048.52 584.12 1050.03 585.58C1050.78 586.33 1053.52 585.23 1052.72 584.45Z" fill="#232620"/>
</g>
</g>
<g opacity="0.7">
<g opacity="0.7">
<path opacity="0.7" d="M1067.69 575.43C1065.87 573.66 1062.95 574.33 1061.28 575.98C1059.48 577.76 1058.5 580.55 1057.86 582.94C1056.66 587.44 1056.45 593.77 1060.49 596.98C1062.22 598.36 1064.58 598.9 1066.73 598.41C1069.24 597.84 1070.89 595.83 1072.04 593.65C1073.14 591.55 1073.93 588.87 1072.93 586.58C1072.09 584.66 1070.22 583.59 1068.2 583.32C1062.53 582.56 1058.79 587.44 1057.85 592.48C1057.6 593.83 1060.55 593.43 1060.78 592.22C1061.29 589.49 1062.76 585.73 1065.93 585.29C1067.24 585.11 1068.67 585.55 1069.53 586.58C1070.67 587.94 1070.6 589.81 1070.12 591.42C1069.65 593.01 1068.71 594.91 1067.41 595.99C1066.29 596.92 1064.78 596.64 1063.59 595.96C1060.39 594.13 1059.87 589.9 1060.12 586.57C1060.29 584.35 1060.8 582.15 1061.68 580.09C1062.05 579.22 1063.6 575.29 1065.02 576.66C1065.9 577.52 1068.65 576.37 1067.69 575.43Z" fill="#232620"/>
</g>
</g>
<g opacity="0.7">
<g opacity="0.7">
<path opacity="0.7" d="M1082.87 565.29C1081.16 563.62 1078.06 564.55 1076.5 565.98C1074.67 567.65 1073.67 570.47 1073.05 572.8C1071.88 577.17 1071.54 583.66 1075.66 586.68C1077.43 587.98 1079.69 588.39 1081.81 587.88C1084.3 587.28 1085.9 585.56 1087.1 583.39C1088.23 581.34 1089.12 578.63 1088.09 576.36C1087.26 574.53 1085.43 573.55 1083.48 573.35C1081.01 573.1 1078.41 573.91 1076.54 575.55C1074.56 577.3 1073.5 579.79 1073.02 582.34C1072.85 583.27 1075.74 582.79 1075.9 581.92C1076.38 579.33 1077.85 575.08 1080.99 574.77C1082.35 574.64 1083.79 575.22 1084.65 576.28C1085.8 577.69 1085.77 579.62 1085.29 581.29C1084.81 582.94 1083.92 584.75 1082.67 585.95C1081.52 587.06 1080.02 586.64 1078.76 585.87C1075.58 583.93 1075.02 579.66 1075.26 576.27C1075.42 574.08 1075.93 571.91 1076.76 569.88C1077.18 568.84 1077.66 567.78 1078.32 566.87C1078.55 566.55 1078.92 565.97 1079.3 565.86C1079.05 565.93 1079.34 565.88 1079.42 565.9C1079.72 565.96 1079.95 566.16 1080.16 566.37C1080.81 566.99 1083.52 565.92 1082.87 565.29Z" fill="#232620"/>
</g>
</g>
</g>
<g opacity="0.7">
<g opacity="0.7">
<path opacity="0.7" d="M551.04 567.3C553.77 573.28 557.17 578.93 561.16 584.15C561.65 584.79 564.43 583.83 563.87 583.1C559.94 577.97 556.61 572.4 553.93 566.52C553.56 565.69 550.74 566.63 551.04 567.3Z" fill="#2B332A"/>
</g>
</g>
<g opacity="0.7">
<g opacity="0.7">
<path opacity="0.7" d="M553.38 583.93C556.89 577.58 561.56 571.94 567.15 567.31C567.66 566.89 566.7 566.87 566.48 566.89C565.84 566.94 565.04 567.15 564.54 567.57C558.86 572.27 554.1 578.01 550.53 584.46C550.29 584.9 551.55 584.71 551.68 584.69C552.15 584.6 553.11 584.41 553.38 583.93Z" fill="#2B332A"/>
</g>
</g>
<g opacity="0.7">
<g opacity="0.7">
<path opacity="0.7" d="M570.55 573.42C573.91 578.39 577.71 583.04 581.9 587.33C582.4 587.85 585.05 586.78 584.63 586.35C580.5 582.12 576.76 577.53 573.45 572.64C572.98 571.96 570.33 573.11 570.55 573.42Z" fill="#2B332A"/>
</g>
</g>
<g opacity="0.7">
<g opacity="0.7">
<path opacity="0.7" d="M572.95 587.04C577.41 583.7 581.87 580.35 586.32 577.01C586.79 576.66 587.08 575.97 586.49 575.57C585.9 575.17 584.95 575.36 584.42 575.76C579.96 579.1 575.5 582.45 571.05 585.79C570.58 586.14 570.29 586.83 570.88 587.23C571.46 587.62 572.41 587.44 572.95 587.04Z" fill="#2B332A"/>
</g>
</g>
<g opacity="0.7">
<g opacity="0.7">
<path opacity="0.7" d="M551.13 595.89C560.33 603.83 574.58 602.46 582.43 593.31C583.62 591.92 580.86 591.45 580 592.45C576.8 596.18 572.24 598.63 567.31 599C562.21 599.38 557.2 597.53 553.36 594.21C552.38 593.37 549.86 594.79 551.13 595.89Z" fill="#2B332A"/>
</g>
</g>
</svg>
