<svg width="1660" height="1660" viewBox="0 0 1660 1660" fill="none" xmlns="http://www.w3.org/2000/svg">
<path d="M767.5 805.08C759.83 799.16 681.89 832.53 652.48 880.48C559.88 1031.49 562.49 1254.42 570.07 1294.74C571.42 1301.91 555.25 1330.54 570.21 1339.98C587.16 1350.68 602.14 1347.31 623.4 1349.37C634.03 1350.4 627.09 1334.39 637.71 1315.55C650.68 1292.54 669.67 1265.64 671.53 1275.22C673.17 1283.67 659.55 1338.23 685.84 1342.86C779.02 1359.29 872.04 1338.32 975.92 1346.76C981.25 1347.19 978.96 1292.17 988.93 1281.72C995.04 1275.32 1019.25 1314.22 1033.45 1351.23C1036.3 1358.67 1091.77 1339.18 1094.3 1337.66C1100.01 1334.23 1090.56 1301.59 1093 1298.64C1095.43 1281.36 1093.41 1245.51 1093.56 1215.88C1093.79 1171.75 1093.13 1140.89 1069.58 1048.88C1042.46 942.95 1017.38 878.04 989.87 858.2C926.65 812.61 885.24 793.73 880.83 802.73C867.93 829.12 798.65 829.12 767.5 805.08Z" fill="url(#paint0_radial_87_598)" stroke="#010101" stroke-width="4" stroke-miterlimit="10"/>
<path d="M570.08 1294.75C579.05 1295.14 590.2 1296.39 602.66 1299.62C616.56 1303.22 627.91 1308.21 636.44 1312.71" stroke="#010101" stroke-width="4" stroke-miterlimit="10"/>
<path d="M671.49 1302.58C728.63 1302.21 785.78 1301.93 842.94 1301.74C889.5 1301.58 936.05 1301.48 982.6 1301.43" stroke="#010101" stroke-width="4" stroke-miterlimit="10"/>
<path d="M1018.19 1313.55C1028.81 1309.63 1040.96 1305.79 1054.51 1302.57C1068.63 1299.21 1081.71 1297.13 1093.35 1295.86" stroke="#010101" stroke-width="4" stroke-miterlimit="10"/>
<path d="M662.64 894.69C663.44 910.84 664.4 936 664.28 966.82C664.04 1028.76 659.66 1057.51 658.82 1099.06C658.18 1130.61 661.73 1223.51 671.5 1281.11" stroke="#010101" stroke-width="4" stroke-miterlimit="10"/>
<path d="M994.88 919.28C995.03 963.59 995.92 999.42 996.66 1023.16C998.74 1089.65 1001.44 1118.28 999.25 1165.73C997.63 1200.88 986.06 1278.44 983.55 1295.86" stroke="#010101" stroke-width="4" stroke-miterlimit="10"/>
<path d="M786.73 969.52C787.2 968.09 787.66 966.66 788.13 965.24C788.57 963.93 789.02 963.71 790.18 963.06C791.57 962.29 792.96 961.52 794.36 960.74C795 960.38 795.65 960.03 796.29 959.67C796.61 959.49 796.93 959.31 797.25 959.14C797.46 959.02 797.68 958.9 797.89 958.78C797.66 958.9 797.4 958.97 797.13 959C796.67 958.97 796.2 958.95 795.74 958.92C796.91 959.13 798.17 960.81 798.73 961.88C799.47 963.3 799.76 964.93 799.53 966.51C799.16 969.02 805.03 968.08 805.35 965.89C805.74 963.24 805.02 960.56 803.38 958.44C802.59 957.41 801.49 956.44 800.32 955.88C798.14 954.82 795.99 955.76 794.05 956.83C791.18 958.42 788.16 959.88 785.4 961.65C783.87 962.63 782.99 963.89 782.41 965.58C781.89 967.1 781.41 968.63 780.91 970.15C780.48 971.45 782.7 971.73 783.47 971.63C784.76 971.45 786.29 970.86 786.73 969.52Z" fill="#989798"/>
<path d="M780.48 970.72C781.86 976.77 782.67 982.94 782.85 989.15C782.94 992.17 782.8 995.17 782.78 998.19C782.77 1000.84 782.75 1003.79 783.76 1006.29C784.76 1008.76 786.73 1009.88 789.37 1009.69C791.04 1009.57 792.66 1008.99 794.12 1008.19C795.2 1007.59 796.19 1006.85 797.32 1006.35C799.82 1005.23 802.43 1004.38 804.4 1002.37C806.14 1000.59 807.09 998.15 807.33 995.7C807.64 992.54 807.03 989.3 806.27 986.24C805.64 983.7 804.46 981.7 801.78 981.1C800.72 980.86 797.29 981.49 797.08 982.92C796.76 985.02 796.75 987.11 797.07 989.21C797.31 990.77 803.15 989.48 802.87 987.66C802.58 985.78 802.56 983.93 802.84 982.05C801.27 982.66 799.7 983.26 798.14 983.87C799.57 984.19 800.2 986.64 800.49 987.81C801.1 990.25 801.61 992.82 801.63 995.34C801.65 997.45 801.19 999.76 799.96 1001.52C798.76 1003.22 797.02 1003.74 795.19 1004.52C794.17 1004.95 793.18 1005.42 792.24 1006C791.77 1006.29 791.32 1006.59 790.85 1006.87C790.79 1006.9 790.32 1007.11 790.32 1007.16C790.56 1007.05 790.8 1006.99 791.06 1006.99C791.57 1006.99 791.61 1006.94 791.17 1006.83C790.57 1006.24 790.06 1005.87 789.7 1005.07C789.26 1004.1 789.04 1003.07 788.89 1002.02C788.15 996.95 788.82 991.75 788.62 986.65C788.39 980.77 787.59 974.93 786.28 969.19C785.9 967.54 780.08 968.99 780.48 970.72Z" fill="#989798"/>
<path d="M828.41 947.67C828.14 947.68 827.88 947.69 827.61 947.69C827.02 948.47 826.43 949.26 825.85 950.04C827.82 949.64 829.8 949.25 831.77 948.85C832.71 948.66 833.65 948.48 834.59 948.29C835.31 948.15 834.02 948.42 834.73 948.27C835.26 948.16 834.47 948.24 834.96 948.26C835.35 948.27 834.94 948.23 835.29 948.31C835.49 948.4 835.55 948.41 835.47 948.34C835.49 948.26 835.49 948.29 835.47 948.44C835.56 948.24 835.65 948.05 835.74 947.85C835.71 947.88 835.68 947.92 835.65 947.95C836.94 947.48 838.23 947.01 839.52 946.54C839.48 946.54 839.44 946.54 839.4 946.54C838.67 946.56 837.82 946.79 837.14 947.04C836.62 947.23 835.92 947.53 835.53 947.94C834.61 948.9 836.35 948.99 836.92 948.97C837.85 948.95 838.78 948.68 839.63 948.32C840.14 948.1 841.01 947.73 841.23 947.15C841.49 946.45 840.65 946.15 840.14 946.01C838.53 945.55 836.72 945.8 835.11 946.11C832.37 946.64 829.64 947.21 826.9 947.76C826.16 947.91 825.37 948.1 824.69 948.45C824.32 948.64 823.85 948.86 823.63 949.23C823.07 950.14 824.6 950.13 825.14 950.11C825.41 950.1 825.67 950.09 825.94 950.09C826.68 950.07 827.51 949.84 828.2 949.59C828.72 949.4 829.42 949.1 829.81 948.69C830.71 947.74 828.98 947.65 828.41 947.67Z" fill="#989798"/>
<path d="M829.07 950.38C820.86 964.18 821.72 981.01 815.29 995.47C813.99 998.39 819.82 998.19 820.8 996C827.23 981.55 826.4 964.66 834.58 950.91C835.31 949.68 833.94 948.77 832.86 948.66C831.45 948.51 829.81 949.14 829.07 950.38Z" fill="#989798"/>
<path d="M817.53 998.76C817.7 998.65 817.87 998.54 818.03 998.42C818.28 998.26 818.2 998.31 817.78 998.57C817.87 998.52 817.95 998.47 818.04 998.42C818.35 998.24 818.66 998.08 818.97 997.92C819.29 997.76 819.61 997.62 819.93 997.48C820.12 997.4 820.31 997.33 820.49 997.26C819.56 997.65 820.15 997.39 820.38 997.31C821.07 997.08 821.78 996.89 822.5 996.75C822.6 996.73 822.7 996.71 822.8 996.69C822.26 996.78 822.14 996.8 822.46 996.75C822.61 996.73 822.76 996.71 822.91 996.69C823.31 996.64 823.71 996.61 824.12 996.59C824.86 996.55 825.71 996.24 826.3 995.79C826.74 995.45 827.28 994.82 827.3 994.21C827.36 992.73 825.85 992.17 824.6 992.24C820.67 992.45 816.89 993.8 813.66 996.02C812.66 996.71 812.2 998.33 813.37 999.09C814.65 999.93 816.34 999.58 817.53 998.76Z" fill="#989798"/>
<path d="M824.67 984.88C825.72 984.55 826.78 984.25 827.85 983.98C828.43 983.83 829 983.69 829.58 983.56C829.83 983.5 830.08 983.45 830.33 983.39C830.5 983.35 830.66 983.32 830.83 983.28C830.5 983.35 830.45 983.36 830.67 983.31C832.88 982.89 835.1 982.56 837.34 982.35C838.37 982.25 840.37 981.64 840.65 980.46C840.95 979.2 838.84 979.3 838.19 979.36C833.37 979.81 828.58 980.77 823.95 982.2C823.18 982.44 821.1 983.14 821.41 984.31C821.71 985.44 823.96 985.1 824.67 984.88Z" fill="#989798"/>
<path d="M830.13 952.2C833.93 966.88 837.53 981.6 840.95 996.37C841.48 998.67 847.29 997.18 846.75 994.82C843.34 980.05 839.73 965.32 835.93 950.65C835.33 948.34 829.53 949.87 830.13 952.2Z" fill="#989798"/>
<path d="M836.12 996.61C836.53 996.58 836.94 996.55 837.35 996.53C837.44 996.53 837.54 996.52 837.63 996.52C837.94 996.51 837.88 996.51 837.46 996.52C837.58 996.46 837.9 996.51 838.03 996.51C838.82 996.51 839.6 996.54 840.39 996.6C840.8 996.63 841.21 996.67 841.61 996.72C841.8 996.74 841.99 996.76 842.17 996.79C842.23 996.8 842.29 996.81 842.36 996.82C842.64 996.86 842.61 996.86 842.27 996.81C842.27 996.79 844.49 997.24 844.68 997.29C845.38 997.46 846.16 997.4 846.86 997.22C847.5 997.05 848.32 996.7 848.78 996.19C849.1 995.84 849.5 995.33 849.32 994.81C849.14 994.3 848.67 994.01 848.16 993.89C844.44 993.01 840.63 992.75 836.82 993.08C836.09 993.14 835.24 993.43 834.63 993.84C834.23 994.1 833.61 994.64 833.56 995.17C833.43 996.51 835.16 996.69 836.12 996.61Z" fill="#989798"/>
<path d="M853.61 951.89C856.06 953.48 858.5 955.08 860.95 956.67C861.36 956.94 861.98 956.94 862.44 956.91C863.18 956.87 864.01 956.69 864.7 956.41C865.24 956.19 865.92 955.95 866.31 955.48C866.5 955.25 866.76 954.87 866.39 954.63C863.94 953.04 861.5 951.44 859.05 949.85C858.64 949.58 858.02 949.58 857.56 949.61C856.82 949.65 855.99 949.83 855.3 950.11C854.76 950.33 854.08 950.57 853.69 951.04C853.51 951.27 853.25 951.65 853.61 951.89Z" fill="#989798"/>
<path d="M856.36 953.54C857.13 964.16 862.68 973.7 863.7 984.27C863.89 986.23 869.71 984.97 869.5 982.72C868.48 972.15 862.93 962.61 862.16 951.99C862.07 950.75 859.56 951.08 858.86 951.27C857.81 951.55 856.27 952.25 856.36 953.54Z" fill="#989798"/>
<path d="M871.47 962.26C873.85 964.27 876.24 966.28 878.62 968.3C879.11 968.72 880 968.83 880.61 968.79C881.33 968.74 882.23 968.46 882.79 967.98C883.26 967.58 883.76 967.03 883.79 966.38C883.81 965.74 883.56 965.27 883.07 964.85C880.69 962.84 878.3 960.83 875.92 958.81C875.43 958.39 874.54 958.28 873.93 958.32C873.21 958.37 872.31 958.65 871.75 959.13C871.28 959.53 870.78 960.08 870.75 960.73C870.72 961.37 870.98 961.84 871.47 962.26Z" fill="#989798"/>
<path d="M874.96 963.23C872.44 969.8 869.8 976.24 865.49 981.87C864.67 982.94 864.95 984.25 866.26 984.74C867.56 985.23 869.49 984.77 870.36 983.64C872.65 980.64 874.66 977.43 876.31 974.04C877.91 970.76 879.21 967.34 880.52 963.94C881.72 960.8 875.91 960.76 874.96 963.23Z" fill="#989798"/>
<path d="M864.61 982.24C863.93 989.07 863.4 995.91 863.03 1002.76C862.87 1005.65 868.75 1004.75 868.89 1002.26C869.26 995.41 869.79 988.57 870.47 981.74C870.75 978.89 864.86 979.75 864.61 982.24Z" fill="#989798"/>
<path d="M859.03 1000.36C862.79 1002.72 866.55 1005.08 870.31 1007.44C871.36 1008.1 873.01 1007.71 874.08 1007.27C874.43 1007.13 876.74 1005.97 875.73 1005.35C871.97 1002.99 868.21 1000.63 864.45 998.27C863.4 997.61 861.75 998 860.68 998.44C860.33 998.58 858.03 999.73 859.03 1000.36Z" fill="#989798"/>
<path d="M812.34 1009.26C812.74 1012.74 813.01 1016.23 813.12 1019.73C813.14 1020.25 813.64 1020.41 814.1 1020.37C814.47 1020.34 815.33 1020.04 815.31 1019.54C815.19 1015.91 814.92 1012.29 814.51 1008.69C814.41 1007.77 812.23 1008.28 812.34 1009.26Z" fill="#989798"/>
<path d="M813.51 1009.73C813.64 1009.7 813.63 1009.7 813.48 1009.73C813.54 1009.72 813.6 1009.71 813.66 1009.7C813.78 1009.68 813.9 1009.67 814.02 1009.66C814.06 1009.66 814.45 1009.64 814.2 1009.64C814.32 1009.64 814.44 1009.64 814.56 1009.64C814.68 1009.64 814.8 1009.65 814.92 1009.66C814.95 1009.66 815.31 1009.7 815.13 1009.68C815.34 1009.71 815.55 1009.75 815.75 1009.8C816.42 1009.96 817.19 1010.22 817.11 1011.05C817.1 1011.14 817.09 1011.22 817.07 1011.31C817.06 1011.34 816.98 1011.58 817.02 1011.49C816.98 1011.58 816.93 1011.67 816.87 1011.75C816.84 1011.79 816.81 1011.83 816.78 1011.87C816.83 1011.81 816.83 1011.81 816.76 1011.89C816.69 1011.96 816.61 1012.04 816.53 1012.11C816.45 1012.18 816.45 1012.18 816.54 1012.11C816.5 1012.14 816.45 1012.17 816.41 1012.2C816.24 1012.31 816.07 1012.41 815.9 1012.51C815.83 1012.55 815.85 1012.54 815.97 1012.48C815.92 1012.5 815.88 1012.53 815.83 1012.55C815.73 1012.6 815.63 1012.65 815.54 1012.7C815.28 1012.83 815.03 1012.96 814.78 1013.1C814.35 1013.34 813.93 1013.63 813.59 1013.98C813.47 1014.1 813.33 1014.29 813.38 1014.48C813.43 1014.66 813.64 1014.77 813.81 1014.81C814.31 1014.92 814.98 1014.77 815.35 1014.4C815.42 1014.33 815.49 1014.27 815.56 1014.2C815.59 1014.17 815.62 1014.15 815.66 1014.12C815.63 1014.14 815.51 1014.22 815.66 1014.12C815.82 1014.01 815.99 1013.91 816.15 1013.82C816.17 1013.81 816.29 1013.74 816.17 1013.81C816.04 1013.88 816.2 1013.79 816.23 1013.78C816.3 1013.74 816.38 1013.71 816.45 1013.67C816.69 1013.55 816.93 1013.43 817.16 1013.3C817.87 1012.92 818.61 1012.42 818.99 1011.69C819.36 1011 819.44 1010.11 818.91 1009.47C818.63 1009.14 818.23 1008.94 817.83 1008.8C817.42 1008.65 817 1008.53 816.56 1008.46C815.42 1008.27 814.3 1008.32 813.17 1008.55C812.82 1008.62 812.12 1008.97 812.24 1009.43C812.39 1009.91 813.18 1009.8 813.51 1009.73Z" fill="#989798"/>
<path d="M821.92 1010.25C822.21 1013.02 822.5 1015.79 822.79 1018.56C822.84 1019.02 823.76 1018.89 824.02 1018.82C824.39 1018.72 825.01 1018.45 824.96 1017.98C824.67 1015.21 824.38 1012.44 824.09 1009.67C824.04 1009.21 823.12 1009.34 822.86 1009.41C822.49 1009.51 821.87 1009.77 821.92 1010.25Z" fill="#989798"/>
<path d="M824.4 1009.92C824.76 1009.45 824.38 1010.03 824.23 1009.83C824.24 1009.84 824.46 1009.86 824.45 1009.86C824.8 1009.92 825.15 1010.06 825.47 1010.19C826 1010.41 826.56 1010.75 826.73 1011.34C826.9 1011.92 826.63 1012.58 826.18 1012.96C825.8 1013.28 825.32 1013.33 824.85 1013.42C824.52 1013.48 823.68 1013.64 823.59 1014.05C823.5 1014.46 824.29 1014.35 824.48 1014.33C825.46 1014.2 827.1 1014.17 827.43 1015.37C827.72 1016.45 827.05 1017.57 827.27 1018.68C827.38 1019.21 829.56 1018.7 829.44 1018.1C829.19 1016.85 830.16 1015.38 829.33 1014.25C828.92 1013.7 828.24 1013.5 827.6 1013.4C826.69 1013.26 825.77 1013.31 824.86 1013.43C824.73 1013.73 824.61 1014.04 824.48 1014.34C825.7 1014.1 827.01 1013.82 827.99 1013.01C828.72 1012.41 829.28 1011.33 828.75 1010.43C828.26 1009.59 827.11 1009.18 826.21 1008.98C824.97 1008.71 823.23 1008.97 822.41 1010.04C822.12 1010.42 822.66 1010.48 822.94 1010.47C823.38 1010.43 824.12 1010.29 824.4 1009.92Z" fill="#989798"/>
<path d="M832.49 1010.37C833.11 1013.02 833.47 1015.72 833.57 1018.44C833.58 1018.72 835.76 1018.4 835.74 1017.86C835.64 1015.14 835.28 1012.44 834.66 1009.79C834.57 1009.39 832.39 1009.93 832.49 1010.37Z" fill="#989798"/>
<path d="M838.13 1009.6C838.87 1012.39 839.42 1015.23 839.77 1018.1C840.49 1017.91 841.22 1017.71 841.94 1017.52C841.86 1017.34 841.78 1017.16 841.69 1016.98C841.43 1016.42 839.32 1017.14 839.52 1017.56C839.6 1017.74 839.68 1017.92 839.77 1018.1C839.93 1018.45 840.69 1018.25 840.96 1018.18C841.21 1018.11 841.99 1017.9 841.95 1017.52C841.6 1014.65 841.05 1011.81 840.31 1009.02C840.17 1008.5 837.99 1009.07 838.13 1009.6Z" fill="#989798"/>
<path d="M840.5 1009.68C840.33 1009.78 840.09 1009.72 840.44 1009.76C840.68 1009.78 840.93 1009.86 841.15 1009.95C841.62 1010.16 842.04 1010.49 842.39 1010.87C843.16 1011.7 843.66 1012.83 843.92 1013.93C844.05 1014.5 844.11 1015.09 844.09 1015.68C844.07 1016.2 844.01 1016.82 843.69 1017.25C843.58 1017.4 843.49 1017.47 843.42 1017.49C843.49 1017.47 843.51 1017.48 843.32 1017.5C843.22 1017.51 843.11 1017.52 843.01 1017.51C842.43 1017.5 841.88 1017.33 841.37 1017.07C840.98 1016.87 840.36 1017.06 839.97 1017.2C839.88 1017.23 838.99 1017.63 839.32 1017.8C840.57 1018.44 841.97 1018.49 843.32 1018.18C844.06 1018.01 844.86 1017.76 845.45 1017.26C845.91 1016.88 846.09 1016.35 846.18 1015.78C846.38 1014.5 846.16 1013.17 845.63 1011.99C845.17 1010.96 844.47 1009.92 843.47 1009.35C842.05 1008.54 840.19 1008.84 838.83 1009.63C838.76 1009.67 838.54 1009.82 838.57 1009.94C838.6 1010.07 838.87 1010.08 838.95 1010.08C839.48 1010.11 840.06 1009.94 840.5 1009.68Z" fill="#989798"/>
<path d="M847.76 1010.14C848 1011.47 848.2 1012.81 848.38 1014.16C848.47 1014.83 848.55 1015.5 848.62 1016.18C848.69 1016.86 848.7 1017.57 848.82 1018.24C848.93 1018.82 849.46 1018.99 849.99 1019.02C850.64 1019.06 851.32 1018.98 851.97 1018.95C852.73 1018.92 853.54 1018.81 854.19 1018.37C854.54 1018.13 854.88 1017.59 854.41 1017.27C854.05 1017.02 853.37 1017.24 853 1017.37C852.87 1017.42 852.03 1017.79 852.36 1018.02C852.71 1018.26 851.97 1018.47 852.85 1018.15C853.7 1017.84 852.95 1018.01 852.64 1018.03C852.25 1018.05 851.71 1018.17 851.32 1018.08C850.92 1017.98 850.96 1017.42 850.93 1017.1C850.89 1016.59 850.84 1016.09 850.78 1015.58C850.57 1013.56 850.28 1011.54 849.92 1009.54C849.84 1009.07 847.65 1009.56 847.76 1010.14Z" fill="#989798"/>
<path d="M849.94 1014.85C850.89 1014.62 851.85 1014.39 852.8 1014.16C853.05 1014.1 853.34 1013.96 853.52 1013.78C853.63 1013.67 853.79 1013.46 853.73 1013.29C853.56 1012.83 852.84 1012.92 852.49 1013C851.54 1013.23 850.58 1013.46 849.63 1013.69C849.38 1013.75 849.09 1013.89 848.91 1014.07C848.8 1014.18 848.64 1014.39 848.7 1014.56C848.87 1015.02 849.59 1014.94 849.94 1014.85Z" fill="#989798"/>
<path d="M850.46 1010.91C850.5 1010.88 850.54 1010.85 850.58 1010.82C850.38 1010.99 850.48 1010.89 850.55 1010.85C850.59 1010.83 850.73 1010.76 850.56 1010.84C850.39 1010.93 850.53 1010.86 850.57 1010.84C850.75 1010.76 850.29 1010.92 850.47 1010.87C850.57 1010.84 850.72 1010.84 850.37 1010.88C850.41 1010.88 850.45 1010.87 850.49 1010.86C850.71 1010.83 850.3 1010.86 850.42 1010.86C850.46 1010.86 850.5 1010.86 850.54 1010.86C850.56 1010.86 850.59 1010.86 850.61 1010.86C850.68 1010.86 850.64 1010.86 850.49 1010.85C850.53 1010.87 850.59 1010.86 850.64 1010.87C850.66 1010.87 850.67 1010.88 850.69 1010.88C850.76 1010.9 850.75 1010.9 850.69 1010.88C850.59 1010.81 850.7 1010.88 850.73 1010.9C850.78 1010.92 850.82 1010.94 850.87 1010.96C850.96 1011 851.04 1011.05 851.13 1011.1C851.08 1011.07 851.04 1011.04 850.99 1011.01C851.25 1011.19 851.46 1011.41 851.62 1011.68C851.59 1011.64 851.57 1011.6 851.54 1011.55C851.7 1011.83 851.8 1012.14 851.82 1012.47C851.83 1012.64 852.12 1012.73 852.24 1012.75C852.49 1012.8 852.81 1012.76 853.05 1012.69C853.41 1012.58 854.03 1012.35 854 1011.89C853.95 1011.01 853.3 1010.18 852.47 1009.88C851.24 1009.43 849.72 1009.76 848.72 1010.59C848.6 1010.69 848.45 1010.87 848.5 1011.04C848.55 1011.21 848.77 1011.29 848.92 1011.32C849.43 1011.4 850.05 1011.24 850.46 1010.91Z" fill="#989798"/>
<path d="M816.11 1025.78C816.52 1027.14 816.8 1028.54 816.96 1029.95C817.44 1029.82 817.93 1029.69 818.41 1029.56C817.79 1028.49 817.5 1027.26 817.58 1026.03C817.6 1025.74 817.62 1025.43 817.78 1025.18C817.79 1025.17 817.84 1025.11 817.85 1025.08C817.59 1025.14 817.33 1025.21 817.07 1025.27C817.09 1025.28 817.11 1025.29 817.13 1025.3C817.24 1025.39 817.3 1025.48 817.36 1025.61C817.63 1026.21 817.71 1026.89 817.65 1027.55C817.64 1027.68 818.12 1027.61 818.14 1027.6C818.41 1027.56 818.68 1027.48 818.92 1027.35C818.69 1027.36 818.47 1027.42 818.28 1027.53C818.3 1027.53 818.32 1027.54 818.34 1027.54C818.39 1027.56 818.43 1027.58 818.48 1027.6C818.59 1027.66 818.69 1027.73 818.76 1027.83C818.92 1028.04 818.97 1028.33 818.93 1028.59C818.89 1028.86 818.74 1029.13 818.54 1029.31C818.46 1029.38 818.37 1029.45 818.27 1029.5C818.36 1029.46 818.16 1029.54 818.25 1029.51C818.3 1029.5 818.28 1029.5 818.2 1029.52C818.27 1029.5 818.26 1029.5 818.17 1029.52C817.98 1029.55 817.79 1029.61 817.62 1029.69C817.57 1029.71 817.34 1029.81 817.32 1029.89C817.26 1030.11 817.81 1030 817.89 1029.99C818.9 1029.81 820.37 1029.3 820.4 1028.06C820.41 1027.64 820.16 1027.25 819.77 1027.09C819.16 1026.84 818.37 1027.06 817.82 1027.36C818.24 1027.29 818.67 1027.23 819.09 1027.16C819.12 1026.76 819.11 1026.35 819.02 1025.95C818.95 1025.61 818.85 1025.19 818.61 1024.93C818.3 1024.59 817.74 1024.72 817.35 1024.83C816.93 1024.95 816.45 1025.15 816.26 1025.58C816.12 1025.91 816.1 1026.3 816.1 1026.65C816.09 1027.03 816.11 1027.41 816.17 1027.79C816.29 1028.55 816.55 1029.27 816.94 1029.94C817.05 1030.13 817.56 1029.98 817.72 1029.94C817.85 1029.9 818.42 1029.77 818.39 1029.56C818.23 1028.15 817.95 1026.75 817.54 1025.39C817.48 1025.11 816.03 1025.51 816.11 1025.78Z" fill="#989798"/>
<path d="M820.29 1025.84C820.45 1027.04 820.52 1028.25 820.52 1029.46C821 1029.33 821.49 1029.2 821.97 1029.07C821.73 1027.7 821.77 1026.31 822.1 1024.96C821.63 1025.08 821.17 1025.21 820.7 1025.33C821.88 1025.95 822.73 1027.04 823.03 1028.33C823.08 1028.56 823.68 1028.41 823.82 1028.37C823.96 1028.33 824.54 1028.17 824.48 1027.94C824.17 1026.62 823.26 1025.46 822.06 1024.83C821.85 1024.72 821.53 1024.79 821.32 1024.85C821.2 1024.88 821.08 1024.93 820.96 1024.98C820.89 1025.01 820.69 1025.11 820.66 1025.21C820.32 1026.6 820.26 1028.05 820.51 1029.46C820.57 1029.78 821.96 1029.45 821.96 1029.07C821.96 1027.86 821.89 1026.65 821.73 1025.45C821.7 1025.23 821.06 1025.38 820.94 1025.41C820.8 1025.45 820.26 1025.59 820.29 1025.84Z" fill="#989798"/>
<path d="M822.24 1028.41C822.74 1028 823.23 1027.58 823.73 1027.17C823.82 1027.1 823.9 1026.95 823.87 1026.84C823.84 1026.72 823.7 1026.64 823.58 1026.62C823.22 1026.54 822.83 1026.66 822.56 1026.89C822.06 1027.3 821.57 1027.72 821.07 1028.13C820.98 1028.2 820.9 1028.35 820.93 1028.46C820.96 1028.58 821.1 1028.66 821.22 1028.68C821.57 1028.76 821.96 1028.64 822.24 1028.41Z" fill="#989798"/>
<path d="M823.51 1025.88C823.84 1026.49 823.81 1027.2 824.05 1027.84C824.16 1028.14 824.36 1028.42 824.65 1028.58C825.11 1028.83 825.71 1028.74 826.18 1028.6C826.69 1028.45 827.31 1028.18 827.51 1027.64C827.6 1027.41 827.03 1027.5 826.94 1027.52C826.75 1027.56 826.56 1027.61 826.39 1027.69C826.3 1027.73 826.13 1027.8 826.09 1027.9C826.06 1027.97 826.03 1028.04 825.99 1028.1C825.98 1028.11 825.9 1028.21 825.95 1028.16C825.93 1028.18 825.9 1028.21 825.88 1028.23C825.86 1028.24 825.85 1028.26 825.83 1028.27C825.89 1028.23 825.9 1028.22 825.85 1028.25C825.83 1028.26 825.81 1028.27 825.79 1028.28C825.82 1028.27 825.84 1028.25 825.87 1028.24C825.81 1028.27 825.83 1028.26 825.95 1028.21C825.88 1028.24 825.91 1028.23 826.05 1028.18C825.98 1028.2 826.01 1028.19 826.15 1028.16C826.1 1028.17 826.11 1028.17 826.17 1028.16C826.24 1028.15 826.25 1028.15 826.19 1028.15C826.29 1028.15 826.31 1028.15 826.25 1028.15C826.23 1028.15 826.21 1028.15 826.19 1028.15C826.26 1028.16 826.27 1028.16 826.23 1028.15C826.2 1028.14 826.15 1028.13 826.12 1028.13C826.08 1028.12 826.08 1028.12 826.11 1028.13C826.09 1028.12 826.08 1028.12 826.07 1028.11C825.93 1028.03 825.81 1027.95 825.71 1027.83C825.72 1027.85 825.74 1027.86 825.75 1027.88C825.49 1027.56 825.4 1027.14 825.33 1026.74C825.25 1026.32 825.18 1025.88 824.97 1025.49C824.92 1025.41 824.8 1025.4 824.72 1025.4C824.55 1025.39 824.36 1025.43 824.19 1025.48C824.02 1025.53 823.84 1025.58 823.69 1025.68C823.63 1025.71 823.47 1025.81 823.51 1025.88Z" fill="#989798"/>
<path d="M827.35 1025.89C827.3 1026.34 827.3 1026.8 827.36 1027.25C827.42 1027.68 827.51 1028.13 827.75 1028.49C827.96 1028.8 828.33 1028.98 828.69 1029.04C829.24 1029.14 829.84 1029.02 830.31 1028.72C830.5 1028.6 830.74 1028.28 830.43 1028.13C830.12 1027.98 829.68 1028.09 829.4 1028.26C829.39 1028.27 829.37 1028.28 829.35 1028.29C829.3 1028.32 829.33 1028.3 829.43 1028.25C829.4 1028.26 829.29 1028.3 829.43 1028.26C829.56 1028.21 829.45 1028.25 829.42 1028.26C829.55 1028.24 829.59 1028.23 829.53 1028.24C829.51 1028.24 829.49 1028.24 829.48 1028.25C829.52 1028.25 829.56 1028.25 829.59 1028.25C829.57 1028.25 829.54 1028.25 829.52 1028.25C829.41 1028.25 829.63 1028.27 829.56 1028.26C829.53 1028.25 829.5 1028.25 829.47 1028.24C829.45 1028.24 829.44 1028.23 829.42 1028.23C829.38 1028.22 829.4 1028.22 829.47 1028.25C829.47 1028.26 829.32 1028.18 829.31 1028.18C829.29 1028.17 829.21 1028.1 829.29 1028.17C829.27 1028.15 829.24 1028.13 829.22 1028.11C829.17 1028.07 829.13 1028.02 829.09 1027.96C829.08 1027.95 829.03 1027.87 829.05 1027.89C829.06 1027.91 829.06 1027.9 829.04 1027.86C829.03 1027.84 829.02 1027.82 829.01 1027.8C828.88 1027.48 828.82 1027.13 828.78 1026.79C828.74 1026.43 828.74 1026.11 828.78 1025.75C828.82 1025.43 828.38 1025.39 828.15 1025.42C827.96 1025.45 827.76 1025.5 827.6 1025.61C827.52 1025.64 827.36 1025.75 827.35 1025.89Z" fill="#989798"/>
<path d="M828.25 1027.85C828.91 1027.78 829.55 1027.51 830.05 1027.07C830.14 1027 830.22 1026.85 830.19 1026.73C830.16 1026.61 830.02 1026.53 829.9 1026.51C829.55 1026.43 829.15 1026.55 828.88 1026.78C828.85 1026.8 828.82 1026.83 828.79 1026.85C828.83 1026.82 828.88 1026.78 828.92 1026.75C828.83 1026.82 828.73 1026.89 828.62 1026.94C828.67 1026.91 828.73 1026.88 828.78 1026.85C828.69 1026.9 828.6 1026.94 828.51 1026.97C828.57 1026.95 828.64 1026.93 828.7 1026.9C828.61 1026.93 828.51 1026.96 828.41 1026.98C828.48 1026.97 828.54 1026.96 828.61 1026.94C828.55 1026.95 828.49 1026.96 828.43 1026.97C828.25 1026.99 828.04 1027.06 827.88 1027.16C827.78 1027.22 827.62 1027.36 827.61 1027.49C827.57 1027.83 828.01 1027.87 828.25 1027.85Z" fill="#989798"/>
<path d="M828.35 1026.12C828.07 1026.21 828.32 1026.13 828.39 1026.11C828.42 1026.1 828.55 1026.07 828.4 1026.11C828.25 1026.14 828.38 1026.12 828.41 1026.11C828.46 1026.1 828.56 1026.07 828.62 1026.08C828.58 1026.08 828.54 1026.09 828.5 1026.09C828.52 1026.09 828.54 1026.09 828.56 1026.08C828.59 1026.08 828.62 1026.07 828.66 1026.07C828.72 1026.07 828.79 1026.06 828.85 1026.06C828.97 1026.06 828.7 1026.06 828.82 1026.06C828.85 1026.06 828.88 1026.06 828.92 1026.06C828.98 1026.06 829.05 1026.07 829.11 1026.07C829.15 1026.07 829.18 1026.08 829.22 1026.08C829.25 1026.08 829.38 1026.1 829.24 1026.08C829.58 1026.13 829.95 1026.06 830.25 1025.9C830.34 1025.85 830.51 1025.77 830.54 1025.66C830.56 1025.57 830.51 1025.5 830.42 1025.49C830.03 1025.43 829.64 1025.4 829.24 1025.43C828.76 1025.47 828.29 1025.57 827.83 1025.72C827.7 1025.76 827.52 1025.85 827.43 1025.95C827.38 1026.01 827.32 1026.1 827.41 1026.16C827.51 1026.23 827.67 1026.23 827.78 1026.22C827.98 1026.23 828.16 1026.18 828.35 1026.12Z" fill="#989798"/>
<path d="M830.32 1026.25C830.44 1027.08 830.6 1027.9 830.78 1028.72C830.85 1029.04 831.28 1029.11 831.55 1029.07C831.82 1029.02 832.25 1028.81 832.24 1028.48C832.23 1027.59 832.13 1026.71 831.93 1025.85C831.89 1025.99 831.85 1026.14 831.82 1026.28C831.87 1026.21 831.78 1026.32 831.76 1026.33C831.65 1026.41 831.49 1026.48 831.36 1026.48C831.35 1026.48 831.17 1026.47 831.27 1026.48C831.25 1026.48 831.11 1026.45 831.2 1026.47C831.28 1026.49 831.18 1026.47 831.16 1026.45C831.18 1026.47 831.22 1026.49 831.24 1026.5C831.26 1026.52 831.28 1026.53 831.3 1026.55C831.31 1026.56 831.39 1026.62 831.32 1026.56C831.26 1026.51 831.32 1026.56 831.33 1026.58C831.35 1026.6 831.37 1026.62 831.38 1026.65C831.43 1026.71 831.47 1026.77 831.52 1026.83C831.62 1026.96 831.72 1027.08 831.81 1027.21C832.19 1027.7 832.57 1028.19 832.95 1028.68C833.3 1029.13 834.28 1028.89 834.35 1028.31C834.45 1027.37 834.45 1026.44 834.36 1025.5C834.35 1025.36 834.16 1025.23 834.05 1025.19C833.89 1025.13 833.66 1025.12 833.5 1025.17C833.33 1025.22 833.14 1025.31 833.03 1025.46C832.93 1025.6 832.9 1025.72 832.92 1025.89C832.93 1025.95 832.93 1026 832.93 1026.06C832.92 1025.96 832.93 1026.13 832.93 1026.14C832.94 1026.25 832.94 1026.36 832.95 1026.47C832.96 1026.68 832.96 1026.9 832.96 1027.11C832.96 1027.55 832.93 1027.98 832.88 1028.41C833.35 1028.29 833.81 1028.16 834.28 1028.04C833.99 1027.66 833.69 1027.28 833.4 1026.9C833.12 1026.54 832.86 1026.14 832.54 1025.82C832.13 1025.41 831.51 1025.23 830.97 1025.51C830.83 1025.58 830.69 1025.69 830.59 1025.82C830.49 1025.95 830.45 1026.09 830.48 1026.25C830.49 1026.31 830.51 1026.37 830.52 1026.44C830.57 1026.66 830.61 1026.89 830.65 1027.11C830.67 1027.24 830.69 1027.38 830.71 1027.52C830.72 1027.58 830.72 1027.65 830.73 1027.71C830.73 1027.74 830.74 1027.76 830.74 1027.79C830.74 1027.8 830.75 1027.91 830.75 1027.85C830.75 1027.79 830.75 1027.88 830.75 1027.89C830.75 1027.93 830.75 1027.96 830.76 1028C830.76 1028.06 830.77 1028.13 830.77 1028.19C830.78 1028.33 830.78 1028.46 830.78 1028.6C831.27 1028.52 831.75 1028.44 832.24 1028.36C832.06 1027.54 831.9 1026.72 831.78 1025.89C831.76 1025.75 831.59 1025.62 831.47 1025.58C831.31 1025.52 831.08 1025.51 830.92 1025.56C830.57 1025.63 830.26 1025.88 830.32 1026.25Z" fill="#989798"/>
<path d="M837.76 1025.37C837.23 1025.02 836.52 1025.12 835.96 1025.34C835.49 1025.52 835 1025.85 834.82 1026.34C834.49 1027.27 835.19 1028.4 836.14 1028.58C836.58 1028.66 837.08 1028.55 837.48 1028.38C837.82 1028.23 838.12 1028.04 838.41 1027.81C838.48 1027.76 838.6 1027.66 838.57 1027.55C838.54 1027.45 838.39 1027.41 838.3 1027.41C837.97 1027.38 837.54 1027.47 837.28 1027.68C837.2 1027.74 837.13 1027.8 837.05 1027.85C837.01 1027.88 836.98 1027.9 836.94 1027.93C836.9 1027.95 836.92 1027.95 836.98 1027.91C836.96 1027.92 836.94 1027.93 836.92 1027.94C836.88 1027.96 836.72 1028.03 836.91 1027.95C836.78 1028 837.08 1027.92 836.94 1027.94C836.98 1027.93 837.02 1027.92 837.05 1027.92C836.98 1027.93 836.99 1027.93 837.11 1027.92C836.99 1027.93 837.23 1027.92 837.1 1027.92C837.2 1027.92 837.11 1027.92 837.07 1027.91C837.03 1027.9 836.99 1027.88 836.96 1027.86C837.01 1027.89 836.91 1027.82 836.91 1027.82C836.88 1027.8 836.84 1027.77 836.81 1027.74C836.67 1027.63 836.56 1027.5 836.46 1027.35C836.48 1027.37 836.49 1027.4 836.51 1027.42C836.3 1027.11 836.18 1026.75 836.2 1026.38C836.2 1026.41 836.2 1026.43 836.19 1026.46C836.2 1026.28 836.25 1026.12 836.33 1025.96C836.35 1025.92 836.35 1025.92 836.33 1025.96C836.34 1025.94 836.36 1025.92 836.37 1025.91C836.39 1025.88 836.41 1025.86 836.44 1025.83C836.46 1025.81 836.47 1025.8 836.49 1025.78C836.44 1025.83 836.43 1025.84 836.45 1025.81C836.48 1025.79 836.52 1025.76 836.54 1025.74C836.45 1025.79 836.44 1025.8 836.49 1025.77C836.5 1025.76 836.51 1025.76 836.52 1025.75C836.62 1025.69 836.34 1025.83 836.51 1025.76C836.32 1025.85 836.37 1025.81 836.45 1025.78C836.31 1025.81 836.27 1025.82 836.35 1025.8C836.22 1025.81 836.19 1025.81 836.27 1025.81C836.39 1025.81 836.12 1025.79 836.24 1025.81C836.38 1025.83 836.19 1025.78 836.27 1025.81C836.3 1025.82 836.33 1025.83 836.36 1025.84C836.4 1025.86 836.4 1025.86 836.36 1025.83C836.38 1025.84 836.4 1025.85 836.42 1025.86C836.68 1026.03 837.1 1025.93 837.36 1025.82C837.44 1025.82 838.01 1025.53 837.76 1025.37Z" fill="#989798"/>
<path d="M838.39 1025.26C838.47 1026.56 838.67 1027.85 839 1029.11C839.07 1029.37 839.64 1029.25 839.8 1029.2C839.96 1029.15 840.52 1028.98 840.45 1028.72C840.13 1027.46 839.92 1026.17 839.84 1024.87C839.83 1024.77 839.63 1024.73 839.57 1024.73C839.4 1024.71 839.2 1024.74 839.04 1024.78C838.83 1024.84 838.37 1024.97 838.39 1025.26Z" fill="#989798"/>
<path d="M839.9 1026.37C840.28 1027.38 840.55 1028.44 840.68 1029.51C841.16 1029.38 841.65 1029.25 842.13 1029.12C842 1028.54 841.93 1027.94 841.95 1027.35C841.96 1027.07 841.98 1026.8 842.03 1026.52C842.05 1026.39 842.07 1026.26 842.11 1026.13C842.12 1026.08 842.14 1026.04 842.16 1025.99C842.15 1026.02 842.16 1026.01 842.18 1025.97C842.09 1026.07 841.96 1026.11 841.8 1026.09C841.67 1026.19 841.54 1026.22 841.41 1026.17C841.44 1026.18 841.47 1026.2 841.5 1026.21C841.47 1026.19 841.6 1026.29 841.58 1026.28C841.68 1026.37 841.76 1026.47 841.84 1026.57C841.99 1026.78 842.14 1026.99 842.27 1027.21C842.56 1027.69 842.79 1028.19 842.98 1028.72C843.08 1029 843.58 1028.91 843.79 1028.85C843.96 1028.8 844.14 1028.73 844.28 1028.62C844.35 1028.56 844.47 1028.44 844.43 1028.33C844.25 1027.84 844.03 1027.36 843.76 1026.9C843.62 1026.67 843.48 1026.44 843.33 1026.22C843.19 1026.02 843.04 1025.8 842.84 1025.66C842.55 1025.45 842.23 1025.4 841.87 1025.44C841.48 1025.49 841 1025.67 840.79 1026.02C840.66 1026.23 840.61 1026.46 840.58 1026.71C840.54 1026.99 840.51 1027.28 840.5 1027.57C840.48 1028.22 840.54 1028.87 840.68 1029.5C840.71 1029.61 840.86 1029.66 840.95 1029.67C841.12 1029.7 841.33 1029.68 841.49 1029.63C841.71 1029.57 842.17 1029.41 842.13 1029.11C841.99 1028.04 841.73 1026.98 841.35 1025.97C841.25 1025.69 840.75 1025.78 840.54 1025.84C840.37 1025.89 840.19 1025.96 840.05 1026.07C839.98 1026.14 839.86 1026.26 839.9 1026.37Z" fill="#989798"/>
<path d="M842.57 1029.2C843.11 1028.83 843.65 1028.46 844.19 1028.09C844.31 1028.01 844.43 1027.86 844.45 1027.72C844.47 1027.58 844.39 1027.44 844.28 1027.37C843.96 1027.18 843.53 1027.27 843.24 1027.46C842.7 1027.83 842.16 1028.2 841.62 1028.57C841.5 1028.65 841.38 1028.8 841.36 1028.94C841.34 1029.08 841.42 1029.22 841.53 1029.29C841.85 1029.49 842.28 1029.4 842.57 1029.2Z" fill="#989798"/>
<path d="M847.5 1025.54C846.87 1025.34 846.12 1025.55 845.59 1025.93C845.2 1026.21 844.99 1026.62 844.97 1027.1C844.96 1027.55 845.13 1027.99 845.39 1028.36C845.67 1028.76 846.09 1028.96 846.57 1028.95C846.95 1028.95 847.36 1028.84 847.69 1028.65C847.93 1028.52 848.17 1028.32 848.24 1028.05C848.32 1027.76 847.79 1027.8 847.64 1027.83C847.45 1027.86 847.26 1027.91 847.09 1028.01C846.99 1028.07 846.84 1028.15 846.8 1028.27C846.79 1028.31 846.77 1028.34 846.76 1028.38C846.75 1028.41 846.75 1028.4 846.77 1028.36C846.76 1028.38 846.74 1028.39 846.73 1028.41C846.79 1028.36 846.8 1028.35 846.77 1028.38C846.76 1028.39 846.74 1028.4 846.73 1028.41C846.82 1028.36 846.83 1028.35 846.78 1028.38C846.81 1028.36 846.85 1028.35 846.88 1028.33C847.02 1028.29 847.05 1028.28 846.97 1028.3C847.05 1028.28 847.13 1028.26 847.21 1028.26C847.1 1028.26 847.34 1028.3 847.23 1028.26C847.12 1028.23 847.33 1028.31 847.23 1028.26C847.19 1028.24 847.16 1028.23 847.12 1028.22C847.18 1028.25 847.06 1028.18 847.04 1028.17C847.01 1028.15 846.98 1028.12 846.95 1028.09C846.89 1028.03 846.84 1027.97 846.79 1027.91C846.69 1027.78 846.61 1027.6 846.55 1027.44C846.42 1027.08 846.36 1026.67 846.54 1026.31C846.55 1026.29 846.56 1026.28 846.57 1026.26C846.55 1026.29 846.55 1026.29 846.58 1026.25C846.6 1026.22 846.63 1026.19 846.65 1026.16C846.67 1026.14 846.68 1026.12 846.7 1026.1C846.69 1026.11 846.67 1026.13 846.66 1026.14C846.67 1026.12 846.81 1026.03 846.72 1026.09C846.67 1026.12 846.67 1026.12 846.72 1026.09C846.79 1026.06 846.76 1026.07 846.66 1026.12C846.62 1026.13 846.58 1026.15 846.54 1026.16C846.62 1026.14 846.59 1026.14 846.45 1026.18C846.57 1026.16 846.32 1026.2 846.29 1026.18C846.31 1026.18 846.34 1026.18 846.36 1026.19C846.29 1026.17 846.28 1026.17 846.34 1026.19C846.66 1026.29 847.07 1026.19 847.36 1026.03C847.46 1025.97 847.61 1025.89 847.65 1025.77C847.67 1025.65 847.6 1025.57 847.5 1025.54Z" fill="#989798"/>
<path d="M848.44 1026.99C848.59 1027.62 848.67 1028.27 848.68 1028.92C849.16 1028.79 849.65 1028.66 850.13 1028.53C849.95 1028.04 849.82 1027.53 849.76 1027.01C849.73 1026.76 849.72 1026.51 849.71 1026.26C849.71 1026.13 849.71 1026.01 849.72 1025.88C849.72 1025.83 849.73 1025.78 849.73 1025.73C849.77 1025.49 849.87 1025.67 849.48 1025.8C849.35 1025.83 849.22 1025.87 849.09 1025.9C849.1 1025.9 849.12 1025.9 849.13 1025.89C849.02 1025.89 848.9 1025.9 848.79 1025.9C848.85 1025.9 848.85 1025.9 848.8 1025.9C848.85 1025.92 848.86 1025.92 848.84 1025.92C848.89 1025.96 848.95 1026 849 1026.04C849.09 1026.12 849.19 1026.19 849.28 1026.28C849.47 1026.45 849.65 1026.64 849.82 1026.84C850.15 1027.23 850.42 1027.65 850.65 1028.11C850.77 1028.36 851.24 1028.27 851.45 1028.21C851.62 1028.16 851.8 1028.1 851.94 1027.99C852 1027.94 852.14 1027.83 852.1 1027.73C851.7 1026.91 851.13 1026.16 850.43 1025.58C850.22 1025.41 850.01 1025.27 849.73 1025.24C849.45 1025.21 849.15 1025.27 848.9 1025.37C848.69 1025.46 848.46 1025.58 848.35 1025.8C848.24 1026 848.27 1026.27 848.26 1026.49C848.25 1026.74 848.26 1026.99 848.29 1027.24C848.34 1027.82 848.47 1028.38 848.67 1028.93C848.77 1029.19 849.28 1029.08 849.47 1029.03C849.69 1028.97 850.12 1028.83 850.12 1028.55C850.1 1027.9 850.02 1027.26 849.88 1026.62C849.86 1026.52 849.69 1026.48 849.61 1026.47C849.44 1026.45 849.24 1026.48 849.07 1026.52C848.9 1026.57 848.72 1026.63 848.58 1026.74C848.52 1026.79 848.41 1026.88 848.44 1026.99Z" fill="#989798"/>
<path d="M849.35 1028.23C850.12 1028.05 850.9 1027.69 851.48 1027.14C851.53 1027.09 851.59 1027.02 851.51 1026.96C851.43 1026.9 851.23 1026.92 851.14 1026.93C850.95 1026.95 850.76 1026.99 850.58 1027.06C850.44 1027.11 850.28 1027.17 850.17 1027.27C850.07 1027.36 849.97 1027.45 849.86 1027.53C849.85 1027.54 849.83 1027.56 849.82 1027.56C849.83 1027.56 849.92 1027.49 849.86 1027.53C849.83 1027.55 849.8 1027.57 849.77 1027.59C849.71 1027.63 849.65 1027.67 849.58 1027.7C849.48 1027.76 849.71 1027.64 849.61 1027.69C849.58 1027.71 849.55 1027.72 849.52 1027.73C849.49 1027.74 849.46 1027.76 849.43 1027.77C849.4 1027.78 849.34 1027.81 849.45 1027.76C849.57 1027.71 849.5 1027.74 849.47 1027.75C849.44 1027.76 849.41 1027.77 849.37 1027.78C849.35 1027.79 849.34 1027.79 849.32 1027.8C849.24 1027.83 849.52 1027.74 849.44 1027.76C849.37 1027.78 849.3 1027.8 849.23 1027.81C849.07 1027.85 848.88 1027.92 848.73 1028.01C848.7 1028.03 848.52 1028.14 848.56 1028.21C848.6 1028.3 848.74 1028.3 848.81 1028.3C849 1028.31 849.17 1028.27 849.35 1028.23Z" fill="#989798"/>
<path d="M848.58 1028.31C848.63 1028.19 848.67 1028.09 848.68 1027.96C848.69 1027.85 848.68 1027.73 848.66 1027.62C848.62 1027.43 848.52 1027.24 848.4 1027.09C848.08 1026.68 847.53 1026.51 847.02 1026.57C846.83 1026.59 846.63 1026.65 846.47 1026.76C846.37 1026.83 846.22 1026.96 846.2 1027.1C846.17 1027.44 846.59 1027.51 846.84 1027.48C846.87 1027.48 846.89 1027.47 846.92 1027.47C846.86 1027.47 846.8 1027.47 846.74 1027.47C846.79 1027.47 846.83 1027.47 846.88 1027.48C846.83 1027.47 846.77 1027.46 846.72 1027.45C846.78 1027.46 846.83 1027.48 846.89 1027.5C846.84 1027.48 846.8 1027.46 846.75 1027.45C846.84 1027.49 846.92 1027.53 846.99 1027.59C846.96 1027.56 846.92 1027.54 846.89 1027.51C847 1027.6 847.09 1027.71 847.16 1027.84C847.14 1027.81 847.12 1027.77 847.1 1027.74C847.17 1027.87 847.21 1028 847.21 1028.15C847.21 1028.11 847.21 1028.07 847.21 1028.03C847.21 1028.13 847.2 1028.23 847.16 1028.32C847.18 1028.28 847.19 1028.24 847.21 1028.2C847.21 1028.21 847.21 1028.21 847.2 1028.22C847.16 1028.28 847.15 1028.33 847.16 1028.4C847.15 1028.46 847.17 1028.52 847.22 1028.56C847.31 1028.67 847.49 1028.72 847.62 1028.72C847.81 1028.73 848.02 1028.7 848.19 1028.61C848.24 1028.58 848.3 1028.55 848.35 1028.52C848.45 1028.48 848.52 1028.4 848.58 1028.31Z" fill="#989798"/>
<path d="M827.16 1034.79C827.31 1035.46 827.51 1036.11 827.79 1036.74C828.02 1037.27 828.3 1037.77 828.92 1037.88C830.05 1038.08 831.31 1037.32 831.65 1036.23C831.84 1035.62 831.82 1034.97 832 1034.36C832.03 1034.25 832.07 1034.14 832.14 1034.05C832.25 1033.88 832.39 1033.89 831.91 1034.03C831.49 1034.16 831.53 1034.07 831.72 1034.23C831.91 1034.4 832.07 1034.61 832.18 1034.85C832.41 1035.31 832.52 1035.82 832.66 1036.32C832.79 1036.77 832.92 1037.33 833.24 1037.69C833.73 1038.24 834.83 1037.94 835.21 1037.39C835.63 1036.79 835.76 1036 835.77 1035.28C835.77 1034.92 834.33 1035.16 834.32 1035.67C834.32 1036 834.27 1036.33 834.18 1036.65C834.14 1036.79 834.09 1036.93 834.04 1037.07C834.02 1037.12 833.89 1037.43 833.9 1037.42C834.08 1037.36 834.27 1037.3 834.45 1037.24C834.68 1037.28 834.74 1037.24 834.6 1037.14C834.55 1037.09 834.52 1037.03 834.49 1036.96C834.43 1036.84 834.38 1036.72 834.33 1036.6C834.25 1036.38 834.18 1036.15 834.12 1035.93C833.99 1035.45 833.88 1034.96 833.66 1034.51C833.45 1034.07 833.12 1033.59 832.64 1033.44C832.03 1033.25 831.18 1033.55 830.82 1034.08C830.48 1034.56 830.46 1035.17 830.38 1035.73C830.33 1036.03 830.28 1036.33 830.17 1036.62C830.12 1036.74 830.07 1036.85 829.98 1036.96C829.93 1037.03 829.81 1037.1 829.77 1037.17C829.73 1037.24 829.7 1037.19 829.73 1037.21C829.78 1037.19 829.83 1037.18 829.89 1037.19C829.84 1037.18 829.79 1037.15 829.75 1037.12C829.49 1036.96 829.37 1036.62 829.25 1036.36C828.98 1035.73 828.77 1035.08 828.62 1034.41C828.52 1033.98 827.06 1034.34 827.16 1034.79Z" fill="#989798"/>
<path d="M835.01 1034.15C835.69 1035.04 836.38 1035.94 837.06 1036.83C837.19 1036.99 837.46 1037.01 837.65 1036.99C837.88 1036.97 838.17 1036.87 838.33 1036.69C838.66 1036.31 838.94 1035.89 839.15 1035.44C838.73 1035.55 838.32 1035.66 837.9 1035.78C838.02 1035.86 838.15 1035.99 838.25 1036.16C838.27 1036.19 838.31 1036.29 838.34 1036.36C838.37 1036.46 838.39 1036.56 838.41 1036.67C838.43 1036.8 838.6 1036.88 838.7 1036.91C838.87 1036.96 839.08 1036.95 839.25 1036.9C839.53 1036.82 839.9 1036.63 839.86 1036.28C839.79 1035.75 839.48 1035.31 839.04 1035.02C838.71 1034.8 837.96 1034.98 837.79 1035.36C837.7 1035.56 837.6 1035.75 837.48 1035.93C837.43 1036.01 837.37 1036.09 837.32 1036.17C837.32 1036.17 837.21 1036.31 837.27 1036.24C837.23 1036.29 837.19 1036.33 837.16 1036.38C837.58 1036.33 838 1036.29 838.42 1036.24C837.74 1035.35 837.05 1034.45 836.37 1033.56C836.17 1033.3 835.65 1033.38 835.4 1033.5C835.15 1033.6 834.8 1033.87 835.01 1034.15Z" fill="#989798"/>
<path d="M785.5 968.55C785.97 967.12 786.43 965.69 786.9 964.27C787.34 962.96 787.79 962.74 788.95 962.09C790.34 961.32 791.73 960.55 793.13 959.77C793.77 959.41 794.42 959.06 795.06 958.7C795.38 958.52 795.7 958.34 796.02 958.17C796.23 958.05 796.45 957.93 796.66 957.81C796.43 957.93 796.17 958 795.9 958.03C795.44 958 794.97 957.98 794.51 957.95C795.68 958.16 796.94 959.84 797.5 960.91C798.24 962.33 798.53 963.96 798.3 965.54C797.93 968.05 803.8 967.11 804.12 964.92C804.51 962.27 803.79 959.59 802.15 957.47C801.36 956.44 800.26 955.47 799.09 954.91C796.91 953.85 794.76 954.79 792.82 955.86C789.95 957.45 786.93 958.91 784.17 960.68C782.64 961.66 781.76 962.92 781.18 964.61C780.66 966.13 780.18 967.66 779.68 969.18C779.25 970.48 781.47 970.76 782.24 970.66C783.53 970.48 785.06 969.89 785.5 968.55Z" fill="#EEF0EC"/>
<path d="M779.25 969.75C780.63 975.8 781.44 981.97 781.62 988.18C781.71 991.2 781.57 994.2 781.55 997.22C781.54 999.87 781.52 1002.82 782.53 1005.32C783.53 1007.79 785.5 1008.91 788.14 1008.72C789.81 1008.6 791.43 1008.02 792.89 1007.22C793.97 1006.62 794.96 1005.88 796.09 1005.38C798.59 1004.26 801.2 1003.41 803.17 1001.4C804.91 999.62 805.86 997.18 806.1 994.73C806.41 991.57 805.8 988.33 805.04 985.27C804.41 982.73 803.23 980.73 800.55 980.13C799.49 979.89 796.06 980.52 795.85 981.95C795.53 984.05 795.52 986.14 795.84 988.24C796.08 989.8 801.92 988.51 801.64 986.69C801.35 984.81 801.33 982.96 801.61 981.08C800.04 981.68 798.47 982.29 796.91 982.9C798.34 983.22 798.97 985.67 799.26 986.84C799.87 989.28 800.38 991.85 800.4 994.37C800.42 996.48 799.96 998.79 798.73 1000.55C797.53 1002.25 795.79 1002.77 793.96 1003.55C792.94 1003.98 791.95 1004.45 791.01 1005.03C790.54 1005.32 790.09 1005.62 789.62 1005.9C789.56 1005.93 789.09 1006.14 789.09 1006.19C789.33 1006.08 789.57 1006.02 789.83 1006.02C790.34 1006.02 790.38 1005.97 789.94 1005.86C789.34 1005.27 788.83 1004.9 788.47 1004.1C788.03 1003.13 787.81 1002.1 787.66 1001.05C786.92 995.98 787.59 990.78 787.39 985.68C787.16 979.8 786.36 973.96 785.05 968.22C784.67 966.57 778.86 968.02 779.25 969.75Z" fill="#EEF0EC"/>
<path d="M827.18 946.7C826.91 946.71 826.65 946.72 826.38 946.72C825.79 947.5 825.2 948.29 824.62 949.07C826.59 948.67 828.57 948.28 830.54 947.88C831.48 947.69 832.42 947.51 833.36 947.32C834.08 947.18 832.79 947.45 833.5 947.3C834.03 947.19 833.24 947.27 833.73 947.29C834.12 947.3 833.71 947.26 834.06 947.34C834.26 947.43 834.32 947.44 834.24 947.37C834.26 947.29 834.26 947.32 834.24 947.47C834.33 947.27 834.42 947.08 834.51 946.88C834.48 946.91 834.45 946.95 834.42 946.98C835.71 946.51 837 946.04 838.29 945.57C838.25 945.57 838.21 945.57 838.17 945.57C837.44 945.59 836.59 945.82 835.91 946.07C835.39 946.26 834.69 946.56 834.3 946.97C833.38 947.93 835.12 948.02 835.69 948C836.62 947.98 837.55 947.71 838.4 947.35C838.91 947.13 839.78 946.76 840 946.18C840.26 945.48 839.42 945.18 838.91 945.04C837.3 944.58 835.49 944.83 833.88 945.14C831.14 945.67 828.41 946.24 825.67 946.79C824.93 946.94 824.14 947.13 823.46 947.48C823.09 947.67 822.62 947.89 822.4 948.26C821.84 949.17 823.37 949.16 823.91 949.14C824.18 949.13 824.44 949.12 824.71 949.12C825.45 949.1 826.28 948.87 826.97 948.62C827.49 948.43 828.19 948.13 828.58 947.72C829.48 946.77 827.75 946.68 827.18 946.7Z" fill="#EEF0EC"/>
<path d="M827.84 949.41C819.63 963.21 820.49 980.04 814.06 994.5C812.76 997.42 818.59 997.22 819.57 995.03C826 980.58 825.17 963.69 833.35 949.94C834.08 948.71 832.71 947.8 831.63 947.69C830.22 947.54 828.58 948.17 827.84 949.41Z" fill="#EEF0EC"/>
<path d="M816.3 997.79C816.47 997.68 816.64 997.57 816.8 997.45C817.05 997.29 816.97 997.34 816.55 997.6C816.64 997.55 816.72 997.5 816.81 997.45C817.12 997.27 817.43 997.11 817.74 996.95C818.05 996.79 818.38 996.65 818.7 996.51C818.89 996.43 819.08 996.36 819.26 996.29C818.33 996.68 818.92 996.42 819.15 996.34C819.84 996.11 820.55 995.92 821.27 995.78C821.37 995.76 821.47 995.74 821.57 995.72C821.03 995.81 820.91 995.83 821.23 995.78C821.38 995.76 821.53 995.74 821.68 995.72C822.08 995.67 822.48 995.64 822.89 995.62C823.63 995.58 824.48 995.27 825.07 994.82C825.51 994.48 826.05 993.85 826.07 993.24C826.13 991.76 824.62 991.2 823.37 991.27C819.44 991.48 815.66 992.83 812.43 995.05C811.43 995.74 810.97 997.36 812.14 998.12C813.42 998.96 815.11 998.61 816.3 997.79Z" fill="#EEF0EC"/>
<path d="M823.44 983.91C824.49 983.58 825.55 983.28 826.62 983.01C827.2 982.86 827.77 982.72 828.35 982.59C828.6 982.53 828.85 982.48 829.1 982.42C829.27 982.38 829.43 982.35 829.6 982.31C829.27 982.38 829.22 982.39 829.44 982.34C831.65 981.92 833.87 981.59 836.11 981.38C837.14 981.28 839.14 980.67 839.42 979.49C839.72 978.23 837.61 978.33 836.96 978.39C832.14 978.84 827.35 979.8 822.72 981.23C821.95 981.47 819.87 982.17 820.18 983.34C820.48 984.48 822.73 984.13 823.44 983.91Z" fill="#EEF0EC"/>
<path d="M828.9 951.23C832.7 965.91 836.3 980.63 839.72 995.4C840.25 997.7 846.06 996.21 845.52 993.85C842.11 979.08 838.5 964.35 834.7 949.68C834.1 947.37 828.3 948.9 828.9 951.23Z" fill="#EEF0EC"/>
<path d="M834.9 995.64C835.31 995.61 835.72 995.58 836.13 995.56C836.22 995.56 836.32 995.55 836.41 995.55C836.72 995.54 836.66 995.54 836.24 995.55C836.36 995.49 836.68 995.54 836.81 995.54C837.6 995.54 838.38 995.57 839.17 995.63C839.58 995.66 839.99 995.7 840.39 995.75C840.58 995.77 840.77 995.79 840.95 995.82C841.01 995.83 841.07 995.84 841.14 995.85C841.42 995.89 841.39 995.89 841.05 995.84C841.05 995.82 843.27 996.27 843.46 996.32C844.16 996.49 844.94 996.43 845.64 996.25C846.28 996.08 847.1 995.73 847.56 995.22C847.88 994.87 848.28 994.36 848.1 993.84C847.92 993.33 847.45 993.04 846.94 992.92C843.22 992.04 839.41 991.78 835.6 992.11C834.87 992.17 834.02 992.46 833.41 992.87C833.01 993.13 832.39 993.67 832.34 994.2C832.2 995.54 833.93 995.72 834.9 995.64Z" fill="#EEF0EC"/>
<path d="M852.39 950.92C854.84 952.51 857.28 954.11 859.73 955.7C860.14 955.97 860.76 955.97 861.22 955.94C861.96 955.9 862.79 955.72 863.48 955.44C864.02 955.22 864.7 954.98 865.09 954.51C865.28 954.28 865.54 953.9 865.17 953.66C862.72 952.07 860.28 950.47 857.83 948.88C857.42 948.61 856.8 948.61 856.34 948.64C855.6 948.68 854.77 948.86 854.08 949.14C853.54 949.36 852.86 949.6 852.47 950.07C852.28 950.3 852.02 950.68 852.39 950.92Z" fill="#EEF0EC"/>
<path d="M855.13 952.57C855.9 963.19 861.45 972.73 862.47 983.3C862.66 985.26 868.48 984 868.27 981.75C867.25 971.18 861.7 961.64 860.93 951.02C860.84 949.78 858.33 950.11 857.63 950.3C856.58 950.58 855.04 951.28 855.13 952.57Z" fill="#EEF0EC"/>
<path d="M870.24 961.29C872.62 963.3 875.01 965.31 877.39 967.33C877.88 967.75 878.77 967.86 879.38 967.82C880.1 967.77 881 967.49 881.56 967.01C882.03 966.61 882.53 966.06 882.56 965.41C882.58 964.77 882.33 964.3 881.84 963.88C879.46 961.87 877.07 959.86 874.69 957.84C874.2 957.42 873.31 957.31 872.7 957.35C871.98 957.4 871.08 957.68 870.52 958.16C870.05 958.56 869.55 959.11 869.52 959.76C869.49 960.4 869.75 960.87 870.24 961.29Z" fill="#EEF0EC"/>
<path d="M873.73 962.26C871.21 968.83 868.57 975.27 864.26 980.9C863.44 981.97 863.72 983.28 865.03 983.77C866.33 984.26 868.26 983.8 869.13 982.67C871.42 979.67 873.43 976.46 875.08 973.07C876.68 969.79 877.98 966.37 879.29 962.97C880.49 959.83 874.68 959.79 873.73 962.26Z" fill="#EEF0EC"/>
<path d="M863.38 981.27C862.7 988.1 862.17 994.94 861.8 1001.79C861.64 1004.68 867.52 1003.78 867.66 1001.29C868.03 994.44 868.56 987.6 869.24 980.77C869.52 977.92 863.63 978.78 863.38 981.27Z" fill="#EEF0EC"/>
<path d="M857.8 999.39C861.56 1001.75 865.32 1004.11 869.08 1006.47C870.13 1007.13 871.78 1006.74 872.85 1006.3C873.2 1006.16 875.51 1005 874.5 1004.38C870.74 1002.02 866.98 999.66 863.22 997.3C862.17 996.64 860.52 997.03 859.45 997.47C859.1 997.61 856.8 998.76 857.8 999.39Z" fill="#EEF0EC"/>
<path d="M811.83 1008.89C812.23 1012.37 812.5 1015.86 812.61 1019.36C812.63 1019.88 813.13 1020.04 813.59 1020C813.96 1019.97 814.82 1019.67 814.8 1019.17C814.68 1015.54 814.41 1011.92 814 1008.32C813.89 1007.4 811.71 1007.91 811.83 1008.89Z" fill="#EEF0EC"/>
<path d="M812.99 1009.36C813.12 1009.33 813.11 1009.33 812.96 1009.36C813.02 1009.35 813.08 1009.34 813.14 1009.33C813.26 1009.31 813.38 1009.3 813.5 1009.29C813.54 1009.29 813.93 1009.27 813.68 1009.27C813.8 1009.27 813.92 1009.27 814.04 1009.27C814.16 1009.27 814.28 1009.28 814.4 1009.29C814.43 1009.29 814.79 1009.33 814.61 1009.31C814.82 1009.34 815.03 1009.38 815.23 1009.43C815.9 1009.59 816.67 1009.85 816.59 1010.68C816.58 1010.77 816.57 1010.85 816.55 1010.94C816.54 1010.97 816.46 1011.21 816.5 1011.12C816.46 1011.21 816.41 1011.3 816.35 1011.38C816.32 1011.42 816.29 1011.46 816.26 1011.5C816.31 1011.44 816.31 1011.44 816.24 1011.52C816.17 1011.59 816.09 1011.67 816.01 1011.74C815.93 1011.81 815.93 1011.81 816.02 1011.74C815.98 1011.77 815.93 1011.8 815.89 1011.83C815.72 1011.94 815.55 1012.04 815.38 1012.14C815.31 1012.18 815.33 1012.17 815.45 1012.11C815.4 1012.13 815.36 1012.16 815.31 1012.18C815.21 1012.23 815.11 1012.28 815.02 1012.33C814.76 1012.46 814.51 1012.59 814.26 1012.73C813.83 1012.97 813.41 1013.26 813.07 1013.61C812.95 1013.73 812.81 1013.92 812.86 1014.11C812.91 1014.29 813.12 1014.4 813.29 1014.44C813.79 1014.55 814.46 1014.4 814.83 1014.03C814.9 1013.96 814.97 1013.9 815.04 1013.83C815.07 1013.8 815.1 1013.78 815.14 1013.75C815.11 1013.77 814.99 1013.85 815.14 1013.75C815.3 1013.64 815.47 1013.54 815.63 1013.45C815.65 1013.44 815.77 1013.37 815.65 1013.44C815.52 1013.51 815.68 1013.42 815.71 1013.41C815.78 1013.37 815.86 1013.34 815.93 1013.3C816.17 1013.18 816.41 1013.06 816.64 1012.93C817.35 1012.55 818.09 1012.05 818.47 1011.32C818.84 1010.63 818.92 1009.74 818.39 1009.1C818.11 1008.77 817.71 1008.57 817.31 1008.43C816.9 1008.28 816.48 1008.16 816.04 1008.09C814.9 1007.9 813.78 1007.95 812.65 1008.18C812.3 1008.25 811.6 1008.6 811.72 1009.06C811.87 1009.54 812.66 1009.43 812.99 1009.36Z" fill="#EEF0EC"/>
<path d="M821.4 1009.88C821.69 1012.65 821.98 1015.42 822.27 1018.19C822.32 1018.65 823.24 1018.52 823.5 1018.45C823.87 1018.35 824.49 1018.08 824.44 1017.61C824.15 1014.84 823.86 1012.07 823.57 1009.3C823.52 1008.84 822.6 1008.97 822.34 1009.04C821.97 1009.14 821.35 1009.4 821.4 1009.88Z" fill="#EEF0EC"/>
<path d="M823.89 1009.55C824.25 1009.08 823.87 1009.66 823.72 1009.46C823.73 1009.47 823.95 1009.49 823.94 1009.49C824.29 1009.55 824.64 1009.69 824.96 1009.82C825.49 1010.04 826.05 1010.38 826.22 1010.97C826.39 1011.55 826.12 1012.21 825.67 1012.59C825.29 1012.91 824.81 1012.96 824.34 1013.05C824.01 1013.11 823.17 1013.27 823.08 1013.68C822.99 1014.09 823.78 1013.98 823.97 1013.96C824.95 1013.83 826.59 1013.8 826.92 1015C827.21 1016.08 826.54 1017.2 826.76 1018.31C826.87 1018.84 829.05 1018.33 828.93 1017.73C828.68 1016.48 829.65 1015.01 828.82 1013.88C828.41 1013.33 827.73 1013.13 827.09 1013.03C826.18 1012.89 825.26 1012.94 824.35 1013.06C824.22 1013.36 824.1 1013.67 823.97 1013.97C825.19 1013.73 826.5 1013.45 827.48 1012.64C828.21 1012.04 828.77 1010.96 828.24 1010.06C827.75 1009.22 826.6 1008.81 825.7 1008.61C824.46 1008.34 822.72 1008.6 821.9 1009.67C821.61 1010.05 822.15 1010.11 822.43 1010.1C822.86 1010.06 823.6 1009.92 823.89 1009.55Z" fill="#EEF0EC"/>
<path d="M831.97 1009.99C832.59 1012.64 832.95 1015.34 833.05 1018.06C833.06 1018.34 835.24 1018.02 835.22 1017.48C835.12 1014.76 834.76 1012.06 834.14 1009.41C834.05 1009.02 831.87 1009.56 831.97 1009.99Z" fill="#EEF0EC"/>
<path d="M837.62 1009.23C838.36 1012.02 838.91 1014.86 839.26 1017.73C839.98 1017.54 840.71 1017.34 841.43 1017.15C841.35 1016.97 841.27 1016.79 841.18 1016.61C840.92 1016.05 838.81 1016.77 839.01 1017.19C839.09 1017.37 839.17 1017.55 839.26 1017.73C839.42 1018.08 840.18 1017.88 840.45 1017.81C840.7 1017.74 841.48 1017.53 841.44 1017.15C841.09 1014.28 840.54 1011.44 839.8 1008.65C839.65 1008.13 837.48 1008.7 837.62 1009.23Z" fill="#EEF0EC"/>
<path d="M839.98 1009.31C839.81 1009.41 839.57 1009.35 839.92 1009.39C840.16 1009.42 840.41 1009.49 840.63 1009.58C841.1 1009.79 841.52 1010.12 841.87 1010.5C842.64 1011.33 843.14 1012.46 843.4 1013.56C843.53 1014.13 843.59 1014.72 843.57 1015.31C843.55 1015.83 843.49 1016.45 843.17 1016.88C843.06 1017.03 842.97 1017.1 842.9 1017.12C842.97 1017.1 842.99 1017.11 842.8 1017.13C842.7 1017.14 842.59 1017.15 842.49 1017.14C841.91 1017.13 841.36 1016.96 840.85 1016.7C840.46 1016.5 839.84 1016.69 839.45 1016.83C839.36 1016.86 838.47 1017.26 838.8 1017.43C840.05 1018.07 841.45 1018.12 842.8 1017.81C843.54 1017.64 844.34 1017.39 844.93 1016.89C845.39 1016.51 845.57 1015.98 845.66 1015.41C845.86 1014.13 845.64 1012.8 845.11 1011.62C844.65 1010.59 843.95 1009.55 842.95 1008.98C841.53 1008.17 839.67 1008.47 838.31 1009.26C838.24 1009.3 838.02 1009.45 838.05 1009.57C838.08 1009.7 838.35 1009.71 838.43 1009.71C838.96 1009.74 839.54 1009.57 839.98 1009.31Z" fill="#EEF0EC"/>
<path d="M847.24 1009.77C847.48 1011.1 847.68 1012.44 847.86 1013.79C847.95 1014.46 848.03 1015.13 848.1 1015.81C848.17 1016.49 848.18 1017.2 848.3 1017.87C848.41 1018.45 848.94 1018.62 849.47 1018.65C850.12 1018.69 850.8 1018.61 851.45 1018.58C852.21 1018.55 853.02 1018.44 853.67 1018C854.02 1017.76 854.36 1017.22 853.89 1016.9C853.53 1016.65 852.85 1016.87 852.48 1017C852.35 1017.05 851.51 1017.42 851.84 1017.65C852.19 1017.89 851.45 1018.1 852.33 1017.78C853.18 1017.47 852.43 1017.64 852.12 1017.66C851.73 1017.68 851.19 1017.8 850.8 1017.71C850.4 1017.61 850.44 1017.05 850.41 1016.73C850.37 1016.22 850.32 1015.72 850.26 1015.21C850.05 1013.19 849.76 1011.17 849.4 1009.17C849.33 1008.7 847.14 1009.19 847.24 1009.77Z" fill="#EEF0EC"/>
<path d="M849.43 1014.48C850.38 1014.25 851.34 1014.02 852.29 1013.79C852.54 1013.73 852.83 1013.59 853.01 1013.41C853.12 1013.3 853.28 1013.09 853.22 1012.92C853.05 1012.46 852.33 1012.55 851.98 1012.63C851.03 1012.86 850.07 1013.09 849.12 1013.32C848.87 1013.38 848.58 1013.52 848.4 1013.7C848.29 1013.81 848.13 1014.02 848.19 1014.19C848.35 1014.65 849.07 1014.57 849.43 1014.48Z" fill="#EEF0EC"/>
<path d="M849.94 1010.54C849.98 1010.51 850.02 1010.48 850.06 1010.45C849.86 1010.62 849.96 1010.52 850.03 1010.48C850.07 1010.46 850.21 1010.39 850.04 1010.47C849.87 1010.56 850.01 1010.49 850.05 1010.47C850.23 1010.39 849.77 1010.55 849.95 1010.5C850.05 1010.47 850.2 1010.47 849.85 1010.51C849.89 1010.51 849.93 1010.5 849.97 1010.49C850.19 1010.46 849.78 1010.49 849.9 1010.49C849.94 1010.49 849.98 1010.49 850.02 1010.49C850.04 1010.49 850.07 1010.49 850.09 1010.49C850.16 1010.49 850.12 1010.49 849.97 1010.48C850.01 1010.5 850.07 1010.49 850.12 1010.5C850.14 1010.5 850.15 1010.51 850.17 1010.51C850.24 1010.53 850.23 1010.53 850.17 1010.51C850.07 1010.44 850.18 1010.51 850.21 1010.53C850.26 1010.55 850.3 1010.57 850.35 1010.59C850.44 1010.63 850.52 1010.68 850.6 1010.73C850.55 1010.7 850.51 1010.67 850.46 1010.64C850.72 1010.82 850.93 1011.04 851.09 1011.31C851.06 1011.27 851.04 1011.23 851.01 1011.18C851.17 1011.46 851.27 1011.77 851.29 1012.1C851.3 1012.27 851.59 1012.36 851.71 1012.38C851.96 1012.43 852.28 1012.39 852.52 1012.32C852.88 1012.21 853.5 1011.98 853.47 1011.52C853.42 1010.64 852.77 1009.81 851.94 1009.51C850.71 1009.06 849.19 1009.39 848.19 1010.22C848.07 1010.32 847.92 1010.5 847.97 1010.67C848.02 1010.84 848.24 1010.92 848.39 1010.95C848.92 1011.03 849.54 1010.87 849.94 1010.54Z" fill="#EEF0EC"/>
<path d="M815.85 1025.56C816.26 1026.92 816.54 1028.32 816.7 1029.73C817.18 1029.6 817.67 1029.47 818.15 1029.34C817.53 1028.27 817.24 1027.04 817.32 1025.81C817.34 1025.52 817.36 1025.21 817.52 1024.96C817.53 1024.95 817.58 1024.89 817.59 1024.86C817.33 1024.92 817.07 1024.99 816.81 1025.05C816.83 1025.06 816.85 1025.07 816.87 1025.08C816.98 1025.17 817.04 1025.26 817.1 1025.39C817.37 1025.99 817.45 1026.67 817.39 1027.33C817.38 1027.46 817.86 1027.39 817.88 1027.38C818.15 1027.34 818.42 1027.26 818.66 1027.13C818.43 1027.14 818.21 1027.2 818.02 1027.31C818.04 1027.31 818.06 1027.32 818.08 1027.32C818.13 1027.34 818.17 1027.36 818.22 1027.38C818.33 1027.44 818.43 1027.51 818.5 1027.61C818.66 1027.82 818.71 1028.11 818.67 1028.37C818.63 1028.64 818.48 1028.91 818.28 1029.09C818.2 1029.16 818.11 1029.23 818.01 1029.28C818.1 1029.24 817.9 1029.32 817.99 1029.29C818.04 1029.28 818.02 1029.28 817.94 1029.3C818.01 1029.28 818 1029.28 817.91 1029.3C817.72 1029.33 817.53 1029.39 817.36 1029.47C817.31 1029.49 817.08 1029.59 817.06 1029.67C817 1029.89 817.55 1029.78 817.63 1029.77C818.64 1029.59 820.11 1029.08 820.14 1027.84C820.15 1027.42 819.9 1027.03 819.51 1026.87C818.9 1026.62 818.11 1026.84 817.56 1027.14C817.98 1027.07 818.41 1027.01 818.83 1026.94C818.86 1026.54 818.85 1026.13 818.76 1025.73C818.69 1025.39 818.59 1024.97 818.35 1024.71C818.04 1024.37 817.48 1024.5 817.09 1024.61C816.67 1024.73 816.19 1024.93 816 1025.36C815.86 1025.69 815.84 1026.08 815.84 1026.43C815.83 1026.81 815.85 1027.19 815.91 1027.57C816.03 1028.33 816.29 1029.05 816.68 1029.72C816.79 1029.91 817.3 1029.76 817.46 1029.72C817.59 1029.68 818.16 1029.55 818.13 1029.34C817.97 1027.93 817.69 1026.53 817.28 1025.17C817.21 1024.89 815.77 1025.29 815.85 1025.56Z" fill="#EEF0EC"/>
<path d="M820.03 1025.61C820.19 1026.81 820.26 1028.02 820.26 1029.23C820.74 1029.1 821.23 1028.97 821.71 1028.84C821.47 1027.47 821.51 1026.08 821.84 1024.73C821.37 1024.85 820.91 1024.98 820.44 1025.1C821.62 1025.72 822.47 1026.81 822.78 1028.1C822.83 1028.33 823.43 1028.18 823.57 1028.14C823.71 1028.1 824.29 1027.94 824.23 1027.71C823.92 1026.39 823.01 1025.23 821.81 1024.6C821.6 1024.49 821.28 1024.56 821.07 1024.62C820.95 1024.65 820.83 1024.7 820.71 1024.75C820.64 1024.78 820.44 1024.88 820.41 1024.98C820.07 1026.37 820.01 1027.82 820.26 1029.23C820.32 1029.55 821.71 1029.22 821.71 1028.84C821.71 1027.63 821.64 1026.42 821.48 1025.22C821.45 1025 820.81 1025.15 820.69 1025.18C820.53 1025.23 820 1025.37 820.03 1025.61Z" fill="#EEF0EC"/>
<path d="M821.97 1028.18C822.47 1027.77 822.96 1027.35 823.46 1026.94C823.55 1026.87 823.63 1026.72 823.6 1026.61C823.57 1026.49 823.43 1026.41 823.31 1026.39C822.95 1026.31 822.56 1026.43 822.29 1026.66C821.79 1027.07 821.3 1027.49 820.8 1027.9C820.71 1027.97 820.63 1028.12 820.66 1028.23C820.69 1028.35 820.83 1028.43 820.95 1028.45C821.31 1028.54 821.7 1028.42 821.97 1028.18Z" fill="#EEF0EC"/>
<path d="M823.24 1025.66C823.57 1026.27 823.54 1026.98 823.78 1027.62C823.89 1027.92 824.09 1028.2 824.38 1028.36C824.84 1028.61 825.44 1028.52 825.91 1028.38C826.42 1028.23 827.04 1027.96 827.24 1027.42C827.33 1027.19 826.76 1027.28 826.67 1027.3C826.48 1027.34 826.29 1027.39 826.12 1027.47C826.03 1027.51 825.86 1027.58 825.82 1027.68C825.79 1027.75 825.76 1027.82 825.72 1027.88C825.71 1027.89 825.63 1027.99 825.68 1027.94C825.66 1027.96 825.63 1027.99 825.61 1028.01C825.59 1028.02 825.58 1028.04 825.56 1028.05C825.62 1028.01 825.63 1028 825.58 1028.03C825.56 1028.04 825.54 1028.05 825.52 1028.06C825.55 1028.05 825.57 1028.03 825.6 1028.02C825.54 1028.05 825.56 1028.04 825.68 1027.99C825.61 1028.02 825.64 1028.01 825.78 1027.96C825.71 1027.98 825.74 1027.97 825.88 1027.94C825.83 1027.95 825.84 1027.95 825.9 1027.94C825.97 1027.93 825.98 1027.93 825.92 1027.93C826.02 1027.93 826.04 1027.93 825.98 1027.93C825.96 1027.93 825.94 1027.93 825.92 1027.93C825.99 1027.94 826 1027.94 825.96 1027.93C825.93 1027.92 825.88 1027.91 825.85 1027.91C825.81 1027.9 825.81 1027.9 825.84 1027.91C825.82 1027.9 825.81 1027.9 825.8 1027.89C825.66 1027.81 825.54 1027.73 825.44 1027.61C825.45 1027.63 825.47 1027.64 825.48 1027.66C825.22 1027.34 825.13 1026.92 825.06 1026.52C824.98 1026.1 824.91 1025.66 824.7 1025.27C824.65 1025.19 824.53 1025.18 824.45 1025.18C824.28 1025.17 824.08 1025.21 823.92 1025.26C823.75 1025.31 823.57 1025.36 823.42 1025.46C823.37 1025.49 823.2 1025.58 823.24 1025.66Z" fill="#EEF0EC"/>
<path d="M827.08 1025.67C827.03 1026.12 827.03 1026.58 827.09 1027.03C827.15 1027.46 827.24 1027.91 827.48 1028.27C827.69 1028.58 828.06 1028.76 828.42 1028.82C828.97 1028.92 829.57 1028.8 830.04 1028.5C830.23 1028.38 830.47 1028.06 830.16 1027.91C829.85 1027.76 829.41 1027.87 829.13 1028.04C829.12 1028.05 829.1 1028.06 829.08 1028.07C829.03 1028.1 829.06 1028.08 829.16 1028.03C829.13 1028.04 829.02 1028.08 829.16 1028.04C829.29 1027.99 829.18 1028.03 829.15 1028.04C829.28 1028.02 829.32 1028.01 829.26 1028.02C829.24 1028.02 829.22 1028.02 829.21 1028.03C829.25 1028.03 829.29 1028.03 829.32 1028.03C829.3 1028.03 829.27 1028.03 829.25 1028.03C829.14 1028.03 829.36 1028.05 829.29 1028.04C829.26 1028.03 829.23 1028.03 829.2 1028.02C829.18 1028.02 829.17 1028.01 829.15 1028.01C829.11 1028 829.13 1028 829.2 1028.03C829.2 1028.04 829.05 1027.96 829.04 1027.96C829.02 1027.95 828.94 1027.88 829.02 1027.95C829 1027.93 828.97 1027.91 828.95 1027.89C828.9 1027.85 828.86 1027.8 828.82 1027.74C828.81 1027.73 828.76 1027.65 828.78 1027.67C828.79 1027.69 828.79 1027.68 828.77 1027.64C828.76 1027.62 828.75 1027.6 828.74 1027.58C828.61 1027.26 828.55 1026.91 828.51 1026.57C828.47 1026.21 828.47 1025.89 828.51 1025.53C828.55 1025.21 828.11 1025.17 827.88 1025.2C827.69 1025.23 827.49 1025.28 827.33 1025.39C827.25 1025.42 827.1 1025.53 827.08 1025.67Z" fill="#EEF0EC"/>
<path d="M827.98 1027.63C828.64 1027.56 829.28 1027.29 829.78 1026.85C829.87 1026.78 829.95 1026.63 829.92 1026.51C829.89 1026.39 829.75 1026.31 829.63 1026.29C829.28 1026.21 828.88 1026.33 828.61 1026.56C828.58 1026.58 828.55 1026.61 828.52 1026.63C828.56 1026.6 828.61 1026.56 828.65 1026.53C828.56 1026.6 828.46 1026.67 828.35 1026.72C828.4 1026.69 828.46 1026.66 828.51 1026.63C828.42 1026.68 828.33 1026.72 828.24 1026.75C828.3 1026.73 828.37 1026.71 828.43 1026.68C828.34 1026.71 828.24 1026.74 828.14 1026.76C828.21 1026.75 828.27 1026.74 828.34 1026.72C828.28 1026.73 828.22 1026.74 828.16 1026.75C827.98 1026.77 827.77 1026.84 827.61 1026.94C827.51 1027 827.35 1027.14 827.34 1027.27C827.31 1027.61 827.75 1027.65 827.98 1027.63Z" fill="#EEF0EC"/>
<path d="M828.08 1025.89C827.8 1025.98 828.05 1025.9 828.12 1025.88C828.15 1025.87 828.28 1025.84 828.13 1025.88C827.98 1025.91 828.11 1025.89 828.14 1025.88C828.19 1025.87 828.29 1025.84 828.35 1025.85C828.31 1025.85 828.27 1025.86 828.23 1025.86C828.25 1025.86 828.27 1025.86 828.29 1025.85C828.32 1025.85 828.35 1025.84 828.39 1025.84C828.45 1025.84 828.52 1025.83 828.58 1025.83C828.7 1025.83 828.43 1025.83 828.55 1025.83C828.58 1025.83 828.61 1025.83 828.65 1025.83C828.71 1025.83 828.78 1025.84 828.84 1025.84C828.88 1025.84 828.91 1025.85 828.95 1025.85C828.98 1025.85 829.11 1025.87 828.97 1025.85C829.31 1025.9 829.68 1025.83 829.98 1025.67C830.07 1025.62 830.24 1025.54 830.27 1025.43C830.29 1025.34 830.24 1025.27 830.15 1025.26C829.76 1025.2 829.37 1025.17 828.97 1025.2C828.49 1025.24 828.02 1025.34 827.56 1025.49C827.43 1025.53 827.25 1025.62 827.16 1025.72C827.11 1025.78 827.05 1025.87 827.14 1025.93C827.24 1026 827.4 1026 827.51 1025.99C827.71 1026 827.9 1025.95 828.08 1025.89Z" fill="#EEF0EC"/>
<path d="M830.05 1026.03C830.17 1026.86 830.33 1027.68 830.51 1028.5C830.58 1028.82 831.01 1028.89 831.28 1028.85C831.55 1028.8 831.98 1028.59 831.97 1028.26C831.96 1027.37 831.86 1026.49 831.66 1025.63C831.62 1025.77 831.58 1025.92 831.55 1026.06C831.6 1025.99 831.51 1026.1 831.49 1026.11C831.38 1026.19 831.22 1026.26 831.09 1026.26C831.08 1026.26 830.9 1026.25 831 1026.26C830.98 1026.26 830.84 1026.23 830.93 1026.25C831.01 1026.27 830.91 1026.25 830.89 1026.23C830.91 1026.25 830.95 1026.27 830.97 1026.28C830.99 1026.3 831.01 1026.31 831.03 1026.33C831.04 1026.34 831.12 1026.4 831.05 1026.34C830.99 1026.29 831.05 1026.34 831.06 1026.36C831.08 1026.38 831.1 1026.4 831.11 1026.43C831.16 1026.49 831.2 1026.55 831.25 1026.61C831.35 1026.74 831.45 1026.86 831.54 1026.99C831.92 1027.48 832.3 1027.97 832.68 1028.46C833.03 1028.91 834.01 1028.67 834.08 1028.09C834.18 1027.15 834.18 1026.22 834.09 1025.28C834.08 1025.14 833.89 1025.01 833.78 1024.97C833.62 1024.91 833.39 1024.9 833.23 1024.95C833.06 1025 832.87 1025.09 832.76 1025.24C832.66 1025.38 832.63 1025.5 832.65 1025.67C832.66 1025.73 832.66 1025.78 832.66 1025.84C832.65 1025.74 832.66 1025.91 832.66 1025.92C832.67 1026.03 832.67 1026.14 832.68 1026.25C832.69 1026.46 832.69 1026.68 832.69 1026.89C832.69 1027.33 832.66 1027.76 832.61 1028.19C833.08 1028.07 833.54 1027.94 834.01 1027.82C833.72 1027.44 833.42 1027.06 833.13 1026.68C832.85 1026.32 832.59 1025.92 832.27 1025.6C831.86 1025.19 831.24 1025.01 830.7 1025.29C830.56 1025.36 830.42 1025.47 830.32 1025.6C830.22 1025.73 830.18 1025.87 830.21 1026.03C830.22 1026.09 830.24 1026.15 830.25 1026.22C830.3 1026.44 830.34 1026.67 830.38 1026.89C830.4 1027.02 830.42 1027.16 830.44 1027.3C830.45 1027.36 830.45 1027.43 830.46 1027.49C830.46 1027.52 830.47 1027.54 830.47 1027.57C830.47 1027.58 830.48 1027.69 830.48 1027.63C830.48 1027.57 830.48 1027.66 830.48 1027.67C830.48 1027.71 830.48 1027.74 830.49 1027.78C830.49 1027.84 830.5 1027.91 830.5 1027.97C830.51 1028.11 830.51 1028.24 830.51 1028.38C831 1028.3 831.48 1028.22 831.97 1028.14C831.79 1027.32 831.63 1026.5 831.51 1025.67C831.49 1025.52 831.32 1025.4 831.2 1025.36C831.04 1025.3 830.81 1025.29 830.65 1025.34C830.31 1025.41 830 1025.65 830.05 1026.03Z" fill="#EEF0EC"/>
<path d="M837.49 1025.15C836.96 1024.8 836.25 1024.9 835.69 1025.12C835.22 1025.3 834.73 1025.63 834.55 1026.12C834.22 1027.05 834.92 1028.18 835.87 1028.36C836.31 1028.44 836.81 1028.33 837.21 1028.16C837.55 1028.01 837.85 1027.82 838.14 1027.59C838.21 1027.54 838.33 1027.44 838.3 1027.33C838.27 1027.23 838.12 1027.19 838.03 1027.19C837.7 1027.16 837.27 1027.25 837.01 1027.46C836.93 1027.52 836.86 1027.58 836.78 1027.63C836.74 1027.66 836.71 1027.68 836.67 1027.71C836.63 1027.73 836.65 1027.73 836.71 1027.69C836.69 1027.7 836.67 1027.71 836.65 1027.72C836.61 1027.74 836.45 1027.81 836.64 1027.73C836.51 1027.78 836.81 1027.7 836.67 1027.72C836.71 1027.71 836.75 1027.7 836.78 1027.7C836.71 1027.71 836.72 1027.71 836.84 1027.7C836.72 1027.71 836.96 1027.7 836.83 1027.7C836.93 1027.7 836.84 1027.7 836.8 1027.69C836.76 1027.68 836.72 1027.66 836.69 1027.64C836.74 1027.67 836.64 1027.6 836.64 1027.6C836.61 1027.58 836.57 1027.55 836.54 1027.52C836.4 1027.41 836.29 1027.28 836.19 1027.13C836.21 1027.15 836.22 1027.18 836.24 1027.2C836.03 1026.89 835.91 1026.53 835.93 1026.16C835.93 1026.19 835.93 1026.21 835.92 1026.24C835.93 1026.06 835.98 1025.9 836.06 1025.74C836.08 1025.7 836.08 1025.7 836.06 1025.74C836.07 1025.72 836.09 1025.7 836.1 1025.69C836.12 1025.66 836.14 1025.64 836.17 1025.61C836.19 1025.59 836.2 1025.58 836.22 1025.56C836.17 1025.61 836.16 1025.62 836.18 1025.59C836.21 1025.57 836.25 1025.54 836.27 1025.52C836.18 1025.57 836.17 1025.58 836.22 1025.55C836.23 1025.54 836.24 1025.54 836.25 1025.53C836.35 1025.47 836.07 1025.61 836.24 1025.54C836.05 1025.63 836.1 1025.59 836.18 1025.56C836.04 1025.59 836 1025.6 836.08 1025.58C835.95 1025.59 835.92 1025.59 836 1025.59C836.12 1025.59 835.85 1025.57 835.97 1025.59C836.11 1025.61 835.92 1025.56 836 1025.59C836.03 1025.6 836.06 1025.61 836.09 1025.62C836.13 1025.64 836.13 1025.64 836.09 1025.61C836.11 1025.62 836.13 1025.63 836.15 1025.64C836.41 1025.81 836.83 1025.71 837.09 1025.6C837.17 1025.59 837.74 1025.31 837.49 1025.15Z" fill="#EEF0EC"/>
<path d="M838.13 1025.03C838.21 1026.33 838.41 1027.62 838.74 1028.88C838.81 1029.14 839.38 1029.02 839.54 1028.97C839.7 1028.92 840.26 1028.75 840.19 1028.49C839.87 1027.23 839.66 1025.94 839.58 1024.64C839.57 1024.54 839.37 1024.5 839.31 1024.5C839.14 1024.48 838.94 1024.51 838.78 1024.55C838.57 1024.61 838.11 1024.75 838.13 1025.03Z" fill="#EEF0EC"/>
<path d="M839.64 1026.14C840.02 1027.15 840.29 1028.21 840.42 1029.28C840.9 1029.15 841.39 1029.02 841.87 1028.89C841.74 1028.31 841.67 1027.71 841.69 1027.12C841.7 1026.84 841.72 1026.57 841.77 1026.29C841.79 1026.16 841.81 1026.03 841.85 1025.9C841.86 1025.85 841.88 1025.81 841.9 1025.76C841.89 1025.79 841.9 1025.78 841.92 1025.74C841.83 1025.84 841.7 1025.88 841.54 1025.86C841.41 1025.96 841.28 1025.99 841.15 1025.94C841.18 1025.95 841.21 1025.97 841.24 1025.98C841.21 1025.96 841.34 1026.06 841.32 1026.05C841.42 1026.14 841.5 1026.24 841.58 1026.34C841.73 1026.55 841.88 1026.76 842.01 1026.98C842.3 1027.46 842.53 1027.96 842.72 1028.49C842.82 1028.77 843.32 1028.68 843.53 1028.62C843.7 1028.57 843.88 1028.5 844.02 1028.39C844.09 1028.33 844.21 1028.21 844.17 1028.1C843.99 1027.61 843.77 1027.13 843.5 1026.67C843.36 1026.44 843.22 1026.21 843.07 1025.99C842.93 1025.79 842.78 1025.57 842.58 1025.43C842.29 1025.22 841.97 1025.17 841.61 1025.21C841.22 1025.26 840.74 1025.44 840.53 1025.79C840.4 1026 840.35 1026.23 840.32 1026.48C840.28 1026.76 840.25 1027.05 840.24 1027.34C840.22 1027.99 840.28 1028.64 840.42 1029.27C840.45 1029.38 840.6 1029.43 840.69 1029.44C840.86 1029.47 841.07 1029.45 841.23 1029.4C841.45 1029.34 841.91 1029.18 841.87 1028.88C841.73 1027.81 841.47 1026.75 841.09 1025.74C840.99 1025.46 840.49 1025.55 840.28 1025.61C840.11 1025.66 839.93 1025.73 839.79 1025.84C839.71 1025.92 839.6 1026.03 839.64 1026.14Z" fill="#EEF0EC"/>
<path d="M842.3 1028.98C842.84 1028.61 843.38 1028.24 843.92 1027.87C844.04 1027.79 844.16 1027.64 844.18 1027.5C844.2 1027.36 844.12 1027.22 844.01 1027.15C843.69 1026.96 843.26 1027.05 842.97 1027.24C842.43 1027.61 841.89 1027.98 841.35 1028.35C841.23 1028.43 841.11 1028.58 841.09 1028.72C841.07 1028.86 841.15 1029 841.26 1029.07C841.58 1029.27 842.01 1029.18 842.3 1028.98Z" fill="#EEF0EC"/>
<path d="M847.24 1025.32C846.61 1025.12 845.86 1025.33 845.33 1025.71C844.94 1025.99 844.73 1026.4 844.71 1026.88C844.7 1027.33 844.87 1027.77 845.13 1028.14C845.41 1028.54 845.83 1028.74 846.31 1028.73C846.69 1028.73 847.1 1028.62 847.43 1028.43C847.67 1028.3 847.91 1028.1 847.98 1027.83C848.06 1027.54 847.53 1027.58 847.38 1027.61C847.19 1027.64 847 1027.69 846.83 1027.79C846.73 1027.85 846.58 1027.93 846.54 1028.05C846.53 1028.09 846.51 1028.12 846.5 1028.16C846.49 1028.19 846.49 1028.18 846.51 1028.14C846.5 1028.16 846.48 1028.17 846.47 1028.19C846.53 1028.14 846.54 1028.13 846.51 1028.16C846.5 1028.17 846.48 1028.18 846.47 1028.19C846.56 1028.14 846.57 1028.13 846.52 1028.16C846.55 1028.14 846.59 1028.13 846.62 1028.11C846.76 1028.07 846.79 1028.06 846.71 1028.08C846.79 1028.06 846.87 1028.04 846.95 1028.04C846.84 1028.04 847.08 1028.08 846.97 1028.04C846.86 1028.01 847.07 1028.09 846.97 1028.04C846.93 1028.02 846.9 1028.01 846.86 1028C846.92 1028.03 846.8 1027.96 846.78 1027.95C846.75 1027.93 846.72 1027.9 846.69 1027.87C846.63 1027.81 846.58 1027.75 846.53 1027.69C846.43 1027.56 846.35 1027.38 846.29 1027.22C846.16 1026.86 846.1 1026.45 846.28 1026.09C846.29 1026.07 846.3 1026.06 846.31 1026.04C846.29 1026.07 846.29 1026.07 846.32 1026.03C846.34 1026 846.37 1025.97 846.39 1025.94C846.41 1025.92 846.42 1025.9 846.44 1025.88C846.43 1025.89 846.41 1025.91 846.4 1025.92C846.41 1025.9 846.55 1025.81 846.46 1025.87C846.41 1025.9 846.41 1025.9 846.46 1025.87C846.53 1025.84 846.5 1025.85 846.4 1025.9C846.36 1025.91 846.32 1025.93 846.28 1025.94C846.36 1025.92 846.33 1025.92 846.19 1025.96C846.31 1025.94 846.06 1025.98 846.03 1025.96C846.05 1025.96 846.08 1025.96 846.1 1025.97C846.03 1025.95 846.02 1025.95 846.08 1025.97C846.4 1026.07 846.81 1025.97 847.1 1025.81C847.2 1025.75 847.35 1025.67 847.39 1025.55C847.4 1025.43 847.33 1025.35 847.24 1025.32Z" fill="#EEF0EC"/>
<path d="M848.17 1026.77C848.32 1027.4 848.4 1028.05 848.41 1028.7C848.89 1028.57 849.38 1028.44 849.86 1028.31C849.68 1027.82 849.55 1027.31 849.49 1026.79C849.46 1026.54 849.45 1026.29 849.44 1026.04C849.44 1025.91 849.44 1025.79 849.45 1025.66C849.45 1025.61 849.46 1025.56 849.46 1025.51C849.5 1025.27 849.6 1025.45 849.21 1025.58C849.08 1025.61 848.95 1025.65 848.82 1025.68C848.83 1025.68 848.85 1025.68 848.86 1025.67C848.75 1025.67 848.63 1025.68 848.52 1025.68C848.58 1025.68 848.58 1025.68 848.53 1025.68C848.58 1025.7 848.59 1025.7 848.57 1025.7C848.62 1025.74 848.68 1025.78 848.73 1025.82C848.82 1025.9 848.92 1025.97 849.01 1026.06C849.2 1026.23 849.38 1026.42 849.55 1026.62C849.88 1027.01 850.15 1027.43 850.38 1027.89C850.5 1028.14 850.97 1028.05 851.18 1027.99C851.35 1027.94 851.53 1027.88 851.67 1027.77C851.73 1027.72 851.87 1027.61 851.83 1027.51C851.43 1026.69 850.86 1025.94 850.16 1025.36C849.95 1025.19 849.74 1025.05 849.46 1025.02C849.18 1024.99 848.88 1025.05 848.63 1025.15C848.42 1025.24 848.19 1025.36 848.08 1025.58C847.97 1025.78 848 1026.05 847.99 1026.27C847.98 1026.52 847.99 1026.77 848.02 1027.02C848.07 1027.6 848.2 1028.16 848.4 1028.71C848.5 1028.97 849.01 1028.86 849.2 1028.81C849.42 1028.75 849.85 1028.61 849.85 1028.33C849.83 1027.68 849.75 1027.04 849.61 1026.4C849.59 1026.3 849.42 1026.26 849.34 1026.25C849.17 1026.23 848.97 1026.26 848.8 1026.3C848.63 1026.35 848.45 1026.41 848.31 1026.52C848.26 1026.57 848.15 1026.66 848.17 1026.77Z" fill="#EEF0EC"/>
<path d="M849.08 1028.01C849.85 1027.83 850.63 1027.47 851.21 1026.92C851.26 1026.87 851.32 1026.8 851.24 1026.74C851.16 1026.68 850.96 1026.7 850.87 1026.71C850.68 1026.73 850.49 1026.77 850.31 1026.84C850.17 1026.89 850.01 1026.95 849.9 1027.05C849.8 1027.14 849.7 1027.23 849.59 1027.31C849.58 1027.32 849.56 1027.34 849.55 1027.34C849.56 1027.34 849.65 1027.27 849.59 1027.31C849.56 1027.33 849.53 1027.35 849.5 1027.37C849.44 1027.41 849.38 1027.45 849.31 1027.48C849.21 1027.54 849.44 1027.42 849.34 1027.47C849.31 1027.49 849.28 1027.5 849.25 1027.51C849.22 1027.52 849.19 1027.54 849.16 1027.55C849.13 1027.56 849.07 1027.59 849.18 1027.54C849.3 1027.49 849.23 1027.52 849.2 1027.53C849.17 1027.54 849.14 1027.55 849.1 1027.56C849.08 1027.57 849.07 1027.57 849.05 1027.58C848.97 1027.61 849.25 1027.52 849.17 1027.54C849.1 1027.56 849.03 1027.58 848.96 1027.59C848.8 1027.63 848.61 1027.7 848.46 1027.79C848.43 1027.81 848.25 1027.92 848.29 1027.99C848.33 1028.08 848.47 1028.08 848.54 1028.08C848.73 1028.09 848.91 1028.05 849.08 1028.01Z" fill="#EEF0EC"/>
<path d="M848.31 1028.09C848.36 1027.97 848.4 1027.87 848.41 1027.74C848.42 1027.63 848.41 1027.51 848.39 1027.4C848.35 1027.21 848.25 1027.02 848.13 1026.87C847.81 1026.46 847.26 1026.29 846.75 1026.35C846.56 1026.37 846.36 1026.43 846.2 1026.54C846.1 1026.61 845.95 1026.74 845.93 1026.88C845.9 1027.22 846.32 1027.29 846.57 1027.26C846.6 1027.26 846.62 1027.25 846.65 1027.25C846.59 1027.25 846.53 1027.25 846.47 1027.25C846.52 1027.25 846.56 1027.25 846.61 1027.26C846.56 1027.25 846.5 1027.24 846.45 1027.23C846.51 1027.24 846.56 1027.26 846.62 1027.28C846.57 1027.26 846.53 1027.24 846.48 1027.23C846.57 1027.27 846.65 1027.31 846.72 1027.37C846.69 1027.34 846.65 1027.32 846.62 1027.29C846.73 1027.38 846.82 1027.49 846.89 1027.62C846.87 1027.59 846.85 1027.55 846.83 1027.52C846.9 1027.65 846.94 1027.78 846.94 1027.93C846.94 1027.89 846.94 1027.85 846.94 1027.81C846.94 1027.91 846.93 1028.01 846.89 1028.1C846.91 1028.06 846.92 1028.02 846.94 1027.98C846.94 1027.99 846.94 1027.99 846.93 1028C846.89 1028.06 846.88 1028.11 846.89 1028.18C846.88 1028.24 846.9 1028.3 846.95 1028.34C847.04 1028.45 847.22 1028.5 847.35 1028.5C847.54 1028.51 847.75 1028.48 847.92 1028.39C847.97 1028.36 848.03 1028.33 848.08 1028.3C848.18 1028.25 848.26 1028.18 848.31 1028.09Z" fill="#EEF0EC"/>
<path d="M826.9 1034.57C827.05 1035.24 827.25 1035.89 827.53 1036.52C827.76 1037.05 828.04 1037.55 828.66 1037.66C829.79 1037.86 831.05 1037.1 831.39 1036.01C831.58 1035.4 831.56 1034.75 831.74 1034.14C831.77 1034.03 831.81 1033.92 831.88 1033.83C831.99 1033.66 832.13 1033.67 831.65 1033.81C831.23 1033.94 831.27 1033.85 831.46 1034.01C831.65 1034.18 831.81 1034.39 831.92 1034.63C832.15 1035.09 832.26 1035.6 832.4 1036.1C832.53 1036.55 832.66 1037.11 832.98 1037.47C833.47 1038.02 834.57 1037.72 834.95 1037.17C835.37 1036.57 835.5 1035.78 835.51 1035.06C835.51 1034.7 834.07 1034.94 834.06 1035.45C834.06 1035.78 834.01 1036.11 833.92 1036.43C833.88 1036.57 833.83 1036.71 833.78 1036.85C833.76 1036.9 833.63 1037.21 833.64 1037.2C833.82 1037.14 834.01 1037.08 834.19 1037.02C834.42 1037.06 834.48 1037.02 834.34 1036.92C834.29 1036.87 834.26 1036.81 834.23 1036.74C834.17 1036.62 834.12 1036.5 834.07 1036.38C833.99 1036.16 833.92 1035.93 833.86 1035.71C833.73 1035.23 833.62 1034.74 833.4 1034.29C833.19 1033.85 832.86 1033.37 832.38 1033.22C831.77 1033.03 830.92 1033.33 830.56 1033.86C830.23 1034.34 830.2 1034.95 830.12 1035.51C830.07 1035.81 830.02 1036.11 829.91 1036.4C829.86 1036.52 829.81 1036.63 829.72 1036.74C829.67 1036.81 829.55 1036.88 829.51 1036.95C829.47 1037.02 829.44 1036.97 829.47 1036.99C829.52 1036.97 829.57 1036.96 829.63 1036.97C829.58 1036.96 829.53 1036.93 829.49 1036.9C829.23 1036.74 829.11 1036.4 828.99 1036.14C828.72 1035.51 828.51 1034.86 828.36 1034.19C828.25 1033.76 826.8 1034.12 826.9 1034.57Z" fill="#EEF0EC"/>
<path d="M834.74 1033.93C835.42 1034.82 836.11 1035.72 836.79 1036.61C836.92 1036.77 837.19 1036.79 837.38 1036.77C837.61 1036.75 837.9 1036.65 838.06 1036.47C838.39 1036.09 838.67 1035.67 838.88 1035.22C838.46 1035.33 838.05 1035.44 837.63 1035.56C837.75 1035.64 837.88 1035.77 837.98 1035.94C838 1035.97 838.04 1036.07 838.07 1036.14C838.1 1036.24 838.12 1036.34 838.14 1036.45C838.16 1036.58 838.33 1036.66 838.43 1036.69C838.6 1036.74 838.81 1036.73 838.98 1036.68C839.26 1036.6 839.63 1036.41 839.59 1036.06C839.52 1035.53 839.21 1035.09 838.77 1034.8C838.44 1034.58 837.69 1034.76 837.52 1035.14C837.43 1035.34 837.33 1035.53 837.21 1035.71C837.16 1035.79 837.1 1035.87 837.05 1035.95C837.05 1035.95 836.94 1036.09 837 1036.02C836.96 1036.07 836.93 1036.11 836.89 1036.16C837.31 1036.11 837.73 1036.07 838.15 1036.02C837.47 1035.13 836.78 1034.23 836.1 1033.34C835.9 1033.08 835.38 1033.16 835.13 1033.28C834.89 1033.38 834.53 1033.65 834.74 1033.93Z" fill="#EEF0EC"/>
<defs>
<radialGradient id="paint0_radial_87_598" cx="0" cy="0" r="1" gradientUnits="userSpaceOnUse" gradientTransform="translate(830 1076.75) scale(271.226)">
<stop stop-color="#EFA7C7"/>
<stop offset="0.2652" stop-color="#F1ACCB"/>
<stop offset="1" stop-color="#F7B8D3"/>
</radialGradient>
</defs>
</svg>
