<svg width="1660" height="1660" viewBox="0 0 1660 1660" fill="none" xmlns="http://www.w3.org/2000/svg">
<path d="M751.91 825.86C729.51 836.4 707.11 846.93 684.7 857.47C681.12 859.15 678.16 861.66 676.15 864.7C670.58 873.08 665.95 880.9 662.55 890.74C648.45 931.46 624.08 983.77 611.11 1018.56C607.6 1027.99 618.51 1027.73 630 1029.17C637.58 1030.11 641.21 1030.81 649.28 1034.96C660.59 1040.77 660.9 1044.43 676.08 1051.82C681.38 1054.4 695.95 1054.7 696.46 1059.88C703.37 1129.56 706.91 1204.71 714.24 1273.71C714.48 1275.99 716.64 1277.77 719.32 1277.91L936 1285.14C939.9 1285.35 943.09 1282.77 943.4 1279.45C950.02 1207.89 962.46 1140.76 964.01 1068.75C964.19 1060.21 964.74 1053.57 974.53 1051.75C983.81 1050.03 993.09 1048.31 1002.37 1046.59C1008.75 1045.41 1014.07 1041.82 1017.19 1036.93C1018.21 1035.32 1019.51 1033.66 1021.15 1032.02C1025.08 1028.12 1030.13 1026.35 1034.12 1024.17C1047.92 1016.66 1052.65 1017.75 1047.53 1004.79C1035.35 973.97 1022.72 934.09 1000.46 885.88C995.52 875.18 985.84 867.29 978.29 859.32C976.14 857.05 973.4 855.23 970.28 854.02C944.32 843.91 918.37 833.79 892.41 823.68C886.3 821.3 879.26 821.46 873.25 824.03C864.95 827.58 854.13 831.15 841.09 833.02C836.97 833.61 822.31 835.51 803.38 833.02C790.72 831.35 780.04 828.23 771.65 825.04C765.32 822.67 758 823 751.91 825.86Z" fill="#171618" stroke="#030303" stroke-width="4" stroke-miterlimit="10"/>
<path d="M946.43 1235.91C940.22 1235.5 922.26 1233.25 912.49 1234.02C912.41 1234.02 911.97 1234.03 911.61 1234.33C911.38 1234.52 911.25 1234.79 911.25 1235.08V1250.17C911.25 1250.76 911.81 1251.22 912.5 1251.23C920.09 1251.3 935.8 1252.21 944.13 1253.26" fill="#F58047"/>
<path d="M946.43 1235.91C940.22 1235.5 922.26 1233.25 912.49 1234.02C912.41 1234.02 911.97 1234.03 911.61 1234.33C911.38 1234.52 911.25 1234.79 911.25 1235.08V1250.17C911.25 1250.76 911.81 1251.22 912.5 1251.23C920.09 1251.3 935.8 1252.21 944.13 1253.26" stroke="#010101" stroke-width="4" stroke-miterlimit="10"/>
<path d="M759.28 825.19C760.16 817.55 761.04 809.9 761.92 802.26C773.37 806.17 795.87 811.88 816.51 812.89C847.39 814.4 865.99 806.3 879.46 801.55C880.48 809.17 881.5 816.78 882.52 824.4C869.55 829.03 847.15 837.98 817.94 837.63C792.38 837.32 771.72 829.44 759.28 825.19Z" fill="#171618" stroke="#030303" stroke-width="4" stroke-miterlimit="10"/>
<path d="M803.98 819.63C804.43 819.69 804.87 819.79 805.31 819.93C805.75 820.07 806.13 820.24 806.44 820.44C806.25 821.04 806.15 821.35 805.95 821.95C805.7 821.82 805.41 821.69 805.08 821.58C804.75 821.47 804.42 821.39 804.09 821.34C803.2 821.22 802.47 821.35 801.89 821.73C801.31 822.11 800.94 822.75 800.79 823.68C800.65 824.6 800.8 825.33 801.27 825.87C801.74 826.4 802.44 826.74 803.37 826.86C803.72 826.91 804.07 826.91 804.43 826.88C804.79 826.85 805.11 826.8 805.4 826.73C805.46 827.36 805.49 827.68 805.56 828.31C805.19 828.43 804.76 828.51 804.26 828.53C803.76 828.56 803.27 828.54 802.79 828.47C801.98 828.36 801.28 828.15 800.69 827.83C800.1 827.51 799.64 827.13 799.3 826.67C798.95 826.21 798.72 825.7 798.61 825.13C798.49 824.56 798.49 823.96 798.61 823.32C798.72 822.68 798.92 822.12 799.22 821.62C799.51 821.12 799.89 820.71 800.34 820.38C800.79 820.05 801.32 819.82 801.93 819.69C802.55 819.54 803.23 819.53 803.98 819.63Z" fill="#EDEDEE"/>
<path d="M813.94 820.68C813.91 821.35 813.89 821.69 813.86 822.36C812.92 822.32 812.45 822.29 811.5 822.23C811.32 824.99 811.22 826.38 811.04 829.14C810.13 829.08 809.67 829.04 808.76 828.97C809 826.21 809.11 824.83 809.35 822.07C808.41 821.99 807.94 821.94 807 821.85C807.07 821.18 807.11 820.85 807.18 820.18C809.88 820.45 811.23 820.55 813.94 820.68Z" fill="#EDEDEE"/>
<path d="M820.45 829.41C820.43 827.19 820.42 826.08 820.4 823.85C819.07 826.08 818.37 827.19 816.92 829.39C816.01 829.37 815.55 829.36 814.63 829.32C814.76 825.88 814.83 824.16 814.96 820.72C815.81 820.75 816.24 820.77 817.09 820.78C817.05 822.96 817.03 824.04 816.98 826.22C818.4 824.07 819.08 822.99 820.37 820.8C821.22 820.79 821.65 820.79 822.5 820.76C822.59 824.2 822.64 825.92 822.73 829.36C821.82 829.4 821.37 829.4 820.45 829.41Z" fill="#EDEDEE"/>
<path d="M827.56 822.21C827.52 822.98 827.5 823.37 827.46 824.15C827.41 825.12 827.3 825.94 827.13 826.6C826.96 827.26 826.75 827.8 826.5 828.21C826.25 828.62 825.96 828.92 825.64 829.12C825.32 829.31 824.99 829.43 824.66 829.47C824.36 828.85 824.21 828.54 823.92 827.92C824.17 827.83 824.39 827.7 824.58 827.51C824.77 827.32 824.94 827.06 825.08 826.72C825.22 826.39 825.33 825.97 825.42 825.47C825.51 824.97 825.57 824.38 825.59 823.68C825.64 822.47 825.66 821.86 825.71 820.65C828.01 820.53 829.16 820.44 831.45 820.2C831.8 823.62 831.98 825.34 832.34 828.76C831.43 828.85 830.97 828.9 830.06 828.98C829.83 826.22 829.71 824.84 829.47 822.08C828.7 822.13 828.32 822.16 827.56 822.21Z" fill="#EDEDEE"/>
<path d="M836.9 822.68C837.5 822.59 838.01 822.59 838.44 822.67C838.86 822.75 839.22 822.89 839.51 823.08C839.8 823.28 840.02 823.52 840.17 823.8C840.32 824.08 840.43 824.38 840.49 824.7C840.57 825.18 840.56 825.62 840.44 826.01C840.32 826.4 840.11 826.74 839.8 827.03C839.5 827.32 839.11 827.56 838.64 827.75C838.17 827.94 837.65 828.08 837.06 828.16C835.89 828.33 835.31 828.4 834.14 828.54C833.74 825.12 833.53 823.41 833.13 819.99C833.98 819.89 834.4 819.84 835.25 819.72C835.42 821 835.51 821.64 835.69 822.92C835.81 822.89 835.98 822.85 836.2 822.8C836.41 822.76 836.64 822.72 836.9 822.68ZM838.31 825.12C838.26 824.8 838.1 824.55 837.82 824.38C837.55 824.21 837.17 824.16 836.69 824.23C836.6 824.24 836.48 824.26 836.32 824.3C836.16 824.33 836.01 824.36 835.88 824.4C836.01 825.32 836.07 825.78 836.19 826.69C836.46 826.65 836.6 826.63 836.87 826.59C837.96 826.43 838.44 825.94 838.31 825.12Z" fill="#EDEDEE"/>
</svg>
