<svg width="1660" height="1660" viewBox="0 0 1660 1660" fill="none" xmlns="http://www.w3.org/2000/svg">
<path d="M783.17 807.5C759.72 835.94 740.7 880.74 697.17 927.29C634.87 993.85 514.79 995.97 476.89 979.82" stroke="black" stroke-width="14" stroke-miterlimit="10"/>
<path d="M482 985.87C459.07 1002.31 437.15 1007.35 427.31 998.76C421.66 993.82 418.74 983.28 422.45 978.63C427.62 972.15 443.08 980.37 447.19 974.49C451.58 968.19 439.85 978.6 438.19 972C435.19 959.77 451.4 957.77 465.46 967.69C470.86 971.5 474.3 972.77 480.26 975.69C483.89 977.45 482.37 983 482 985.87Z" fill="#010101" stroke="black" stroke-width="4" stroke-miterlimit="10"/>
<path d="M379.6 1100.71H478.21C476.37 1087.26 474.527 1073.81 472.68 1060.37L385.28 1058.58C383.393 1072.62 381.5 1086.66 379.6 1100.71Z" fill="#B3313E" stroke="#010101" stroke-miterlimit="10"/>
<path d="M402.44 1032V1035.08C402.455 1035.17 402.5 1035.25 402.569 1035.31C402.638 1035.37 402.725 1035.4 402.815 1035.4C402.905 1035.4 402.992 1035.37 403.061 1035.31C403.13 1035.25 403.175 1035.17 403.19 1035.08V1032C403.175 1031.91 403.13 1031.83 403.061 1031.77C402.992 1031.71 402.905 1031.68 402.815 1031.68C402.725 1031.68 402.638 1031.71 402.569 1031.77C402.5 1031.83 402.455 1031.91 402.44 1032Z" fill="#7B3232"/>
<path d="M384.51 1067.58H473.26L468.26 1027.24L389.6 1025.45C387.907 1039.49 386.21 1053.53 384.51 1067.58Z" fill="#88404B"/>
<path d="M388.09 1026H468.86L474.65 1063.66L383.17 1064.14L388.09 1026Z" fill="#B83138" stroke="#010101" stroke-miterlimit="10"/>
<path d="M389.13 1029.44L388.98 1030.32C388.96 1030.37 388.949 1030.42 388.949 1030.47C388.949 1030.52 388.96 1030.56 388.98 1030.61C389.003 1030.65 389.034 1030.69 389.072 1030.72C389.11 1030.75 389.153 1030.77 389.2 1030.78C389.246 1030.8 389.295 1030.81 389.345 1030.81C389.395 1030.81 389.444 1030.8 389.49 1030.78C389.534 1030.76 389.572 1030.72 389.601 1030.68C389.631 1030.64 389.651 1030.6 389.66 1030.55L389.81 1029.67C389.848 1029.58 389.848 1029.47 389.81 1029.38C389.761 1029.3 389.682 1029.24 389.59 1029.21C389.497 1029.17 389.393 1029.17 389.3 1029.21C389.258 1029.23 389.221 1029.26 389.191 1029.3C389.162 1029.34 389.141 1029.38 389.13 1029.43V1029.44Z" fill="#7B3232"/>
<path d="M387.68 1062.85L390.17 1062.41C390.217 1062.4 390.261 1062.37 390.3 1062.34C390.339 1062.31 390.371 1062.28 390.395 1062.23C390.419 1062.19 390.435 1062.14 390.441 1062.1C390.447 1062.05 390.443 1062 390.43 1061.95C390.417 1061.9 390.395 1061.86 390.364 1061.82C390.334 1061.78 390.297 1061.75 390.254 1061.72C390.211 1061.7 390.164 1061.68 390.115 1061.68C390.067 1061.67 390.017 1061.68 389.97 1061.69L387.48 1062.13C387.432 1062.14 387.388 1062.16 387.349 1062.19C387.31 1062.22 387.278 1062.26 387.253 1062.31C387.229 1062.35 387.214 1062.4 387.208 1062.44C387.202 1062.49 387.206 1062.54 387.22 1062.59C387.25 1062.68 387.314 1062.76 387.399 1062.81C387.484 1062.86 387.585 1062.87 387.68 1062.85Z" fill="#7B3232"/>
<path d="M397.06 1062.72L399.25 1062.43C399.346 1062.4 399.429 1062.34 399.479 1062.26C399.53 1062.17 399.544 1062.07 399.52 1061.97C399.49 1061.87 399.425 1061.79 399.338 1061.74C399.251 1061.69 399.148 1061.68 399.05 1061.7L396.86 1062C396.812 1062.01 396.768 1062.03 396.729 1062.06C396.69 1062.09 396.658 1062.13 396.633 1062.18C396.609 1062.22 396.594 1062.27 396.588 1062.31C396.582 1062.36 396.586 1062.41 396.6 1062.46C396.628 1062.55 396.692 1062.63 396.777 1062.68C396.863 1062.73 396.965 1062.74 397.06 1062.72V1062.72Z" fill="#7B3232"/>
<path d="M405.89 1063C406.676 1062.96 407.442 1062.74 408.13 1062.36C408.202 1062.3 408.251 1062.22 408.269 1062.13C408.286 1062.04 408.27 1061.95 408.223 1061.87C408.177 1061.79 408.104 1061.73 408.017 1061.7C407.93 1061.67 407.835 1061.67 407.75 1061.71L407.52 1061.83L407.39 1061.89C407.227 1061.96 407.06 1062.02 406.89 1062.07C406.726 1062.12 406.559 1062.15 406.39 1062.18H406.27H406.2H405.93C405.841 1062.19 405.76 1062.24 405.702 1062.31C405.643 1062.38 405.611 1062.47 405.611 1062.56C405.611 1062.65 405.643 1062.73 405.702 1062.8C405.76 1062.87 405.841 1062.92 405.93 1062.93L405.89 1063Z" fill="#7B3232"/>
<path d="M414.48 1063L415.95 1062.57C416.045 1062.54 416.125 1062.47 416.174 1062.39C416.222 1062.3 416.235 1062.2 416.21 1062.1C416.182 1062.01 416.118 1061.93 416.033 1061.88C415.947 1061.83 415.845 1061.82 415.75 1061.84L414.28 1062.28C414.187 1062.31 414.108 1062.37 414.06 1062.46C414.012 1062.54 413.998 1062.64 414.02 1062.74C414.033 1062.79 414.055 1062.83 414.085 1062.87C414.115 1062.91 414.153 1062.94 414.195 1062.97C414.238 1062.99 414.285 1063.01 414.334 1063.01C414.383 1063.02 414.433 1063.01 414.48 1063V1063Z" fill="#7B3232"/>
<path d="M424 1062.42L426.35 1061.98C426.445 1061.95 426.525 1061.89 426.573 1061.8C426.622 1061.72 426.635 1061.62 426.61 1061.52C426.582 1061.43 426.518 1061.35 426.433 1061.3C426.347 1061.25 426.245 1061.24 426.15 1061.26L423.8 1061.7C423.752 1061.71 423.708 1061.73 423.669 1061.76C423.63 1061.8 423.598 1061.83 423.573 1061.88C423.549 1061.92 423.534 1061.97 423.528 1062.01C423.522 1062.06 423.526 1062.11 423.54 1062.16C423.57 1062.25 423.634 1062.33 423.719 1062.38C423.804 1062.43 423.905 1062.44 424 1062.42V1062.42Z" fill="#7B3232"/>
<path d="M432.11 1062.88C433.035 1062.83 433.951 1062.67 434.84 1062.41C434.887 1062.4 434.931 1062.37 434.97 1062.34C435.009 1062.31 435.041 1062.28 435.065 1062.23C435.089 1062.19 435.105 1062.14 435.111 1062.1C435.117 1062.05 435.113 1062 435.1 1061.95C435.087 1061.9 435.065 1061.86 435.034 1061.82C435.004 1061.78 434.967 1061.75 434.924 1061.72C434.881 1061.7 434.834 1061.68 434.785 1061.68C434.737 1061.67 434.687 1061.68 434.64 1061.69C433.816 1061.93 432.967 1062.08 432.11 1062.13C432.01 1062.13 431.915 1062.17 431.844 1062.24C431.773 1062.31 431.733 1062.41 431.73 1062.51C431.733 1062.61 431.774 1062.7 431.845 1062.77C431.916 1062.84 432.011 1062.88 432.11 1062.88V1062.88Z" fill="#7B3232"/>
<path d="M441.29 1062.58L443.49 1062.16C443.584 1062.13 443.664 1062.07 443.713 1061.98C443.761 1061.9 443.775 1061.8 443.75 1061.7C443.724 1061.6 443.661 1061.52 443.575 1061.47C443.489 1061.42 443.387 1061.41 443.29 1061.43L441.09 1061.86C441.042 1061.87 440.998 1061.89 440.959 1061.92C440.92 1061.96 440.888 1061.99 440.863 1062.04C440.839 1062.08 440.824 1062.13 440.818 1062.17C440.812 1062.22 440.816 1062.27 440.83 1062.32C440.858 1062.41 440.922 1062.49 441.007 1062.54C441.093 1062.59 441.195 1062.6 441.29 1062.58V1062.58Z" fill="#7B3232"/>
<path d="M450.36 1062.55L453.59 1061.82C453.637 1061.81 453.681 1061.78 453.72 1061.75C453.759 1061.72 453.791 1061.69 453.815 1061.64C453.839 1061.6 453.855 1061.55 453.861 1061.51C453.867 1061.46 453.863 1061.41 453.85 1061.36C453.837 1061.31 453.815 1061.27 453.784 1061.23C453.754 1061.19 453.717 1061.16 453.674 1061.13C453.631 1061.11 453.584 1061.1 453.535 1061.09C453.487 1061.08 453.437 1061.09 453.39 1061.1L450.16 1061.83C450.113 1061.84 450.068 1061.87 450.03 1061.9C449.991 1061.93 449.959 1061.96 449.935 1062.01C449.911 1062.05 449.895 1062.1 449.889 1062.14C449.883 1062.19 449.887 1062.24 449.9 1062.29C449.913 1062.34 449.935 1062.38 449.966 1062.42C449.996 1062.46 450.033 1062.49 450.076 1062.52C450.119 1062.54 450.166 1062.56 450.215 1062.56C450.263 1062.57 450.313 1062.56 450.36 1062.55Z" fill="#7B3232"/>
<path d="M458.27 1062.42L460.75 1061.78C460.798 1061.77 460.842 1061.75 460.881 1061.72C460.92 1061.68 460.952 1061.65 460.977 1061.6C461.001 1061.56 461.016 1061.51 461.022 1061.47C461.028 1061.42 461.024 1061.37 461.01 1061.32C460.997 1061.27 460.975 1061.23 460.945 1061.19C460.915 1061.15 460.877 1061.12 460.835 1061.09C460.792 1061.07 460.745 1061.05 460.696 1061.05C460.647 1061.04 460.597 1061.05 460.55 1061.06L458.08 1061.7C458.033 1061.71 457.988 1061.73 457.95 1061.76C457.911 1061.79 457.878 1061.83 457.853 1061.87C457.829 1061.91 457.813 1061.96 457.806 1062.01C457.8 1062.06 457.803 1062.11 457.815 1062.15C457.828 1062.2 457.849 1062.25 457.879 1062.29C457.908 1062.32 457.945 1062.36 457.988 1062.38C458.03 1062.41 458.077 1062.42 458.125 1062.43C458.173 1062.44 458.223 1062.43 458.27 1062.42Z" fill="#7B3232"/>
<path d="M464.72 1062.43L466.92 1061.84C467.009 1061.81 467.082 1061.74 467.125 1061.66C467.168 1061.57 467.178 1061.48 467.153 1061.38C467.128 1061.29 467.07 1061.21 466.99 1061.16C466.91 1061.11 466.813 1061.09 466.72 1061.11L464.52 1061.71C464.424 1061.74 464.343 1061.8 464.295 1061.89C464.246 1061.97 464.233 1062.07 464.26 1062.17C464.286 1062.27 464.35 1062.35 464.436 1062.4C464.522 1062.44 464.624 1062.46 464.72 1062.43V1062.43Z" fill="#7B3232"/>
<path d="M467.77 1029.5L468.21 1031.69C468.236 1031.79 468.299 1031.87 468.385 1031.92C468.471 1031.97 468.573 1031.98 468.67 1031.96C468.767 1031.93 468.849 1031.87 468.897 1031.78C468.946 1031.69 468.958 1031.59 468.93 1031.49L468.5 1029.3C468.467 1029.21 468.402 1029.14 468.317 1029.09C468.233 1029.05 468.135 1029.04 468.044 1029.07C467.952 1029.09 467.873 1029.15 467.823 1029.23C467.772 1029.31 467.753 1029.41 467.77 1029.5V1029.5Z" fill="#7B3232"/>
<path d="M468.93 1037.6C468.963 1038.32 469.126 1039.03 469.41 1039.7C469.435 1039.74 469.468 1039.78 469.507 1039.81C469.546 1039.84 469.59 1039.86 469.638 1039.87C469.685 1039.88 469.735 1039.89 469.783 1039.88C469.831 1039.87 469.878 1039.86 469.92 1039.83C470.003 1039.78 470.064 1039.7 470.09 1039.6C470.116 1039.51 470.105 1039.41 470.06 1039.32V1039.25C470.062 1039.22 470.062 1039.18 470.06 1039.15L469.98 1038.91L469.86 1038.47C469.86 1038.4 469.86 1038.32 469.86 1038.25C469.86 1038.18 469.86 1038.17 469.86 1038.13C469.86 1038.09 469.86 1038.01 469.86 1038.13C469.86 1037.97 469.86 1037.8 469.86 1037.64C469.861 1037.59 469.853 1037.54 469.835 1037.5C469.817 1037.45 469.79 1037.41 469.755 1037.37C469.721 1037.34 469.679 1037.31 469.634 1037.29C469.588 1037.27 469.539 1037.26 469.49 1037.26C469.39 1037.26 469.295 1037.3 469.224 1037.37C469.153 1037.44 469.112 1037.54 469.11 1037.64L468.93 1037.6Z" fill="#7B3232"/>
<path d="M470.1 1044.88L470.25 1045.76C470.278 1045.85 470.342 1045.93 470.427 1045.98C470.513 1046.03 470.615 1046.04 470.71 1046.02C470.802 1045.99 470.881 1045.93 470.93 1045.85C470.964 1045.76 470.964 1045.65 470.93 1045.56L470.78 1044.68C470.754 1044.58 470.694 1044.5 470.61 1044.45C470.517 1044.41 470.413 1044.41 470.32 1044.45C470.273 1044.46 470.23 1044.48 470.192 1044.51C470.154 1044.54 470.123 1044.58 470.1 1044.62C470.065 1044.71 470.065 1044.82 470.1 1044.91V1044.88Z" fill="#7B3232"/>
<path d="M471 1050.15L471.3 1051.76C471.327 1051.86 471.39 1051.94 471.476 1051.99C471.562 1052.03 471.665 1052.05 471.76 1052.02C471.855 1051.99 471.937 1051.93 471.985 1051.84C472.034 1051.76 472.047 1051.66 472.02 1051.56L471.72 1049.95C471.707 1049.9 471.685 1049.86 471.655 1049.82C471.625 1049.78 471.587 1049.75 471.545 1049.72C471.502 1049.7 471.455 1049.68 471.406 1049.68C471.357 1049.67 471.307 1049.68 471.26 1049.69C471.167 1049.72 471.088 1049.78 471.04 1049.87C470.992 1049.95 470.978 1050.05 471 1050.15V1050.15Z" fill="#7B3232"/>
<path d="M471.71 1055.28L471.86 1056.15C471.871 1056.2 471.892 1056.24 471.921 1056.28C471.95 1056.32 471.987 1056.36 472.03 1056.38C472.076 1056.4 472.125 1056.41 472.175 1056.41C472.225 1056.41 472.274 1056.4 472.32 1056.38C472.367 1056.37 472.411 1056.34 472.449 1056.31C472.486 1056.28 472.517 1056.24 472.54 1056.2V1056.11C472.56 1056.05 472.56 1055.98 472.54 1055.92L472.4 1055.04C472.37 1054.94 472.306 1054.86 472.22 1054.81C472.126 1054.78 472.024 1054.78 471.93 1054.81C471.837 1054.84 471.758 1054.9 471.71 1054.99V1055.08C471.69 1055.15 471.69 1055.21 471.71 1055.28V1055.28Z" fill="#7B3232"/>
<path d="M472.31 1066.89L472.47 1068.35C472.471 1068.45 472.511 1068.55 472.58 1068.62C472.651 1068.69 472.743 1068.73 472.84 1068.73C472.94 1068.73 473.035 1068.69 473.106 1068.62C473.177 1068.55 473.218 1068.45 473.22 1068.35L473.06 1066.89C473.054 1066.79 473.015 1066.7 472.95 1066.62C472.875 1066.55 472.78 1066.51 472.68 1066.51C472.581 1066.51 472.487 1066.55 472.418 1066.62C472.349 1066.7 472.31 1066.79 472.31 1066.89V1066.89Z" fill="#7B3232"/>
<path d="M472.17 1074.17L472.31 1074.75C472.34 1074.84 472.399 1074.92 472.48 1074.98C472.574 1075.01 472.676 1075.01 472.77 1074.98C472.865 1074.95 472.948 1074.89 473 1074.81C473.034 1074.72 473.034 1074.61 473 1074.52L472.85 1073.94C472.825 1073.84 472.764 1073.76 472.68 1073.71C472.586 1073.68 472.484 1073.68 472.39 1073.71C472.294 1073.74 472.212 1073.8 472.16 1073.89C472.125 1073.98 472.125 1074.09 472.16 1074.18L472.17 1074.17Z" fill="#7B3232"/>
<path d="M472.89 1080.17L473.19 1081.64C473.218 1081.73 473.282 1081.81 473.367 1081.86C473.453 1081.91 473.555 1081.92 473.65 1081.9C473.743 1081.87 473.822 1081.81 473.87 1081.72C473.918 1081.64 473.932 1081.54 473.91 1081.44L473.62 1079.97C473.592 1079.88 473.528 1079.8 473.443 1079.75C473.357 1079.7 473.255 1079.69 473.16 1079.71C473.065 1079.74 472.984 1079.8 472.934 1079.89C472.884 1079.97 472.868 1080.07 472.89 1080.17V1080.17Z" fill="#7B3232"/>
<path d="M473.94 1085.44L474.38 1087.2C474.393 1087.25 474.415 1087.29 474.445 1087.33C474.475 1087.37 474.513 1087.4 474.555 1087.43C474.598 1087.45 474.645 1087.47 474.694 1087.47C474.743 1087.48 474.793 1087.47 474.84 1087.46C474.935 1087.43 475.014 1087.37 475.063 1087.28C475.112 1087.2 475.125 1087.1 475.1 1087L474.66 1085.24C474.647 1085.19 474.625 1085.15 474.595 1085.11C474.565 1085.07 474.527 1085.04 474.485 1085.01C474.442 1084.99 474.394 1084.97 474.346 1084.97C474.297 1084.96 474.247 1084.97 474.2 1084.98C474.105 1085.01 474.025 1085.07 473.977 1085.16C473.928 1085.24 473.915 1085.34 473.94 1085.44V1085.44Z" fill="#7B3232"/>
<path d="M474.66 1090.72L474.95 1092.72C474.978 1092.81 475.042 1092.89 475.127 1092.94C475.213 1092.99 475.315 1093 475.41 1092.98C475.503 1092.95 475.582 1092.89 475.63 1092.8C475.678 1092.72 475.692 1092.62 475.67 1092.52L475.38 1090.52C475.354 1090.42 475.291 1090.34 475.205 1090.29C475.119 1090.24 475.017 1090.23 474.92 1090.25C474.825 1090.28 474.745 1090.35 474.696 1090.43C474.648 1090.52 474.635 1090.62 474.66 1090.72V1090.72Z" fill="#7B3232"/>
<path d="M475.38 1095.7L475.69 1097.45C475.703 1097.5 475.725 1097.54 475.755 1097.58C475.785 1097.62 475.823 1097.65 475.865 1097.68C475.908 1097.7 475.955 1097.72 476.004 1097.72C476.053 1097.73 476.103 1097.72 476.15 1097.71C476.197 1097.7 476.242 1097.68 476.281 1097.65C476.32 1097.61 476.352 1097.58 476.377 1097.53C476.401 1097.49 476.416 1097.44 476.422 1097.4C476.428 1097.35 476.424 1097.3 476.41 1097.25L476.1 1095.5C476.087 1095.45 476.065 1095.41 476.034 1095.37C476.004 1095.33 475.967 1095.3 475.924 1095.27C475.881 1095.25 475.834 1095.24 475.785 1095.23C475.737 1095.22 475.687 1095.23 475.64 1095.24C475.593 1095.25 475.548 1095.28 475.51 1095.31C475.471 1095.34 475.439 1095.37 475.415 1095.42C475.391 1095.46 475.375 1095.51 475.369 1095.55C475.363 1095.6 475.367 1095.65 475.38 1095.7V1095.7Z" fill="#7B3232"/>
<path d="M388.42 1099.48L390.61 1098.89C390.658 1098.88 390.702 1098.86 390.741 1098.83C390.78 1098.79 390.812 1098.76 390.837 1098.71C390.861 1098.67 390.876 1098.62 390.882 1098.58C390.888 1098.53 390.884 1098.48 390.87 1098.43C390.857 1098.38 390.835 1098.34 390.805 1098.3C390.775 1098.26 390.737 1098.23 390.695 1098.2C390.652 1098.18 390.605 1098.16 390.556 1098.16C390.507 1098.15 390.457 1098.16 390.41 1098.17L388.22 1098.75C388.124 1098.78 388.041 1098.84 387.991 1098.92C387.94 1099.01 387.926 1099.11 387.95 1099.21C387.98 1099.31 388.045 1099.39 388.132 1099.44C388.219 1099.49 388.322 1099.5 388.42 1099.48V1099.48Z" fill="#7B3232"/>
<path d="M396 1099.44H396.07H396.16L396.39 1099.37C396.537 1099.32 396.687 1099.29 396.84 1099.27H397H397.24H397.72C397.818 1099.27 397.912 1099.23 397.982 1099.16C398.051 1099.09 398.09 1099 398.09 1098.9C398.09 1098.8 398.051 1098.71 397.982 1098.63C397.913 1098.56 397.819 1098.52 397.72 1098.52C397.004 1098.46 396.284 1098.58 395.63 1098.88C395.587 1098.9 395.549 1098.94 395.519 1098.97C395.488 1099.01 395.466 1099.06 395.453 1099.11C395.44 1099.15 395.436 1099.2 395.443 1099.25C395.449 1099.3 395.465 1099.35 395.49 1099.39C395.544 1099.47 395.627 1099.53 395.724 1099.56C395.821 1099.58 395.923 1099.57 396.01 1099.52L396 1099.44Z" fill="#7B3232"/>
<path d="M402.91 1099L404.67 1098.56C404.717 1098.55 404.761 1098.52 404.8 1098.49C404.839 1098.46 404.871 1098.43 404.895 1098.38C404.919 1098.34 404.935 1098.29 404.941 1098.25C404.947 1098.2 404.943 1098.15 404.93 1098.1C404.917 1098.05 404.895 1098.01 404.864 1097.97C404.834 1097.93 404.797 1097.9 404.754 1097.87C404.711 1097.85 404.664 1097.83 404.615 1097.83C404.567 1097.82 404.517 1097.83 404.47 1097.84L402.71 1098.28C402.615 1098.31 402.535 1098.37 402.487 1098.46C402.438 1098.54 402.425 1098.64 402.45 1098.74C402.478 1098.83 402.542 1098.91 402.627 1098.96C402.713 1099.01 402.815 1099.02 402.91 1099V1099Z" fill="#7B3232"/>
<path d="M409.36 1099.17L411.55 1098.74C411.599 1098.73 411.645 1098.71 411.685 1098.67C411.725 1098.64 411.758 1098.61 411.783 1098.56C411.809 1098.52 411.825 1098.47 411.831 1098.42C411.837 1098.37 411.834 1098.32 411.82 1098.27C411.788 1098.18 411.722 1098.1 411.635 1098.05C411.548 1098 411.447 1097.99 411.35 1098.01L409.16 1098.44C409.064 1098.47 408.981 1098.53 408.931 1098.61C408.88 1098.7 408.866 1098.8 408.89 1098.9C408.92 1099 408.985 1099.08 409.072 1099.13C409.159 1099.18 409.262 1099.19 409.36 1099.17V1099.17Z" fill="#7B3232"/>
<path d="M416.83 1099.47L418.15 1099.04C418.243 1099.01 418.322 1098.95 418.37 1098.86C418.418 1098.78 418.432 1098.68 418.41 1098.58C418.397 1098.53 418.375 1098.49 418.345 1098.45C418.315 1098.41 418.277 1098.38 418.235 1098.35C418.192 1098.33 418.144 1098.31 418.096 1098.31C418.047 1098.3 417.997 1098.31 417.95 1098.32L416.63 1098.74C416.535 1098.77 416.454 1098.83 416.404 1098.92C416.354 1099 416.338 1099.1 416.36 1099.2C416.39 1099.3 416.455 1099.38 416.542 1099.43C416.629 1099.48 416.732 1099.49 416.83 1099.47V1099.47Z" fill="#7B3232"/>
<path d="M423.32 1099.06L426.83 1098.62C426.93 1098.62 427.025 1098.58 427.096 1098.51C427.167 1098.44 427.207 1098.34 427.21 1098.24C427.21 1098.19 427.2 1098.14 427.181 1098.1C427.162 1098.05 427.134 1098.01 427.098 1097.97C427.063 1097.94 427.021 1097.91 426.975 1097.9C426.929 1097.88 426.879 1097.87 426.83 1097.87L423.32 1098.31C423.266 1098.3 423.21 1098.3 423.157 1098.32C423.104 1098.33 423.055 1098.36 423.013 1098.4C422.971 1098.43 422.937 1098.48 422.914 1098.53C422.891 1098.58 422.879 1098.63 422.879 1098.69C422.879 1098.74 422.891 1098.79 422.914 1098.84C422.937 1098.89 422.971 1098.94 423.013 1098.97C423.055 1099.01 423.104 1099.04 423.157 1099.05C423.21 1099.07 423.266 1099.07 423.32 1099.06V1099.06Z" fill="#7B3232"/>
<path d="M430 1098.74L432.63 1098.29C432.719 1098.26 432.792 1098.19 432.835 1098.11C432.878 1098.02 432.889 1097.93 432.863 1097.83C432.838 1097.74 432.78 1097.66 432.7 1097.61C432.62 1097.56 432.523 1097.54 432.43 1097.56L429.8 1098.02C429.752 1098.03 429.708 1098.05 429.669 1098.08C429.63 1098.12 429.598 1098.15 429.573 1098.2C429.549 1098.24 429.534 1098.29 429.528 1098.33C429.522 1098.38 429.526 1098.43 429.54 1098.48C429.57 1098.57 429.634 1098.65 429.719 1098.7C429.804 1098.75 429.905 1098.76 430 1098.74V1098.74Z" fill="#7B3232"/>
<path d="M436.76 1099C438.17 1098.72 439.6 1098.49 441.04 1098.34C441.138 1098.33 441.231 1098.29 441.3 1098.22C441.368 1098.15 441.408 1098.06 441.41 1097.96C441.41 1097.78 441.24 1097.56 441.04 1097.59C439.53 1097.75 438.04 1097.98 436.56 1098.28C436.09 1098.37 436.29 1099.09 436.76 1099V1099Z" fill="#7B3232"/>
<path d="M444.65 1098.59L446.12 1098.3C446.215 1098.27 446.296 1098.21 446.345 1098.12C446.394 1098.04 446.406 1097.94 446.38 1097.84C446.353 1097.74 446.29 1097.66 446.204 1097.61C446.118 1097.57 446.015 1097.55 445.92 1097.58L444.45 1097.87C444.355 1097.9 444.275 1097.96 444.227 1098.05C444.178 1098.13 444.165 1098.23 444.19 1098.33C444.218 1098.42 444.282 1098.5 444.367 1098.55C444.453 1098.6 444.555 1098.61 444.65 1098.59V1098.59Z" fill="#7B3232"/>
<path d="M451.38 1099L454.91 1098.33C454.957 1098.32 455.001 1098.29 455.04 1098.26C455.079 1098.23 455.111 1098.2 455.135 1098.15C455.159 1098.11 455.175 1098.06 455.181 1098.02C455.187 1097.97 455.183 1097.92 455.17 1097.87C455.157 1097.82 455.134 1097.78 455.104 1097.74C455.074 1097.7 455.036 1097.67 454.994 1097.64C454.951 1097.62 454.904 1097.6 454.855 1097.6C454.807 1097.59 454.757 1097.6 454.71 1097.61L451.18 1098.27C451.085 1098.3 451.005 1098.36 450.957 1098.45C450.908 1098.53 450.895 1098.63 450.92 1098.73C450.948 1098.82 451.011 1098.91 451.097 1098.96C451.182 1099.01 451.283 1099.02 451.38 1099V1099Z" fill="#7B3232"/>
<path d="M458.17 1098.76C459.042 1098.8 459.911 1098.62 460.7 1098.25C460.743 1098.23 460.781 1098.19 460.811 1098.16C460.842 1098.12 460.864 1098.07 460.877 1098.02C460.89 1097.98 460.894 1097.93 460.887 1097.88C460.881 1097.83 460.865 1097.78 460.84 1097.74C460.788 1097.65 460.705 1097.59 460.608 1097.57C460.511 1097.54 460.408 1097.55 460.32 1097.6C459.985 1097.75 459.632 1097.87 459.27 1097.94H459.13H459.06H458.77H458.17C458.081 1097.95 458 1098 457.942 1098.07C457.883 1098.14 457.851 1098.22 457.851 1098.31C457.851 1098.4 457.883 1098.49 457.942 1098.56C458 1098.63 458.081 1098.68 458.17 1098.69V1098.76Z" fill="#7B3232"/>
<path d="M463.89 1098.75C464.508 1098.78 465.124 1098.66 465.69 1098.41C465.773 1098.36 465.834 1098.28 465.86 1098.19C465.894 1098.1 465.894 1097.99 465.86 1097.9C465.809 1097.82 465.732 1097.75 465.64 1097.72C465.546 1097.69 465.444 1097.69 465.35 1097.72H465.3H465.22L465.02 1097.79L464.65 1097.87H464.56H464.37H463.96C463.91 1097.87 463.861 1097.88 463.815 1097.9C463.768 1097.92 463.727 1097.95 463.691 1097.98C463.656 1098.02 463.628 1098.06 463.609 1098.1C463.59 1098.15 463.58 1098.2 463.58 1098.25C463.583 1098.35 463.624 1098.44 463.695 1098.51C463.766 1098.58 463.861 1098.62 463.96 1098.62L463.89 1098.75Z" fill="#7B3232"/>
<path d="M468.87 1099.07C469.798 1099.06 470.718 1098.89 471.59 1098.57C471.637 1098.56 471.682 1098.53 471.72 1098.5C471.759 1098.47 471.791 1098.44 471.815 1098.39C471.839 1098.35 471.855 1098.3 471.861 1098.26C471.867 1098.21 471.863 1098.16 471.85 1098.11C471.837 1098.06 471.815 1098.02 471.784 1097.98C471.754 1097.94 471.717 1097.91 471.674 1097.88C471.631 1097.86 471.584 1097.85 471.535 1097.84C471.487 1097.83 471.437 1097.84 471.39 1097.85C470.583 1098.15 469.731 1098.31 468.87 1098.32C468.771 1098.32 468.676 1098.36 468.605 1098.43C468.534 1098.5 468.493 1098.59 468.49 1098.69C468.493 1098.79 468.533 1098.89 468.604 1098.96C468.675 1099.03 468.77 1099.07 468.87 1099.07V1099.07Z" fill="#7B3232"/>
<path d="M397.55 1026.23C397.57 1026.47 397.57 1026.7 397.55 1026.94V1026.94C397.55 1026.94 397.55 1027.01 397.55 1027.04V1027.2C397.55 1027.32 397.49 1027.44 397.45 1027.56C397.436 1027.61 397.432 1027.66 397.438 1027.71C397.444 1027.75 397.459 1027.8 397.483 1027.84C397.508 1027.89 397.54 1027.92 397.579 1027.96C397.618 1027.99 397.663 1028.01 397.71 1028.02C397.805 1028.04 397.904 1028.02 397.989 1027.98C398.074 1027.93 398.138 1027.85 398.17 1027.76C398.337 1027.27 398.402 1026.75 398.36 1026.23C398.355 1026.13 398.316 1026.04 398.25 1025.97C398.216 1025.93 398.174 1025.9 398.127 1025.89C398.08 1025.87 398.03 1025.86 397.98 1025.86C397.882 1025.86 397.788 1025.9 397.718 1025.97C397.649 1026.04 397.61 1026.13 397.61 1026.23H397.55Z" fill="#7B3232"/>
<path d="M446 1027.11C445.379 1024.95 445.334 1022.66 445.87 1020.47C446.467 1018.38 447.848 1016.6 449.725 1015.51C451.602 1014.42 453.828 1014.09 455.94 1014.6C457.315 1014.85 458.624 1015.39 459.788 1016.16C460.951 1016.94 461.945 1017.94 462.71 1019.11C464.08 1021.34 463.82 1023.31 463.49 1026.4C463.38 1027.4 461.37 1027.25 460.84 1026.73C460.31 1026.21 460.97 1025.31 460.84 1023.31C460.866 1022.25 460.573 1021.2 460 1020.31C459.21 1019.31 458 1018.96 456.26 1018.51C455.294 1018.19 454.276 1018.06 453.26 1018.12C452.519 1018.16 451.793 1018.35 451.125 1018.67C450.457 1019 449.86 1019.45 449.37 1020.01C448.508 1021.29 448.188 1022.86 448.48 1024.38C448.74 1026 449.48 1026.67 449.13 1027.23C448.78 1027.79 446.31 1028.3 446 1027.11Z" fill="#FBB264" stroke="#010101" stroke-miterlimit="10"/>
<path d="M394.88 1027.85C394.248 1025.69 394.204 1023.4 394.75 1021.21C395.393 1019.13 396.768 1017.35 398.62 1016.21C400.505 1015.17 402.706 1014.85 404.81 1015.31C406.186 1015.56 407.496 1016.1 408.662 1016.87C409.827 1017.65 410.823 1018.65 411.59 1019.82C412.95 1022.05 412.69 1024.02 412.36 1027.11C412.25 1028.11 410.24 1027.96 409.71 1027.43C409.18 1026.9 409.84 1026.02 409.71 1024.01C409.736 1022.95 409.447 1021.91 408.88 1021.01C408.09 1020.01 406.88 1019.66 405.13 1019.21C404.166 1018.88 403.146 1018.75 402.13 1018.82C401.39 1018.86 400.665 1019.05 399.998 1019.37C399.332 1019.7 398.737 1020.15 398.25 1020.71C397.818 1021.34 397.517 1022.05 397.364 1022.81C397.211 1023.56 397.21 1024.33 397.36 1025.08C397.62 1026.7 398.36 1027.36 398.01 1027.93C397.66 1028.5 395.19 1029 394.88 1027.85Z" fill="#FBB264" stroke="#010101" stroke-miterlimit="10"/>
<path d="M398.69 1021.35C396.07 1021.18 396.16 1016 395.84 1014.24C395.11 1010.24 396.13 1007.72 397.78 1001.24C399.94 992.73 399.07 993.58 400.47 989.44C401.87 985.3 403.29 981.1 406.75 976.89C410.214 972.543 414.877 969.307 420.16 967.581C425.444 965.856 431.118 965.716 436.48 967.18C442.775 968.966 448.293 972.802 452.16 978.08C455.76 982.85 457.28 987.93 458.44 991.83C459.27 994.146 459.821 996.553 460.08 999C460.26 1001.66 460.69 1010.14 461.2 1011.31C461.57 1012.16 462.2 1013.1 461.88 1013.79C460.65 1016.58 461.43 1020.58 459.63 1020.79C454.83 1021.4 450.93 1019.96 449.63 1020.04C448.5 1020.12 450.86 1018.17 450.68 1016.31C450.54 1014.8 448.61 1014.45 448.74 1013.17C449.11 1009.53 450.99 1005.73 451.28 998.53C451.329 995.829 450.871 993.142 449.93 990.61C448.766 986.421 446.497 982.621 443.36 979.61C440.047 976.383 435.762 974.34 431.169 973.797C426.577 973.255 421.933 974.243 417.96 976.61C410.96 980.89 406.26 989.93 407.05 997.97C407.67 1004.24 410.13 1012.13 409.3 1014.71C409.16 1015.12 408.23 1015.32 407.8 1016.2C406.96 1017.9 408.95 1019.87 407.8 1020.38C405.57 1021.35 401.91 1021.55 398.69 1021.35Z" fill="#B83138" stroke="#010101" stroke-miterlimit="10"/>
<path d="M396.44 1027.62C397.24 1025.72 396.86 1025.14 397.44 1024.4C398.02 1023.66 399.07 1023.68 403.53 1023.74C407.77 1023.8 408.74 1023.74 409.14 1024.46C409.72 1025.46 408.37 1026.65 408.85 1028.66C409.026 1029.36 409.369 1030 409.85 1030.54C410.034 1030.75 410.143 1031.02 410.16 1031.3L411.02 1044.94C411.038 1045.12 411.018 1045.3 410.959 1045.48C410.9 1045.65 410.805 1045.81 410.68 1045.94L400.09 1057.23C399.949 1057.38 399.774 1057.5 399.579 1057.56C399.384 1057.63 399.176 1057.65 398.972 1057.62C398.767 1057.59 398.573 1057.52 398.406 1057.39C398.238 1057.27 398.102 1057.11 398.01 1056.93L390.54 1042.3C390.46 1042.15 390.412 1041.98 390.398 1041.81C390.384 1041.64 390.405 1041.46 390.46 1041.3C392.6 1034.3 394 1031.42 394.92 1030.16C395.528 1029.38 396.039 1028.53 396.44 1027.62V1027.62Z" fill="#AF2E3B" stroke="#010101" stroke-miterlimit="10"/>
<path d="M461.48 1027.62C460.68 1025.72 461.07 1025.14 460.48 1024.4C459.89 1023.66 458.84 1023.68 454.38 1023.74C450.14 1023.8 449.17 1023.74 448.77 1024.46C448.19 1025.46 449.54 1026.65 449.06 1028.66C448.884 1029.36 448.541 1030 448.06 1030.54C447.876 1030.75 447.767 1031.02 447.75 1031.3L446.89 1044.94C446.874 1045.12 446.896 1045.3 446.955 1045.48C447.013 1045.65 447.107 1045.81 447.23 1045.94L457.82 1057.23C457.961 1057.38 458.136 1057.5 458.331 1057.56C458.526 1057.63 458.734 1057.65 458.938 1057.62C459.143 1057.59 459.337 1057.52 459.504 1057.39C459.672 1057.27 459.807 1057.11 459.9 1056.93L467.37 1042.3C467.45 1042.15 467.498 1041.98 467.512 1041.81C467.526 1041.64 467.505 1041.46 467.45 1041.3C465.31 1034.3 463.91 1031.42 462.99 1030.16C462.385 1029.38 461.878 1028.52 461.48 1027.62V1027.62Z" fill="#AF2E3B" stroke="#010101" stroke-miterlimit="10"/>
<path opacity="0.2" d="M394.08 1026.5C394.29 1028.94 396.08 1031.84 397.86 1035.44C400.71 1041.25 412.1 1064.52 435.72 1076.44C454.72 1086.03 473.19 1082.63 476.82 1095.5C477.2 1097.06 477.474 1098.64 477.64 1100.24H380.18C381.68 1088.24 383.48 1076.55 384.98 1064.6C384.53 1064.29 384.2 1063.9 383.75 1063.6C385.45 1051.36 386.84 1038.79 388.54 1026.54C390.43 1026.47 392.19 1026.55 394.08 1026.5Z" fill="#171717"/>
<path d="M397.72 1025.59L397.55 1026.4C397.516 1026.49 397.516 1026.6 397.55 1026.69C397.599 1026.77 397.678 1026.83 397.77 1026.86C397.816 1026.88 397.865 1026.89 397.915 1026.89C397.965 1026.89 398.014 1026.88 398.06 1026.86C398.143 1026.81 398.204 1026.73 398.23 1026.64L398.4 1025.83C398.435 1025.74 398.435 1025.64 398.4 1025.55C398.377 1025.51 398.346 1025.47 398.309 1025.44C398.271 1025.41 398.227 1025.38 398.18 1025.37C398.087 1025.33 397.983 1025.33 397.89 1025.37C397.807 1025.42 397.746 1025.5 397.72 1025.59V1025.59Z" fill="#7B3232"/>
<path d="M396.89 1029C396.77 1029.23 396.637 1029.46 396.49 1029.68C396.422 1029.79 396.349 1029.89 396.27 1029.99V1029.99L396.2 1030.08L396.07 1030.23C396.001 1030.3 395.961 1030.4 395.96 1030.5C395.96 1030.55 395.97 1030.6 395.988 1030.64C396.007 1030.69 396.035 1030.73 396.07 1030.76C396.141 1030.83 396.236 1030.87 396.335 1030.87C396.434 1030.87 396.529 1030.83 396.6 1030.76C396.987 1030.33 397.323 1029.86 397.6 1029.36C397.648 1029.27 397.66 1029.17 397.634 1029.07C397.608 1028.98 397.546 1028.89 397.46 1028.84C397.373 1028.79 397.272 1028.78 397.177 1028.81C397.081 1028.83 397 1028.9 396.95 1028.98L396.89 1029Z" fill="#7B3232"/>
<path d="M394.92 1032L394.22 1033.07C394.195 1033.11 394.178 1033.16 394.171 1033.21C394.164 1033.26 394.166 1033.3 394.179 1033.35C394.191 1033.4 394.212 1033.44 394.241 1033.48C394.271 1033.52 394.308 1033.56 394.35 1033.58C394.435 1033.63 394.536 1033.64 394.631 1033.62C394.726 1033.59 394.808 1033.53 394.86 1033.45L395.57 1032.38C395.616 1032.29 395.627 1032.19 395.601 1032.09C395.575 1032 395.514 1031.91 395.43 1031.86C395.343 1031.81 395.242 1031.8 395.147 1031.83C395.051 1031.85 394.97 1031.92 394.92 1032V1032Z" fill="#7B3232"/>
<path d="M393.78 1035.38L393.33 1036.38C393.296 1036.47 393.296 1036.58 393.33 1036.67C393.341 1036.72 393.362 1036.76 393.391 1036.8C393.42 1036.84 393.457 1036.88 393.5 1036.9C393.594 1036.93 393.696 1036.93 393.79 1036.9C393.837 1036.89 393.881 1036.86 393.919 1036.83C393.956 1036.8 393.988 1036.76 394.01 1036.72L394.46 1035.72C394.494 1035.63 394.494 1035.52 394.46 1035.43C394.435 1035.33 394.374 1035.25 394.29 1035.2C394.197 1035.16 394.093 1035.16 394 1035.2C393.907 1035.23 393.828 1035.29 393.78 1035.38Z" fill="#7B3232"/>
<path d="M392.4 1039.2L392.22 1040.2C392.191 1040.29 392.191 1040.4 392.22 1040.49C392.276 1040.57 392.357 1040.63 392.45 1040.66C392.543 1040.7 392.647 1040.7 392.74 1040.66C392.821 1040.61 392.881 1040.53 392.91 1040.44L393.08 1039.44C393.115 1039.35 393.115 1039.24 393.08 1039.15C393.028 1039.07 392.945 1039.01 392.85 1038.98C392.804 1038.96 392.755 1038.95 392.705 1038.95C392.655 1038.95 392.606 1038.96 392.56 1038.98C392.517 1039 392.48 1039.04 392.451 1039.08C392.422 1039.12 392.401 1039.16 392.39 1039.21L392.4 1039.2Z" fill="#7B3232"/>
<path d="M392.8 1043.58L393.16 1044.2C393.183 1044.24 393.214 1044.28 393.252 1044.31C393.29 1044.34 393.333 1044.36 393.38 1044.37C393.425 1044.39 393.475 1044.4 393.525 1044.4C393.575 1044.4 393.625 1044.39 393.67 1044.37C393.712 1044.35 393.749 1044.32 393.779 1044.28C393.808 1044.24 393.829 1044.2 393.84 1044.15C393.86 1044.1 393.87 1044.05 393.87 1044C393.87 1043.96 393.86 1043.91 393.84 1043.86L393.49 1043.24C393.438 1043.16 393.355 1043.1 393.26 1043.07C393.216 1043.05 393.169 1043.04 393.12 1043.04C393.071 1043.04 393.024 1043.05 392.98 1043.07C392.895 1043.12 392.831 1043.2 392.8 1043.29C392.766 1043.38 392.766 1043.49 392.8 1043.58Z" fill="#7B3232"/>
<path d="M395.21 1048.91L395.66 1049.79C395.711 1049.87 395.788 1049.94 395.88 1049.97C395.974 1050 396.076 1050 396.17 1049.97C396.253 1049.92 396.314 1049.84 396.34 1049.74C396.366 1049.65 396.355 1049.55 396.31 1049.46L395.85 1048.57C395.827 1048.53 395.796 1048.49 395.758 1048.46C395.72 1048.43 395.677 1048.41 395.63 1048.4C395.585 1048.38 395.535 1048.37 395.485 1048.37C395.435 1048.37 395.385 1048.38 395.34 1048.4C395.298 1048.42 395.261 1048.46 395.231 1048.5C395.202 1048.54 395.181 1048.58 395.168 1048.63C395.156 1048.68 395.154 1048.72 395.161 1048.77C395.168 1048.82 395.185 1048.87 395.21 1048.91V1048.91Z" fill="#7B3232"/>
<path d="M397.07 1052.47L397.42 1053.27C397.472 1053.35 397.555 1053.41 397.65 1053.44C397.744 1053.47 397.846 1053.47 397.94 1053.44C398.023 1053.39 398.084 1053.31 398.11 1053.22V1053.12C398.114 1053.05 398.096 1052.99 398.06 1052.93L397.71 1052.13C397.658 1052.05 397.575 1051.99 397.48 1051.96C397.434 1051.94 397.385 1051.93 397.335 1051.93C397.285 1051.93 397.236 1051.94 397.19 1051.96C397.106 1052.01 397.046 1052.09 397.02 1052.19V1052.29C397.016 1052.36 397.034 1052.42 397.07 1052.48V1052.47Z" fill="#7B3232"/>
<path d="M399.3 1055.32C399.746 1055.02 400.113 1054.62 400.37 1054.15C400.405 1054.07 400.408 1053.97 400.379 1053.88C400.35 1053.8 400.29 1053.72 400.211 1053.68C400.131 1053.63 400.038 1053.61 399.948 1053.63C399.858 1053.65 399.777 1053.7 399.72 1053.77C399.639 1053.91 399.549 1054.05 399.45 1054.18L399.51 1054.11C399.361 1054.3 399.189 1054.47 399 1054.62L399.08 1054.56L398.93 1054.67C398.846 1054.72 398.783 1054.8 398.75 1054.89C398.716 1054.98 398.716 1055.09 398.75 1055.18C398.8 1055.26 398.881 1055.33 398.977 1055.35C399.072 1055.38 399.173 1055.37 399.26 1055.32H399.3Z" fill="#7B3232"/>
<path d="M403.06 1052.38L403.86 1051.23C403.894 1051.14 403.894 1051.03 403.86 1050.94C403.829 1050.85 403.765 1050.77 403.68 1050.72C403.638 1050.69 403.592 1050.68 403.543 1050.67C403.495 1050.66 403.445 1050.67 403.398 1050.68C403.35 1050.69 403.306 1050.71 403.267 1050.74C403.228 1050.77 403.195 1050.81 403.17 1050.85L402.37 1052C402.336 1052.09 402.336 1052.2 402.37 1052.29C402.386 1052.36 402.425 1052.43 402.481 1052.48C402.537 1052.53 402.608 1052.57 402.683 1052.58C402.759 1052.59 402.835 1052.57 402.903 1052.54C402.97 1052.5 403.025 1052.45 403.06 1052.38V1052.38Z" fill="#7B3232"/>
<path d="M406.25 1049.18L407.14 1047.84C407.165 1047.8 407.181 1047.75 407.187 1047.7C407.194 1047.65 407.19 1047.6 407.177 1047.56C407.164 1047.51 407.142 1047.46 407.111 1047.42C407.081 1047.39 407.043 1047.35 407 1047.33C406.913 1047.28 406.812 1047.27 406.717 1047.3C406.621 1047.32 406.54 1047.38 406.49 1047.47L405.6 1048.8C405.575 1048.84 405.559 1048.89 405.553 1048.94C405.546 1048.99 405.55 1049.04 405.563 1049.08C405.576 1049.13 405.598 1049.18 405.629 1049.22C405.659 1049.25 405.697 1049.29 405.74 1049.31C405.826 1049.36 405.926 1049.37 406.02 1049.34C406.115 1049.32 406.197 1049.26 406.25 1049.18V1049.18Z" fill="#7B3232"/>
<path d="M409 1045.62L409.17 1044.91C409.19 1044.86 409.201 1044.81 409.201 1044.77C409.201 1044.72 409.19 1044.67 409.17 1044.62C409.118 1044.54 409.035 1044.48 408.94 1044.45C408.894 1044.43 408.845 1044.42 408.795 1044.42C408.745 1044.42 408.696 1044.43 408.65 1044.45C408.566 1044.5 408.506 1044.58 408.48 1044.68L408.31 1045.39C408.276 1045.48 408.276 1045.59 408.31 1045.68C408.333 1045.72 408.364 1045.76 408.402 1045.79C408.44 1045.82 408.483 1045.84 408.53 1045.85C408.576 1045.87 408.625 1045.88 408.675 1045.88C408.725 1045.88 408.774 1045.87 408.82 1045.85C408.862 1045.83 408.899 1045.8 408.929 1045.76C408.958 1045.72 408.979 1045.68 408.99 1045.63L409 1045.62Z" fill="#7B3232"/>
<path d="M408.5 1037.8C408.559 1038.01 408.602 1038.23 408.63 1038.45V1038.35C408.645 1038.58 408.645 1038.8 408.63 1039.03C408.621 1039.08 408.624 1039.14 408.639 1039.19C408.654 1039.25 408.68 1039.3 408.715 1039.34C408.751 1039.38 408.795 1039.41 408.845 1039.44C408.895 1039.46 408.95 1039.47 409.005 1039.47C409.06 1039.47 409.115 1039.46 409.165 1039.44C409.215 1039.41 409.259 1039.38 409.295 1039.34C409.33 1039.3 409.356 1039.25 409.371 1039.19C409.386 1039.14 409.389 1039.08 409.38 1039.03C409.387 1038.55 409.323 1038.06 409.19 1037.6C409.177 1037.55 409.155 1037.51 409.124 1037.47C409.094 1037.43 409.057 1037.4 409.014 1037.37C408.971 1037.35 408.924 1037.33 408.875 1037.33C408.827 1037.32 408.777 1037.33 408.73 1037.34C408.683 1037.35 408.638 1037.38 408.6 1037.41C408.561 1037.44 408.529 1037.47 408.505 1037.52C408.481 1037.56 408.465 1037.61 408.459 1037.65C408.453 1037.7 408.457 1037.75 408.47 1037.8H408.5Z" fill="#7B3232"/>
<path d="M408.85 1041.18C408.889 1041.31 408.92 1041.44 408.94 1041.57V1041.47C408.955 1041.61 408.955 1041.74 408.94 1041.88C408.945 1041.98 408.984 1042.07 409.05 1042.14C409.085 1042.18 409.127 1042.2 409.173 1042.22C409.22 1042.24 409.27 1042.25 409.32 1042.25C409.369 1042.25 409.418 1042.25 409.463 1042.23C409.508 1042.21 409.548 1042.18 409.58 1042.14C409.615 1042.11 409.643 1042.07 409.662 1042.02C409.68 1041.98 409.69 1041.93 409.69 1041.88C409.71 1041.58 409.669 1041.27 409.57 1040.98C409.542 1040.89 409.478 1040.81 409.393 1040.76C409.307 1040.71 409.205 1040.7 409.11 1040.72C409.063 1040.73 409.02 1040.75 408.982 1040.78C408.944 1040.81 408.913 1040.85 408.89 1040.89C408.87 1040.94 408.86 1040.99 408.86 1041.04C408.86 1041.08 408.87 1041.13 408.89 1041.18H408.85Z" fill="#7B3232"/>
<path d="M408.31 1034.06V1034.41C408.292 1034.46 408.292 1034.51 408.31 1034.56C408.326 1034.61 408.353 1034.65 408.39 1034.68C408.422 1034.71 408.464 1034.74 408.51 1034.75C408.556 1034.76 408.604 1034.76 408.65 1034.75H408.75C408.811 1034.73 408.869 1034.7 408.92 1034.66L408.97 1034.58C409.009 1034.52 409.03 1034.46 409.03 1034.39V1034.04C409.045 1033.99 409.045 1033.94 409.03 1033.89C409.019 1033.84 408.995 1033.8 408.96 1033.77C408.925 1033.74 408.884 1033.71 408.84 1033.69H408.69H408.59C408.528 1033.71 408.473 1033.74 408.43 1033.79L408.37 1033.87C408.332 1033.93 408.315 1033.99 408.32 1034.06H408.31Z" fill="#7B3232"/>
<path d="M407.63 1031L407.89 1031.8C407.918 1031.89 407.982 1031.97 408.067 1032.02C408.153 1032.07 408.255 1032.08 408.35 1032.06C408.397 1032.05 408.44 1032.03 408.478 1032C408.516 1031.97 408.547 1031.93 408.57 1031.89C408.59 1031.84 408.6 1031.79 408.6 1031.75C408.6 1031.7 408.59 1031.65 408.57 1031.6L408.31 1030.8C408.281 1030.71 408.221 1030.63 408.14 1030.57C408.047 1030.53 407.943 1030.53 407.85 1030.57C407.755 1030.6 407.672 1030.66 407.62 1030.74C407.6 1030.79 407.59 1030.84 407.59 1030.89C407.59 1030.93 407.6 1030.98 407.62 1031.03L407.63 1031Z" fill="#7B3232"/>
<path d="M407 1027.39V1028.63C406.991 1028.68 406.994 1028.74 407.009 1028.79C407.024 1028.85 407.05 1028.9 407.085 1028.94C407.121 1028.98 407.165 1029.01 407.215 1029.04C407.265 1029.06 407.32 1029.07 407.375 1029.07C407.43 1029.07 407.485 1029.06 407.535 1029.04C407.585 1029.01 407.629 1028.98 407.665 1028.94C407.7 1028.9 407.726 1028.85 407.741 1028.79C407.756 1028.74 407.759 1028.68 407.75 1028.63V1027.39C407.75 1027.29 407.711 1027.2 407.642 1027.12C407.573 1027.05 407.479 1027.01 407.38 1027.01C407.28 1027.01 407.185 1027.05 407.114 1027.12C407.043 1027.19 407.003 1027.29 407 1027.39V1027.39Z" fill="#7B3232"/>
<path d="M407.16 1024.91L407.25 1025.18C407.261 1025.23 407.285 1025.27 407.32 1025.3C407.343 1025.35 407.382 1025.38 407.43 1025.4C407.473 1025.41 407.517 1025.41 407.56 1025.4C407.609 1025.41 407.66 1025.41 407.71 1025.4H407.8C407.856 1025.37 407.903 1025.32 407.94 1025.27V1025.18C407.95 1025.11 407.95 1025.05 407.94 1024.98L407.85 1024.71C407.837 1024.66 407.813 1024.62 407.78 1024.58C407.753 1024.54 407.715 1024.51 407.67 1024.49C407.628 1024.48 407.582 1024.48 407.54 1024.49C407.491 1024.48 407.439 1024.48 407.39 1024.49H407.3C407.242 1024.52 407.194 1024.56 407.16 1024.62V1024.71C407.15 1024.78 407.15 1024.84 407.16 1024.91V1024.91Z" fill="#7B3232"/>
<path d="M449.57 1025.53C449.599 1025.61 449.62 1025.69 449.63 1025.77V1025.67C449.64 1025.77 449.64 1025.86 449.63 1025.96V1025.86C449.619 1025.95 449.595 1026.04 449.56 1026.13C449.54 1026.18 449.53 1026.23 449.53 1026.28C449.53 1026.33 449.54 1026.37 449.56 1026.42C449.583 1026.46 449.614 1026.5 449.652 1026.53C449.69 1026.56 449.733 1026.58 449.78 1026.59C449.826 1026.61 449.875 1026.62 449.925 1026.62C449.975 1026.62 450.024 1026.61 450.07 1026.59H450.15C450.193 1026.54 450.224 1026.48 450.24 1026.42C450.367 1026.1 450.367 1025.74 450.24 1025.42C450.212 1025.33 450.148 1025.25 450.063 1025.2C449.977 1025.15 449.875 1025.14 449.78 1025.16C449.733 1025.17 449.69 1025.19 449.652 1025.22C449.614 1025.25 449.583 1025.29 449.56 1025.33C449.522 1025.42 449.522 1025.53 449.56 1025.62L449.57 1025.53Z" fill="#7B3232"/>
<path d="M449.82 1027.92C449.83 1028.05 449.83 1028.17 449.82 1028.3V1028.2C449.793 1028.41 449.739 1028.61 449.66 1028.8C449.626 1028.89 449.626 1029 449.66 1029.09C449.708 1029.17 449.787 1029.23 449.88 1029.26C449.926 1029.28 449.975 1029.29 450.025 1029.29C450.075 1029.29 450.124 1029.28 450.17 1029.26L450.25 1029.2C450.298 1029.16 450.332 1029.1 450.35 1029.04C450.483 1028.7 450.548 1028.33 450.54 1027.96C450.537 1027.86 450.498 1027.77 450.429 1027.7C450.36 1027.63 450.267 1027.59 450.17 1027.59C450.071 1027.59 449.976 1027.63 449.905 1027.7C449.834 1027.77 449.793 1027.86 449.79 1027.96L449.82 1027.92Z" fill="#7B3232"/>
<path d="M448.6 1032V1031.9C448.61 1031.96 448.61 1032.02 448.6 1032.08V1031.98C448.591 1032.05 448.57 1032.11 448.54 1032.17V1032.08C448.518 1032.14 448.487 1032.19 448.45 1032.24L448.51 1032.16L448.45 1032.22C448.38 1032.29 448.34 1032.39 448.34 1032.49C448.34 1032.54 448.35 1032.59 448.368 1032.63C448.387 1032.68 448.415 1032.72 448.45 1032.75C448.484 1032.79 448.526 1032.82 448.573 1032.83C448.62 1032.85 448.67 1032.86 448.72 1032.86C448.769 1032.86 448.817 1032.85 448.862 1032.83C448.907 1032.82 448.947 1032.79 448.98 1032.75C449.108 1032.63 449.202 1032.47 449.25 1032.3C449.277 1032.22 449.294 1032.13 449.3 1032.04C449.305 1031.95 449.305 1031.86 449.3 1031.77C449.283 1031.72 449.259 1031.68 449.23 1031.64C449.203 1031.6 449.165 1031.57 449.12 1031.55C449.078 1031.52 449.031 1031.51 448.983 1031.5C448.935 1031.49 448.885 1031.5 448.838 1031.51C448.79 1031.52 448.746 1031.54 448.707 1031.57C448.668 1031.6 448.635 1031.64 448.61 1031.68V1031.77C448.59 1031.84 448.59 1031.9 448.61 1031.97L448.6 1032Z" fill="#7B3232"/>
<path d="M448.49 1035.22L448.58 1035.76C448.587 1035.81 448.612 1035.85 448.65 1035.88C448.673 1035.92 448.707 1035.96 448.75 1035.98C448.796 1035.99 448.844 1035.99 448.89 1035.98C448.963 1035.99 449.036 1035.98 449.102 1035.95C449.168 1035.91 449.223 1035.86 449.26 1035.8V1035.71C449.28 1035.64 449.28 1035.57 449.26 1035.51L449.17 1034.97C449.162 1034.92 449.141 1034.88 449.11 1034.85C449.081 1034.81 449.043 1034.77 449 1034.75C448.954 1034.74 448.906 1034.74 448.86 1034.75C448.811 1034.74 448.759 1034.74 448.71 1034.75C448.618 1034.78 448.539 1034.84 448.49 1034.92V1035.01C448.47 1035.07 448.47 1035.14 448.49 1035.21V1035.22Z" fill="#7B3232"/>
<path d="M448.57 1038.5L448.48 1039.5C448.485 1039.6 448.524 1039.69 448.59 1039.76C448.625 1039.8 448.667 1039.82 448.713 1039.84C448.76 1039.86 448.81 1039.87 448.86 1039.87C448.909 1039.87 448.958 1039.87 449.003 1039.85C449.048 1039.83 449.088 1039.8 449.12 1039.76C449.156 1039.73 449.185 1039.69 449.204 1039.64C449.223 1039.6 449.232 1039.55 449.23 1039.5L449.32 1038.5C449.321 1038.45 449.312 1038.4 449.294 1038.35C449.275 1038.31 449.246 1038.26 449.21 1038.23C449.139 1038.16 449.047 1038.12 448.95 1038.12C448.85 1038.13 448.755 1038.16 448.68 1038.23C448.615 1038.31 448.576 1038.4 448.57 1038.5Z" fill="#7B3232"/>
<path d="M448.13 1042.41L448.04 1043.83C448.031 1043.88 448.034 1043.94 448.049 1043.99C448.064 1044.05 448.09 1044.1 448.125 1044.14C448.161 1044.18 448.205 1044.21 448.255 1044.24C448.305 1044.26 448.36 1044.27 448.415 1044.27C448.47 1044.27 448.525 1044.26 448.575 1044.24C448.625 1044.21 448.669 1044.18 448.705 1044.14C448.74 1044.1 448.766 1044.05 448.781 1043.99C448.796 1043.94 448.799 1043.88 448.79 1043.83L448.88 1042.41C448.88 1042.31 448.841 1042.22 448.772 1042.15C448.702 1042.08 448.608 1042.04 448.51 1042.04C448.412 1042.04 448.318 1042.08 448.247 1042.15C448.177 1042.22 448.135 1042.31 448.13 1042.41V1042.41Z" fill="#7B3232"/>
<path d="M448.59 1046.15L449.29 1046.78C449.362 1046.85 449.459 1046.89 449.56 1046.89C449.609 1046.89 449.657 1046.88 449.701 1046.86C449.746 1046.84 449.786 1046.81 449.82 1046.78C449.856 1046.75 449.885 1046.71 449.904 1046.66C449.923 1046.62 449.932 1046.57 449.93 1046.52C449.932 1046.47 449.923 1046.42 449.904 1046.37C449.886 1046.33 449.857 1046.28 449.82 1046.25L449.12 1045.62C449.044 1045.56 448.95 1045.52 448.85 1045.51C448.802 1045.51 448.753 1045.52 448.709 1045.54C448.664 1045.56 448.624 1045.59 448.59 1045.62C448.553 1045.65 448.525 1045.7 448.506 1045.74C448.487 1045.79 448.478 1045.84 448.48 1045.89C448.478 1045.94 448.487 1045.99 448.506 1046.03C448.525 1046.08 448.554 1046.12 448.59 1046.15V1046.15Z" fill="#7B3232"/>
<path d="M451.43 1049L451.61 1049.13L451.54 1049.07C451.735 1049.22 451.91 1049.4 452.06 1049.6L452 1049.52C452.099 1049.65 452.189 1049.79 452.27 1049.93C452.327 1050 452.408 1050.05 452.498 1050.07C452.588 1050.09 452.681 1050.07 452.761 1050.02C452.84 1049.98 452.9 1049.9 452.929 1049.82C452.958 1049.73 452.955 1049.63 452.92 1049.55C452.654 1049.07 452.273 1048.65 451.81 1048.35C451.724 1048.3 451.621 1048.28 451.523 1048.31C451.426 1048.33 451.342 1048.39 451.29 1048.48C451.242 1048.57 451.23 1048.67 451.256 1048.77C451.282 1048.86 451.344 1048.95 451.43 1049V1049Z" fill="#7B3232"/>
<path d="M454.37 1052.19C454.673 1052.48 455.009 1052.74 455.37 1052.96C455.457 1053.01 455.558 1053.02 455.653 1052.99C455.749 1052.97 455.83 1052.9 455.88 1052.82C455.928 1052.73 455.942 1052.63 455.918 1052.54C455.893 1052.44 455.833 1052.36 455.75 1052.31C455.61 1052.22 455.47 1052.13 455.34 1052.03L455.42 1052.09C455.247 1051.96 455.084 1051.81 454.93 1051.66C454.859 1051.59 454.764 1051.55 454.665 1051.55C454.566 1051.55 454.471 1051.59 454.4 1051.66C454.333 1051.73 454.296 1051.83 454.296 1051.92C454.296 1052.02 454.333 1052.12 454.4 1052.19H454.37Z" fill="#7B3232"/>
<path d="M457.75 1055L458.38 1055.71C458.414 1055.74 458.454 1055.77 458.499 1055.79C458.543 1055.81 458.592 1055.82 458.64 1055.82C458.741 1055.82 458.837 1055.78 458.91 1055.71C458.945 1055.68 458.974 1055.63 458.993 1055.59C459.012 1055.54 459.022 1055.49 459.022 1055.44C459.022 1055.4 459.012 1055.35 458.993 1055.3C458.974 1055.26 458.945 1055.21 458.91 1055.18L458.29 1054.47C458.217 1054.4 458.121 1054.36 458.02 1054.36C457.919 1054.36 457.823 1054.4 457.75 1054.47C457.684 1054.54 457.645 1054.63 457.64 1054.73C457.649 1054.83 457.687 1054.92 457.75 1055V1055Z" fill="#7B3232"/>
<path d="M459.81 1052.54L459.44 1053.54C459.405 1053.63 459.405 1053.73 459.44 1053.82C459.492 1053.91 459.574 1053.97 459.67 1054C459.76 1054.03 459.86 1054.03 459.95 1054C460.031 1053.95 460.094 1053.87 460.13 1053.78L460.49 1052.78C460.51 1052.73 460.52 1052.68 460.52 1052.64C460.52 1052.59 460.51 1052.54 460.49 1052.49C460.467 1052.45 460.436 1052.41 460.398 1052.38C460.36 1052.35 460.317 1052.33 460.27 1052.32C460.224 1052.3 460.175 1052.29 460.125 1052.29C460.075 1052.29 460.026 1052.3 459.98 1052.32C459.897 1052.37 459.836 1052.45 459.81 1052.54V1052.54Z" fill="#7B3232"/>
<path d="M461.73 1049.17C461.735 1049.23 461.735 1049.28 461.73 1049.34V1049.24C461.722 1049.33 461.698 1049.41 461.66 1049.49V1049.4C461.632 1049.48 461.592 1049.55 461.54 1049.61L461.6 1049.53C461.582 1049.56 461.558 1049.59 461.53 1049.61C461.464 1049.68 461.425 1049.78 461.42 1049.88C461.42 1049.93 461.43 1049.98 461.448 1050.02C461.467 1050.07 461.495 1050.11 461.53 1050.14C461.564 1050.18 461.606 1050.21 461.653 1050.22C461.7 1050.24 461.75 1050.25 461.8 1050.25C461.849 1050.25 461.897 1050.24 461.942 1050.22C461.987 1050.21 462.028 1050.18 462.06 1050.14C462.195 1050 462.298 1049.83 462.36 1049.65C462.387 1049.59 462.404 1049.53 462.41 1049.46C462.42 1049.36 462.42 1049.27 462.41 1049.17C462.414 1049.09 462.394 1049.02 462.353 1048.96C462.313 1048.89 462.254 1048.84 462.184 1048.81C462.114 1048.78 462.037 1048.77 461.963 1048.79C461.889 1048.81 461.822 1048.84 461.77 1048.9C461.733 1048.93 461.705 1048.98 461.686 1049.02C461.667 1049.07 461.658 1049.12 461.66 1049.17H461.73Z" fill="#7B3232"/>
<path d="M463.47 1046L462.95 1047C462.915 1047.09 462.915 1047.2 462.95 1047.29C462.976 1047.39 463.036 1047.47 463.12 1047.52C463.207 1047.57 463.308 1047.58 463.403 1047.55C463.499 1047.53 463.58 1047.47 463.63 1047.38L464.15 1046.38C464.188 1046.29 464.188 1046.18 464.15 1046.09C464.121 1046 464.061 1045.92 463.98 1045.86C463.892 1045.81 463.789 1045.8 463.692 1045.83C463.595 1045.85 463.512 1045.91 463.46 1046H463.47Z" fill="#7B3232"/>
<path d="M464.76 1043.2C464.738 1043.27 464.711 1043.34 464.68 1043.41V1043.32C464.592 1043.52 464.481 1043.72 464.35 1043.9L464.4 1043.82C464.363 1043.85 464.336 1043.89 464.32 1043.94C464.306 1043.99 464.306 1044.04 464.32 1044.09C464.32 1044.14 464.329 1044.19 464.348 1044.23C464.367 1044.28 464.395 1044.32 464.43 1044.35C464.462 1044.39 464.503 1044.42 464.548 1044.43C464.593 1044.45 464.641 1044.46 464.69 1044.46C464.74 1044.46 464.79 1044.45 464.837 1044.43C464.884 1044.42 464.925 1044.39 464.96 1044.35C465.077 1044.21 465.181 1044.05 465.27 1043.89C465.354 1043.73 465.425 1043.56 465.48 1043.38C465.515 1043.29 465.515 1043.18 465.48 1043.09C465.428 1043.01 465.345 1042.95 465.25 1042.92C465.155 1042.9 465.053 1042.91 464.967 1042.96C464.882 1043.01 464.818 1043.09 464.79 1043.18L464.76 1043.2Z" fill="#7B3232"/>
<path d="M465.78 1040.53C465.693 1040.67 465.619 1040.81 465.56 1040.96C465.511 1041.11 465.478 1041.27 465.46 1041.43C465.46 1041.53 465.5 1041.63 465.57 1041.7C465.641 1041.77 465.733 1041.81 465.83 1041.81C465.93 1041.8 466.025 1041.77 466.1 1041.7L466.16 1041.62C466.175 1041.56 466.175 1041.49 466.16 1041.43V1041.51C466.177 1041.37 466.214 1041.24 466.27 1041.11V1041.2C466.313 1041.1 466.367 1041 466.43 1040.91C466.465 1040.82 466.465 1040.71 466.43 1040.62C466.401 1040.53 466.341 1040.45 466.26 1040.4C466.167 1040.36 466.063 1040.36 465.97 1040.4H465.88C465.824 1040.43 465.777 1040.48 465.74 1040.53H465.78Z" fill="#7B3232"/>
<path d="M459 1025.53L459.26 1026.6C459.288 1026.69 459.352 1026.77 459.437 1026.82C459.523 1026.87 459.625 1026.88 459.72 1026.86C459.816 1026.83 459.899 1026.77 459.949 1026.69C460 1026.6 460.014 1026.5 459.99 1026.4L459.72 1025.33C459.707 1025.28 459.685 1025.24 459.654 1025.2C459.624 1025.16 459.587 1025.13 459.544 1025.1C459.501 1025.08 459.454 1025.06 459.405 1025.06C459.357 1025.05 459.307 1025.06 459.26 1025.07C459.213 1025.08 459.168 1025.11 459.13 1025.14C459.091 1025.17 459.059 1025.2 459.035 1025.25C459.011 1025.29 458.995 1025.34 458.989 1025.38C458.983 1025.43 458.987 1025.48 459 1025.53V1025.53Z" fill="#7B3232"/>
<path d="M460.4 1029.09C460.581 1029.72 460.926 1030.3 461.4 1030.76C461.435 1030.8 461.477 1030.82 461.524 1030.84C461.57 1030.86 461.62 1030.87 461.67 1030.87C461.72 1030.87 461.77 1030.86 461.816 1030.84C461.863 1030.82 461.905 1030.8 461.94 1030.76C462.007 1030.69 462.044 1030.59 462.044 1030.49C462.044 1030.4 462.007 1030.3 461.94 1030.23C461.833 1030.13 461.732 1030.03 461.64 1029.92C461.64 1029.92 461.64 1029.86 461.64 1029.92L461.58 1029.84L461.46 1029.66C461.39 1029.54 461.34 1029.4 461.27 1029.28C461.27 1029.28 461.27 1029.34 461.27 1029.28C461.27 1029.28 461.27 1029.21 461.27 1029.17L461.21 1028.96C461.177 1028.87 461.112 1028.8 461.027 1028.75C460.943 1028.71 460.845 1028.7 460.754 1028.73C460.662 1028.75 460.583 1028.81 460.533 1028.89C460.482 1028.97 460.463 1029.07 460.48 1029.16L460.4 1029.09Z" fill="#7B3232"/>
<path d="M462.63 1032.91L463.08 1033.98C463.109 1034.07 463.169 1034.15 463.25 1034.2C463.296 1034.22 463.345 1034.23 463.395 1034.23C463.445 1034.23 463.494 1034.22 463.54 1034.2C463.632 1034.17 463.711 1034.11 463.76 1034.03C463.781 1033.98 463.793 1033.94 463.793 1033.89C463.793 1033.83 463.781 1033.79 463.76 1033.74L463.31 1032.67C463.284 1032.57 463.22 1032.49 463.134 1032.44C463.048 1032.4 462.946 1032.38 462.85 1032.41C462.755 1032.44 462.674 1032.5 462.625 1032.59C462.576 1032.67 462.564 1032.77 462.59 1032.87L462.63 1032.91Z" fill="#7B3232"/>
<path d="M464 1036.47L464.36 1037.36C464.389 1037.45 464.45 1037.53 464.53 1037.58C464.576 1037.6 464.625 1037.61 464.675 1037.61C464.725 1037.61 464.774 1037.6 464.82 1037.58C464.916 1037.55 464.998 1037.49 465.05 1037.4C465.07 1037.36 465.08 1037.31 465.08 1037.26C465.08 1037.21 465.07 1037.16 465.05 1037.12L464.7 1036.23C464.671 1036.14 464.611 1036.06 464.53 1036C464.436 1035.97 464.334 1035.97 464.24 1036C464.143 1036.03 464.06 1036.09 464.01 1036.18C463.96 1036.27 463.945 1036.37 463.97 1036.47H464Z" fill="#7B3232"/>
<path d="M465 1039L465.09 1039.53C465.099 1039.58 465.124 1039.63 465.16 1039.66C465.183 1039.7 465.218 1039.73 465.26 1039.75C465.306 1039.76 465.354 1039.76 465.4 1039.75C465.449 1039.76 465.501 1039.76 465.55 1039.75C465.643 1039.72 465.724 1039.66 465.78 1039.58V1039.49C465.8 1039.42 465.8 1039.36 465.78 1039.29L465.69 1038.76C465.683 1038.71 465.662 1038.67 465.63 1038.63C465.601 1038.59 465.563 1038.56 465.52 1038.53C465.474 1038.52 465.426 1038.52 465.38 1038.53H465.23C465.137 1038.56 465.058 1038.62 465.01 1038.71V1038.8C464.99 1038.87 464.99 1038.93 465.01 1039H465Z" fill="#7B3232"/>
<path d="M388.55 1032.84L388.33 1034.64C388.33 1034.69 388.34 1034.74 388.359 1034.79C388.378 1034.83 388.406 1034.87 388.441 1034.91C388.477 1034.94 388.518 1034.97 388.565 1034.99C388.611 1035.01 388.66 1035.02 388.71 1035.02C388.809 1035.02 388.903 1034.98 388.972 1034.91C389.041 1034.83 389.08 1034.74 389.08 1034.64L389.3 1032.84C389.3 1032.74 389.261 1032.65 389.192 1032.58C389.122 1032.51 389.028 1032.47 388.93 1032.47C388.832 1032.47 388.738 1032.51 388.667 1032.58C388.597 1032.65 388.555 1032.74 388.55 1032.84Z" fill="#7B3232"/>
<path d="M387.88 1037.78V1038.92C387.88 1039.02 387.919 1039.11 387.988 1039.19C388.057 1039.26 388.151 1039.3 388.25 1039.3C388.35 1039.3 388.445 1039.26 388.516 1039.19C388.587 1039.12 388.627 1039.02 388.63 1038.92V1037.78C388.615 1037.69 388.57 1037.61 388.501 1037.55C388.432 1037.49 388.345 1037.46 388.255 1037.46C388.165 1037.46 388.078 1037.49 388.009 1037.55C387.94 1037.61 387.895 1037.69 387.88 1037.78V1037.78Z" fill="#7B3232"/>
<path d="M387.69 1040.92L387.59 1041.92C387.59 1042.02 387.63 1042.12 387.7 1042.19C387.754 1042.24 387.821 1042.27 387.893 1042.29C387.965 1042.3 388.04 1042.29 388.108 1042.26C388.175 1042.23 388.233 1042.19 388.275 1042.13C388.316 1042.07 388.339 1041.99 388.34 1041.92L388.44 1040.92C388.435 1040.82 388.396 1040.72 388.33 1040.65C388.254 1040.59 388.16 1040.55 388.06 1040.54C387.961 1040.54 387.867 1040.58 387.798 1040.65C387.729 1040.73 387.69 1040.82 387.69 1040.92V1040.92Z" fill="#7B3232"/>
<path d="M387 1045.76V1046.9C387 1046.95 387.01 1047 387.029 1047.05C387.048 1047.09 387.076 1047.13 387.111 1047.17C387.147 1047.2 387.188 1047.23 387.235 1047.25C387.281 1047.27 387.33 1047.28 387.38 1047.28C387.479 1047.28 387.573 1047.24 387.642 1047.17C387.711 1047.09 387.75 1047 387.75 1046.9V1045.76C387.735 1045.67 387.69 1045.59 387.621 1045.53C387.552 1045.47 387.465 1045.44 387.375 1045.44C387.285 1045.44 387.198 1045.47 387.129 1045.53C387.06 1045.59 387.015 1045.67 387 1045.76Z" fill="#7B3232"/>
<path d="M386.55 1049.37V1050.7C386.55 1050.8 386.589 1050.89 386.658 1050.97C386.727 1051.04 386.821 1051.08 386.92 1051.08C387.02 1051.08 387.115 1051.04 387.186 1050.97C387.257 1050.9 387.297 1050.8 387.3 1050.7V1049.37C387.297 1049.27 387.256 1049.18 387.185 1049.11C387.114 1049.04 387.019 1049 386.92 1049C386.823 1049 386.73 1049.04 386.661 1049.11C386.592 1049.18 386.553 1049.27 386.55 1049.37V1049.37Z" fill="#7B3232"/>
<path d="M385.69 1054.41L385.59 1055.84C385.59 1055.94 385.629 1056.03 385.698 1056.1C385.768 1056.17 385.862 1056.21 385.96 1056.21C386.059 1056.21 386.154 1056.17 386.225 1056.1C386.296 1056.03 386.337 1055.94 386.34 1055.84L386.44 1054.41C386.44 1054.36 386.43 1054.31 386.411 1054.27C386.392 1054.22 386.364 1054.18 386.328 1054.14C386.293 1054.11 386.251 1054.08 386.205 1054.07C386.159 1054.05 386.109 1054.04 386.06 1054.04C385.963 1054.04 385.87 1054.08 385.801 1054.15C385.732 1054.22 385.693 1054.31 385.69 1054.41Z" fill="#7B3232"/>
<path d="M385.31 1059.07V1059.54C385.31 1059.64 385.35 1059.74 385.42 1059.81C385.452 1059.84 385.494 1059.87 385.54 1059.88C385.586 1059.89 385.634 1059.89 385.68 1059.88C385.78 1059.88 385.875 1059.84 385.95 1059.77C386.019 1059.7 386.059 1059.6 386.06 1059.5V1059.03C386.06 1058.93 386.02 1058.83 385.95 1058.76C385.916 1058.73 385.875 1058.7 385.83 1058.68C385.781 1058.67 385.729 1058.67 385.68 1058.68C385.583 1058.69 385.492 1058.73 385.42 1058.79C385.351 1058.86 385.311 1058.96 385.31 1059.06V1059.07Z" fill="#7B3232"/>
<path d="M469.58 1062.3C469.77 1062.2 469.97 1062.1 470.18 1062.01H470.09C470.3 1061.92 470.52 1061.84 470.74 1061.77C470.787 1061.76 470.832 1061.74 470.871 1061.71C470.91 1061.68 470.942 1061.64 470.967 1061.59C470.991 1061.55 471.006 1061.5 471.012 1061.46C471.018 1061.41 471.014 1061.36 471 1061.31C470.972 1061.22 470.908 1061.14 470.823 1061.09C470.737 1061.04 470.635 1061.03 470.54 1061.05C470.074 1061.19 469.624 1061.38 469.2 1061.62C469.157 1061.64 469.119 1061.68 469.089 1061.72C469.058 1061.75 469.036 1061.8 469.023 1061.85C469.01 1061.89 469.006 1061.94 469.013 1061.99C469.019 1062.04 469.035 1062.09 469.06 1062.13C469.112 1062.22 469.196 1062.28 469.293 1062.3C469.391 1062.33 469.494 1062.31 469.58 1062.26V1062.3Z" fill="#7B3232"/>
<path d="M471.53 1059.06L471.8 1059.83C471.826 1059.93 471.886 1060.01 471.97 1060.06C472.063 1060.1 472.167 1060.1 472.26 1060.06C472.307 1060.05 472.35 1060.03 472.388 1060C472.426 1059.97 472.457 1059.93 472.48 1059.89C472.5 1059.84 472.511 1059.79 472.511 1059.74C472.511 1059.7 472.5 1059.65 472.48 1059.6L472.22 1058.84C472.189 1058.74 472.126 1058.66 472.04 1058.61C471.996 1058.59 471.948 1058.58 471.9 1058.58C471.852 1058.58 471.804 1058.59 471.76 1058.61C471.712 1058.62 471.667 1058.65 471.627 1058.68C471.588 1058.71 471.555 1058.75 471.53 1058.79C471.495 1058.88 471.495 1058.98 471.53 1059.07V1059.06Z" fill="#7B3232"/>
<path d="M385.31 1065.72V1066.72C385.31 1066.82 385.349 1066.91 385.418 1066.99C385.487 1067.06 385.581 1067.1 385.68 1067.1C385.78 1067.1 385.875 1067.06 385.946 1066.99C386.017 1066.91 386.057 1066.82 386.06 1066.72V1065.72C386.06 1065.62 386.02 1065.52 385.949 1065.45C385.877 1065.38 385.781 1065.34 385.68 1065.34C385.581 1065.34 385.487 1065.38 385.418 1065.45C385.349 1065.53 385.31 1065.62 385.31 1065.72V1065.72Z" fill="#7B3232"/>
<path d="M385.09 1069.32C385.006 1069.73 384.985 1070.15 385.03 1070.56C385.03 1070.66 385.07 1070.76 385.141 1070.83C385.213 1070.9 385.309 1070.94 385.41 1070.94C385.508 1070.94 385.601 1070.9 385.67 1070.83C385.707 1070.8 385.736 1070.75 385.754 1070.71C385.773 1070.66 385.782 1070.61 385.78 1070.56C385.745 1070.26 385.745 1069.96 385.78 1069.66V1069.76C385.785 1069.68 385.785 1069.6 385.78 1069.52C385.815 1069.43 385.815 1069.32 385.78 1069.23C385.728 1069.15 385.645 1069.09 385.55 1069.06C385.503 1069.05 385.453 1069.04 385.404 1069.05C385.355 1069.05 385.308 1069.07 385.265 1069.09C385.223 1069.12 385.185 1069.15 385.155 1069.19C385.125 1069.23 385.103 1069.27 385.09 1069.32V1069.32Z" fill="#7B3232"/>
<path d="M384.83 1072.85L384.74 1074.37C384.755 1074.46 384.8 1074.54 384.869 1074.6C384.938 1074.66 385.025 1074.69 385.115 1074.69C385.205 1074.69 385.292 1074.66 385.361 1074.6C385.43 1074.54 385.475 1074.46 385.49 1074.37L385.58 1072.85C385.581 1072.8 385.573 1072.75 385.555 1072.71C385.537 1072.66 385.51 1072.62 385.475 1072.58C385.441 1072.55 385.399 1072.52 385.354 1072.5C385.308 1072.48 385.259 1072.47 385.21 1072.47C385.111 1072.47 385.017 1072.52 384.947 1072.59C384.876 1072.66 384.835 1072.75 384.83 1072.85V1072.85Z" fill="#7B3232"/>
<path d="M384.38 1076.55L384.2 1077.69C384.17 1077.78 384.17 1077.89 384.2 1077.98C384.248 1078.06 384.327 1078.12 384.42 1078.15C384.466 1078.17 384.515 1078.18 384.565 1078.18C384.615 1078.18 384.664 1078.17 384.71 1078.15C384.796 1078.1 384.86 1078.02 384.89 1077.93L385.06 1076.79C385.095 1076.7 385.095 1076.59 385.06 1076.5C385.008 1076.42 384.925 1076.36 384.83 1076.33C384.736 1076.3 384.634 1076.3 384.54 1076.33C384.457 1076.38 384.396 1076.47 384.37 1076.56L384.38 1076.55Z" fill="#7B3232"/>
<path d="M383.68 1082.53L383.51 1083.67C383.49 1083.72 383.479 1083.77 383.479 1083.81C383.479 1083.86 383.49 1083.91 383.51 1083.96C383.533 1084 383.564 1084.04 383.602 1084.07C383.64 1084.1 383.683 1084.12 383.73 1084.13C383.777 1084.15 383.827 1084.15 383.876 1084.15C383.926 1084.14 383.974 1084.12 384.017 1084.1C384.06 1084.08 384.098 1084.04 384.128 1084C384.157 1083.96 384.179 1083.92 384.19 1083.87L384.37 1082.73C384.4 1082.64 384.4 1082.53 384.37 1082.44C384.318 1082.36 384.235 1082.3 384.14 1082.27C384.096 1082.25 384.048 1082.24 384 1082.24C383.952 1082.24 383.904 1082.25 383.86 1082.27C383.774 1082.32 383.71 1082.4 383.68 1082.49V1082.53Z" fill="#7B3232"/>
<path d="M382.65 1088.15V1089C382.65 1089.1 382.69 1089.2 382.76 1089.27C382.831 1089.34 382.923 1089.38 383.02 1089.38C383.12 1089.38 383.215 1089.34 383.286 1089.27C383.357 1089.2 383.397 1089.1 383.4 1089V1088.15C383.4 1088.05 383.36 1087.95 383.29 1087.88C383.215 1087.81 383.12 1087.77 383.02 1087.77C382.921 1087.77 382.827 1087.81 382.758 1087.88C382.689 1087.96 382.65 1088.05 382.65 1088.15Z" fill="#7B3232"/>
<path d="M382.17 1092.33V1092.8C382.175 1092.9 382.214 1093 382.28 1093.07C382.315 1093.1 382.356 1093.12 382.4 1093.14C382.449 1093.15 382.501 1093.15 382.55 1093.14C382.647 1093.14 382.74 1093.1 382.81 1093.03C382.879 1092.96 382.919 1092.86 382.92 1092.76V1092.29C382.92 1092.19 382.88 1092.09 382.81 1092.02C382.779 1091.98 382.737 1091.95 382.69 1091.94C382.644 1091.93 382.596 1091.93 382.55 1091.94C382.449 1091.94 382.353 1091.98 382.281 1092.05C382.21 1092.12 382.17 1092.22 382.17 1092.32V1092.33Z" fill="#7B3232"/>
<path d="M381.91 1095.65L381.82 1096.31C381.805 1096.36 381.805 1096.41 381.82 1096.46C381.821 1096.51 381.839 1096.56 381.87 1096.6C381.893 1096.64 381.924 1096.68 381.961 1096.71C381.999 1096.74 382.043 1096.77 382.09 1096.78C382.184 1096.81 382.286 1096.81 382.38 1096.78C382.424 1096.76 382.462 1096.72 382.491 1096.68C382.521 1096.64 382.541 1096.6 382.55 1096.55L382.65 1095.89C382.66 1095.84 382.66 1095.79 382.65 1095.74C382.665 1095.69 382.665 1095.65 382.65 1095.6C382.598 1095.52 382.515 1095.46 382.42 1095.43C382.327 1095.39 382.223 1095.39 382.13 1095.43C382.048 1095.48 381.987 1095.56 381.96 1095.65H381.91Z" fill="#7B3232"/>
<path d="M382.36 1099.24L383.31 1098.96C383.405 1098.93 383.487 1098.87 383.54 1098.79C383.57 1098.7 383.57 1098.59 383.54 1098.5C383.51 1098.4 383.444 1098.32 383.357 1098.28C383.269 1098.23 383.167 1098.21 383.07 1098.24L382.12 1098.52C382.029 1098.55 381.951 1098.61 381.9 1098.69C381.88 1098.74 381.87 1098.79 381.87 1098.84C381.87 1098.88 381.88 1098.93 381.9 1098.98C381.928 1099.07 381.992 1099.15 382.077 1099.2C382.163 1099.25 382.265 1099.26 382.36 1099.24V1099.24Z" fill="#7B3232"/>
<path d="M384.93 1099L385.69 1098.81C385.785 1098.78 385.868 1098.72 385.92 1098.64C385.955 1098.55 385.955 1098.44 385.92 1098.35C385.907 1098.3 385.885 1098.26 385.855 1098.22C385.825 1098.18 385.787 1098.15 385.745 1098.12C385.702 1098.1 385.655 1098.08 385.606 1098.08C385.557 1098.07 385.507 1098.08 385.46 1098.09L384.7 1098.27C384.653 1098.28 384.609 1098.31 384.572 1098.34C384.534 1098.37 384.503 1098.41 384.48 1098.45C384.461 1098.49 384.451 1098.54 384.451 1098.59C384.451 1098.64 384.461 1098.69 384.48 1098.73C384.506 1098.83 384.569 1098.91 384.655 1098.96C384.741 1099.01 384.843 1099.02 384.94 1099H384.93Z" fill="#7B3232"/>
<path d="M447.57 973.3C451.97 967.01 440.23 977.41 438.57 970.81C435.57 958.59 451.78 956.58 465.84 966.5C471.24 970.31 474.68 971.58 480.64 974.5C484.25 976.26 482.72 981.82 482.34 984.68" fill="#010101"/>
<path d="M447.57 973.3C451.97 967.01 440.23 977.41 438.57 970.81C435.57 958.59 451.78 956.58 465.84 966.5C471.24 970.31 474.68 971.58 480.64 974.5C484.25 976.26 482.72 981.82 482.34 984.68" stroke="black" stroke-width="4" stroke-miterlimit="10"/>
<path d="M867.57 800.12C891.01 828.56 936.78 873.37 960.17 932.7C986 998.27 984.08 1068.38 985.4 1107" stroke="black" stroke-width="14" stroke-miterlimit="10"/>
<path d="M990.23 1106C1002.67 1131.33 1004.02 1153.78 993.92 1162.06C988.12 1166.82 977.24 1167.96 973.27 1163.54C967.73 1157.37 978.38 1143.47 973.27 1138.46C967.78 1133.08 953.9 1143.99 952.64 1141.27C947.35 1129.84 957.47 1131.51 969.58 1119.27C974.23 1114.57 976.04 1111.38 979.9 1105.99C982.24 1102.72 987.47 1105.14 990.23 1106Z" fill="#010101" stroke="black" stroke-width="4" stroke-miterlimit="10"/>
</svg>
