<svg width="1660" height="1660" viewBox="0 0 1660 1660" fill="none" xmlns="http://www.w3.org/2000/svg">
<path d="M783.17 807.5C759.72 835.94 740.7 880.74 697.17 927.29C634.87 993.85 514.79 995.97 476.89 979.82" stroke="black" stroke-width="14" stroke-miterlimit="10"/>
<path d="M482 985.87C459.07 1002.31 437.15 1007.35 427.31 998.76C421.66 993.82 418.74 983.28 422.45 978.63C427.62 972.15 443.08 980.37 447.19 974.49C451.58 968.19 439.85 978.6 438.19 972C435.19 959.77 451.4 957.77 465.46 967.69C470.86 971.5 474.3 972.77 480.26 975.69C483.89 977.45 482.37 983 482 985.87Z" fill="#010101" stroke="black" stroke-width="4" stroke-miterlimit="10"/>
<path d="M447.2 973.33C447.2 974.71 440.2 977.41 438.61 970.81C435.61 958.59 451.82 956.58 465.88 966.5C471.28 970.31 474.72 971.58 480.68 974.5C484.29 976.26 482.76 981.82 482.38 984.68" fill="#010101"/>
<path d="M447.2 973.33C447.2 974.71 440.2 977.41 438.61 970.81C435.61 958.59 451.82 956.58 465.88 966.5C471.28 970.31 474.72 971.58 480.68 974.5C484.29 976.26 482.76 981.82 482.38 984.68" stroke="black" stroke-width="4" stroke-miterlimit="10"/>
<path d="M427.3 998.76C421.65 993.82 418.73 983.28 422.44 978.63C427.61 972.15 436.66 978.27 443.21 981.18" fill="#010101"/>
<path d="M427.3 998.76C421.65 993.82 418.73 983.28 422.44 978.63C427.61 972.15 436.66 978.27 443.21 981.18" stroke="black" stroke-width="4" stroke-miterlimit="10"/>
<path d="M537.32 772.2L537.16 772.12L536.96 772.02C536.14 771.63 535.3 771.24 534.44 770.87L533.54 770.49L533.38 770.43L532.89 770.23C532.33 770 531.77 769.78 531.19 769.57L530.62 769.36L530.05 769.15L529.5 768.96L528.9 768.75L528.44 768.59L528.24 768.53L527.11 768.16L526.63 768.01H526.51L525.9 767.82L525.29 767.64L524.67 767.46L524.04 767.28L522.25 766.79L520.85 766.44L520.19 766.27L519.53 766.12L518.19 765.81L517.51 765.66L516.93 765.53H516.73L516.14 765.41L514.03 765L513.33 764.87L512.62 764.74L511.19 764.49L509.87 764.28L509 764.15L508.26 764.04L507.52 763.94L506.77 763.84L505.27 763.65L504.51 763.56L503.88 763.48H503.58L502.99 763.42L502.22 763.34L500.93 763.21H500.45H500.31L499.61 763.15H499.33L498.5 763.08H497.88L496.98 763.01H496.39H495.62L494.72 762.95H494.61H493.86H493.36L491.99 762.89H491.52H490.76H489.66H488.75H484.61H482.48H481.4H480.35H480.29H479.29H478.23L477.17 762.95H476.17L474.84 763.03L473.84 763.1H473.77L472.69 763.19C471.97 763.24 471.26 763.3 470.55 763.37H470.46L469.46 763.46H469.4L468.47 763.56H468.36L467.29 763.68L466.29 763.8H466.2L464.15 764.06L463.15 764.21L462.34 764.33L461.34 764.49H460.99L460.14 764.63L459.14 764.8L458.74 764.87L457.17 765.17L455.71 765.45L455.22 765.55L453.79 765.86L453.32 765.96L452.85 766.07L452.38 766.18C451.91 766.28 451.45 766.39 450.99 766.51L450.53 766.62L449.17 766.97L448.72 767.09L448.28 767.21L448.03 767.28H447.91H447.84L446.96 767.53H446.87L445.23 768.02L445.77 767.76L446.32 767.5L446.79 767.27L447.27 767.03L447.75 766.79L448.7 766.31L449.38 765.96L451.12 765.04C452.12 764.52 453.06 763.97 454.04 763.41L455.04 762.83L456.59 761.92L458.16 760.97L459.05 760.42L459.56 760.11L460.96 759.22L461.43 758.91L463.82 757.34L465.42 756.26L466.33 755.63L467.23 755L467.83 754.57C477.92 747.379 487.387 739.35 496.13 730.57C497.13 729.57 498.18 728.5 499.18 727.46C499.44 727.2 499.69 726.94 499.93 726.68L500.08 726.52L500.68 725.89L502.15 724.33C502.33 724.13 502.51 723.93 502.7 723.74L503.59 722.74L504.31 721.95L505.02 721.16L505.72 720.38C505.95 720.11 506.19 719.85 506.42 719.59L507.07 718.84L507.73 718.08L507.92 717.85L508.43 717.26L509.67 715.8L509.77 715.68C509.98 715.43 510.19 715.17 510.41 714.92C511.16 714.02 511.9 713.11 512.63 712.2L513.45 711.2L513.7 710.88C513.89 710.64 514.08 710.41 514.26 710.17L514.84 709.43L515.57 708.43C515.75 708.21 515.92 707.98 516.09 707.75L516.63 707.04L517.28 706.17L517.78 705.51L517.87 705.38L518.44 704.6C519.02 703.81 519.58 703.03 520.14 702.24L520.69 701.46L521.21 700.72L521.74 699.94L522.22 699.23C522.94 698.17 523.64 697.11 524.33 696.05L524.75 695.4L525.75 693.74L526.22 692.97C526.38 692.71 526.54 692.46 526.69 692.2L527.16 691.44L527.59 690.72L528.04 689.95L528.45 689.25L528.92 688.44L529.31 687.75L529.45 687.5L529.77 686.93L530.18 686.18L530.98 684.69L531.38 683.95C531.5 683.7 531.63 683.45 531.76 683.21C531.89 682.97 532.01 682.71 532.14 682.47L532.5 681.73L532.85 681.03L533.69 679.29C533.75 679.14 533.82 679 533.89 678.85C534.39 677.77 534.89 676.7 535.32 675.64C535.39 675.49 535.45 675.34 535.51 675.18L535.71 674.73L536 674C536.26 673.36 536.52 672.73 536.76 672.09C536.76 671.98 536.85 671.86 536.89 671.74C536.93 671.62 537.01 671.44 537.06 671.29C537.11 671.14 537.17 671 537.23 670.85L537.39 670.4C537.39 670.26 537.5 670.11 537.55 669.96L537.7 669.52C537.7 669.4 537.79 669.29 537.83 669.17C537.87 669.05 537.94 668.82 538 668.65L538.14 668.24C538.24 667.94 538.33 667.64 538.43 667.34C529.33 670.22 519.08 675.34 508.43 682.4C496.533 690.383 485.459 699.528 475.37 709.7C474.52 710.56 473.67 711.41 472.84 712.27L472.11 713.02L471.41 713.76L471.2 713.98C471.03 714.16 470.85 714.34 470.68 714.53C470.1 715.14 469.53 715.75 468.96 716.37L468.09 717.31L467.26 718.23L466.44 719.13L466.36 719.23L465.69 719.98L464.74 721.06L463.91 722.01L463.1 722.95L462.29 723.9L461.6 724.72C460.96 725.48 460.34 726.24 459.72 727L459.24 727.59L459.08 727.78L458.57 728.42C457.99 729.15 457.41 729.87 456.85 730.6L456.19 731.44L454.73 733.36L454.42 733.77L454.02 734.31L453.47 735.05L452.64 736.19L452.3 736.66L451.96 737.13L451.63 737.6C451.4 737.91 451.18 738.22 450.96 738.54L450.31 739.47C449.91 740.04 449.53 740.6 449.14 741.17L448.71 741.81L448.34 742.37C448.16 742.63 447.99 742.9 447.81 743.17L447.61 743.47L447.18 744.13L446.86 744.63L446.58 745.06C446.29 745.52 445.99 745.98 445.71 746.44L444.94 747.68C444.63 748.18 444.33 748.68 444.04 749.17C442.2 752.25 440.533 755.273 439.04 758.24C440.273 754.54 441.383 750.607 442.37 746.44V746.38C442.43 746.1 442.5 745.81 442.57 745.52C442.73 744.84 442.88 744.16 443.03 743.52C443.143 743.047 443.243 742.577 443.33 742.11C443.43 741.6 443.54 741.11 443.64 740.59L443.82 739.69C443.88 739.36 443.95 739.03 444.01 738.69C444.01 738.62 444.01 738.56 444.01 738.49C444.01 738.42 444.01 738.44 444.01 738.41L444.16 737.65V737.46C444.23 737.1 444.29 736.74 444.35 736.38C444.42 736.01 444.48 735.63 444.55 735.25C444.62 734.87 444.64 734.67 444.69 734.38C444.69 734.38 444.69 734.31 444.69 734.28C444.69 734.25 444.69 734.23 444.69 734.2" stroke="black" stroke-width="4" stroke-miterlimit="10"/>
<path d="M377.43 865.14L391.14 969.67H391.94H481.28H482.09L495.8 865.14H377.43Z" fill="url(#paint0_linear_1_35649)" stroke="black" stroke-width="4" stroke-miterlimit="10"/>
<path d="M381.34 895.19H491.88L495.8 865.88H377.43L381.34 895.19Z" fill="#735442" stroke="black" stroke-width="4" stroke-miterlimit="10"/>
<path d="M501.27 851.23H372C371.331 851.229 370.671 851.376 370.065 851.659C369.459 851.942 368.923 852.355 368.495 852.868C368.066 853.382 367.756 853.983 367.586 854.63C367.416 855.276 367.39 855.952 367.51 856.61L370.8 874.7C370.994 875.75 371.549 876.698 372.369 877.381C373.189 878.065 374.223 878.439 375.29 878.44H498C499.068 878.443 500.104 878.07 500.925 877.386C501.746 876.702 502.3 875.751 502.49 874.7L505.79 856.61C505.909 855.95 505.881 855.272 505.708 854.624C505.536 853.976 505.223 853.374 504.791 852.86C504.36 852.347 503.821 851.935 503.212 851.653C502.604 851.371 501.941 851.227 501.27 851.23V851.23Z" fill="url(#paint1_linear_1_35649)" stroke="black" stroke-width="4" stroke-miterlimit="10"/>
<path d="M388 975H485.32C485.773 974.992 486.209 974.83 486.558 974.541C486.907 974.252 487.147 973.853 487.24 973.41L490 958.19C490.043 957.91 490.025 957.624 489.949 957.351C489.873 957.079 489.74 956.825 489.558 956.608C489.377 956.39 489.151 956.214 488.896 956.09C488.641 955.966 488.363 955.898 488.08 955.89H385.08C384.797 955.898 384.519 955.966 384.264 956.09C384.009 956.214 383.783 956.39 383.602 956.608C383.42 956.825 383.287 957.079 383.211 957.351C383.135 957.624 383.117 957.91 383.16 958.19L386 973.44C386.091 973.897 386.343 974.306 386.71 974.592C387.077 974.879 387.535 975.023 388 975V975Z" fill="url(#paint2_linear_1_35649)" stroke="black" stroke-width="4" stroke-miterlimit="10"/>
<path d="M425.94 996C420.29 991.06 417.37 978.14 421.08 973.49C426.25 967.01 441.08 976.31 447.67 979.22" fill="#010101"/>
<path d="M425.94 996C420.29 991.06 417.37 978.14 421.08 973.49C426.25 967.01 441.08 976.31 447.67 979.22" stroke="black" stroke-width="4" stroke-miterlimit="10"/>
<path d="M532.58 772.57L532.43 772.5L532.23 772.4C531.46 772.03 530.66 771.66 529.83 771.31L529 771L528.84 770.93L528.37 770.74L526.75 770.11L526.21 769.91L525.66 769.72L525.14 769.53L524.56 769.33L524.12 769.18L523.93 769.12L522.86 768.77L522.39 768.62H522.28L521.7 768.44L521.12 768.26L520.52 768.09L519.93 767.92L518.21 767.46C517.78 767.34 517.33 767.23 516.88 767.12L516.25 766.96L515.62 766.81L514.34 766.52L513.69 766.37L513.14 766.26H512.95L512.39 766.14L510.39 765.74L509.73 765.62L509.05 765.5L507.67 765.27L506.42 765.06L505.59 764.94L504.88 764.84L504.18 764.74L503.46 764.64C502.99 764.58 502.51 764.51 502.03 764.46L501.31 764.37L500.7 764.3H500.41L499.85 764.24L499 764L497.76 763.88H497.31H497.17L496.51 763.82H496.23L495.45 763.75H494.85L493.99 763.69H493.43H492.7H491.84H491.73H491.02H490.54H489.23H488.78H488.05H487.05H486.18H482.23H480.23H479.23H478.23H478.18H477.18H476.18H475.18L474.26 763.74L472.99 763.82L472.04 763.88H471.98L470.98 763.95L468.98 764.13H468.89L467.89 764.22H467.82L466.94 764.31H466.83L465.83 764.42L464.83 764.54H464.74L462.79 764.79L461.79 764.93L461.02 765.04L460.02 765.2H459.68L458.87 765.33L457.87 765.5L457.48 765.56L455.98 765.84L454.59 766.11L454.13 766.21L452.76 766.5L452.31 766.6L451.86 766.7L451.41 766.8L450.09 767.12L449.65 767.23L448.35 767.56L447.92 767.68L447.5 767.79L447.26 767.86H447.15H447.08L446.24 768.1H446.16L444.59 768.57L445.11 768.33L445.63 768.08L446.08 767.85L446.53 767.63L446.99 767.4L447.9 766.94L448.54 766.61L450.2 765.73C451.12 765.23 452.06 764.73 452.99 764.18L453.99 763.62L455.46 762.75L456.96 761.84L457.81 761.31L458.29 761.01C458.74 760.73 459.19 760.45 459.63 760.16L460.08 759.87L462.36 758.37L463.89 757.37L464.76 756.78L465.62 756.18L466.2 755.77C475.827 748.871 484.859 741.178 493.2 732.77C494.18 731.79 495.15 730.79 496.11 729.77L496.83 729.03L496.97 728.88L497.54 728.28C498.01 727.78 498.48 727.28 498.94 726.79L499.46 726.22L500.32 725.29L501 724.54L501.68 723.79L502.35 723.04C502.57 722.79 502.8 722.54 503.01 722.29L503.64 721.58C503.86 721.34 504.06 721.1 504.27 720.85L504.46 720.64L504.95 720.07L506.13 718.68L506.22 718.56L506.83 717.84C507.55 716.98 508.26 716.11 508.95 715.25L509.74 714.25L509.98 713.95L510.51 713.27C510.7 713.04 510.88 712.8 511.06 712.57L511.76 711.67L512.26 711.01L512.77 710.34L513.39 709.51L513.87 708.87C513.894 708.832 513.921 708.795 513.95 708.76L514.5 708C515.05 707.25 515.59 706.5 516.12 705.76L516.65 705.01C516.82 704.78 516.98 704.54 517.15 704.3L517.66 703.56L518.12 702.88C518.81 701.88 519.48 700.88 520.12 699.88L520.52 699.25L521.52 697.67C521.67 697.42 521.83 697.18 521.98 696.94C522.13 696.7 522.28 696.45 522.42 696.2L522.87 695.47L523.28 694.78L523.71 694.05L524.1 693.38L524.55 692.6L524.92 691.95L525.05 691.71C525.16 691.53 525.26 691.34 525.36 691.16L525.75 690.45C526.01 689.97 526.27 689.45 526.52 689.02L526.89 688.31C527.02 688.08 527.14 687.84 527.26 687.61L527.62 686.9C527.74 686.67 527.85 686.44 527.97 686.2L528.3 685.53C528.57 684.98 528.84 684.42 529.1 683.87L529.29 683.45C529.77 682.45 530.23 681.4 530.66 680.39L530.84 679.95C530.9 679.81 530.97 679.66 531.03 679.51C531.09 679.36 531.15 679.22 531.2 679.08C531.45 678.47 531.69 677.86 531.93 677.26L532.05 676.92L532.22 676.5L532.37 676.07C532.37 675.93 532.48 675.79 532.53 675.64L532.68 675.23L532.83 674.8C532.83 674.69 532.91 674.58 532.94 674.47C532.97 674.36 533.06 674.13 533.11 673.97C533.16 673.81 533.2 673.71 533.24 673.58C533.34 673.3 533.43 673.01 533.52 672.73C524.84 675.47 515.05 680.37 504.89 687.09C493.53 694.706 482.957 703.435 473.33 713.15C472.51 713.96 471.71 714.78 470.91 715.6L470.22 716.32C469.99 716.55 469.77 716.79 469.55 717.02L469.35 717.23L468.85 717.75C468.3 718.34 467.75 718.92 467.21 719.51L466.38 720.41L465.58 721.29L464.81 722.15L464.73 722.24L464.09 722.96C463.78 723.3 463.48 723.65 463.18 723.96L462.39 724.86L461.61 725.77L460.85 726.67C460.62 726.93 460.4 727.2 460.18 727.46C459.57 728.18 458.98 728.91 458.39 729.63L458 730L457.85 730.19C457.68 730.39 457.52 730.59 457.36 730.8C456.8 731.49 456.25 732.18 455.71 732.88L455.09 733.68L453.69 735.51L453.4 735.9L453.01 736.42L452.5 737.12L451.7 738.21L451.37 738.66L451.05 739.11L450.73 739.56L450.1 740.45L449.47 741.35L448.37 743L447.96 743.62L447.6 744.15L447.1 744.91L446.91 745.2C446.77 745.41 446.63 745.62 446.5 745.83C446.37 746.04 446.29 746.15 446.19 746.31C446.09 746.47 446.01 746.58 445.93 746.72C445.64 747.16 445.37 747.6 445.09 748.04L444.36 749.22L443.5 750.64C441.74 753.58 440.15 756.467 438.73 759.3C439.9 755.77 440.96 752 441.91 748.04V747.98C441.98 747.71 442.04 747.44 442.1 747.16C442.26 746.51 442.4 745.86 442.55 745.16C442.65 744.72 442.74 744.27 442.84 743.81L443.14 742.36C443.19 742.08 443.25 741.79 443.31 741.51L443.49 740.51C443.485 740.447 443.485 740.383 443.49 740.32C443.49 740.32 443.49 740.27 443.49 740.25C443.54 740 443.58 739.76 443.63 739.52V739.33L443.81 738.33C443.87 737.97 443.94 737.61 444 737.25C444.06 736.89 444.09 736.7 444.14 736.42C444.14 736.42 444.14 736.35 444.14 736.32C444.14 736.29 444.14 736.32 444.14 736.25V736.2V736.07C444.135 736.017 444.135 735.963 444.14 735.91L444.26 735.17C444.26 735.17 444.26 735.08 444.26 735.03C444.265 734.987 444.265 734.943 444.26 734.9C444.26 734.63 444.35 734.36 444.39 734.09V734C444.395 733.917 444.395 733.833 444.39 733.75C444.39 733.52 444.46 733.29 444.49 733.07C444.52 732.85 444.49 732.86 444.54 732.75C444.59 732.64 444.54 732.67 444.54 732.63V732.53L444.6 732.14C444.6 732.14 444.6 732.08 444.6 732.05V731.83C444.6 731.72 444.6 731.62 444.65 731.51C444.65 731.24 444.72 730.97 444.76 730.7L444.85 730.01L444.92 729.51C444.92 729.38 444.92 729.26 444.97 729.13C445.02 729 445.02 728.72 445.04 728.51L445.13 727.76C445.13 727.49 445.2 727.23 445.23 726.96C445.26 726.69 445.31 726.19 445.36 725.8C445.41 725.41 445.43 725.11 445.47 724.8V724.6C445.47 724.21 445.55 723.82 445.58 723.43L445.7 722.22C445.7 721.82 445.77 721.41 445.8 721.01V720.44C445.8 720.25 445.8 720.07 445.8 719.88C445.8 719.69 445.8 719.75 445.8 719.68C445.805 719.634 445.805 719.587 445.8 719.54C445.8 719.23 445.8 718.93 445.87 718.62V718.54C445.87 718.15 445.93 717.76 445.95 717.37C445.95 717 445.95 716.64 446.02 716.28C446.02 716.13 446.02 715.99 446.02 715.85C446.025 715.787 446.025 715.723 446.02 715.66V715.19V715.02C446.02 714.91 446.02 714.8 446.02 714.7C446.02 714.46 446.02 714.21 446.02 713.97V713.92V713.44C446.02 712.72 446.09 712 446.12 711.28C446.12 711.07 446.12 710.87 446.12 710.66C446.12 710.45 446.12 710.23 446.12 710.01C446.125 709.93 446.125 709.85 446.12 709.77V709.65C446.12 709.31 446.12 708.97 446.12 708.65V707.38C446.12 706.97 446.12 706.56 446.12 706.16V705.9C446.12 705.59 446.12 705.27 446.12 704.9V704.58C446.12 704.32 446.12 704.06 446.12 703.8V703.3C446.12 702.93 446.12 702.55 446.12 702.18C446.12 701.81 446.12 701.54 446.12 701.18V700.51C446.12 700.19 446.12 699.87 446.12 699.51C446.12 699.15 446.12 698.71 446.12 698.3C446.115 698.25 446.115 698.2 446.12 698.15C446.12 697.83 446.12 697.51 446.12 697.15V696.71C446.12 696.35 446.12 695.99 446.12 695.63C446.12 695.27 446.12 694.79 446.12 694.36C446.12 693.93 446.12 693.55 446.12 693.15V692.78C446.12 692.46 446.12 692.15 446.12 691.84L446.06 690.58C446.06 690.18 446.06 689.77 445.99 689.37C445.99 688.96 445.94 688.54 445.92 688.13C445.92 687.72 445.92 687.32 445.85 686.92V686.83C445.85 686.44 445.8 686.06 445.77 685.68C445.74 685.3 445.71 684.86 445.67 684.45C445.63 684.04 445.61 683.64 445.57 683.24C445.57 682.84 445.5 682.44 445.47 682.04C445.39 681.24 445.32 680.43 445.23 679.63C445.23 679.28 445.16 678.93 445.12 678.57C445.12 678.5 445.12 678.43 445.12 678.36L445 677.36C445.005 677.334 445.005 677.307 445 677.28C445 676.89 444.91 676.5 444.87 676.12C444.87 675.79 444.79 675.46 444.75 675.12C444.75 675 444.75 674.88 444.75 674.76C444.75 674.43 444.66 674.09 444.62 673.76C444.58 673.43 444.51 672.99 444.46 672.6C444.41 672.21 444.35 671.83 444.29 671.45C444.23 671.07 444.2 670.79 444.15 670.45V670.25V670.07C444.1 669.77 444.06 669.46 444.01 669.15L443.86 668.24V668.02V667.93L443.71 667.04C443.71 667.04 443.71 666.95 443.71 666.9V666.8C443.706 666.753 443.706 666.707 443.71 666.66V666.58C443.71 666.41 443.66 666.24 443.62 666.07C443.624 666.047 443.624 666.023 443.62 666V665.93C443.62 665.84 443.62 665.76 443.62 665.68C443.62 665.68 443.62 665.62 443.62 665.6L443.47 664.76V664.7L443.26 663.6C443.12 662.84 442.96 662.08 442.81 661.32L442.69 660.76C442.62 660.38 442.54 660.01 442.46 659.63L442.34 659.08C442.24 658.62 442.13 658.16 442.03 657.71L441.91 657.17C441.91 657.07 441.91 656.97 441.84 656.87C441.75 656.51 441.67 656.14 441.58 655.78C441.14 653.98 440.68 652.22 440.2 650.5L440.08 650.08V649.92C439.99 649.6 439.89 649.28 439.8 648.92L439.65 648.42C439.55 648.08 439.45 647.75 439.34 647.42C439.11 646.66 438.88 645.91 438.63 645.18C438.58 645.01 438.52 644.84 438.47 644.67C438.27 644.09 438.08 643.51 437.88 642.94C437.83 642.82 437.79 642.69 437.74 642.57C437.69 642.45 437.57 642.07 437.48 641.82L437.36 641.5L437.27 641.24V641.17L437.13 640.81L437.07 640.64C437.07 640.64 437.07 640.64 437.07 640.58L436.98 640.35L436.8 639.88L436.73 639.7L436.66 639.52C436.656 639.5 436.656 639.48 436.66 639.46V639.46L436.57 639.23V639.17L436.51 639.01V638.9V638.81V638.7C436.487 638.659 436.471 638.616 436.46 638.57V638.57L436.32 638.24C436.279 638.124 436.233 638.011 436.18 637.9C436.168 637.858 436.151 637.818 436.13 637.78C436.135 637.764 436.135 637.746 436.13 637.73C436.06 637.55 435.98 637.37 435.91 637.2L435.85 637.06L435.79 636.91L435.61 636.49C435.61 636.4 435.54 636.32 435.5 636.24C435.46 636.16 435.39 635.98 435.33 635.86L435.24 635.64L435.07 635.26L434.96 635.02L434.86 634.8L434.7 634.44V634.37L434.54 634.02L434.37 633.66L434.22 633.35L434.07 633.04L433.79 632.46L433.59 632.07L433.48 631.84L433.39 631.68L433.2 631.3C424.7 647.65 419.2 673.44 419.2 702.45V704.66C419.2 704.97 419.2 705.28 419.2 705.59C419.2 705.9 419.2 705.99 419.2 706.18V707.1C419.2 707.31 419.2 707.52 419.2 707.73C419.2 707.94 419.2 708.1 419.2 708.29C419.2 708.48 419.2 708.6 419.2 708.75C419.2 708.9 419.2 709.05 419.2 709.2V709.3C419.2 709.51 419.2 709.71 419.2 709.91V710.81C419.195 710.857 419.195 710.904 419.2 710.95V710.95C419.2 711.13 419.2 711.31 419.2 711.49V712.33V712.94V713V713.5C419.2 714.16 419.26 714.82 419.3 715.5V715.99V716.48C419.3 716.57 419.3 716.66 419.3 716.75C419.295 716.843 419.295 716.937 419.3 717.03V717.14V717.51C419.3 717.64 419.3 717.76 419.3 717.89L419.36 718.73C419.36 719.08 419.41 719.43 419.44 719.73L419.5 720.43V720.56V720.91C419.495 720.993 419.495 721.077 419.5 721.16V721.58C419.5 721.73 419.5 721.88 419.5 722.03V722.29C419.495 722.37 419.495 722.45 419.5 722.53C419.496 722.593 419.496 722.657 419.5 722.72V723.08V723.22C419.505 723.297 419.505 723.373 419.5 723.45V723.58V723.92C419.495 723.94 419.495 723.96 419.5 723.98V724.05C419.5 724.16 419.5 724.28 419.5 724.4C419.5 724.52 419.5 724.56 419.5 724.65C419.5 724.74 419.5 724.9 419.5 725.02V725.1C419.5 725.33 419.55 725.55 419.57 725.78C419.59 726.01 419.64 726.4 419.67 726.71V726.96C419.67 727.08 419.67 727.2 419.67 727.31V727V727.2C419.676 727.297 419.676 727.393 419.67 727.49L419.76 728.3C419.765 728.34 419.765 728.38 419.76 728.42C419.76 728.48 419.76 728.54 419.76 728.6C419.764 728.657 419.764 728.713 419.76 728.77C419.76 728.94 419.76 729.1 419.83 729.26V729.37C419.825 729.417 419.825 729.464 419.83 729.51C419.83 729.51 419.83 729.6 419.83 729.64L419.92 730.31C419.92 730.31 419.92 730.31 419.92 730.38L419.98 730.84C419.98 731.01 419.98 731.18 420.05 731.35C420.12 731.52 420.05 731.55 420.05 731.65V731.85C420.045 731.923 420.045 731.997 420.05 732.07V732.28V732.53C420.05 732.62 420.05 732.7 420.05 732.78V732.98C420.05 733.16 420.05 733.33 420.13 733.51V733.77C420.13 733.93 420.18 734.1 420.21 734.26C420.24 734.42 420.21 734.42 420.21 734.51C420.21 734.79 420.3 735.07 420.34 735.36V735.46C420.34 735.46 420.34 735.53 420.34 735.56C420.34 735.78 420.41 735.99 420.45 736.21C420.49 736.43 420.51 736.59 420.55 736.78C420.66 737.45 420.77 738.12 420.89 738.78L421.01 739.41C421.08 739.84 421.16 740.26 421.24 740.68L421.36 741.3C421.36 741.51 421.45 741.72 421.49 741.93C421.61 742.55 421.74 743.17 421.87 743.79C421.95 744.2 422.04 744.61 422.13 745.01C422.22 745.41 422.24 745.53 422.3 745.79C422.36 746.05 422.36 746.08 422.4 746.22C422.69 747.54 423 748.83 423.33 750.1C423.39 750.36 423.46 750.63 423.53 750.9C423.6 751.17 423.64 751.32 423.7 751.53L423.85 752.11C423.9 752.3 423.95 752.49 424.01 752.68C424.59 754.8 425.2 756.86 425.86 758.85C425.86 759 425.95 759.14 426 759.28L425.9 759.08C425.3 757.9 424.67 756.71 424.02 755.51C416.59 741.89 405.4 727.03 391.29 712.93C390.42 712.05 389.54 711.19 388.67 710.34L388.14 709.83L387.14 708.83C386.43 708.15 385.71 707.48 384.99 706.83C384.82 706.66 384.64 706.5 384.46 706.34L383.93 705.85L383.4 705.37C383.05 705.04 382.69 704.72 382.33 704.37L381.8 703.89C380.74 702.94 379.67 702.01 378.6 701.1L378.07 700.64L377.53 700.19C376.77 699.55 376.01 698.91 375.25 698.29L374.33 697.54L373.79 697.11L373.29 696.7L371.69 695.43L370.62 694.6L369.69 693L368.16 691.87C367.6 691.45 367.04 691.05 366.48 690.65L365.97 690.28L365.54 689.97L365.24 689.76L363.86 688.76L363.33 688.39L362.82 688.04C361.2 686.94 359.597 685.89 358.01 684.89L357.54 684.59L356.86 684.17C356.72 684.08 356.58 683.99 356.43 683.91L355.13 683.12L354.27 682.6H354.2L353.42 682.14L352.99 681.89L352.56 681.65L351.71 681.16L351.28 680.92L350.43 680.45L350.01 680.22L348.75 679.54L347.95 679.12L347.07 678.66L346.66 678.45L345.81 678.02L345 677.63L343.23 676.78H343.14L342.95 676.69L342.59 676.53L342.25 676.37L342.07 676.29L341.82 676.18L341.53 676.05L341.18 675.89L340.99 675.81L340.57 675.62H340.51L340.2 675.48L339.93 675.37H339.81L339.4 675.2L338.61 674.87L338.44 674.8H338.39H338.26L337.93 674.67L337.69 674.58L337.25 674.4H337.19L337.04 674.34L336.92 674.29H336.84L336.65 674.22H336.56L336.41 674.16L336.26 674.1L335.87 673.96H335.77H335.69L335.51 673.89L335.09 673.74L334.92 673.68H334.82L334.54 673.59L334.36 673.52H334.28L333.97 673.41L333.77 673.34L333.22 673.16L332.88 673.05L332.46 672.92L332.67 673.55L332.88 674.19C332.95 674.4 333.02 674.61 333.1 674.82C333.18 675.03 333.25 675.27 333.34 675.5L333.56 676.13C333.64 676.35 333.72 676.57 333.81 676.79L334.05 677.45C334.099 677.554 334.143 677.661 334.18 677.77C334.23 677.88 334.27 678 334.31 678.11C334.35 678.22 334.5 678.59 334.6 678.84L334.85 679.44C335.03 679.89 335.22 680.34 335.41 680.79L335.71 681.46L336.01 682.15C336.11 682.37 336.21 682.6 336.32 682.83L336.63 683.52C336.73 683.72 336.82 683.93 336.92 684.13C337.18 684.68 337.44 685.23 337.71 685.78C337.8 685.98 337.9 686.17 338 686.36L338.37 687.1L338.52 687.4L338.67 687.69L339.13 688.58L339.33 688.95C339.39 689.08 339.46 689.2 339.52 689.32L339.82 689.87L339.88 690C339.943 690.1 339.999 690.204 340.05 690.31L340.2 690.57C340.33 690.82 340.47 691.07 340.61 691.32L341.17 692.32L341.52 692.93L341.97 693.71L342.41 694.47C342.449 694.523 342.482 694.58 342.51 694.64L342.9 695.29L343.35 696.04L343.82 696.8C343.97 697.06 344.13 697.31 344.29 697.57C344.45 697.83 344.6 698.06 344.75 698.3C345.08 698.83 345.42 699.36 345.75 699.89L346.26 700.67L346.65 701.26L346.79 701.48L346.97 701.74C347.24 702.16 347.53 702.58 347.81 702.99C347.99 703.25 348.16 703.51 348.34 703.76L348.88 704.55L349.43 705.33C349.79 705.84 350.15 706.33 350.52 706.87L351.09 707.66C351.29 707.92 351.48 708.19 351.67 708.45L352.23 709.21C352.41 709.44 352.58 709.68 352.76 709.92L353.42 710.79C353.64 711.08 353.87 711.37 354.09 711.67L354.77 712.55L355.25 713.16L355.87 713.95L356.5 714.74L357.12 715.52L357.71 716.24L358.15 716.78L358.37 717.05C358.54 717.26 358.71 717.47 358.89 717.67L358.96 717.76L359.49 718.39L359.93 718.93L360.4 719.48L361.01 720.2C362.17 721.55 363.35 722.89 364.56 724.2L365.26 724.98L365.77 725.54L366.04 725.83L366.35 726.17L366.67 726.51L367.29 727.18L369.01 729L369.63 729.65L369.97 730L370.31 730.35C371.09 731.16 371.89 731.96 372.69 732.76L373.45 733.52L373.9 733.97L374.31 734.37L374.49 734.55L375.09 735.13L375.19 735.23C375.19 735.23 375.19 735.23 375.24 735.28L375.51 735.54L375.64 735.66L375.72 735.74L375.83 735.85L376.03 736.04L376.15 736.16L376.49 736.47L376.89 736.86L377.2 737.15L377.28 737.23L377.54 737.47L377.65 737.58L378.02 737.93L378.7 738.56L378.8 738.65L379.56 739.35L380.2 739.94L380.56 740.27L380.63 740.34L380.94 740.61L381.06 740.72L381.16 740.81L381.68 741.28L382.21 741.74L382.61 742.1L382.82 742.28L383.2 742.62L383.38 742.78L383.86 743.2L384.25 743.54L384.41 743.68L384.59 743.83L384.93 744.13L385.07 744.24L385.37 744.5L385.71 744.79L386.48 745.45L387.15 746.01L387.38 746.2L387.53 746.32L387.59 746.37L387.7 746.47L388.02 746.74L388.42 747.07L388.8 747.38L389.17 747.68L389.36 747.83L389.45 747.91L389.55 747.98L390.22 748.53L390.32 748.61L390.64 748.87L390.97 749.13H391.02L391.37 749.41L391.76 749.72L392.43 750.24H392.49H392.54L393.17 750.73L393.31 750.84L393.38 750.89L394.09 751.43L394.44 751.7L394.83 751.99L395.05 752.16L395.58 752.56L396.17 753L396.36 753.14L396.63 753.34L396.74 753.42L397.06 753.66L397.8 754.2L398.1 754.42L398.54 754.74H398.6C398.73 754.83 398.86 754.92 398.98 755.02H399.03L399.37 755.26L399.75 755.53H399.82L400.14 755.75L400.85 756.25L401.26 756.53L401.57 756.74L401.67 756.81L402.17 757.15L402.3 757.24L402.59 757.44L402.95 757.68L403.2 757.85L403.37 757.97L403.98 758.37L404.58 758.76L405.18 759.15L405.36 759.27L405.48 759.35L405.74 759.52L405.82 759.57L406.21 759.82L406.34 759.9L406.97 760.3L407.72 760.77L408.1 761L408.28 761.11L408.74 761.4H408.79L409.29 761.7L409.88 762.06L410.25 762.28H410.32L410.47 762.37L410.75 762.54L410.85 762.59L411.06 762.72L411.4 762.92C414.64 764.813 417.813 766.48 420.92 767.92C416.04 766.445 411.065 765.305 406.03 764.51C401.79 763.83 397.32 763.32 392.68 763.01L391.57 762.94H391.05L390 762.89H389.4L387.59 762.82H386.86H386.04H382.2C361.69 762.82 343.46 766.69 331.89 772.7L333.28 773.39L333.55 773.52L333.75 773.61L334.14 773.79L334.52 773.96L334.92 774.14L335.32 774.32L335.71 774.49L336.08 774.64L336.45 774.8L336.7 774.9L336.94 775L337.34 775.16H337.47L338.11 775.41H338.2C338.91 775.68 339.64 775.95 340.39 776.21L341.09 776.45L341.79 776.69L342.51 776.92L343.24 777.15L344.33 777.48L345.58 777.85L346.01 777.96L347.15 778.27L347.72 778.42L348.3 778.57C349.3 778.82 350.3 779.05 351.3 779.28L351.87 779.41L352.48 779.54H352.6L353.27 779.67L353.93 779.8L354.6 779.93L355.96 780.18L356.37 780.26H356.59H356.66L358.03 780.49L358.38 780.55L358.73 780.61L360.14 780.82L360.69 780.9L361.15 780.97L361.75 781.05H361.86L362.24 781.1L362.9 781.19L363.52 781.27L364.52 781.38H364.89H365.25L365.98 781.46L366.65 781.53L368.3 781.69H368.89H369.28L370 781.75L370.77 781.81H371.02H371.82L372.74 781.87H373.53H374.13H374.36H374.83H375.33H375.65H376.47H377.38H378.17H386.83H387.46H388.33L389.64 781.81H390.53L391.53 781.75L392.45 781.69H392.62C399.788 781.596 406.938 780.93 414 779.7C413.33 780.33 412.66 780.97 412 781.63C411.61 782.02 411.22 782.42 410.84 782.82L410.39 783.29L409.95 783.75L409.51 784.23L409.08 784.7C408.8 785.01 408.51 785.33 408.24 785.65C407.97 785.97 407.68 786.28 407.41 786.65C407 787.13 406.61 787.6 406.22 788.08L405.98 788.38L405.41 789.08L404.31 790.52C404.21 790.64 404.12 790.77 404.02 790.9L403.58 791.51C403.49 791.62 403.41 791.74 403.32 791.86L402.88 792.48L402.55 792.96L402.24 793.4L402.18 793.48L401.88 793.93L401.56 794.42L401.3 794.81C401.263 794.88 401.219 794.947 401.17 795.01C401.09 795.14 401.01 795.27 400.92 795.4L400.65 795.84L400.41 796.23L400.21 796.55L399.79 797.25L399.52 797.71C399.42 797.88 399.32 798.04 399.23 798.21C399.14 798.38 399.03 798.55 398.94 798.72L398.73 799.09C398.43 799.65 398.13 800.21 397.85 800.76L397.67 801.12C397.3 801.85 396.96 802.58 396.67 803.3L396.51 803.66L396.3 804.13C396.23 804.29 396.16 804.45 396.1 804.61C395.96 804.93 395.83 805.25 395.71 805.56L395.53 806.02L395.35 806.49C395.24 806.8 395.12 807.11 395.01 807.43C394.9 807.75 394.8 808.05 394.7 808.36L394.55 808.82C394.45 809.13 394.36 809.44 394.27 809.74L394.14 810.2L394.02 810.65L393.9 811.11C393.9 811.26 393.83 811.41 393.79 811.56C393.65 812.16 393.52 812.75 393.41 813.34L393.82 813.26H394.07L394.38 813.19L394.79 813.1L395.2 813L395.66 812.89H395.83L396.19 812.79L396.61 812.67L397.22 812.5L397.62 812.38L398.47 812.11H398.6L400.38 811.48L400.75 811.33L401.05 811.21L401.32 811.11L401.58 811L402.87 810.46L403.18 810.32L403.57 810.15L404.22 809.85L404.46 809.73L404.95 809.5L405.39 809.28H405.45L405.93 809.04L406.05 808.98L406.16 808.92L406.55 808.72L406.94 808.51L407.45 808.24L408.45 807.67L409.45 807.08L409.96 806.78L410.96 806.18H411.02L411.53 805.85L412.03 805.53L412.37 805.31L412.62 805.14C413.11 804.81 413.62 804.48 414.09 804.14L414.58 803.8L415.16 803.38L415.59 803.07L415.96 802.79L416.3 802.53C416.87 802.11 417.43 801.67 417.99 801.22L418.32 800.96C418.78 800.59 419.23 800.22 419.69 799.83L420.11 799.47L420.58 799.07L421.11 798.61L421.6 798.17L422.04 797.78L422.15 797.67L422.45 797.4L422.95 796.93L423.23 796.67L423.59 796.33C423.74 796.18 423.89 796.03 424.05 795.89L424.57 795.38L425.01 794.94L426.2 793.73V793.48L426.3 793.62C428.03 791.82 429.64 789.98 431.13 788.12V849H434.88V787.9C436.794 790.284 438.837 792.56 441 794.72L441.5 795.21L441.93 795.64L442.37 796.06L442.53 796.21L442.91 796.57L443.48 797.1L444.01 797.58L444.54 798.06L445.07 798.53L445.48 798.89L445.81 799.17L446.49 799.75L446.8 800C446.94 800.12 447.08 800.24 447.23 800.35L447.6 800.66C448.25 801.19 448.91 801.66 449.6 802.2L449.97 802.47L450.43 802.82L450.71 803.02L451.06 803.27L451.49 803.58L451.8 803.81L452.2 804.08L452.58 804.35L452.98 804.62L453.32 804.85L453.99 805.29L454.49 805.61C456.243 806.73 457.983 807.73 459.71 808.61L460.24 808.88L460.78 809.15L461.04 809.28L461.18 809.35L461.31 809.41L461.79 809.64L461.9 809.69L462.38 809.91L462.91 810.15L463.41 810.36H463.47L463.97 810.58L464.5 810.8L464.87 810.94L465.2 811.07L465.56 811.21L466.61 811.59L467.26 811.82L467.6 811.93L467.77 811.99L468.07 812.09L468.35 812.17L468.74 812.29L469.18 812.42L469.56 812.53L469.83 812.6L470.02 812.65L470.27 812.72L470.63 812.81H470.73L471.03 812.88L471.26 812.94L472.68 813.24C472.68 813.1 472.63 812.97 472.61 812.84C472.589 812.765 472.572 812.688 472.56 812.61L472.5 812.34C472.5 812.34 472.5 812.34 472.5 812.28C472.5 812.22 472.45 812.03 472.42 811.91C472.28 811.29 472.12 810.67 471.94 810.03C471.94 809.9 471.87 809.76 471.83 809.63C471.79 809.5 471.76 809.4 471.73 809.29C471.7 809.18 471.61 808.9 471.54 808.7C471.47 808.5 471.54 808.51 471.46 808.42V808.34L471.34 807.98C471.2 807.56 471.06 807.15 470.9 806.72L470.78 806.39C470.78 806.34 470.78 806.3 470.73 806.26L470.59 805.88L470.42 805.46C470.37 805.32 470.31 805.18 470.25 805.04C470.19 804.9 470.06 804.56 469.95 804.32L469.71 803.75C469.65 803.61 469.59 803.47 469.52 803.33C469.45 803.19 469.26 802.76 469.13 802.47C469 802.18 468.93 802.04 468.82 801.83C468.71 801.62 468.61 801.4 468.51 801.18C468.41 800.96 468.36 800.89 468.29 800.75L468.06 800.32L467.85 799.9C467.74 799.71 467.64 799.52 467.54 799.32L467.22 798.74C467.11 798.55 467 798.36 466.9 798.16L466.22 797.01L465.89 796.45L465.84 796.37L465.51 795.84C465.397 795.653 465.277 795.463 465.15 795.27C465.03 795.08 464.91 794.89 464.78 794.7L464.21 793.83L464.02 793.54C463.88 793.35 463.75 793.15 463.62 792.96L463.21 792.38C463.09 792.2 462.96 792.01 462.82 791.83L462.41 791.27L461.99 790.69L461.66 790.26L461 789.4L460.66 788.97L460.21 788.41V788.35L459.84 787.9L459.61 787.62L459.3 787.25L458.88 786.74L458.33 786.11L457.96 785.68L457.2 784.83L456.87 784.47L456.74 784.32L456.32 783.87L455.81 783.32C455.66 783.16 455.51 783 455.35 782.85C455.19 782.7 454.94 782.42 454.74 782.21L454.19 781.66L453.69 781.17L453.2 780.68L452.47 779.99L452.19 779.73L453.06 779.92L454.38 780.2L455.72 780.47L456.62 780.64C457.53 780.81 458.44 780.97 459.37 781.12L460.3 781.27L461.24 781.41C461.87 781.51 462.51 781.6 463.14 781.68L464.14 781.81L466.07 782.04L468.07 782.25C468.73 782.32 469.39 782.38 470.07 782.43L471.07 782.51H471.27L472.13 782.57L473.13 782.64L474.35 782.72H475.05H475.43H476.09H476H476.81H477H477.95H478.95H479.37H480.16H481.16H483.3C484.98 782.72 486.65 782.72 488.3 782.65H489H489.92H490.85L492.67 782.55H492.78L494.54 782.44C495.75 782.35 496.95 782.25 498.13 782.14L499.05 782.05L499.93 781.95L500.82 781.86L501.56 781.77H501.74L503.43 781.55L504.29 781.43L505.01 781.33H505.29L506 781.22L506.77 781.11H506.92L507.68 780.99L508.3 780.88L508.7 780.81L509.34 780.7L510.16 780.55L511.78 780.24L512.58 780.07L513.37 779.91L515.37 779.47L515.76 779.38L516.14 779.29L516.52 779.19L516.9 779.1L517.28 779L518.37 778.72L519.51 778.41L520.21 778.22L521.69 777.78L522.27 777.6L522.73 777.46L522.91 777.4H523.04L523.44 777.27L523.92 777.11L525.13 776.7L525.65 776.52H525.79L526.2 776.37L526.74 776.17L528.36 775.54L528.83 775.35L528.99 775.28L529.84 774.93C530.67 774.57 531.47 774.2 532.24 773.83L532.44 773.74L532.59 773.66L532.8 773.56L533.63 773.14L532.8 772.72L532.58 772.57Z" fill="url(#paint3_linear_1_35649)"/>
<path d="M867.57 800.12C891.01 828.56 936.78 873.37 960.17 932.7C986 998.27 984.08 1068.38 985.4 1107" stroke="black" stroke-width="14" stroke-miterlimit="10"/>
<path d="M990.23 1106C1002.67 1131.33 1004.02 1153.78 993.92 1162.06C988.12 1166.82 977.24 1167.96 973.27 1163.54C967.73 1157.37 978.38 1143.47 973.27 1138.46C967.78 1133.08 953.9 1143.99 952.64 1141.27C947.35 1129.84 957.47 1131.51 969.58 1119.27C974.23 1114.57 976.04 1111.38 979.9 1105.99C982.24 1102.72 987.47 1105.14 990.23 1106Z" fill="#010101" stroke="black" stroke-width="4" stroke-miterlimit="10"/>
<defs>
<linearGradient id="paint0_linear_1_35649" x1="377.43" y1="917.41" x2="495.8" y2="917.41" gradientUnits="userSpaceOnUse">
<stop stop-color="#8B5E3C"/>
<stop offset="0.26" stop-color="#91633F"/>
<stop offset="0.61" stop-color="#A37147"/>
<stop offset="1" stop-color="#BF8755"/>
</linearGradient>
<linearGradient id="paint1_linear_1_35649" x1="367.39" y1="864.84" x2="505.83" y2="864.84" gradientUnits="userSpaceOnUse">
<stop stop-color="#8B5E3C"/>
<stop offset="0.26" stop-color="#91633F"/>
<stop offset="0.61" stop-color="#A37147"/>
<stop offset="1" stop-color="#BF8755"/>
</linearGradient>
<linearGradient id="paint2_linear_1_35649" x1="383.17" y1="965.46" x2="490.05" y2="965.46" gradientUnits="userSpaceOnUse">
<stop stop-color="#8B5E3C"/>
<stop offset="1" stop-color="#8B5E3C"/>
</linearGradient>
<linearGradient id="paint3_linear_1_35649" x1="332.37" y1="739.88" x2="533.62" y2="739.88" gradientUnits="userSpaceOnUse">
<stop stop-color="#046937"/>
<stop offset="0.2" stop-color="#047245"/>
<stop offset="0.57" stop-color="#06896A"/>
<stop offset="1" stop-color="#07A89C"/>
</linearGradient>
</defs>
</svg>
