<svg width="1660" height="1660" viewBox="0 0 1660 1660" fill="none" xmlns="http://www.w3.org/2000/svg">
<path d="M783.17 807.5C759.72 835.94 740.7 880.74 697.17 927.29C634.87 993.85 514.79 995.97 476.89 979.82" stroke="black" stroke-width="14" stroke-miterlimit="10"/>
<path d="M459.48 971.66C464.88 975.47 474.32 972.77 480.28 975.66C483.89 977.43 482.37 982.98 481.99 985.85C459.06 1002.29 442.61 1001.35 432.78 992.75C427.13 987.82 426.38 972.32 430.09 967.67C435.26 961.19 453.48 967.67 459.48 971.67" fill="#010101"/>
<path d="M459.48 971.66C464.88 975.47 474.32 972.77 480.28 975.66C483.89 977.43 482.37 982.98 481.99 985.85C459.06 1002.29 442.61 1001.35 432.78 992.75C427.13 987.82 426.38 972.32 430.09 967.67C435.26 961.19 453.48 967.67 459.48 971.67" stroke="black" stroke-width="4" stroke-miterlimit="10"/>
<path d="M393.58 721.78C390.25 730.14 387.73 737.17 386 742.15C379.66 759.349 375.001 777.122 372.09 795.22C371.06 801.577 370.572 808.01 370.63 814.45C370.631 819.222 371.37 823.964 372.82 828.51C375.82 837.14 380.96 844.8 387.04 851.63C397.57 863.46 410.95 872.78 420.99 880.33C429.08 886.41 434.99 891.33 435.53 895.47L435.63 895.61C435.63 895.61 436.79 898.99 438.7 903.35C438.94 903.91 439.21 904.47 439.42 905.04C439.847 906.273 440.181 907.537 440.42 908.82C442.35 918.44 443.33 939.3 443.33 971.03C443.33 978.43 443.22 984.73 443.04 990.09C442.44 1008.09 441.04 1015.51 439.87 1018.78C439.578 1019.77 439.088 1020.69 438.43 1021.49C438.205 1021.78 438.082 1022.13 438.08 1022.49C415.64 1023.07 398.62 1025.88 398.62 1029.26C398.62 1033.05 420.15 1036.12 446.71 1036.12C473.27 1036.12 494.8 1033.05 494.8 1029.26C494.8 1025.85 477.49 1023.03 454.8 1022.48C454.793 1022.12 454.67 1021.77 454.45 1021.48C453.806 1020.68 453.342 1019.75 453.09 1018.76C452.02 1015.49 450.7 1008.05 450.15 990.05C449.98 984.7 449.88 978.41 449.88 971.05C449.88 939.31 450.63 918.45 452.48 908.82C452.706 907.537 453.04 906.276 453.48 905.05C453.69 904.48 453.95 903.92 454.2 903.35C456.11 899 457.2 895.62 457.26 895.58L457.38 895.41C457.91 891.27 463.83 886.36 471.93 880.28C481.93 872.73 495.34 863.41 505.87 851.58C511.95 844.75 517.09 837.09 520.1 828.46C521.542 823.912 522.277 819.171 522.28 814.4C522.339 807.96 521.85 801.527 520.82 795.17C518.06 776.84 511.92 756.66 506.91 742.1L499.33 721.73C464.2 726.003 428.681 726.003 393.55 721.73L393.58 721.78Z" fill="url(#paint0_linear_1_35611)" stroke="black" stroke-width="4" stroke-miterlimit="10"/>
<g opacity="0.95">
<path opacity="0.95" d="M372.9 799.09C372.043 804.681 371.641 810.333 371.7 815.99C371.685 820.173 372.336 824.332 373.63 828.31C376.481 836.459 381.212 843.821 387.44 849.8C409.34 870.8 428.25 880.55 446.95 880.55C456.23 880.55 465.48 878.13 475.22 873.17C485.22 868.07 495.47 860.43 506.57 849.8C512.796 843.82 517.527 836.458 520.38 828.31C521.668 824.334 522.319 820.179 522.31 816C522.358 809.634 521.849 803.277 520.79 797C520.2 793.25 519.46 789.43 518.62 785.59C440.26 782.32 434.28 850.06 372.9 799.09Z" fill="url(#paint1_linear_1_35611)" stroke="black" stroke-width="4" stroke-miterlimit="10"/>
</g>
<path d="M459.48 971.66C464.88 975.47 474.32 972.77 480.28 975.66C483.89 977.43 482.37 982.98 481.99 985.85C459.06 1002.29 442.61 1001.35 432.78 992.75C427.13 987.82 426.38 972.32 430.09 967.67C435.26 961.19 453.48 967.67 459.48 971.67" fill="#010101"/>
<path d="M459.48 971.66C464.88 975.47 474.32 972.77 480.28 975.66C483.89 977.43 482.37 982.98 481.99 985.85C459.06 1002.29 442.61 1001.35 432.78 992.75C427.13 987.82 426.38 972.32 430.09 967.67C435.26 961.19 453.48 967.67 459.48 971.67" stroke="black" stroke-width="4" stroke-miterlimit="10"/>
<path d="M867.57 800.12C891.01 828.56 936.78 873.37 960.17 932.7C986 998.27 984.08 1068.38 985.4 1107" stroke="black" stroke-width="14" stroke-miterlimit="10"/>
<path d="M990.23 1106C1002.67 1131.33 1004.02 1153.78 993.92 1162.06C988.12 1166.82 977.24 1167.96 973.27 1163.54C967.73 1157.37 978.38 1143.47 973.27 1138.46C967.78 1133.08 953.9 1143.99 952.64 1141.27C947.35 1129.84 957.47 1131.51 969.58 1119.27C974.23 1114.57 976.04 1111.38 979.9 1105.99C982.24 1102.72 987.47 1105.14 990.23 1106Z" fill="#010101" stroke="black" stroke-width="4" stroke-miterlimit="10"/>
<defs>
<linearGradient id="paint0_linear_1_35611" x1="370.62" y1="878.99" x2="522.33" y2="878.99" gradientUnits="userSpaceOnUse">
<stop stop-color="#F1F2F2" stop-opacity="0.3"/>
<stop offset="1" stop-color="#27AAE1" stop-opacity="0.3"/>
</linearGradient>
<linearGradient id="paint1_linear_1_35611" x1="371.68" y1="833.01" x2="522.33" y2="833.01" gradientUnits="userSpaceOnUse">
<stop stop-color="#711633"/>
<stop offset="1" stop-color="#BE1E2D"/>
</linearGradient>
</defs>
</svg>
