<svg width="1660" height="1660" viewBox="0 0 1660 1660" fill="none" xmlns="http://www.w3.org/2000/svg">
<path d="M428.45 807.83C446.95 676.083 465.467 544.333 484 412.58C502.5 280.83 520.7 131.75 539.2 0H1217C1096.19 137.26 972.62 291.84 851.8 429.1L489.35 840.88L428.45 807.83Z" fill="url(#paint0_linear_1_46689)"/>
<path d="M361.49 739.9C366.954 737.078 372.64 734.707 378.49 732.81C384.649 730.819 390.964 729.35 397.37 728.42C400.92 730.63 404.55 733.12 408.21 735.94C422.568 747.159 434.496 761.18 443.27 777.15L456.44 780.75L414.33 794.38L362.15 742.38L361.49 739.9Z" fill="#FCE1C0" stroke="#010101" stroke-width="4" stroke-miterlimit="10"/>
<path d="M561.51 729C557.171 724.769 551.998 721.489 546.32 719.37C534.83 723.54 460.96 750.81 434.32 781.19C431.66 784.19 430.51 786.09 431.11 787.44C436.41 799.44 570.85 754.66 567.85 737.15C567.43 734.8 564.42 731.84 561.51 729Z" fill="url(#paint1_linear_1_46689)" stroke="#010101" stroke-width="4" stroke-miterlimit="10"/>
<path d="M359.3 738.24L418.62 778.14C418.933 778.348 419.285 778.49 419.655 778.557C420.024 778.624 420.404 778.615 420.77 778.53L455.88 770.28L456.14 770.2L573.66 729.94C574.039 729.809 574.442 729.764 574.841 729.807C575.239 729.849 575.624 729.979 575.967 730.188C576.309 730.396 576.602 730.677 576.824 731.011C577.046 731.345 577.191 731.723 577.25 732.12L607.06 931.86C607.161 932.488 607.039 933.131 606.716 933.679C606.392 934.227 605.888 934.644 605.29 934.86L491 976.39C490.863 976.439 490.722 976.479 490.58 976.51L455.95 983.18C455.328 983.301 454.684 983.198 454.13 982.89L390.73 948.36C390.362 948.153 390.046 947.866 389.805 947.52C389.564 947.173 389.405 946.777 389.34 946.36L355.08 741C354.98 740.47 355.04 739.922 355.252 739.426C355.463 738.929 355.817 738.507 356.269 738.212C356.72 737.916 357.249 737.761 357.789 737.766C358.328 737.771 358.854 737.936 359.3 738.24V738.24Z" fill="url(#paint2_radial_1_46689)" stroke="#010101" stroke-width="4" stroke-miterlimit="10"/>
<path d="M419.81 778.99L454.95 983.36" stroke="#010101" stroke-width="4" stroke-miterlimit="10"/>
<path d="M455.85 770.44L490.75 976.47" stroke="#010101" stroke-width="4" stroke-miterlimit="10"/>
<path d="M454.15 772.75L488.43 974.83L456.57 981.01L421.99 780.3L454.15 772.75Z" fill="url(#paint3_linear_1_46689)" stroke="#010101" stroke-width="4" stroke-miterlimit="10"/>
<path opacity="0.86" d="M604.77 932.88L518.51 751.25L492.33 973.76L604.77 932.88Z" fill="#EAC96B"/>
<path d="M459.48 971.66C464.88 975.47 474.32 972.77 480.28 975.66C483.89 977.43 482.37 982.98 481.99 985.85C459.06 1002.29 442.61 1001.35 432.78 992.75C427.13 987.82 426.38 972.32 430.09 967.67C435.26 961.19 453.48 967.67 459.48 971.67" fill="#010101"/>
<path d="M459.48 971.66C464.88 975.47 474.32 972.77 480.28 975.66C483.89 977.43 482.37 982.98 481.99 985.85C459.06 1002.29 442.61 1001.35 432.78 992.75C427.13 987.82 426.38 972.32 430.09 967.67C435.26 961.19 453.48 967.67 459.48 971.67" stroke="black" stroke-width="4" stroke-miterlimit="10"/>
<path d="M469.48 786.12C470.74 791.453 472.237 796.747 473.97 802C474.33 803.09 477.22 802.28 476.87 801.22C475.13 796 473.633 790.71 472.38 785.35C472.12 784.26 469.22 785 469.48 786.12Z" fill="#212120"/>
<path d="M470.1 787.75C471.46 786.94 473.58 785.67 474.92 787.23C476.06 788.55 475.53 790.73 475.17 792.23C474.86 793.55 477.39 793.23 477.85 792.53C478.68 791.3 480.05 792.34 480.7 793.26C481.158 793.95 481.453 794.736 481.563 795.557C481.672 796.379 481.592 797.214 481.33 798C481.096 798.707 480.666 799.332 480.091 799.805C479.516 800.278 478.819 800.577 478.08 800.67C477.22 800.81 474.55 801.17 474.35 799.91C474.15 798.65 471.24 799.32 471.45 800.69C471.85 803.27 476.18 803.01 478.01 802.69C480.72 802.26 483.27 800.78 484.18 798.06C484.594 796.856 484.659 795.56 484.367 794.322C484.075 793.083 483.438 791.952 482.53 791.06C480.58 789.3 476.98 789.4 475.43 791.68L478.11 791.98C478.65 789.66 479 786.61 476.67 785.11C473.9 783.34 470.67 784.95 468.19 786.43C468.059 786.496 467.946 786.594 467.862 786.715C467.778 786.835 467.726 786.975 467.71 787.121C467.694 787.268 467.715 787.416 467.771 787.552C467.827 787.688 467.916 787.807 468.03 787.9C468.357 788.069 468.726 788.141 469.093 788.107C469.46 788.074 469.809 787.936 470.1 787.71V787.75Z" fill="#212120"/>
<path d="M481.2 783.93C483.579 788.558 485.641 793.342 487.37 798.25C487.59 798.88 490.46 798.01 490.27 797.48C488.537 792.571 486.475 787.783 484.1 783.15C483.76 782.48 480.99 783.52 481.2 783.93Z" fill="#212120"/>
<path d="M490.1 793.36C490.514 794.103 491.099 794.738 491.807 795.211C492.515 795.684 493.325 795.982 494.17 796.08C495.116 796.184 496.073 796.042 496.949 795.669C497.824 795.296 498.589 794.704 499.17 793.95C499.6 793.223 499.789 792.379 499.71 791.539C499.631 790.698 499.288 789.904 498.73 789.27C498.153 788.574 497.406 788.038 496.562 787.714C495.718 787.39 494.805 787.289 493.91 787.42C491.98 787.7 489.74 789.11 489.64 791.27C489.64 791.93 490.4 792.06 490.92 791.99C491.308 791.952 491.682 791.822 492.01 791.61C492.22 791.47 492.54 791.23 492.55 790.95C492.538 790.442 492.721 789.949 493.06 789.57C492.93 789.74 493.06 789.57 493.11 789.57L493.25 789.43H493.31L493.38 789.38L493.55 789.28C493.71 789.17 493.3 789.38 493.48 789.28L493.71 789.19C493.71 789.19 493.34 789.3 493.66 789.19C493.98 789.08 493.38 789.25 493.76 789.19C493.96 789.19 493.52 789.19 493.76 789.19H493.97C494.04 789.19 494.27 789.24 494.02 789.19H494.23L494.43 789.25C494.43 789.25 494.72 789.35 494.6 789.25L494.72 789.3L494.91 789.4L495.33 789.65H495.4L495.56 789.79C495.697 789.909 495.827 790.036 495.95 790.17C496.347 790.613 496.632 791.144 496.78 791.72C496.847 791.968 496.881 792.223 496.88 792.48C496.873 792.628 496.857 792.775 496.83 792.92C496.83 792.99 496.83 793.06 496.78 793.13C496.73 793.2 496.66 793.44 496.73 793.29C496.678 793.404 496.618 793.514 496.55 793.62L496.44 793.77C496.55 793.6 496.44 793.77 496.44 793.77C496.44 793.77 496.27 793.99 496.17 794.03C496.36 793.95 496.29 793.94 496.17 794.03C496.05 794.12 495.97 794.2 495.93 794.19C495.89 794.18 496.19 794.06 496 794.19L495.82 794.27C495.58 794.38 495.89 794.27 495.93 794.27C495.864 794.281 495.8 794.301 495.74 794.33C495.48 794.4 495.83 794.33 495.85 794.33C495.87 794.33 495.65 794.33 495.61 794.33C495.57 794.33 495.39 794.33 495.55 794.33C495.71 794.33 495.55 794.33 495.45 794.33C495.35 794.33 495.45 794.33 495.45 794.33L495.14 794.26L494.94 794.2C494.64 794.12 495.11 794.29 494.82 794.2C494.534 794.073 494.262 793.915 494.01 793.73C494.11 793.81 493.94 793.67 493.91 793.66L493.72 793.48C493.589 793.357 493.466 793.227 493.35 793.09C493.124 792.819 492.923 792.528 492.75 792.22C492.63 792.01 492.16 791.93 491.96 791.92C491.568 791.902 491.177 791.977 490.82 792.14C490.32 792.38 489.74 792.81 490.07 793.4L490.1 793.36Z" fill="#212120"/>
<path d="M506.54 784.59C505.789 784.324 504.989 784.223 504.195 784.294C503.402 784.365 502.632 784.605 501.94 785C501.377 785.248 500.887 785.637 500.518 786.129C500.148 786.621 499.911 787.2 499.83 787.81C499.774 788.362 499.857 788.92 500.072 789.432C500.287 789.944 500.626 790.393 501.06 790.74C501.737 791.167 502.504 791.432 503.3 791.513C504.096 791.595 504.9 791.491 505.65 791.21C507.32 790.717 508.746 789.619 509.65 788.13C509.76 787.96 509.84 787.8 509.65 787.63C509.427 787.479 509.158 787.412 508.89 787.44C508.502 787.454 508.12 787.535 507.76 787.68C507.453 787.77 507.178 787.947 506.97 788.19C506.718 788.607 506.426 788.998 506.1 789.36C506.058 789.392 506.021 789.429 505.99 789.47C505.87 789.59 506.08 789.38 505.99 789.47L505.76 789.67C505.66 789.75 505.56 789.81 505.47 789.89C505.38 789.97 505.64 789.79 505.52 789.89L505.29 790.02C505.06 790.15 505.49 789.92 505.29 790.02C505.09 790.12 505.29 790.02 505.36 790.02C505.31 790.014 505.26 790.014 505.21 790.02C505.05 790.08 505.32 790.02 505.34 790.02H505.12C505.12 790.02 504.91 790.02 505.12 790.02H504.98C505.18 790.02 504.98 790.02 504.87 790.02H504.66C504.454 789.969 504.256 789.892 504.07 789.79C503.729 789.571 503.443 789.277 503.234 788.93C503.024 788.584 502.896 788.194 502.86 787.79C502.806 787.41 502.844 787.023 502.97 786.66C503.001 786.561 503.037 786.464 503.08 786.37C503.08 786.37 503.19 786.17 503.15 786.25C503.204 786.163 503.264 786.079 503.33 786L503.42 785.9C503.54 785.75 503.36 785.9 503.42 785.9C503.48 785.9 503.59 785.71 503.66 785.71C503.56 785.71 503.48 785.81 503.61 785.71L503.77 785.62C503.77 785.62 503.44 785.74 503.68 785.67C503.92 785.6 503.6 785.67 503.55 785.67H503.68C503.87 785.67 503.33 785.67 503.59 785.67H503.73C503.88 785.67 503.39 785.67 503.67 785.67C503.67 785.67 503.86 785.67 503.67 785.67C503.48 785.67 503.67 785.67 503.73 785.67H503.9C504.03 785.67 503.79 785.61 503.9 785.67C504.01 785.73 504.15 785.75 504.27 785.81C504.615 785.9 504.976 785.918 505.328 785.863C505.681 785.808 506.018 785.681 506.32 785.49C506.67 785.28 507.23 784.8 506.61 784.49L506.54 784.59Z" fill="#212120"/>
<path d="M508.44 783.73C509.54 785.112 510.429 786.648 511.08 788.29C511.245 788.582 511.51 788.804 511.827 788.914C512.143 789.024 512.489 789.016 512.8 788.89C513.35 788.72 514.18 788.22 513.98 787.51C513.901 787.23 513.838 786.947 513.79 786.66C513.79 786.51 513.79 786.37 513.79 786.22C513.79 786.07 513.79 786.08 513.79 786.17C513.785 786.097 513.785 786.023 513.79 785.95C513.772 785.363 513.819 784.776 513.93 784.2C513.93 784.06 513.99 783.92 514.03 783.78L514.09 783.56C514.09 783.66 514.09 783.65 514.09 783.56C514.182 783.284 514.289 783.014 514.41 782.75C514.531 782.482 514.668 782.221 514.82 781.97L514.94 781.79C514.87 781.89 514.87 781.89 514.94 781.79C515.01 781.69 515.02 781.69 514.88 781.79C514.636 781.954 514.349 782.041 514.055 782.041C513.761 782.041 513.474 781.954 513.23 781.79C513.496 782.036 513.835 782.189 514.195 782.227C514.556 782.265 514.919 782.185 515.23 782C515.69 781.76 516.42 781.07 515.92 780.52C515 779.52 513.2 780.05 512.47 781.07C511.976 781.764 511.592 782.53 511.33 783.34C510.794 784.956 510.742 786.694 511.18 788.34L514.08 787.56C513.366 785.763 512.396 784.079 511.2 782.56C510.935 782.312 510.596 782.158 510.235 782.12C509.874 782.082 509.511 782.163 509.2 782.35C508.72 782.61 508.06 783.25 508.51 783.83L508.44 783.73Z" fill="#212120"/>
<path d="M511.67 785.31L517.27 786.67C517.574 786.73 517.886 786.73 518.19 786.67C518.569 786.602 518.939 786.488 519.29 786.33C519.54 786.22 520.29 785.8 519.67 785.65L514.07 784.29C513.766 784.235 513.454 784.235 513.15 784.29C512.771 784.359 512.402 784.473 512.05 784.63C511.81 784.75 511.05 785.16 511.67 785.31V785.31Z" fill="#212120"/>
<path d="M524 777.79C522.84 776.79 521 777.2 519.73 777.79C519.133 778.001 518.619 778.395 518.26 778.915C517.9 779.436 517.715 780.057 517.73 780.69C517.783 781.279 517.998 781.842 518.351 782.317C518.704 782.791 519.181 783.159 519.73 783.38C521.293 783.914 523.002 783.825 524.5 783.13C526.045 782.49 527.321 781.335 528.11 779.86C528.38 779.36 527.11 779.47 526.92 779.5C526.37 779.6 525.54 779.8 525.24 780.34C524.974 780.845 524.637 781.31 524.24 781.72C524.064 781.902 523.869 782.067 523.66 782.21L523.48 782.33C523.59 782.26 523.58 782.27 523.48 782.33L523.28 782.43C523.44 782.36 523.44 782.35 523.28 782.43C523.12 782.51 523.13 782.43 523.28 782.43C523.12 782.43 523.14 782.43 523.34 782.43H523.12C523.29 782.43 523.3 782.43 523.12 782.43H522.87H522.57C522.058 782.291 521.595 782.014 521.23 781.63C520.883 781.255 520.661 780.781 520.595 780.274C520.529 779.767 520.621 779.252 520.86 778.8C520.896 778.727 520.947 778.662 521.01 778.61L521.13 778.48C521.05 778.55 521.05 778.55 521.13 778.48C521.21 778.41 521.23 778.42 521.13 778.48C521.263 778.413 521.233 778.413 521.04 778.48C521.19 778.42 521.15 778.48 520.91 778.48H520.78H520.63H520.8C520.69 778.48 520.69 778.48 520.8 778.48C520.983 778.54 521.153 778.635 521.3 778.76C521.53 778.882 521.793 778.927 522.05 778.89C522.438 778.868 522.819 778.783 523.18 778.64C523.4 778.56 524.45 778.09 524.02 777.74L524 777.79Z" fill="#212120"/>
<path d="M522.66 770.81C524.636 774.596 526.823 778.268 529.21 781.81C529.82 782.71 531.99 782.2 532 781.06C532.005 780.045 532.15 779.036 532.43 778.06C532.569 777.599 532.739 777.148 532.94 776.71C533 776.57 533.24 776.27 533.23 776.11C532.3 776.26 532.08 776.4 532.58 776.56C532.658 776.587 532.732 776.624 532.8 776.67C534.232 777.458 535.335 778.731 535.91 780.26C536.068 780.559 536.331 780.789 536.648 780.907C536.965 781.025 537.315 781.023 537.63 780.9C538.16 780.76 539.06 780.17 538.8 779.48C538.379 778.319 537.714 777.262 536.85 776.38C535.927 775.341 534.71 774.609 533.36 774.28C532.938 774.213 532.506 774.244 532.097 774.368C531.688 774.493 531.313 774.709 531 775C530.552 775.544 530.213 776.169 530 776.84C529.447 778.242 529.152 779.733 529.13 781.24L531.93 780.49C529.539 776.951 527.352 773.278 525.38 769.49C525.04 768.85 523.92 768.99 523.38 769.24C523.229 769.289 523.09 769.369 522.972 769.476C522.854 769.583 522.761 769.713 522.697 769.859C522.634 770.005 522.602 770.162 522.605 770.321C522.607 770.48 522.643 770.636 522.71 770.78L522.66 770.81Z" fill="#212120"/>
<path d="M544.4 771.79C543.625 771.49 542.79 771.378 541.963 771.461C541.136 771.545 540.34 771.822 539.64 772.27C539.049 772.568 538.556 773.029 538.218 773.597C537.88 774.166 537.71 774.819 537.73 775.48C537.693 776.067 537.813 776.653 538.078 777.178C538.343 777.703 538.743 778.148 539.238 778.466C539.732 778.784 540.303 778.964 540.891 778.988C541.478 779.011 542.061 778.877 542.58 778.6C543.341 778.331 544 777.836 544.47 777.18C544.908 776.452 545.198 775.644 545.323 774.803C545.449 773.962 545.407 773.105 545.2 772.28L542.38 773.17C543.098 774.047 543.952 774.804 544.91 775.41C546.002 776.039 547.292 776.231 548.52 775.95C548.903 775.879 549.276 775.762 549.63 775.6C549.79 775.52 550.15 775.33 550.21 775.13C550.37 774.61 549.21 774.75 549.04 774.79H548.9C549.01 774.79 549.01 774.79 548.9 774.79C548.79 774.79 549.08 774.79 548.73 774.79C548.57 774.764 548.413 774.724 548.26 774.67C547.856 774.526 547.475 774.324 547.13 774.07C546.391 773.506 545.72 772.859 545.13 772.14C545 771.99 544.53 772.02 544.38 772.03C544.06 772.054 543.744 772.118 543.44 772.22C543.16 772.3 542.22 772.6 542.32 773.04C542.646 774.375 542.526 775.779 541.98 777.04C541.887 777.268 541.767 777.483 541.62 777.68C541.54 777.78 541.42 777.86 541.35 777.96C541.52 777.7 543.14 778.07 542.46 777.69C541.985 777.463 541.576 777.119 541.27 776.69C540.943 776.22 540.74 775.674 540.679 775.105C540.618 774.535 540.701 773.959 540.92 773.43C541.015 773.232 541.14 773.05 541.29 772.89L541.46 772.73L541.6 772.63C541.83 772.47 541.54 772.63 541.45 772.63C541.36 772.63 541.06 772.63 541.29 772.63H541.37C541.484 772.653 541.595 772.69 541.7 772.74C542.318 772.935 542.988 772.885 543.57 772.6C543.7 772.6 544.9 771.96 544.42 771.73L544.4 771.79Z" fill="#212120"/>
<path d="M547.14 771.11C548.063 772.413 549.111 773.622 550.27 774.72C550.496 774.853 550.76 774.906 551.02 774.87C551.411 774.855 551.796 774.774 552.16 774.63C552.41 774.52 553.41 774.08 552.99 773.63C551.823 772.533 550.771 771.32 549.85 770.01C549.74 769.85 549.24 769.86 549.1 769.86C548.712 769.882 548.331 769.967 547.97 770.11C547.667 770.2 547.392 770.365 547.17 770.59L547.06 770.76C547.038 770.812 547.033 770.869 547.048 770.924C547.062 770.978 547.095 771.026 547.14 771.06V771.11Z" fill="#212120"/>
<path d="M548 767.33L549.36 765.99C549.468 765.905 549.548 765.79 549.59 765.66C549.615 765.609 549.628 765.552 549.628 765.495C549.628 765.438 549.615 765.381 549.59 765.33C549.576 765.277 549.551 765.227 549.517 765.184C549.482 765.14 549.439 765.105 549.39 765.08C549.285 764.99 549.157 764.931 549.02 764.91C548.678 764.864 548.329 764.894 548 765C547.629 765.078 547.285 765.25 547 765.5L545.65 766.84C545.539 766.924 545.456 767.039 545.41 767.17C545.388 767.22 545.377 767.275 545.377 767.33C545.377 767.385 545.388 767.44 545.41 767.49C545.424 767.546 545.45 767.598 545.487 767.643C545.523 767.688 545.568 767.724 545.62 767.75C545.72 767.842 545.846 767.901 545.98 767.92C546.338 768.005 546.712 768.005 547.07 767.92C547.439 767.837 547.782 767.665 548.07 767.42L548 767.33Z" fill="#212120"/>
<path d="M551.9 770.62L554.56 773.72C554.68 773.86 555.16 773.84 555.3 773.82C555.62 773.796 555.936 773.733 556.24 773.63C556.5 773.55 557.49 773.24 557.37 772.83C556.979 771.801 556.842 770.693 556.97 769.6C557.051 769.198 557.234 768.823 557.5 768.51C557.569 768.429 557.646 768.355 557.73 768.29C557.62 768.38 557.87 768.17 557.87 768.2C557.87 768.23 557.47 768.36 557.44 768.37C557.276 768.426 557.103 768.453 556.93 768.45C556.84 768.45 556.85 768.45 556.93 768.45L557.08 768.51C557.145 768.537 557.206 768.574 557.26 768.62C557.428 768.732 557.579 768.866 557.71 769.02C557.961 769.343 558.15 769.709 558.27 770.1C558.47 771.045 558.768 771.967 559.16 772.85C559.61 773.59 562.32 772.51 562.06 772.07C561.45 771.07 561.46 769.8 560.92 768.74C560.702 768.262 560.356 767.853 559.92 767.56C559.25 767.22 558.484 767.121 557.75 767.28C557.012 767.348 556.302 767.601 555.687 768.015C555.072 768.429 554.571 768.992 554.23 769.65C553.856 770.971 553.933 772.379 554.45 773.65L557.27 772.76L554.61 769.66C554.48 769.51 554.01 769.54 553.87 769.55C553.483 769.576 553.102 769.661 552.74 769.8C552.47 769.91 551.54 770.26 551.88 770.66L551.9 770.62Z" fill="#212120"/>
<path d="M515.43 799.72C514.31 798.5 512.54 797.18 510.79 797.28C510.281 797.276 509.782 797.422 509.356 797.702C508.931 797.981 508.598 798.381 508.4 798.85C508.207 799.576 508.285 800.347 508.62 801.02C510.2 804.72 512.06 808.33 513.93 811.9C514.27 812.54 515.39 812.41 515.93 812.15C516.083 812.1 516.223 812.018 516.342 811.91C516.46 811.802 516.555 811.669 516.618 811.522C516.681 811.374 516.713 811.214 516.709 811.054C516.706 810.893 516.669 810.735 516.6 810.59C515.49 808.48 514.42 806.36 513.39 804.21C512.9 803.21 512.39 802.21 511.94 801.14C511.718 800.696 511.524 800.238 511.36 799.77C511.336 799.594 511.299 799.42 511.25 799.25C511.1 798.97 511.43 799.19 511.07 799.32L510.3 799.53C510.734 799.559 511.15 799.711 511.5 799.97C511.986 800.258 512.427 800.615 512.81 801.03C513.071 801.284 513.407 801.446 513.768 801.491C514.129 801.536 514.495 801.462 514.81 801.28C515.29 801.05 515.98 800.28 515.47 799.72H515.43Z" fill="#212120"/>
<path d="M511.31 810.28C513.711 809.08 516.018 807.7 518.21 806.15L515.81 805.91C516.071 806.819 516.639 807.609 517.418 808.145C518.197 808.682 519.138 808.931 520.08 808.85C521.88 808.68 523.84 807.23 523.33 805.23C523.203 804.816 522.994 804.432 522.717 804.099C522.439 803.767 522.098 803.493 521.714 803.294C521.329 803.094 520.909 802.974 520.477 802.939C520.046 802.904 519.612 802.955 519.2 803.09C518.292 803.304 517.493 803.841 516.952 804.601C516.411 805.361 516.165 806.292 516.26 807.22C516.37 807.92 517.48 807.93 517.97 807.79C518.46 807.65 519.27 807.16 519.16 806.45C519.114 806.078 519.195 805.701 519.39 805.38C519.473 805.244 519.574 805.119 519.69 805.01C519.69 805.01 519.82 805.01 519.77 805.01C519.72 805.01 519.54 805.01 519.77 805.01H519.67C519.57 805.01 519.56 805.01 519.67 805.01C519.78 805.01 519.94 805.15 520.01 805.21C520.242 805.42 520.406 805.696 520.48 806C520.544 806.243 520.523 806.501 520.42 806.73C520.42 806.68 520.25 806.87 520.42 806.73C520.59 806.59 520.42 806.73 520.42 806.73C520.71 806.62 520.28 806.73 520.42 806.73C519.72 806.73 519.09 805.8 518.84 805.06C518.51 804.06 517.06 804.38 516.44 804.82C514.442 806.218 512.347 807.472 510.17 808.57C509.67 808.82 509.04 809.44 509.47 810.02C509.74 810.26 510.079 810.408 510.439 810.442C510.799 810.476 511.16 810.395 511.47 810.21L511.31 810.28Z" fill="#212120"/>
<path d="M524.92 804.37L526.81 805.51L528.45 803.71C528.38 803.705 528.31 803.705 528.24 803.71C528.46 803.71 528.51 803.71 528.38 803.71H528.31C528.1 803.66 528.53 803.85 528.31 803.71L528.14 803.6L528.06 803.54C527.99 803.54 528.06 803.54 528.13 803.62L527.99 803.47C527.904 803.361 527.824 803.247 527.75 803.13C527.64 802.97 527.82 803.32 527.75 803.13C527.719 803.065 527.692 802.998 527.67 802.93C527.624 802.806 527.587 802.679 527.56 802.55V802.33C527.555 802.297 527.555 802.263 527.56 802.23C527.56 802.36 527.56 802.38 527.56 802.31C527.56 802.24 527.56 802.02 527.56 801.88C527.56 801.74 527.56 801.77 527.56 801.71C527.56 801.5 527.48 801.87 527.56 801.71C527.623 801.555 527.697 801.405 527.78 801.26C527.863 801.181 527.936 801.094 528 801C527.92 801.13 527.9 801.15 528 801.08L528.08 800.98C528.19 800.85 528.31 800.73 528.43 800.61C528.55 800.49 528.2 800.79 528.43 800.61L528.64 800.45C528.777 800.341 528.921 800.241 529.07 800.15H529.14L529.05 800.21C529.115 800.177 529.179 800.14 529.24 800.1L529.74 799.85C530.2 799.64 530.92 798.97 530.45 798.43C530.174 798.2 529.835 798.06 529.477 798.03C529.119 797.999 528.761 798.08 528.45 798.26C526.82 799.02 524.94 800.32 524.67 802.26C524.605 802.675 524.627 803.098 524.734 803.504C524.84 803.91 525.029 804.29 525.289 804.619C525.549 804.949 525.875 805.221 526.245 805.419C526.615 805.617 527.022 805.736 527.44 805.77C527.755 805.799 528.072 805.758 528.369 805.651C528.666 805.544 528.936 805.373 529.16 805.15C529.245 805.073 529.312 804.978 529.355 804.871C529.398 804.765 529.416 804.65 529.408 804.536C529.401 804.421 529.367 804.31 529.31 804.21C529.253 804.11 529.175 804.025 529.08 803.96L527.19 802.82C526.86 802.66 526.492 802.594 526.127 802.63C525.762 802.665 525.414 802.8 525.12 803.02C524.68 803.36 524.31 804.02 524.94 804.43L524.92 804.37Z" fill="#212120"/>
<path d="M487.29 829.87C489.129 833.751 490.547 837.817 491.52 842C491.83 843.32 494.73 842.56 494.42 841.22C493.449 837.034 492.031 832.964 490.19 829.08C490.021 828.795 489.756 828.58 489.443 828.472C489.13 828.364 488.789 828.37 488.48 828.49C488.03 828.61 486.98 829.21 487.29 829.85V829.87Z" fill="#212120"/>
<path d="M490.21 837.86C490.768 837.496 491.346 837.162 491.94 836.86C492.17 836.731 492.416 836.631 492.67 836.56H492.82C492.64 836.56 492.64 836.56 492.82 836.56C492.68 836.56 492.69 836.56 492.82 836.56C493.022 836.525 493.228 836.525 493.43 836.56C493.709 836.595 493.982 836.669 494.24 836.78C494.744 836.987 495.177 837.334 495.49 837.78C495.783 838.217 495.964 838.719 496.017 839.242C496.069 839.766 495.991 840.294 495.79 840.78C495.586 841.196 495.288 841.559 494.92 841.84C494.8 841.91 494.79 841.92 494.92 841.84L494.71 841.94C494.71 841.88 495.16 841.81 494.88 841.87C494.979 841.855 495.081 841.855 495.18 841.87C495.04 841.87 495.03 841.87 495.18 841.87C495.077 841.881 494.973 841.881 494.87 841.87C494.181 841.787 493.484 841.916 492.87 842.24C492.65 842.34 491.87 842.89 492.52 843C495.1 843.45 498.99 842 499.02 838.93C499.023 838.365 498.89 837.808 498.632 837.305C498.374 836.802 498 836.368 497.54 836.04C496.248 835.293 494.716 835.081 493.27 835.45C491.393 835.882 489.617 836.673 488.04 837.78C487.93 837.85 487.65 838.04 487.7 838.22C487.75 838.4 488.08 838.42 488.21 838.43C488.915 838.44 489.609 838.249 490.21 837.88V837.86Z" fill="#212120"/>
<path d="M502.69 838.23C503.99 837.23 505.69 835.88 505.12 834.04C504.45 831.78 501.12 832.53 499.72 833.61C499.11 834.053 498.672 834.692 498.477 835.421C498.282 836.149 498.343 836.921 498.65 837.61C499.1 838.33 499.742 838.91 500.503 839.286C501.264 839.662 502.115 839.819 502.96 839.74C504.163 839.672 505.336 839.342 506.398 838.774C507.461 838.206 508.386 837.413 509.11 836.45C509.51 835.93 508.77 835.76 508.38 835.78C507.665 835.764 506.972 836.03 506.45 836.52C506.083 837.033 505.638 837.485 505.13 837.86L504.93 838C504.76 838.12 505.07 837.93 504.93 838L504.72 838.12H504.61C504.76 838.06 504.61 838.12 504.55 838.12C504.479 838.153 504.405 838.179 504.33 838.2C504.64 838.14 504.44 838.2 504.33 838.2C503.93 838.31 504.65 838.14 504.25 838.2C504.18 838.2 503.97 838.2 504.25 838.2H504H503.78C503.539 838.184 503.302 838.127 503.08 838.03C502.555 837.818 502.093 837.473 501.74 837.03C501.419 836.622 501.231 836.124 501.202 835.605C501.174 835.086 501.306 834.571 501.58 834.13C501.629 834.057 501.683 833.987 501.74 833.92C501.74 833.92 502.03 833.64 501.88 833.76L502.03 833.65C502.03 833.65 501.8 833.76 502.03 833.65C502.03 833.65 501.72 833.77 501.95 833.65L501.59 833.74C501.74 833.74 501.53 833.74 501.52 833.74C501.52 833.74 501.52 833.74 501.58 833.74C501.64 833.74 501.78 833.84 501.86 833.91C502.048 834.078 502.184 834.297 502.25 834.54C502.67 835.98 501.43 836.94 500.44 837.66C500.3 837.76 500.07 837.99 500.13 838.19C500.19 838.39 500.49 838.48 500.66 838.5C501.387 838.567 502.114 838.372 502.71 837.95L502.69 838.23Z" fill="#212120"/>
<path d="M506.07 833.64C506.15 834.482 506.513 835.273 507.1 835.883C507.686 836.493 508.461 836.886 509.3 837C510.36 837.17 511.447 837.009 512.411 836.538C513.376 836.068 514.172 835.31 514.69 834.37C515.046 833.681 515.148 832.89 514.98 832.133C514.812 831.377 514.384 830.703 513.77 830.23C512.934 829.642 511.943 829.315 510.921 829.29C509.9 829.265 508.893 829.543 508.03 830.09C507.204 830.536 506.561 831.258 506.214 832.13C505.866 833.002 505.837 833.968 506.13 834.86C506.35 835.43 507.31 835.3 507.76 835.17C508.127 835.093 508.47 834.928 508.76 834.69C508.91 834.55 509.15 834.31 509.05 834.08C508.948 833.816 508.881 833.541 508.85 833.26C508.845 833.183 508.845 833.107 508.85 833.03V832.92C508.85 832.76 508.85 832.61 508.92 832.45C508.99 832.29 509 832.15 509.05 832L509.13 831.82C509.13 831.82 509.22 831.63 509.13 831.82C509.2 831.679 509.284 831.545 509.38 831.42L509.49 831.27L509.57 831.18C509.637 831.087 509.637 831.087 509.57 831.18C509.62 831.06 509.88 830.99 509.92 830.87C509.96 830.75 509.66 831.04 509.84 830.93C509.911 830.901 509.978 830.864 510.04 830.82L509.86 830.91L510 830.85L509.77 830.93H509.92C510.04 830.93 510.11 830.93 509.75 830.93H509.91H510.01C510.27 830.93 509.79 830.88 509.95 830.93L510.37 831.01C510.63 831.07 510.17 830.92 510.37 831.01L510.51 831.07C510.678 831.143 510.842 831.227 511 831.32C511.21 831.44 510.88 831.21 511.07 831.32L511.19 831.41C511.31 831.51 511.42 831.62 511.53 831.73C511.64 831.84 511.7 831.93 511.77 832.03L511.83 832.12C511.886 832.208 511.933 832.302 511.97 832.4C512.209 832.918 512.248 833.505 512.08 834.05C512.049 834.176 512.009 834.3 511.96 834.42C511.96 834.42 511.84 834.68 511.96 834.5L511.84 834.71C511.774 834.824 511.7 834.935 511.62 835.04L511.47 835.22C511.64 835.02 511.47 835.22 511.47 835.22L511.29 835.38C511.08 835.56 511.53 835.24 511.29 835.38C511.23 835.38 511.13 835.46 511.08 835.5C511.25 835.34 511.33 835.39 511.2 835.44C511.07 835.49 510.91 835.44 511.28 835.44C511.15 835.44 510.94 835.44 511.37 835.44C511.29 835.43 511.21 835.43 511.13 835.44C511.34 835.44 511.39 835.44 511.28 835.44H511.16C510.88 835.44 511.43 835.5 511.16 835.44L510.83 835.37C511.05 835.37 510.92 835.37 510.83 835.37L510.53 835.24L510.31 835.12L510.17 835.04C510.23 835.04 510.24 835.04 510.17 835.04C510.024 834.934 509.887 834.817 509.76 834.69C509.273 834.208 508.993 833.555 508.98 832.87C508.98 832.65 508.58 832.52 508.43 832.49C508.069 832.433 507.7 832.457 507.35 832.56C506.84 832.71 506.07 833.01 506.09 833.65L506.07 833.64Z" fill="#212120"/>
<path d="M512.35 831.8C514.155 833.352 515.654 835.227 516.77 837.33C517.77 839.2 519.08 841.97 517.98 844.06C517.75 844.457 517.432 844.796 517.051 845.051C516.669 845.305 516.235 845.469 515.78 845.53C515.309 845.581 514.834 845.469 514.435 845.213C514.037 844.956 513.738 844.57 513.59 844.12C512.59 841.86 514.09 839.71 515.5 838.02C515.92 837.52 515.13 837.38 514.77 837.39C514.056 837.382 513.366 837.647 512.84 838.13C511.5 839.74 510.02 841.72 510.4 843.96C510.551 844.883 511.039 845.717 511.77 846.3C512.775 846.915 513.983 847.109 515.13 846.84C517.31 846.51 520.13 845.54 520.99 843.3C521.85 841.06 520.78 838.75 519.84 836.88C518.658 834.55 517.039 832.468 515.07 830.75C514.41 830.18 511.76 831.28 512.35 831.75V831.8Z" fill="#212120"/>
<path d="M516.31 830.52L516.55 830.73L516.34 830.54C517.118 831.235 517.759 832.07 518.23 833L518.11 832.77C518.121 832.836 518.147 832.899 518.185 832.954C518.223 833.01 518.272 833.056 518.33 833.09C518.43 833.202 518.563 833.279 518.71 833.31C519.066 833.415 519.444 833.415 519.8 833.31C520.182 833.233 520.531 833.041 520.8 832.76L520.97 832.52C521.045 832.357 521.056 832.171 521 832C520.43 830.782 519.585 829.714 518.53 828.88C518.229 828.702 517.876 828.632 517.53 828.68C517.138 828.711 516.762 828.845 516.44 829.07C516.308 829.152 516.194 829.26 516.104 829.387C516.015 829.514 515.952 829.658 515.92 829.81V830.07C515.976 830.245 516.093 830.394 516.25 830.49L516.31 830.52Z" fill="#212120"/>
<path d="M516.64 828C517.29 828 518.23 827.82 518.53 827.15C518.83 826.48 518.29 826.06 517.68 826.06C517.07 826.06 516.09 826.23 515.79 826.91C515.49 827.59 516.02 828 516.64 828Z" fill="#212120"/>
<path d="M520.16 829L520.37 829.12C520.477 829.181 520.581 829.247 520.68 829.32C520.936 829.49 521.18 829.677 521.41 829.88C521.41 829.88 521.71 830.16 521.6 830.05L521.89 830.36C522.091 830.592 522.278 830.836 522.45 831.09C522.676 831.326 522.97 831.485 523.291 831.546C523.612 831.607 523.943 831.566 524.24 831.43C524.71 831.25 525.48 830.66 525.24 830.05C524.887 829.376 524.689 828.631 524.66 827.87C524.655 827.783 524.655 827.697 524.66 827.61C524.66 827.51 524.66 827.48 524.66 827.61C524.689 827.528 524.722 827.448 524.76 827.37C524.76 827.37 524.87 827.15 524.76 827.27C524.65 827.39 524.83 827.18 524.85 827.16C524.87 827.14 524.85 827.16 524.85 827.16C525.1 826.96 524.67 827.25 524.85 827.16C525.03 827.07 524.48 827.26 524.85 827.16H524.68C524.807 827.16 524.827 827.16 524.74 827.16C524.59 827.16 524.82 827.16 524.85 827.16L525.13 827.29C525.01 827.22 525.13 827.29 525.13 827.29L525.37 827.47L525.6 827.66C525.51 827.58 525.6 827.66 525.6 827.72C526.18 828.34 526.67 829.03 527.31 829.6C527.628 829.797 528.001 829.888 528.374 829.861C528.748 829.835 529.103 829.691 529.39 829.45C529.521 829.367 529.63 829.255 529.71 829.123C529.79 828.99 529.838 828.841 529.851 828.687C529.863 828.533 529.84 828.378 529.783 828.235C529.725 828.091 529.635 827.963 529.52 827.86C529.34 827.7 529.52 827.86 529.38 827.73C529.291 827.641 529.208 827.548 529.13 827.45L528.65 826.88C528.325 826.459 527.957 826.073 527.55 825.73C527.065 825.327 526.488 825.051 525.871 824.925C525.253 824.799 524.614 824.829 524.01 825.01C523.435 825.195 522.919 825.53 522.515 825.98C522.111 826.429 521.833 826.978 521.71 827.57C521.564 828.649 521.76 829.748 522.27 830.71L525.04 829.71C524.194 828.493 523.051 827.512 521.72 826.86C521.37 826.74 520.992 826.728 520.635 826.826C520.278 826.924 519.959 827.128 519.72 827.41C519.618 827.525 519.546 827.663 519.51 827.813C519.475 827.963 519.477 828.119 519.516 828.268C519.556 828.416 519.632 828.553 519.737 828.665C519.843 828.777 519.974 828.861 520.12 828.91L520.16 829Z" fill="#212120"/>
<path d="M527.69 825.6C528.652 826.438 529.517 827.38 530.27 828.41C530.57 828.83 531.43 828.6 531.84 828.49C532.191 828.4 532.527 828.262 532.84 828.08C532.97 827.99 533.23 827.82 533.18 827.64C532.85 826.767 532.733 825.827 532.84 824.9C532.903 824.532 533.062 824.187 533.3 823.9C533.358 823.835 533.422 823.775 533.49 823.72C533.49 823.72 533.49 823.72 533.49 823.72H533.58C533.432 823.791 533.278 823.848 533.12 823.89C532.92 823.89 532.69 823.89 532.5 823.98C532.61 823.98 532.97 824.23 533.12 824.38C533.322 824.587 533.506 824.811 533.67 825.05C534.007 825.62 534.535 826.052 535.16 826.27C535.849 826.371 536.553 826.241 537.16 825.9C537.42 825.77 538.16 825.3 537.5 825.13C536.84 824.96 536.5 824.13 536.05 823.64C535.65 823.226 535.136 822.94 534.574 822.817C534.012 822.695 533.426 822.741 532.89 822.95C532.296 823.06 531.734 823.304 531.247 823.662C530.761 824.021 530.362 824.485 530.08 825.02C529.764 826.146 529.827 827.344 530.26 828.43L533.16 827.66C532.357 826.561 531.435 825.555 530.41 824.66C530.25 824.52 529.84 824.55 529.67 824.56C529.283 824.588 528.903 824.672 528.54 824.81C528.33 824.89 527.29 825.31 527.68 825.65L527.69 825.6Z" fill="#212120"/>
<path d="M541.71 825.43C542.39 824.43 543.24 823.12 542.64 821.92C542.491 821.618 542.278 821.353 542.015 821.142C541.752 820.931 541.447 820.78 541.12 820.7C540.592 820.587 540.044 820.601 539.522 820.742C539 820.883 538.52 821.146 538.12 821.51C537.697 821.945 537.452 822.522 537.431 823.129C537.411 823.735 537.617 824.328 538.01 824.79C538.443 825.297 539.002 825.681 539.63 825.902C540.259 826.123 540.935 826.174 541.59 826.05C542.436 825.972 543.239 825.646 543.899 825.112C544.559 824.578 545.047 823.861 545.3 823.05C545.44 822.41 544.45 822.34 544.04 822.4C543.653 822.446 543.281 822.576 542.95 822.78C542.694 822.908 542.496 823.13 542.4 823.4C542.381 823.516 542.351 823.63 542.31 823.74C542.31 823.74 542.21 823.94 542.31 823.82C542.41 823.7 542.31 823.89 542.31 823.9C542.259 823.993 542.199 824.08 542.13 824.16C541.99 824.35 542.13 824.16 542.13 824.16L542.01 824.28C541.972 824.325 541.928 824.365 541.88 824.4C541.76 824.52 541.94 824.4 541.98 824.34L541.68 824.52C542.02 824.31 541.89 824.42 541.79 824.46C541.53 824.57 541.93 824.46 541.94 824.46C541.95 824.46 541.79 824.46 541.77 824.46C541.75 824.46 542.18 824.41 541.92 824.46H541.78C542.16 824.46 542.02 824.46 541.9 824.46C541.78 824.46 541.9 824.46 541.98 824.46C541.924 824.45 541.866 824.45 541.81 824.46C541.754 824.454 541.697 824.454 541.64 824.46C541.73 824.46 541.85 824.54 541.64 824.46C541.544 824.419 541.45 824.373 541.36 824.32L541.21 824.23C541.11 824.23 541.33 824.34 541.21 824.23L540.95 824C540.787 823.831 540.646 823.643 540.53 823.44L540.64 823.62C540.466 823.314 540.366 822.972 540.35 822.62V822.84C540.34 822.717 540.34 822.593 540.35 822.47C540.35 822.4 540.35 822.19 540.45 822.13C540.55 822.07 540.37 822.27 540.45 822.13C540.482 822.092 540.512 822.052 540.54 822.01C540.42 822.13 540.39 822.17 540.46 822.11C540.53 822.05 540.46 822.11 540.31 822.21C540.5 822.08 540.08 822.31 540.03 822.32C539.828 822.391 539.615 822.428 539.4 822.43C539.61 822.43 539.14 822.43 539.29 822.43C539.44 822.43 539.29 822.43 539.24 822.43L539.41 822.52C539.56 822.6 539.34 822.44 539.41 822.52L539.53 822.64C539.627 822.739 539.711 822.85 539.78 822.97L539.68 822.79C539.819 823.034 539.892 823.31 539.89 823.59V823.38C539.89 823.6 539.86 823.819 539.8 824.03C539.778 824.108 539.751 824.185 539.72 824.26L539.66 824.42C539.66 824.32 539.66 824.33 539.66 824.42C539.45 824.8 539.23 825.15 538.99 825.5C538.6 826.05 539.32 826.38 539.78 826.38C540.139 826.403 540.497 826.343 540.829 826.204C541.16 826.065 541.455 825.852 541.69 825.58L541.71 825.43Z" fill="#212120"/>
<path d="M545.74 819.93L546.07 820.16L546.23 820.28C546.33 820.35 546.1 820.16 546.23 820.28C546.433 820.456 546.627 820.643 546.81 820.84C547.169 821.238 547.478 821.678 547.73 822.15L547.62 821.94C547.77 822.224 547.901 822.518 548.01 822.82L550.79 821.82C550.623 821.634 550.479 821.429 550.36 821.21L550.47 821.43C550.249 821.009 550.122 820.545 550.1 820.07V820.31C550.08 820.114 550.08 819.916 550.1 819.72C550.11 819.618 550.13 819.518 550.16 819.42C550.16 819.37 550.24 819.05 550.16 819.31C550.22 819.123 550.311 818.947 550.43 818.79L550.52 818.67C550.41 818.81 550.4 818.83 550.47 818.73L550.65 818.55L550.73 818.47C550.83 818.38 550.8 818.41 550.64 818.54C550.725 818.49 550.805 818.433 550.88 818.37C551.2 818.17 550.65 818.47 550.88 818.37L551.14 818.26L550.97 818.32H551.12C551.5 818.22 550.82 818.32 551.12 818.32H551.27C551.41 818.32 551.36 818.32 551.12 818.32C551.217 818.325 551.313 818.325 551.41 818.32C551.801 818.341 552.192 818.269 552.55 818.11C552.863 817.985 553.129 817.764 553.31 817.48C553.61 816.85 553.04 816.48 552.48 816.48C551.53 816.39 550.574 816.564 549.717 816.982C548.86 817.4 548.134 818.047 547.62 818.85C547.254 819.52 547.104 820.287 547.189 821.046C547.275 821.805 547.593 822.519 548.1 823.09C548.347 823.281 548.642 823.4 548.953 823.434C549.264 823.468 549.578 823.414 549.86 823.28C550.27 823.13 551.09 822.67 550.86 822.1C550.311 820.598 549.29 819.313 547.95 818.44C547.642 818.282 547.292 818.226 546.95 818.28C546.557 818.319 546.18 818.453 545.85 818.67C545.4 819 545.05 819.59 545.65 819.98L545.74 819.93Z" fill="#212120"/>
<path d="M557.64 815.66C557.297 815.398 556.894 815.226 556.467 815.162C556.041 815.097 555.605 815.141 555.2 815.29C554.491 815.459 553.858 815.858 553.399 816.424C552.939 816.99 552.68 817.691 552.66 818.42C552.693 818.73 552.831 819.019 553.051 819.239C553.271 819.459 553.56 819.597 553.87 819.63C554.645 819.749 555.437 819.68 556.18 819.43L557.09 819.18C557.16 819.186 557.23 819.186 557.3 819.18C557.03 819.29 557.09 819.18 557.21 819.18H557.42C557.72 819.18 557.18 819.18 557.42 819.18C557.66 819.18 557.42 819.18 557.42 819.18H557.53C557.62 819.18 557.62 819.18 557.53 819.18H557.47H557.61L557.74 819.25C557.74 819.25 557.89 819.34 557.74 819.25C557.781 819.274 557.818 819.305 557.85 819.34C557.946 819.416 558.034 819.504 558.11 819.6L558.2 819.72C558.32 819.89 558.2 819.64 558.2 819.72C558.239 819.814 558.273 819.911 558.3 820.01C558.3 820.08 558.3 820.28 558.3 820.13C558.3 820.18 558.3 820.22 558.3 820.26C558.3 820.3 558.22 820.42 558.3 820.26L558.21 820.39C558.31 820.29 558.31 820.28 558.21 820.39L558.34 820.3C558.34 820.3 558.04 820.48 558.28 820.3C558.52 820.12 558.28 820.3 558.21 820.3C558.066 820.371 557.915 820.428 557.76 820.47C558.12 820.4 557.89 820.47 557.76 820.47L557.51 820.54C557.326 820.6 557.139 820.651 556.95 820.69L556.75 820.74H556.58C556.81 820.69 556.58 820.74 556.52 820.74H556.21L555.64 820.82C555.251 820.862 554.876 820.989 554.54 821.19C554.34 821.31 554.04 821.54 553.99 821.79C553.85 822.44 554.87 822.44 555.24 822.4C556.628 822.248 557.99 821.912 559.29 821.4C560.29 820.99 561.67 820 561.05 818.74C560.43 817.48 559.05 817.24 557.8 817.35C557.098 817.446 556.405 817.603 555.73 817.82C555.67 817.82 555.4 817.95 555.35 817.92C555.3 817.89 555.77 817.87 555.51 817.92H555.35C555.68 817.86 555.59 817.92 555.48 817.92C555.81 817.92 555.65 817.92 555.58 817.92H555.64C555.46 817.84 555.73 818.02 555.64 817.92C555.588 817.849 555.553 817.767 555.539 817.68C555.525 817.593 555.532 817.504 555.56 817.42C555.591 817.281 555.631 817.144 555.68 817.01L555.75 816.85C555.75 816.85 555.83 816.68 555.75 816.79C555.82 816.66 555.9 816.54 555.98 816.42C556.06 816.3 555.98 816.42 555.98 816.42C555.98 816.42 556.26 816.23 555.98 816.42C555.681 816.602 555.327 816.677 554.98 816.63H554.92C555.08 816.63 554.84 816.55 554.97 816.63C555.42 817.08 556.38 816.88 556.89 816.63C557.21 816.48 558.13 815.95 557.66 815.48L557.64 815.66Z" fill="#212120"/>
<path d="M522.3 863C524.4 871.67 526.96 880.36 527.97 889.24C528.1 890.43 532.48 889.51 532.31 888.07C531.31 879.2 528.75 870.5 526.65 861.84C526.34 860.57 521.98 861.68 522.3 863Z" fill="#2D3B49"/>
<path d="M526.91 863.55C529.367 861.489 532.322 860.11 535.48 859.55C538.01 859.14 542.57 858.71 543.72 861.72C544.87 864.73 542.47 867.72 540.34 869.72C538.006 871.826 535.138 873.251 532.05 873.84L533.61 875.84C536.869 872.996 540.729 870.925 544.9 869.78C546.47 869.35 548.78 868.48 550.2 869.68C551.62 870.88 552.2 873.35 552.15 875.25C551.69 884.81 540.48 888.03 532.62 886.16C532.081 886.021 531.515 886.024 530.978 886.168C530.44 886.311 529.948 886.591 529.55 886.98C529.393 887.112 529.276 887.285 529.214 887.481C529.152 887.676 529.147 887.885 529.2 888.084C529.252 888.282 529.36 888.461 529.511 888.6C529.661 888.74 529.848 888.833 530.05 888.87C538.56 890.87 549.62 888.81 554.57 880.87C556.73 877.4 557.37 872.7 555.2 869.09C552.69 864.88 547.27 866.16 543.38 867.32C538.442 868.806 533.879 871.332 530 874.73C528.74 875.83 530.46 876.9 531.55 876.73C535.995 875.972 540.146 874.007 543.55 871.05C546.44 868.49 549.65 864.33 547.86 860.27C546.07 856.21 540.26 856.17 536.48 856.63C531.925 857.179 527.614 858.987 524.03 861.85C523.36 862.4 522.86 863.27 523.74 863.85C524.236 864.086 524.788 864.18 525.335 864.124C525.882 864.068 526.402 863.862 526.84 863.53L526.91 863.55Z" fill="#2D3B49"/>
<path d="M543.19 886.77C544.1 889.95 545.19 893.1 545.96 896.32C546.04 896.62 546.53 896.7 546.76 896.73C547.299 896.773 547.842 896.716 548.36 896.56C548.887 896.44 549.386 896.219 549.83 895.91C550.05 895.73 550.39 895.48 550.31 895.15C549.54 891.93 548.45 888.78 547.54 885.6C547.45 885.3 546.99 885.22 546.74 885.19C546.201 885.148 545.66 885.202 545.14 885.35C544.613 885.476 544.114 885.7 543.67 886.01C543.46 886.18 543.1 886.45 543.19 886.77Z" fill="#2D3B49"/>
<path d="M526.37 853.69C526.434 855.724 526.928 857.721 527.82 859.55C527.95 859.81 528.35 859.82 528.58 859.83C529.119 859.833 529.655 859.756 530.17 859.6C530.69 859.479 531.189 859.28 531.65 859.01C531.8 858.91 532.29 858.63 532.17 858.39C531.272 856.56 530.778 854.558 530.72 852.52C530.72 852.27 530.06 852.25 529.96 852.24C529.425 852.236 528.892 852.314 528.38 852.47C527.855 852.592 527.353 852.794 526.89 853.07C526.67 853.21 526.37 853.38 526.37 853.69Z" fill="#2D3B49"/>
<path d="M533.39 851.78C533.184 853.703 533.494 855.647 534.29 857.41C534.337 857.613 534.459 857.791 534.63 857.91C534.781 858.076 534.981 858.191 535.2 858.24C535.738 858.4 536.312 858.4 536.85 858.24C537.393 858.105 537.886 857.817 538.27 857.41C538.51 857.12 538.82 856.63 538.64 856.23C538.112 855.091 537.8 853.863 537.72 852.61V853C537.675 852.471 537.675 851.939 537.72 851.41C537.83 850.41 536.57 849.97 535.72 850.07C535.132 850.111 534.568 850.315 534.09 850.66C533.892 850.783 533.721 850.945 533.587 851.135C533.453 851.326 533.359 851.542 533.31 851.77L533.39 851.78Z" fill="#2D3B49"/>
<path d="M536.45 890.26L539.04 896.92C539.42 897.92 540.73 897.92 541.58 897.68C542.122 897.551 542.617 897.274 543.01 896.88C543.25 896.59 543.55 896.16 543.39 895.76L540.8 889.1C540.43 888.1 539.11 888.1 538.26 888.34C537.718 888.469 537.223 888.746 536.83 889.14C536.59 889.43 536.3 889.86 536.45 890.26Z" fill="#2D3B49"/>
<path d="M542.11 946.77C542.11 946.47 542.32 946.13 542.67 946.19C542.87 946.256 543.048 946.376 543.183 946.536C543.319 946.697 543.408 946.892 543.44 947.1C543.68 948.2 542.73 949.1 542.89 950.21C542.89 950.48 543.36 950.37 543.5 950.28L545.36 949.02C545.389 949 545.412 948.973 545.429 948.941C545.445 948.91 545.453 948.875 545.453 948.84C545.453 948.805 545.445 948.77 545.429 948.739C545.412 948.707 545.389 948.68 545.36 948.66C545.283 948.609 545.192 948.582 545.1 948.582C545.007 948.582 544.917 948.609 544.84 948.66L543 950L543.6 950.07C543.628 949.376 543.798 948.695 544.1 948.07C544.194 947.772 544.221 947.458 544.179 947.148C544.138 946.839 544.029 946.543 543.86 946.28C543.695 946.049 543.466 945.871 543.201 945.77C542.936 945.668 542.647 945.648 542.37 945.71C542.101 945.759 541.856 945.897 541.674 946.102C541.493 946.307 541.386 946.567 541.37 946.84C541.37 947.22 542.11 947.1 542.1 946.78L542.11 946.77Z" fill="#2D3B49"/>
<path d="M544.94 945.33C545.07 945.85 545.22 946.33 545.4 946.88C545.534 947.304 545.718 947.71 545.95 948.09C546.053 948.269 546.198 948.42 546.372 948.532C546.546 948.643 546.744 948.711 546.95 948.73C547.357 948.75 547.755 948.61 548.06 948.34C548.365 948.034 548.591 947.658 548.718 947.245C548.846 946.833 548.872 946.395 548.793 945.97C548.714 945.545 548.534 945.146 548.267 944.806C548 944.467 547.654 944.197 547.26 944.02C546.45 943.76 545.26 944.17 545.26 945.15C545.26 945.49 545.97 945.36 545.98 945.08C545.975 944.957 546.004 944.835 546.062 944.726C546.119 944.617 546.205 944.525 546.31 944.46C546.409 944.416 546.516 944.393 546.625 944.393C546.734 944.393 546.841 944.416 546.94 944.46C547.239 944.613 547.497 944.837 547.69 945.113C547.884 945.388 548.007 945.706 548.05 946.04C548.13 946.372 548.134 946.717 548.063 947.051C547.993 947.385 547.848 947.699 547.64 947.97C547.52 948.11 547.36 948.27 547.16 948.21C546.892 948.077 546.68 947.854 546.56 947.58C546.373 947.207 546.219 946.819 546.1 946.42C545.95 945.98 545.82 945.54 545.71 945.09C545.64 944.8 544.91 944.99 544.99 945.29L544.94 945.33Z" fill="#2D3B49"/>
<path d="M549.22 943.84C549.209 943.763 549.215 943.685 549.239 943.611C549.263 943.537 549.304 943.469 549.358 943.413C549.412 943.357 549.478 943.314 549.551 943.288C549.624 943.261 549.703 943.252 549.78 943.26C549.98 943.325 550.159 943.445 550.295 943.605C550.431 943.766 550.519 943.962 550.55 944.17C550.79 945.26 549.84 946.17 550 947.28C550 947.54 550.47 947.43 550.6 947.34L552.47 946.09C552.499 946.069 552.522 946.041 552.539 946.009C552.555 945.977 552.563 945.941 552.563 945.905C552.563 945.869 552.555 945.834 552.539 945.802C552.522 945.769 552.499 945.741 552.47 945.72C552.392 945.671 552.302 945.645 552.21 945.645C552.118 945.645 552.028 945.671 551.95 945.72L550.12 947L550.73 947.06C550.758 946.366 550.928 945.686 551.23 945.06C551.323 944.764 551.35 944.451 551.309 944.143C551.267 943.836 551.158 943.541 550.99 943.28C550.828 943.046 550.599 942.866 550.334 942.762C550.068 942.659 549.778 942.637 549.5 942.7C549.232 942.752 548.989 942.891 548.808 943.096C548.628 943.3 548.519 943.558 548.5 943.83C548.5 944.21 549.25 944.09 549.24 943.83L549.22 943.84Z" fill="#2D3B49"/>
<path d="M552.6 942.58C552.6 942.27 552.81 941.93 553.15 942C553.352 942.063 553.533 942.182 553.671 942.343C553.809 942.504 553.898 942.7 553.93 942.91C554.17 944.01 553.22 944.91 553.38 946.02C553.38 946.28 553.85 946.17 553.98 946.08L555.84 944.83C555.871 944.81 555.896 944.783 555.914 944.75C555.932 944.718 555.941 944.682 555.941 944.645C555.941 944.608 555.932 944.572 555.914 944.539C555.896 944.507 555.871 944.48 555.84 944.46C555.765 944.41 555.676 944.383 555.585 944.383C555.494 944.383 555.406 944.41 555.33 944.46L553.46 945.71L554.07 945.77C554.096 945.076 554.266 944.395 554.57 943.77C554.664 943.472 554.691 943.158 554.649 942.848C554.608 942.539 554.499 942.242 554.33 941.98C554.166 941.748 553.937 941.569 553.672 941.466C553.407 941.363 553.118 941.34 552.84 941.4C552.572 941.454 552.328 941.595 552.147 941.801C551.967 942.007 551.859 942.266 551.84 942.54C551.84 942.91 552.59 942.8 552.58 942.48L552.6 942.58Z" fill="#2D3B49"/>
<defs>
<linearGradient id="paint0_linear_1_46689" x1="275.563" y1="646.35" x2="1094.88" y2="-128.984" gradientUnits="userSpaceOnUse">
<stop stop-color="#FBD299"/>
<stop offset="0.01" stop-color="#FBD39B" stop-opacity="0.98"/>
<stop offset="0.13" stop-color="#FCDDB2" stop-opacity="0.75"/>
<stop offset="0.25" stop-color="#FDE6C7" stop-opacity="0.55"/>
<stop offset="0.37" stop-color="#FDEED8" stop-opacity="0.38"/>
<stop offset="0.49" stop-color="#FEF4E6" stop-opacity="0.24"/>
<stop offset="0.61" stop-color="#FEF9F1" stop-opacity="0.14"/>
<stop offset="0.74" stop-color="#FFFCF9" stop-opacity="0.06"/>
<stop offset="0.87" stop-color="#FFFEFD" stop-opacity="0.01"/>
<stop offset="1" stop-color="white" stop-opacity="0"/>
</linearGradient>
<linearGradient id="paint1_linear_1_46689" x1="427.195" y1="770.52" x2="568.006" y2="737.415" gradientUnits="userSpaceOnUse">
<stop stop-color="#FCE1C0"/>
<stop offset="0.5" stop-color="#FAE9D0"/>
<stop offset="1" stop-color="#F8F2E5"/>
</linearGradient>
<radialGradient id="paint2_radial_1_46689" cx="0" cy="0" r="1" gradientUnits="userSpaceOnUse" gradientTransform="translate(484.259 842.963) rotate(-13.23) scale(123.96)">
<stop stop-color="#599A6C"/>
<stop offset="0.37" stop-color="#599970"/>
<stop offset="0.71" stop-color="#5B977B"/>
<stop offset="1" stop-color="#5D938B"/>
</radialGradient>
<linearGradient id="paint3_linear_1_46689" x1="433.563" y1="882.638" x2="477.651" y2="872.273" gradientUnits="userSpaceOnUse">
<stop stop-color="#599A6C"/>
<stop offset="0.37" stop-color="#599970"/>
<stop offset="0.71" stop-color="#5B977B"/>
<stop offset="1" stop-color="#5D938B"/>
</linearGradient>
</defs>
</svg>
