<svg width="1660" height="1660" viewBox="0 0 1660 1660" fill="none" xmlns="http://www.w3.org/2000/svg">
<path d="M428.45 807.83C446.95 676.083 465.467 544.333 484 412.58C502.5 280.83 520.7 131.75 539.2 0H1217C1096.19 137.26 972.62 291.84 851.8 429.1L489.35 840.88L428.45 807.83Z" fill="url(#paint0_linear_1_46649)"/>
<path d="M361.49 739.9C366.954 737.078 372.64 734.707 378.49 732.81C384.649 730.819 390.964 729.35 397.37 728.42C400.92 730.63 404.55 733.12 408.21 735.94C422.568 747.159 434.496 761.18 443.27 777.15L456.44 780.75L414.33 794.38L362.15 742.38L361.49 739.9Z" fill="#FCE1C0" stroke="#010101" stroke-width="4" stroke-miterlimit="10"/>
<path d="M561.51 729C557.171 724.769 551.998 721.489 546.32 719.37C534.83 723.54 460.96 750.81 434.32 781.19C431.66 784.19 430.51 786.09 431.11 787.44C436.41 799.44 570.85 754.66 567.85 737.15C567.43 734.8 564.42 731.84 561.51 729Z" fill="url(#paint1_linear_1_46649)" stroke="#010101" stroke-width="4" stroke-miterlimit="10"/>
<path d="M359.3 738.24L418.62 778.14C418.933 778.348 419.285 778.49 419.655 778.557C420.024 778.624 420.404 778.615 420.77 778.53L455.88 770.28L456.14 770.2L573.66 729.94C574.039 729.809 574.442 729.764 574.841 729.807C575.239 729.849 575.624 729.979 575.967 730.188C576.309 730.396 576.602 730.677 576.824 731.011C577.046 731.345 577.191 731.723 577.25 732.12L607.06 931.86C607.161 932.488 607.039 933.131 606.716 933.679C606.392 934.227 605.888 934.644 605.29 934.86L491 976.39C490.863 976.439 490.722 976.479 490.58 976.51L455.95 983.18C455.328 983.301 454.684 983.198 454.13 982.89L390.73 948.36C390.362 948.153 390.046 947.866 389.805 947.52C389.564 947.173 389.405 946.777 389.34 946.36L355.08 741C354.98 740.47 355.04 739.922 355.252 739.426C355.463 738.929 355.817 738.507 356.269 738.212C356.72 737.916 357.249 737.761 357.789 737.766C358.328 737.771 358.854 737.936 359.3 738.24V738.24Z" fill="url(#paint2_linear_1_46649)" stroke="#010101" stroke-width="4" stroke-miterlimit="10"/>
<path d="M419.81 778.99L454.95 983.36" stroke="#010101" stroke-width="4" stroke-miterlimit="10"/>
<path d="M455.85 770.44L490.75 976.47" stroke="#010101" stroke-width="4" stroke-miterlimit="10"/>
<path d="M454.15 772.75L488.43 974.83L456.57 981.01L421.99 780.3L454.15 772.75Z" fill="url(#paint3_linear_1_46649)"/>
<path opacity="0.72" d="M458.12 771.66L533.94 854.87L574.35 731.81L458.12 771.66Z" fill="#EB807A"/>
<path opacity="0.72" d="M604.77 932.88L533.99 854.86L492.33 973.76L604.77 932.88Z" fill="#EB807A"/>
<path d="M479.66 779.05C480.18 785.97 483.95 792.05 484.81 798.92C484.93 799.92 487.81 800.09 487.76 799.44C486.91 792.6 483.13 786.44 482.62 779.58C482.54 778.58 479.62 778.36 479.62 779.05H479.66Z" fill="white"/>
<path d="M486.5 786.94L487.39 785.94C487.417 785.908 487.432 785.867 487.432 785.825C487.432 785.783 487.417 785.742 487.39 785.71C487.384 785.661 487.366 785.615 487.339 785.575C487.311 785.535 487.273 785.502 487.23 785.48C487.115 785.395 486.987 785.331 486.85 785.29C486.688 785.221 486.516 785.177 486.34 785.16C485.959 785.095 485.571 785.095 485.19 785.16C484.925 785.194 484.677 785.31 484.48 785.49L483.59 786.49C483.564 786.525 483.55 786.567 483.55 786.61C483.55 786.653 483.564 786.695 483.59 786.73C483.596 786.778 483.614 786.825 483.642 786.865C483.669 786.905 483.707 786.938 483.75 786.96C483.865 787.042 483.994 787.103 484.13 787.14C484.292 787.209 484.464 787.253 484.64 787.27C485.02 787.344 485.41 787.344 485.79 787.27C486.055 787.244 486.305 787.131 486.5 786.95V786.94Z" fill="white"/>
<path d="M483.73 780.63C485.293 779.467 487.018 778.541 488.85 777.88C488.894 777.871 488.935 777.853 488.972 777.827C489.008 777.8 489.039 777.767 489.061 777.728C489.084 777.69 489.098 777.647 489.103 777.602C489.108 777.558 489.104 777.513 489.09 777.47C489.02 777.24 488.68 777.05 488.49 776.97C487.859 776.641 487.128 776.559 486.44 776.74C484.481 777.47 482.639 778.481 480.97 779.74C480.79 779.87 480.91 780.11 480.97 780.23C481.202 780.442 481.479 780.599 481.78 780.69C482.078 780.826 482.402 780.896 482.73 780.896C483.058 780.896 483.382 780.826 483.68 780.69L483.73 780.63Z" fill="white"/>
<path d="M491.63 775.62C493.69 781.18 495.61 786.79 497.39 792.45C497.68 793.38 500.58 793.07 500.39 792.45C498.57 786.69 496.613 780.973 494.52 775.3C494.25 774.55 491.3 774.72 491.63 775.62V775.62Z" fill="white"/>
<path d="M495.49 775.62C495.976 774.979 496.694 774.555 497.49 774.44C497.66 774.44 497.91 774.51 497.69 774.44C497.949 774.589 498.168 774.798 498.33 775.05C499.42 776.57 498.64 778.79 498.09 780.38C497.849 781.173 497.458 781.913 496.94 782.56C496.37 783.2 495.47 783.68 496.27 784.56C497.07 785.44 497.91 786.09 498.72 786.84L501.09 789.02L506.63 794.13C507.19 794.592 507.905 794.824 508.63 794.78C509.23 794.78 509.32 794.37 508.9 793.98L503.45 788.98L500.72 786.47L499.45 785.29C499.29 785.15 498.91 784.91 498.84 784.73C498.77 784.55 498.99 784.36 499.18 784.19C500.63 782.89 501.18 780.81 501.58 778.96C501.83 777.981 501.76 776.947 501.38 776.01C500.954 775.145 500.278 774.427 499.44 773.95C497.44 772.77 494.44 772.53 492.87 774.49C492.27 775.23 495 776.33 495.52 775.69L495.49 775.62Z" fill="white"/>
<path d="M516.73 792.52C516.49 784.24 518.22 775.59 515.22 767.62L512.3 768.08C517.533 775.287 523.01 782.313 528.73 789.16C529.3 789.84 532.1 789.16 531.58 788.55C525.86 781.71 520.383 774.68 515.15 767.46C514.74 766.9 511.97 767.22 512.23 767.92C515.23 775.92 513.51 784.55 513.75 792.83C513.75 793.63 516.75 793.42 516.75 792.52H516.73Z" fill="white"/>
<path d="M535.91 782.44C534.716 776.464 533.112 770.577 531.11 764.82L528.35 765.12C535.378 770.161 541.724 776.09 547.23 782.76C547.478 782.974 547.768 783.132 548.082 783.223C548.396 783.315 548.726 783.337 549.05 783.29C549.33 783.29 550.42 783.14 550.14 782.61C545.89 774.76 544.14 765.93 542.52 757.24C542.34 756.3 539.39 756.38 539.52 757.06C541.2 765.85 542.94 774.81 547.23 782.76L550.14 782.61C544.559 775.831 538.126 769.801 531 764.67C530.444 764.338 529.79 764.211 529.15 764.31C528.8 764.36 528.06 764.47 528.24 764.97C530.199 770.624 531.773 776.404 532.95 782.27C533.14 783.21 536.08 783.11 535.95 782.44H535.91Z" fill="white"/>
<path d="M553 759C553.767 758.51 554.594 758.12 555.46 757.84H554.88H555.06L553.95 757.54C553.31 757.28 553.51 757.05 553.47 757.54C553.449 757.716 553.412 757.89 553.36 758.06C553.26 758.48 553.18 758.9 553.12 759.33C552.98 760.21 552.9 761.1 552.84 762C552.71 763.88 552.64 765.76 552.61 767.64C552.55 771.42 552.65 775.193 552.91 778.96C552.91 779.34 553.71 779.66 553.96 779.75C554.432 779.966 554.959 780.033 555.47 779.94L565.83 776.94C566.48 776.75 565.83 776.18 565.57 775.94C564.979 775.556 564.266 775.406 563.57 775.52L553.21 778.52L555.78 779.52C555.438 774.587 555.382 769.639 555.61 764.7C555.67 763.55 555.72 762.41 555.85 761.27C555.92 760.65 556.01 760.03 556.14 759.42C556.258 758.999 556.331 758.566 556.36 758.13C556.36 756.85 554.49 756.3 553.46 756.38C552.957 756.47 552.475 756.653 552.04 756.92L550.36 757.76C549.82 758.04 550.97 758.76 551.13 758.76C551.408 758.928 551.718 759.036 552.04 759.078C552.362 759.119 552.689 759.093 553 759Z" fill="white"/>
<path d="M483.82 813.92C485.466 820.847 486.741 827.857 487.64 834.92C487.74 835.74 490.64 836.34 490.51 835.41C489.606 828.348 488.331 821.338 486.69 814.41C486.49 813.57 483.62 813.07 483.82 813.91V813.92Z" fill="white"/>
<path d="M490.58 823.82C490.979 820.789 491.72 817.814 492.79 814.95C493.03 814.29 490.15 813.64 489.79 814.54C488.722 817.401 487.98 820.373 487.58 823.4C487.51 823.94 488.63 824.16 488.98 824.2C489.33 824.24 490.48 824.36 490.55 823.82H490.58Z" fill="white"/>
<path d="M489.54 824.63C493.44 826.03 497.6 827.56 500.46 830.74C500.972 831.233 501.649 831.518 502.36 831.54C502.69 831.54 503.58 831.42 503.12 830.9C499.63 827.04 494.66 825.19 489.89 823.48C489.54 823.35 488.46 823.11 488.28 823.62C488.1 824.13 489.28 824.53 489.54 824.62V824.63Z" fill="white"/>
<path d="M510.05 830.75L507.82 803.33L504.9 803.77C511.192 811.186 517.001 818.998 522.29 827.16C522.75 827.88 525.63 827.32 525.14 826.58C519.851 818.415 514.042 810.599 507.75 803.18C507.4 802.77 506.53 802.83 506.07 802.91C505.61 802.99 504.79 803.12 504.83 803.61L507.06 831C507.13 831.84 510.12 831.58 510.06 830.72L510.05 830.75Z" fill="white"/>
<path d="M522.37 802.86C525.85 808.2 525.85 814.86 528.49 820.56L531.06 820.38L530.47 819.99C529.84 819.62 529.095 819.499 528.38 819.65C527.8 819.79 527.77 820.16 528.24 820.49L528.83 820.88C529.365 821.19 529.985 821.323 530.6 821.26C530.86 821.26 531.6 821.13 531.39 820.71C528.76 815.02 528.76 808.35 525.28 803.01C525.058 802.771 524.786 802.584 524.483 802.462C524.181 802.339 523.856 802.284 523.53 802.3C523.33 802.3 522.05 802.36 522.37 802.86Z" fill="white"/>
<path d="M528 809L528.14 808.88L528 809C528.608 808.51 529.281 808.106 530 807.8L529.75 807.9C529.903 807.831 530.06 807.771 530.22 807.72C530.38 807.66 530.68 807.55 530.69 807.33C530.7 807.11 530.44 806.94 530.29 806.87C529.975 806.724 529.636 806.636 529.29 806.61C528.928 806.569 528.561 806.6 528.21 806.7C527.648 806.895 527.106 807.143 526.59 807.44C526.089 807.732 525.614 808.066 525.17 808.44C525 808.58 525.17 808.82 525.29 808.91C525.548 809.094 525.846 809.214 526.16 809.26C526.543 809.33 526.937 809.33 527.32 809.26L527.63 809.19C527.781 809.149 527.919 809.07 528.03 808.96L528 809Z" fill="white"/>
<path d="M525.33 802.88C526.139 801.998 527.068 801.234 528.09 800.61C528.606 800.309 529.14 800.042 529.69 799.81C529.99 799.68 530.28 799.57 530.58 799.47L530.98 799.35C530.98 799.35 531.25 799.27 531.16 799.29H531.34C531.51 799.29 531.81 799.18 531.86 798.97C531.91 798.76 531.66 798.55 531.52 798.46C530.904 798.064 530.164 797.908 529.44 798.02C526.809 798.654 524.42 800.044 522.57 802.02C522.16 802.45 523.16 802.87 523.44 802.96C523.807 803.085 524.193 803.145 524.58 803.14C524.847 803.164 525.114 803.089 525.33 802.93V802.88Z" fill="white"/>
<path d="M536.66 796C538.141 799.41 539.222 802.981 539.88 806.64C540.66 810.45 541.38 814.28 542.13 818.09C542.32 819.09 545.24 819.03 545.13 818.39C544.36 814.49 543.63 810.59 542.83 806.71C542.167 803.013 541.076 799.405 539.58 795.96C539.21 795.18 536.31 795.22 536.67 795.96L536.66 796Z" fill="white"/>
<path d="M543.66 797.16C543.412 800.477 542.688 803.74 541.51 806.85C541.37 807.23 542.41 807.47 542.58 807.49C546.664 808.221 550.4 810.256 553.23 813.29C553.524 813.476 553.853 813.601 554.197 813.657C554.54 813.714 554.891 813.701 555.23 813.62C555.68 813.54 556.23 813.3 555.82 812.84C552.492 809.402 548.136 807.138 543.41 806.39L544.48 807.03C545.659 803.921 546.38 800.657 546.62 797.34C546.68 796.5 543.69 796.34 543.62 797.16H543.66Z" fill="white"/>
<path d="M560.54 811.11C560.745 807.186 560.745 803.254 560.54 799.33C560.44 797.37 560.283 795.413 560.07 793.46C559.97 792.52 559.86 791.59 559.74 790.66C559.64 789.92 559.37 788.96 559.85 788.31L557.11 788.13C563.27 795.25 569.127 802.623 574.68 810.25C574.913 810.478 575.193 810.652 575.501 810.761C575.808 810.869 576.135 810.91 576.46 810.88C576.66 810.88 577.94 810.76 577.59 810.27C571.963 802.55 566.017 795.07 559.75 787.83C559.32 787.33 557.46 787.03 557.01 787.65C556.814 787.972 556.685 788.33 556.63 788.703C556.575 789.075 556.596 789.455 556.69 789.82C556.82 790.82 556.94 791.76 557.05 792.74C557.27 794.74 557.437 796.74 557.55 798.74C557.759 802.737 557.759 806.743 557.55 810.74C557.55 811.62 560.49 811.9 560.55 811.09L560.54 811.11Z" fill="white"/>
<path d="M527.56 900.37C528.744 905.958 529.596 911.611 530.11 917.3C530.17 917.93 532.11 918.05 532.11 917.58C531.587 911.817 530.723 906.09 529.52 900.43C529.41 899.91 527.45 899.75 527.58 900.37H527.56Z" fill="#212120"/>
<path d="M519.19 907.37C525.301 903.31 531.853 899.955 538.72 897.37C539.15 897.21 538.65 896.85 538.46 896.77C538.03 896.571 537.542 896.539 537.09 896.68C530.219 899.263 523.664 902.618 517.55 906.68C516.91 907.1 518.74 907.68 519.19 907.36V907.37Z" fill="#212120"/>
<path d="M533.56 902.09L535.56 915.66C535.64 916.21 537.46 916.49 537.56 915.9C537.872 913.62 538.878 911.49 540.44 909.8L538.52 909.56C539.455 910.785 539.901 912.314 539.77 913.85C539.77 914.35 540.93 914.43 541.22 914.38C542.152 914.226 543.041 913.88 543.831 913.364C544.622 912.847 545.296 912.172 545.81 911.38C546.65 910.08 547.45 907.8 546.3 906.45C545.954 906.103 545.512 905.867 545.032 905.771C544.551 905.675 544.053 905.723 543.6 905.91C543.244 906.129 542.946 906.43 542.732 906.789C542.518 907.148 542.394 907.553 542.37 907.97C542.275 908.825 542.474 909.686 542.934 910.413C543.394 911.14 544.087 911.689 544.9 911.97C546.78 912.66 549.33 912.3 550.46 910.49C550.78 909.98 548.87 909.57 548.57 910.05C547.86 911.18 546.34 912 545.24 910.92C544.706 910.369 544.385 909.648 544.332 908.883C544.278 908.118 544.498 907.359 544.95 906.74C545.012 906.658 545.09 906.59 545.18 906.54C544.433 906.3 544.203 906.32 544.49 906.6C544.55 906.74 544.66 906.87 544.71 907.02C544.843 907.405 544.887 907.815 544.84 908.22C544.733 909.468 544.237 910.652 543.423 911.604C542.608 912.556 541.516 913.23 540.3 913.53L541.75 914.05C541.894 912.439 541.434 910.832 540.46 909.54C540.14 909.12 538.95 908.88 538.55 909.31C536.934 911.061 535.888 913.261 535.55 915.62L537.55 915.86L535.55 902.29C535.46 901.65 533.55 901.6 533.55 902.05L533.56 902.09Z" fill="#212120"/>
<path d="M509.31 934.1C509.91 939.433 510.407 944.807 510.8 950.22C510.85 950.78 512.8 950.65 512.8 950.08C512.4 944.7 511.9 939.327 511.3 933.96C511.24 933.39 509.25 933.55 509.3 934.1H509.31Z" fill="#212120"/>
<path d="M510 934.78C510.988 936.259 512.113 937.642 513.36 938.91C513.71 939.26 515.19 939.36 515.36 938.73L516.99 931.16L514.99 931.24L518 947C518.11 947.61 520.09 947.42 520 946.92L517 931.21C516.89 930.62 515.13 930.73 515 931.29L513.37 938.86L515.37 938.67C514.12 937.405 512.995 936.021 512.01 934.54C511.69 934.06 509.78 934.36 510.09 934.83L510 934.78Z" fill="#212120"/>
<path d="M522.79 943C523.1 942.385 523.342 941.738 523.51 941.07C523.711 940.539 523.739 939.958 523.59 939.41C523.19 938.53 521.83 938.75 521.12 939.06C520.844 939.171 520.593 939.336 520.382 939.546C520.17 939.755 520.003 940.005 519.89 940.28C519.62 941.295 519.676 942.369 520.05 943.35C520.102 943.639 520.219 943.913 520.392 944.15C520.566 944.387 520.79 944.582 521.05 944.72C521.776 944.97 522.564 944.97 523.29 944.72C524.024 944.523 524.663 944.069 525.09 943.44C525.437 942.844 525.683 942.196 525.82 941.52C525.92 941.14 525.29 941.13 525.05 941.14C524.792 941.151 524.538 941.209 524.3 941.31C524.17 941.37 523.93 941.47 523.89 941.62C523.776 942.094 523.626 942.559 523.44 943.01C523.352 943.218 523.241 943.416 523.11 943.6C523.055 943.674 522.995 943.744 522.93 943.81L522.81 943.93C522.71 944.02 522.87 943.93 522.74 943.93L522.63 943.99C522.5 944.07 522.63 943.99 522.63 943.99C522.63 943.99 522.42 944.05 522.56 943.99H522.62C522.51 943.99 522.53 943.99 522.69 943.99C522.647 943.984 522.603 943.984 522.56 943.99C522.63 943.99 522.77 943.99 522.64 943.99H522.74C522.9 943.99 522.59 943.99 522.74 943.99C522.89 943.99 522.66 943.99 522.66 943.99H522.55C522.6 943.99 522.55 943.99 522.55 943.99L522.43 943.87C522.289 943.7 522.187 943.503 522.13 943.29C521.828 942.489 521.695 941.635 521.74 940.78C521.756 940.613 521.793 940.448 521.85 940.29C521.908 940.128 521.985 939.974 522.08 939.83L522.25 939.66H522.11C522.11 939.66 521.45 939.74 521.46 939.66C521.47 939.58 521.46 939.66 521.46 939.66C521.524 939.723 521.569 939.803 521.59 939.89C521.665 940.395 521.614 940.91 521.44 941.39C521.278 941.989 521.053 942.568 520.77 943.12C520.59 943.48 521.37 943.5 521.54 943.49C521.89 943.49 522.54 943.38 522.71 943.01L522.79 943Z" fill="#212120"/>
<path d="M524.62 931C524.74 932.76 524.88 934.52 525.03 936.27C525.11 937.19 525.19 938.1 525.28 939.01C525.293 939.773 525.397 940.532 525.59 941.27C526.07 942.67 527.93 942.83 529.15 942.43C530.55 941.98 531.06 940.69 531.48 939.43C531.61 939.02 529.68 938.75 529.48 939.38C529.329 939.903 529.118 940.406 528.85 940.88C528.615 941.299 528.269 941.645 527.85 941.88C528.01 941.78 528.11 942 527.85 941.77C527.661 941.564 527.539 941.306 527.5 941.03C527.393 940.438 527.327 939.84 527.3 939.24C527.04 936.54 526.817 933.833 526.63 931.12C526.63 930.53 524.63 930.54 524.63 931.12L524.62 931Z" fill="#212120"/>
<path d="M525.59 937.78L529.12 936.14C529.51 935.96 529.12 935.64 528.88 935.54C528.644 935.429 528.39 935.362 528.13 935.34C527.922 935.305 527.708 935.325 527.51 935.4L524 937C523.61 937.18 524 937.5 524.24 937.61C524.478 937.714 524.731 937.778 524.99 937.8C525.198 937.834 525.41 937.817 525.61 937.75L525.59 937.78Z" fill="#212120"/>
<path d="M533 934.92C532.482 935.03 531.996 935.259 531.581 935.588C531.167 935.918 530.834 936.34 530.61 936.82C530.395 937.271 530.296 937.77 530.322 938.269C530.348 938.769 530.499 939.254 530.76 939.68C530.954 939.943 531.202 940.161 531.488 940.319C531.773 940.477 532.09 940.572 532.415 940.596C532.741 940.621 533.068 940.575 533.374 940.462C533.681 940.349 533.959 940.171 534.19 939.94C534.592 939.339 534.855 938.655 534.96 937.94C535.128 937.165 535.202 936.373 535.18 935.58L533.18 935.85C533.285 936.583 533.606 937.268 534.103 937.817C534.601 938.366 535.251 938.754 535.97 938.93C536.31 939.03 537.48 939.01 537.6 938.53L538.97 933.39L536.97 933.55L537.71 937.31C537.82 937.87 539.71 937.62 539.71 937.05C539.675 936.073 539.853 935.101 540.231 934.199C540.61 933.298 541.179 932.49 541.9 931.83L540.07 931.98C540.966 933.15 541.464 934.576 541.49 936.05L543.49 935.78C543.383 934.778 543.527 933.765 543.91 932.833C544.292 931.901 544.901 931.078 545.68 930.44L544.13 930.73C544.71 930.91 544.59 932.09 544.6 932.53C544.547 932.902 544.573 933.281 544.679 933.641C544.784 934.002 544.965 934.335 545.21 934.62C545.678 934.916 546.221 935.073 546.775 935.073C547.329 935.073 547.872 934.916 548.34 934.62C549.4 933.98 549.56 932.8 549.63 931.62L547.63 931.88C547.79 934.2 550.63 934.88 552.47 934.15C552.858 933.993 553.202 933.745 553.473 933.427C553.744 933.108 553.933 932.729 554.026 932.321C554.118 931.913 554.11 931.489 554.003 931.085C553.896 930.681 553.692 930.308 553.41 930C551.94 928.63 548.78 929.51 548.24 931.45C547.6 933.76 550.6 934.31 552.24 933.95C552.807 933.848 553.341 933.614 553.8 933.267C554.259 932.919 554.629 932.468 554.88 931.95C555.369 930.71 555.391 929.334 554.94 928.08L554.5 928.48L556.71 927.48H555.22C555.75 928.48 555.12 929.67 555.6 930.71C556.08 931.75 557.41 931.83 558.4 931.46C559.437 930.948 560.241 930.062 560.65 928.98C561.174 927.87 561.447 926.658 561.45 925.43L559.45 925.7L560.15 933.7L562.15 933.43C561.56 932.002 561.359 930.443 561.566 928.911C561.773 927.38 562.382 925.93 563.33 924.71L561.53 925.05C561.9 925.25 562.187 925.575 562.339 925.967C562.491 926.359 562.499 926.793 562.36 927.19C561.965 928.138 561.26 928.924 560.36 929.42C560.05 929.64 560.06 929.86 560.43 929.98C560.904 930.089 561.402 930.021 561.83 929.79C563.53 928.786 564.892 927.299 565.743 925.518C566.595 923.737 566.896 921.743 566.61 919.79C566.52 919.23 564.61 919.48 564.61 920.06C564.766 922.415 565.1 924.755 565.61 927.06C565.74 927.68 567.34 927.28 567.61 926.9L569.89 923.14H567.95C567.27 925.03 569.59 925.96 571.08 925.7C571.488 925.649 571.879 925.51 572.229 925.294C572.578 925.079 572.877 924.79 573.105 924.449C573.334 924.108 573.486 923.722 573.553 923.316C573.619 922.911 573.598 922.496 573.49 922.1C573.32 921.51 571.37 921.86 571.49 922.36C571.98 924.22 574.16 924.73 575.78 924.06C577.12 923.5 578.05 921.52 576.55 920.56C575.44 919.85 573.02 920.05 572.45 921.43C572.34 921.753 572.335 922.103 572.438 922.429C572.54 922.754 572.744 923.039 573.02 923.24C573.387 923.497 573.813 923.658 574.258 923.709C574.704 923.759 575.155 923.698 575.57 923.53C576.57 923.16 577.18 922.11 577.8 921.25L580.29 917.81C580.51 917.51 579.76 917.43 579.65 917.42C579.221 917.391 578.795 917.508 578.44 917.75C577.961 918.106 577.579 918.576 577.327 919.118C577.076 919.659 576.964 920.254 577 920.85C577 921.14 577.62 921.14 577.78 921.14C578.44 921.14 579.32 921.14 579.78 921.79C579.928 922.032 579.982 922.321 579.93 922.6C579.903 922.733 579.856 922.861 579.79 922.98C579.48 923.52 579.47 922.83 580.48 923.06L580.79 923.41L583.43 918.24L581.43 918.39C581.404 919.045 581.573 919.692 581.917 920.25C582.261 920.807 582.763 921.25 583.36 921.52C583.72 921.69 585 921.7 585.15 921.18C585.73 919.233 586.863 917.496 588.41 916.18C588.75 915.89 588.2 915.7 587.98 915.69C586.61 915.58 585.05 916.45 585.59 918.03C585.921 918.69 586.352 919.294 586.87 919.82C587.116 920.097 587.26 920.45 587.28 920.82C587.27 920.989 587.229 921.155 587.16 921.31C587.118 921.401 587.067 921.488 587.01 921.57C586.68 921.85 586.94 921.84 587.77 921.57C587.33 921.395 586.84 921.395 586.4 921.57C586.18 921.66 585.7 921.96 586.11 922.16C587.42 922.79 589.76 921.81 589.19 920.09C588.815 919.364 588.344 918.691 587.79 918.09C587.576 917.802 587.47 917.448 587.49 917.09C587.491 916.943 587.519 916.798 587.57 916.66C587.77 916.13 587.97 916.52 587.07 916.45L586.64 915.95C585.015 917.331 583.827 919.155 583.22 921.2L585.01 920.86C584.498 920.613 584.071 920.218 583.786 919.726C583.501 919.234 583.37 918.667 583.41 918.1C583.41 917.53 581.64 917.88 581.41 918.25L578.77 923.43C578.67 923.63 578.93 923.75 579.08 923.78C580.31 924.05 582.08 923.43 581.83 921.88C581.58 920.33 579.36 920.28 578.18 920.27L578.96 920.56C578.917 920.049 579.005 919.535 579.217 919.067C579.429 918.6 579.757 918.194 580.17 917.89L578.32 917.83L575.39 921.83C575.143 922.113 574.913 922.41 574.7 922.72C574.48 922.86 574.52 922.9 574.83 922.82C575.14 922.74 575.19 922.82 575 922.76C574.923 922.702 574.843 922.649 574.76 922.6C574.551 922.434 574.405 922.203 574.343 921.944C574.281 921.684 574.308 921.412 574.42 921.17C574.49 921.06 574.86 920.77 574.54 920.92C574.38 921 574.44 920.92 574.61 920.92C574.78 920.92 574.78 921.01 574.86 921.07C575.058 921.238 575.201 921.46 575.272 921.709C575.344 921.958 575.339 922.223 575.26 922.47C575.161 922.85 574.926 923.181 574.6 923.4C574.73 923.3 574.84 923.46 574.6 923.34C574.315 923.209 574.061 923.019 573.854 922.783C573.647 922.547 573.492 922.27 573.4 921.97L571.4 922.23C571.535 922.677 571.54 923.153 571.414 923.603C571.288 924.053 571.037 924.458 570.69 924.77C570.69 924.77 570.45 925.05 570.69 924.82C570.93 924.59 570.82 924.82 570.69 924.73C570.489 924.598 570.299 924.451 570.12 924.29C569.958 924.114 569.847 923.897 569.797 923.663C569.748 923.429 569.763 923.186 569.84 922.96C570.05 922.36 568.16 922.58 567.9 922.96L565.62 926.72L567.62 926.56C567.115 924.254 566.781 921.915 566.62 919.56L564.62 919.83C564.907 921.636 564.656 923.486 563.896 925.149C563.136 926.813 561.903 928.215 560.35 929.18L561.82 929.55C562.82 928.85 564.01 928.02 564.31 926.75C564.456 926.256 564.421 925.726 564.213 925.255C564.004 924.785 563.634 924.403 563.17 924.18C562.868 924.061 562.539 924.03 562.221 924.09C561.903 924.151 561.608 924.299 561.37 924.52C560.403 925.774 559.782 927.259 559.568 928.827C559.354 930.396 559.555 931.993 560.15 933.46C560.36 933.98 562.15 933.79 562.15 933.19L561.45 925.19C561.4 924.65 559.45 924.87 559.45 925.46C559.487 927.304 558.818 929.093 557.58 930.46C557.508 930.529 557.431 930.592 557.35 930.65C557.92 930.72 558.1 930.65 557.87 930.56C557.87 930.46 557.61 930.3 557.55 930.18C557.41 929.883 557.338 929.558 557.34 929.23C557.459 928.402 557.373 927.557 557.09 926.77C556.89 926.4 555.84 926.61 555.6 926.77L553.38 927.77C553.27 927.83 552.88 927.98 552.94 928.18C553.264 929.104 553.347 930.095 553.18 931.06C553.128 931.468 552.979 931.858 552.746 932.197C552.513 932.536 552.202 932.815 551.84 933.01C551.592 933.068 551.333 933.052 551.094 932.963C550.856 932.874 550.649 932.716 550.5 932.51C550.261 932.198 550.146 931.807 550.18 931.415C550.213 931.023 550.391 930.657 550.68 930.39C550.8 930.27 550.94 930.19 551.07 930.08C551.2 929.97 551.23 930.08 551.07 930.08C551.384 930.185 551.647 930.402 551.81 930.69C551.984 930.99 552.089 931.326 552.116 931.672C552.144 932.018 552.094 932.366 551.97 932.69C551.857 932.985 551.672 933.247 551.43 933.45C551.25 933.61 551.43 933.51 551.34 933.51C551.193 933.496 551.05 933.452 550.92 933.38C550.551 933.218 550.233 932.958 550.001 932.628C549.768 932.299 549.629 931.912 549.6 931.51C549.6 930.96 547.66 931.19 547.6 931.77C547.589 932.208 547.532 932.644 547.43 933.07C547.384 933.266 547.31 933.455 547.21 933.63C547.12 933.79 546.95 933.9 546.87 934.05C546.63 934.183 546.71 934.183 547.11 934.05L547 933.98C546.95 933.89 546.84 933.82 546.78 933.72C546.669 933.509 546.601 933.278 546.58 933.04C546.45 932.17 546.79 930.9 546.1 930.21C544.86 928.95 543.25 930.54 542.55 931.56C541.683 932.835 541.297 934.377 541.46 935.91C541.51 936.46 543.46 936.23 543.46 935.64C543.419 934.093 542.891 932.599 541.95 931.37C541.62 930.94 540.46 931.21 540.12 931.52C539.334 932.231 538.713 933.105 538.298 934.081C537.884 935.056 537.687 936.111 537.72 937.17L539.72 936.91L538.98 933.14C538.87 932.6 537.14 932.84 536.98 933.3L535.61 938.44L537.25 938.04C536.674 937.87 536.162 937.532 535.781 937.069C535.399 936.605 535.166 936.038 535.11 935.44C535.04 934.89 533.11 935.12 533.11 935.71C533.15 936.809 532.98 937.905 532.61 938.94C532.513 939.122 532.433 939.313 532.37 939.51C532.14 939.85 532.37 939.88 533.08 939.61L532.9 939.48C532.652 939.229 532.458 938.929 532.33 938.6C532.02 937.6 532.33 935.78 533.54 935.47C533.76 935.41 534.37 935.22 534.16 934.89C533.95 934.56 533.16 934.71 532.91 934.78L533 934.92Z" fill="#212120"/>
<path d="M583.6 915.62L584.84 913.62C584.91 913.5 584.67 913.31 584.62 913.27C584.431 913.144 584.221 913.053 584 913C583.766 912.95 583.524 912.95 583.29 913H583.12C583.078 913.011 583.04 913.033 583.008 913.062C582.977 913.092 582.953 913.129 582.94 913.17L581.69 915.17C581.62 915.28 581.86 915.47 581.91 915.51C582.111 915.642 582.335 915.737 582.57 915.79C582.807 915.84 583.053 915.84 583.29 915.79H583.46C583.501 915.782 583.54 915.762 583.571 915.734C583.603 915.706 583.627 915.67 583.64 915.63L583.6 915.62Z" fill="#212120"/>
<path d="M459.48 971.66C464.88 975.47 474.32 972.77 480.28 975.66C483.89 977.43 482.37 982.98 481.99 985.85C459.06 1002.29 442.61 1001.35 432.78 992.75C427.13 987.82 426.38 972.32 430.09 967.67C435.26 961.19 453.48 967.67 459.48 971.67" fill="#010101"/>
<path d="M459.48 971.66C464.88 975.47 474.32 972.77 480.28 975.66C483.89 977.43 482.37 982.98 481.99 985.85C459.06 1002.29 442.61 1001.35 432.78 992.75C427.13 987.82 426.38 972.32 430.09 967.67C435.26 961.19 453.48 967.67 459.48 971.67" stroke="black" stroke-width="4" stroke-miterlimit="10"/>
<defs>
<linearGradient id="paint0_linear_1_46649" x1="275.563" y1="646.35" x2="1094.88" y2="-128.984" gradientUnits="userSpaceOnUse">
<stop stop-color="#FBD299"/>
<stop offset="0.01" stop-color="#FBD39B" stop-opacity="0.98"/>
<stop offset="0.13" stop-color="#FCDDB2" stop-opacity="0.75"/>
<stop offset="0.25" stop-color="#FDE6C7" stop-opacity="0.55"/>
<stop offset="0.37" stop-color="#FDEED8" stop-opacity="0.38"/>
<stop offset="0.49" stop-color="#FEF4E6" stop-opacity="0.24"/>
<stop offset="0.61" stop-color="#FEF9F1" stop-opacity="0.14"/>
<stop offset="0.74" stop-color="#FFFCF9" stop-opacity="0.06"/>
<stop offset="0.87" stop-color="#FFFEFD" stop-opacity="0.01"/>
<stop offset="1" stop-color="white" stop-opacity="0"/>
</linearGradient>
<linearGradient id="paint1_linear_1_46649" x1="427.195" y1="770.52" x2="568.006" y2="737.415" gradientUnits="userSpaceOnUse">
<stop stop-color="#FCE1C0"/>
<stop offset="0.5" stop-color="#FAE9D0"/>
<stop offset="1" stop-color="#F8F2E5"/>
</linearGradient>
<linearGradient id="paint2_linear_1_46649" x1="685.706" y1="795.602" x2="686.67" y2="795.376" gradientUnits="userSpaceOnUse">
<stop stop-color="#DFD8C3"/>
<stop offset="0.54" stop-color="#E7E7CB"/>
</linearGradient>
<linearGradient id="paint3_linear_1_46649" x1="433.563" y1="882.638" x2="477.651" y2="872.273" gradientUnits="userSpaceOnUse">
<stop stop-color="#E9D9C9"/>
<stop offset="0.48" stop-color="#E5D8C8"/>
<stop offset="0.9" stop-color="#DBD3C5"/>
<stop offset="1" stop-color="#D7D2C4"/>
</linearGradient>
</defs>
</svg>
