<svg width="1660" height="1660" viewBox="0 0 1660 1660" fill="none" xmlns="http://www.w3.org/2000/svg">
<path d="M748.84 636C712.3 656.18 674.42 628.24 644.32 611.94C621 599.33 607.14 583 597.61 571C588.83 560 575.68 535 585.17 516.51C590.7 505.7 601.72 500.21 610.05 498.51C632.63 493.86 663.6 495.9 698.42 506.67C735.13 518.01 762.84 527.01 777.36 552.57C780.876 558.343 783.208 564.757 784.22 571.44C787.78 596.91 770.17 624.21 748.84 636Z" fill="url(#paint0_linear_1_46875)"/>
<path d="M1062.39 571C1052.86 582.92 1038.96 599.29 1015.68 611.9C985.58 628.2 947.68 656.14 911.16 635.96C889.83 624.17 872.22 596.87 875.78 571.42C876.792 564.737 879.124 558.323 882.64 552.55C897.16 526.99 924.87 517.99 961.58 506.65C996.4 495.88 1027.37 493.84 1049.95 498.49C1058.28 500.21 1069.3 505.7 1074.83 516.49C1084.32 535.08 1071.17 560.05 1062.39 571Z" fill="url(#paint1_linear_1_46875)"/>
<path d="M1054.59 463.68C986.31 466.68 926.97 498.53 913.3 506.27C903.39 511.88 894.92 515.66 877.97 523.27C865.32 528.91 851.75 534.52 833.49 535.27C830.69 535.39 828.57 535.37 827.72 535.35C815.95 535.15 804.09 532.71 779.29 521.97C770.54 518.18 759.4 513.03 746.7 506.27C746.7 506.27 684.61 467.49 605.41 463.68C585.625 462.747 565.802 464.317 546.41 468.35C546.99 497.35 547.573 526.35 548.16 555.35C553.539 557.224 558.65 559.796 563.36 563C573.59 569.93 575.11 570.26 586.82 580.94C599.71 592.69 607.68 601.94 641.03 624.31C662.55 638.76 684.55 649.82 709.35 653.51C716.884 654.675 724.536 654.87 732.12 654.09C738.88 653.39 751.44 651.93 763.65 644.17C773.59 637.85 779 630.08 782.93 624.31C801.15 597.55 794.76 577.43 811.54 565.31C816.737 561.71 822.768 559.496 829.06 558.88C829.44 558.88 830.11 558.88 830.94 558.88C837.249 559.421 843.299 561.641 848.46 565.31C860.29 573.72 859.99 599.2 877.07 624.31C881 630.08 886.41 637.85 896.35 644.17C908.56 651.93 921.12 653.39 927.88 654.09C935.464 654.87 943.116 654.675 950.65 653.51C975.45 649.82 996.96 638.02 1018.97 624.31C1049.46 605.31 1060.68 594.63 1073.42 582.43C1083.68 572.59 1086.42 569.93 1096.64 563C1101.35 559.819 1106.45 557.267 1111.82 555.41C1112.4 526.41 1112.98 497.41 1113.57 468.41C1094.17 464.464 1074.37 462.876 1054.59 463.68V463.68ZM748.67 636C712.14 656.18 674.25 628.24 644.16 611.94C620.87 599.33 607 583 597.44 571C588.66 560 575.52 535 585 516.51C590.54 505.7 601.56 500.21 609.88 498.51C632.46 493.86 663.43 495.9 698.26 506.67C735 518 762.67 527 777.19 552.59C780.71 558.362 783.045 564.776 784.06 571.46C787.61 596.91 770 624.21 748.67 636ZM1062.23 571C1052.69 582.92 1038.8 599.29 1015.51 611.9C985.42 628.2 947.51 656.14 911 635.96C889.67 624.17 872.06 596.87 875.61 571.42C876.625 564.736 878.96 558.322 882.48 552.55C897 527 924.71 518 961.41 506.69C996.24 495.92 1027.21 493.88 1049.79 498.53C1058.11 500.25 1069.13 505.74 1074.67 516.53C1084.15 535.08 1071 560.05 1062.23 571Z" fill="url(#paint2_linear_1_46875)" stroke="#010101" stroke-width="4" stroke-miterlimit="10"/>
<defs>
<linearGradient id="paint0_linear_1_46875" x1="615.26" y1="603.19" x2="758.75" y2="520.35" gradientUnits="userSpaceOnUse">
<stop stop-color="#69666E" stop-opacity="0.9"/>
<stop offset="0.41" stop-color="#6D6A73" stop-opacity="0.9"/>
<stop offset="0.84" stop-color="#7B7681" stop-opacity="0.9"/>
<stop offset="1" stop-color="#827D88" stop-opacity="0.9"/>
</linearGradient>
<linearGradient id="paint1_linear_1_46875" x1="886.63" y1="613.17" x2="1069.65" y2="507.5" gradientUnits="userSpaceOnUse">
<stop stop-color="#69666E" stop-opacity="0.9"/>
<stop offset="0.41" stop-color="#6D6A73" stop-opacity="0.9"/>
<stop offset="0.84" stop-color="#7B7681" stop-opacity="0.9"/>
<stop offset="1" stop-color="#827D88" stop-opacity="0.9"/>
</linearGradient>
<linearGradient id="paint2_linear_1_46875" x1="602.96" y1="650.25" x2="1064.68" y2="383.67" gradientUnits="userSpaceOnUse">
<stop stop-color="#010101"/>
<stop offset="0.28" stop-color="#050505"/>
<stop offset="0.57" stop-color="#121212"/>
<stop offset="0.86" stop-color="#262626"/>
<stop offset="1" stop-color="#333333"/>
</linearGradient>
</defs>
</svg>
