<svg width="1660" height="1660" viewBox="0 0 1660 1660" fill="none" xmlns="http://www.w3.org/2000/svg">
<path d="M447.45 278.05C460.407 278.05 470.91 267.547 470.91 254.59C470.91 241.633 460.407 231.13 447.45 231.13C434.493 231.13 423.99 241.633 423.99 254.59C423.99 267.547 434.493 278.05 447.45 278.05Z" fill="#010101" stroke="#030303" stroke-miterlimit="10"/>
<path d="M646.12 330.63C633.12 313.39 607.28 286.77 571.12 258.94C476.58 186.29 458 240 443 243.49" stroke="#030303" stroke-width="6" stroke-miterlimit="10"/>
<path d="M1212.55 278.05C1225.51 278.05 1236.01 267.547 1236.01 254.59C1236.01 241.633 1225.51 231.13 1212.55 231.13C1199.59 231.13 1189.09 241.633 1189.09 254.59C1189.09 267.547 1199.59 278.05 1212.55 278.05Z" fill="#010101" stroke="#030303" stroke-miterlimit="10"/>
<path d="M1013.64 331C1026.5 313.77 1052.49 287 1088.92 259C1183.42 186.29 1202 240 1217 243.49" stroke="#030303" stroke-width="6" stroke-miterlimit="10"/>
<path d="M575.75 390.68C563.53 382.86 549.58 374.68 534.12 366.68C428.43 311.57 419.46 367.68 405.3 373.73" stroke="#030303" stroke-width="6" stroke-miterlimit="10"/>
<path d="M1082.31 391.93C1094.98 383.74 1109.59 375.15 1125.88 366.65C1231.57 311.54 1240.54 367.65 1254.7 373.7" stroke="#030303" stroke-width="6" stroke-miterlimit="10"/>
<path d="M411.62 407.32C424.577 407.32 435.08 396.817 435.08 383.86C435.08 370.903 424.577 360.4 411.62 360.4C398.663 360.4 388.16 370.903 388.16 383.86C388.16 396.817 398.663 407.32 411.62 407.32Z" fill="#010101" stroke="#030303" stroke-miterlimit="10"/>
<path d="M1248.38 407.32C1261.34 407.32 1271.84 396.817 1271.84 383.86C1271.84 370.903 1261.34 360.4 1248.38 360.4C1235.42 360.4 1224.92 370.903 1224.92 383.86C1224.92 396.817 1235.42 407.32 1248.38 407.32Z" fill="#010101" stroke="#030303" stroke-miterlimit="10"/>
</svg>
