<svg width="1660" height="1660" viewBox="0 0 1660 1660" fill="none" xmlns="http://www.w3.org/2000/svg">
<path d="M765.15 704.53C765.15 703.24 765.07 701.39 765.15 698.89C765.33 688.18 765.63 669.34 776.97 650.89C788.03 632.89 801.07 618.48 815.84 621.59C818.84 622.23 820.7 624.59 824.84 627.59C825.58 628.12 829.41 629.59 833.99 627.5C839.13 625.15 840.28 622.57 843.52 621.59C856.52 617.59 871.9 633.05 884.23 649.59C898.23 668.41 898.23 684.41 898.01 702.32C897.75 725.23 897.51 746.68 881.35 764.14C864.08 782.8 840.06 784.58 832.24 784.75C827.86 784.84 795.46 785.05 778.32 762.39C766.18 746.37 765.63 724.13 765.15 704.53Z" fill="url(#paint0_radial_1_46622)" stroke="#010101" stroke-width="4" stroke-miterlimit="10"/>
<path d="M766.57 701.1C773.402 692.235 781.487 684.41 790.57 677.87C790.57 677.87 806.57 666.38 819.46 664.18C822.77 663.61 826.24 663.37 826.24 663.37C828.752 663.184 831.273 663.137 833.79 663.23C837.971 663.48 842.121 664.106 846.19 665.1C853.39 666.91 878.63 670.46 895.4 702.1C890.307 716.77 880.563 729.375 867.65 738C854.579 746.617 839.008 750.629 823.4 749.4C817.05 748.86 799.4 747.08 784.32 732.81C775.376 724.245 769.195 713.203 766.57 701.1V701.1Z" fill="#35272B" stroke="#010101" stroke-width="4" stroke-miterlimit="10"/>
<path d="M828.45 754.7C853.049 754.7 872.99 734.759 872.99 710.16C872.99 685.561 853.049 665.62 828.45 665.62C803.851 665.62 783.91 685.561 783.91 710.16C783.91 734.759 803.851 754.7 828.45 754.7Z" stroke="#010101" stroke-width="4" stroke-miterlimit="10"/>
<path d="M807 671.15C826.08 668.22 841.79 678.03 846.52 681.28C860.43 690.82 877.82 711.15 872.61 730.19C871.355 734.587 869.092 738.631 866 742C862.85 744.459 859.114 746.054 855.16 746.63C858.16 744.8 862.16 741.73 864.16 736.84C871.43 719.29 846.04 696.98 844.49 695.64C841.93 693.44 827.16 681.1 807.49 681.42C802.37 681.5 795.8 681.71 790.68 686.61C785.21 691.85 783.96 702.28 783.92 704.61C783.28 702.54 781.29 689.69 786.62 681.42C791.7 673.49 801 672.07 807 671.15Z" stroke="#010101" stroke-width="4" stroke-miterlimit="10"/>
<path d="M800.3 745.243L799.367 744.588C797.55 743.312 795.043 743.751 793.767 745.568L732.178 833.298C730.903 835.115 731.342 837.622 733.159 838.898L734.092 839.553C735.909 840.828 738.416 840.389 739.692 838.572L801.281 750.843C802.556 749.025 802.117 746.518 800.3 745.243Z" fill="url(#paint1_linear_1_46622)" stroke="#010101" stroke-width="4" stroke-miterlimit="10"/>
<defs>
<radialGradient id="paint0_radial_1_46622" cx="0" cy="0" r="1" gradientUnits="userSpaceOnUse" gradientTransform="translate(831.56 702.87) scale(74.58)">
<stop stop-color="#EB2127"/>
<stop offset="1" stop-color="#931A1E"/>
</radialGradient>
<linearGradient id="paint1_linear_1_46622" x1="731.495" y1="792.038" x2="802.045" y2="792.038" gradientUnits="userSpaceOnUse">
<stop stop-color="#DCD7B8"/>
<stop offset="1" stop-color="#C5E8F3"/>
</linearGradient>
</defs>
</svg>
