<svg width="1660" height="1660" viewBox="0 0 1660 1660" fill="none" xmlns="http://www.w3.org/2000/svg">
<path d="M565.32 627.59C563.039 624.882 561.318 621.748 560.258 618.369C559.197 614.991 558.817 611.436 559.14 607.91C559.456 606.26 559.476 604.567 559.2 602.91C558.73 601.07 557.39 599.61 556.4 597.99C555.148 595.875 554.476 593.468 554.449 591.01C554.423 588.553 555.044 586.131 556.25 583.99C561.4 587.58 563.14 594.29 564.5 600.43C566.27 593.71 576.82 593.32 579.71 587.01C578.373 594.836 574.629 602.051 569 607.65C571.45 609.02 573.88 610.74 575.07 613.29C577.07 617.6 574.96 622.62 572.85 626.9C572.654 627.405 572.304 627.835 571.85 628.13C571.349 628.337 570.795 628.376 570.27 628.24C568.51 627.973 566.763 627.64 565.03 627.24" fill="#2B332A"/>
<path d="M559.45 555C561.046 558.496 563.032 561.8 565.37 564.85C565.5 565.02 565.97 565.02 566.13 565.01C566.518 564.996 566.9 564.915 567.26 564.77C567.59 564.64 568.44 564.26 568.09 563.77C565.821 560.804 563.895 557.59 562.35 554.19C561.97 553.36 559.15 554.3 559.45 554.97V555Z" fill="#2B332A"/>
<path d="M562 564.34C564.037 560.664 566.752 557.407 570 554.74C570.5 554.32 569.55 554.3 569.33 554.32C568.63 554.358 567.955 554.59 567.38 554.99C564.059 557.745 561.281 561.096 559.19 564.87C558.95 565.31 560.19 565.13 560.34 565.11C560.82 565.01 561.77 564.84 562.04 564.34H562Z" fill="#2B332A"/>
<path d="M570.79 558.51C572.75 561.414 574.969 564.135 577.42 566.64C577.55 566.77 578.02 566.73 578.16 566.72C578.543 566.683 578.92 566.596 579.28 566.46C579.51 566.38 580.5 566.02 580.16 565.67C577.768 563.224 575.603 560.567 573.69 557.73C573.22 557.04 570.58 558.2 570.79 558.51Z" fill="#2B332A"/>
<path d="M573.19 566.52L580.97 560.69C581.44 560.34 581.73 559.69 581.14 559.25C580.809 559.087 580.44 559.018 580.073 559.052C579.706 559.085 579.355 559.22 579.06 559.44L571.29 565.27C570.81 565.63 570.53 566.27 571.12 566.71C571.447 566.879 571.816 566.951 572.183 566.917C572.549 566.884 572.899 566.746 573.19 566.52V566.52Z" fill="#2B332A"/>
<path d="M559.64 571.76C565.27 576.61 574.03 575.65 578.81 570.09C578.912 569.984 578.986 569.854 579.023 569.711C579.06 569.569 579.059 569.419 579.02 569.277C578.982 569.135 578.908 569.005 578.804 568.901C578.701 568.796 578.572 568.72 578.43 568.68C578.078 568.58 577.706 568.579 577.353 568.675C577.001 568.772 576.681 568.964 576.43 569.23C574.716 571.27 572.264 572.546 569.61 572.78C568.212 572.858 566.812 572.66 565.491 572.197C564.17 571.733 562.953 571.014 561.91 570.08C560.91 569.24 558.41 570.67 559.68 571.76H559.64Z" fill="#2B332A"/>
<path d="M585.73 651.59C581.973 650.357 578.581 648.209 575.86 645.34C575.167 644.65 574.544 643.893 574 643.08C573.738 642.687 573.57 642.239 573.51 641.77C573.478 641.51 573.53 641.247 573.66 641.02C573.73 640.94 573.8 640.92 573.66 641.02C574.19 640.79 575.14 641.17 575.66 641.33C576.773 641.674 577.846 642.136 578.86 642.71C579.09 642.822 579.34 642.886 579.596 642.9C579.851 642.914 580.106 642.877 580.347 642.792C580.588 642.706 580.81 642.574 580.999 642.402C581.189 642.23 581.342 642.022 581.45 641.79C581.9 640.05 581.73 637.38 583.28 636.17C584.66 635.08 585.76 638.82 585.96 639.69C586.96 644.16 585.04 648.53 582.74 652.27C582.36 652.88 583.07 653.27 583.59 653.35C583.952 653.387 584.317 653.328 584.649 653.179C584.981 653.029 585.267 652.795 585.48 652.5C588.37 647.81 590.7 641.79 587.97 636.5C587.743 635.926 587.39 635.41 586.936 634.991C586.483 634.572 585.94 634.261 585.35 634.08C584.703 633.957 584.037 633.965 583.393 634.104C582.749 634.244 582.139 634.511 581.6 634.89C579.1 636.57 579.21 639.44 578.53 642.07L581.12 641.15C578.89 639.92 576.03 638.61 573.42 639.15C572.822 639.248 572.26 639.496 571.785 639.873C571.311 640.249 570.941 640.74 570.71 641.3C570.58 641.888 570.59 642.499 570.739 643.083C570.888 643.666 571.173 644.207 571.57 644.66C574.703 648.796 579.048 651.851 584 653.4C584.36 653.494 584.738 653.492 585.098 653.396C585.457 653.299 585.785 653.111 586.05 652.85C586.155 652.762 586.232 652.645 586.273 652.515C586.314 652.384 586.317 652.244 586.281 652.112C586.246 651.979 586.173 651.86 586.072 651.768C585.971 651.675 585.845 651.614 585.71 651.59H585.73Z" fill="#2B332A"/>
</svg>
