<svg width="1660" height="1660" viewBox="0 0 1660 1660" fill="none" xmlns="http://www.w3.org/2000/svg">
<path d="M758.65 1005.32C756.054 1005.38 753.524 1006.15 751.329 1007.53C749.133 1008.92 747.354 1010.87 746.18 1013.19C733.08 1039.09 720.01 1067.42 707.57 1098.19C692.35 1135.78 679.188 1174.17 668.14 1213.19C667.647 1215 667.608 1216.9 668.027 1218.73C668.446 1220.55 669.309 1222.25 670.54 1223.66C672.048 1225.43 673.123 1227.52 673.679 1229.78C674.234 1232.04 674.255 1234.39 673.74 1236.66C673.37 1238.34 673.65 1240.1 674.524 1241.59C675.397 1243.07 676.8 1244.17 678.45 1244.66L734.45 1261.4L735.93 1257.26L735.53 1257.1C735.47 1257.07 735.421 1257.02 735.394 1256.96C735.367 1256.9 735.363 1256.83 735.382 1256.77C735.402 1256.7 735.443 1256.65 735.5 1256.61C735.556 1256.58 735.624 1256.56 735.69 1256.57L794.6 1268.75C794.652 1268.76 794.708 1268.76 794.76 1268.75C796.04 1268.17 797.382 1267.74 798.76 1267.47C800.844 1267.07 802.981 1267.02 805.08 1267.34C805.126 1267.35 805.173 1267.34 805.216 1267.33C805.26 1267.31 805.299 1267.28 805.33 1267.25L811.56 1259.94C811.597 1259.9 811.645 1259.87 811.699 1259.85C811.753 1259.84 811.81 1259.84 811.862 1259.86C811.915 1259.88 811.961 1259.91 811.994 1259.96C812.028 1260 812.047 1260.05 812.05 1260.11L812.14 1263.19C812.144 1263.25 812.166 1263.31 812.204 1263.35C812.241 1263.4 812.292 1263.43 812.35 1263.45C827.953 1267.36 844.402 1266.15 859.26 1259.98C859.3 1259.96 859.343 1259.96 859.387 1259.96C859.43 1259.97 859.471 1259.98 859.507 1260C859.543 1260.03 859.573 1260.06 859.595 1260.1C859.616 1260.13 859.628 1260.18 859.63 1260.22C859.69 1261.39 859.74 1262.56 859.79 1263.73C859.795 1263.8 859.825 1263.86 859.875 1263.91C859.925 1263.96 859.991 1263.99 860.06 1263.99C866.26 1264.27 871.37 1264.14 874.97 1263.99C890.21 1263.24 903.47 1260.37 914.62 1257.99L915.86 1257.72C915.73 1256.62 915.59 1255.52 915.45 1254.41C915.446 1254.37 915.449 1254.33 915.46 1254.3C915.471 1254.26 915.489 1254.23 915.514 1254.2C915.538 1254.17 915.568 1254.15 915.602 1254.13C915.635 1254.11 915.672 1254.1 915.71 1254.1C921.616 1253.93 927.501 1253.33 933.32 1252.31C940.7 1251.02 946.84 1247.42 952.56 1247.31C963.4 1247.14 963.45 1246.17 963.4 1246.03C962.8 1244.12 962.35 1241.51 963.4 1236.77C964.27 1232.85 965.4 1228.77 966.55 1227.26C966.55 1227.2 978.48 1226.2 966.55 1227.26L975.12 1226.5C976.066 1226.41 976.981 1226.12 977.804 1225.65C978.626 1225.17 979.335 1224.53 979.882 1223.75C980.429 1222.97 980.801 1222.09 980.971 1221.15C981.142 1220.22 981.107 1219.26 980.87 1218.34C970.99 1180.01 958.77 1139.08 943.57 1096.18C933.17 1066.85 922.29 1039.18 911.22 1013.18C909.796 1009.84 907.401 1007.01 904.347 1005.05C901.292 1003.08 897.719 1002.09 894.09 1002.18L758.65 1005.32Z" fill="url(#paint0_linear_1_37964)" stroke="#010101" stroke-width="4" stroke-miterlimit="10"/>
<path d="M735.49 1257C733.34 1226.25 730.71 1185.32 735.26 1143.6C739.06 1108.8 745.821 1074.4 755.47 1040.75" stroke="#010101" stroke-width="4" stroke-miterlimit="10"/>
<path d="M794.56 1268.64C789.92 1228.23 784.17 1176.54 784.91 1126.92C785.39 1094.47 787.35 1064.01 790.23 1035.77" stroke="#010101" stroke-width="4" stroke-miterlimit="10"/>
<path d="M810.59 1262.05C814.11 1229.65 819.59 1189.4 821.44 1153.52C823.44 1113.97 824.02 1076.31 823.57 1040.74" stroke="#010101" stroke-width="4" stroke-miterlimit="10"/>
<path d="M810.59 1262.05C811.69 1238.19 810.15 1205.05 810.45 1179.76C810.777 1150.58 810.54 1122.33 809.74 1095" stroke="#010101" stroke-width="4" stroke-miterlimit="10"/>
<path d="M859.59 1260.1C860.23 1234.69 862.51 1203.1 863.29 1177.63C864.343 1143.46 865.527 1109.29 866.84 1075.14" stroke="#010101" stroke-width="4" stroke-miterlimit="10"/>
<path d="M897.72 1047.33C902.72 1058.54 906.44 1090.72 906.2 1107.06C906.1 1114.06 905.9 1135.78 909.39 1184.37C910.6 1201.17 912.73 1228.42 915.39 1254.23" stroke="#010101" stroke-width="4" stroke-miterlimit="10"/>
<path opacity="0.22" d="M855.06 1258.74C855.69 1233.33 857.97 1201.74 858.75 1176.27C859.797 1142.1 860.98 1107.93 862.3 1073.78" stroke="#7D7D7C" stroke-width="4" stroke-miterlimit="10"/>
<path opacity="0.22" d="M739.61 1257C737.45 1226.25 734.83 1185.32 739.38 1143.6C743.18 1108.8 749.941 1074.4 759.59 1040.75" stroke="#7D7D7C" stroke-width="4" stroke-miterlimit="10"/>
<path opacity="0.22" d="M799.16 1265.3C794.53 1224.88 788.78 1173.2 789.51 1123.57C790 1091.13 791.95 1060.66 794.83 1032.43" stroke="#7D7D7C" stroke-width="4" stroke-miterlimit="10"/>
<path opacity="0.22" d="M894 1050.08C899 1061.29 902.71 1093.47 902.47 1109.81C902.37 1116.81 902.17 1138.53 905.67 1187.12C906.87 1203.92 909.01 1231.18 911.67 1256.99" stroke="#7D7D7C" stroke-width="4" stroke-miterlimit="10"/>
<path opacity="0.22" d="M820.68 1041C818.48 1040.76 812.12 1066.55 811.81 1095C811.74 1101.24 812.05 1099.9 812.47 1115.74C813.02 1136.74 812.76 1150.05 812.69 1165.51C812.62 1178.72 812.69 1197.42 813.18 1220.51C816.38 1195.4 818.12 1174.11 819.12 1158.02C820.12 1141.41 820.48 1122.19 821.12 1083.75C821.78 1044 821.4 1041.11 820.68 1041Z" fill="#7D7D7C"/>
<path d="M549.13 961.37C550.79 960.29 551.69 960.37 554.13 961.37C557.39 962.69 556.85 964.55 559.13 965.43C563.76 967.19 573.59 948.02 577.01 949.48C579.91 950.72 576.61 965.16 577.76 965.43C578.91 965.7 580.65 947.65 588.93 944.93C598.24 941.87 611.3 959.74 613.52 957.83C615.58 956.06 603.03 941.83 606.81 935.83C611.26 928.83 634.58 939.02 637.36 933.55C639.77 928.81 622.43 920.89 621.71 906.22C621.35 898.84 625.94 892.44 635.13 879.64C640.504 872.08 646.48 864.967 653 858.37C664.11 847.37 680 831.65 705.15 818.13C728.898 805.439 754.988 797.735 781.82 795.49C782.292 795.448 782.766 795.526 783.2 795.716C783.634 795.907 784.012 796.204 784.3 796.58C788.69 802.32 802.99 818.89 827.3 822.69C857.66 827.43 879.55 808.57 884.56 803.79C884.837 803.523 885.167 803.316 885.529 803.184C885.89 803.051 886.276 802.995 886.66 803.02C903.72 804.02 929.3 808.42 950.98 826.49C967.53 840.27 972.81 854.49 990.47 906.21C1007.28 955.4 1036.35 1041.55 1043.37 1095.21C1043.66 1097.41 1044.56 1108.57 1046.37 1130.89C1048.18 1153.21 1048.55 1159.59 1045.63 1168.1C1041.54 1180 1036.93 1178.5 1032.96 1190.1C1026.77 1208.21 1035.22 1219.89 1028.49 1226.55C1025.8 1229.21 1020.49 1231.3 1008.64 1228.23C1008.24 1228.13 1007.82 1228.11 1007.42 1228.19C1007.01 1228.26 1006.62 1228.42 1006.29 1228.66C1005.95 1228.9 1005.67 1229.21 1005.46 1229.57C1005.26 1229.93 1005.13 1230.33 1005.1 1230.74C1004.29 1240.27 1003.48 1249.8 1002.66 1259.34C1002.63 1259.72 1002.52 1260.08 1002.34 1260.42C1002.16 1260.75 1001.92 1261.05 1001.63 1261.29C1001.34 1261.53 1001 1261.71 1000.64 1261.82C1000.28 1261.92 999.896 1261.96 999.52 1261.92L956.73 1257.29C956.31 1257.25 955.905 1257.11 955.545 1256.89C955.185 1256.66 954.879 1256.37 954.649 1256.01C954.419 1255.66 954.271 1255.26 954.216 1254.84C954.161 1254.42 954.2 1253.99 954.33 1253.59C963.44 1225.35 962.68 1214.84 958.45 1212.12C955.26 1210.12 950.86 1212.99 947.28 1209.84C942.83 1205.93 944.47 1196.84 945.79 1190.1C948.47 1176.22 952.7 1174.37 953.98 1165.81C955.82 1153.59 948.25 1150.39 945.04 1135.44C944.247 1131.94 943.938 1128.35 944.12 1124.76C944.96 1110.66 951.26 1105.29 951.05 1087.92C951.05 1087.11 951.05 1086.54 951 1086.09C950.24 1066.36 941.77 1046.81 936.85 1047.37C931.53 1047.97 936.94 1074.47 924.18 1082.29C911.93 1089.8 899.18 1070.09 869.05 1069.38C845.85 1068.84 840.05 1080.19 826.58 1073.94C810.43 1066.44 810.44 1055.01 796.77 1052.39C787.72 1050.66 785.67 1051.07 773.68 1054.2C747.86 1060.93 725.92 1028.2 713.33 1035.98C703.6 1041.98 705.01 1045.98 697.33 1048.59C690.46 1050.92 690.33 1051.68 675.33 1048.12C659.07 1044.25 653.87 1063.29 628.39 1070.12C607.31 1075.79 605.17 1064.29 553.14 1057.22C547.77 1056.49 539.14 1055.43 534.51 1048.86C528.51 1040.43 538.16 1034.09 533.12 1031.26C528.89 1028.89 525.02 1028.65 522.12 1026.26C519.01 1023.68 524.21 1020.88 521.01 1013.8C519.21 1009.8 507.8 1007.89 503.14 1006.58C501.34 1006.07 503 1002.36 503.96 1000.76C508.74 992.84 513.11 982.29 517.89 974.36C518.253 973.761 518.824 973.317 519.493 973.113C520.163 972.908 520.884 972.957 521.52 973.25C528.06 976.25 536.02 977.57 537.52 976.9C539.68 975.9 538.63 971.42 542.1 967.35C544.015 964.902 546.407 962.868 549.13 961.37Z" fill="url(#paint1_linear_1_37964)" stroke="#010101" stroke-width="4" stroke-miterlimit="10"/>
<path d="M987.57 927.47C974.655 939.475 964.263 953.933 957 970C946.27 993.74 939 1025.82 939.13 1037.6" stroke="#010101" stroke-width="4" stroke-miterlimit="10"/>
<path d="M655.27 883.43C668.183 896.802 679.214 911.871 688.06 928.22C700.12 950.53 712.06 996.01 712.06 1022.44" stroke="#010101" stroke-width="4" stroke-miterlimit="10"/>
<path d="M773.74 807.5C776.42 811.41 794.34 836.57 827.38 840.15C866.59 844.41 891.75 814.46 893.69 812.06" stroke="#010101" stroke-width="4" stroke-miterlimit="10"/>
<path d="M889.21 871.05C886.36 871.95 884.41 874.7 883.44 877.58C882.26 881.06 882.83 885.86 886.23 887.11C888.15 887.81 890.23 887.11 892.18 886.36C904.426 881.673 916.335 876.147 927.82 869.82C917.57 874.09 909.82 875.82 905 877.49C903.31 878.09 896.72 880.08 895 880.57C890.14 881.96 889 881.65 887.92 879.66C886.84 877.67 888.24 872.72 889.39 870.73" fill="#C9C9C9"/>
<path d="M889 870.1C887.149 870.8 885.508 871.963 884.234 873.477C882.959 874.991 882.094 876.807 881.72 878.75C881.03 881.85 881.54 886.01 884.61 887.68C885.611 888.136 886.694 888.386 887.794 888.413C888.893 888.441 889.987 888.246 891.01 887.84C893.43 887.07 895.79 886.05 898.14 885.09C902.96 883.13 907.73 881.04 912.45 878.82C917.883 876.26 923.217 873.53 928.45 870.63C928.95 870.36 929.57 869.79 929.15 869.19C928.73 868.59 927.74 868.78 927.15 869C922.93 870.75 918.62 872.27 914.26 873.62C911.26 874.54 908.26 875.36 905.26 876.35C902.66 877.23 900.03 878.03 897.41 878.82C896.09 879.22 894.76 879.63 893.41 879.97C892.41 880.21 890.9 880.79 890 880.13C888.81 879.25 888.82 877.55 889 876.24C889.229 874.362 889.809 872.544 890.71 870.88C891.48 869.49 888.54 869.52 887.95 870.59C886.49 873.22 884.95 877.76 886.69 880.59C888.43 883.42 892.28 882.37 894.97 881.59C900.97 879.92 906.82 877.91 912.76 876.13C918.063 874.564 923.283 872.728 928.4 870.63L927.19 869C919.37 873.3 911.37 877.237 903.19 880.81C899.19 882.56 895.09 884.34 890.93 885.81C889.14 886.43 887.11 886.81 885.73 885.2C884.847 884.054 884.372 882.647 884.38 881.2C884.25 877.82 886.05 873.2 889.5 872C890.03 871.82 890.88 871.37 890.69 870.66C890.5 869.95 889.51 869.92 888.99 870.1H889Z" fill="#EAEAEA"/>
<path d="M537.56 982.13C536.02 986.35 534.17 990.87 531.88 996.13C530.028 1000.28 527.959 1004.34 525.68 1008.27" stroke="#010101" stroke-width="4" stroke-miterlimit="10"/>
<path d="M966.51 1223.13C978.716 1222.51 990.95 1223.5 1002.9 1226.06" stroke="#010101" stroke-width="4" stroke-miterlimit="10"/>
<path d="M578.11 975C579.23 977.18 584.52 988 580.36 1000.91C577.22 1010.63 570.47 1030.59 567.97 1032.4" stroke="#929EC1" stroke-width="4" stroke-miterlimit="10"/>
<path d="M615.83 964.77C625.441 979.454 630.767 996.526 631.21 1014.07" stroke="#929EC1" stroke-width="4" stroke-miterlimit="10"/>
<path d="M642.69 940C653.495 947.368 662.532 957.04 669.15 968.32C678.269 984.165 682.347 1002.41 680.84 1020.63" stroke="#929EC1" stroke-width="4" stroke-miterlimit="10"/>
<path d="M962.93 1163.42C979.753 1160.46 997.082 1162.86 1012.46 1170.3" stroke="#929EC1" stroke-width="4" stroke-miterlimit="10"/>
<path d="M958.49 1086.37C968.018 1083.23 977.747 1080.73 987.61 1078.89C996.411 1077.24 1005.3 1076.13 1014.24 1075.56" stroke="#929EC1" stroke-width="4" stroke-miterlimit="10"/>
<defs>
<linearGradient id="paint0_linear_1_37964" x1="667.73" y1="1135.31" x2="981.04" y2="1135.31" gradientUnits="userSpaceOnUse">
<stop stop-color="#FAEEE5"/>
<stop offset="0.05" stop-color="#F9EFE7"/>
<stop offset="0.41" stop-color="#F3F1EF"/>
<stop offset="1" stop-color="#F1F2F2"/>
</linearGradient>
<linearGradient id="paint1_linear_1_37964" x1="604.82" y1="1183.26" x2="1022.68" y2="942" gradientUnits="userSpaceOnUse">
<stop stop-color="#BABACF"/>
<stop offset="0.52" stop-color="#B6C4D8"/>
<stop offset="1" stop-color="#B0D2E3"/>
</linearGradient>
</defs>
</svg>
