<svg width="1660" height="1660" viewBox="0 0 1660 1660" fill="none" xmlns="http://www.w3.org/2000/svg">
<path opacity="0.65" d="M972.44 654.09C1013.84 654.09 1047.4 620.529 1047.4 579.13C1047.4 537.731 1013.84 504.17 972.44 504.17C931.041 504.17 897.48 537.731 897.48 579.13C897.48 620.529 931.041 654.09 972.44 654.09Z" fill="#F7E3E3"/>
<path opacity="0.65" d="M688.41 645.65C729.809 645.65 763.37 612.089 763.37 570.69C763.37 529.291 729.809 495.73 688.41 495.73C647.011 495.73 613.45 529.291 613.45 570.69C613.45 612.089 647.011 645.65 688.41 645.65Z" fill="#F7E3E3"/>
<path d="M690.03 648.43C731.429 648.43 764.99 614.869 764.99 573.47C764.99 532.071 731.429 498.51 690.03 498.51C648.631 498.51 615.07 532.071 615.07 573.47C615.07 614.869 648.631 648.43 690.03 648.43Z" stroke="#F27AA6" stroke-width="12" stroke-miterlimit="10"/>
<path d="M972.44 652.01C1013.84 652.01 1047.4 618.449 1047.4 577.05C1047.4 535.651 1013.84 502.09 972.44 502.09C931.041 502.09 897.48 535.651 897.48 577.05C897.48 618.449 931.041 652.01 972.44 652.01Z" stroke="#F27AA6" stroke-width="12" stroke-miterlimit="10"/>
<path d="M766.08 577.35C785.12 556.59 859.95 541.25 897.67 582.43" stroke="#F27AA6" stroke-width="12" stroke-miterlimit="10"/>
<path d="M522.92 513.17C539.17 515.42 588.62 546.61 619.73 563.01" stroke="#F27AA6" stroke-width="12" stroke-miterlimit="10"/>
<path d="M1137.35 515.36C1119.45 517.7 1073.69 547.16 1042.58 563.56" stroke="#F27AA6" stroke-width="12" stroke-miterlimit="10"/>
</svg>
