<svg width="661" height="395" viewBox="0 0 661 395" fill="none" xmlns="http://www.w3.org/2000/svg">
<path opacity="0.66" d="M644.67 316.21C634.45 290.6 602.5 252.68 574.9 235.82C558.18 225.6 494.69 188.9 373.34 181.53C340.48 179.53 284.1 176.51 212.5 191.71C160.8 202.69 103.32 215.63 53.83 261.96C12.04 301.09 9.60992 335.42 9.72992 349.97C9.83992 363.97 10.7899 374.18 14.4199 392.42C16.6399 403.59 34.8699 367.81 65.2299 345.08C80.5999 333.57 101.02 327.3 141.24 315.22C176.46 304.64 215.16 293.21 268.82 286.72C301.45 282.77 329.02 281.93 348.9 281.97C424.31 282.13 503.95 283.33 548.47 316.25C569.7 331.95 593.32 345 613.24 363.53C619.92 369.74 620.57 371.2 626.37 377.46" fill="#131616"/>
<path d="M4.12995 350.78C0.499945 349.48 3.19991 338.24 5.46991 300.71C7.51991 266.77 6.12996 262.25 9.51996 245.71C12.7 230.25 15.3 227.44 21.27 206.93C29.71 177.97 30.3599 163.56 33.3499 151.23C45.7999 99.89 107.37 49.47 165.02 43.68C187.29 41.45 194.49 47.33 219.89 41.21C249.95 33.98 252.31 21.87 285.68 11.95C310.79 4.47996 341.73 -4.29005 363.28 10.65C375.45 19.09 372.84 26.93 385.61 35.33C404.04 47.45 423.33 40.27 446.72 38.86C486.49 36.45 524.02 51.63 545.44 67.07C586.3 96.52 597.58 147.46 600.69 161.52C611.8 211.73 617.63 224.6 617.63 261.99C617.63 272.92 640.26 278.13 648.86 292.72C651.38 296.99 661.76 310.51 657.09 326.8C649.04 354.85 643.03 340.46 628.57 373.92C627.55 376.27 633.33 361.88 635.94 340.9C636.93 332.95 639.17 315.41 634.76 303.29C626.81 281.41 596.01 273.8 571.3 268.03C478.62 246.38 432.28 235.55 427.92 235.12C376.79 230.08 341.69 232.15 271.61 236.3C194.25 240.87 159.05 248.21 130.98 256.17C71.3599 273.09 51.7299 290.6 42.7999 299.82C19.2699 324.13 10.0299 352.9 4.12995 350.78Z" fill="url(#paint0_linear_87_19907)" stroke="#010101" stroke-width="4" stroke-miterlimit="10"/>
<path d="M7.62983 312.99C9.60983 298.42 20.6298 291.3 35.9898 281.95C67.2898 262.89 95.3198 253.9 109 249.67C148.93 237.32 180.04 230.51 187.39 228.92C228.29 220.06 256.21 214.01 294.13 211.14C340.98 207.59 376.61 210.88 404.11 213.55C462.14 219.18 506.22 230.33 526.31 235.84C526.31 235.84 590.7 250.58 620.69 271.44C632.15 279.41 643.38 286.9 645.42 289.21C654.06 299.03 656.25 306.36 657.18 309.81C657.72 311.8 658.19 320.95 653.92 332.64C651.3 339.82 646.68 342.83 639.14 351.89C637.19 354.23 636.4 356.54 635.6 356.32C633.98 355.86 637.38 345.94 638.16 332.49C638.94 319.07 639.52 311.82 636.31 303.26C632.84 294.01 625.28 288.37 622.44 285.76C609.2 273.57 595.07 271.3 572.7 266.08C545.78 259.8 549.22 261.69 520.27 254.3C498.04 248.63 497.66 247.78 460.25 240.31C434.61 235.19 438.25 233.93 423.94 232.34C413.61 231.19 400.78 230.1 352.44 230.29C329.08 230.38 316.97 231.82 300.2 232.57C282.73 233.35 254.39 234.45 209.36 239.59C179.71 242.97 159.9 245.66 135.67 252.27C109.16 259.51 93.8898 265.4 71.4498 276.87C57.1798 284.16 37.6298 297.63 21.8698 321.35C12.2398 335.83 4.9298 350.77 5.0398 347.03C5.5998 327.9 5.59983 327.9 7.62983 312.99Z" fill="#0A0C0C" stroke="#010101" stroke-width="4" stroke-miterlimit="10"/>
<path d="M57.1099 109.13C60.1399 110.16 54.3799 130.45 53.6599 133.63C49.7099 151.01 47.6099 149.27 46.7399 157.45C45.7999 166.29 49.8199 178.3 57.8999 201.98C61.8499 213.54 62.4999 214.39 62.8799 218.17C64.2299 231.64 52.3399 236.57 52.1199 251.99C52.0199 259.1 56.8899 266.65 52.4599 269.15C40.4399 275.95 37.7799 278 30.2599 283.76C25.4699 287.43 26.8399 263.04 30.7299 254.32C36.1299 242.24 42.9599 242.27 44.7199 233.16C45.8499 227.28 43.2899 225.77 37.2099 206.88C33.0099 193.83 30.9099 187.31 31.0699 181.97C31.4099 170.44 36.4999 169.41 37.5499 154.67C38.2399 145.09 37.3399 146.25 39.2699 139.16C40.6799 133.95 43.8399 128.66 49.1899 120.16C54.1399 112.3 55.8599 108.7 57.1099 109.13Z" fill="#EAEAEA"/>
<path d="M308.71 7.88989C309.33 14.6799 309.92 22.4999 310.45 34.5699C311.16 51.0399 311.02 63.0399 310.96 70.7899C310.63 113.51 312.09 116.11 311.47 137.11C310.98 153.95 309.28 178.72 303.82 207.87" stroke="#EAEAEA" stroke-width="4" stroke-miterlimit="10"/>
<path d="M331.06 4.77002C331.68 11.56 332.54 22.5 333.06 34.57C333.77 51.04 333.63 63.04 333.57 70.79C333.24 113.51 334.7 116.11 334.08 137.11C333.59 153.95 331.89 177.85 326.43 207" stroke="#EAEAEA" stroke-width="4" stroke-miterlimit="10"/>
<path d="M353.38 8.81995C354 15.6099 355.37 30.4199 355.9 42.4799C356.61 58.9499 356.47 70.95 356.41 78.7C356.08 121.42 357.54 124.02 356.92 145.02C356.43 161.86 355.98 177.84 350.51 206.99" stroke="#EAEAEA" stroke-width="4" stroke-miterlimit="10"/>
<path d="M591.94 140.73C590.36 140.85 589.72 158.77 593.34 171.6C593.34 171.61 593.35 171.65 593.38 171.73C594.66 176.28 597.56 186.52 597.55 191.24C597.54 198.53 590.64 199.73 585.12 208.74C577.34 221.44 574.09 246.48 587.23 252.82C596.12 257.11 599.23 258.01 606.13 260.6C610.21 262.14 596.72 246.84 598.49 233.8C599.62 225.46 605.94 224.26 607.85 215.09C609.63 206.49 605.65 199.95 602.24 192.17C590.1 164.51 593.76 140.6 591.94 140.73Z" fill="#EAEAEA"/>
<defs>
<linearGradient id="paint0_linear_87_19907" x1="37.476" y1="409.418" x2="575.719" y2="98.6632" gradientUnits="userSpaceOnUse">
<stop offset="0.2668" stop-color="#19181A"/>
<stop offset="0.4111" stop-color="#222222"/>
<stop offset="0.6878" stop-color="#373732"/>
<stop offset="1" stop-color="#545246"/>
</linearGradient>
</defs>
</svg>
