<svg width="1660" height="1660" viewBox="0 0 1660 1660" fill="none" xmlns="http://www.w3.org/2000/svg">
<path d="M752.14 173.24C967.41 104.6 1163.12 174.44 1179.95 239.74C1195.94 301.88 1136.2 338.85 1130.39 342.29L1128.48 342.48C1128.48 342.48 1050.1 312.15 888.31 326.7C726.5 341.25 554.98 415.19 517.95 444.96C517.95 444.96 474.82 460.07 463.04 424.93C447.98 379.85 557.8 235.2 752.14 173.24Z" fill="#E3E5CC" stroke="#010101" stroke-width="4" stroke-miterlimit="10"/>
<path d="M950.39 374.46C1075.19 370.39 1123.42 382.6 1123.42 382.6C1123.42 382.6 1330.1 489.91 1120.18 528.87C869.05 575.48 644.49 429.74 644.49 429.74C644.49 429.74 825.62 378.53 950.39 374.46Z" fill="#E3E5CC" stroke="#010101" stroke-width="4" stroke-miterlimit="10"/>
<path d="M517.95 444.96C554.98 415.19 726.49 341.24 888.31 326.7C1050.1 312.15 1128.48 342.48 1128.48 342.48L1130.39 342.29C1130.09 342.46 1129.87 342.58 1129.87 342.58C1129.87 342.58 1135.78 342.8 1136.77 349.27C1137.33 353.02 1136.18 359.72 1134.19 372.34C1132.48 383.32 1123.43 382.59 1123.43 382.59C1123.43 382.59 1075.21 370.38 950.4 374.45C825.63 378.52 644.5 429.74 644.5 429.74C576.47 444.74 527.55 470.3 527.55 470.3C518.83 460.01 517.95 444.96 517.95 444.96Z" fill="#BABF9A" stroke="#010101" stroke-width="4" stroke-miterlimit="10"/>
<path d="M1133.27 282.32C1133.27 282.32 1132.2 286.21 1129.65 291.61C1128.43 294.32 1126.71 297.36 1124.8 300.5C1122.8 303.61 1120.51 306.82 1117.92 309.72C1116.68 311.2 1115.34 312.61 1113.93 313.9C1112.62 315.25 1111.16 316.45 1109.78 317.56C1108.42 318.74 1107 319.7 1105.61 320.59C1104.32 321.54 1103 322.35 1101.71 322.96C1100.48 323.62 1099.36 324.28 1098.33 324.77C1097.28 325.21 1096.35 325.59 1095.58 325.89C1094.07 326.52 1093.21 326.88 1093.21 326.88L1092.88 327.03C1090.75 327.89 1089.74 330.33 1090.63 332.45C1091.5 334.57 1093.92 335.58 1096.03 334.69C1096.19 334.63 1096.34 334.56 1096.5 334.47C1096.5 334.47 1097.42 333.95 1099.07 333.02C1099.88 332.55 1100.85 331.98 1101.95 331.34C1103.07 330.65 1104.23 329.74 1105.53 328.83C1106.84 327.94 1108.16 326.86 1109.49 325.62C1110.88 324.44 1112.29 323.2 1113.61 321.73C1114.98 320.31 1116.35 318.83 1117.57 317.2C1118.9 315.64 1120.09 313.94 1121.22 312.23C1123.54 308.84 1125.46 305.2 1127.11 301.75C1128.65 298.26 1130 294.99 1130.88 292.08C1132.73 286.33 1133.27 282.32 1133.27 282.32Z" fill="#212216" stroke="#010101" stroke-width="4" stroke-miterlimit="10"/>
<path d="M1051.24 326.85C1051.24 326.85 1051.52 326.59 1052.02 326.11C1052.59 325.57 1053.24 324.88 1054.1 323.97C1055.74 322.13 1057.95 319.39 1060.26 315.98C1061.34 314.23 1062.59 312.39 1063.69 310.3C1064.86 308.27 1065.98 306.06 1067.03 303.74C1068.16 301.46 1068.99 298.98 1070.03 296.53C1070.86 294.02 1071.76 291.48 1072.5 288.9C1073.17 286.29 1073.97 283.74 1074.44 281.15C1074.91 278.58 1075.49 276.05 1075.85 273.57C1076.15 271.11 1076.47 268.72 1076.75 266.45C1076.89 264.18 1077.03 262.03 1077.16 260.04C1077.5 256.1 1077.29 252.77 1077.33 250.48C1077.32 248.17 1077.34 246.86 1077.34 246.86C1077.34 246.86 1077.2 248.17 1076.97 250.47C1076.71 252.75 1076.6 256.04 1075.9 259.92C1075.53 261.85 1075.21 263.96 1074.84 266.18C1074.35 268.37 1073.82 270.67 1073.27 273.06C1072.72 275.43 1071.92 277.83 1071.19 280.28C1070.51 282.74 1069.47 285.13 1068.61 287.57C1067.66 289.97 1066.54 292.31 1065.53 294.62C1064.3 296.84 1063.3 299.11 1062.01 301.14C1060.78 303.21 1059.56 305.17 1058.29 306.95C1057.11 308.78 1055.76 310.34 1054.63 311.86C1052.22 314.73 1050.06 316.98 1048.48 318.4C1047.69 319.08 1047.06 319.66 1046.68 319.92C1046.25 320.25 1046.02 320.42 1046.02 320.42L1045.89 320.54C1044.09 321.93 1043.72 324.53 1045.12 326.33C1046.5 328.15 1049.1 328.49 1050.94 327.1C1051.03 327.01 1051.15 326.92 1051.24 326.85Z" fill="#212216" stroke="#010101" stroke-width="4" stroke-miterlimit="10"/>
<path d="M1027.42 324.3C1027.42 324.3 1027.69 323.92 1028.11 323.24C1028.66 322.47 1029.24 321.41 1029.84 320.17C1030.47 318.92 1031.04 317.41 1031.66 315.82C1032.06 314.14 1032.74 312.49 1032.93 310.66C1033.04 309.79 1033.17 308.92 1033.33 308.05C1033.51 307.21 1033.38 306.33 1033.42 305.5C1033.39 303.84 1033.54 302.36 1033.2 301.06C1032.81 298.55 1032.54 296.88 1032.54 296.88C1032.54 296.88 1032.3 298.54 1031.94 301.02C1031.84 302.25 1031.27 303.62 1030.83 305.06C1030.58 305.77 1030.47 306.53 1030.05 307.24C1029.72 307.93 1029.36 308.66 1029.01 309.36C1028.4 310.82 1027.33 312.05 1026.6 313.27C1025.68 314.41 1024.88 315.47 1024.07 316.28C1023.25 317.09 1022.62 317.72 1022.18 318.04C1021.7 318.45 1021.39 318.7 1021.39 318.7L1021.28 318.8C1019.51 320.24 1019.21 322.9 1020.7 324.69C1022.16 326.47 1024.8 326.74 1026.59 325.28C1026.9 325 1027.19 324.66 1027.42 324.3Z" fill="#212216" stroke="#010101" stroke-width="4" stroke-miterlimit="10"/>
<path d="M1077.72 331.39C1077.72 331.39 1078.07 330.94 1078.65 330.17C1079.21 329.4 1079.93 328.31 1080.75 326.98C1082.36 324.3 1084.28 320.6 1085.52 316.68C1086.12 314.71 1086.6 312.73 1086.86 310.82C1086.99 309.88 1087.13 308.98 1087.14 308.11C1087.18 307.23 1087.27 306.44 1087.2 305.68C1087.16 304.18 1087.02 302.95 1086.81 302.1C1086.67 301.26 1086.59 300.77 1086.59 300.77C1086.59 300.77 1086.56 301.26 1086.45 302.11C1086.44 302.96 1086.26 304.15 1085.89 305.54C1085.79 306.24 1085.49 306.98 1085.25 307.76C1085.04 308.53 1084.69 309.31 1084.37 310.12C1083.67 311.73 1082.76 313.36 1081.73 314.92C1079.75 318.05 1077.23 320.76 1075.27 322.65C1074.27 323.57 1073.41 324.32 1072.84 324.79C1072.23 325.25 1071.92 325.49 1071.92 325.49L1071.85 325.55C1070.01 326.96 1069.67 329.57 1071.05 331.4C1072.48 333.23 1075.08 333.58 1076.93 332.16C1077.24 331.95 1077.52 331.68 1077.72 331.39Z" fill="#212216" stroke="#010101" stroke-width="4" stroke-miterlimit="10"/>
<path d="M896 324.22C896 324.22 896.72 319.62 897.05 312.93C897.2 309.54 897.38 305.62 897.22 301.41C897.13 297.23 896.77 292.74 896.3 288.31C895.95 286.1 895.68 283.88 895.25 281.72C894.77 279.58 894.46 277.44 893.86 275.43C893.27 273.42 892.86 271.45 892.18 269.66C891.52 267.87 890.99 266.14 890.29 264.62C889.6 263.12 888.97 261.74 888.42 260.48C887.83 259.29 887.21 258.28 886.72 257.45C885.77 255.77 885.22 254.84 885.22 254.84C885.22 254.84 885.66 255.85 886.39 257.6C886.76 258.5 887.3 259.54 887.7 260.8C888.12 262.06 888.59 263.49 889.08 265.06C889.6 266.6 889.87 268.35 890.29 270.16C890.77 271.96 890.94 273.94 891.3 275.92C891.64 277.92 891.71 280.04 891.93 282.15C892.08 284.27 892.08 286.44 892.16 288.58C892.13 292.9 891.97 297.21 891.56 301.23C891.25 305.26 890.65 308.99 890.15 312.17C889.03 318.57 887.92 322.55 887.92 322.55C887.31 324.74 888.58 327.02 890.8 327.65C892.99 328.27 895.27 327 895.91 324.78C895.94 324.63 895.95 324.49 896 324.34V324.22Z" fill="#212216" stroke="#010101" stroke-width="4" stroke-miterlimit="10"/>
<path d="M865.77 327.04C865.77 327.04 865.77 324.56 865.49 321.09C865.19 317.59 864.56 312.96 863.38 308.43C862.81 306.18 862.05 303.97 861.24 301.95C860.41 299.92 859.4 298.13 858.45 296.69C857.42 295.29 856.57 294.14 855.78 293.5C855.07 292.82 854.66 292.43 854.66 292.43C854.66 292.43 854.99 292.9 855.5 293.72C856.11 294.49 856.65 295.78 857.29 297.28C857.88 298.83 858.39 300.65 858.71 302.67C859.03 304.7 859.27 306.85 859.27 309.03C859.37 313.38 859 317.71 858.49 320.92C857.99 324.18 857.53 326.15 857.53 326.15C856.97 328.39 858.34 330.64 860.57 331.19C862.84 331.72 865.09 330.37 865.62 328.14C865.71 327.81 865.73 327.48 865.77 327.18V327.04Z" fill="#212216" stroke="#010101" stroke-width="4" stroke-miterlimit="10"/>
<path d="M798.89 337.88C798.89 337.88 798.82 337.43 798.67 336.63C798.51 335.78 798.27 334.59 797.92 333.28C797.25 330.58 796.01 327.12 794.47 323.87C793.56 322.27 792.9 320.63 791.84 319.28C790.81 317.91 790.07 316.58 789.11 315.63C787.31 313.74 786.07 312.49 786.07 312.49C786.07 312.49 786.85 314.03 788.02 316.32C788.63 317.44 788.94 318.93 789.44 320.38C789.98 321.82 790.15 323.54 790.49 325.14C791 328.4 791.11 331.67 790.97 334.08C790.93 335.32 790.81 336.28 790.75 336.9C790.66 337.61 790.6 338.01 790.6 338.01V338.11C790.31 340.4 791.93 342.49 794.22 342.77C796.52 343.07 798.62 341.44 798.9 339.14C798.99 338.72 798.95 338.28 798.89 337.88Z" fill="#212216" stroke="#010101" stroke-width="4" stroke-miterlimit="10"/>
<path d="M680.54 364.62C680.54 364.62 680.37 364.64 680.06 364.67C679.84 364.69 679.39 364.72 678.77 364.73C677.6 364.71 675.83 364.68 673.7 364.31C672.64 364.19 671.5 363.89 670.29 363.63C669.12 363.25 667.83 362.96 666.57 362.4C665.28 361.95 663.99 361.37 662.7 360.7C661.38 360.1 660.18 359.21 658.89 358.45C657.64 357.64 656.52 356.64 655.33 355.74C654.25 354.7 653.23 353.68 652.17 352.69C651.26 351.59 650.36 350.54 649.51 349.53C648.67 348.52 648.04 347.43 647.37 346.47C646 344.57 645.19 342.78 644.54 341.59C643.86 340.38 643.51 339.68 643.51 339.68C643.51 339.68 643.77 340.42 644.2 341.72C644.68 343 645.18 344.93 646.25 347.06C646.76 348.14 647.23 349.37 647.9 350.54C648.61 351.74 649.35 352.99 650.13 354.28C651.02 355.51 651.97 356.77 652.92 358.06C654.02 359.22 655.09 360.49 656.29 361.62C657.51 362.68 658.71 363.88 660.08 364.78C661.37 365.81 662.74 366.69 664.09 367.47C665.42 368.33 666.85 368.91 668.15 369.58C669.51 370.11 670.78 370.7 672 371.05C674.44 371.88 676.55 372.29 678.1 372.57C678.84 372.69 679.47 372.77 679.97 372.81C680.39 372.86 680.62 372.88 680.62 372.88C682.9 373.06 684.89 371.36 685.1 369.08C685.3 366.8 683.56 364.79 681.31 364.6C681.07 364.6 680.85 364.6 680.63 364.59L680.54 364.62Z" fill="#212216" stroke="#010101" stroke-width="4" stroke-miterlimit="10"/>
<path d="M655.52 373.08C655.43 373.07 655.14 373.19 654.23 373.32C653.4 373.47 652.12 373.62 650.56 373.7C647.42 373.86 643.16 373.64 639.07 372.41C637 371.85 635.02 371 633.22 370.03C632.28 369.59 631.48 369.01 630.68 368.5C629.87 367.99 629.15 367.45 628.55 366.9C627.22 365.86 626.25 364.85 625.59 364.09C624.92 363.39 624.52 362.96 624.52 362.96C624.52 362.96 624.8 363.46 625.29 364.32C625.77 365.21 626.5 366.44 627.6 367.79C628.12 368.5 628.72 369.24 629.43 369.94C630.13 370.67 630.84 371.47 631.71 372.18C633.35 373.64 635.33 375.07 637.45 376.2C641.63 378.62 646.36 380 650.01 380.65C651.83 380.98 653.37 381.15 654.48 381.22C655.58 381.32 656.41 381.28 656.31 381.29C658.59 381.07 660.24 379.04 660.02 376.78C659.82 374.51 657.8 372.86 655.52 373.08Z" fill="#212216" stroke="#010101" stroke-width="4" stroke-miterlimit="10"/>
<path d="M587.18 399.87C587.18 399.87 587.07 399.92 586.88 400.02C586.76 400.09 586.45 400.23 586.06 400.39C585.28 400.67 584.06 401.13 582.54 401.47C581.04 401.82 579.2 402.11 577.22 402.2C575.22 402.34 573.07 402.2 570.92 401.88C568.74 401.56 566.6 400.96 564.63 400.28C563.62 399.93 562.73 399.5 561.8 399.11C560.91 398.76 560.13 398.24 559.38 397.86C557.82 397.08 556.67 396.21 555.83 395.66C554.97 395.08 554.5 394.77 554.5 394.77C554.5 394.77 554.88 395.2 555.6 395.94C556.3 396.68 557.26 397.79 558.63 398.92C559.32 399.46 559.97 400.19 560.83 400.76C561.65 401.33 562.54 402.01 563.43 402.62C565.34 403.82 567.51 404.98 569.82 405.87C572.11 406.74 574.5 407.45 576.84 407.82C579.15 408.25 581.36 408.41 583.28 408.38C585.21 408.41 586.83 408.2 587.99 408.05C588.57 407.97 589.06 407.86 589.44 407.78C589.75 407.72 589.93 407.68 589.93 407.68C592.16 407.16 593.57 404.94 593.06 402.7C592.55 400.46 590.32 399.07 588.11 399.57C587.78 399.62 587.46 399.74 587.18 399.87Z" fill="#212216" stroke="#010101" stroke-width="4" stroke-miterlimit="10"/>
<path d="M545.57 420.18C545.57 420.18 545.19 420.27 544.59 420.43C544.07 420.57 543.27 420.77 542.19 420.9C540.05 421.28 537.17 421.42 534.21 421.18C532.83 420.9 531.25 420.86 529.97 420.39C528.69 419.89 527.31 419.61 526.35 419.03C524.33 417.85 522.98 417.07 522.98 417.07C522.98 417.07 524.02 418.28 525.62 420.09C526.4 421.03 527.61 421.75 528.82 422.73C530.08 423.75 531.61 424.31 533.11 425.17C536.17 426.51 539.47 427.48 542.03 427.88C543.29 428.12 544.39 428.26 545.24 428.31C545.96 428.38 546.41 428.4 546.41 428.4C548.74 428.58 550.74 426.85 550.91 424.54C551.11 422.23 549.39 420.21 547.05 420.03C546.56 419.99 546.13 420.03 545.68 420.15L545.57 420.18Z" fill="#212216" stroke="#010101" stroke-width="4" stroke-miterlimit="10"/>
<path opacity="0.4" d="M644.5 429.74C644.5 429.74 869.05 575.48 1120.19 528.87C1330.11 489.91 1123.43 382.6 1123.43 382.6C1123.43 382.6 1075.21 370.39 950.4 374.46C825.62 378.53 644.5 429.74 644.5 429.74ZM926.11 382.97C1040.85 370.11 1133.1 394.69 1163.98 415.07C1216.6 449.8 1229.81 500.59 1119.43 522.53C1009.02 544.46 880.53 514.91 808.59 477.25C736.68 439.58 811.41 395.82 926.11 382.97Z" fill="#A3A496"/>
<path opacity="0.4" d="M527.54 470.3C527.54 470.3 576.46 444.74 644.49 429.74C644.49 429.74 825.62 378.53 950.39 374.45C1075.19 370.38 1123.42 382.59 1123.42 382.59C1123.42 382.59 1132.47 383.32 1134.18 372.34C1136.17 359.72 1137.32 353.02 1136.76 349.27C1135.77 342.8 1129.86 342.58 1129.86 342.58C1129.86 342.58 1130.08 342.47 1130.38 342.29L1128.47 342.48C1128.47 342.48 1050.09 312.15 888.3 326.7C726.49 341.25 554.97 415.19 517.94 444.96C517.95 444.96 518.83 460.01 527.54 470.3ZM714.05 368.17C882.46 313.42 1026.64 327.94 1094.95 341.09C1140.38 349.82 1131.24 379.22 1086.27 371.1C942.05 345.07 759.41 394.72 717.53 403.57C675.64 412.42 665.64 383.9 714.05 368.17Z" fill="#A3A496"/>
<path opacity="0.4" d="M463.04 424.93C474.82 460.07 517.95 444.96 517.95 444.96C554.98 415.19 726.49 341.24 888.31 326.7C1050.1 312.15 1128.48 342.48 1128.48 342.48L1130.39 342.29C1136.2 338.85 1195.94 301.88 1179.95 239.74C1163.12 174.43 967.42 104.6 752.14 173.24C557.8 235.2 447.98 379.85 463.04 424.93ZM712.31 195.48C851.47 138.72 977.98 143.38 1069.77 169.96C1161.54 196.55 1186.7 254.16 1166.5 292.9C1142.63 338.67 1116.86 326.33 1125.98 313.6C1135.11 300.89 1144.85 245.41 1132.76 277.02C1120.65 308.66 1085.65 325.26 1091.6 311.92C1097.53 298.6 1090.49 279.46 1087.29 292.92C1084.14 306.38 1065.48 324.11 1075.42 295.12C1085.35 266.13 1074.48 226.05 1073.58 242.05C1071.32 281.57 1035.29 319.82 1036.57 300.98C1037.82 282.13 1036.18 269.24 1032.45 280.34C1028.7 291.42 1011.67 311.43 968.16 312.41C924.69 313.41 904.19 298.14 899.95 279.88C895.74 261.62 875.68 231.77 881.64 250.22C897.08 297.96 874.8 317.97 868.01 301.52C861.2 285.08 847.6 278.64 847.89 286.9C848.2 295.18 868.93 315.97 830.33 321.27C791.75 326.58 776.33 292.38 779.34 301.95C782.35 311.5 787.16 328.69 724.22 348.07C661.27 367.48 634.34 320.38 638.94 335.59C643.55 350.81 655.59 367.57 638.03 364.02C620.48 360.48 614.2 347.77 617.86 358.54C621.53 369.31 626.54 383.39 606.91 389.58C576.79 399.1 540.09 385.15 545.87 391.33C551.66 397.5 566.53 416.96 542.73 417.57C518.96 418.19 504.81 401.08 510.55 412.03C516.31 422.99 505.7 436.28 488.02 399.12C470.35 361.96 573.14 252.24 712.31 195.48Z" fill="#A3A496"/>
<path d="M1148.78 228.89C1148.78 228.89 1148.46 228.33 1147.78 227.37C1147.12 226.36 1146.11 224.91 1144.62 223.12C1141.75 219.47 1137.13 214.41 1130.48 208.78C1127.07 206.09 1123.43 202.9 1119 200.06C1116.85 198.56 1114.59 197.02 1112.26 195.41C1109.79 193.99 1107.27 192.49 1104.65 190.97C1099.48 187.7 1093.55 185.14 1087.46 182.06C1084.42 180.44 1081.12 179.29 1077.81 177.96C1074.46 176.65 1071.05 175.31 1067.57 173.93C1060.48 171.52 1053.05 169.27 1045.3 166.86C1037.49 164.97 1029.37 163.01 1020.98 161.16C1012.54 159.75 1003.87 158.28 995.02 156.79C986.05 155.89 976.93 154.97 967.63 154.02C949.03 153.02 929.73 151.98 910.16 152.77C905.2 152.88 900.24 152.97 895.22 153.09C890.36 153.48 885.49 153.87 880.59 154.27C875.72 154.68 870.81 155.07 865.89 155.47L858.52 156.07L851.09 157.18C841.19 158.8 831.24 160.31 821.41 162.05C811.74 164.3 802.1 166.56 792.52 168.79C773.6 173.95 755.18 179.85 737.86 186.82C729.04 189.95 720.71 193.83 712.56 197.57C708.49 199.46 704.39 201.2 700.46 203.17C696.59 205.2 692.74 207.2 688.96 209.19C685.16 211.17 681.45 213.12 677.78 215.05C674.19 217.15 670.67 219.22 667.22 221.25C663.76 223.31 660.37 225.34 657.03 227.33C653.73 229.31 650.62 231.52 647.52 233.54C634.96 241.58 624.03 249.78 614.55 257.25C605.06 264.71 597.11 271.6 590.68 277.4C584.26 283.19 579.52 288.08 576.29 291.41C573.14 294.76 571.5 296.62 571.5 296.62C571.5 296.62 573.27 294.93 576.77 291.9C580.26 288.85 585.51 284.61 592.26 279.24C599.05 273.94 607.38 267.68 617.29 260.97C622.12 257.47 627.6 254.18 633.24 250.56C638.82 246.85 644.91 243.33 651.24 239.59C654.42 237.76 657.6 235.75 660.95 233.95C664.31 232.16 667.76 230.34 671.26 228.49C674.73 226.62 678.27 224.72 681.88 222.8C685.55 221.05 689.32 219.25 693.09 217.46C696.88 215.65 700.72 213.82 704.63 211.97C708.54 210.18 712.6 208.62 716.64 206.91C724.81 203.6 733.02 199.84 741.73 197.02C746.03 195.48 750.36 193.94 754.73 192.39C756.93 191.62 759.11 190.83 761.32 190.06C763.55 189.41 765.81 188.77 768.09 188.11C772.59 186.82 777.13 185.52 781.72 184.2C786.3 182.95 790.78 181.28 795.51 180.38C804.87 178.26 814.28 176.13 823.75 173.99C833.26 172.5 842.81 171 852.37 169.49L859.54 168.35L866.91 167.7C871.79 167.26 876.69 166.83 881.59 166.4C886.49 165.96 891.37 165.52 896.23 165.09C900.99 164.97 905.73 164.83 910.48 164.71C915.29 164.57 920.07 164.44 924.84 164.31L931.96 164.06C934.35 164.11 936.67 164.15 939.05 164.19C948.47 164.44 957.76 164.44 966.91 164.86C976.03 165.55 985.02 166.21 993.77 166.87C1002.49 168.01 1011.02 169.13 1019.33 170.2C1027.53 171.8 1035.54 173.33 1043.26 174.82C1050.86 176.81 1058.28 178.62 1065.3 180.63C1079.18 185.13 1091.82 189.69 1102.44 194.99C1105.11 196.31 1107.7 197.58 1110.19 198.82C1112.6 200.22 1114.9 201.57 1117.1 202.88C1121.65 205.36 1125.38 208.22 1128.95 210.63C1132.39 213.15 1135.32 215.61 1137.9 217.71C1140.37 219.95 1142.53 221.8 1144.07 223.52C1145.68 225.16 1146.85 226.48 1147.63 227.43C1148.43 228.36 1148.78 228.89 1148.78 228.89Z" fill="#444A29" stroke="#010101" stroke-width="4" stroke-miterlimit="10"/>
<path d="M1146.03 411.86C1146.03 411.86 1150.89 414.62 1158.55 420.48C1162.36 423.42 1166.78 427.2 1171.38 431.92C1175.84 436.69 1180.51 442.57 1183.38 449.64C1186.3 456.68 1186.61 464.89 1183.12 472.5C1181.42 476.32 1179.07 480.05 1175.93 483.45C1174.54 485.25 1172.65 486.78 1171.1 488.51C1169.73 489.51 1167.22 491.88 1165.46 492.87C1161.87 495.15 1157.44 497.5 1152.7 499.19C1150.38 500.12 1147.99 500.97 1145.5 501.65C1143.03 502.44 1140.55 503.19 1137.99 503.76C1127.81 506.34 1117.09 507.96 1106.3 509.12C1095.5 510.33 1084.6 511.02 1073.81 511.43C1063.03 511.77 1052.4 512.04 1042.09 511.98C1021.49 511.95 1002.17 511.31 985.6 510.7C969.04 509.92 955.19 509.27 945.53 508.81C935.83 508.31 930.28 508.01 930.28 508.01C930.28 508.01 951.88 513.43 984.99 517.8C993.25 518.89 1002.24 520.01 1011.78 520.81C1021.32 521.67 1031.38 522.55 1041.84 522.9C1052.29 523.28 1063.13 523.74 1074.14 523.4C1085.19 523.13 1096.42 522.6 1107.61 521.43C1118.84 520.11 1130.06 518.26 1141.01 515.36C1143.74 514.67 1146.46 513.85 1149.14 512.92C1151.82 512.07 1154.45 511.03 1157.09 509.87C1159.69 508.84 1162.23 507.51 1164.69 506.15C1167.19 505 1169.74 503.1 1172.2 501.44C1173.53 500.59 1174.39 499.74 1175.37 498.88L1178.51 496.08C1180.33 494.02 1182.25 492.17 1183.83 489.91C1187.19 485.71 1189.86 480.91 1191.71 475.91C1193.54 470.89 1194.41 465.54 1193.91 460.45C1193.46 455.37 1191.85 450.73 1189.83 446.72C1185.7 438.62 1179.89 432.98 1174.61 428.52C1169.26 424.06 1164.16 420.89 1159.94 418.45C1155.65 416.01 1152.13 414.46 1149.73 413.4C1147.33 412.34 1146.03 411.86 1146.03 411.86Z" fill="#444A29" stroke="#010101" stroke-width="4" stroke-miterlimit="10"/>
</svg>
