<svg width="1660" height="1660" viewBox="0 0 1660 1660" fill="none" xmlns="http://www.w3.org/2000/svg">
<path d="M637.91 1242.31C632.79 1240.76 632.92 1221.17 637.91 1205.48C643.43 1188.11 656.26 1171.25 661.45 1173.21C666.68 1175.19 661.06 1196.21 655.56 1211.83C650.43 1226.4 643.15 1243.9 637.91 1242.31Z" fill="#13161B" stroke="#010101" stroke-width="4" stroke-miterlimit="10"/>
<path d="M1031 1229C1035.92 1226.92 1033.72 1207.45 1027.11 1192.38C1019.79 1175.7 1005.25 1160.28 1000.29 1162.78C995.3 1165.3 1003.11 1185.61 1010.23 1200.56C1016.87 1214.49 1025.96 1231.13 1031 1229Z" fill="#13161B" stroke="#010101" stroke-width="4" stroke-miterlimit="10"/>
<path d="M535.29 1020.27C549.1 1054.45 558.55 1104.18 599.53 1153.03C644.84 1207.03 707.37 1238.77 740.72 1258.36" stroke="#010101" stroke-width="14" stroke-miterlimit="10"/>
<path d="M1093.36 914.22C1093.37 951.08 1100.2 1014.77 1080.52 1075.42C1058.77 1142.47 1012.7 1195.34 989.13 1226.01" stroke="#010101" stroke-width="14" stroke-miterlimit="10"/>
<path d="M993.53 1228.28C987.02 1255.74 973.79 1273.93 960.73 1273.89C953.23 1273.87 944.1 1267.84 943.85 1261.89C943.5 1253.61 960.56 1249.66 959.8 1242.53C958.99 1234.89 941.33 1234.49 942.09 1231.58C945.28 1219.4 952.03 1227.12 969.15 1225.38C975.72 1224.71 979.15 1223.41 985.56 1221.7C989.44 1220.67 991.93 1225.87 993.53 1228.28Z" fill="#010101" stroke="#010101" stroke-width="4" stroke-miterlimit="10"/>
<path d="M615.05 858.59C598.4 875.39 591.86 884.63 561.86 922.86C536.73 954.88 534.79 958.63 531.04 968.04C526.9 978.42 524.6 991.41 526.34 1008.26C529.04 1034.35 509.35 1036.2 523.89 1081.61C526.64 1090.21 515.61 1096.38 521.31 1127.56C528.38 1166.23 590.96 1239.51 637.99 1242.92C645.06 1243.43 632.86 1226.79 640.98 1206.52C649.07 1186.34 664.71 1186.9 667.93 1173.33C670.43 1162.79 664.88 1139.2 661.37 1127.57C662.52 1130.78 667.96 1145.77 669.22 1149.55C674.91 1166.61 664.53 1183.68 664.06 1213.93C663.68 1238.36 670.92 1250.84 670.92 1260.97C670.92 1268.25 666.87 1272.93 665.92 1281.61C664.94 1290.53 664.64 1298.77 670.07 1304.47C681.68 1316.65 705.94 1312.52 744.33 1307.12C765.95 1304.08 798.04 1299.8 838.28 1295.31C838.27 1295.24 838.25 1295.17 838.24 1295.1C838.22 1294.96 838.18 1294.75 838.13 1294.48C926.15 1310.63 994.17 1310.17 1003.07 1293.11C1009.19 1281.38 1007.74 1274.67 1007.74 1274.67C1006.53 1265.66 1003.32 1262.07 1002.18 1255.68C999.11 1238.43 1003.29 1226.98 1003.11 1202.4C1002.91 1175.71 989.02 1166.43 993.72 1138.4C994.73 1132.39 1000.19 1115.68 1000.11 1116.05C997.37 1127.85 993.38 1151.69 996.57 1162.08C1000.68 1175.45 1016.26 1174.08 1025.66 1193.8C1034.2 1211.72 1025.95 1227.56 1029.5 1229.76C1030.07 1230.11 1030.71 1229.99 1031.05 1229.99C1047.42 1229.99 1129.67 1161.37 1140.5 1105.35C1143.3 1090.86 1137.95 1075.33 1137.95 1075.33C1136.29 1071.04 1135.73 1071.23 1135.15 1068.5C1133.24 1059.6 1138.93 1056.35 1140.98 1042.08C1141.83 1036.14 1141.5 1032.16 1141.09 1029.55C1140.89 1028.26 1140.51 1026.64 1139.75 1023.39C1138.48 1017.98 1137.85 1015.27 1137.03 1013.08C1134.65 1006.7 1132.98 1007.48 1132.24 1003.52C1131.5 999.52 1133.16 998.45 1133.52 991.78C1133.66 989.08 1133.49 987.19 1133.13 983.4C1132.34 974.95 1131.85 969.75 1129.37 963.17C1128.77 961.57 1126.64 956.16 1122.29 949.99C1119.23 945.65 1116.15 942.47 1114.5 940.77C1112.66 938.88 1111 937.35 1109.72 936.22C1109.79 933.1 1109.61 928.68 1108.42 923.54C1107.36 918.96 1104.14 908.18 1091.88 895.09C1078.99 881.33 1067.78 879.69 1028.11 849.4C1018.83 842.31 1004.72 834.17 1000.76 832.59C978.99 823.92 969.06 820.09 959.24 818.96C944.09 817.22 929.58 814.78 917.7 821.59C905.05 828.84 906.61 839.73 897.29 857.1C888.01 874.39 865.09 903.41 841.34 903.29C825.9 903.21 810.24 885.76 779.56 850.85C758.62 827.03 755.42 819.86 749.64 815.53C749.22 815.21 746.69 813.69 744.14 812.43C715.73 798.38 666.11 813.53 630.02 844.16C625.71 847.82 622.16 851.41 615.05 858.59ZM642.02 1097.77C634.12 1089.9 640.82 1087.93 643.36 1057.73C644.98 1038.46 642.86 1020.19 645.31 1020.24C648.32 1020.29 655.7 1048.28 654.16 1059.83C649.44 1095.14 653.03 1105.14 661.37 1127.56C656.17 1115.52 649.04 1104.76 642.02 1097.77ZM1017.48 1085.3C1010.93 1092.65 1004.52 1103.76 1000.12 1116.06C1006.98 1093.23 1009.9 1083.07 1002.86 1048.06C1000.56 1036.61 1006.09 1008.29 1009.09 1008.07C1011.53 1007.9 1010.61 1026.24 1013.5 1045.4C1018.03 1075.41 1024.85 1077.02 1017.48 1085.3Z" fill="url(#paint0_radial_87_17260)" stroke="#010101" stroke-width="4" stroke-miterlimit="10"/>
<path d="M650.72 1010.52C645.54 1009.98 649.96 971.42 636.49 929.61C634.84 924.48 637.15 924.93 628 899.26C622.46 883.73 606.72 868.09 613.06 861.64C630.06 844.33 642.08 836.22 652.38 830.05C669.05 820.06 706.51 800.11 736.54 810.69C740.5 812.08 740.39 813.59 742.44 815.05C752.83 822.49 753.74 836.33 779.11 863.46C802.88 888.88 815.86 902.76 831.76 902.39C864.45 901.63 914.46 877.85 922.7 834.47C929.33 799.59 992.35 828.54 1008.26 837.62C1014.24 841.03 1026.34 849.62 1041.53 861.06C1049.03 866.71 1057.55 871.3 1061.68 874.79C1057.68 879.34 1051.32 886.44 1045.68 894.24C1040.62 901.24 1029.87 917.58 1021.74 937.17C1011.56 961.73 1009.2 990.7 1009.09 1008.06C993.14 992.02 958.57 969.3 922.2 952.49C905.14 944.6 878.81 941.11 833.49 938.36C818.2 937.43 801.68 939.22 764.72 943.02C749.34 947.91 707.48 954.15 679.01 979.3C660.72 995.47 655.19 1010.99 650.72 1010.52Z" fill="url(#paint1_radial_87_17260)"/>
<path d="M621.36 1237.1C620.13 1230.59 616.03 1213.92 624.78 1195.93C636.43 1171.97 659.01 1164.65 667.7 1161.41C667.7 1171.38 666.05 1177.24 661.62 1181.01C648.64 1192.09 646.54 1193.13 641.83 1201.39C636.63 1210.54 637.18 1217.76 638.81 1241.37C633.62 1240.78 627.09 1239.61 621.36 1237.1Z" fill="url(#paint2_radial_87_17260)"/>
<path d="M1048.42 1219.88C1049.39 1213.59 1052.61 1195.54 1043.61 1178.45C1031.63 1155.69 1005.81 1147.75 996.21 1145.39C995.45 1157.62 998.34 1165.48 1002.71 1169C1015.56 1179.33 1020.29 1181.57 1025.08 1189.41C1030.38 1198.08 1033.11 1204.77 1030.43 1228.08C1033.46 1228.79 1042.68 1224.24 1048.42 1219.88Z" fill="url(#paint3_radial_87_17260)"/>
<path d="M942.36 898.44C944.21 898.32 946.09 898.37 947.93 898.63C948.23 898.67 948.71 898.62 948.93 898.4C949.16 898.16 948.8 898.05 948.61 898.03C946.66 897.76 944.64 897.7 942.68 897.83C942.45 897.85 941.89 897.87 941.79 898.15C941.69 898.41 942.21 898.45 942.36 898.44Z" fill="white"/>
<path d="M944.5 898.17C944.5 899.33 944.53 900.49 944.57 901.64C944.59 902.21 944.62 902.78 944.65 903.34C944.68 903.83 944.65 904.37 944.86 904.83C945.03 905.22 946.49 905.16 946.31 904.75C946.11 904.3 946.16 903.71 946.14 903.23C946.11 902.68 946.09 902.14 946.07 901.59C946.03 900.48 946.01 899.36 946 898.25C946 897.81 944.5 897.76 944.5 898.17Z" fill="white"/>
<path d="M949.65 897.85C949.62 900.39 949.65 902.93 949.72 905.47C949.73 905.85 951.21 905.68 951.2 905.21C951.13 902.67 951.11 900.13 951.13 897.59C951.13 897.23 949.65 897.38 949.65 897.85Z" fill="white"/>
<path d="M951.13 901.67C952.52 901.1 953.95 900.78 955.43 900.71C955.59 900.7 956.1 900.61 955.96 900.35C955.83 900.09 955.27 900.11 955.04 900.12C953.34 900.2 951.65 900.57 950.08 901.22C950 901.25 949.86 901.32 949.86 901.43C949.86 901.54 950 901.61 950.07 901.65C950.37 901.78 950.83 901.8 951.13 901.67Z" fill="white"/>
<path d="M955.26 898.22C955.26 900.33 955.34 902.44 955.52 904.54C955.55 904.95 957.05 904.8 957.01 904.37C956.83 902.27 956.75 900.16 956.75 898.05C956.75 897.66 955.26 897.76 955.26 898.22Z" fill="white"/>
<path d="M958.35 897.88C958.43 899.94 958.61 901.99 958.9 904.02C958.97 904.54 958.98 904.88 959.51 905.11C959.98 905.31 960.51 905.27 961.01 905.3C962.02 905.37 963.02 905.54 964 905.78C964.17 905.82 964.74 905.92 964.8 905.66C964.86 905.4 964.29 905.24 964.14 905.2C963.39 905.01 962.64 904.87 961.88 904.76C961.51 904.71 961.13 904.67 960.76 904.64C960.56 904.62 960.36 904.61 960.16 904.6C960.07 904.6 959.97 904.59 959.88 904.59C959.58 904.57 959.69 904.6 960.22 904.69C960.32 904.77 960.42 904.86 960.52 904.94C960.39 904.73 960.4 904.42 960.36 904.18C960.32 903.89 960.28 903.61 960.25 903.32C960.18 902.75 960.11 902.18 960.06 901.6C959.95 900.47 959.88 899.34 959.83 898.2C959.79 897.74 958.34 897.54 958.35 897.88Z" fill="white"/>
<path d="M960.11 901.42C961.35 901.41 962.59 901.4 963.83 901.39C963.97 901.39 964.52 901.38 964.4 901.1C964.29 900.84 963.75 900.76 963.52 900.76C962.28 900.77 961.04 900.78 959.8 900.79C959.66 900.79 959.11 900.8 959.23 901.08C959.33 901.34 959.88 901.42 960.11 901.42Z" fill="white"/>
<path d="M960.11 898.45C961.44 898.39 962.92 898.43 964.18 898.56C964.36 898.58 964.91 898.65 964.97 898.37C965.02 898.11 964.41 897.98 964.27 897.97C962.66 897.8 961.06 897.76 959.44 897.83C959.25 897.84 958.88 897.97 959.11 898.2C959.35 898.43 959.8 898.47 960.11 898.45Z" fill="white"/>
<path d="M946.64 907.77C947.15 910.03 947.5 912.3 947.7 914.6C947.74 915.05 949.23 915.05 949.2 914.66C949 912.36 948.65 910.08 948.14 907.83C948.03 907.36 946.56 907.44 946.64 907.77Z" fill="white"/>
<path d="M945.22 908.76C946.98 908.08 948.86 907.74 950.75 907.77C950.95 907.77 951.31 907.7 951.11 907.44C950.92 907.19 950.44 907.08 950.14 907.08C948.06 907.05 945.98 907.39 944.04 908.15C943.73 908.27 944.03 908.53 944.2 908.62C944.47 908.75 944.91 908.88 945.22 908.76Z" fill="white"/>
<path d="M952.95 907.91C954.51 907.75 956.06 907.69 957.65 907.73C957.89 907.74 958.43 907.68 958.54 907.42C958.66 907.14 958.11 907.12 957.98 907.11C956.28 907.06 954.58 907.13 952.89 907.31C952.71 907.33 952.16 907.42 952.18 907.69C952.19 907.97 952.8 907.93 952.95 907.91Z" fill="white"/>
<path d="M954.91 907.69C955.07 909.93 955.23 912.18 955.39 914.42C955.42 914.86 956.92 914.8 956.89 914.39C956.73 912.15 956.57 909.9 956.41 907.66C956.38 907.23 954.88 907.28 954.91 907.69Z" fill="white"/>
<path d="M959.93 907.43C960.32 909.47 960.71 911.51 961.11 913.55C961.19 913.96 961.23 914.31 961.68 914.43C962.15 914.56 962.72 914.48 963.2 914.48C964.24 914.48 965.28 914.48 966.32 914.48C966.55 914.48 967.11 914.42 967.21 914.16C967.31 913.88 966.79 913.86 966.64 913.86C965.93 913.86 965.22 913.86 964.51 913.86C964.16 913.86 963.8 913.86 963.45 913.86C963.27 913.86 963.1 913.86 962.92 913.86C962.83 913.86 962.74 913.86 962.65 913.86C962.5 913.87 962.47 913.86 962.58 913.85C962.65 913.89 962.72 913.92 962.79 913.96C962.6 913.82 962.61 913.52 962.57 913.31C962.52 913.05 962.47 912.78 962.42 912.52C962.31 911.93 962.19 911.34 962.08 910.74C961.86 909.58 961.63 908.42 961.41 907.25C961.33 906.81 959.85 907.03 959.93 907.43Z" fill="white"/>
<path d="M938.72 918.21C939.28 920.29 939.54 922.45 939.47 924.6C939.45 925.08 940.89 925.38 940.9 925.05C940.97 922.84 940.72 920.63 940.14 918.49C940.03 918.06 938.61 917.81 938.72 918.21Z" fill="white"/>
<path d="M940.03 918.2C941.53 917.9 943.06 917.74 944.6 917.75C944.75 917.75 945.28 917.76 945.18 917.48C945.09 917.22 944.52 917.12 944.31 917.12C942.55 917.11 940.8 917.26 939.07 917.61C938.99 917.63 938.84 917.68 938.82 917.78C938.8 917.89 938.93 917.98 939 918.03C939.27 918.2 939.7 918.27 940.03 918.2Z" fill="white"/>
<path d="M940.48 921.2C941.87 920.97 943.27 920.74 944.66 920.51C944.8 920.49 945.33 920.37 945.17 920.12C945.01 919.88 944.47 919.91 944.24 919.95C942.85 920.18 941.45 920.41 940.06 920.64C939.92 920.66 939.39 920.78 939.55 921.03C939.71 921.27 940.25 921.24 940.48 921.2Z" fill="white"/>
<path d="M947.84 916.87C947.02 919.36 946.17 921.83 945.27 924.29C945.13 924.66 946.57 925.1 946.72 924.67C947.61 922.21 948.47 919.73 949.29 917.25C949.41 916.87 947.98 916.45 947.84 916.87Z" fill="white"/>
<path d="M948.28 917.62C950.01 919.9 950.03 922.94 951.34 925.42C951.52 925.77 952.97 925.46 952.74 925.03C951.42 922.54 951.42 919.53 949.68 917.23C949.43 916.89 948.02 917.27 948.28 917.62Z" fill="white"/>
<path d="M947.83 923.39C948.95 923.09 950.07 922.79 951.18 922.49C951.32 922.45 951.84 922.3 951.66 922.06C951.48 921.84 950.94 921.9 950.72 921.96C949.6 922.26 948.48 922.56 947.37 922.86C947.23 922.9 946.71 923.05 946.89 923.29C947.06 923.51 947.6 923.45 947.83 923.39Z" fill="white"/>
<path d="M960.13 919.5C959.89 918.35 958.26 917.9 957.27 917.78C956.06 917.62 954.74 917.8 953.78 918.61C953.4 918.93 953.1 919.35 952.95 919.83C952.76 920.41 952.86 921.04 953.07 921.61C953.49 922.75 954.28 923.76 955.41 924.27C956.12 924.59 956.94 924.71 957.71 924.6C958.44 924.5 959.1 924.2 959.74 923.86C960.03 923.71 959.71 923.48 959.54 923.41C959.26 923.29 958.8 923.21 958.51 923.36C957.88 923.69 957.02 924.2 956.32 923.9C955.52 923.55 955 922.74 954.65 921.97C954.27 921.14 954.18 920.22 954.74 919.46C955.22 918.81 955.99 918.4 956.79 918.37C957.53 918.34 958.49 918.64 958.66 919.45C958.76 919.83 960.23 919.97 960.13 919.5Z" fill="white"/>
<path d="M961.57 918.06C961.68 919.1 961.79 920.15 961.89 921.19C962 922.21 962.04 923.27 962.21 924.28C962.39 925.36 963.94 925.07 964.71 924.98C965.74 924.86 966.75 924.69 967.76 924.48C967.96 924.44 968.28 924.29 968.04 924.08C967.81 923.87 967.3 923.88 967.02 923.94C966.21 924.11 965.4 924.25 964.58 924.36C964.37 924.39 964.16 924.41 963.95 924.44C963.84 924.45 963.74 924.46 963.63 924.47C963.59 924.47 963.55 924.48 963.52 924.48C963.37 924.49 963.45 924.51 963.77 924.53C963.78 924.51 963.7 924.32 963.7 924.29C963.69 924.19 963.68 924.08 963.67 923.98C963.65 923.76 963.62 923.55 963.6 923.33C963.42 921.59 963.24 919.85 963.06 918.12C963.02 917.66 961.53 917.68 961.57 918.06Z" fill="white"/>
<path d="M963.71 921.17C964.28 920.97 964.85 920.79 965.43 920.62C965.71 920.54 966 920.46 966.29 920.38C966.43 920.34 966.58 920.3 966.72 920.27C966.79 920.25 966.85 920.24 966.92 920.22C966.96 920.21 967.01 920.2 967.05 920.19C966.98 920.21 966.99 920.2 967.07 920.18C967.21 920.15 967.74 920.02 967.56 919.77C967.4 919.54 966.85 919.58 966.62 919.63C965.36 919.94 964.12 920.29 962.9 920.72C962.73 920.78 962.38 920.97 962.66 921.15C962.94 921.3 963.42 921.27 963.71 921.17Z" fill="white"/>
<path d="M962.98 918.2C964.22 917.87 965.5 917.73 966.77 917.81C966.95 917.82 967.35 917.77 967.15 917.5C966.96 917.24 966.51 917.11 966.2 917.09C964.73 917 963.26 917.14 961.83 917.52C961.51 917.61 961.81 917.91 961.96 917.99C962.25 918.16 962.65 918.29 962.98 918.2Z" fill="white"/>
<path d="M968.2 901.37C972.93 902.35 977.32 905.52 979.55 909.84C981.65 913.92 982.4 919.11 981.63 923.62C981.46 924.61 984.36 924.11 984.52 923.21C985.34 918.41 984.58 912.78 982.16 908.52C979.59 904.01 975.05 900.96 970.01 899.91C969.37 899.78 968.45 900.03 967.96 900.46C967.5 900.86 967.6 901.24 968.2 901.37Z" fill="white"/>
<path d="M970.92 910.12C972.96 911.14 973.65 913.18 974.19 915.26C974.96 918.17 974.75 921 974.37 923.95C974.21 925.19 977.14 924.7 977.28 923.63C977.69 920.46 977.87 917.42 977.04 914.31C976.42 911.97 975.48 909.8 973.2 908.66C972.57 908.35 971.71 908.53 971.14 908.91C970.75 909.15 970.29 909.8 970.92 910.12Z" fill="white"/>
<path d="M670.93 1159.6C722.1 1130.46 774.81 1143.17 831.52 1145.56C895.82 1148.28 925.77 1127.56 992.78 1149.55" stroke="#010101" stroke-width="4" stroke-miterlimit="10"/>
<path d="M654.34 1057.59C690.84 1027.34 753.1 1034.06 834.12 1033.37C907.67 1032.74 962.4 1021.42 1003.41 1050.88" stroke="#010101" stroke-width="4" stroke-miterlimit="10"/>
<path d="M646.58 1021.43C662.26 987.09 704.01 961.7 720.05 955.86C773.9 936.24 874.34 933.66 927.6 954.49C963.07 968.36 997.49 993.03 1009.09 1008.08" stroke="#010101" stroke-width="4" stroke-miterlimit="10"/>
<path d="M670.93 1260.96C728.24 1268.24 771.65 1257.51 832.07 1251.24C865.81 1247.74 914.58 1268.66 1001.17 1253.18" stroke="#010101" stroke-width="4" stroke-miterlimit="10"/>
<path d="M611.18 862.37C620.33 881.2 629.52 903.97 636.57 930.34C646.57 967.77 649.21 1001.08 649.08 1027.34" stroke="#010101" stroke-width="4" stroke-miterlimit="10"/>
<path d="M1063.49 876C1051.55 887.69 1032.52 909.35 1020.58 941.1C1009.65 970.18 1009.27 995.5 1010.34 1010.84" stroke="#010101" stroke-width="4" stroke-miterlimit="10"/>
<path d="M560.91 930.85C572.75 940.4 585.49 951.93 598.17 965.69C619.12 988.43 633.78 1010.62 644.03 1029.22" stroke="#010101" stroke-width="4" stroke-miterlimit="10"/>
<path d="M525.47 1019.99C548.03 1027.13 567.77 1030.88 581.77 1037.49C596.41 1044.4 622.89 1055.4 641.97 1069.7" stroke="#010101" stroke-width="4" stroke-miterlimit="10"/>
<path d="M524.84 1086.7C539.76 1085.14 557.33 1084.25 576.96 1085.05C600.96 1086.04 621.81 1089.31 638.71 1093.01" stroke="#010101" stroke-width="4" stroke-miterlimit="10"/>
<path d="M537.25 1165.11C544.01 1155.71 559.18 1139.83 577.99 1127.61C603.45 1111.09 631.55 1105.89 645.17 1104.01" stroke="#010101" stroke-width="4" stroke-miterlimit="10"/>
<path d="M667.32 1159.6C662.75 1160.95 636.16 1169.24 623.32 1194.44C613.55 1213.63 618.45 1233.05 619.99 1238.67" stroke="#010101" stroke-width="4" stroke-miterlimit="10"/>
<path d="M1109.73 936.23C1094.37 945.27 1076.68 957.2 1058.6 972.72C1038.1 990.32 1022.98 1012.54 1011.62 1027.35" stroke="#010101" stroke-width="4" stroke-miterlimit="10"/>
<path d="M1132.26 1003.52C1112.65 1007.13 1094.7 1013.24 1071.33 1024.86C1044.1 1038.4 1032.95 1052.14 1018.29 1063.49" stroke="#010101" stroke-width="4" stroke-miterlimit="10"/>
<path d="M1135.16 1068.49C1119.9 1066.04 1099.48 1064.7 1076.06 1068.01C1049.04 1071.83 1033.67 1076.17 1019.87 1081.94" stroke="#010101" stroke-width="4" stroke-miterlimit="10"/>
<path d="M1050.57 1220.96C1049.1 1217.08 1058.5 1194.84 1039.35 1169.93C1023.63 1149.47 1000.09 1144.11 994.46 1142.97" stroke="#010101" stroke-width="4" stroke-miterlimit="10"/>
<path d="M1011.63 1094.6C1025.3 1092.5 1057.69 1096.64 1078.96 1104.01C1105.36 1113.17 1120.91 1122.58 1132.26 1129.69" stroke="#010101" stroke-width="4" stroke-miterlimit="10"/>
<path d="M834.91 905.98C834.79 953.29 834.84 991.79 834.91 1018.39C835.03 1065.29 835.2 1070.72 834.91 1089.48C834.03 1147.18 831.48 1159.64 831.51 1195.2C831.53 1218.49 832.66 1252.89 838.27 1295.3" stroke="#303030" stroke-width="7" stroke-miterlimit="10"/>
<path d="M836.41 887.21V880.9" stroke="#62597E" stroke-width="0.25"/>
<path d="M835.48 887.21V880.9" stroke="#62597E" stroke-width="0.25"/>
<path d="M833.63 880.89V887.2" stroke="#62597E" stroke-width="0.25"/>
<path d="M834.56 887.21V880.9" stroke="#62597E" stroke-width="0.25"/>
<path d="M832.71 880.89V887.2" stroke="#62597E" stroke-width="0.25"/>
<path d="M836.41 893.52V887.21" stroke="#62597E" stroke-width="0.25"/>
<path d="M835.48 893.52V887.21" stroke="#62597E" stroke-width="0.25"/>
<path d="M833.63 887.21V893.52" stroke="#62597E" stroke-width="0.25"/>
<path d="M834.56 893.52V887.21" stroke="#62597E" stroke-width="0.25"/>
<path d="M832.71 887.2V893.51" stroke="#62597E" stroke-width="0.25"/>
<path d="M836.41 899.83V893.52" stroke="#62597E" stroke-width="0.25"/>
<path d="M835.48 899.83V893.52" stroke="#62597E" stroke-width="0.25"/>
<path d="M833.63 893.52V899.83" stroke="#62597E" stroke-width="0.25"/>
<path d="M834.56 899.83V893.52" stroke="#62597E" stroke-width="0.25"/>
<path d="M832.71 893.51V899.82" stroke="#62597E" stroke-width="0.25"/>
<path d="M836.41 906.14V899.83" stroke="#62597E" stroke-width="0.25"/>
<path d="M835.48 906.14V899.83" stroke="#62597E" stroke-width="0.25"/>
<path d="M833.63 899.83V906.14" stroke="#62597E" stroke-width="0.25"/>
<path d="M834.56 906.14V899.83" stroke="#62597E" stroke-width="0.25"/>
<path d="M832.71 899.83V906.14" stroke="#62597E" stroke-width="0.25"/>
<path d="M836.41 912.45V906.14" stroke="#62597E" stroke-width="0.25"/>
<path d="M835.48 912.45V906.14" stroke="#62597E" stroke-width="0.25"/>
<path d="M833.63 906.14V912.45" stroke="#62597E" stroke-width="0.25"/>
<path d="M834.56 912.45V906.14" stroke="#62597E" stroke-width="0.25"/>
<path d="M832.71 906.14V912.45" stroke="#62597E" stroke-width="0.25"/>
<path d="M836.41 918.76V912.45" stroke="#62597E" stroke-width="0.25"/>
<path d="M835.48 918.76V912.45" stroke="#62597E" stroke-width="0.25"/>
<path d="M833.63 912.45V918.76" stroke="#62597E" stroke-width="0.25"/>
<path d="M834.56 918.76V912.45" stroke="#62597E" stroke-width="0.25"/>
<path d="M832.71 912.45V918.76" stroke="#62597E" stroke-width="0.25"/>
<path d="M836.41 925.07V918.76" stroke="#62597E" stroke-width="0.25"/>
<path d="M835.48 925.07V918.76" stroke="#62597E" stroke-width="0.25"/>
<path d="M833.63 918.76V925.07" stroke="#62597E" stroke-width="0.25"/>
<path d="M834.56 925.07V918.76" stroke="#62597E" stroke-width="0.25"/>
<path d="M832.71 918.76V925.07" stroke="#62597E" stroke-width="0.25"/>
<path d="M836.41 931.38V925.07" stroke="#62597E" stroke-width="0.25"/>
<path d="M835.48 931.38V925.07" stroke="#62597E" stroke-width="0.25"/>
<path d="M833.63 925.07V931.38" stroke="#62597E" stroke-width="0.25"/>
<path d="M834.56 931.38V925.07" stroke="#62597E" stroke-width="0.25"/>
<path d="M832.71 925.07V931.38" stroke="#62597E" stroke-width="0.25"/>
<path d="M836.41 937.69V931.38" stroke="#62597E" stroke-width="0.25"/>
<path d="M835.48 937.69V931.38" stroke="#62597E" stroke-width="0.25"/>
<path d="M833.63 931.38V937.69" stroke="#62597E" stroke-width="0.25"/>
<path d="M834.56 937.69V931.38" stroke="#62597E" stroke-width="0.25"/>
<path d="M832.71 931.38V937.69" stroke="#62597E" stroke-width="0.25"/>
<path d="M836.41 944V937.69" stroke="#62597E" stroke-width="0.25"/>
<path d="M835.48 944V937.69" stroke="#62597E" stroke-width="0.25"/>
<path d="M833.63 937.69V944" stroke="#62597E" stroke-width="0.25"/>
<path d="M834.56 944V937.69" stroke="#62597E" stroke-width="0.25"/>
<path d="M832.71 937.69V944" stroke="#62597E" stroke-width="0.25"/>
<path d="M836.41 950.31V944" stroke="#62597E" stroke-width="0.25"/>
<path d="M835.48 950.31V944" stroke="#62597E" stroke-width="0.25"/>
<path d="M833.63 944V950.31" stroke="#62597E" stroke-width="0.25"/>
<path d="M834.56 950.31V944" stroke="#62597E" stroke-width="0.25"/>
<path d="M832.71 944V950.32" stroke="#62597E" stroke-width="0.25"/>
<path d="M836.41 956.62V950.31" stroke="#62597E" stroke-width="0.25"/>
<path d="M835.48 956.62V950.31" stroke="#62597E" stroke-width="0.25"/>
<path d="M833.63 950.31V956.63" stroke="#62597E" stroke-width="0.25"/>
<path d="M834.56 956.62V950.31" stroke="#62597E" stroke-width="0.25"/>
<path d="M832.71 950.32V956.63" stroke="#62597E" stroke-width="0.25"/>
<path d="M836.41 962.93V956.62" stroke="#62597E" stroke-width="0.25"/>
<path d="M835.48 962.93V956.62" stroke="#62597E" stroke-width="0.25"/>
<path d="M833.63 956.63V962.94" stroke="#62597E" stroke-width="0.25"/>
<path d="M834.56 962.94V956.62" stroke="#62597E" stroke-width="0.25"/>
<path d="M832.71 956.63V962.94" stroke="#62597E" stroke-width="0.25"/>
<path d="M836.41 969.24V962.93" stroke="#62597E" stroke-width="0.25"/>
<path d="M835.48 969.24V962.93" stroke="#62597E" stroke-width="0.25"/>
<path d="M833.63 962.94V969.25" stroke="#62597E" stroke-width="0.25"/>
<path d="M834.56 969.25V962.94" stroke="#62597E" stroke-width="0.25"/>
<path d="M832.71 962.94V969.25" stroke="#62597E" stroke-width="0.25"/>
<path d="M836.41 975.55V969.24" stroke="#62597E" stroke-width="0.25"/>
<path d="M835.48 975.55V969.24" stroke="#62597E" stroke-width="0.25"/>
<path d="M833.63 969.25V975.56" stroke="#62597E" stroke-width="0.25"/>
<path d="M834.56 975.56V969.25" stroke="#62597E" stroke-width="0.25"/>
<path d="M832.71 969.25V975.56" stroke="#62597E" stroke-width="0.25"/>
<path d="M836.41 981.86V975.55" stroke="#62597E" stroke-width="0.25"/>
<path d="M835.48 981.87V975.56" stroke="#62597E" stroke-width="0.25"/>
<path d="M833.63 975.56V981.87" stroke="#62597E" stroke-width="0.25"/>
<path d="M834.56 981.87V975.56" stroke="#62597E" stroke-width="0.25"/>
<path d="M832.71 975.56V981.87" stroke="#62597E" stroke-width="0.25"/>
<path d="M836.41 988.17V981.86" stroke="#62597E" stroke-width="0.25"/>
<path d="M835.48 988.18V981.87" stroke="#62597E" stroke-width="0.25"/>
<path d="M833.63 981.87V988.18" stroke="#62597E" stroke-width="0.25"/>
<path d="M834.56 988.18V981.87" stroke="#62597E" stroke-width="0.25"/>
<path d="M832.71 981.87V988.18" stroke="#62597E" stroke-width="0.25"/>
<path d="M836.41 994.48V988.17" stroke="#62597E" stroke-width="0.25"/>
<path d="M835.48 994.49V988.18" stroke="#62597E" stroke-width="0.25"/>
<path d="M833.63 988.18V994.49" stroke="#62597E" stroke-width="0.25"/>
<path d="M834.56 994.49V988.18" stroke="#62597E" stroke-width="0.25"/>
<path d="M832.71 988.18V994.49" stroke="#62597E" stroke-width="0.25"/>
<path d="M836.41 1000.79V994.48" stroke="#62597E" stroke-width="0.25"/>
<path d="M835.48 1000.8V994.49" stroke="#62597E" stroke-width="0.25"/>
<path d="M833.63 994.49V1000.8" stroke="#62597E" stroke-width="0.25"/>
<path d="M834.56 1000.8V994.49" stroke="#62597E" stroke-width="0.25"/>
<path d="M832.71 994.49V1000.81" stroke="#62597E" stroke-width="0.25"/>
<path d="M836.43 1007.1L836.41 1000.79" stroke="#62597E" stroke-width="0.25"/>
<path d="M835.51 1007.11L835.48 1000.8" stroke="#62597E" stroke-width="0.25"/>
<path d="M833.63 1000.8L833.65 1007.11" stroke="#62597E" stroke-width="0.25"/>
<path d="M834.58 1007.11L834.56 1000.8" stroke="#62597E" stroke-width="0.25"/>
<path d="M832.71 1000.81L832.73 1007.12" stroke="#62597E" stroke-width="0.25"/>
<path d="M836.46 1013.41L836.43 1007.1" stroke="#62597E" stroke-width="0.25"/>
<path d="M835.53 1013.42L835.51 1007.11" stroke="#62597E" stroke-width="0.25"/>
<path d="M833.65 1007.11L833.68 1013.42" stroke="#62597E" stroke-width="0.25"/>
<path d="M834.61 1013.42L834.58 1007.11" stroke="#62597E" stroke-width="0.25"/>
<path d="M832.73 1007.12L832.75 1013.43" stroke="#62597E" stroke-width="0.25"/>
<path d="M836.49 1019.72L836.46 1013.41" stroke="#62597E" stroke-width="0.25"/>
<path d="M835.56 1019.73L835.53 1013.42" stroke="#62597E" stroke-width="0.25"/>
<path d="M833.68 1013.42L833.71 1019.73" stroke="#62597E" stroke-width="0.25"/>
<path d="M834.63 1019.73L834.61 1013.42" stroke="#62597E" stroke-width="0.25"/>
<path d="M832.75 1013.43L832.78 1019.74" stroke="#62597E" stroke-width="0.25"/>
<path d="M836.51 1026.03L836.49 1019.72" stroke="#62597E" stroke-width="0.25"/>
<path d="M835.59 1026.04L835.56 1019.73" stroke="#62597E" stroke-width="0.25"/>
<path d="M833.71 1019.74L833.74 1026.05" stroke="#62597E" stroke-width="0.25"/>
<path d="M834.66 1026.04L834.63 1019.73" stroke="#62597E" stroke-width="0.25"/>
<path d="M832.78 1019.74L832.81 1026.05" stroke="#62597E" stroke-width="0.25"/>
<path d="M836.55 1032.34L836.51 1026.03" stroke="#62597E" stroke-width="0.25"/>
<path d="M835.62 1032.35L835.59 1026.04" stroke="#62597E" stroke-width="0.25"/>
<path d="M833.74 1026.05L833.77 1032.36" stroke="#62597E" stroke-width="0.25"/>
<path d="M834.69 1032.35L834.66 1026.04" stroke="#62597E" stroke-width="0.25"/>
<path d="M832.81 1026.05L832.84 1032.36" stroke="#62597E" stroke-width="0.25"/>
<path d="M836.58 1038.65L836.55 1032.34" stroke="#62597E" stroke-width="0.25"/>
<path d="M835.65 1038.66L835.62 1032.35" stroke="#62597E" stroke-width="0.25"/>
<path d="M833.77 1032.36L833.8 1038.67" stroke="#62597E" stroke-width="0.25"/>
<path d="M834.72 1038.66L834.69 1032.35" stroke="#62597E" stroke-width="0.25"/>
<path d="M832.84 1032.36L832.87 1038.67" stroke="#62597E" stroke-width="0.25"/>
<path d="M836.61 1044.97L836.58 1038.65" stroke="#62597E" stroke-width="0.25"/>
<path d="M835.68 1044.97L835.65 1038.66" stroke="#62597E" stroke-width="0.25"/>
<path d="M833.8 1038.67L833.83 1044.98" stroke="#62597E" stroke-width="0.25"/>
<path d="M834.75 1044.98L834.72 1038.66" stroke="#62597E" stroke-width="0.25"/>
<path d="M832.87 1038.67L832.9 1044.98" stroke="#62597E" stroke-width="0.25"/>
<path d="M836.63 1051.28L836.61 1044.97" stroke="#62597E" stroke-width="0.25"/>
<path d="M835.7 1051.29L835.68 1044.97" stroke="#62597E" stroke-width="0.25"/>
<path d="M833.83 1044.98L833.85 1051.29" stroke="#62597E" stroke-width="0.25"/>
<path d="M834.77 1051.29L834.75 1044.98" stroke="#62597E" stroke-width="0.25"/>
<path d="M832.9 1044.98L832.92 1051.29" stroke="#62597E" stroke-width="0.25"/>
<path d="M836.63 1057.61V1051.28" stroke="#62597E" stroke-width="0.25"/>
<path d="M835.71 1057.61L835.7 1051.29" stroke="#62597E" stroke-width="0.25"/>
<path d="M833.85 1051.29V1057.6" stroke="#62597E" stroke-width="0.25"/>
<path d="M834.78 1057.61L834.77 1051.29" stroke="#62597E" stroke-width="0.25"/>
<path d="M832.92 1051.29L832.93 1057.6" stroke="#62597E" stroke-width="0.25"/>
<path d="M836.6 1063.94L836.63 1057.61" stroke="#62597E" stroke-width="0.25"/>
<path d="M835.68 1063.93L835.71 1057.61" stroke="#62597E" stroke-width="0.25"/>
<path d="M833.85 1057.6L833.82 1063.92" stroke="#62597E" stroke-width="0.25"/>
<path d="M834.75 1063.92L834.78 1057.61" stroke="#62597E" stroke-width="0.25"/>
<path d="M832.93 1057.6L832.9 1063.91" stroke="#62597E" stroke-width="0.25"/>
<path d="M836.53 1070.27L836.6 1063.94" stroke="#62597E" stroke-width="0.25"/>
<path d="M835.6 1070.26L835.68 1063.93" stroke="#62597E" stroke-width="0.25"/>
<path d="M833.82 1063.92L833.75 1070.23" stroke="#62597E" stroke-width="0.25"/>
<path d="M834.68 1070.24L834.75 1063.92" stroke="#62597E" stroke-width="0.25"/>
<path d="M832.9 1063.91L832.82 1070.22" stroke="#62597E" stroke-width="0.25"/>
<path d="M836.42 1076.6L836.53 1070.27" stroke="#62597E" stroke-width="0.25"/>
<path d="M835.49 1076.58L835.6 1070.26" stroke="#62597E" stroke-width="0.25"/>
<path d="M833.75 1070.23L833.64 1076.54" stroke="#62597E" stroke-width="0.25"/>
<path d="M834.56 1076.56L834.68 1070.24" stroke="#62597E" stroke-width="0.25"/>
<path d="M832.82 1070.22L832.71 1076.52" stroke="#62597E" stroke-width="0.25"/>
<path d="M836.27 1082.92L836.42 1076.6" stroke="#62597E" stroke-width="0.25"/>
<path d="M835.34 1082.9L835.49 1076.58" stroke="#62597E" stroke-width="0.25"/>
<path d="M833.64 1076.54L833.49 1082.85" stroke="#62597E" stroke-width="0.25"/>
<path d="M834.42 1082.88L834.56 1076.56" stroke="#62597E" stroke-width="0.25"/>
<path d="M832.71 1076.52L832.57 1082.83" stroke="#62597E" stroke-width="0.25"/>
<path d="M836.11 1089.24L836.27 1082.92" stroke="#62597E" stroke-width="0.25"/>
<path d="M835.19 1089.22L835.34 1082.9" stroke="#62597E" stroke-width="0.25"/>
<path d="M833.49 1082.85L833.34 1089.16" stroke="#62597E" stroke-width="0.25"/>
<path d="M834.26 1089.19L834.42 1082.88" stroke="#62597E" stroke-width="0.25"/>
<path d="M832.57 1082.83L832.41 1089.14" stroke="#62597E" stroke-width="0.25"/>
<path d="M835.92 1095.56L836.11 1089.24" stroke="#62597E" stroke-width="0.25"/>
<path d="M835 1095.53L835.19 1089.22" stroke="#62597E" stroke-width="0.25"/>
<path d="M833.34 1089.16L833.14 1095.47" stroke="#62597E" stroke-width="0.25"/>
<path d="M834.07 1095.5L834.26 1089.19" stroke="#62597E" stroke-width="0.25"/>
<path d="M832.41 1089.14L832.22 1095.44" stroke="#62597E" stroke-width="0.25"/>
<path d="M835.7 1101.89L835.92 1095.56" stroke="#62597E" stroke-width="0.25"/>
<path d="M834.77 1101.85L835 1095.53" stroke="#62597E" stroke-width="0.25"/>
<path d="M833.14 1095.47L832.92 1101.78" stroke="#62597E" stroke-width="0.25"/>
<path d="M833.85 1101.82L834.07 1095.5" stroke="#62597E" stroke-width="0.25"/>
<path d="M832.22 1095.44L832 1101.75" stroke="#62597E" stroke-width="0.25"/>
<path d="M835.45 1108.21L835.7 1101.89" stroke="#62597E" stroke-width="0.25"/>
<path d="M834.53 1108.17L834.77 1101.85" stroke="#62597E" stroke-width="0.25"/>
<path d="M832.92 1101.78L832.68 1108.09" stroke="#62597E" stroke-width="0.25"/>
<path d="M833.6 1108.13L833.85 1101.82" stroke="#62597E" stroke-width="0.25"/>
<path d="M832 1101.75L831.75 1108.05" stroke="#62597E" stroke-width="0.25"/>
<path d="M835.17 1114.53L835.45 1108.21" stroke="#62597E" stroke-width="0.25"/>
<path d="M834.24 1114.49L834.53 1108.17" stroke="#62597E" stroke-width="0.25"/>
<path d="M832.68 1108.09L832.39 1114.4" stroke="#62597E" stroke-width="0.25"/>
<path d="M833.32 1114.44L833.6 1108.13" stroke="#62597E" stroke-width="0.25"/>
<path d="M831.75 1108.05L831.47 1114.35" stroke="#62597E" stroke-width="0.25"/>
<path d="M834.85 1120.85L835.17 1114.53" stroke="#62597E" stroke-width="0.25"/>
<path d="M833.92 1120.8L834.24 1114.49" stroke="#62597E" stroke-width="0.25"/>
<path d="M832.39 1114.4L832.07 1120.7" stroke="#62597E" stroke-width="0.25"/>
<path d="M833 1120.75L833.32 1114.44" stroke="#62597E" stroke-width="0.25"/>
<path d="M831.47 1114.35L831.15 1120.65" stroke="#62597E" stroke-width="0.25"/>
<path d="M834.5 1127.17L834.85 1120.85" stroke="#62597E" stroke-width="0.25"/>
<path d="M833.57 1127.11L833.92 1120.8" stroke="#62597E" stroke-width="0.25"/>
<path d="M832.07 1120.7L831.72 1127.01" stroke="#62597E" stroke-width="0.25"/>
<path d="M832.65 1127.06L833 1120.75" stroke="#62597E" stroke-width="0.25"/>
<path d="M831.15 1120.65L830.8 1126.95" stroke="#62597E" stroke-width="0.25"/>
<path d="M834.11 1133.48L834.5 1127.17" stroke="#62597E" stroke-width="0.25"/>
<path d="M833.19 1133.42L833.57 1127.11" stroke="#62597E" stroke-width="0.25"/>
<path d="M831.72 1127.01L831.34 1133.31" stroke="#62597E" stroke-width="0.25"/>
<path d="M832.26 1133.37L832.65 1127.06" stroke="#62597E" stroke-width="0.25"/>
<path d="M830.8 1126.95L830.42 1133.25" stroke="#62597E" stroke-width="0.25"/>
<path d="M833.71 1139.79L834.11 1133.48" stroke="#62597E" stroke-width="0.25"/>
<path d="M832.78 1139.73L833.19 1133.42" stroke="#62597E" stroke-width="0.25"/>
<path d="M831.34 1133.31L830.94 1139.61" stroke="#62597E" stroke-width="0.25"/>
<path d="M831.86 1139.67L832.26 1133.37" stroke="#62597E" stroke-width="0.25"/>
<path d="M830.42 1133.25L830.01 1139.55" stroke="#62597E" stroke-width="0.25"/>
<path d="M833.29 1146.09L833.71 1139.79" stroke="#62597E" stroke-width="0.25"/>
<path d="M832.37 1146.03L832.78 1139.73" stroke="#62597E" stroke-width="0.25"/>
<path d="M830.94 1139.61L830.52 1145.9" stroke="#62597E" stroke-width="0.25"/>
<path d="M831.45 1145.96L831.86 1139.67" stroke="#62597E" stroke-width="0.25"/>
<path d="M830.01 1139.55L829.6 1145.84" stroke="#62597E" stroke-width="0.25"/>
<path d="M832.89 1152.38L833.29 1146.09" stroke="#62597E" stroke-width="0.25"/>
<path d="M831.96 1152.32L832.37 1146.03" stroke="#62597E" stroke-width="0.25"/>
<path d="M830.52 1145.9L830.11 1152.2" stroke="#62597E" stroke-width="0.25"/>
<path d="M831.04 1152.26L831.45 1145.97" stroke="#62597E" stroke-width="0.25"/>
<path d="M829.6 1145.84L829.19 1152.14" stroke="#62597E" stroke-width="0.25"/>
<path d="M832.51 1158.65L832.89 1152.38" stroke="#62597E" stroke-width="0.25"/>
<path d="M831.59 1158.6L831.96 1152.32" stroke="#62597E" stroke-width="0.25"/>
<path d="M830.11 1152.2L829.74 1158.5" stroke="#62597E" stroke-width="0.25"/>
<path d="M830.66 1158.55L831.04 1152.26" stroke="#62597E" stroke-width="0.25"/>
<path d="M829.19 1152.14L828.81 1158.45" stroke="#62597E" stroke-width="0.25"/>
<path d="M832.19 1164.93L832.51 1158.65" stroke="#62597E" stroke-width="0.25"/>
<path d="M831.26 1164.88L831.59 1158.6" stroke="#62597E" stroke-width="0.25"/>
<path d="M829.74 1158.5L829.41 1164.8" stroke="#62597E" stroke-width="0.25"/>
<path d="M830.34 1164.84L830.66 1158.55" stroke="#62597E" stroke-width="0.25"/>
<path d="M828.81 1158.45L828.49 1164.75" stroke="#62597E" stroke-width="0.25"/>
<path d="M831.94 1171.19L832.19 1164.93" stroke="#62597E" stroke-width="0.25"/>
<path d="M831.01 1171.16L831.26 1164.88" stroke="#62597E" stroke-width="0.25"/>
<path d="M829.41 1164.8L829.16 1171.1" stroke="#62597E" stroke-width="0.25"/>
<path d="M830.08 1171.13L830.34 1164.84" stroke="#62597E" stroke-width="0.25"/>
<path d="M828.49 1164.75L828.23 1171.07" stroke="#62597E" stroke-width="0.25"/>
<path d="M831.76 1177.46L831.94 1171.19" stroke="#62597E" stroke-width="0.25"/>
<path d="M830.84 1177.44L831.01 1171.16" stroke="#62597E" stroke-width="0.25"/>
<path d="M829.16 1171.1L828.98 1177.4" stroke="#62597E" stroke-width="0.25"/>
<path d="M829.91 1177.42L830.08 1171.13" stroke="#62597E" stroke-width="0.25"/>
<path d="M828.23 1171.07L828.06 1177.38" stroke="#62597E" stroke-width="0.25"/>
<path d="M831.66 1183.73L831.76 1177.46" stroke="#62597E" stroke-width="0.25"/>
<path d="M830.74 1183.73L830.84 1177.44" stroke="#62597E" stroke-width="0.25"/>
<path d="M828.98 1177.4L828.88 1183.71" stroke="#62597E" stroke-width="0.25"/>
<path d="M829.81 1183.72L829.91 1177.42" stroke="#62597E" stroke-width="0.25"/>
<path d="M828.06 1177.38L827.96 1183.7" stroke="#62597E" stroke-width="0.25"/>
<path d="M831.63 1190.01L831.66 1183.74" stroke="#62597E" stroke-width="0.25"/>
<path d="M830.71 1190.01L830.74 1183.73" stroke="#62597E" stroke-width="0.25"/>
<path d="M828.88 1183.71L828.86 1190.01" stroke="#62597E" stroke-width="0.25"/>
<path d="M829.78 1190.01L829.81 1183.72" stroke="#62597E" stroke-width="0.25"/>
<path d="M827.96 1183.7L827.93 1190.02" stroke="#62597E" stroke-width="0.25"/>
<path d="M831.68 1196.29L831.63 1190.01" stroke="#62597E" stroke-width="0.25"/>
<path d="M830.76 1196.3L830.71 1190.01" stroke="#62597E" stroke-width="0.25"/>
<path d="M828.86 1190.02L828.9 1196.32" stroke="#62597E" stroke-width="0.25"/>
<path d="M829.83 1196.31L829.78 1190.01" stroke="#62597E" stroke-width="0.25"/>
<path d="M827.93 1190.02L827.98 1196.33" stroke="#62597E" stroke-width="0.25"/>
<path d="M831.79 1202.56C831.74 1200.47 831.7 1198.38 831.68 1196.28" stroke="#62597E" stroke-width="0.25"/>
<path d="M830.86 1202.59C830.81 1200.5 830.77 1198.4 830.75 1196.3" stroke="#62597E" stroke-width="0.25"/>
<path d="M828.9 1196.32C828.92 1198.42 828.96 1200.52 829.01 1202.63" stroke="#62597E" stroke-width="0.25"/>
<path d="M829.94 1202.61C829.89 1200.51 829.85 1198.41 829.83 1196.31" stroke="#62597E" stroke-width="0.25"/>
<path d="M827.98 1196.33C828 1198.44 828.04 1200.54 828.09 1202.65" stroke="#62597E" stroke-width="0.25"/>
<path d="M831.97 1208.84L831.79 1202.57" stroke="#62597E" stroke-width="0.25"/>
<path d="M831.04 1208.87L830.86 1202.59" stroke="#62597E" stroke-width="0.25"/>
<path d="M829.01 1202.63L829.19 1208.93" stroke="#62597E" stroke-width="0.25"/>
<path d="M830.11 1208.9L829.94 1202.61" stroke="#62597E" stroke-width="0.25"/>
<path d="M828.09 1202.65L828.26 1208.96" stroke="#62597E" stroke-width="0.25"/>
<path d="M832.21 1215.11C832.13 1213.02 832.03 1210.93 831.97 1208.84" stroke="#62597E" stroke-width="0.25"/>
<path d="M831.28 1215.15C831.2 1213.06 831.1 1210.96 831.04 1208.87" stroke="#62597E" stroke-width="0.25"/>
<path d="M829.19 1208.93C829.25 1211.03 829.35 1213.13 829.43 1215.23" stroke="#62597E" stroke-width="0.25"/>
<path d="M830.36 1215.19C830.28 1213.09 830.17 1211 830.12 1208.9" stroke="#62597E" stroke-width="0.25"/>
<path d="M828.26 1208.96C828.32 1211.06 828.42 1213.17 828.5 1215.27" stroke="#62597E" stroke-width="0.25"/>
<path d="M832.51 1221.38L832.21 1215.11" stroke="#62597E" stroke-width="0.25"/>
<path d="M831.59 1221.43L831.28 1215.15" stroke="#62597E" stroke-width="0.25"/>
<path d="M829.43 1215.23L829.74 1221.53" stroke="#62597E" stroke-width="0.25"/>
<path d="M830.66 1221.48L830.36 1215.19" stroke="#62597E" stroke-width="0.25"/>
<path d="M828.5 1215.28L828.81 1221.58" stroke="#62597E" stroke-width="0.25"/>
<path d="M832.89 1227.65L832.51 1221.38" stroke="#62597E" stroke-width="0.25"/>
<path d="M831.96 1227.71L831.59 1221.43" stroke="#62597E" stroke-width="0.25"/>
<path d="M829.74 1221.53L830.11 1227.83" stroke="#62597E" stroke-width="0.25"/>
<path d="M831.04 1227.77L830.66 1221.48" stroke="#62597E" stroke-width="0.25"/>
<path d="M828.81 1221.58L829.19 1227.89" stroke="#62597E" stroke-width="0.25"/>
<path d="M833.32 1233.91L832.89 1227.65" stroke="#62597E" stroke-width="0.25"/>
<path d="M832.4 1233.98L831.96 1227.71" stroke="#62597E" stroke-width="0.25"/>
<path d="M830.11 1227.83L830.55 1234.12" stroke="#62597E" stroke-width="0.25"/>
<path d="M831.47 1234.05L831.04 1227.77" stroke="#62597E" stroke-width="0.25"/>
<path d="M829.19 1227.89L829.63 1234.19" stroke="#62597E" stroke-width="0.25"/>
<path d="M833.82 1240.17C833.65 1238.08 833.46 1236 833.32 1233.91" stroke="#62597E" stroke-width="0.25"/>
<path d="M832.9 1240.25C832.73 1238.16 832.54 1236.07 832.4 1233.98" stroke="#62597E" stroke-width="0.25"/>
<path d="M830.55 1234.12C830.69 1236.22 830.89 1238.31 831.05 1240.41" stroke="#62597E" stroke-width="0.25"/>
<path d="M831.98 1240.33C831.81 1238.24 831.62 1236.15 831.48 1234.05" stroke="#62597E" stroke-width="0.25"/>
<path d="M829.63 1234.19C829.77 1236.29 829.97 1238.39 830.13 1240.49" stroke="#62597E" stroke-width="0.25"/>
<path d="M834.39 1246.43C834.2 1244.35 833.99 1242.26 833.82 1240.18" stroke="#62597E" stroke-width="0.25"/>
<path d="M833.47 1246.51C833.28 1244.42 833.07 1242.34 832.9 1240.25" stroke="#62597E" stroke-width="0.25"/>
<path d="M831.06 1240.41C831.22 1242.51 831.43 1244.6 831.63 1246.69" stroke="#62597E" stroke-width="0.25"/>
<path d="M832.54 1246.6C832.35 1244.51 832.14 1242.42 831.97 1240.33" stroke="#62597E" stroke-width="0.25"/>
<path d="M830.13 1240.49C830.29 1242.59 830.5 1244.68 830.7 1246.78" stroke="#62597E" stroke-width="0.25"/>
<path d="M835.02 1252.68C834.8 1250.6 834.58 1248.52 834.39 1246.43" stroke="#62597E" stroke-width="0.25"/>
<path d="M834.1 1252.77C833.87 1250.69 833.66 1248.6 833.47 1246.51" stroke="#62597E" stroke-width="0.25"/>
<path d="M831.62 1246.69C831.81 1248.78 832.02 1250.88 832.25 1252.97" stroke="#62597E" stroke-width="0.25"/>
<path d="M833.17 1252.87C832.94 1250.78 832.73 1248.69 832.54 1246.6" stroke="#62597E" stroke-width="0.25"/>
<path d="M830.7 1246.78C830.89 1248.88 831.1 1250.97 831.33 1253.06" stroke="#62597E" stroke-width="0.25"/>
<path d="M835.7 1258.92C835.45 1256.84 835.23 1254.76 835.01 1252.68" stroke="#62597E" stroke-width="0.25"/>
<path d="M834.78 1259.02C834.53 1256.94 834.31 1254.85 834.09 1252.77" stroke="#62597E" stroke-width="0.25"/>
<path d="M832.25 1252.97C832.47 1255.06 832.68 1257.15 832.94 1259.24" stroke="#62597E" stroke-width="0.25"/>
<path d="M833.86 1259.13C833.61 1257.05 833.39 1254.96 833.17 1252.87" stroke="#62597E" stroke-width="0.25"/>
<path d="M831.33 1253.06C831.55 1255.15 831.77 1257.25 832.02 1259.34" stroke="#62597E" stroke-width="0.25"/>
<path d="M836.45 1265.15L835.7 1258.92" stroke="#62597E" stroke-width="0.25"/>
<path d="M835.53 1265.27L834.78 1259.02" stroke="#62597E" stroke-width="0.25"/>
<path d="M832.94 1259.24L833.69 1265.5" stroke="#62597E" stroke-width="0.25"/>
<path d="M834.61 1265.38L833.86 1259.13" stroke="#62597E" stroke-width="0.25"/>
<path d="M832.02 1259.34L832.77 1265.61" stroke="#62597E" stroke-width="0.25"/>
<path d="M837.26 1271.38L836.45 1265.15" stroke="#62597E" stroke-width="0.25"/>
<path d="M836.34 1271.5L835.53 1265.27" stroke="#62597E" stroke-width="0.25"/>
<path d="M833.69 1265.5L834.5 1271.75" stroke="#62597E" stroke-width="0.25"/>
<path d="M835.42 1271.63L834.61 1265.38" stroke="#62597E" stroke-width="0.25"/>
<path d="M832.77 1265.61L833.58 1271.88" stroke="#62597E" stroke-width="0.25"/>
<path d="M838.13 1277.6L837.26 1271.38" stroke="#62597E" stroke-width="0.25"/>
<path d="M837.22 1277.73L836.34 1271.51" stroke="#62597E" stroke-width="0.25"/>
<path d="M834.5 1271.75L835.38 1278" stroke="#62597E" stroke-width="0.25"/>
<path d="M836.3 1277.87L835.42 1271.63" stroke="#62597E" stroke-width="0.25"/>
<path d="M833.58 1271.88L834.47 1278.13" stroke="#62597E" stroke-width="0.25"/>
<path d="M839.07 1283.81C838.75 1281.74 838.42 1279.67 838.14 1277.6" stroke="#62597E" stroke-width="0.25"/>
<path d="M838.15 1283.95C837.83 1281.88 837.5 1279.81 837.22 1277.73" stroke="#62597E" stroke-width="0.25"/>
<path d="M835.38 1278C835.66 1280.08 836 1282.16 836.32 1284.24" stroke="#62597E" stroke-width="0.25"/>
<path d="M837.24 1284.09C836.92 1282.01 836.59 1279.94 836.3 1277.86" stroke="#62597E" stroke-width="0.25"/>
<path d="M834.47 1278.13C834.75 1280.22 835.09 1282.29 835.41 1284.38" stroke="#62597E" stroke-width="0.25"/>
<path d="M840.05 1290.01C839.69 1287.95 839.38 1285.88 839.06 1283.81" stroke="#62597E" stroke-width="0.25"/>
<path d="M839.14 1290.16C838.78 1288.09 838.47 1286.02 838.15 1283.95" stroke="#62597E" stroke-width="0.25"/>
<path d="M836.32 1284.24C836.64 1286.32 836.95 1288.4 837.31 1290.47" stroke="#62597E" stroke-width="0.25"/>
<path d="M838.23 1290.31C837.87 1288.24 837.56 1286.16 837.24 1284.09" stroke="#62597E" stroke-width="0.25"/>
<path d="M835.41 1284.38C835.73 1286.46 836.04 1288.54 836.4 1290.62" stroke="#62597E" stroke-width="0.25"/>
<path d="M841.09 1296.21L840.05 1290.01" stroke="#62597E" stroke-width="0.25"/>
<path d="M840.18 1296.37L839.14 1290.16" stroke="#62597E" stroke-width="0.25"/>
<path d="M837.31 1290.46L838.36 1296.68" stroke="#62597E" stroke-width="0.25"/>
<path d="M839.27 1296.53L838.23 1290.31" stroke="#62597E" stroke-width="0.25"/>
<path d="M836.4 1290.61L837.44 1296.84" stroke="#62597E" stroke-width="0.25"/>
<path d="M747.84 860.01C741.07 845.44 739.33 838.38 738.64 811.81C738.18 794.16 741.14 771.25 750.06 771.04C755.97 770.9 763.37 778.23 776.06 796.36C785.04 809.18 809.44 834.13 831.51 835.08C867.39 836.63 873.38 829.03 886.58 812.96C908.85 785.87 920.8 768.39 929.75 770.96C936.07 772.78 936.95 785.98 937.99 801.73C938.73 812.87 939.42 814.95 935.59 835.41C931.43 857.61 924.01 867.07 911.57 878.36C903.28 885.89 875.02 905.5 834.91 905.98C794.04 906.47 763.04 892.7 747.84 860.01Z" fill="url(#paint4_radial_87_17260)" stroke="#010101" stroke-width="4" stroke-miterlimit="10"/>
<path d="M756.19 789.36C758.25 796.03 762.44 806.32 771.33 816.85C782.51 830.09 795.59 837.15 803.03 840.53" stroke="#010101" stroke-width="4" stroke-miterlimit="10"/>
<path d="M916.3 798.3C913.42 804.72 907.96 814.53 897.82 824.1C885.06 836.14 871.17 841.85 863.35 844.47" stroke="#010101" stroke-width="4" stroke-miterlimit="10"/>
<path d="M835.79 833.19C834.15 872.11 834.73 890.14 834.93 909.12" stroke="#232323" stroke-width="7" stroke-miterlimit="10"/>
<path d="M836.95 839.91L837.17 833.59" stroke="#62597E" stroke-width="0.25"/>
<path d="M836.02 839.87L836.25 833.56" stroke="#62597E" stroke-width="0.25"/>
<path d="M834.4 833.49L834.17 839.81" stroke="#62597E" stroke-width="0.25"/>
<path d="M835.1 839.84L835.32 833.52" stroke="#62597E" stroke-width="0.25"/>
<path d="M833.47 833.46L833.25 839.78" stroke="#62597E" stroke-width="0.25"/>
<path d="M836.75 846.2L836.95 839.9" stroke="#62597E" stroke-width="0.25"/>
<path d="M835.82 846.18L836.02 839.86" stroke="#62597E" stroke-width="0.25"/>
<path d="M834.17 839.8L833.97 846.12" stroke="#62597E" stroke-width="0.25"/>
<path d="M834.9 846.15L835.1 839.83" stroke="#62597E" stroke-width="0.25"/>
<path d="M833.25 839.77L833.04 846.09" stroke="#62597E" stroke-width="0.25"/>
<path d="M836.57 852.51L836.75 846.2" stroke="#62597E" stroke-width="0.25"/>
<path d="M835.64 852.49L835.82 846.18" stroke="#62597E" stroke-width="0.25"/>
<path d="M833.97 846.12L833.79 852.44" stroke="#62597E" stroke-width="0.25"/>
<path d="M834.72 852.46L834.9 846.15" stroke="#62597E" stroke-width="0.25"/>
<path d="M833.04 846.09L832.87 852.41" stroke="#62597E" stroke-width="0.25"/>
<path d="M836.42 858.82L836.57 852.51" stroke="#62597E" stroke-width="0.25"/>
<path d="M835.5 858.8L835.64 852.49" stroke="#62597E" stroke-width="0.25"/>
<path d="M833.79 852.44L833.64 858.76" stroke="#62597E" stroke-width="0.25"/>
<path d="M834.57 858.78L834.72 852.46" stroke="#62597E" stroke-width="0.25"/>
<path d="M832.87 852.41L832.72 858.74" stroke="#62597E" stroke-width="0.25"/>
<path d="M836.31 865.12L836.42 858.82" stroke="#62597E" stroke-width="0.25"/>
<path d="M835.38 865.11L835.5 858.8" stroke="#62597E" stroke-width="0.25"/>
<path d="M833.64 858.76L833.53 865.08" stroke="#62597E" stroke-width="0.25"/>
<path d="M834.45 865.09L834.57 858.78" stroke="#62597E" stroke-width="0.25"/>
<path d="M832.72 858.74L832.6 865.06" stroke="#62597E" stroke-width="0.25"/>
<path d="M836.23 871.42L836.31 865.12" stroke="#62597E" stroke-width="0.25"/>
<path d="M835.3 871.42L835.38 865.11" stroke="#62597E" stroke-width="0.25"/>
<path d="M833.53 865.08L833.45 871.4" stroke="#62597E" stroke-width="0.25"/>
<path d="M834.38 871.41L834.45 865.09" stroke="#62597E" stroke-width="0.25"/>
<path d="M832.6 865.06L832.52 871.39" stroke="#62597E" stroke-width="0.25"/>
<path d="M836.18 877.73L836.23 871.43" stroke="#62597E" stroke-width="0.25"/>
<path d="M835.26 877.72L835.3 871.42" stroke="#62597E" stroke-width="0.25"/>
<path d="M833.45 871.4L833.41 877.72" stroke="#62597E" stroke-width="0.25"/>
<path d="M834.33 877.72L834.38 871.41" stroke="#62597E" stroke-width="0.25"/>
<path d="M832.52 871.39L832.48 877.71" stroke="#62597E" stroke-width="0.25"/>
<path d="M836.18 884.03V877.73" stroke="#62597E" stroke-width="0.25"/>
<path d="M835.25 884.03L835.26 877.73" stroke="#62597E" stroke-width="0.25"/>
<path d="M833.41 877.72L833.4 884.04" stroke="#62597E" stroke-width="0.25"/>
<path d="M834.33 884.04V877.72" stroke="#62597E" stroke-width="0.25"/>
<path d="M832.48 877.71L832.47 884.04" stroke="#62597E" stroke-width="0.25"/>
<path d="M836.21 890.34L836.18 884.03" stroke="#62597E" stroke-width="0.25"/>
<path d="M835.28 890.35L835.25 884.03" stroke="#62597E" stroke-width="0.25"/>
<path d="M833.4 884.04L833.43 890.36" stroke="#62597E" stroke-width="0.25"/>
<path d="M834.36 890.35L834.33 884.04" stroke="#62597E" stroke-width="0.25"/>
<path d="M832.47 884.04L832.5 890.37" stroke="#62597E" stroke-width="0.25"/>
<path d="M836.27 896.65L836.21 890.34" stroke="#62597E" stroke-width="0.25"/>
<path d="M835.34 896.66L835.28 890.35" stroke="#62597E" stroke-width="0.25"/>
<path d="M833.43 890.36L833.49 896.68" stroke="#62597E" stroke-width="0.25"/>
<path d="M834.42 896.67L834.36 890.35" stroke="#62597E" stroke-width="0.25"/>
<path d="M832.5 890.37L832.56 896.69" stroke="#62597E" stroke-width="0.25"/>
<path d="M836.34 902.97L836.27 896.65" stroke="#62597E" stroke-width="0.25"/>
<path d="M835.41 902.98L835.34 896.66" stroke="#62597E" stroke-width="0.25"/>
<path d="M833.49 896.68L833.56 903" stroke="#62597E" stroke-width="0.25"/>
<path d="M834.49 902.99L834.42 896.67" stroke="#62597E" stroke-width="0.25"/>
<path d="M832.56 896.69L832.64 903.01" stroke="#62597E" stroke-width="0.25"/>
<path d="M836.41 909.3L836.34 902.97" stroke="#62597E" stroke-width="0.25"/>
<path d="M835.48 909.31L835.41 902.98" stroke="#62597E" stroke-width="0.25"/>
<path d="M833.56 903L833.63 909.33" stroke="#62597E" stroke-width="0.25"/>
<path d="M834.56 909.32L834.49 902.99" stroke="#62597E" stroke-width="0.25"/>
<path d="M832.64 903.01L832.7 909.33" stroke="#62597E" stroke-width="0.25"/>
<path d="M837.34 842.92C837.67 838.87 838.89 837.23 837.89 835.38C837.32 834.32 836.26 833.62 835.21 833.48C835.14 833.47 833.46 833.28 832.26 834.59C830.87 836.11 831.67 837.93 830.86 841.4C829.92 845.42 828.13 845.95 828.52 847.67C829.21 850.68 835.51 852.46 837.29 850.16C838.27 848.88 836.96 847.55 837.34 842.92ZM835.56 847.89C834.62 849.15 831.09 848.04 830.79 846.32C830.7 845.79 830.93 845.3 831.37 844.35C831.85 843.31 832.15 842.67 832.8 842.36C833.68 841.94 834.86 842.31 835.41 843.18C835.7 843.64 835.72 844.2 835.77 845.31C835.84 846.75 835.87 847.48 835.56 847.89ZM836.12 839.24C835.51 839.85 834.68 839.57 834.27 839.44C833.89 839.31 833.37 839.06 833.15 838.35C832.91 837.59 833.23 836.88 833.32 836.76C833.87 835.94 834.78 835.97 834.94 835.98C835.14 835.99 835.96 836.04 836.4 836.83C836.81 837.58 836.68 838.67 836.12 839.24Z" fill="#342F28" stroke="#010101" stroke-miterlimit="10"/>
<defs>
<radialGradient id="paint0_radial_87_17260" cx="0" cy="0" r="1" gradientUnits="userSpaceOnUse" gradientTransform="translate(829.977 1059.76) scale(297.42 265.844)">
<stop stop-color="#B2C8DE"/>
<stop offset="0.2999" stop-color="#AFC6DC"/>
<stop offset="0.5503" stop-color="#A6BFD5"/>
<stop offset="0.782" stop-color="#97B3CA"/>
<stop offset="1" stop-color="#83A4BC"/>
</radialGradient>
<radialGradient id="paint1_radial_87_17260" cx="0" cy="0" r="1" gradientUnits="userSpaceOnUse" gradientTransform="translate(836.602 909.095) scale(178.215 159.295)">
<stop stop-color="#4B5A6F"/>
<stop offset="0.227" stop-color="#48576A"/>
<stop offset="0.5584" stop-color="#3F4C5E"/>
<stop offset="0.9522" stop-color="#303C4B"/>
<stop offset="1" stop-color="#2E3A49"/>
</radialGradient>
<radialGradient id="paint2_radial_87_17260" cx="0" cy="0" r="1" gradientUnits="userSpaceOnUse" gradientTransform="translate(643.49 1201.38) scale(35.9576 32.1402)">
<stop stop-color="#4B5A6F"/>
<stop offset="0.227" stop-color="#48576A"/>
<stop offset="0.5584" stop-color="#3F4C5E"/>
<stop offset="0.9522" stop-color="#303C4B"/>
<stop offset="1" stop-color="#2E3A49"/>
</radialGradient>
<radialGradient id="paint3_radial_87_17260" cx="0" cy="0" r="1" gradientUnits="userSpaceOnUse" gradientTransform="translate(1022.91 1186.75) scale(37.8429 33.8253)">
<stop stop-color="#4B5A6F"/>
<stop offset="0.227" stop-color="#48576A"/>
<stop offset="0.5584" stop-color="#3F4C5E"/>
<stop offset="0.9522" stop-color="#303C4B"/>
<stop offset="1" stop-color="#2E3A49"/>
</radialGradient>
<radialGradient id="paint4_radial_87_17260" cx="0" cy="0" r="1" gradientUnits="userSpaceOnUse" gradientTransform="translate(838.563 838.335) scale(88.6691 79.2555)">
<stop stop-color="#4B5A6F"/>
<stop offset="0.227" stop-color="#48576A"/>
<stop offset="0.5584" stop-color="#3F4C5E"/>
<stop offset="0.9522" stop-color="#303C4B"/>
<stop offset="1" stop-color="#2E3A49"/>
</radialGradient>
</defs>
</svg>
