<svg width="1660" height="1660" viewBox="0 0 1660 1660" fill="none" xmlns="http://www.w3.org/2000/svg">
<path d="M896.28 664.93C888.57 653.15 887.75 647.21 880.89 643.01C873.51 638.5 863.9 638.69 857.73 641.4C847.46 645.91 844.42 652.55 837.5 656.75C834.7 658.45 833.55 659.41 822.91 658.2C800.06 655.6 799.19 658.59 795.55 660.58C789 664.15 783.62 675.32 773.74 683.2C765.79 689.54 756.4 692.39 752.49 693.41C751.6 693.64 751.26 693.72 751.26 693.72C749.43 694.13 748.85 694.03 748.75 694.27C748.45 695 753.09 697.56 753.42 697.74C760.12 701.46 763.79 707.65 767.31 712.64C774.15 722.36 777.86 727.17 784.81 732.36C803.53 746.35 819.34 751.1 835.16 749.95C860.73 748.09 870.57 744.02 883.41 729.82C891.78 720.56 894.16 716.59 899.95 700.85C905.36 686.14 909.7 690.75 910.18 685.65C910.8 679.07 909.62 685.31 896.28 664.93ZM868.53 696.99C865.15 698.5 859.87 700.33 846.97 700.79C843.68 700.91 835.22 701.11 810.33 697.99C795.89 696.18 793.74 695.49 793.7 694.66C793.6 692.62 806.57 693.35 823.78 685.99C841.77 678.29 849.08 674.58 849.08 674.58C852.83 672.68 857.86 670.01 863.25 671.53C864.69 671.94 865.29 672.4 871.2 676.59C880.54 683.21 881.45 683.75 881.63 685.15C882.38 690.69 869.94 696.36 868.53 696.99Z" fill="url(#paint0_radial_87_19312)" stroke="#010101" stroke-width="4" stroke-miterlimit="10"/>
<path d="M871.21 676.59C865.3 672.4 864.7 671.94 863.26 671.53C857.88 670.01 852.84 672.67 849.09 674.58C849.09 674.58 841.78 678.3 823.79 685.99C806.58 693.35 793.62 692.62 793.71 694.66C793.75 695.49 795.91 696.18 810.34 697.99C835.23 701.11 843.68 700.91 846.98 700.79C859.88 700.32 865.16 698.49 868.54 696.99C869.94 696.36 882.38 690.69 881.65 685.15C881.46 683.76 880.55 683.21 871.21 676.59Z" fill="#E0E1DF" stroke="#010101" stroke-width="4" stroke-miterlimit="10"/>
<path d="M794.97 693.73C793.65 694.05 791.52 694.54 788.87 694.98C785.87 695.48 779.86 696.3 764.87 695.83C761.8 695.73 757.5 695.55 752.33 695.2" fill="url(#paint1_radial_87_19312)"/>
<path d="M794.97 693.73C793.65 694.05 791.52 694.54 788.87 694.98C785.87 695.48 779.86 696.3 764.87 695.83C761.8 695.73 757.5 695.55 752.33 695.2" stroke="#010101" stroke-width="4" stroke-miterlimit="10"/>
<path d="M880.72 683.63C883.27 685.23 888.96 685.8 893.65 685.7C899.02 685.59 906.33 684.68 909.7 683.74" fill="url(#paint2_radial_87_19312)"/>
<path d="M880.72 683.63C883.27 685.23 888.96 685.8 893.65 685.7C899.02 685.59 906.33 684.68 909.7 683.74" stroke="#010101" stroke-width="4" stroke-miterlimit="10"/>
<path d="M804.11 697.18C793.59 694.83 758.94 697.72 754.56 697.18Z" fill="url(#paint3_radial_87_19312)"/>
<path d="M804.11 697.18C793.59 694.83 758.94 697.72 754.56 697.18" stroke="#010101" stroke-width="4" stroke-miterlimit="10"/>
<path d="M911.26 686.79C907.12 685.97 886.68 682.91 878.13 691.21" stroke="#010101" stroke-width="4" stroke-miterlimit="10"/>
<path d="M829.35 685.36C833.34 683.51 839.8 680.79 854.3 674.28C855.15 673.9 857.37 673.26 860.14 673.03L862.03 673.27C863.57 673.61 865.75 675.22 866.13 675.48C867.94 676.71 870.83 679.24 879.57 685.22C860.08 686.53 840.82 687.83 821.34 689.14C824.9 687.52 827.53 686.2 829.35 685.36Z" fill="#CACBC9"/>
<defs>
<radialGradient id="paint0_radial_87_19312" cx="0" cy="0" r="1" gradientUnits="userSpaceOnUse" gradientTransform="translate(829.52 694.789) scale(69.2328)">
<stop stop-color="#07A89C"/>
<stop offset="1" stop-color="#046937"/>
</radialGradient>
<radialGradient id="paint1_radial_87_19312" cx="0" cy="0" r="1" gradientUnits="userSpaceOnUse" gradientTransform="translate(773.648 694.855) scale(15.0969 15.0971)">
<stop stop-color="#931A1E"/>
<stop offset="1" stop-color="#7F143D"/>
</radialGradient>
<radialGradient id="paint2_radial_87_19312" cx="0" cy="0" r="1" gradientUnits="userSpaceOnUse" gradientTransform="translate(895.208 684.397) scale(10.2864)">
<stop stop-color="#931A1E"/>
<stop offset="1" stop-color="#7F143D"/>
</radialGradient>
<radialGradient id="paint3_radial_87_19312" cx="0" cy="0" r="1" gradientUnits="userSpaceOnUse" gradientTransform="translate(779.333 696.615) scale(17.5235)">
<stop stop-color="#D3B0C9"/>
<stop offset="1" stop-color="#C7A3CC"/>
</radialGradient>
</defs>
</svg>
