<svg width="1660" height="1660" viewBox="0 0 1660 1660" fill="none" xmlns="http://www.w3.org/2000/svg">
<path d="M861.65 720.03C820.49 721.13 763.59 682.1 764.46 676.41C764.84 673.91 770.52 677.01 785.82 671.29C800.62 665.76 802.17 660.89 811.53 660.45C822.08 659.95 822.51 666.01 834.27 666.47C847.59 666.99 849.84 659.33 862.72 660.54C868.57 661.09 868.56 662.72 882.32 667.84C901.52 674.98 901.77 674.48 902.13 677.17C902.99 683.45 898.61 719.04 861.65 720.03Z" fill="#28181C"/>
<path d="M859.45 638.03C850.97 635.41 846.24 638.58 846.24 638.58C841.53 641.28 841.81 644.99 837.19 647.35C831.29 650.35 824.71 647.42 823.87 647.03C818.83 644.7 818.69 641.45 814.3 639.39C809.17 636.98 803.89 638.84 800.28 640.11C790.69 643.48 775.08 657.41 757.93 679.02C754.48 683.37 747.39 694.2 755.62 694.4C801.29 695.54 804.58 725.96 832.14 740.52C866.92 758.89 907.25 732.18 907.99 694.08C908.11 687.72 909.31 681.44 904.86 676.9C882.56 654.12 865 639.74 859.45 638.03ZM845.89 708.81C814.04 668.77 760.84 692.38 761.77 686.81C762.53 682.25 767.74 687.29 782.73 681.68C797.23 676.26 798.74 671.49 807.91 671.06C818.24 670.57 818.66 676.51 830.18 676.96C843.23 677.47 850.01 673.55 862.04 671.13C867.68 669.99 868.14 672.4 881.62 677.41C900.42 684.41 900.02 682.43 900.38 685.07C901.22 691.22 861.1 727.93 845.89 708.81Z" fill="url(#paint0_radial_87_19407)" stroke="#010101" stroke-width="4" stroke-miterlimit="10"/>
<path d="M890.64 683.85C889.96 682.77 893.5 682.08 886 679.01C874.02 674.11 868.81 670.96 864.34 670.89C863.73 670.88 864.19 670.91 846.85 674.94C845.25 675.31 841.88 675.97 837.37 676.33C830.58 676.86 826.93 675.57 816.43 672.59C811.75 671.26 810.61 671.21 806.58 671.24C801.61 671.28 785.55 681.89 782.73 682.48C782.72 685.14 784.46 685.02 784.48 684.96C784.66 684.52 782.69 684.69 782.73 684.47C782.9 683.42 819.64 691.67 863.85 689.1C869.37 688.79 892.62 687.02 890.64 683.85Z" fill="url(#paint1_radial_87_19407)" stroke="#010101" stroke-width="4" stroke-miterlimit="10"/>
<path d="M861.65 720.08C820.49 721.18 763.59 682.15 764.46 676.46C764.84 673.96 770.52 677.06 785.82 671.34C800.62 665.81 802.17 660.94 811.53 660.5C822.08 660 822.51 666.06 834.27 666.52C847.59 667.04 849.84 659.38 862.72 660.59C868.57 661.14 868.56 662.77 882.32 667.89C901.52 675.03 901.77 674.53 902.13 677.22C902.99 683.49 898.61 719.09 861.65 720.08Z" fill="#28181C"/>
<path d="M859.45 638.08C850.97 635.46 846.24 638.63 846.24 638.63C841.53 641.33 841.81 645.04 837.19 647.4C831.29 650.4 824.71 647.47 823.87 647.08C818.83 644.75 818.69 641.5 814.3 639.44C809.17 637.03 803.89 638.89 800.28 640.16C790.69 643.53 775.08 657.46 757.93 679.07C754.48 683.42 747.39 694.25 755.62 694.45C801.29 695.59 804.58 726.01 832.14 740.57C866.92 758.94 907.25 732.23 907.99 694.13C908.11 687.77 909.31 681.49 904.86 676.95C882.56 654.17 865 639.79 859.45 638.08ZM845.89 708.86C814.04 668.82 760.84 692.43 761.77 686.86C762.53 682.3 767.74 687.34 782.73 681.73C797.23 676.31 798.74 671.54 807.91 671.11C818.24 670.62 818.66 676.56 830.18 677.01C843.23 677.52 850.01 673.6 862.04 671.18C867.68 670.04 868.14 672.45 881.62 677.46C900.42 684.46 900.02 682.48 900.38 685.12C901.22 691.27 861.1 727.98 845.89 708.86Z" fill="url(#paint2_radial_87_19407)" stroke="#010101" stroke-width="4" stroke-miterlimit="10"/>
<path d="M890.64 683.9C889.96 682.82 893.5 682.13 886 679.06C874.02 674.16 868.81 671.01 864.34 670.94C863.73 670.93 864.19 670.96 846.85 674.99C845.25 675.36 841.88 676.02 837.37 676.38C830.58 676.91 826.93 675.62 816.43 672.64C811.75 671.31 810.61 671.26 806.58 671.29C801.61 671.33 785.55 681.94 782.73 682.53C782.72 685.19 784.46 685.07 784.48 685.01C784.66 684.57 782.69 684.74 782.73 684.52C782.9 683.47 819.64 691.72 863.85 689.15C869.37 688.84 892.62 687.07 890.64 683.9Z" fill="url(#paint3_radial_87_19407)" stroke="#010101" stroke-width="4" stroke-miterlimit="10"/>
<defs>
<radialGradient id="paint0_radial_87_19407" cx="0" cy="0" r="1" gradientUnits="userSpaceOnUse" gradientTransform="translate(830.042 691.729) scale(65.7461 71.5876)">
<stop stop-color="#931A1E"/>
<stop offset="1" stop-color="#7F143D"/>
</radialGradient>
<radialGradient id="paint1_radial_87_19407" cx="0" cy="0" r="1" gradientUnits="userSpaceOnUse" gradientTransform="translate(836.8 680.254) scale(39.7989 23.906)">
<stop offset="0.184" stop-color="#E5E5E5"/>
<stop offset="1" stop-color="#F2F2F2"/>
</radialGradient>
<radialGradient id="paint2_radial_87_19407" cx="0" cy="0" r="1" gradientUnits="userSpaceOnUse" gradientTransform="translate(830.042 691.778) scale(65.7461 71.5876)">
<stop stop-color="#D37777"/>
<stop offset="0.0266" stop-color="#D27677"/>
<stop offset="0.6194" stop-color="#BC616E"/>
<stop offset="1" stop-color="#B55A6B"/>
</radialGradient>
<radialGradient id="paint3_radial_87_19407" cx="0" cy="0" r="1" gradientUnits="userSpaceOnUse" gradientTransform="translate(836.8 680.302) scale(39.7989 23.9061)">
<stop offset="0.184" stop-color="#E5E5E5"/>
<stop offset="1" stop-color="#F2F2F2"/>
</radialGradient>
</defs>
</svg>
