<svg width="1660" height="1660" viewBox="0 0 1660 1660" fill="none" xmlns="http://www.w3.org/2000/svg">
<path d="M1008.48 597.29C1005.01 596.32 1003.28 602.03 1002.55 604.47C1001.37 608.38 1000.92 612.47 1000.38 616.5C999.74 621.26 999.01 626.03 997.57 630.62C996.9 632.76 996.18 635.13 994.76 636.9C993.44 638.55 990.87 639.71 989.06 638.09C988.34 637.45 987.28 638.5 988 639.15C990.92 641.77 994.81 639.73 996.6 636.87C997.79 634.96 998.5 632.7 999.15 630.56C999.87 628.17 1000.42 625.74 1000.85 623.29C1001.65 618.79 1002.06 614.22 1002.86 609.72C1003.22 607.73 1003.66 605.74 1004.32 603.82C1004.77 602.51 1006.16 598.2 1008.07 598.73C1009.02 598.99 1009.41 597.54 1008.48 597.29Z" fill="#2B332A"/>
<path d="M996.28 605.33C996.82 604.36 998.12 604.51 998.84 605.2C999.67 605.99 999.9 607.31 999.97 608.4C1000.04 609.4 1000 610.6 999.24 611.35C997.84 612.73 996.44 611.21 996.74 609.63C997.11 607.69 998.75 605.8 1000.12 604.48C1001.58 603.07 1003.33 601.95 1005.23 601.23C1007.11 600.52 1009.55 600 1011.36 601.2C1012.8 602.16 1013.29 604 1013.09 605.65C1012.57 609.94 1007.96 611.64 1004.26 612.19C1004.5 612.61 1004.75 613.03 1004.99 613.44C1007.87 610.85 1012.83 608.78 1015.67 612.57C1018.57 616.43 1018.13 621.52 1015.64 625.4C1013.52 628.72 1010.15 632.26 1005.87 632.01C1001.25 631.74 999.68 627.1 1001.14 623.2C1001.91 621.14 1003.53 619.21 1005.81 618.86C1006.94 618.68 1008.27 618.9 1009.15 619.68C1009.84 620.3 1010.45 621.79 1009.47 622.43C1008.66 622.95 1009.42 624.25 1010.23 623.73C1011.94 622.62 1011.73 620.21 1010.42 618.83C1008.76 617.09 1005.92 616.95 1003.84 617.92C999.35 620.03 997.51 626.98 1000.58 630.93C1004.03 635.38 1010.37 633.39 1013.78 630.08C1015.82 628.1 1017.59 625.59 1018.56 622.91C1019.63 619.95 1019.32 616.75 1018.12 613.89C1017 611.23 1014.92 609.13 1011.92 608.96C1008.94 608.79 1006.08 610.44 1003.93 612.37C1003.31 612.93 1003.99 613.72 1004.66 613.62C1008.9 612.99 1013.75 610.87 1014.53 606.15C1014.84 604.29 1014.47 602.25 1013.19 600.81C1011.75 599.19 1009.52 598.81 1007.47 599.1C1002.78 599.76 998.43 603.09 996.15 607.17C995.16 608.94 994.53 611.59 996.53 612.96C998.22 614.11 1000.37 612.91 1001.09 611.2C1001.97 609.1 1001.55 605.78 999.9 604.13C998.52 602.76 995.99 602.77 994.99 604.57C994.52 605.42 995.82 606.18 996.28 605.33Z" fill="#2B332A"/>
<path d="M1016.21 608.7C1020.77 604.92 1025.13 600.19 1025.67 594C1025.83 592.12 1025.77 588.8 1023.48 588.15C1020.99 587.44 1019.65 590.67 1019.35 592.55C1018.91 595.27 1018.96 598.16 1019 600.91C1019.04 603.85 1019.27 606.79 1019.78 609.68C1020.26 612.39 1021.02 615.04 1022.14 617.55C1022.68 618.77 1023.31 619.96 1024.03 621.08C1024.56 621.9 1025.19 623.09 1026.26 623.23C1027.5 623.39 1028.05 622.18 1028.42 621.23C1029.04 619.63 1029.5 617.91 1029.49 616.18C1029.47 613.49 1028.2 610.79 1025.69 609.61C1024.82 609.2 1024.06 610.49 1024.93 610.91C1026.89 611.84 1027.91 613.84 1027.98 615.96C1028.02 617.18 1027.78 618.38 1027.43 619.54C1027.28 620.03 1027.14 620.66 1026.87 621.09C1026.78 621.24 1026.56 621.68 1026.3 621.65C1026.13 621.63 1025.78 620.99 1025.67 620.83C1023.33 617.37 1021.96 613.37 1021.23 609.28C1020.47 605.03 1020.4 600.68 1020.56 596.38C1020.64 594.39 1020.46 591.62 1021.96 590.07C1023.24 588.75 1023.98 590.48 1024.14 591.57C1024.31 592.73 1024.24 593.94 1024.02 595.09C1023.05 600.38 1019.14 604.35 1015.15 607.64C1014.4 608.25 1015.47 609.31 1016.21 608.7Z" fill="#2B332A"/>
<path d="M1027.69 612.4C1031.46 610.4 1033.88 606.71 1033.9 602.4C1033.91 600.84 1033.5 598.26 1031.33 598.65C1029.28 599.01 1028.8 601.68 1028.63 603.35C1028.38 605.84 1028.51 608.66 1029.55 610.97C1030.33 612.72 1031.76 614.56 1033.75 614.94C1038.71 615.88 1039.43 608.27 1040.2 605.14C1041.01 601.83 1041.82 598.52 1042.64 595.21C1043.26 592.67 1044.45 589.69 1043.08 587.2C1042.83 586.74 1042.02 586.68 1041.78 587.2C1041.03 588.84 1041.29 590.45 1041.98 592.07C1042.88 594.21 1044.03 596.18 1044.71 598.43C1045.33 600.49 1045.89 602.8 1045.55 604.96C1045.25 606.87 1043.68 608.94 1041.49 608.31C1040.46 608.01 1040.03 607 1040.21 605.99C1040.43 604.8 1041.27 603.9 1042.25 603.27C1043.89 602.21 1045.81 601.68 1047.48 600.64C1050.44 598.79 1052.84 596.06 1054.38 592.93C1056.13 589.37 1056.76 585.42 1056.13 581.51C1056 580.73 1054.89 580.87 1054.68 581.51C1053.33 585.6 1055.45 589.44 1057.13 593.07C1058.55 596.15 1060.27 602.47 1055.54 603.75C1053.88 604.2 1051.82 603.52 1051.69 601.56C1051.56 599.67 1053.13 597.97 1054.69 597.15C1056.54 596.18 1058.66 595.89 1060.62 595.21C1062.26 594.65 1063.75 593.81 1065.04 592.64C1067.37 590.54 1069.87 586.46 1068.54 583.24C1068.02 581.98 1066.72 580.99 1065.32 581.08C1063.82 581.18 1062.93 582.45 1062.49 583.76C1061.26 587.39 1061.73 591.73 1063.21 595.2C1063.8 596.59 1064.67 598.14 1066.18 598.67C1067.58 599.16 1068.88 598.44 1069.67 597.28C1070.95 595.39 1071.63 592.88 1072.39 590.75C1073.23 588.4 1073.78 585.9 1074.88 583.65C1075.35 582.69 1078.48 577.71 1079.2 580.89C1079.37 581.62 1080.46 581.59 1080.65 580.89C1081.11 579.17 1079.52 577.77 1077.84 578.08C1076.05 578.41 1074.67 580.06 1074.02 581.67C1072.65 585.09 1073.82 589.68 1076.34 592.29C1077.54 593.53 1079.37 593.97 1080.73 592.71C1082.19 591.36 1082.42 589.16 1082.67 587.31C1083.38 582.09 1083.86 576.7 1082.76 571.49C1081.75 566.72 1079.24 562.23 1074.96 559.69C1074.77 560.15 1074.57 560.6 1074.38 561.06C1077.46 562.2 1079.17 565.17 1080.19 568.13C1081.32 571.4 1082 574.94 1081.96 578.4C1081.92 581.69 1081.41 585.21 1082.75 588.34C1083.74 590.66 1086.86 594.09 1089.49 591.73C1090.78 590.57 1091.08 588.55 1091.04 586.91C1090.98 584.9 1090.31 582.96 1089.16 581.32C1088.61 580.54 1087.31 581.29 1087.86 582.08C1089.2 583.99 1089.87 586.37 1089.4 588.7C1089.17 589.87 1088.51 591.3 1087.06 590.92C1086.06 590.66 1085.26 589.71 1084.72 588.88C1082.48 585.44 1083.58 580.86 1083.45 577.01C1083.34 573.42 1082.47 569.58 1081.08 566.27C1079.83 563.31 1077.87 560.76 1074.78 559.61C1073.97 559.31 1073.49 560.56 1074.2 560.98C1082.36 565.82 1082.43 576.7 1081.47 584.99C1081.25 586.91 1081.24 589.45 1080.11 591.12C1078.48 593.51 1076.45 590.15 1075.8 588.64C1075.09 586.98 1074.74 585.05 1075.11 583.26C1075.3 582.36 1075.67 581.49 1076.27 580.78C1076.59 580.4 1076.98 580.04 1077.42 579.8C1077.97 579.5 1079.55 579.27 1079.22 580.47C1079.7 580.47 1080.18 580.47 1080.67 580.47C1080.28 578.76 1078.86 577.79 1077.19 578.61C1074.86 579.76 1073.54 582.72 1072.71 585.01C1071.93 587.14 1071.35 589.32 1070.56 591.45C1070.17 592.5 1069.76 593.54 1069.34 594.57C1068.97 595.47 1068.52 596.94 1067.46 597.23C1065.45 597.77 1064.35 594.11 1063.96 592.76C1063.35 590.6 1063.18 588.3 1063.52 586.07C1063.65 585.2 1063.81 584.11 1064.31 583.36C1065.13 582.12 1066.57 582.49 1067.16 583.74C1068.02 585.57 1066.76 588.1 1065.72 589.62C1064.68 591.14 1063.23 592.4 1061.57 593.2C1059.7 594.11 1057.61 594.4 1055.67 595.1C1052.86 596.1 1049.78 598.58 1050.28 601.95C1050.71 604.86 1053.9 605.95 1056.42 605.03C1060.07 603.7 1060.71 599.29 1059.86 595.96C1058.68 591.31 1054.51 586.93 1056.17 581.88C1055.69 581.88 1055.21 581.88 1054.72 581.88C1055.39 586.03 1054.4 590.31 1052.18 593.85C1051.06 595.64 1049.62 597.25 1047.94 598.52C1046.18 599.84 1044.17 600.52 1042.25 601.54C1040.53 602.46 1039.04 603.89 1038.76 605.91C1038.54 607.5 1039.33 609.08 1040.87 609.64C1042.31 610.17 1044.02 609.74 1045.19 608.8C1046.71 607.58 1047.2 605.51 1047.19 603.64C1047.17 601.02 1046.44 598.33 1045.48 595.91C1044.58 593.64 1041.97 590.45 1043.13 587.93C1042.7 587.93 1042.27 587.93 1041.83 587.93C1042.79 589.67 1041.97 591.81 1041.53 593.6C1041.03 595.65 1040.52 597.7 1040.02 599.75C1039.52 601.8 1039.01 603.85 1038.51 605.9C1038.08 607.65 1037.78 609.51 1037.1 611.18C1036.47 612.71 1035.09 614.08 1033.36 613.2C1031.9 612.45 1030.96 610.72 1030.55 609.2C1030.01 607.21 1029.97 605.01 1030.22 602.97C1030.32 602.2 1030.47 600.78 1031.24 600.34C1032.52 599.6 1032.46 601.82 1032.44 602.56C1032.37 606.3 1030.23 609.36 1026.98 611.09C1026.08 611.56 1026.84 612.85 1027.69 612.4Z" fill="#2B332A"/>
</svg>
