<svg width="1660" height="1660" viewBox="0 0 1660 1660" fill="none" xmlns="http://www.w3.org/2000/svg">
<path d="M840.28 491.29C841.7 489.56 842.76 487.5 842.99 485.25C843.16 483.57 842.96 481.62 841.51 480.52C840.24 479.56 838.44 479.75 837.15 480.57C835.54 481.6 835.13 483.42 836.1 485.06C837.17 486.87 839.1 488 840.85 489.07C843.07 490.42 845.16 491.85 846.91 493.79C849.86 497.05 852.75 503.13 848.04 506.35C844.95 508.46 842.24 505.29 841.48 502.43C841.09 500.96 841.41 499.43 842.64 498.47C843.63 497.69 845.01 497.31 846.13 498.01C846.52 498.26 847.86 497.67 847.28 497.31C844.23 495.41 839.55 498.53 839.88 501.98C840.07 503.98 841.54 506.51 843.37 507.45C845.19 508.38 847.4 507.83 849.01 506.74C853.18 503.91 852.31 498.74 849.77 495.13C848.32 493.06 846.46 491.31 844.38 489.89C842.29 488.46 839.79 487.4 838.11 485.44C837.1 484.27 836.2 481.77 838.18 480.91C839.73 480.24 840.98 481.59 841.38 482.96C842.21 485.87 840.73 489.08 838.92 491.29C838.53 491.75 839.98 491.65 840.28 491.29Z" fill="#2B332A"/>
<path d="M844.2 481.55C845 483.94 845.96 486.28 847.1 488.53C848.01 490.33 848.95 492.66 850.91 493.53C851.18 493.65 852.2 493.49 852.31 493.16C852.75 491.78 853.01 490.37 853.07 488.93C853.08 488.76 851.64 488.92 851.62 489.32C851.56 490.72 851.31 492.09 850.88 493.43C851.35 493.31 851.81 493.18 852.28 493.06C851.33 492.64 850.66 491.9 850.12 491.03C849.51 490.04 848.97 488.99 848.45 487.95C847.36 485.76 846.43 483.49 845.65 481.17C845.55 480.86 844.11 481.28 844.2 481.55Z" fill="#2B332A"/>
<path d="M846.07 490.16C846.95 488.7 847.83 487.24 848.71 485.78C848.87 485.51 848.57 485.41 848.33 485.42C848.05 485.43 847.54 485.52 847.37 485.8C846.49 487.26 845.61 488.72 844.73 490.18C844.57 490.45 844.87 490.55 845.11 490.54C845.39 490.53 845.9 490.43 846.07 490.16Z" fill="#2B332A"/>
<path d="M854.17 480.66C852.26 479.82 850.8 481.49 850.52 483.25C850.2 485.32 851.02 487.75 852.78 488.99C854.16 489.96 855.91 488.97 856.23 487.42C856.71 485.08 855.36 482.17 854.17 480.23C853.88 479.75 852.48 480.25 852.83 480.83C853.97 482.73 856.61 486.24 859.06 484.02C860.18 483 860.39 481.08 860.52 479.67C860.68 477.81 860.46 475.98 859.89 474.21C859.7 473.63 858.29 474.01 858.44 474.6C859.66 479.51 860.91 484.41 862.11 489.33C862.63 491.48 863.11 493.72 862.71 495.94C862.52 496.98 862.16 498.04 861.54 498.9C860.41 500.46 858.54 500 857.28 498.89C853.64 495.66 856.69 490.74 859.45 488.14C861.96 485.78 866.68 482.79 865.7 478.69C865.56 478.11 864.11 478.48 864.25 479.08C865.25 483.28 859.56 486.3 857.19 488.89C855 491.28 853.12 494.83 854.8 498.02C856.15 500.57 859.72 501.98 862.1 499.91C864.98 497.4 864.47 492.87 863.7 489.57C862.5 484.44 861.16 479.34 859.88 474.22C859.4 474.35 858.91 474.48 858.43 474.61C859.2 476.99 859.3 479.46 858.71 481.89C858.61 482.32 858.52 482.99 858.19 483.32C857.33 484.17 856.69 483.33 856.14 482.78C855.37 482.02 854.72 481.17 854.16 480.24C853.71 480.44 853.27 480.64 852.82 480.84C853.55 482.02 854.11 483.28 854.44 484.63C854.61 485.33 855.33 488.29 854.19 488.35C853.23 488.4 852.27 486.08 852.08 485.38C851.97 484.98 851.71 480.87 853.02 481.44C853.53 481.64 854.83 480.95 854.17 480.66Z" fill="#2B332A"/>
<path d="M869.95 480.19C868.91 482.34 871.89 482.55 873.18 481.77C875.94 480.12 874.84 477.03 874.19 474.52C873.36 471.34 872.32 468.14 871.78 464.89C871.24 461.67 871.96 458.47 874.42 456.2C873.98 456.19 873.55 456.17 873.11 456.16C873.11 459.12 873.33 462.07 873.88 464.99C874.14 466.39 874.47 467.78 874.87 469.15C875.17 470.18 875.49 471.3 876.21 472.14C877.36 473.47 879.55 473.64 880.74 472.25C882.2 470.54 881.72 467.21 881.31 465.21C881.21 464.7 879.75 465.06 879.86 465.6C880.1 466.76 880.22 467.93 880.17 469.12C880.14 469.91 880.16 471.18 879.65 471.85C878.04 473.96 876.54 469.55 876.26 468.55C875.09 464.47 874.56 460.23 874.57 455.99C874.57 455.39 873.51 455.72 873.26 455.95C869.95 459 869.74 463.14 870.77 467.29C871.38 469.76 872.05 472.22 872.69 474.68C873 475.87 873.45 477.11 873.58 478.34C873.66 479.11 873.56 479.84 873.13 480.5C872.82 481.05 872.34 481.33 871.66 481.36C871.19 481.09 871.08 480.72 871.32 480.23C871.61 479.6 870.16 479.75 869.95 480.19Z" fill="#2B332A"/>
<path d="M871.38 473.33C872.76 471 874.14 468.66 875.53 466.33C875.69 466.07 875.02 466.09 874.93 466.1C874.62 466.15 874.26 466.27 874.09 466.55C872.71 468.88 871.33 471.22 869.94 473.55C869.78 473.81 870.45 473.79 870.54 473.78C870.85 473.73 871.21 473.61 871.38 473.33Z" fill="#2B332A"/>
<path d="M880.81 465.43C881 464.61 881.37 463.87 881.9 463.22C882.05 463.04 882.25 462.88 882.39 462.69C882.62 462.54 882.59 462.51 882.3 462.6C882.03 462.57 881.99 462.63 882.16 462.79C882.25 463.23 882.49 463.69 882.64 464.11C882.97 465.02 883.29 465.94 883.62 466.85C883.79 467.33 883.96 467.8 884.13 468.28C884.24 468.58 884.31 468.94 884.61 469.11C885.11 469.41 885.92 469.12 886.36 468.83C887 468.4 887.06 467.77 887.08 467.06C887.14 465.01 887.2 462.95 887.26 460.89C886.78 461.02 886.29 461.15 885.81 461.28C885.99 462.18 886.22 463.07 886.52 463.94C886.78 464.7 887.06 465.54 887.51 466.2C888.33 467.41 890.23 467.02 890.9 465.83C891.25 465.2 891.25 464.45 891.24 463.74C891.23 462.8 891.1 461.86 891.04 460.92C890.92 459.1 891.17 457.31 892.28 455.82C892.63 455.35 891.2 455.5 890.95 455.84C890.15 456.92 889.7 458.17 889.6 459.51C889.48 460.94 889.73 462.35 889.79 463.78C889.82 464.44 889.86 465.18 889.59 465.8C889.45 466.12 889.43 466.25 889.15 466C888.89 465.76 888.75 465.44 888.61 465.13C887.99 463.77 887.56 462.35 887.27 460.88C887.18 460.43 885.83 460.82 885.82 461.27C885.76 463.24 885.7 465.21 885.65 467.18C885.64 467.44 885.65 467.72 885.61 467.98C885.59 468.11 885.35 468.53 885.36 468.57C885.5 468.51 885.64 468.45 885.78 468.39C885.74 468.3 885.71 468.21 885.68 468.13C885.59 467.89 885.51 467.65 885.43 467.42C885.1 466.51 884.78 465.59 884.45 464.68C884.18 463.93 884 462.95 883.57 462.28C883.21 461.72 882.4 461.87 881.89 462.12C880.62 462.73 879.69 464.31 879.4 465.64C879.27 466.1 880.71 465.88 880.81 465.43Z" fill="#2B332A"/>
<path d="M897.1 452.7C895.08 453.59 893.31 455.04 892.3 457.04C891.35 458.92 891.17 461.82 892.99 463.29C894.32 464.36 896.05 463.12 896.65 461.85C897.8 459.43 897.99 456.28 897.84 453.65C897.36 453.78 896.87 453.91 896.39 454.04C896.54 455.49 896.73 457.32 898.2 458.05C899.28 458.59 900.65 458.42 901.7 457.87C904.66 456.32 905.26 451.42 904.43 448.54C904.31 448.14 903.07 448.53 902.99 448.85C902.57 450.44 902.48 452.11 903.07 453.67C903.47 454.73 904.13 455.99 905.43 455.89C908.24 455.68 909.81 451.81 910.24 449.5C909.76 449.6 909.28 449.71 908.8 449.81C908.72 457.55 907.97 465.33 904.55 472.38C902.93 475.71 900.79 478.83 898.12 481.41C896.12 483.34 891.37 486.89 888.97 483.67C887.11 481.17 888.37 477.02 889.4 474.43C890.63 471.33 892.53 468.51 894.83 466.11C897.28 463.55 900.31 461.26 903.67 460.06C905.24 459.49 907.17 459.08 908.77 459.76C910.42 460.47 910.92 462.21 910.78 463.87C910.47 467.75 907.96 472.21 904.85 474.51C903.2 475.73 900.59 476.86 898.72 475.44C897.2 474.29 897.23 472.24 898.09 470.72C898.24 470.45 896.88 470.55 896.65 470.95C895.84 472.37 895.75 474.13 896.84 475.45C897.86 476.69 899.54 476.91 901.05 476.71C905.01 476.18 908.1 473.26 910 469.91C911.53 467.23 914.14 461.46 910.4 459.36C907.45 457.7 903.23 459.37 900.54 460.81C893.73 464.44 887.56 471.61 886.73 479.51C886.56 481.18 886.63 483.15 887.83 484.45C888.87 485.58 890.5 485.76 891.95 485.54C895.76 484.97 898.96 482.17 901.37 479.34C908.51 470.93 910.17 460.13 910.28 449.44C910.28 449.1 908.9 449.4 908.84 449.75C908.63 450.88 907.09 455.84 905.45 454.88C904.75 454.47 904.38 452.89 904.25 452.15C904.04 450.97 904.17 449.79 904.47 448.64C903.99 448.74 903.51 448.85 903.03 448.95C903.7 451.28 903.34 453.81 902.24 455.96C901.56 457.28 900.14 458.4 898.89 457.02C898.09 456.15 898 454.78 897.89 453.67C897.85 453.31 896.42 453.61 896.44 454.06C896.55 455.96 896.39 457.85 895.97 459.71C895.79 460.5 895.61 461.37 895.26 462.1C894.66 463.33 894.13 462.78 893.6 461.75C891.87 458.43 894.65 454.48 897.69 453.15C898.57 452.72 897.69 452.44 897.1 452.7Z" fill="#2B332A"/>
</svg>
