<svg width="1660" height="1660" viewBox="0 0 1660 1660" fill="none" xmlns="http://www.w3.org/2000/svg">
<g opacity="0.7">
<path opacity="0.7" d="M1106.31 589.69C1112.15 582.83 1115.05 573.57 1114.18 564.61C1113.97 562.47 1113.56 560.27 1114.1 558.19C1114.71 555.85 1116.42 553.99 1117.67 551.93C1120.93 546.58 1121.01 539.44 1117.87 534.02C1111.3 538.61 1109.09 547.16 1107.34 554.98C1105.09 546.42 1091.64 545.93 1087.96 537.88C1089.61 547.82 1094.47 557.19 1101.64 564.27C1098.52 566.02 1095.42 568.22 1093.9 571.46C1091.32 576.96 1094.04 583.36 1096.73 588.81C1097.03 589.42 1097.37 590.06 1097.96 590.39C1098.57 590.71 1099.3 590.63 1099.98 590.53C1102.23 590.19 1104.46 589.74 1106.66 589.19" fill="#2B332A"/>
</g>
<g opacity="0.7">
<g opacity="0.7">
<g opacity="0.7">
<path opacity="0.7" d="M1024.06 596.18C1024.05 595.18 1023.14 594.51 1022.24 594.3C1020.95 594 1019.54 594.43 1018.44 595.1C1017.51 595.66 1016.55 596.47 1016.11 597.48C1015.66 598.51 1016.12 599.47 1016.87 600.21C1018.42 601.73 1020.34 603.02 1020.87 605.27C1021.08 606.15 1021.05 607.13 1020.66 607.96C1020.51 608.28 1020.29 608.63 1019.99 608.84C1019.94 608.88 1020.02 608.88 1020.04 608.87C1019.92 608.92 1019.75 608.89 1019.62 608.87C1018.68 608.74 1017.93 607.94 1017.73 607.04C1017.54 606.2 1017.75 604.97 1018.52 604.45C1018.92 604.18 1019.37 603.69 1018.78 603.35C1018.23 603.04 1017.21 603.31 1016.73 603.63C1015.07 604.73 1014.1 606.9 1015.22 608.75C1016.4 610.69 1019.19 610.83 1021.09 610.01C1023.14 609.12 1024.17 607.05 1023.83 604.87C1023.48 602.63 1021.68 600.94 1020.05 599.53C1019.57 599.12 1018.97 598.65 1018.84 598C1018.72 597.41 1019.06 596.91 1019.46 596.51C1019.67 596.31 1019.9 596.12 1020.14 595.96C1020.24 595.89 1020.38 595.85 1020.47 595.78C1020.59 595.68 1020.26 595.74 1020.35 595.82C1020.5 595.95 1020.72 595.99 1020.87 596.16C1021.09 596.4 1021.14 596.65 1021.15 596.97C1021.17 597.82 1024.07 597.28 1024.06 596.18Z" fill="#232620"/>
</g>
</g>
<g opacity="0.7">
<g opacity="0.7">
<path opacity="0.7" d="M1025.55 604.85C1026.51 603.74 1027.48 602.58 1028.08 601.22C1028.55 600.16 1029.03 598.42 1028.3 597.36C1027.35 595.98 1025.02 597.08 1024.09 597.95C1023.2 598.78 1022.68 600 1022.65 601.22C1022.62 602.82 1023.24 604.32 1023.94 605.73C1024.62 607.1 1025.67 607.83 1027.26 607.4C1028.78 606.99 1029.6 605.66 1030.36 604.39C1031.13 603.1 1031.77 601.74 1032.29 600.33C1033.46 597.16 1033.9 593.8 1033.67 590.44C1033.63 589.86 1032.53 589.92 1032.2 589.99C1031.65 590.1 1030.92 590.39 1030.76 590.99C1029.86 594.52 1029.91 598.29 1030.96 601.78C1031.18 602.51 1031.4 603.42 1031.86 604.05C1032.42 604.81 1033.4 604.83 1034.23 604.58C1035.3 604.25 1035.72 603.46 1036.24 602.54C1036.74 601.65 1037.25 600.75 1037.75 599.86C1038.09 599.26 1037.46 598.93 1036.93 598.9C1036.3 598.86 1035.36 599.12 1035.03 599.72C1034.65 600.39 1034.27 601.06 1033.9 601.73C1033.6 602.27 1033.31 603.09 1032.84 603.48C1033.16 603.31 1033.48 603.14 1033.8 602.97C1034.74 602.65 1034.79 603.35 1034.47 602.71C1034.35 602.47 1034.26 602.18 1034.17 601.93C1033.98 601.41 1033.82 600.88 1033.68 600.34C1033.41 599.31 1033.23 598.26 1033.13 597.2C1032.93 595.01 1033.14 592.81 1033.68 590.68C1032.71 590.86 1031.74 591.05 1030.78 591.23C1031.07 595.44 1030.14 599.75 1028.11 603.46C1027.88 603.89 1027.63 604.31 1027.37 604.72C1027.23 604.94 1027.08 605.17 1026.93 605.39C1026.85 605.5 1026.55 605.78 1026.52 605.92C1027.44 606.03 1027.74 605.98 1027.41 605.76C1027.32 605.71 1027.25 605.64 1027.2 605.55C1027.06 605.38 1026.95 605.18 1026.85 604.98C1026.59 604.47 1026.35 603.94 1026.14 603.4C1025.75 602.41 1025.45 601.34 1025.62 600.27C1025.68 599.88 1025.79 599.51 1025.98 599.17C1026.07 599.01 1026.17 598.85 1026.29 598.71C1026.78 598.19 1026.6 598.78 1025.86 598.56C1025.7 598.47 1025.55 598.39 1025.39 598.3C1026.13 598.97 1025.55 600.7 1025.19 601.44C1024.67 602.48 1023.94 603.4 1023.18 604.28C1022.05 605.58 1024.84 605.67 1025.55 604.85Z" fill="#232620"/>
</g>
</g>
<g opacity="0.7">
<g opacity="0.7">
<path opacity="0.7" d="M1041.53 590.66C1041.68 589.55 1041.78 588.29 1041.08 587.33C1040.43 586.44 1039.25 586.06 1038.19 586.23C1035.09 586.74 1035.86 590.15 1036.02 592.39C1036.49 598.86 1036.96 605.34 1037.43 611.81C1037.54 613.36 1040.47 612.94 1040.37 611.61C1040.03 606.95 1039.69 602.3 1039.36 597.64C1039.19 595.35 1039.03 593.06 1038.86 590.77C1038.82 590.2 1038.75 589.62 1038.74 589.05C1038.74 588.92 1038.84 588.16 1038.82 588.15C1038.17 588.23 1038.04 588.39 1038.43 588.63C1038.56 588.84 1038.65 589.06 1038.67 589.31C1038.76 589.81 1038.65 590.37 1038.58 590.87C1038.38 592.37 1041.35 592.01 1041.53 590.66Z" fill="#232620"/>
</g>
</g>
<g opacity="0.7">
<g opacity="0.7">
<path opacity="0.7" d="M1037.56 600.15C1037.57 600.07 1037.58 600 1037.59 599.92C1037.6 599.89 1037.61 599.86 1037.62 599.83C1037.57 599.95 1037.56 599.98 1037.59 599.92C1037.6 599.89 1037.62 599.87 1037.64 599.84C1037.71 599.75 1037.69 599.77 1037.57 599.92C1037.58 599.91 1037.6 599.89 1037.61 599.88C1037.71 599.79 1037.67 599.82 1037.5 599.96C1037.55 599.93 1037.62 599.89 1037.66 599.85C1037.43 600.05 1037.42 599.97 1037.58 599.9C1037.65 599.87 1037.71 599.84 1037.78 599.82C1038.04 599.71 1037.43 599.93 1037.68 599.86C1038.43 599.65 1039.18 599.51 1039.9 599.22C1041.54 598.56 1042.85 597.26 1043.47 595.6C1043.56 595.37 1043.33 595.12 1043.16 595.02C1042.89 594.87 1042.49 594.85 1042.2 594.88C1041.54 594.97 1040.81 595.25 1040.57 595.92C1040.53 596.02 1040.53 596.03 1040.57 595.93C1040.55 595.97 1040.54 596.01 1040.52 596.05C1040.48 596.13 1040.45 596.21 1040.41 596.28C1040.32 596.44 1040.23 596.6 1040.12 596.76C1040.07 596.83 1040.02 596.9 1039.97 596.97C1039.8 597.2 1040.13 596.81 1039.93 597.01C1039.81 597.13 1039.69 597.26 1039.57 597.38C1039.54 597.41 1039.26 597.62 1039.44 597.5C1039.61 597.38 1039.36 597.55 1039.33 597.58C1039.25 597.64 1039.16 597.69 1039.08 597.74C1038.98 597.8 1038.75 597.87 1039.1 597.73C1038.94 597.79 1038.78 597.87 1038.63 597.94C1039.03 597.75 1038.8 597.88 1038.68 597.92C1038.59 597.95 1038.5 597.97 1038.41 597.99C1037.7 598.16 1036.98 598.31 1036.33 598.63C1035.58 598.99 1034.74 599.59 1034.68 600.5C1034.63 601.16 1035.45 601.28 1035.96 601.21C1036.34 601.16 1036.74 601.05 1037.05 600.83C1037.24 600.66 1037.55 600.43 1037.56 600.15Z" fill="#232620"/>
</g>
</g>
<g opacity="0.7">
<g opacity="0.7">
<path opacity="0.7" d="M1049.09 595.23C1050.13 594.38 1051.16 593.53 1052.2 592.68C1052.33 592.57 1052.57 592.38 1052.52 592.17C1052.47 591.97 1052.15 591.9 1051.99 591.89C1051.63 591.86 1051.26 591.9 1050.92 592C1050.58 592.1 1050.21 592.21 1049.94 592.44C1048.9 593.29 1047.87 594.14 1046.83 594.99C1046.7 595.1 1046.46 595.29 1046.51 595.5C1046.56 595.7 1046.88 595.77 1047.04 595.78C1047.4 595.81 1047.77 595.77 1048.11 595.67C1048.44 595.58 1048.81 595.46 1049.09 595.23Z" fill="#232620"/>
</g>
</g>
<g opacity="0.7">
<g opacity="0.7">
<path opacity="0.7" d="M1056.57 581.7C1055.8 587.04 1056.08 592.5 1057.39 597.73C1057.64 598.73 1059.57 598.17 1060.02 597.65C1062.36 594.95 1063.73 591.54 1063.69 587.94C1063.68 586.6 1060.93 587.16 1060.78 588.25C1060.44 590.61 1061.01 594.38 1063.75 595.13C1066.75 595.96 1068.66 593.07 1069.19 590.56C1069.69 588.23 1069.09 584.67 1066.11 584.62C1064.65 584.6 1063.21 585.39 1062.34 586.54C1061.53 587.61 1061.3 588.99 1060.57 590.11C1060.19 590.7 1060.9 591.07 1061.39 591.11C1062.07 591.16 1062.91 590.87 1063.29 590.28C1063.75 589.56 1064.02 588.77 1064.35 587.99C1064.51 587.62 1064.67 587.22 1064.92 586.89C1065.01 586.77 1065.12 586.66 1065.23 586.56C1065.39 586.42 1065.55 586.47 1065.37 586.44C1065.09 586.39 1065.66 586.82 1065.75 586.94C1065.99 587.28 1066.14 587.69 1066.26 588.08C1066.49 588.91 1066.48 589.77 1066.33 590.61C1066.19 591.41 1065.93 592.23 1065.52 592.93C1065.44 593.06 1065.35 593.18 1065.27 593.3C1065.12 593.56 1065.06 593.36 1065.24 593.43C1065.32 593.42 1065.41 593.41 1065.49 593.39C1065.45 593.37 1065.41 593.36 1065.37 593.34C1065.33 593.28 1065.04 593.11 1064.97 593.04C1063.68 591.82 1063.46 589.58 1063.7 587.93C1062.73 588.03 1061.76 588.13 1060.79 588.24C1060.82 591.44 1059.77 594.59 1057.67 597.02C1058.55 596.99 1059.42 596.97 1060.3 596.94C1059.02 591.84 1058.75 586.58 1059.49 581.38C1059.67 580.12 1056.73 580.59 1056.57 581.7Z" fill="#232620"/>
</g>
</g>
<g opacity="0.7">
<g opacity="0.7">
<path opacity="0.7" d="M1069.34 583.16C1069.25 585.34 1069.93 587.43 1071.35 589.1C1071.79 589.61 1072.77 589.46 1073.29 589.22C1075.62 588.11 1076 585.64 1075.26 583.38C1074.89 582.25 1074.29 581.1 1074.27 579.89C1074.26 579.44 1074.34 578.95 1074.51 578.54C1074.58 578.39 1074.67 578.22 1074.75 578.12C1074.78 578.08 1074.97 577.9 1074.85 578C1075.05 577.83 1074.76 578.02 1075.03 577.91C1075.49 577.73 1076.19 577.12 1075.76 576.59C1075.32 576.05 1074.35 576.26 1073.82 576.47C1071.44 577.42 1070.99 580.01 1071.68 582.23C1072.04 583.39 1072.67 584.57 1072.71 585.8C1072.72 586.21 1072.67 586.68 1072.52 587.07C1072.46 587.24 1072.35 587.45 1072.26 587.57C1072.23 587.61 1072.13 587.71 1072.07 587.77C1072.2 587.65 1071.83 587.87 1072.06 587.77C1072.71 587.81 1073.35 587.85 1074 587.89C1072.81 586.49 1072.16 584.7 1072.23 582.86C1072.32 581.52 1069.39 582.04 1069.34 583.16Z" fill="#232620"/>
</g>
</g>
<g opacity="0.7">
<g opacity="0.7">
<path opacity="0.7" d="M1079.27 584.62C1080.49 583.06 1081.16 581.12 1081.2 579.15C1081.22 578.4 1081.29 577.1 1080.53 576.65C1080.03 576.35 1079.32 576.44 1078.78 576.54C1078.03 576.68 1077.15 576.95 1076.58 577.5C1075.9 578.15 1075.81 579.19 1075.78 580.09C1075.75 581.14 1075.92 582.19 1076.29 583.18C1076.62 584.07 1077.09 584.97 1077.8 585.62C1078.59 586.34 1079.67 586.47 1080.7 586.34C1082.14 586.17 1083.64 585.61 1084.7 584.6C1085.55 583.78 1086.12 582.74 1086.66 581.71C1086.9 581.26 1085.65 581.43 1085.51 581.46C1085.13 581.53 1084.75 581.64 1084.41 581.8C1084.2 581.9 1083.92 582.02 1083.81 582.23C1083.45 582.93 1083.08 583.63 1082.61 584.26C1082.4 584.54 1082.16 584.8 1081.89 585.03C1081.79 585.12 1081.68 585.19 1081.57 585.26C1081.36 585.39 1081.45 585.33 1081.5 585.3C1081.24 585.45 1081.53 585.29 1081.61 585.27C1081.7 585.25 1081.77 585.25 1081.85 585.23C1081.62 585.28 1081.72 585.23 1081.78 585.24C1081.65 585.23 1081.53 585.21 1081.41 585.18C1081.07 585.08 1080.76 584.85 1080.5 584.61C1079.95 584.09 1079.59 583.37 1079.31 582.68C1078.74 581.27 1078.44 579.48 1078.87 577.99C1078.96 577.67 1079.11 577.46 1079.3 577.21C1079.28 577.23 1077.81 577.64 1077.8 577.64C1077.82 577.67 1077.89 577.69 1077.9 577.71C1078.02 577.85 1078.09 577.95 1078.15 578.13C1078.37 578.82 1078.35 579.65 1078.3 580.36C1078.18 582.11 1077.51 583.79 1076.43 585.17C1076.12 585.57 1077.49 585.44 1077.58 585.42C1078.14 585.28 1078.89 585.11 1079.27 584.62Z" fill="#232620"/>
</g>
</g>
</g>
</svg>
