<svg width="1660" height="1660" viewBox="0 0 1660 1660" fill="none" xmlns="http://www.w3.org/2000/svg">
<path d="M565.32 627.59C560.74 622.21 558.46 614.94 559.14 607.91C559.3 606.23 559.63 604.51 559.2 602.87C558.72 601.04 557.38 599.57 556.4 597.96C553.84 593.76 553.78 588.16 556.25 583.91C561.4 587.51 563.14 594.22 564.51 600.35C566.27 593.64 576.82 593.25 579.71 586.94C578.41 594.73 574.6 602.09 568.98 607.65C571.43 609.02 573.86 610.75 575.05 613.29C577.07 617.6 574.94 622.63 572.83 626.9C572.59 627.38 572.33 627.88 571.86 628.14C571.38 628.39 570.81 628.33 570.28 628.25C568.52 627.98 566.77 627.63 565.04 627.2" fill="#2B332A"/>
<path d="M559.45 554.95C561.04 558.45 563.04 561.75 565.37 564.81C565.5 564.98 565.97 564.97 566.13 564.97C566.51 564.96 566.91 564.86 567.26 564.73C567.59 564.6 568.44 564.22 568.09 563.77C565.82 560.8 563.9 557.59 562.35 554.19C561.97 553.34 559.15 554.28 559.45 554.95Z" fill="#2B332A"/>
<path d="M562.01 564.34C564.04 560.67 566.73 557.41 569.96 554.73C570.46 554.31 569.51 554.29 569.29 554.31C568.65 554.37 567.86 554.57 567.35 554.99C564.03 557.74 561.24 561.1 559.16 564.87C558.92 565.31 560.18 565.13 560.31 565.1C560.79 565.01 561.74 564.84 562.01 564.34Z" fill="#2B332A"/>
<path d="M570.79 558.51C572.75 561.41 574.97 564.13 577.42 566.64C577.55 566.77 578.02 566.73 578.15 566.72C578.52 566.69 578.93 566.6 579.28 566.46C579.51 566.38 580.5 566.02 580.15 565.66C577.76 563.21 575.6 560.56 573.68 557.73C573.22 557.04 570.58 558.2 570.79 558.51Z" fill="#2B332A"/>
<path d="M573.19 566.52C575.78 564.58 578.37 562.63 580.97 560.69C581.44 560.34 581.73 559.65 581.14 559.25C580.55 558.85 579.6 559.04 579.07 559.44C576.48 561.38 573.89 563.33 571.29 565.27C570.82 565.62 570.53 566.31 571.12 566.71C571.7 567.11 572.66 566.93 573.19 566.52Z" fill="#2B332A"/>
<path d="M559.64 571.76C565.27 576.61 574.03 575.65 578.81 570.09C579.26 569.57 579.05 568.92 578.43 568.68C577.76 568.42 576.84 568.69 576.38 569.23C574.65 571.24 572.22 572.57 569.56 572.77C566.73 572.98 563.99 571.91 561.86 570.08C560.89 569.24 558.37 570.67 559.64 571.76Z" fill="#2B332A"/>
<path d="M585.73 651.59C581.98 650.36 578.56 648.21 575.85 645.34C575.19 644.64 574.5 643.9 574 643.08C573.77 642.7 573.54 642.23 573.5 641.77C573.48 641.52 573.51 641.23 573.66 641.03C573.72 640.94 573.79 640.93 573.68 640.98C574.21 640.74 575.16 641.13 575.66 641.28C576.78 641.63 577.84 642.1 578.86 642.66C579.68 643.11 581.2 642.72 581.45 641.74C581.9 640 581.72 637.34 583.28 636.12C584.66 635.04 585.76 638.77 585.96 639.64C587 644.12 585.04 648.49 582.74 652.22C582.37 652.83 583.07 653.24 583.59 653.3C584.28 653.37 585.11 653.06 585.49 652.45C588.38 647.76 590.71 641.75 587.97 636.44C587.39 635.32 586.64 634.33 585.36 634.02C584.09 633.72 582.68 634.11 581.61 634.83C579.11 636.51 579.21 639.38 578.54 642.01C579.4 641.7 580.27 641.4 581.13 641.09C578.9 639.86 576.04 638.55 573.43 639.14C572.26 639.4 571.11 640.1 570.72 641.28C570.32 642.47 570.9 643.68 571.58 644.65C574.53 648.8 579.24 651.82 584.03 653.39C584.69 653.6 585.62 653.36 586.08 652.84C586.51 652.35 586.36 651.79 585.73 651.59Z" fill="#2B332A"/>
</svg>
