<svg width="1660" height="1660" viewBox="0 0 1660 1660" fill="none" xmlns="http://www.w3.org/2000/svg">
<path d="M757.71 808.86C749.1 811.33 693.02 829.28 665.83 873.63C580.19 1013.29 582.61 1219.45 589.62 1256.75C590.87 1263.38 575.92 1289.86 589.75 1298.59C605.42 1308.49 619.28 1305.37 638.94 1307.27C648.77 1308.22 642.35 1293.42 652.17 1275.99C664.17 1254.71 681.73 1229.83 683.45 1238.7C684.97 1246.51 672.37 1296.97 696.68 1301.26C782.85 1316.46 868.88 1297.07 964.95 1304.87C969.88 1305.27 967.76 1254.38 976.98 1244.72C982.63 1238.8 1005.02 1274.78 1018.15 1309C1020.79 1315.88 1072.08 1297.85 1074.42 1296.45C1079.7 1293.28 1070.96 1263.09 1073.22 1260.36C1075.47 1244.38 1073.6 1211.22 1073.74 1183.82C1073.95 1143.01 1073.35 1114.47 1051.57 1029.38C1030.14 945.65 1013.93 904.93 990.49 870.34C983.23 859.62 967.93 846.93 957.37 839.44C879.97 784.52 894.61 811.15 866.52 822.11C836.33 833.89 828.92 830.08 815.33 827.5C813.05 827.07 802.58 824.08 800.37 823.38C770.04 813.71 777.1 803.3 757.71 808.86Z" fill="url(#paint0_radial_87_326)" stroke="#010101" stroke-width="4" stroke-miterlimit="10"/>
<path d="M589.62 1256.75C597.92 1257.11 608.23 1258.26 619.75 1261.25C632.6 1264.58 643.1 1269.19 650.99 1273.36" fill="url(#paint1_linear_87_326)"/>
<path d="M589.62 1256.75C597.92 1257.11 608.23 1258.26 619.75 1261.25C632.6 1264.58 643.1 1269.19 650.99 1273.36" stroke="#010101" stroke-width="4" stroke-miterlimit="10"/>
<path d="M683.41 1263.99C736.25 1263.65 789.11 1263.39 841.97 1263.21C885.03 1263.06 928.08 1262.97 971.13 1262.92" fill="url(#paint2_linear_87_326)"/>
<path d="M683.41 1263.99C736.25 1263.65 789.11 1263.39 841.97 1263.21C885.03 1263.06 928.08 1262.97 971.13 1262.92" stroke="#010101" stroke-width="4" stroke-miterlimit="10"/>
<path d="M1004.04 1274.14C1013.86 1270.51 1025.1 1266.97 1037.63 1263.99C1050.69 1260.88 1062.78 1258.96 1073.55 1257.78" fill="url(#paint3_linear_87_326)"/>
<path d="M1004.04 1274.14C1013.86 1270.51 1025.1 1266.97 1037.63 1263.99C1050.69 1260.88 1062.78 1258.96 1073.55 1257.78" stroke="#010101" stroke-width="4" stroke-miterlimit="10"/>
<path d="M675.22 886.77C675.96 901.7 676.85 924.97 676.74 953.48C676.51 1010.76 672.46 1037.35 671.69 1075.78C671.1 1104.96 674.38 1190.87 683.42 1244.14" stroke="#010101" stroke-width="4" stroke-miterlimit="10"/>
<path d="M982.49 909.51C982.63 950.49 983.45 983.63 984.14 1005.58C986.06 1067.07 988.56 1093.55 986.53 1137.43C985.03 1169.93 974.33 1241.67 972.01 1257.78" stroke="#010101" stroke-width="4" stroke-miterlimit="10"/>
<path d="M752.977 896.074V908.304H751.381V896.074H752.977ZM756.908 896.074V897.401H747.458V896.074H756.908ZM760.462 896.074V908.304H758.84V896.074H760.462ZM765.031 896.074V908.304H763.41V896.074H765.031ZM772.415 896.074L767.333 901.778L764.477 904.743L764.208 903.012L766.358 900.644L770.466 896.074H772.415ZM770.852 908.304L766.325 902.34L767.291 901.055L772.784 908.304H770.852ZM784.998 905.213C784.998 904.928 784.953 904.676 784.864 904.457C784.78 904.233 784.629 904.032 784.41 903.852C784.197 903.673 783.901 903.502 783.52 903.34C783.145 903.178 782.669 903.012 782.092 902.844C781.487 902.665 780.941 902.466 780.454 902.248C779.967 902.024 779.549 901.769 779.202 901.484C778.855 901.198 778.589 900.87 778.404 900.501C778.219 900.131 778.127 899.708 778.127 899.232C778.127 898.756 778.225 898.317 778.421 897.914C778.617 897.51 778.897 897.16 779.261 896.864C779.631 896.561 780.07 896.326 780.58 896.158C781.089 895.99 781.658 895.906 782.285 895.906C783.203 895.906 783.982 896.082 784.62 896.435C785.264 896.782 785.754 897.239 786.09 897.804C786.426 898.364 786.594 898.964 786.594 899.602H784.981C784.981 899.143 784.883 898.737 784.687 898.384C784.491 898.026 784.195 897.746 783.797 897.544C783.399 897.337 782.895 897.233 782.285 897.233C781.708 897.233 781.232 897.32 780.857 897.494C780.482 897.667 780.202 897.902 780.017 898.199C779.838 898.496 779.748 898.835 779.748 899.216C779.748 899.473 779.801 899.708 779.908 899.921C780.02 900.128 780.191 900.322 780.42 900.501C780.655 900.68 780.952 900.845 781.311 900.996C781.675 901.148 782.109 901.293 782.613 901.433C783.307 901.629 783.906 901.848 784.41 902.088C784.914 902.329 785.329 902.601 785.653 902.903C785.984 903.2 786.227 903.539 786.384 903.92C786.547 904.295 786.628 904.72 786.628 905.196C786.628 905.695 786.527 906.146 786.325 906.549C786.124 906.952 785.835 907.296 785.46 907.582C785.085 907.868 784.634 908.089 784.108 908.246C783.587 908.397 783.005 908.472 782.361 908.472C781.795 908.472 781.238 908.394 780.689 908.237C780.146 908.08 779.65 907.845 779.202 907.532C778.76 907.218 778.404 906.832 778.135 906.372C777.872 905.908 777.741 905.37 777.741 904.76H779.353C779.353 905.18 779.435 905.541 779.597 905.843C779.759 906.14 779.981 906.386 780.261 906.582C780.546 906.778 780.868 906.924 781.227 907.019C781.591 907.109 781.969 907.154 782.361 907.154C782.926 907.154 783.405 907.075 783.797 906.918C784.189 906.762 784.486 906.538 784.687 906.246C784.895 905.955 784.998 905.611 784.998 905.213ZM793.222 897.158L789.173 908.304H787.518L792.18 896.074H793.247L793.222 897.158ZM796.615 908.304L792.558 897.158L792.533 896.074H793.6L798.279 908.304H796.615ZM796.405 903.777V905.104H789.534V903.777H796.405ZM809.325 896.074V908.304H807.695L801.538 898.871V908.304H799.917V896.074H801.538L807.72 905.532V896.074H809.325ZM815.507 908.304H812.954L812.97 906.986H815.507C816.381 906.986 817.109 906.804 817.691 906.44C818.274 906.07 818.71 905.555 819.002 904.894C819.298 904.228 819.447 903.449 819.447 902.559V901.811C819.447 901.111 819.363 900.49 819.195 899.946C819.027 899.398 818.78 898.936 818.456 898.56C818.131 898.18 817.733 897.891 817.263 897.695C816.798 897.499 816.263 897.401 815.658 897.401H812.903V896.074H815.658C816.459 896.074 817.19 896.208 817.851 896.477C818.512 896.74 819.08 897.124 819.556 897.628C820.038 898.126 820.407 898.731 820.665 899.442C820.922 900.148 821.051 900.943 821.051 901.828V902.559C821.051 903.444 820.922 904.242 820.665 904.953C820.407 905.658 820.035 906.26 819.548 906.759C819.066 907.257 818.484 907.641 817.8 907.91C817.123 908.173 816.358 908.304 815.507 908.304ZM813.819 896.074V908.304H812.198V896.074H813.819ZM831.257 906.986V908.304H824.781V906.986H831.257ZM825.108 896.074V908.304H823.487V896.074H825.108ZM830.4 901.332V902.651H824.781V901.332H830.4ZM831.173 896.074V897.401H824.781V896.074H831.173ZM833.265 896.074H837.314C838.232 896.074 839.008 896.214 839.64 896.494C840.279 896.774 840.763 897.188 841.094 897.737C841.43 898.28 841.598 898.95 841.598 899.745C841.598 900.305 841.483 900.817 841.253 901.282C841.029 901.741 840.704 902.133 840.279 902.458C839.859 902.777 839.355 903.015 838.767 903.172L838.313 903.348H834.508L834.491 902.03H837.364C837.946 902.03 838.431 901.929 838.817 901.727C839.204 901.52 839.495 901.243 839.691 900.896C839.887 900.548 839.985 900.165 839.985 899.745C839.985 899.274 839.892 898.863 839.708 898.51C839.523 898.157 839.232 897.886 838.834 897.695C838.442 897.499 837.935 897.401 837.314 897.401H834.886V908.304H833.265V896.074ZM840.413 908.304L837.44 902.76L839.128 902.752L842.144 908.204V908.304H840.413Z" fill="#010101"/>
<path d="M922.34 903.413H913.812V912.424H911.878V903.413H903.35V901.479H911.878V892.467H913.812V901.479H922.34V903.413Z" fill="#404040"/>
<defs>
<radialGradient id="paint0_radial_87_326" cx="0" cy="0" r="1" gradientUnits="userSpaceOnUse" gradientTransform="translate(830 1058.26) scale(249.251)">
<stop offset="0.1876" stop-color="#F2F2F2"/>
<stop offset="1" stop-color="white"/>
</radialGradient>
<linearGradient id="paint1_linear_87_326" x1="589.619" y1="1265.06" x2="650.996" y2="1265.06" gradientUnits="userSpaceOnUse">
<stop offset="0.1876" stop-color="#F2F2F2"/>
<stop offset="0.5409" stop-color="#DBCFC2"/>
<stop offset="0.8389" stop-color="#CBB9A3"/>
<stop offset="1" stop-color="#C6B199"/>
</linearGradient>
<linearGradient id="paint2_linear_87_326" x1="683.41" y1="1263.46" x2="971.125" y2="1263.46" gradientUnits="userSpaceOnUse">
<stop offset="0.1876" stop-color="#F2F2F2"/>
<stop offset="0.5409" stop-color="#DBCFC2"/>
<stop offset="0.8389" stop-color="#CBB9A3"/>
<stop offset="1" stop-color="#C6B199"/>
</linearGradient>
<linearGradient id="paint3_linear_87_326" x1="1004.04" y1="1265.96" x2="1073.54" y2="1265.96" gradientUnits="userSpaceOnUse">
<stop offset="0.1876" stop-color="#F2F2F2"/>
<stop offset="0.5409" stop-color="#DBCFC2"/>
<stop offset="0.8389" stop-color="#CBB9A3"/>
<stop offset="1" stop-color="#C6B199"/>
</linearGradient>
</defs>
</svg>
