<svg width="1660" height="1660" viewBox="0 0 1660 1660" fill="none" xmlns="http://www.w3.org/2000/svg">
<path d="M778.81 809.2C759.47 887.43 690.35 904.3 653.68 902.93C601.32 900.98 560.68 890.84 511.68 821.71" stroke="black" stroke-width="14" stroke-miterlimit="10"/>
<path d="M1416.19 619.85C1401.93 640.44 1379.19 653.51 1354.28 656.4C1108.82 684.785 865.22 727.444 624.72 784.16C556.23 800.32 485.57 808.78 420.1 826.5C416.25 821.38 412.95 819.18 410.47 803.75C408.23 789.75 410.56 783.75 412.34 777.75L1323.8 497.79C1349.28 490.11 1377.1 494.3 1398.6 509.99C1413.1 520.374 1423.67 535.349 1428.6 552.49C1435 575.5 1429.81 600.19 1416.19 619.85Z" fill="url(#paint0_linear_1_11948)" stroke="black" stroke-width="4" stroke-miterlimit="10"/>
<path d="M410.14 837.46C398.33 844.05 376.47 833.24 372.34 809.46C368.83 789.23 384 771.11 398 771.06C403.145 771.217 408.074 773.162 411.94 776.56C411.03 784.13 407.94 787.71 410.06 802.56C412.14 816.95 415.74 819.56 419.69 825.31C418.68 830.29 413.9 835.37 410.14 837.46Z" fill="#E4B377" stroke="black" stroke-width="4" stroke-miterlimit="10"/>
<path d="M624.67 784C590.603 790.507 556.123 797.37 521.23 804.59C486.997 811.67 453.27 818.92 420.05 826.34C416.2 821.22 412.9 819.03 410.42 803.59C408.18 789.65 410.51 783.59 412.29 777.59L609.53 717C614.583 739.353 619.63 761.687 624.67 784Z" fill="#261D12" stroke="black" stroke-width="4" stroke-miterlimit="10"/>
<path d="M1295.68 568C1318.34 560.15 1342.01 551.92 1366.36 554Z" fill="#E0BD85"/>
<path d="M857.92 686.39C817.65 688.39 778.03 683.73 743.48 665.39C743.23 665.24 743.24 664.33 743.26 664.39C804.78 695.57 884.51 689.94 950.66 667.08C968.5 660.91 986.5 654.49 1005.21 651.16C1025.31 647.61 1045.68 645.73 1065.8 642.78C1085.03 640.09 1103.97 635.59 1122.36 629.34C1138.36 623.8 1155.07 617.99 1172.26 619.48C1172.6 619.48 1172.72 620.48 1172.66 620.71C1168.1 631.91 1151.1 637.89 1140.26 641.93C1123.63 647.991 1106.59 652.83 1089.26 656.41C1084.01 657.53 1078.52 659.01 1073.16 659.14C1065.51 659.39 1057.81 658.95 1050.16 659.8C1042.51 660.65 1033.23 662.31 1030.67 670.21C1028.22 677.68 1040.74 675.69 1044.91 675.13C1062.19 672.74 1079.4 670.98 1096.29 665.94C1117.91 659.5 1138.69 650.82 1160.58 645.02C1184.13 638.84 1207.76 632.95 1231.06 626.12C1255.06 619.12 1277.97 609.55 1301.7 602.21C1325.83 594.68 1350.45 589.78 1375.23 585.04C1385.03 583.17 1394.58 580.65 1404.37 578.27C1409.29 576.929 1414.3 575.973 1419.37 575.41L1419.69 576.76C1406.6 577.76 1393.46 583.76 1380.69 585.76C1358.12 589.238 1335.79 594.083 1313.81 600.27C1289.63 607.1 1266.63 617.11 1242.67 624.4C1219.52 631.4 1196.04 637.4 1172.67 643.59C1150.16 649.52 1128.74 657.34 1106.73 664.48C1095.85 668.19 1084.69 671.049 1073.37 673.03C1065.92 674.15 1058.47 674.77 1051.15 675.96C1046.15 676.72 1031.9 680.33 1030.1 673.54C1027.24 662.64 1043.82 659.09 1052.1 658.6C1059.91 658.1 1068.21 659.22 1075.95 657.93C1080.82 657.11 1085.78 656.16 1090.58 655.04C1105.02 651.992 1119.25 648.079 1133.22 643.32C1145.03 639.15 1159.99 634.32 1168.64 625.15C1169.61 624.196 1170.47 623.143 1171.22 622.01C1172.22 620.25 1172.58 620.78 1170.46 620.67C1165.56 620.452 1160.64 620.741 1155.8 621.53C1145.43 623.33 1135.47 626.46 1125.48 629.89C1103.16 637.61 1081.13 642.32 1057.72 645.32C1034.09 648.37 1009.91 650.43 986.85 656.9C965.45 662.9 944.91 671.61 923.33 677.33C901.75 683.05 879.69 685.29 857.92 686.39Z" fill="#E0BD85"/>
<path d="M1135.73 584.77C1209.26 550.35 1289.13 533.45 1365.73 507.02Z" fill="#E0BD85"/>
<path d="M1259.17 569.79C1226.73 578.72 1192.92 586.4 1162.7 601.13C1152.58 606.13 1142.64 611.27 1132.7 616.53L1125.16 617.43C1136.43 611.86 1147.51 606.03 1158.93 600.43C1189.17 585.84 1222.31 577.67 1254.93 568.87C1272.12 564.15 1289.17 559.58 1306.1 554.05C1320.1 549.57 1333.63 543.73 1347.48 539.26C1360.48 535.19 1378.03 528.59 1391.82 531.32C1400.75 533.08 1402.68 540.32 1399.88 547.7C1392.71 565.89 1375.17 572.77 1355.66 577.2C1344.34 579.81 1332.61 581.49 1321.26 583.82C1308.72 586.44 1296.72 590.97 1284.83 595.2C1280.72 596.68 1276.61 598.15 1272.37 599.78L1262.72 600.93C1272.38 597.24 1282.05 593.7 1291.72 590.43C1314.49 582.51 1337.58 579.91 1360.72 573.64C1371.4 570.82 1383.96 567.07 1391.41 559C1396.82 553 1406.79 536.45 1393.6 533.64C1379.35 530.82 1362.73 536.46 1349.32 540.74C1334.88 545.41 1320.91 551.44 1306.46 555.98C1290.7 561 1275 565.37 1259.17 569.79Z" fill="#E0BD85"/>
<path d="M1370.67 624.64C1337.37 629.48 1302.87 632.9 1271.05 643.76Z" fill="#E0BD85"/>
<path d="M1090.7 592.72C1095.58 593.84 1100.57 595.37 1104.76 597.99C1106.41 598.903 1108 599.904 1109.54 600.99C1110.12 601.41 1101.95 608.9 1100.27 610.24C1089.34 618.924 1076.87 625.471 1063.52 629.54C1034.32 638.48 1003.61 639.12 975.11 650.62C944.34 663.04 915.79 678.92 882.65 685.02C849.51 691.12 816.46 693.58 784.59 705.43C752.72 717.28 724 734.83 694.82 751.32L695.5 753.74C709.64 745.63 723.71 737.24 738.23 729.3C757.93 718.49 778.34 709.07 800.01 702.51C822.15 695.95 844.86 693.17 867.53 689.66C891.41 685.97 913.89 680.05 936.05 670.15C957.52 660.59 978.8 649.15 1002.05 644.23C1041.74 635.59 1082.38 633.81 1111.05 602.36C1111.41 601.97 1110.89 600.66 1110.53 600.47C1085.81 581.16 1047.7 590.96 1019.15 600.59C983.84 612.52 950.57 629.59 915.33 641.76C897.47 647.86 878.9 650.76 860.75 655.82C836.44 662.54 812.43 670.33 788.2 677.31C753 687.47 716 696.81 679.58 696.71L680.14 698.71C731.27 699.55 783.67 681 832.14 666.32C847 661.92 861.97 657.32 877.06 653.77C888 651.18 899.17 649.4 909.86 645.87C930.98 639.02 951.13 629.87 971.47 621.3C992.05 612.71 1013 604 1034.64 598C1052.62 592.93 1072.68 588.55 1090.7 592.72Z" fill="#E0BD85"/>
<path d="M1259.84 640.31C1227.06 646.37 1193 651.98 1162.03 660.41C1151.66 663.26 1141.45 666.16 1131.25 669.12L1123.71 670.02C1135.26 666.84 1146.65 663.56 1158.35 660.36C1189.35 651.99 1222.76 646.21 1255.7 640.2C1273.06 636.99 1290.28 633.86 1307.45 630.32C1321.64 627.43 1335.45 623.98 1349.45 621.11C1362.6 618.47 1380.45 614.42 1393.97 614.68C1402.71 614.84 1404.14 617.86 1400.87 621.26C1392.54 629.65 1374.67 633.82 1355.02 637.06C1343.62 638.95 1331.87 640.47 1320.45 642.25C1307.84 644.25 1295.62 647 1283.55 649.64C1279.37 650.56 1275.2 651.47 1270.88 652.47L1261.23 653.62C1271.06 651.36 1280.89 649.187 1290.74 647.1C1313.86 642.1 1336.95 639.45 1360.3 635.17C1371.09 633.22 1383.79 630.75 1391.73 626.74C1397.5 623.74 1408.49 615.9 1395.6 615.57C1381.6 615.3 1364.79 618.87 1351.2 621.63C1336.56 624.63 1322.3 628.19 1307.66 631.13C1291.71 634.35 1275.85 637.32 1259.84 640.31Z" fill="#E0BD85"/>
<path d="M509.07 807C516.36 802.23 513.22 791.47 516.28 783.35C520.71 771.57 530.92 792.49 524.42 808.42C521.92 814.54 521.42 818.17 519.96 824.64C519.05 828.55 513.3 828.31 510.42 828.59C502.48 821.59 498.08 817.22 493.57 810.33" fill="#010101"/>
<path d="M509.07 807C516.36 802.23 513.22 791.47 516.28 783.35C520.71 771.57 530.92 792.49 524.42 808.42C521.92 814.54 521.42 818.17 519.96 824.64C519.05 828.55 513.3 828.31 510.42 828.59C502.48 821.59 498.08 817.22 493.57 810.33" stroke="black" stroke-width="4" stroke-miterlimit="10"/>
<path d="M867.57 800.12C891.01 828.56 936.78 873.37 960.17 932.7C986 998.27 984.08 1068.38 985.4 1107" stroke="black" stroke-width="14" stroke-miterlimit="10"/>
<path d="M990.23 1106C1002.67 1131.33 1004.02 1153.78 993.92 1162.06C988.12 1166.82 977.24 1167.96 973.27 1163.54C967.73 1157.37 978.38 1143.47 973.27 1138.46C967.78 1133.08 953.9 1143.99 952.64 1141.27C947.35 1129.84 957.47 1131.51 969.58 1119.27C974.23 1114.57 976.04 1111.38 979.9 1105.99C982.24 1102.72 987.47 1105.14 990.23 1106Z" fill="#010101" stroke="black" stroke-width="4" stroke-miterlimit="10"/>
<defs>
<linearGradient id="paint0_linear_1_11948" x1="1418.51" y1="512.52" x2="448.694" y2="887.932" gradientUnits="userSpaceOnUse">
<stop stop-color="#C59C68"/>
<stop offset="1" stop-color="#E4B377"/>
</linearGradient>
</defs>
</svg>
