<svg width="1660" height="1660" viewBox="0 0 1660 1660" fill="none" xmlns="http://www.w3.org/2000/svg">
<path d="M1125.42 638.32C1119.96 638.312 1114.61 639.926 1110.06 642.956C1105.52 645.987 1101.97 650.298 1099.87 655.345C1097.78 660.392 1097.22 665.947 1098.29 671.308C1099.35 676.668 1101.98 681.593 1105.84 685.46C1109.7 689.326 1114.62 691.96 1119.98 693.028C1125.34 694.095 1130.9 693.549 1135.95 691.459C1141 689.368 1145.31 685.826 1148.35 681.282C1151.38 676.738 1153 671.395 1153 665.93C1153 658.613 1150.1 651.594 1144.92 646.417C1139.75 641.24 1132.74 638.328 1125.42 638.32V638.32ZM1125.42 676.04C1123.42 676.042 1121.46 675.451 1119.8 674.341C1118.14 673.231 1116.84 671.653 1116.07 669.806C1115.31 667.959 1115.1 665.926 1115.49 663.964C1115.88 662.002 1116.84 660.2 1118.26 658.785C1119.67 657.37 1121.47 656.406 1123.43 656.015C1125.4 655.624 1127.43 655.824 1129.28 656.589C1131.12 657.354 1132.7 658.649 1133.82 660.312C1134.93 661.975 1135.52 663.93 1135.52 665.93C1135.51 668.603 1134.44 671.162 1132.55 673.05C1130.66 674.937 1128.09 675.997 1125.42 676V676.04Z" fill="url(#paint0_linear_1_22548)" stroke="#010101" stroke-width="4" stroke-miterlimit="10"/>
<path d="M1125.74 602.17C1128.74 603.53 1130.5 606.24 1131.74 608.99C1135.46 617.51 1144.91 651.99 1130.46 660.62C1127.07 662.62 1121.93 663.5 1119.37 661.26C1115.56 657.95 1121.37 651.32 1120.64 638.86C1119.98 627.7 1114.64 622.13 1115.32 609.63C1115.46 607.16 1115.86 603.8 1118.32 602.17C1121.23 600.19 1125.35 602 1125.74 602.17Z" fill="url(#paint1_linear_1_22548)" stroke="#010101" stroke-width="4" stroke-miterlimit="10"/>
<path d="M508.9 665.93C508.898 671.393 510.516 676.734 513.55 681.278C516.584 685.821 520.897 689.363 525.943 691.455C530.99 693.547 536.544 694.095 541.902 693.031C547.261 691.966 552.183 689.336 556.047 685.474C559.91 681.611 562.542 676.69 563.609 671.332C564.675 665.974 564.129 660.42 562.039 655.373C559.948 650.325 556.408 646.011 551.866 642.976C547.324 639.94 541.983 638.32 536.52 638.32C532.893 638.319 529.302 639.032 525.951 640.419C522.6 641.806 519.555 643.839 516.99 646.403C514.425 648.967 512.391 652.011 511.003 655.362C509.614 658.712 508.9 662.303 508.9 665.93V665.93ZM526.41 665.93C526.402 663.929 526.988 661.97 528.094 660.302C529.2 658.634 530.777 657.332 532.623 656.561C534.47 655.79 536.504 655.584 538.468 655.969C540.431 656.355 542.237 657.315 543.655 658.727C545.073 660.139 546.039 661.941 546.433 663.903C546.826 665.865 546.628 667.9 545.864 669.75C545.1 671.599 543.804 673.181 542.141 674.293C540.477 675.406 538.521 676 536.52 676C533.846 676 531.28 674.94 529.385 673.053C527.49 671.166 526.421 668.604 526.41 665.93V665.93Z" fill="url(#paint2_linear_1_22548)" stroke="#010101" stroke-width="4" stroke-miterlimit="10"/>
<path d="M536.2 602.17C533.2 603.53 531.43 606.24 530.2 608.99C526.48 617.51 517.03 651.99 531.48 660.62C534.88 662.62 540.01 663.5 542.58 661.26C546.38 657.95 540.58 651.32 541.3 638.86C541.97 627.7 547.3 622.13 546.62 609.63C546.49 607.16 546.08 603.8 543.62 602.17C540.7 600.19 536.58 602 536.2 602.17Z" fill="url(#paint3_linear_1_22548)" stroke="#010101" stroke-width="4" stroke-miterlimit="10"/>
<defs>
<linearGradient id="paint0_linear_1_22548" x1="1097.8" y1="665.93" x2="1153.03" y2="665.93" gradientUnits="userSpaceOnUse">
<stop stop-color="#603A17"/>
<stop offset="0.42" stop-color="#623B17"/>
<stop offset="0.58" stop-color="#694119"/>
<stop offset="0.69" stop-color="#744A1C"/>
<stop offset="0.77" stop-color="#855821"/>
<stop offset="0.85" stop-color="#9B6927"/>
<stop offset="0.92" stop-color="#B77F2E"/>
<stop offset="0.98" stop-color="#D69836"/>
<stop offset="1" stop-color="#E5A43A"/>
</linearGradient>
<linearGradient id="paint1_linear_1_22548" x1="1138.2" y1="631.92" x2="1115.24" y2="631.92" gradientUnits="userSpaceOnUse">
<stop stop-color="#E5A43A"/>
<stop offset="0.07" stop-color="#D89A37"/>
<stop offset="0.38" stop-color="#A57129"/>
<stop offset="0.65" stop-color="#7F531F"/>
<stop offset="0.86" stop-color="#684119"/>
<stop offset="1" stop-color="#603A17"/>
</linearGradient>
<linearGradient id="paint2_linear_1_22548" x1="564.13" y1="665.93" x2="508.9" y2="665.93" gradientUnits="userSpaceOnUse">
<stop stop-color="#603A17"/>
<stop offset="0.42" stop-color="#623B17"/>
<stop offset="0.58" stop-color="#694119"/>
<stop offset="0.69" stop-color="#744A1C"/>
<stop offset="0.77" stop-color="#855821"/>
<stop offset="0.85" stop-color="#9B6927"/>
<stop offset="0.92" stop-color="#B77F2E"/>
<stop offset="0.98" stop-color="#D69836"/>
<stop offset="1" stop-color="#E5A43A"/>
</linearGradient>
<linearGradient id="paint3_linear_1_22548" x1="523.74" y1="631.92" x2="546.7" y2="631.92" gradientUnits="userSpaceOnUse">
<stop stop-color="#E5A43A"/>
<stop offset="0.07" stop-color="#D89A37"/>
<stop offset="0.38" stop-color="#A57129"/>
<stop offset="0.65" stop-color="#7F531F"/>
<stop offset="0.86" stop-color="#684119"/>
<stop offset="1" stop-color="#603A17"/>
</linearGradient>
</defs>
</svg>
