<svg width="1660" height="1660" viewBox="0 0 1660 1660" fill="none" xmlns="http://www.w3.org/2000/svg">
<path opacity="0.76" d="M857.34 580.7C879.59 553.1 901.71 542.78 917.89 538.48C949.82 529.98 984.8 537.94 992.05 523.48C996.99 513.62 995.78 502.06 995.78 502.06C995.26 497.18 994.01 494.99 994.95 490.79C996.95 481.88 1006.1 475.87 1007.8 476.89C1009.3 477.78 1004.06 483.57 1006.56 490.41C1007.71 493.57 1010.64 497.3 1013.56 497.18C1018.02 496.99 1020.73 488.18 1021.43 485.9C1026.17 470.52 1017.51 464.27 1022.26 457.72C1026.26 452.23 1033.11 455.57 1058.26 447.58C1065.89 445.16 1071.08 443 1074 438.18C1074 438.18 1074.76 436.54 1075.66 425.78C1076.56 424.52 1077.84 423.15 1079.39 423.15C1083.8 423.15 1090.03 434.22 1087.26 443.07C1084.92 450.57 1076.7 454.58 1070.26 457.72C1060.12 462.72 1055.39 461.2 1048.26 467.12C1045.64 469.29 1040.53 473.56 1041.63 478.39C1042.17 480.217 1043.25 481.838 1044.73 483.043C1046.21 484.249 1048.01 484.983 1049.91 485.15C1057.33 485.59 1062.06 474.77 1064.41 475.76C1066.51 476.64 1066.41 486.76 1059.86 491.92C1052.68 497.56 1043.61 492.71 1039.14 497.92C1035.8 501.81 1036.5 509.59 1041.63 513.32C1045.57 516.2 1051.81 516.44 1055.71 514.08C1060.91 510.92 1058.61 505.15 1065.24 499.42C1068.06 496.99 1068.62 497.9 1072.24 495.29C1081.07 488.99 1083.66 479.54 1084.67 479.88C1085.68 480.22 1081.48 487.96 1085.08 491.53C1086.45 492.89 1089.08 493.82 1090.88 493.03C1095.35 491.03 1089.31 480.34 1092.54 466.36C1093.12 463.82 1096.37 449.74 1109.54 442.68C1115.26 439.61 1118.54 441.94 1121.97 438.93C1129.97 431.93 1121.82 415.55 1124.04 414.88C1125.92 414.31 1135.69 424.88 1133.16 435.17C1130.78 444.84 1119.92 444.67 1114.1 456.59C1108.96 467.08 1111.81 478.59 1114.51 479.13C1116.4 479.5 1117.86 474.4 1123.21 473.49C1125.71 473.07 1128.86 473.6 1129.43 475C1130.13 476.73 1126.31 478.47 1123.63 482.14C1119.63 487.66 1122.12 492.14 1120.72 497.92C1117.95 509.52 1102.2 515.6 1101.25 515.92C1087.68 520.98 1081.04 513.29 1067.69 519.31C1061.12 522.31 1053.62 528.23 1054.84 532.46C1055.45 534.54 1058.21 536.32 1060.65 536.21C1064.11 536.06 1064.52 532.21 1069.76 528.7C1074.09 525.83 1080.66 523.94 1083.02 526.07C1084.49 527.4 1084.02 529.98 1083.43 531.33C1081.68 535.59 1073.9 533.03 1071 536.97C1069 539.67 1069.8 544.29 1072.66 546.74C1076.3 549.85 1082.06 548.39 1082.66 548.24C1089.81 546.32 1089.41 539.72 1097.16 530.95C1099.93 527.82 1111 515.3 1123.68 515.95C1128.68 516.2 1133.07 518.41 1136.52 515.95C1139.47 513.86 1139.52 509.95 1141.08 509.95C1142.45 509.95 1143.56 512.95 1143.98 514.84C1144.82 518.73 1144.16 524.91 1139.83 527.99C1134.83 531.53 1130.52 527.05 1122.83 529.49C1114.43 532.17 1109.11 540.87 1107.5 547.49C1105.7 554.9 1109.02 557.68 1106.25 562.49C1102.92 568.31 1095.2 569.41 1089.68 571.13C1072.68 576.43 1071.94 588.9 1050.73 610.58C1040.17 621.251 1028.34 630.59 1015.51 638.39C1000.21 647.68 986.44 656.04 967.86 658.3C928.86 663.06 897.7 637.3 891.21 632C875.073 618.645 863.282 600.786 857.34 580.7Z" fill="url(#paint0_linear_1_23175)" stroke="#F15E2D" stroke-miterlimit="10"/>
<path d="M857.34 580.7C879.59 553.1 901.71 542.78 917.89 538.48C949.82 529.98 984.8 537.94 992.05 523.48C996.99 513.62 995.78 502.06 995.78 502.06C995.26 497.18 994.01 494.99 994.95 490.79C996.95 481.88 1006.1 475.87 1007.8 476.89C1009.3 477.78 1004.06 483.57 1006.56 490.41C1007.71 493.57 1010.64 497.3 1013.56 497.18C1018.02 496.99 1020.73 488.18 1021.43 485.9C1026.17 470.52 1017.51 464.27 1022.26 457.72C1026.26 452.23 1033.11 455.57 1058.26 447.58C1065.89 445.16 1071.08 443 1074 438.18C1074 438.18 1074.76 436.54 1075.66 425.78C1076.56 424.52 1077.84 423.15 1079.39 423.15C1083.8 423.15 1090.03 434.22 1087.26 443.07C1084.92 450.57 1076.7 454.58 1070.26 457.72C1060.12 462.72 1055.39 461.2 1048.26 467.12C1045.64 469.29 1040.53 473.56 1041.63 478.39C1042.17 480.217 1043.25 481.838 1044.73 483.043C1046.21 484.249 1048.01 484.983 1049.91 485.15C1057.33 485.59 1062.06 474.77 1064.41 475.76C1066.51 476.64 1066.41 486.76 1059.86 491.92C1052.68 497.56 1043.61 492.71 1039.14 497.92C1035.8 501.81 1036.5 509.59 1041.63 513.32C1045.57 516.2 1051.81 516.44 1055.71 514.08C1060.91 510.92 1058.61 505.15 1065.24 499.42C1068.06 496.99 1068.62 497.9 1072.24 495.29C1081.07 488.99 1083.66 479.54 1084.67 479.88C1085.68 480.22 1081.48 487.96 1085.08 491.53C1086.45 492.89 1089.08 493.82 1090.88 493.03C1095.35 491.03 1089.31 480.34 1092.54 466.36C1093.12 463.82 1096.37 449.74 1109.54 442.68C1115.26 439.61 1118.54 441.94 1121.97 438.93C1129.97 431.93 1121.82 415.55 1124.04 414.88C1125.92 414.31 1135.69 424.88 1133.16 435.17C1130.78 444.84 1119.92 444.67 1114.1 456.59C1108.96 467.08 1111.81 478.59 1114.51 479.13C1116.4 479.5 1117.86 474.4 1123.21 473.49C1125.71 473.07 1128.86 473.6 1129.43 475C1130.13 476.73 1126.31 478.47 1123.63 482.14C1119.63 487.66 1122.12 492.14 1120.72 497.92C1117.95 509.52 1102.2 515.6 1101.25 515.92C1087.68 520.98 1081.04 513.29 1067.69 519.31C1061.12 522.31 1053.62 528.23 1054.84 532.46C1055.45 534.54 1058.21 536.32 1060.65 536.21C1064.11 536.06 1064.52 532.21 1069.76 528.7C1074.09 525.83 1080.66 523.94 1083.02 526.07C1084.49 527.4 1084.02 529.98 1083.43 531.33C1081.68 535.59 1073.9 533.03 1071 536.97C1069 539.67 1069.8 544.29 1072.66 546.74C1076.3 549.85 1082.06 548.39 1082.66 548.24C1089.81 546.32 1089.41 539.72 1097.16 530.95C1099.93 527.82 1111 515.3 1123.68 515.95C1128.68 516.2 1133.07 518.41 1136.52 515.95C1139.47 513.86 1139.52 509.95 1141.08 509.95C1142.45 509.95 1143.56 512.95 1143.98 514.84C1144.82 518.73 1144.16 524.91 1139.83 527.99C1134.83 531.53 1130.52 527.05 1122.83 529.49C1114.43 532.17 1109.11 540.87 1107.5 547.49C1105.7 554.9 1109.02 557.68 1106.25 562.49C1102.92 568.31 1095.2 569.41 1089.68 571.13C1072.68 576.43 1071.94 588.9 1050.73 610.58C1040.17 621.251 1028.34 630.59 1015.51 638.39C1000.21 647.68 986.44 656.04 967.86 658.3C928.86 663.06 897.7 637.3 891.21 632C875.073 618.645 863.282 600.786 857.34 580.7Z" stroke="#F15E2D" stroke-width="4" stroke-miterlimit="10"/>
<path opacity="0.76" d="M802.66 580.7C780.41 553.1 758.29 542.78 742.11 538.48C710.18 529.98 675.2 537.94 667.95 523.48C663 513.59 664.22 502 664.22 502C664.74 497.12 665.99 494.93 665.05 490.73C663.05 481.82 653.9 475.81 652.2 476.83C650.7 477.72 655.94 483.51 653.44 490.35C652.29 493.51 649.36 497.24 646.44 497.12C641.98 496.93 639.27 488.12 638.57 485.84C633.83 470.46 642.49 464.21 637.74 457.66C633.74 452.17 626.89 455.51 601.69 447.52C594.06 445.1 588.87 442.94 585.95 438.12C585.95 438.12 585.19 436.48 584.29 425.72C583.39 424.46 582.11 423.09 580.56 423.09C576.15 423.09 569.92 434.16 572.69 443.01C575.03 450.51 583.25 454.52 589.69 457.66C599.83 462.66 604.56 461.14 611.69 467.06C614.31 469.23 619.42 473.5 618.32 478.33C617.776 480.157 616.696 481.778 615.22 482.983C613.743 484.189 611.939 484.923 610.04 485.09C602.62 485.53 597.89 474.71 595.54 475.7C593.44 476.58 593.54 486.7 600.09 491.86C607.27 497.5 616.34 492.65 620.81 497.86C624.15 501.75 623.45 509.53 618.32 513.26C614.38 516.14 608.14 516.38 604.24 514.02C599.04 510.86 601.34 505.09 594.71 499.36C591.89 496.93 591.33 497.84 587.66 495.23C578.83 488.93 576.24 479.48 575.23 479.82C574.22 480.16 578.42 487.9 574.82 491.47C573.45 492.83 570.82 493.76 569.02 492.97C564.55 490.97 570.59 480.28 567.36 466.3C566.78 463.76 563.53 449.68 550.36 442.62C544.64 439.55 541.41 441.88 537.93 438.87C529.93 431.87 538.08 415.49 535.86 414.82C533.98 414.25 524.21 424.82 526.74 435.11C529.12 444.78 539.98 444.61 545.8 456.53C550.94 467.02 548.09 478.53 545.39 479.07C543.5 479.44 542.04 474.34 536.69 473.43C534.19 473.01 531.04 473.54 530.47 474.94C529.77 476.67 533.59 478.41 536.27 482.08C540.32 487.6 537.78 492.08 539.18 497.86C541.95 509.46 557.7 515.54 558.65 515.86C572.22 520.92 578.86 513.23 592.21 519.25C598.78 522.25 606.28 528.17 605.06 532.4C604.45 534.48 601.69 536.26 599.25 536.15C595.79 536 595.38 532.15 590.14 528.64C585.81 525.77 579.24 523.88 576.88 526.01C575.41 527.34 575.88 529.92 576.47 531.27C578.22 535.53 586 532.97 588.9 536.91C590.9 539.61 590.1 544.23 587.24 546.68C583.6 549.79 577.84 548.33 577.29 548.18C570.14 546.26 570.54 539.66 562.79 530.89C560.02 527.76 548.95 515.24 536.27 515.89C531.32 516.14 526.88 518.35 523.43 515.89C520.43 513.8 520.43 509.89 518.87 509.89C517.5 509.89 516.39 512.89 515.97 514.78C515 518.7 515.7 524.88 520 528C525 531.54 529.31 527.06 537 529.5C545.4 532.18 550.72 540.88 552.33 547.5C554.13 554.91 550.81 557.69 553.58 562.5C556.91 568.32 564.58 569.42 570.15 571.14C587.15 576.44 587.89 588.91 609.15 610.59C619.713 621.261 631.541 630.6 644.37 638.4C659.67 647.69 673.44 656.05 692.02 658.31C731.02 663.07 762.18 637.31 768.67 632.01C784.853 618.669 796.687 600.804 802.66 580.7Z" fill="url(#paint1_linear_1_23175)" stroke="#F15E2D" stroke-miterlimit="10"/>
<path d="M802.66 580.7C780.41 553.1 758.29 542.78 742.11 538.48C710.18 529.98 675.2 537.94 667.95 523.48C663 513.59 664.22 502 664.22 502C664.74 497.12 665.99 494.93 665.05 490.73C663.05 481.82 653.9 475.81 652.2 476.83C650.7 477.72 655.94 483.51 653.44 490.35C652.29 493.51 649.36 497.24 646.44 497.12C641.98 496.93 639.27 488.12 638.57 485.84C633.83 470.46 642.49 464.21 637.74 457.66C633.74 452.17 626.89 455.51 601.69 447.52C594.06 445.1 588.87 442.94 585.95 438.12C585.95 438.12 585.19 436.48 584.29 425.72C583.39 424.46 582.11 423.09 580.56 423.09C576.15 423.09 569.92 434.16 572.69 443.01C575.03 450.51 583.25 454.52 589.69 457.66C599.83 462.66 604.56 461.14 611.69 467.06C614.31 469.23 619.42 473.5 618.32 478.33C617.776 480.157 616.696 481.778 615.22 482.983C613.743 484.189 611.939 484.923 610.04 485.09C602.62 485.53 597.89 474.71 595.54 475.7C593.44 476.58 593.54 486.7 600.09 491.86C607.27 497.5 616.34 492.65 620.81 497.86C624.15 501.75 623.45 509.53 618.32 513.26C614.38 516.14 608.14 516.38 604.24 514.02C599.04 510.86 601.34 505.09 594.71 499.36C591.89 496.93 591.33 497.84 587.66 495.23C578.83 488.93 576.24 479.48 575.23 479.82C574.22 480.16 578.42 487.9 574.82 491.47C573.45 492.83 570.82 493.76 569.02 492.97C564.55 490.97 570.59 480.28 567.36 466.3C566.78 463.76 563.53 449.68 550.36 442.62C544.64 439.55 541.41 441.88 537.93 438.87C529.93 431.87 538.08 415.49 535.86 414.82C533.98 414.25 524.21 424.82 526.74 435.11C529.12 444.78 539.98 444.61 545.8 456.53C550.94 467.02 548.09 478.53 545.39 479.07C543.5 479.44 542.04 474.34 536.69 473.43C534.19 473.01 531.04 473.54 530.47 474.94C529.77 476.67 533.59 478.41 536.27 482.08C540.32 487.6 537.78 492.08 539.18 497.86C541.95 509.46 557.7 515.54 558.65 515.86C572.22 520.92 578.86 513.23 592.21 519.25C598.78 522.25 606.28 528.17 605.06 532.4C604.45 534.48 601.69 536.26 599.25 536.15C595.79 536 595.38 532.15 590.14 528.64C585.81 525.77 579.24 523.88 576.88 526.01C575.41 527.34 575.88 529.92 576.47 531.27C578.22 535.53 586 532.97 588.9 536.91C590.9 539.61 590.1 544.23 587.24 546.68C583.6 549.79 577.84 548.33 577.29 548.18C570.14 546.26 570.54 539.66 562.79 530.89C560.02 527.76 548.95 515.24 536.27 515.89C531.32 516.14 526.88 518.35 523.43 515.89C520.43 513.8 520.43 509.89 518.87 509.89C517.5 509.89 516.39 512.89 515.97 514.78C515 518.7 515.7 524.88 520 528C525 531.54 529.31 527.06 537 529.5C545.4 532.18 550.72 540.88 552.33 547.5C554.13 554.91 550.81 557.69 553.58 562.5C556.91 568.32 564.58 569.42 570.15 571.14C587.15 576.44 587.89 588.91 609.15 610.59C619.713 621.261 631.541 630.6 644.37 638.4C659.67 647.69 673.44 656.05 692.02 658.31C731.02 663.07 762.18 637.31 768.67 632.01C784.853 618.669 796.687 600.804 802.66 580.7Z" stroke="#F15E2D" stroke-width="4" stroke-miterlimit="10"/>
<path d="M771 572.46C778.935 572.867 786.891 572.596 794.78 571.65C813.78 569.37 814.42 565.3 825.94 565.2C841.76 565.06 845.23 572.69 868.18 575.68C874.097 576.452 880.065 576.76 886.03 576.6" stroke="#F15E2D" stroke-width="7" stroke-miterlimit="10"/>
<defs>
<linearGradient id="paint0_linear_1_23175" x1="857.34" y1="536.88" x2="1144.43" y2="536.88" gradientUnits="userSpaceOnUse">
<stop stop-color="#F15A29"/>
<stop offset="0.14" stop-color="#F3682D"/>
<stop offset="0.72" stop-color="#F99C3B"/>
<stop offset="1" stop-color="#FBB040"/>
</linearGradient>
<linearGradient id="paint1_linear_1_23175" x1="802.66" y1="536.88" x2="515.57" y2="536.88" gradientUnits="userSpaceOnUse">
<stop stop-color="#F15A29"/>
<stop offset="0.14" stop-color="#F3682D"/>
<stop offset="0.72" stop-color="#F99C3B"/>
<stop offset="1" stop-color="#FBB040"/>
</linearGradient>
</defs>
</svg>
