<svg width="1660" height="1660" viewBox="0 0 1660 1660" fill="none" xmlns="http://www.w3.org/2000/svg">
<path d="M584.45 497.89L1084.12 502.89C1090.15 502.953 1095.92 505.356 1100.21 509.591C1104.5 513.826 1106.98 519.563 1107.12 525.59C1107.47 540.443 1107.82 555.293 1108.18 570.14C1108.31 575.319 1106.71 580.395 1103.63 584.562C1100.55 588.728 1096.17 591.747 1091.18 593.14L917.28 641.54C912.914 642.745 908.291 642.65 903.978 641.267C899.665 639.883 895.85 637.271 893 633.75C878.34 615.66 866.34 586 851.73 568C842.61 556.71 822.15 555 812.68 566C796.82 584.41 781.68 615.76 765.83 634.17C762.889 637.586 759.019 640.072 754.691 641.328C750.362 642.583 745.762 642.552 741.45 641.24L573.82 590.24C568.761 588.704 564.376 585.489 561.389 581.126C558.402 576.763 556.991 571.512 557.39 566.24L561 519.35C561.454 513.464 564.13 507.972 568.485 503.987C572.84 500.001 578.547 497.822 584.45 497.89V497.89Z" fill="url(#paint0_linear_1_23199)" stroke="#010101" stroke-width="4" stroke-miterlimit="10"/>
<path d="M576.85 497.89L1076.52 502.89Z" fill="url(#paint1_linear_1_23199)"/>
<path d="M576.85 497.89C742.66 493.38 910.85 495.01 1076.52 502.89C910.7 507.45 742.52 505.73 576.85 497.89V497.89Z" fill="#010101"/>
<path d="M881.18 614.69C870.04 601.69 863.11 585.69 852.65 572.27C850.757 569.719 848.721 567.279 846.55 564.96C842.197 561.101 836.597 558.942 830.78 558.88C824.97 558.7 819.18 560.61 815.65 564.55C811.223 569.489 807.121 574.71 803.37 580.18C795.79 591.36 789.24 603.86 780.31 614.24C788.63 595.11 795.14 574.85 809.09 558.8C814.49 552.44 822.99 549.65 831.03 549.89C839.81 550.13 848.93 553.89 854.64 561.08C867.29 576.99 873.08 596.4 881.18 614.69V614.69Z" fill="#010101"/>
<path opacity="0.9" d="M800.68 534.87L795.34 525.41C794.711 524.291 793.799 523.357 792.695 522.702C791.591 522.047 790.334 521.695 789.05 521.68L586.5 519.68C580.637 519.652 574.982 521.853 570.68 525.837C566.378 529.822 563.751 535.292 563.33 541.14" stroke="white" stroke-width="4" stroke-miterlimit="10"/>
<path opacity="0.9" d="M865.82 534.87L871.15 525.41C871.779 524.289 872.693 523.354 873.799 522.699C874.905 522.045 876.165 521.693 877.45 521.68L1079.99 519.68C1085.85 519.647 1091.51 521.847 1095.82 525.832C1100.12 529.817 1102.74 535.29 1103.16 541.14" stroke="white" stroke-width="4" stroke-miterlimit="10"/>
<path d="M804.88 537L805.31 545.25C805.36 546.25 806.87 546.25 806.81 545.25L806.38 537C806.38 536 804.83 536 804.88 537Z" fill="white"/>
<path d="M806.09 538C806.09 537.95 806.21 537.77 806.19 537.79C806.232 537.716 806.3 537.659 806.38 537.63C806.52 537.552 806.68 537.514 806.84 537.52C807.028 537.514 807.215 537.55 807.388 537.624C807.56 537.699 807.715 537.81 807.84 537.95C808.58 538.84 807.67 540.23 806.91 540.82C806.15 541.41 807.1 542.43 807.82 542C808.017 541.893 808.242 541.848 808.465 541.871C808.688 541.894 808.899 541.985 809.07 542.13C809.262 542.284 809.405 542.492 809.48 542.727C809.554 542.961 809.558 543.213 809.49 543.45C809.289 544.046 808.862 544.54 808.302 544.826C807.741 545.112 807.091 545.167 806.49 544.98C805.55 544.77 805.15 546.22 806.09 546.42C807.208 546.708 808.393 546.554 809.4 545.99C809.849 545.724 810.231 545.358 810.517 544.921C810.803 544.485 810.986 543.988 811.05 543.47C811.12 542.965 811.048 542.45 810.841 541.983C810.634 541.517 810.301 541.118 809.88 540.83C809.476 540.554 809.003 540.395 808.513 540.372C808.024 540.349 807.538 540.463 807.11 540.7L808.02 541.88C809.46 540.76 810.35 538.3 808.89 536.83C807.8 535.73 805.49 535.66 804.79 537.25C804.703 537.42 804.682 537.617 804.732 537.802C804.782 537.987 804.899 538.147 805.06 538.25C805.229 538.342 805.428 538.366 805.614 538.315C805.8 538.265 805.96 538.145 806.06 537.98L806.09 538Z" fill="white"/>
<path d="M814 545.25C814.27 542.25 814.54 539.25 814.88 536.34L813.48 536.71C814.837 539.213 815.795 541.912 816.32 544.71C816.5 545.66 817.95 545.25 817.77 544.31C817.2 541.397 816.188 538.588 814.77 535.98C814.38 535.26 813.45 535.68 813.37 536.36C813.03 539.36 812.76 542.3 812.49 545.27C812.493 545.468 812.572 545.657 812.713 545.797C812.853 545.938 813.042 546.017 813.24 546.02C813.437 546.015 813.625 545.934 813.765 545.795C813.904 545.655 813.985 545.467 813.99 545.27L814 545.25Z" fill="white"/>
<path d="M814.47 543.07L814.7 542.97L814.52 543.05C815.024 542.833 815.556 542.688 816.1 542.62H815.9H816C816.197 542.61 816.384 542.533 816.53 542.4C816.669 542.258 816.748 542.068 816.75 541.87C816.751 541.771 816.732 541.674 816.694 541.582C816.656 541.491 816.601 541.409 816.53 541.34C816.464 541.266 816.382 541.207 816.29 541.169C816.198 541.131 816.099 541.114 816 541.12C815.595 541.159 815.193 541.233 814.8 541.34C814.413 541.454 814.035 541.597 813.67 541.77C813.502 541.869 813.379 542.031 813.33 542.22C813.277 542.415 813.302 542.623 813.4 542.8C813.499 542.968 813.661 543.091 813.85 543.14C814.047 543.185 814.253 543.156 814.43 543.06L814.47 543.07Z" fill="white"/>
<path d="M818.18 537.15C818.291 539.052 818.538 540.943 818.92 542.81C819.1 543.68 819.39 544.5 820.31 544.81C820.98 545.02 821.7 544.81 822.31 544.93C823.25 545.16 823.65 543.71 822.71 543.48C822.089 543.418 821.464 543.392 820.84 543.4C820.775 543.404 820.711 543.387 820.655 543.353C820.6 543.319 820.556 543.269 820.53 543.21C820.384 542.832 820.293 542.434 820.26 542.03C819.941 540.427 819.737 538.802 819.65 537.17C819.643 536.973 819.561 536.787 819.422 536.648C819.283 536.509 819.097 536.427 818.9 536.42C818.702 536.423 818.513 536.502 818.373 536.643C818.232 536.783 818.153 536.972 818.15 537.17L818.18 537.15Z" fill="white"/>
<path d="M823.71 536.86L824.38 542.52C824.389 542.99 824.47 543.455 824.62 543.9C824.715 544.093 824.856 544.259 825.03 544.385C825.204 544.511 825.407 544.591 825.62 544.62C826.092 544.665 826.568 544.665 827.04 544.62H828.51C828.709 544.62 828.9 544.541 829.04 544.4C829.181 544.26 829.26 544.069 829.26 543.87C829.26 543.671 829.181 543.48 829.04 543.34C828.9 543.199 828.709 543.12 828.51 543.12C827.7 543.12 826.89 543.12 826.08 543.12C825.86 543.12 825.96 543.12 825.98 543.19C825.975 543.093 825.975 542.997 825.98 542.9L825.83 541.65L825.26 536.82C825.253 536.623 825.171 536.437 825.032 536.298C824.893 536.159 824.707 536.077 824.51 536.07C824.311 536.07 824.12 536.149 823.98 536.29C823.839 536.43 823.76 536.621 823.76 536.82L823.71 536.86Z" fill="white"/>
<path d="M825.2 537.82C825.67 537.82 826.15 537.82 826.62 537.82L827.3 537.88H827.64H827.69H827.89C828.087 537.925 828.293 537.896 828.47 537.8C828.636 537.698 828.758 537.538 828.81 537.35C828.862 537.159 828.837 536.955 828.74 536.783C828.642 536.61 828.481 536.484 828.29 536.43C827.269 536.262 826.234 536.198 825.2 536.24C825.002 536.243 824.813 536.322 824.673 536.463C824.532 536.603 824.453 536.792 824.45 536.99C824.455 537.187 824.536 537.375 824.675 537.515C824.815 537.654 825.003 537.735 825.2 537.74V537.82Z" fill="white"/>
<path d="M825.68 541.32C826.12 541.385 826.565 541.415 827.01 541.41C827.453 541.403 827.895 541.357 828.33 541.27C828.518 541.213 828.679 541.089 828.78 540.92C828.829 540.834 828.86 540.74 828.872 540.642C828.884 540.544 828.876 540.445 828.85 540.35C828.827 540.256 828.785 540.167 828.727 540.09C828.668 540.012 828.594 539.948 828.51 539.9C828.333 539.804 828.127 539.775 827.93 539.82L827.55 539.89H827.74C827.152 539.965 826.558 539.965 825.97 539.89H826.16H826.08C825.885 539.842 825.678 539.867 825.5 539.96C825.333 540.061 825.211 540.222 825.16 540.41C825.132 540.506 825.123 540.607 825.135 540.707C825.147 540.807 825.18 540.903 825.23 540.99C825.328 541.161 825.49 541.287 825.68 541.34V541.32Z" fill="white"/>
<path d="M830.67 537.09C830.93 539.38 831.15 541.69 831.33 543.99C831.335 544.187 831.416 544.375 831.555 544.515C831.695 544.654 831.883 544.735 832.08 544.74C832.278 544.737 832.467 544.658 832.607 544.517C832.748 544.377 832.827 544.188 832.83 543.99C832.717 541.83 832.563 539.673 832.37 537.52L831.09 538.05C832.475 539.75 833.745 541.54 834.89 543.41C835.25 544 836.36 543.81 836.28 543.03C836.08 540.94 835.87 538.85 835.69 536.75C835.683 536.553 835.601 536.367 835.462 536.228C835.323 536.089 835.137 536.007 834.94 536C834.742 536.003 834.553 536.082 834.413 536.223C834.272 536.363 834.193 536.552 834.19 536.75C834.37 538.85 834.58 540.94 834.78 543.03L836.18 542.65C834.977 540.675 833.64 538.784 832.18 536.99C832.073 536.89 831.94 536.823 831.796 536.796C831.652 536.77 831.504 536.786 831.369 536.842C831.234 536.898 831.118 536.991 831.034 537.112C830.951 537.232 830.905 537.374 830.9 537.52C831.1 539.667 831.253 541.823 831.36 543.99H832.86C832.68 541.69 832.46 539.38 832.2 537.09C832.2 536.891 832.121 536.7 831.98 536.56C831.84 536.419 831.649 536.34 831.45 536.34C831.251 536.34 831.06 536.419 830.92 536.56C830.779 536.7 830.7 536.891 830.7 537.09H830.67Z" fill="white"/>
<path d="M841.43 536.29C840.82 536.106 840.166 536.131 839.572 536.361C838.978 536.591 838.477 537.013 838.15 537.56C837.807 538.117 837.573 538.735 837.46 539.38C837.304 540.072 837.227 540.78 837.23 541.49C837.198 542.137 837.345 542.78 837.656 543.348C837.966 543.917 838.428 544.388 838.99 544.71C839.515 544.962 840.116 545.006 840.672 544.833C841.229 544.661 841.699 544.285 841.99 543.78C842.08 543.61 842.102 543.412 842.052 543.227C842.002 543.041 841.883 542.882 841.72 542.78C841.551 542.688 841.352 542.664 841.166 542.715C840.98 542.765 840.82 542.885 840.72 543.05C840.66 543.159 840.577 543.254 840.476 543.328C840.376 543.401 840.26 543.451 840.137 543.474C840.014 543.497 839.888 543.492 839.768 543.461C839.647 543.429 839.535 543.37 839.44 543.29C839.15 543.013 838.932 542.67 838.803 542.291C838.674 541.911 838.639 541.506 838.7 541.11C838.707 540.219 838.912 539.341 839.3 538.54C839.437 538.223 839.687 537.968 840.001 537.824C840.314 537.68 840.67 537.658 841 537.76C841.095 537.786 841.195 537.792 841.292 537.78C841.39 537.767 841.485 537.735 841.57 537.686C841.655 537.637 841.73 537.571 841.79 537.493C841.85 537.415 841.894 537.325 841.92 537.23C841.97 537.039 841.943 536.837 841.846 536.665C841.749 536.493 841.589 536.366 841.4 536.31L841.43 536.29Z" fill="white"/>
<path d="M843.15 537.06L843.39 544.29C843.39 545.29 844.93 545.29 844.89 544.29L844.65 537.06C844.65 536.06 843.12 536.06 843.15 537.06Z" fill="white"/>
<path d="M845.92 537.64C846.198 539.808 846.302 541.995 846.23 544.18H847.73C847.485 541.612 847.485 539.028 847.73 536.46L846.34 536.84C847.856 539.143 848.972 541.685 849.64 544.36C849.92 545.28 851.37 544.89 851.09 543.96C850.389 541.157 849.219 538.493 847.63 536.08C847.543 535.944 847.414 535.838 847.263 535.78C847.112 535.722 846.947 535.713 846.79 535.756C846.634 535.798 846.495 535.889 846.395 536.016C846.294 536.143 846.236 536.298 846.23 536.46C845.985 539.028 845.985 541.612 846.23 544.18C846.23 544.379 846.309 544.57 846.45 544.71C846.59 544.851 846.781 544.93 846.98 544.93C847.179 544.93 847.37 544.851 847.51 544.71C847.651 544.57 847.73 544.379 847.73 544.18C847.802 541.995 847.698 539.808 847.42 537.64C847.413 537.443 847.331 537.257 847.192 537.118C847.053 536.979 846.867 536.897 846.67 536.89C846.471 536.89 846.28 536.969 846.14 537.11C845.999 537.25 845.92 537.441 845.92 537.64V537.64Z" fill="white"/>
<path d="M848.05 542L849.19 541.56C849.286 541.534 849.375 541.486 849.45 541.42C849.531 541.368 849.596 541.295 849.64 541.21C849.736 541.033 849.765 540.827 849.72 540.63C849.663 540.444 849.538 540.287 849.37 540.19C849.284 540.138 849.188 540.104 849.088 540.09C848.989 540.076 848.887 540.083 848.79 540.11L847.65 540.55C847.557 540.576 847.471 540.624 847.4 540.69C847.317 540.739 847.251 540.812 847.21 540.9C847.158 540.984 847.124 541.079 847.111 541.177C847.097 541.275 847.103 541.375 847.13 541.47C847.156 541.565 847.2 541.655 847.26 541.733C847.32 541.811 847.395 541.877 847.48 541.926C847.566 541.975 847.66 542.007 847.758 542.02C847.855 542.032 847.955 542.026 848.05 542V542Z" fill="white"/>
<path d="M855.88 536.32C855.607 536.118 855.293 535.979 854.96 535.912C854.627 535.844 854.284 535.851 853.954 535.931C853.624 536.011 853.315 536.163 853.05 536.375C852.785 536.588 852.57 536.855 852.42 537.16C851.725 538.512 851.443 540.039 851.61 541.55C851.72 542.79 852.05 544.31 853.28 544.9C854.51 545.49 856.49 544.51 857.06 543.21C857.219 542.839 857.282 542.433 857.244 542.031C857.205 541.629 857.067 541.243 856.842 540.908C856.616 540.573 856.31 540.299 855.952 540.113C855.593 539.926 855.194 539.833 854.79 539.84C854.591 539.84 854.4 539.919 854.26 540.06C854.119 540.2 854.04 540.391 854.04 540.59C854.04 540.789 854.119 540.98 854.26 541.12C854.4 541.261 854.591 541.34 854.79 541.34C855.005 541.311 855.224 541.36 855.407 541.477C855.59 541.594 855.726 541.772 855.79 541.98C855.834 542.203 855.808 542.435 855.715 542.643C855.621 542.85 855.466 543.024 855.27 543.14C854.94 543.4 854.38 543.77 853.96 543.55C853.663 543.329 853.454 543.011 853.37 542.65C853.03 541.437 853.03 540.153 853.37 538.94C853.457 538.455 853.667 538 853.98 537.62C854.18 537.43 854.62 537.18 854.87 537.38C855.013 537.516 855.203 537.591 855.4 537.591C855.597 537.591 855.787 537.516 855.93 537.38C856.07 537.239 856.149 537.049 856.149 536.85C856.149 536.651 856.07 536.461 855.93 536.32H855.88Z" fill="white"/>
<path d="M858.54 537.11L858.31 544.97C858.31 545.97 859.78 545.97 859.81 544.97L860.04 537.11C860.04 536.911 859.961 536.72 859.82 536.58C859.68 536.439 859.489 536.36 859.29 536.36C859.091 536.36 858.9 536.439 858.76 536.58C858.619 536.72 858.54 536.911 858.54 537.11V537.11Z" fill="white"/>
<path d="M859.51 537.32L862.42 544.66C862.478 544.848 862.605 545.007 862.776 545.106C862.947 545.204 863.148 545.234 863.34 545.19C863.531 545.136 863.692 545.009 863.79 544.837C863.887 544.665 863.912 544.461 863.86 544.27L860.96 536.92C860.902 536.73 860.773 536.57 860.6 536.473C860.426 536.376 860.222 536.35 860.03 536.4C859.84 536.454 859.678 536.581 859.58 536.753C859.483 536.925 859.458 537.129 859.51 537.32Z" fill="white"/>
<path d="M859.41 542.8L861.2 542.07C861.386 542.013 861.545 541.893 861.65 541.73C861.745 541.561 861.77 541.362 861.719 541.175C861.669 540.988 861.547 540.828 861.38 540.73C861.296 540.678 861.201 540.644 861.103 540.631C861.005 540.617 860.905 540.623 860.81 540.65L859.01 541.39C858.824 541.446 858.664 541.566 858.56 541.73C858.473 541.9 858.452 542.097 858.502 542.282C858.552 542.467 858.669 542.627 858.83 542.73C858.916 542.783 859.012 542.816 859.112 542.828C859.212 542.84 859.314 542.831 859.41 542.8V542.8Z" fill="white"/>
<defs>
<linearGradient id="paint0_linear_1_23199" x1="557.32" y1="570.14" x2="1108.2" y2="570.14" gradientUnits="userSpaceOnUse">
<stop stop-color="#398CCB" stop-opacity="0.9"/>
<stop offset="1" stop-color="#2FC1D9" stop-opacity="0.8"/>
</linearGradient>
<linearGradient id="paint1_linear_1_23199" x1="576.85" y1="500.37" x2="1076.52" y2="500.37" gradientUnits="userSpaceOnUse">
<stop stop-color="#19ACE4"/>
<stop offset="1" stop-color="#2FC1D9"/>
</linearGradient>
</defs>
</svg>
