<svg width="1660" height="1660" viewBox="0 0 1660 1660" fill="none" xmlns="http://www.w3.org/2000/svg">
<path d="M615.31 452C696.08 459.35 771.31 491.36 836.31 542" stroke="black" stroke-width="20" stroke-miterlimit="10"/>
<path d="M1044.69 452C963.92 459.35 888.69 491.36 823.69 542" stroke="black" stroke-width="20" stroke-miterlimit="10"/>
<path d="M829.52 389.42C798.6 360.42 775.17 325.62 761.77 287.14C651.17 307.97 562.77 378.7 530.89 470.07C553.229 474.267 575.91 476.372 598.64 476.36C690.21 476.36 772.55 442.81 829.52 389.42Z" fill="#E0E0DF" stroke="#070707" stroke-width="4" stroke-miterlimit="10"/>
<path d="M897.27 287.14C883.87 325.62 860.44 360.45 829.52 389.42C886.52 442.81 968.83 476.36 1060.4 476.36C1083.13 476.373 1105.81 474.267 1128.15 470.07C1096.32 378.7 1007.87 308 897.27 287.14Z" fill="#010101" stroke="#070707" stroke-width="4" stroke-miterlimit="10"/>
<path d="M761.77 287.14C775.17 325.62 798.6 360.45 829.52 389.42C860.44 360.42 883.87 325.62 897.27 287.14C852.493 278.753 806.547 278.753 761.77 287.14Z" fill="#010101" stroke="#070707" stroke-width="4" stroke-miterlimit="10"/>
</svg>
