<svg width="1660" height="1660" viewBox="0 0 1660 1660" fill="none" xmlns="http://www.w3.org/2000/svg">
<path d="M615.31 452C696.08 459.35 771.31 491.36 836.31 542" stroke="url(#paint0_radial_1_23120)" stroke-width="20" stroke-miterlimit="10"/>
<path d="M1044.69 452C963.92 459.35 888.69 491.36 823.69 542" stroke="url(#paint1_radial_1_23120)" stroke-width="20" stroke-miterlimit="10"/>
<path d="M897.75 287.15C852.974 278.75 807.026 278.75 762.25 287.15C651.65 308 563.2 378.7 531.37 470.07C553.709 474.267 576.39 476.372 599.12 476.36C690.69 476.36 773.03 442.81 830 389.42C887 442.81 969.31 476.36 1060.88 476.36C1083.61 476.372 1106.29 474.267 1128.63 470.07C1096.8 378.7 1008.35 308 897.75 287.15Z" fill="url(#paint2_radial_1_23120)" stroke="#010101" stroke-width="4" stroke-miterlimit="10"/>
<defs>
<radialGradient id="paint0_radial_1_23120" cx="0" cy="0" r="1" gradientUnits="userSpaceOnUse" gradientTransform="translate(728.41 495.92) scale(89.18)">
<stop stop-color="#07A89C"/>
<stop offset="0.31" stop-color="#0AA998"/>
<stop offset="0.64" stop-color="#12AE8B"/>
<stop offset="0.98" stop-color="#1FB476"/>
<stop offset="1" stop-color="#20B574"/>
</radialGradient>
<radialGradient id="paint1_radial_1_23120" cx="0" cy="0" r="1" gradientUnits="userSpaceOnUse" gradientTransform="translate(931.59 495.92) scale(89.18)">
<stop stop-color="#07A89C"/>
<stop offset="0.31" stop-color="#0AA998"/>
<stop offset="0.64" stop-color="#12AE8B"/>
<stop offset="0.98" stop-color="#1FB476"/>
<stop offset="1" stop-color="#20B574"/>
</radialGradient>
<radialGradient id="paint2_radial_1_23120" cx="0" cy="0" r="1" gradientUnits="userSpaceOnUse" gradientTransform="translate(830 378.61) scale(222.19)">
<stop stop-color="#07A89C"/>
<stop offset="0.31" stop-color="#0AA998"/>
<stop offset="0.64" stop-color="#12AE8B"/>
<stop offset="0.98" stop-color="#1FB476"/>
<stop offset="1" stop-color="#20B574"/>
</radialGradient>
</defs>
</svg>
