<svg width="1660" height="1660" viewBox="0 0 1660 1660" fill="none" xmlns="http://www.w3.org/2000/svg">
<path d="M478.93 96C488.327 95.8384 497.283 91.9838 503.86 85.27C514.66 74.04 524.56 67.17 542.49 67.86C560.42 68.55 575.21 48.11 575.21 48.11L583.68 67C583.68 67 562.79 69.88 550.44 81.8C538.09 93.72 532.44 78.42 511.44 91.25C490.44 104.08 478.93 96 478.93 96Z" fill="#FFCA49" stroke="#010101" stroke-width="2" stroke-miterlimit="10"/>
<path d="M560 31.17C554.815 32.6466 550.124 35.493 546.42 39.41C543.32 42.69 540.98 46.64 537.77 49.8C531 56.52 521.11 58.85 512.07 62C507.49 63.59 502.84 65.58 499.6 69.19C493.97 75.47 493.7 85.44 487.6 91.19C485.082 93.3879 482.127 95.0273 478.93 96C487.061 95.7151 494.867 92.7356 501.12 87.53C507.6 82.11 512.12 74.53 518.93 69.53C526.77 63.86 536.72 62.29 546.13 60.05C555.54 57.81 565.44 54.27 570.88 46.27L560 31.17Z" fill="#FEE257" stroke="#010101" stroke-width="2" stroke-miterlimit="10"/>
<path d="M556.44 80.07C552.28 80.75 548.03 80.35 543.84 79.95C533.36 78.95 522.42 78.09 512.62 81.95C506.86 84.21 501.84 87.95 496.49 91.07C491.14 94.19 485.09 96.68 478.94 96.07C485.54 99.45 493.49 98.74 500.56 96.51C507.63 94.28 514.56 91.07 521.94 90.6C535.51 89.73 548.68 98.19 562.1 96.02C568.76 94.95 575.35 91.29 581.88 93.02L578.88 75.08C571.24 74 564.08 78.82 556.44 80.07Z" fill="#FCB65B" stroke="#010101" stroke-width="2" stroke-miterlimit="10"/>
<path d="M736.16 290.06C702.95 301.901 671.515 318.229 642.73 338.59C600.23 368.68 571.41 400.52 553.73 424.75L551.58 415.91L547 397.25L541.2 373.32L536.67 354.67L531.25 332.35L526.73 313.72L521.32 291.41L516.8 272.8L511.39 250.51L506.88 231.91L501.47 209.64L497 191.05L491.6 168.8L487.09 150.24L481.67 128L477.17 109.45L474 96.32L485.12 104.53L501.44 116.6L521.93 131.73L539.76 144.92L562 161.33L581.27 175.58L605.27 193.3L626 208.67L651.91 227.81L674.48 244.49L702.86 265.49L728 284L736.16 290.06Z" fill="#212121" stroke="#010101" stroke-width="4" stroke-miterlimit="10"/>
<path opacity="0.3" d="M633.92 342.55C580.26 259.91 530.92 183.92 477.23 101.28C549.87 172.18 617.73 236.59 690.38 307.49C680.82 312.3 670.84 317.81 660.23 324.43C650.49 330.5 641.89 336.6 633.92 342.55Z" fill="white"/>
<g opacity="0.51">
<path opacity="0.51" d="M489.99 127.1L497.41 116.64L484.6 117.11L479.19 109.83L485.85 136.46L494.39 139.13L489.99 127.1Z" fill="white"/>
<path opacity="0.51" d="M535.38 144.16L529.23 144.39L521.58 134.1L518.07 146.43L505.92 150.52L516.55 157.68L516.69 170.49L526.78 162.59L539 166.42L534.59 154.42L539.59 147.42C539.65 147.34 539.59 147.48 539.59 147.42" fill="white"/>
<path opacity="0.51" d="M502.17 195.8L509.59 185.35L497.81 185.78L503.04 206.74L506.57 207.84L502.17 195.8Z" fill="white"/>
<path opacity="0.51" d="M565.18 166.26L563.06 173.71L550.91 177.81L561.55 184.96L561.68 197.78L571.77 189.87L584.01 193.7L579.61 181.66L581.85 178.5L577.23 175.06L573.15 172.15L565.18 166.26Z" fill="white"/>
<path opacity="0.51" d="M534.13 202.81L530.61 215.13L518.46 219.23L529.1 226.38L529.24 239.2L539.33 231.29L551.56 235.12L547.16 223.08L554.58 212.63L541.77 213.1L534.13 202.81Z" fill="white"/>
<path opacity="0.51" d="M608.05 201L595.9 205.09L606.54 212.24L606.67 225.06L616.76 217.15L629 220.98L624.7 210.16L621.85 208.06L618.68 205.73L614.79 202.85L608.26 198.02" fill="white"/>
<path opacity="0.51" d="M514.37 254.31L516.19 261.62L521.57 254.05L514.37 254.31Z" fill="white"/>
<path opacity="0.51" d="M579.12 230.09L575.6 242.42L563.45 246.51L574.09 253.66L574.23 266.48L584.32 258.57L596.55 262.4L592.15 250.37L599.57 239.91L586.76 240.38L579.12 230.09Z" fill="white"/>
<path opacity="0.51" d="M650.68 229.4L640.89 232.37L651.53 239.52L651.66 252.34L661.75 244.44L673.99 248.27L673.23 246.05" fill="white"/>
<path opacity="0.51" d="M546.67 271.51L543.15 283.84L531.01 287.93L541.64 295.08L541.78 307.9L551.87 300L564.11 303.83L559.7 291.79L567.13 281.34L554.32 281.8L546.67 271.51Z" fill="white"/>
<path opacity="0.51" d="M619.22 293.76L629.31 285.86L641.54 289.69L637.14 277.65L644.56 267.2L631.75 267.66L624.11 257.37L620.59 269.7L608.44 273.79L619.08 280.95L619.22 293.76Z" fill="white"/>
<path opacity="0.51" d="M689.85 258.32L685.88 259.65L696.52 266.81L696.65 279.62L706.75 271.72L708.8 272.33" fill="white"/>
<path opacity="0.51" d="M599.31 309.08L591.66 298.8L588.15 311.12L576 315.21L586.63 322.37L586.77 335.19L596.86 327.28L609.1 331.11L604.7 319.07L612.12 308.62L599.31 309.08Z" fill="white"/>
<path opacity="0.51" d="M689.55 294.48L676.74 294.94L669.1 284.66L665.58 296.98L653.43 301.07L664.07 308.23L664.21 321.05L674.3 313.14L677.66 314.19L684.21 310.61L682.13 304.93L689.55 294.48Z" fill="white"/>
<path opacity="0.51" d="M566.86 350.51L559.22 340.22L555.7 352.54L543.55 356.64L554.19 363.79L554.33 376.61L564.42 368.7L576.65 372.53L572.25 360.49L579.67 350.04L566.86 350.51Z" fill="white"/>
</g>
</svg>
