<svg width="1660" height="1660" viewBox="0 0 1660 1660" fill="none" xmlns="http://www.w3.org/2000/svg">
<path d="M520.26 502.47C510.79 505.04 496.43 461.68 504.04 410.57C512.32 355.02 556.04 300.16 566.98 287.19C628.17 214.51 716.78 184.82 776.76 176.78C815.76 171.55 972.03 151.62 1116.31 278.78C1156.95 314.61 1216.07 398.78 1207.31 486.03C1202.76 531.6 1194.21 556.89 1170.55 586.17C1149.87 611.78 1125.68 618.78 1131.37 601.11C1134.88 590.2 1142.61 587.69 1137.79 527.66C1133.55 474.93 1109.58 452.83 1063.05 408.18C1010.4 357.66 937.48 331.61 870.83 319.75C800.26 307.24 722.4 318 667.56 342.08C615.67 364.83 582.44 395.16 571.99 407.32C533.78 451.74 531.92 499.31 520.26 502.47Z" fill="url(#paint0_linear_1_23380)" stroke="#010101" stroke-width="4" stroke-miterlimit="10"/>
<path fill-rule="evenodd" clip-rule="evenodd" d="M1156.55 585.83L1159.43 586.68C1159.91 585.06 1160.37 583.42 1160.75 581.74L1157.83 581.07C1157.46 582.66 1157 584.24 1156.55 585.83Z" fill="#010101"/>
<path d="M1155.36 589.576L1153.91 594.351L1156.78 595.222L1158.23 590.447L1155.36 589.576Z" fill="#010101"/>
<path fill-rule="evenodd" clip-rule="evenodd" d="M1150.9 602.54L1153.55 603.94C1154.37 602.377 1155.07 600.748 1155.62 599.07L1152.78 598.07C1152.28 599.611 1151.65 601.107 1150.9 602.54Z" fill="#010101"/>
<path fill-rule="evenodd" clip-rule="evenodd" d="M1159.78 559.53H1162.78C1162.78 557.85 1162.78 556.17 1162.78 554.53H1159.78C1159.81 556.22 1159.78 557.87 1159.78 559.53Z" fill="#010101"/>
<path fill-rule="evenodd" clip-rule="evenodd" d="M1159.47 568.41L1162.47 568.61C1162.55 566.93 1162.69 565.24 1162.71 563.56L1159.71 563.46C1159.68 565.12 1159.54 566.76 1159.47 568.41Z" fill="#010101"/>
<path fill-rule="evenodd" clip-rule="evenodd" d="M1158.56 577.2L1161.56 577.65C1161.81 575.95 1162.01 574.27 1162.16 572.59L1159.16 572.3C1159 573.94 1158.8 575.58 1158.56 577.2Z" fill="#010101"/>
<path fill-rule="evenodd" clip-rule="evenodd" d="M1158.33 532.81L1161.33 532.49C1161.16 530.83 1160.95 529.17 1160.77 527.49L1157.77 527.85C1158 529.51 1158.17 531.16 1158.33 532.81Z" fill="#010101"/>
<path fill-rule="evenodd" clip-rule="evenodd" d="M1159.14 541.69L1162.14 541.47C1162.02 539.797 1161.88 538.13 1161.72 536.47L1158.72 536.75C1158.91 538.39 1159.05 540.037 1159.14 541.69Z" fill="#010101"/>
<path fill-rule="evenodd" clip-rule="evenodd" d="M1159.64 550.56L1162.64 550.45C1162.57 548.77 1162.51 547.1 1162.39 545.45L1159.39 545.63C1159.51 547.25 1159.57 548.91 1159.64 550.56Z" fill="#010101"/>
<path fill-rule="evenodd" clip-rule="evenodd" d="M1154.49 506.31L1157.43 505.7C1157.09 504.05 1156.73 502.41 1156.33 500.77L1153.41 501.47C1153.8 503.07 1154.16 504.69 1154.49 506.31Z" fill="#010101"/>
<path fill-rule="evenodd" clip-rule="evenodd" d="M1156 515.07L1159 514.62C1158.74 512.98 1158.5 511.31 1158.19 509.62L1155.19 510.14C1155.52 511.79 1155.77 513.42 1156 515.07Z" fill="#010101"/>
<path fill-rule="evenodd" clip-rule="evenodd" d="M1157.27 523.88L1160.25 523.49L1159.56 518.52L1156.59 518.95L1157.27 523.88Z" fill="#010101"/>
<path fill-rule="evenodd" clip-rule="evenodd" d="M1146.62 480.88L1149.37 479.67C1148.7 478.11 1147.96 476.58 1147.21 475.06L1144.53 476.41C1145.25 477.89 1146 479.36 1146.62 480.88Z" fill="#010101"/>
<path fill-rule="evenodd" clip-rule="evenodd" d="M1149.84 489.14L1152.67 488.14C1152.13 486.54 1151.53 484.96 1150.93 483.37L1148.14 484.47C1148.72 486 1149.31 487.57 1149.84 489.14Z" fill="#010101"/>
<path fill-rule="evenodd" clip-rule="evenodd" d="M1152.43 497.6L1155.33 496.82C1154.89 495.19 1154.41 493.57 1153.92 491.95L1151.06 492.84C1151.53 494.42 1152 496 1152.43 497.6Z" fill="#010101"/>
<path fill-rule="evenodd" clip-rule="evenodd" d="M1133.59 457.56L1136.12 455.96L1133.38 451.74L1130.88 453.4L1133.59 457.56Z" fill="#010101"/>
<path fill-rule="evenodd" clip-rule="evenodd" d="M1138.23 465.18L1140.81 463.66C1139.96 462.22 1139.12 460.77 1138.22 459.35L1135.67 460.92C1136.55 462.32 1137.38 463.76 1138.23 465.18Z" fill="#010101"/>
<path fill-rule="evenodd" clip-rule="evenodd" d="M1142.65 472.9L1145.27 471.44L1142.81 467.07L1140.2 468.56L1142.65 472.9Z" fill="#010101"/>
<path fill-rule="evenodd" clip-rule="evenodd" d="M1117.91 435.9L1120.23 433.99C1119.17 432.657 1118.09 431.373 1116.99 430.14L1114.71 432.14C1115.8 433.35 1116.87 434.61 1117.91 435.9Z" fill="#010101"/>
<path fill-rule="evenodd" clip-rule="evenodd" d="M1123.44 442.88L1125.84 441.07L1122.75 437.09L1120.4 438.96L1123.44 442.88Z" fill="#010101"/>
<path fill-rule="evenodd" clip-rule="evenodd" d="M1128.63 450.09L1131.09 448.38C1130.14 447 1129.19 445.61 1128.19 444.27L1125.76 446.03C1126.75 447.36 1127.68 448.73 1128.63 450.09Z" fill="#010101"/>
<path fill-rule="evenodd" clip-rule="evenodd" d="M1099.87 416.1L1102 413.99L1098.46 410.45L1096.35 412.58L1099.87 416.1Z" fill="#010101"/>
<path fill-rule="evenodd" clip-rule="evenodd" d="M1106.06 422.53L1108.25 420.47C1107.11 419.237 1105.95 418.027 1104.78 416.84L1102.62 418.93C1103.79 420.11 1104.93 421.31 1106.06 422.53Z" fill="#010101"/>
<path fill-rule="evenodd" clip-rule="evenodd" d="M1112.08 429.08L1114.32 427.08L1110.95 423.35L1108.75 425.38L1112.08 429.08Z" fill="#010101"/>
<path fill-rule="evenodd" clip-rule="evenodd" d="M1080.62 397.37L1082.69 395.19C1081.47 394.05 1080.29 392.89 1079.05 391.76L1077 394C1078.22 395.06 1079.41 396.23 1080.62 397.37Z" fill="#010101"/>
<path fill-rule="evenodd" clip-rule="evenodd" d="M1087.09 403.54L1089.17 401.38L1085.57 397.92L1083.5 400.09L1087.09 403.54Z" fill="#010101"/>
<path fill-rule="evenodd" clip-rule="evenodd" d="M1093.49 409.75L1095.59 407.61L1092.01 404.11L1089.92 406.27L1093.49 409.75Z" fill="#010101"/>
<path fill-rule="evenodd" clip-rule="evenodd" d="M1060.48 379.7L1062.36 377.36L1058.41 374.25L1056.57 376.63L1060.48 379.7Z" fill="#010101"/>
<path fill-rule="evenodd" clip-rule="evenodd" d="M1067.36 385.38L1069.3 383.1L1065.47 379.85L1063.56 382.17L1067.36 385.38Z" fill="#010101"/>
<path fill-rule="evenodd" clip-rule="evenodd" d="M1074 391.25L1076 389.03C1074.76 387.91 1073.53 386.76 1072.27 385.66L1070.27 387.91C1071.59 389 1072.8 390.14 1074 391.25Z" fill="#010101"/>
<path fill-rule="evenodd" clip-rule="evenodd" d="M1038.84 363.91L1040.51 361.41C1039.11 360.49 1037.74 359.52 1036.33 358.63L1034.7 361.15C1036.1 362 1037.46 363 1038.84 363.91Z" fill="#010101"/>
<path fill-rule="evenodd" clip-rule="evenodd" d="M1046.21 368.94L1047.94 366.49C1046.61 365.49 1045.19 364.59 1043.81 363.64L1042.11 366.12C1043.48 367.06 1044.89 367.94 1046.21 368.94Z" fill="#010101"/>
<path fill-rule="evenodd" clip-rule="evenodd" d="M1053.39 374.18L1055.2 371.78L1051.14 368.82L1049.38 371.25L1053.39 374.18Z" fill="#010101"/>
<path fill-rule="evenodd" clip-rule="evenodd" d="M1016 349.93L1017.47 347.31C1016.02 346.48 1014.57 345.64 1013.07 344.89L1011.65 347.53C1013.1 348.27 1014.54 349.1 1016 349.93Z" fill="#010101"/>
<path fill-rule="evenodd" clip-rule="evenodd" d="M1023.72 354.36L1025.25 351.78L1020.89 349.29L1019.4 351.89L1023.72 354.36Z" fill="#010101"/>
<path fill-rule="evenodd" clip-rule="evenodd" d="M1031.3 359.03L1032.89 356.49L1028.63 353.83L1027.07 356.4L1031.3 359.03Z" fill="#010101"/>
<path fill-rule="evenodd" clip-rule="evenodd" d="M992.09 337.76L993.36 335.04C991.84 334.34 990.36 333.56 988.81 332.93L987.58 335.66C989.11 336.3 990.58 337.07 992.09 337.76Z" fill="#010101"/>
<path fill-rule="evenodd" clip-rule="evenodd" d="M1000.15 341.59L1001.48 338.9L996.95 336.75L995.66 339.46L1000.15 341.59Z" fill="#010101"/>
<path fill-rule="evenodd" clip-rule="evenodd" d="M1008.06 345.67L1009.46 343.01L1005.01 340.69L1003.65 343.36L1008.06 345.67Z" fill="#010101"/>
<path fill-rule="evenodd" clip-rule="evenodd" d="M967.38 327.36L968.45 324.55L963.77 322.75L962.74 325.57L967.38 327.36Z" fill="#010101"/>
<path fill-rule="evenodd" clip-rule="evenodd" d="M975.71 330.57L976.85 327.8C975.3 327.16 973.73 326.59 972.17 325.98L971.07 328.77C972.62 329.37 974.18 329.94 975.71 330.57Z" fill="#010101"/>
<path fill-rule="evenodd" clip-rule="evenodd" d="M983.89 334.08L985.09 331.33L980.48 329.36L979.32 332.12L983.89 334.08Z" fill="#010101"/>
<path fill-rule="evenodd" clip-rule="evenodd" d="M942.03 318.63L942.91 315.76L938.1 314.34L937.26 317.21L942.03 318.63Z" fill="#010101"/>
<path fill-rule="evenodd" clip-rule="evenodd" d="M950.53 321.35L951.48 318.5L946.73 316.89L945.82 319.75L950.53 321.35Z" fill="#010101"/>
<path fill-rule="evenodd" clip-rule="evenodd" d="M958.96 324.21L959.97 321.38L955.22 319.77L954.25 322.61L958.96 324.21Z" fill="#010101"/>
<path fill-rule="evenodd" clip-rule="evenodd" d="M916.16 311.55L916.86 308.64L914.43 308.02L911.98 307.5L911.31 310.43L913.75 310.94L916.16 311.55Z" fill="#010101"/>
<path fill-rule="evenodd" clip-rule="evenodd" d="M924.82 313.76L925.57 310.85L920.72 309.62L919.99 312.53L924.82 313.76Z" fill="#010101"/>
<path fill-rule="evenodd" clip-rule="evenodd" d="M933.41 316.07L934.23 313.19C932.62 312.71 931.03 312.19 929.4 311.83L928.62 314.72C930.23 315.11 931.82 315.6 933.41 316.07Z" fill="#010101"/>
<path fill-rule="evenodd" clip-rule="evenodd" d="M889.89 306.14L890.41 303.19L885.47 302.33L884.98 305.29L889.89 306.14Z" fill="#010101"/>
<path fill-rule="evenodd" clip-rule="evenodd" d="M898.68 307.74L899.26 304.79C897.63 304.42 895.98 304.14 894.33 303.86L893.78 306.81C895.42 307.08 897.06 307.37 898.68 307.74Z" fill="#010101"/>
<path fill-rule="evenodd" clip-rule="evenodd" d="M907.38 309.59L908.02 306.66L903.12 305.62L902.51 308.55L907.38 309.59Z" fill="#010101"/>
<path fill-rule="evenodd" clip-rule="evenodd" d="M863.37 302.07L863.74 299.1L858.76 298.51L858.42 301.49L863.37 302.07Z" fill="#010101"/>
<path fill-rule="evenodd" clip-rule="evenodd" d="M872.22 303.25L872.65 300.28L867.68 299.61L867.29 302.58L872.22 303.25Z" fill="#010101"/>
<path fill-rule="evenodd" clip-rule="evenodd" d="M881 304.61L881.47 301.61C879.83 301.31 878.18 301.05 876.53 300.82L876.09 303.82C877.75 304.06 879.39 304.32 881 304.61Z" fill="#010101"/>
<path fill-rule="evenodd" clip-rule="evenodd" d="M836.66 299.57L836.85 296.57C835.18 296.43 833.51 296.39 831.85 296.3L831.7 299.3C833.35 299.39 835 299.43 836.66 299.57Z" fill="#010101"/>
<path fill-rule="evenodd" clip-rule="evenodd" d="M845.57 300.21L845.82 297.23L840.82 296.87L840.6 299.86L845.57 300.21Z" fill="#010101"/>
<path fill-rule="evenodd" clip-rule="evenodd" d="M854.43 301.06L854.74 298.07L849.75 297.59L849.47 300.58L854.43 301.06Z" fill="#010101"/>
<path fill-rule="evenodd" clip-rule="evenodd" d="M809.85 298.74V295.74L804.84 295.82L804.88 298.82L809.85 298.74Z" fill="#010101"/>
<path fill-rule="evenodd" clip-rule="evenodd" d="M818.78 298.86L818.84 295.86L813.83 295.79L813.8 298.79L818.78 298.86Z" fill="#010101"/>
<path fill-rule="evenodd" clip-rule="evenodd" d="M827.68 299.13L827.8 296.13C826.13 296.06 824.46 295.97 822.8 295.92L822.71 298.92C824.36 299 826 299.06 827.68 299.13Z" fill="#010101"/>
<path fill-rule="evenodd" clip-rule="evenodd" d="M783.05 299.66L782.85 296.66C781.18 296.75 779.52 296.94 777.85 297.07L778.09 300.07C779.74 299.93 781.39 299.74 783.05 299.66Z" fill="#010101"/>
<path fill-rule="evenodd" clip-rule="evenodd" d="M791.97 299.2L791.83 296.2L786.82 296.46L787 299.45L791.97 299.2Z" fill="#010101"/>
<path fill-rule="evenodd" clip-rule="evenodd" d="M800.86 298.89L800.79 295.89C799.12 295.89 797.45 295.89 795.79 296L795.89 299C797.54 298.92 799.2 298.93 800.86 298.89Z" fill="#010101"/>
<path fill-rule="evenodd" clip-rule="evenodd" d="M756.38 302.4L755.97 299.43L751 300.07L751.44 303.03L756.38 302.4Z" fill="#010101"/>
<path fill-rule="evenodd" clip-rule="evenodd" d="M765.23 301.27L764.9 298.29L759.92 298.92L760.29 301.9L765.23 301.27Z" fill="#010101"/>
<path fill-rule="evenodd" clip-rule="evenodd" d="M774.09 300.42L773.82 297.43L768.83 297.87L769.13 300.85L774.09 300.42Z" fill="#010101"/>
<path fill-rule="evenodd" clip-rule="evenodd" d="M729.95 306.93L729.34 303.99L724.44 305.05L725.09 307.98L729.95 306.93Z" fill="#010101"/>
<path fill-rule="evenodd" clip-rule="evenodd" d="M738.71 305.2L738.17 302.25C736.53 302.55 734.86 302.76 733.23 303.15L733.81 306.09C735.43 305.71 737.08 305.5 738.71 305.2Z" fill="#010101"/>
<path fill-rule="evenodd" clip-rule="evenodd" d="M747.48 303.7L747.01 300.74L742.07 301.58L742.58 304.54L747.48 303.7Z" fill="#010101"/>
<path fill-rule="evenodd" clip-rule="evenodd" d="M703.91 313.28L703.09 310.39C701.47 310.82 699.85 311.23 698.27 311.77L699.12 314.65C700.69 314.11 702.3 313.71 703.91 313.28Z" fill="#010101"/>
<path fill-rule="evenodd" clip-rule="evenodd" d="M712.53 310.98L711.78 308.08L706.94 309.37L707.72 312.26L712.53 310.98Z" fill="#010101"/>
<path fill-rule="evenodd" clip-rule="evenodd" d="M721.17 308.83L720.49 305.91C718.85 306.26 717.21 306.6 715.6 307.06L716.32 309.97C717.92 309.51 719.54 309.18 721.17 308.83Z" fill="#010101"/>
<path fill-rule="evenodd" clip-rule="evenodd" d="M678.41 321.56L677.39 318.74L672.69 320.51L673.76 323.32L678.41 321.56Z" fill="#010101"/>
<path fill-rule="evenodd" clip-rule="evenodd" d="M686.83 318.58L685.83 315.74C684.24 316.27 682.62 316.74 681.07 317.34L682.07 320.17C683.65 319.54 685.25 319.11 686.83 318.58Z" fill="#010101"/>
<path fill-rule="evenodd" clip-rule="evenodd" d="M695.3 315.87L694.41 313.01L689.63 314.54L690.56 317.39L695.3 315.87Z" fill="#010101"/>
<path fill-rule="evenodd" clip-rule="evenodd" d="M653.47 331.45L652.29 328.69L647.69 330.69L648.9 333.43L653.47 331.45Z" fill="#010101"/>
<path fill-rule="evenodd" clip-rule="evenodd" d="M661.72 327.99L660.57 325.22L655.95 327.14L657.11 329.91L661.72 327.99Z" fill="#010101"/>
<path fill-rule="evenodd" clip-rule="evenodd" d="M670 324.74L668.91 321.94L664.22 323.72L665.35 326.5L670 324.74Z" fill="#010101"/>
<path fill-rule="evenodd" clip-rule="evenodd" d="M629.24 342.89L627.84 340.24L623.41 342.6L624.85 345.23L629.24 342.89Z" fill="#010101"/>
<path fill-rule="evenodd" clip-rule="evenodd" d="M637.19 338.85L635.88 336.16L631.38 338.4L632.74 341.08L637.19 338.85Z" fill="#010101"/>
<path fill-rule="evenodd" clip-rule="evenodd" d="M645.25 335.08L644 332.35C642.47 333.02 641 333.74 639.45 334.46L640.73 337.17C642.23 336.46 643.73 335.75 645.25 335.08Z" fill="#010101"/>
<path fill-rule="evenodd" clip-rule="evenodd" d="M606.23 356.56L604.56 354.07C603.15 354.98 601.8 355.98 600.42 356.94L602.14 359.39C603.51 358.45 604.84 357.46 606.23 356.56Z" fill="#010101"/>
<path fill-rule="evenodd" clip-rule="evenodd" d="M613.72 351.74L612.15 349.19C610.7 350.04 609.3 350.97 607.9 351.89L609.53 354.41C610.92 353.5 612.3 352.58 613.72 351.74Z" fill="#010101"/>
<path fill-rule="evenodd" clip-rule="evenodd" d="M621.37 347.21L619.88 344.6C618.42 345.43 616.96 346.24 615.53 347.13L617.07 349.71C618.48 348.83 619.93 348 621.37 347.21Z" fill="#010101"/>
<path fill-rule="evenodd" clip-rule="evenodd" d="M584.91 372.73L582.96 370.45L579.19 373.78L581.19 376.02L584.91 372.73Z" fill="#010101"/>
<path fill-rule="evenodd" clip-rule="evenodd" d="M591.79 367.07L589.93 364.71L586.04 367.9L587.95 370.21L591.79 367.07Z" fill="#010101"/>
<path fill-rule="evenodd" clip-rule="evenodd" d="M598.87 361.69L597.1 359.27L593.08 362.31L594.9 364.69L598.87 361.69Z" fill="#010101"/>
<path fill-rule="evenodd" clip-rule="evenodd" d="M565.62 391.27L563.42 389.23L560.07 393L562.32 394.98L565.62 391.27Z" fill="#010101"/>
<path fill-rule="evenodd" clip-rule="evenodd" d="M571.8 384.85L569.68 382.73L566.19 386.35L568.36 388.43L571.8 384.85Z" fill="#010101"/>
<path fill-rule="evenodd" clip-rule="evenodd" d="M578.21 378.7L576.17 376.49L572.53 379.97L574.62 382.13L578.21 378.7Z" fill="#010101"/>
<path fill-rule="evenodd" clip-rule="evenodd" d="M548.77 412.03L546.33 410.29L543.48 414.44L545.96 416.12L548.77 412.03Z" fill="#010101"/>
<path fill-rule="evenodd" clip-rule="evenodd" d="M554.08 404.87L551.71 403.03L548.7 407.07L551.11 408.86L554.08 404.87Z" fill="#010101"/>
<path fill-rule="evenodd" clip-rule="evenodd" d="M559.67 397.98L557.38 396.04L554.21 399.95L556.54 401.83L559.67 397.98Z" fill="#010101"/>
<path fill-rule="evenodd" clip-rule="evenodd" d="M534.58 434.71L531.95 433.26L529.54 437.68L532.2 439.07L534.58 434.71Z" fill="#010101"/>
<path fill-rule="evenodd" clip-rule="evenodd" d="M539.02 426.98L536.45 425.44L533.9 429.78L536.5 431.26L539.02 426.98Z" fill="#010101"/>
<path fill-rule="evenodd" clip-rule="evenodd" d="M543.72 419.45L541.21 417.81L538.52 422.06L541.06 423.64L543.72 419.45Z" fill="#010101"/>
<path fill-rule="evenodd" clip-rule="evenodd" d="M522.86 458.78L520.1 457.61L518.18 462.25L520.97 463.38L522.86 458.78Z" fill="#010101"/>
<path fill-rule="evenodd" clip-rule="evenodd" d="M526.5 450.64L523.78 449.38C523.05 450.89 522.39 452.38 521.71 453.96L524.45 455.17C525.12 453.66 525.78 452.13 526.5 450.64Z" fill="#010101"/>
<path fill-rule="evenodd" clip-rule="evenodd" d="M530.39 442.65L527.71 441.29C526.96 442.79 526.17 444.29 525.47 445.8L528.18 447.1C528.86 445.59 529.65 444.13 530.39 442.65Z" fill="#010101"/>
<path fill-rule="evenodd" clip-rule="evenodd" d="M513.49 483.88L510.64 482.95C510.113 484.543 509.603 486.137 509.11 487.73L511.97 488.62C512.46 487 513 485.45 513.49 483.88Z" fill="#010101"/>
<path fill-rule="evenodd" clip-rule="evenodd" d="M516.37 475.43L513.54 474.43L511.89 479.17L514.73 480.13L516.37 475.43Z" fill="#010101"/>
<path fill-rule="evenodd" clip-rule="evenodd" d="M519.49 467.11L516.69 466.02C516.1 467.58 515.46 469.13 514.9 470.71L517.71 471.71C518.26 470.19 518.9 468.66 519.49 467.11Z" fill="#010101"/>
<path fill-rule="evenodd" clip-rule="evenodd" d="M894.74 203.26L891.74 203.78C892.07 205.56 892.31 207.36 892.57 209.15L895.57 208.75C895.33 206.92 895.08 205.08 894.74 203.26Z" fill="#010101"/>
<path fill-rule="evenodd" clip-rule="evenodd" d="M892.68 193.51L889.77 194.23C890.22 195.99 890.61 197.76 890.98 199.54L893.92 198.93C893.54 197.12 893.14 195.3 892.68 193.51Z" fill="#010101"/>
<path fill-rule="evenodd" clip-rule="evenodd" d="M890 184L887.15 184.93C887.71 186.65 888.23 188.39 888.73 190.13L891.62 189.32C891.06 187.5 890.52 185.72 890 184Z" fill="#010101"/>
<path fill-rule="evenodd" clip-rule="evenodd" d="M896.69 233.08L893.69 232.95C893.58 234.76 893.51 236.57 893.34 238.38L896.34 238.63C896.5 236.78 896.57 234.93 896.69 233.08Z" fill="#010101"/>
<path fill-rule="evenodd" clip-rule="evenodd" d="M896.75 223.12L893.75 223.2C893.83 225.01 893.75 226.83 893.81 228.64H896.81C896.79 226.82 896.83 225 896.75 223.12Z" fill="#010101"/>
<path fill-rule="evenodd" clip-rule="evenodd" d="M896.11 213.2L893.12 213.5L893.38 216.21L893.56 218.92L896.55 218.74L896.37 215.97L896.11 213.2Z" fill="#010101"/>
<path fill-rule="evenodd" clip-rule="evenodd" d="M892.18 262.62L889.28 261.86C888.79 263.6 888.34 265.36 887.77 267.08L890.64 267.96C891.21 266.2 891.68 264.41 892.18 262.62Z" fill="#010101"/>
<path fill-rule="evenodd" clip-rule="evenodd" d="M894.4 252.91L891.45 252.35C891.07 254.12 890.75 255.91 890.32 257.67L893.24 258.34C893.68 256.54 894 254.72 894.4 252.91Z" fill="#010101"/>
<path fill-rule="evenodd" clip-rule="evenodd" d="M895.89 243.09L892.89 242.74C892.64 244.54 892.44 246.34 892.15 248.13L895.15 248.59C895.43 246.76 895.64 244.92 895.89 243.09Z" fill="#010101"/>
<path fill-rule="evenodd" clip-rule="evenodd" d="M881.48 290.53L878.81 289.16C877.98 290.77 877.13 292.37 876.24 293.95L878.85 295.42C879.76 293.81 880.63 292.17 881.48 290.53Z" fill="#010101"/>
<path fill-rule="evenodd" clip-rule="evenodd" d="M885.7 281.5L882.94 280.33C882.22 281.99 881.49 283.65 880.71 285.33L883.42 286.61C884.22 284.9 885 283.2 885.7 281.5Z" fill="#010101"/>
<path fill-rule="evenodd" clip-rule="evenodd" d="M889.25 272.22L886.42 271.22C885.85 272.94 885.19 274.63 884.56 276.33L887.35 277.42C888 275.71 888.67 274 889.25 272.22Z" fill="#010101"/>
<path fill-rule="evenodd" clip-rule="evenodd" d="M911.2 204.13L908.2 204.64C908.53 206.42 908.77 208.22 909.03 210.01L912.03 209.62C911.79 207.78 911.54 206 911.2 204.13Z" fill="#010101"/>
<path fill-rule="evenodd" clip-rule="evenodd" d="M909.15 194.37L906.24 195.1C906.69 196.85 907.07 198.63 907.44 200.4L910.38 199.79C910 198 909.61 196.17 909.15 194.37Z" fill="#010101"/>
<path fill-rule="evenodd" clip-rule="evenodd" d="M906.42 184.82L903.56 185.75C904.12 187.48 904.65 189.21 905.14 190.96L908.03 190.14C907.52 188.36 907 186.59 906.42 184.82Z" fill="#010101"/>
<path fill-rule="evenodd" clip-rule="evenodd" d="M913.15 234L910.15 233.87C910.03 235.68 909.96 237.49 909.79 239.29L912.79 239.54C913 237.65 913 235.79 913.15 234Z" fill="#010101"/>
<path fill-rule="evenodd" clip-rule="evenodd" d="M913.21 224L910.21 224.09C910.3 225.9 910.21 227.71 910.27 229.52H913.27C913.25 227.68 913.3 225.83 913.21 224Z" fill="#010101"/>
<path fill-rule="evenodd" clip-rule="evenodd" d="M912.57 214.07L909.59 214.37L909.84 217.08L910.02 219.79L913.02 219.61L912.83 216.83L912.57 214.07Z" fill="#010101"/>
<path fill-rule="evenodd" clip-rule="evenodd" d="M908.64 263.49L905.74 262.72C905.26 264.47 904.8 266.22 904.24 267.94L907.1 268.83C907.68 267.07 908.14 265.27 908.64 263.49Z" fill="#010101"/>
<path fill-rule="evenodd" clip-rule="evenodd" d="M910.86 253.77L907.86 253.21C907.48 254.98 907.16 256.77 906.73 258.53L909.65 259.21C910.14 257.41 910.47 255.58 910.86 253.77Z" fill="#010101"/>
<path fill-rule="evenodd" clip-rule="evenodd" d="M912.36 244L909.36 243.66C909.11 245.45 908.9 247.25 908.62 249.04L911.62 249.51C911.89 247.63 912.1 245.79 912.36 244Z" fill="#010101"/>
<path fill-rule="evenodd" clip-rule="evenodd" d="M897.94 291.39L895.27 290C894.44 291.62 893.59 293.21 892.7 294.79L895.31 296.27C896.223 294.663 897.1 293.037 897.94 291.39Z" fill="#010101"/>
<path fill-rule="evenodd" clip-rule="evenodd" d="M902.17 282.36L899.41 281.19C898.68 282.85 897.96 284.52 897.18 286.19L899.89 287.47C900.69 285.76 901.43 284.06 902.17 282.36Z" fill="#010101"/>
<path fill-rule="evenodd" clip-rule="evenodd" d="M905.72 273.09L902.88 272.09C902.31 273.82 901.65 275.5 901.02 277.2L903.82 278.29C904.46 276.57 905.14 274.85 905.72 273.09Z" fill="#010101"/>
<defs>
<linearGradient id="paint0_linear_1_23380" x1="573.1" y1="601.07" x2="1131.85" y2="278.48" gradientUnits="userSpaceOnUse">
<stop offset="0.1" stop-color="#44282C"/>
<stop offset="0.38" stop-color="#482A2D"/>
<stop offset="0.63" stop-color="#523230"/>
<stop offset="0.86" stop-color="#643F35"/>
<stop offset="1" stop-color="#734939"/>
</linearGradient>
</defs>
</svg>
