<svg width="1660" height="1660" viewBox="0 0 1660 1660" fill="none" xmlns="http://www.w3.org/2000/svg">
<path d="M1124.31 464.27V605.09C1120.62 605.09 1117.07 603.622 1114.46 601.01C1111.85 598.398 1110.38 594.854 1110.38 591.16V478.16C1110.39 474.472 1111.86 470.94 1114.47 468.336C1117.09 465.732 1120.62 464.27 1124.31 464.27V464.27Z" fill="#12AA86"/>
<path d="M1115 461.64V607.72C1115 613.958 1117.48 619.94 1121.89 624.351C1126.3 628.762 1132.28 631.24 1138.52 631.24H1176.9V438.12H1138.52C1132.28 438.12 1126.3 440.598 1121.89 445.009C1117.48 449.42 1115 455.402 1115 461.64V461.64Z" fill="#231F20"/>
<path d="M1176.92 438.12V631.24H1181.56C1191.48 630.984 1200.91 626.864 1207.84 619.756C1214.77 612.648 1218.65 603.116 1218.65 593.19V476.19C1218.65 466.263 1214.77 456.729 1207.84 449.621C1200.92 442.513 1191.48 438.393 1181.56 438.14H1180.56L1176.92 438.12Z" fill="#12AA86"/>
<path d="M1176.92 438.12V631.24H1181.56V438.14H1180.56L1176.92 438.12Z" fill="#168566"/>
<path opacity="0.21" d="M1115 528.41V607.72C1115 613.958 1117.48 619.94 1121.89 624.351C1126.3 628.762 1132.28 631.24 1138.52 631.24H1181.52C1191.44 630.984 1200.87 626.864 1207.8 619.756C1214.73 612.648 1218.61 603.116 1218.61 593.19V528.41H1115Z" fill="#010101"/>
<path d="M529.4 464.27V605.09C531.229 605.09 533.04 604.73 534.729 604.029C536.419 603.329 537.954 602.303 539.246 601.009C540.539 599.716 541.564 598.18 542.263 596.49C542.962 594.8 543.321 592.989 543.32 591.16V478.16C543.309 474.474 541.839 470.943 539.229 468.339C536.62 465.736 533.086 464.273 529.4 464.27V464.27Z" fill="#12AA86"/>
<path d="M538.68 461.64V607.72C538.68 613.958 536.202 619.94 531.791 624.351C527.38 628.762 521.398 631.24 515.16 631.24H476.78V438.12H515.16C521.398 438.12 527.38 440.598 531.791 445.009C536.202 449.42 538.68 455.402 538.68 461.64V461.64Z" fill="#231F20"/>
<path d="M476.78 438.12V631.24H472.14C462.218 630.984 452.789 626.863 445.862 619.755C438.936 612.647 435.059 603.115 435.06 593.19V476.19C435.059 466.265 438.936 456.733 445.862 449.625C452.789 442.517 462.218 438.396 472.14 438.14H473.14L476.78 438.12Z" fill="#12AA86"/>
<path d="M476.78 438.12V631.24H472.14V438.14H473.14L476.78 438.12Z" fill="#168566"/>
<path opacity="0.21" d="M538.68 528.41V607.72C538.68 613.958 536.202 619.94 531.791 624.351C527.38 628.762 521.398 631.24 515.16 631.24H472.16C462.238 630.984 452.809 626.863 445.882 619.755C438.956 612.647 435.079 603.115 435.08 593.19V528.41H538.68Z" fill="#010101"/>
<path d="M510.37 448.73C532.13 314 693.4 203.61 849.66 212.58C992 220.75 1128.63 301.16 1148 444" stroke="#231F20" stroke-width="40" stroke-miterlimit="10"/>
</svg>
