<svg width="1660" height="1660" viewBox="0 0 1660 1660" fill="none" xmlns="http://www.w3.org/2000/svg">
<path opacity="0.66" d="M1153.51 524.84C1143.28 499.23 1111.34 461.3 1083.74 444.44C1067.02 434.23 1003.52 397.53 882.18 390.15C849.32 388.15 792.95 385.15 721.35 400.33C669.65 411.33 612.17 424.25 562.68 470.58C520.89 509.71 518.46 544.04 518.58 558.58C518.69 572.58 519.64 582.79 523.27 601.03C525.49 612.21 543.72 576.42 574.08 553.69C589.46 542.19 609.88 535.91 650.08 523.83C685.3 513.26 724 501.83 777.66 495.33C804.231 492.113 830.975 490.527 857.74 490.58C933.15 490.74 1012.74 491.94 1057.31 524.86C1078.54 540.57 1102.16 553.62 1122.08 572.14C1128.76 578.35 1129.41 579.81 1135.2 586.07" fill="#151717"/>
<path d="M513 559.4C509.36 558.1 512.07 546.86 514.33 509.33C516.38 475.39 514.99 470.88 518.39 454.33C521.56 438.87 524.16 436.06 530.14 415.55C538.58 386.55 539.23 372.18 542.22 359.85C554.67 308.51 616.22 258.09 673.89 252.3C696.16 250.07 703.36 255.95 728.76 249.84C758.82 242.6 761.18 230.5 794.55 220.58C819.66 213.11 850.6 204.34 872.14 219.28C884.31 227.72 881.7 235.55 894.47 243.96C912.9 256.08 932.2 248.9 955.59 247.49C995.35 245.08 1032.89 260.25 1054.31 275.69C1095.17 305.14 1106.45 356.08 1109.56 370.14C1120.67 420.35 1126.5 433.23 1126.5 470.61C1126.5 481.55 1149.13 486.76 1157.73 501.34C1160.25 505.61 1170.64 519.13 1165.96 535.43C1157.96 563.43 1151.9 549.09 1137.44 582.55C1140.92 571.804 1143.39 560.756 1144.81 549.55C1145.81 541.6 1148.03 524.05 1143.63 511.94C1135.68 490.06 1104.88 482.46 1080.17 476.68C987.49 455.03 941.17 444.21 936.78 443.78C885.66 438.73 850.56 440.78 780.47 444.95C703.11 449.52 667.91 456.86 639.84 464.83C580.22 481.74 560.59 499.25 551.67 508.47C528.11 532.75 518.86 561.52 513 559.4Z" fill="url(#paint0_linear_1_23561)" stroke="#010101" stroke-width="4" stroke-miterlimit="10"/>
<path d="M516.46 521.61C518.46 507.04 529.46 499.92 544.82 490.61C567.696 476.819 592.224 465.977 617.82 458.34C657.75 445.99 688.82 439.18 696.21 437.59C737.11 428.69 765 422.64 803 419.76C849.85 416.21 885.48 419.51 913 422.18C954.291 426.128 995.172 433.582 1035.2 444.46C1035.2 444.46 1099.59 459.2 1129.57 480.06C1141.03 488.06 1152.26 495.52 1154.3 497.84C1162.94 507.65 1165.13 514.99 1166.06 518.43C1166.6 520.43 1167.06 529.57 1162.8 541.26C1160.18 548.45 1155.57 551.46 1148.02 560.51C1146.02 562.85 1145.28 565.17 1144.47 564.94C1142.85 564.48 1146.25 554.56 1147.04 541.11C1147.83 527.66 1148.39 520.44 1145.18 511.88C1141.71 502.63 1134.18 496.99 1131.32 494.38C1118.08 482.19 1103.95 479.91 1081.58 474.7C1054.65 468.42 1058.1 470.31 1029.14 462.91C1006.92 457.24 1006.53 456.39 969.14 448.91C943.5 443.79 947.14 442.54 932.83 440.91C922.5 439.76 909.67 438.67 861.33 438.86C837.98 438.96 825.86 440.39 809.09 441.14C791.62 441.92 763.28 443.02 718.25 448.14C688.61 451.52 668.79 454.2 644.56 460.82C618 468.12 602.7 474 580.26 485.48C560.184 495.816 543.109 511.148 530.68 530C521.05 544.48 513.74 559.42 513.85 555.68C514.44 536.52 514.44 536.52 516.46 521.61Z" fill="#0C0D0D" stroke="#010101" stroke-width="4" stroke-miterlimit="10"/>
<path d="M565.94 317.75C568.94 318.75 563.22 339.07 562.49 342.25C558.55 359.63 556.49 357.89 555.58 366.07C554.64 374.91 558.66 386.93 566.74 410.6C570.74 422.17 571.34 423.01 571.74 426.79C573.08 440.26 561.19 445.19 560.98 460.6C560.88 467.71 565.74 475.26 561.31 477.76C549.31 484.56 546.64 486.62 539.11 492.37C534.32 496.03 535.69 471.65 539.58 462.93C544.98 450.85 551.82 450.88 553.58 441.77C554.71 435.89 552.15 434.38 546.07 415.5C541.87 402.45 539.77 395.92 539.93 390.59C540.27 379.06 545.35 378.03 546.41 363.29C547.1 353.71 546.2 354.87 548.12 347.78C549.54 342.56 552.69 337.27 558.05 328.78C563 320.92 564.69 317.32 565.94 317.75Z" fill="#EAEAE8"/>
<path d="M817.54 216.51C818.15 223.3 818.75 231.13 819.28 243.19C819.99 259.66 819.85 271.66 819.79 279.41C819.45 322.13 820.91 324.74 820.3 345.74C819.58 369.489 817.019 393.147 812.64 416.5" stroke="#EAEAE8" stroke-width="4" stroke-miterlimit="10"/>
<path d="M839.89 213.39C840.51 220.18 841.37 231.13 841.89 243.19C842.6 259.66 842.46 271.66 842.4 279.41C842.06 322.13 843.53 324.74 842.91 345.74C842.182 369.2 839.624 392.568 835.26 415.63" stroke="#EAEAE8" stroke-width="4" stroke-miterlimit="10"/>
<path d="M862.22 217.45C862.83 224.23 864.22 239.05 864.73 251.11C865.45 267.58 865.3 279.58 865.24 287.33C864.91 330.05 866.37 332.65 865.75 353.65C865.26 370.49 864.82 386.48 859.35 415.65" stroke="#EAEAE8" stroke-width="4" stroke-miterlimit="10"/>
<path d="M1100.78 349.36C1099.2 349.47 1098.56 367.36 1102.18 380.23V380.36C1103.46 384.91 1106.35 395.15 1106.35 399.87C1106.35 407.16 1099.44 408.37 1093.92 417.37C1086.14 430.07 1082.92 455.12 1096.03 461.46C1104.93 465.75 1108.03 466.64 1114.93 469.24C1119.01 470.78 1105.52 455.48 1107.29 442.44C1108.41 434.1 1114.74 432.9 1116.64 423.73C1118.43 415.13 1114.44 408.59 1111.03 400.81C1098.93 373.13 1102.59 349.22 1100.78 349.36Z" fill="#EAEAE8"/>
<defs>
<linearGradient id="paint0_linear_1_23561" x1="546.31" y1="618.04" x2="1084.55" y2="307.28" gradientUnits="userSpaceOnUse">
<stop offset="0.27" stop-color="#18181A"/>
<stop offset="0.5" stop-color="#272625"/>
<stop offset="0.93" stop-color="#4D4C41"/>
<stop offset="1" stop-color="#545246"/>
</linearGradient>
</defs>
</svg>
