<svg width="1660" height="1660" viewBox="0 0 1660 1660" fill="none" xmlns="http://www.w3.org/2000/svg">
<path d="M861.65 720C820.5 721.1 763.65 682.07 764.46 676.38C764.84 673.88 770.52 676.98 785.82 671.26C800.63 665.73 802.17 660.86 811.53 660.42C822.08 659.92 822.53 665.98 834.28 666.42C847.6 666.94 849.84 659.28 862.72 660.49C868.57 661.05 868.56 662.67 882.32 667.79C901.52 674.93 901.77 674.43 902.14 677.13C903 683.45 898.61 719 861.65 720Z" fill="#28181C"/>
<path d="M859.45 638C850.97 635.38 846.24 638.55 846.24 638.55C841.53 641.25 841.81 644.97 837.24 647.32C831.34 650.32 824.75 647.39 823.92 647.01C818.92 644.67 818.74 641.43 814.34 639.37C809.21 636.96 803.93 638.81 800.34 640.08C790.75 643.45 775.14 657.38 757.99 679C754.55 683.34 747.45 694.17 755.68 694.38C801.36 695.51 804.68 725.94 832.2 740.49C866.98 758.87 907.31 732.16 908.05 694.06C908.17 687.7 909.37 681.42 904.92 676.87C882.56 654.13 865 639.74 859.45 638ZM845.89 708.78C814.04 668.78 760.89 692.35 761.77 686.78C762.53 682.21 767.77 687.25 782.77 681.65C797.27 676.23 798.77 671.46 807.96 671.03C818.29 670.54 818.71 676.48 830.23 676.93C843.28 677.44 850.06 673.52 862.09 671.1C867.73 669.96 868.19 672.37 881.67 677.38C900.47 684.38 900.07 682.38 900.43 685.04C901.22 691.22 861.1 727.93 845.89 708.81V708.78Z" fill="url(#paint0_radial_1_22993)" stroke="#010101" stroke-width="4" stroke-miterlimit="10"/>
<path d="M890.64 683.85C889.96 682.77 893.5 682.09 886 679.02C874 674.11 868.81 671.02 864.33 670.9C863.73 670.9 864.18 670.9 846.84 674.9C843.718 675.593 840.55 676.058 837.36 676.29C830.57 676.82 826.92 675.53 816.42 672.55C813.257 671.474 809.916 671.016 806.58 671.2C801.58 671.2 785.58 681.85 782.72 682.44C782.72 685.1 784.45 684.98 784.48 684.93C784.66 684.48 782.69 684.65 782.72 684.44C782.9 683.39 819.64 691.64 863.84 689.07C869.37 688.79 892.62 687 890.64 683.85Z" fill="url(#paint1_radial_1_22993)" stroke="#010101" stroke-width="4" stroke-miterlimit="10"/>
<path d="M861.65 720.08C820.5 721.18 763.65 682.15 764.46 676.46C764.84 673.96 770.52 677.06 785.82 671.34C800.63 665.81 802.17 660.94 811.53 660.5C822.08 660 822.53 666.06 834.28 666.5C847.6 667.02 849.84 659.35 862.72 660.57C868.57 661.12 868.56 662.75 882.32 667.87C901.52 675.01 901.77 674.51 902.14 677.2C903 683.49 898.61 719.09 861.65 720.08Z" fill="#28181C"/>
<path d="M859.45 638.08C850.97 635.46 846.24 638.63 846.24 638.63C841.53 641.33 841.81 645.05 837.24 647.4C831.34 650.4 824.75 647.47 823.92 647.08C818.92 644.75 818.74 641.51 814.34 639.44C809.21 637.03 803.93 638.89 800.34 640.16C790.75 643.53 775.14 657.46 757.99 679.07C754.55 683.42 747.45 694.25 755.68 694.46C801.36 695.59 804.68 726.02 832.2 740.57C866.98 758.95 907.31 732.24 908.05 694.14C908.17 687.77 909.37 681.5 904.92 676.95C882.56 654.17 865 639.79 859.45 638.08ZM845.89 708.86C814.04 668.86 760.89 692.43 761.77 686.86C762.53 682.29 767.77 687.33 782.77 681.73C797.27 676.31 798.77 671.54 807.96 671.11C818.29 670.62 818.71 676.56 830.23 677.01C843.28 677.51 850.06 673.6 862.09 671.18C867.73 670.04 868.19 672.44 881.67 677.46C900.47 684.46 900.07 682.46 900.43 685.12C901.22 691.27 861.1 728 845.89 708.86V708.86Z" fill="url(#paint2_radial_1_22993)" stroke="#010101" stroke-width="4" stroke-miterlimit="10"/>
<path d="M890.64 683.9C889.96 682.82 893.5 682.13 886 679.06C874 674.16 868.81 671.06 864.33 670.95C863.73 670.95 864.18 670.95 846.84 674.95C843.718 675.643 840.55 676.108 837.36 676.34C830.57 676.87 826.92 675.58 816.42 672.59C813.256 671.517 809.916 671.062 806.58 671.25C801.58 671.25 785.58 681.9 782.72 682.49C782.72 685.15 784.45 685.03 784.48 684.97C784.66 684.53 782.69 684.7 782.72 684.49C782.9 683.49 819.64 691.69 863.84 689.12C869.37 688.84 892.62 687.07 890.64 683.9Z" fill="url(#paint3_radial_1_22993)" stroke="#010101" stroke-width="4" stroke-miterlimit="10"/>
<defs>
<radialGradient id="paint0_radial_1_22993" cx="0" cy="0" r="1" gradientUnits="userSpaceOnUse" gradientTransform="translate(831.476 691.73) scale(65.8628 71.59)">
<stop stop-color="#931A1E"/>
<stop offset="1" stop-color="#7F143D"/>
</radialGradient>
<radialGradient id="paint1_radial_1_22993" cx="0" cy="0" r="1" gradientUnits="userSpaceOnUse" gradientTransform="translate(834.316 680.25) scale(39.6906 23.91)">
<stop offset="0.18" stop-color="#E5E5E5"/>
<stop offset="1" stop-color="#F2F2F2"/>
</radialGradient>
<radialGradient id="paint2_radial_1_22993" cx="0" cy="0" r="1" gradientUnits="userSpaceOnUse" gradientTransform="translate(831.476 691.78) scale(65.8628 71.59)">
<stop stop-color="#D37777"/>
<stop offset="0.61" stop-color="#BD626E"/>
<stop offset="1" stop-color="#B55A6B"/>
</radialGradient>
<radialGradient id="paint3_radial_1_22993" cx="0" cy="0" r="1" gradientUnits="userSpaceOnUse" gradientTransform="translate(834.316 680.3) scale(39.6906 23.91)">
<stop offset="0.18" stop-color="#E5E5E5"/>
<stop offset="1" stop-color="#F2F2F2"/>
</radialGradient>
</defs>
</svg>
