<svg width="1660" height="1660" viewBox="0 0 1660 1660" fill="none" xmlns="http://www.w3.org/2000/svg">
<path d="M878 1476.19C874.171 1491.19 872.315 1506.63 872.48 1522.11C872.503 1524.17 873.021 1526.19 873.991 1528.01C874.96 1529.82 876.353 1531.38 878.05 1532.54C883.635 1536.38 889.517 1539.78 895.64 1542.69C907.11 1548.14 919.7 1552 938.18 1557.69C951.09 1561.69 957.51 1563.27 963.28 1569.69C966.85 1573.69 967.13 1576.06 972.12 1582.59C976.758 1588.38 982.02 1593.64 987.81 1598.28C1005.17 1612.15 1035.89 1616.01 1049.53 1617.61C1070.44 1620.08 1092.14 1622.39 1116.73 1613.26C1126.33 1609.7 1135.48 1606.16 1140.29 1597.4C1148.94 1581.65 1137.29 1560.47 1132.75 1552.18C1103 1498.06 903.93 1478.59 878 1476.19Z" fill="url(#paint0_linear_1_12966)" stroke="#010101" stroke-width="4" stroke-miterlimit="10"/>
<path d="M911.26 1344.63C905.69 1342.76 893.46 1354.56 888.1 1369.63C880.59 1390.81 891.02 1396.99 887.1 1423.52C884.51 1441.3 879.4 1445.04 877.17 1467.01C875.74 1481.15 874.49 1488.16 876.7 1493.01C876.7 1493.01 877.12 1493.93 877.7 1494.9C885.35 1508.22 916.19 1512.9 933.92 1520.43C950.64 1527.57 947.98 1534.03 969.85 1551.16C976.37 1556.27 1009.56 1581.5 1056.36 1588.03C1086.1 1592.18 1130.66 1590.03 1136.25 1572.9C1138.66 1565.5 1133.38 1556.65 1130.1 1551.16C1123.52 1540.16 1114.79 1535.53 1102.68 1527.52C1102.68 1527.52 1088.53 1518.16 1069.59 1502.52C1034.22 1473.22 1023.18 1426.46 1015.88 1404.13C1012.76 1394.61 1012.35 1376.04 1013.78 1363.66C1014.3 1359.15 1017.18 1349.89 1013.78 1344.79C1010.1 1339.27 1007.07 1337.6 1001.05 1336.59C971.74 1331.66 949.2 1327.87 933.92 1341.32C927.58 1346.91 923.03 1354.99 918.32 1353.61C914.37 1352.44 914.9 1345.85 911.26 1344.63Z" fill="#182435" stroke="#010101" stroke-width="2" stroke-miterlimit="10"/>
<path d="M924.55 1354.3L923.31 1352.1C927.24 1345.84 932.689 1340.68 939.15 1337.1C947.69 1332.46 955.29 1332.21 963.95 1332.03C979.88 1331.7 1003.37 1335.36 1005.68 1345.03C1006.01 1347.06 1006.06 1349.12 1005.84 1351.16C1005.27 1357.42 1002.9 1358.5 1002.84 1362.89C1002.76 1367.58 1005.43 1368.36 1006.2 1373.61C1007 1379.09 1004.81 1383.39 1004.2 1385C999.54 1397 1013.36 1428.14 1037.04 1462.75C1049.04 1480.25 1055.04 1489 1061.35 1494.75C1071.62 1504.05 1088.35 1515.51 1109.75 1535.46C1113.85 1539.28 1118.14 1543.46 1117.13 1547.19C1114.87 1555.53 1088.31 1554.62 1085.63 1554.89C1040.12 1559.47 1027.86 1535.17 1012.05 1543.15C1003.66 1547.39 1006.64 1547.55 998.83 1547.86C996.83 1547.94 993.98 1547.86 992.83 1546.18C991.05 1543.58 993.9 1535.05 994.68 1533.8C1000.58 1524.3 1008.99 1529.74 1013.61 1521.72C1015.55 1518.35 1017.36 1512.36 1014.95 1507.98C1011.5 1501.71 1003 1505.24 996.18 1498.26C990.54 1492.49 994.11 1487.76 988.48 1481.84C981.92 1474.95 975.28 1479.44 968.37 1473.13C961.1 1466.49 965.48 1458.82 958.65 1450C951.44 1440.7 943.02 1446.31 936.87 1438.61C926.3 1425.4 952.44 1394.51 929.5 1363.55C927.18 1360.42 924.45 1353.27 923.37 1352.03" fill="#DCDBDB"/>
<path d="M924.55 1354.3L923.31 1352.1C927.24 1345.84 932.689 1340.68 939.15 1337.1C947.69 1332.46 955.29 1332.21 963.95 1332.03C979.88 1331.7 1003.37 1335.36 1005.68 1345.03C1006.01 1347.06 1006.06 1349.12 1005.84 1351.16C1005.27 1357.42 1002.9 1358.5 1002.84 1362.89C1002.76 1367.58 1005.43 1368.36 1006.2 1373.61C1007 1379.09 1004.81 1383.39 1004.2 1385C999.54 1397 1013.36 1428.14 1037.04 1462.75C1049.04 1480.25 1055.04 1489 1061.35 1494.75C1071.62 1504.05 1088.35 1515.51 1109.75 1535.46C1113.85 1539.28 1118.14 1543.46 1117.13 1547.19C1114.87 1555.53 1088.31 1554.62 1085.63 1554.89C1040.12 1559.47 1027.86 1535.17 1012.05 1543.15C1003.66 1547.39 1006.64 1547.55 998.83 1547.86C996.83 1547.94 993.98 1547.86 992.83 1546.18C991.05 1543.58 993.9 1535.05 994.68 1533.8C1000.58 1524.3 1008.99 1529.74 1013.61 1521.72C1015.55 1518.35 1017.36 1512.36 1014.95 1507.98C1011.5 1501.71 1003 1505.24 996.18 1498.26C990.54 1492.49 994.11 1487.76 988.48 1481.84C981.92 1474.95 975.28 1479.44 968.37 1473.13C961.1 1466.49 965.48 1458.82 958.65 1450C951.44 1440.7 943.02 1446.31 936.87 1438.61C926.3 1425.4 952.44 1394.51 929.5 1363.55C927.18 1360.42 924.45 1353.27 923.37 1352.03" stroke="#010101" stroke-width="4" stroke-miterlimit="10"/>
<path d="M890.39 1428C891.62 1428.15 889.13 1440.65 894 1443C898.57 1445.2 905.36 1436.46 909.28 1438.84C911.85 1440.4 909.82 1444.68 911.78 1449.67C914.88 1457.54 923.43 1455.67 932.33 1463C943.79 1472.37 938.12 1482.3 950.66 1492.44C957.55 1498.01 962.48 1497.62 963.72 1502.44C965.28 1508.56 957.99 1511.72 956.72 1522.16C955.64 1531.39 960.33 1537.58 958.72 1538.55C956.52 1539.83 951.09 1527.39 937.61 1519.94C926.01 1513.52 921.39 1517.94 912.34 1511.33C907.78 1507.99 904.24 1501.33 897.34 1488.27C890.22 1474.76 886.65 1468 885.51 1462.27C881.87 1444 889 1427.85 890.39 1428Z" fill="#F2EBE5" stroke="#010101" stroke-width="4" stroke-miterlimit="10"/>
<path d="M886.81 1441.47C886.81 1441.47 886.88 1441.39 886.91 1441.47C903.82 1476.62 916.11 1490.97 920.96 1489.38C923.85 1488.43 923.19 1483.38 921.8 1469.43C921.8 1469.38 921.87 1469.35 921.89 1469.43C931.17 1487.95 940.05 1503.12 933.45 1510.03C930.65 1512.96 923.94 1509.4 920.12 1506.73C905.51 1496.49 900.92 1481.97 895.87 1468.9C893.41 1462.44 891.1 1453.19 886.81 1441.47Z" fill="#182435" stroke="#010101" stroke-width="2" stroke-miterlimit="10"/>
<path d="M888.73 1379.44C891.79 1376.51 895.64 1378.44 904.33 1377.17C916.7 1375.4 918.79 1370.17 924.15 1371.28C933.52 1373.28 942.85 1392.76 937.49 1406.21C929.87 1425.35 898.49 1418.12 887.26 1435.64C880.48 1446.25 880.67 1466.64 909.63 1509.42C897.44 1507.68 878.47 1503.3 875.09 1491.78C874.73 1490.54 874.63 1489.5 876.02 1478.57C877.86 1464.03 878.78 1456.77 880.39 1449.3C884.03 1432.41 885.64 1435.16 886.96 1424.84C888.004 1415.33 888.235 1405.75 887.65 1396.2C887 1386.7 885.71 1382.33 888.73 1379.44Z" fill="#5F9CBF" stroke="#010101" stroke-width="4" stroke-miterlimit="10"/>
<path d="M996.64 1517.29C997.689 1517.29 998.54 1516.44 998.54 1515.39C998.54 1514.34 997.689 1513.49 996.64 1513.49C995.591 1513.49 994.74 1514.34 994.74 1515.39C994.74 1516.44 995.591 1517.29 996.64 1517.29Z" fill="#010101"/>
<path d="M987.04 1509.42C988.089 1509.42 988.94 1508.57 988.94 1507.52C988.94 1506.47 988.089 1505.62 987.04 1505.62C985.991 1505.62 985.14 1506.47 985.14 1507.52C985.14 1508.57 985.991 1509.42 987.04 1509.42Z" fill="#010101"/>
<path d="M977.92 1498.09C978.969 1498.09 979.82 1497.24 979.82 1496.19C979.82 1495.14 978.969 1494.29 977.92 1494.29C976.871 1494.29 976.02 1495.14 976.02 1496.19C976.02 1497.24 976.871 1498.09 977.92 1498.09Z" fill="#010101"/>
<path d="M963.19 1488.32C964.239 1488.32 965.09 1487.47 965.09 1486.42C965.09 1485.37 964.239 1484.52 963.19 1484.52C962.141 1484.52 961.29 1485.37 961.29 1486.42C961.29 1487.47 962.141 1488.32 963.19 1488.32Z" fill="#010101"/>
<path d="M951.67 1472.48C952.719 1472.48 953.57 1471.63 953.57 1470.58C953.57 1469.53 952.719 1468.68 951.67 1468.68C950.621 1468.68 949.77 1469.53 949.77 1470.58C949.77 1471.63 950.621 1472.48 951.67 1472.48Z" fill="#010101"/>
<path d="M940.96 1457.11C942.009 1457.11 942.86 1456.26 942.86 1455.21C942.86 1454.16 942.009 1453.31 940.96 1453.31C939.911 1453.31 939.06 1454.16 939.06 1455.21C939.06 1456.26 939.911 1457.11 940.96 1457.11Z" fill="#010101"/>
<path d="M920.21 1443.32C921.259 1443.32 922.11 1442.47 922.11 1441.42C922.11 1440.37 921.259 1439.52 920.21 1439.52C919.161 1439.52 918.31 1440.37 918.31 1441.42C918.31 1442.47 919.161 1443.32 920.21 1443.32Z" fill="#010101"/>
<path d="M1016.16 1417.84L1015.43 1418.03C1015.27 1418.03 1014.43 1418.26 1015.19 1418.1C1014.61 1418.23 1014.02 1418.35 1013.43 1418.46C1012.08 1418.72 1010.73 1418.94 1009.37 1419.14C1006.71 1419.55 1003.37 1419.98 1000.37 1420.36C994.53 1421.11 988.55 1421.69 982.85 1423.25C978.821 1424.5 974.966 1426.25 971.38 1428.47C969.258 1429.61 967.201 1430.88 965.22 1432.25C960.87 1435.43 956.82 1439.02 952.8 1442.59C948.78 1446.16 944.98 1449.59 941.19 1453.28C940.29 1454.15 942.01 1454.13 942.52 1454.08C943.921 1454.03 945.274 1453.56 946.41 1452.74C953.434 1445.83 960.815 1439.3 968.52 1433.16C969.877 1432.05 971.314 1431.05 972.82 1430.16C975.82 1428.45 978.82 1426.44 982.14 1425.24C982.72 1425.03 983.311 1424.85 983.91 1424.7C984.18 1424.63 984.55 1424.55 984.04 1424.7L985.04 1424.5C986.29 1424.24 987.55 1424.02 988.81 1423.82C991.43 1423.41 994.45 1423.02 997.32 1422.65C1003.74 1421.82 1010.32 1421.24 1016.59 1419.5C1017.07 1419.36 1019.49 1418.74 1019.28 1417.93C1019.07 1417.12 1016.52 1417.81 1016.17 1417.93L1016.16 1417.84Z" fill="#142838"/>
<path d="M1018.8 1426.75C1008.98 1428.02 999.67 1432.82 991.22 1437.75C981.534 1443.39 972.374 1449.89 963.85 1457.17C959.925 1460.45 956.248 1464.02 952.85 1467.84C952.645 1468.06 952.499 1468.33 952.426 1468.62C952.353 1468.91 952.355 1469.21 952.432 1469.5C952.509 1469.79 952.658 1470.06 952.866 1470.27C953.074 1470.49 953.333 1470.65 953.62 1470.74C954.337 1470.97 955.105 1470.99 955.832 1470.79C956.559 1470.6 957.214 1470.2 957.72 1469.64C963.72 1462.75 970.97 1456.93 978.52 1451.39C986.942 1445.04 996.017 1439.59 1005.59 1435.16C1006.8 1434.62 1008.01 1434.11 1009.24 1433.63L1010.06 1433.31C1009.49 1433.53 1010.56 1433.14 1010.66 1433.1C1011.19 1432.91 1011.72 1432.74 1012.25 1432.57C1013.38 1432.2 1014.52 1431.88 1015.68 1431.57C1016.2 1431.45 1016.68 1431.34 1017.25 1431.24C1017.38 1431.24 1018.19 1431.09 1017.4 1431.24L1018.31 1431.11C1019.6 1430.94 1021.31 1430.23 1021.49 1428.72C1021.67 1427.21 1019.98 1426.58 1018.79 1426.72L1018.8 1426.75Z" fill="#142838"/>
<path d="M1026.73 1448.11C1022.54 1448.59 1018.45 1449.71 1014.61 1451.45C1010.04 1453.41 1005.61 1455.7 1001.36 1458.29C992.521 1463.68 984.049 1469.66 976 1476.17C972.4 1479.03 968.85 1481.98 965.42 1485.05C964.52 1485.86 964.8 1486.85 965.97 1487.11C966.692 1487.23 967.433 1487.2 968.141 1487.01C968.848 1486.82 969.507 1486.48 970.07 1486.01C976.456 1480.32 983.132 1474.96 990.07 1469.95C994.17 1466.95 998.36 1464.11 1002.66 1461.43C1006.55 1458.96 1010.6 1456.74 1014.77 1454.78C1015.83 1454.3 1016.89 1453.84 1017.97 1453.41C1018.57 1453.17 1019.17 1452.95 1019.78 1452.73L1020.78 1452.41C1021.78 1452.11 1022.69 1451.88 1023.65 1451.64C1024.43 1451.45 1023.01 1451.74 1023.79 1451.64L1024.46 1451.52C1024.96 1451.45 1025.46 1451.39 1025.97 1451.34C1026.97 1451.26 1029.05 1450.6 1029.26 1449.34C1029.47 1448.08 1027.55 1448.03 1026.76 1448.1L1026.73 1448.11Z" fill="#142838"/>
<path d="M1032 1464.37C1024.18 1465.37 1016.64 1468.67 1009.65 1472.14C1001.63 1476.1 993.958 1480.71 986.7 1485.93C983.382 1488.27 980.24 1490.84 977.3 1493.64C977.091 1493.79 976.934 1494.01 976.848 1494.25C976.762 1494.5 976.752 1494.76 976.819 1495.01C976.886 1495.26 977.027 1495.49 977.223 1495.66C977.42 1495.82 977.662 1495.93 977.92 1495.96C978.641 1496.12 979.391 1496.1 980.104 1495.91C980.818 1495.72 981.475 1495.36 982.02 1494.86C987.15 1489.86 993.19 1485.86 999.44 1481.94C1006.41 1477.52 1013.77 1473.76 1021.44 1470.7C1023.15 1470.01 1024.9 1469.42 1026.68 1468.93C1027.53 1468.69 1028.38 1468.47 1029.24 1468.28L1029.85 1468.16C1030.08 1468.11 1030.02 1468.11 1029.67 1468.16L1030.02 1468.1L1031.28 1467.92C1032.41 1467.78 1034.28 1467.16 1034.54 1465.82C1034.8 1464.48 1032.89 1464.23 1031.98 1464.34L1032 1464.37Z" fill="#142838"/>
<path d="M1039.16 1474.85C1031.38 1476.02 1024.06 1479.57 1017.31 1483.45C1010 1487.76 1002.96 1492.52 996.23 1497.69C993.01 1500.11 989.83 1502.59 986.66 1505.08C985.77 1505.79 985.97 1506.59 987.11 1506.74C988.562 1506.89 990.019 1506.5 991.2 1505.64C996.92 1501.15 1002.66 1496.7 1008.61 1492.53C1014.83 1488 1021.45 1484.04 1028.39 1480.72C1029.3 1480.3 1030.23 1479.91 1031.17 1479.54C1031.94 1479.24 1033.17 1478.8 1033.66 1478.63C1034.15 1478.46 1035.3 1478.13 1036.06 1477.95C1036.19 1477.95 1037.39 1477.66 1036.84 1477.76L1038.22 1477.53C1039.14 1477.39 1041.33 1476.88 1041.57 1475.75C1041.81 1474.62 1039.75 1474.75 1039.16 1474.85Z" fill="#142838"/>
<path d="M1042.76 1486.31C1042.97 1486.71 1043.28 1487.06 1043.66 1487.31C1043.82 1487.44 1043.99 1487.54 1044.17 1487.63C1044.34 1487.69 1044.45 1487.95 1044.4 1487.75L1044.66 1487.16L1044.6 1487.21L1047 1486C1047.57 1485.85 1046.61 1486 1046.45 1486.09C1046.05 1486.16 1045.65 1486.25 1045.26 1486.33C1044.2 1486.56 1043.15 1486.8 1042.1 1487.08C1040.31 1487.55 1038.53 1488.08 1036.78 1488.72C1033.25 1489.96 1029.81 1491.42 1026.47 1493.11C1019.77 1496.5 1013.39 1500.48 1007.4 1505C1004.15 1507.44 1000.99 1509.99 997.92 1512.66C996.92 1513.54 998.81 1513.73 999.31 1513.66C1000.72 1513.6 1002.07 1513.11 1003.18 1512.25C1010.03 1506.22 1017.46 1500.88 1025.36 1496.3C1029.22 1494.07 1033.25 1492.16 1037.41 1490.59C1039.37 1489.86 1041.38 1489.24 1043.41 1488.73C1045.54 1488.2 1048.27 1488.19 1049.95 1486.66C1050.04 1486.59 1050.11 1486.5 1050.16 1486.4C1050.2 1486.3 1050.22 1486.18 1050.21 1486.07C1050.05 1485.37 1048.91 1485.27 1048.57 1484.68C1047.75 1483.19 1042.25 1485.28 1042.78 1486.23L1042.76 1486.31Z" fill="#142838"/>
<path d="M930 1437.09C930.151 1436.79 930.318 1436.51 930.5 1436.23L930.8 1435.81C931.08 1435.43 930.55 1436.11 930.8 1435.87L931.04 1435.58C931.76 1434.77 932.52 1434 933.32 1433.26C934.32 1432.37 935.32 1431.52 936.32 1430.69L937.95 1429.39L938.85 1428.69C939.26 1428.38 938.3 1429.1 938.98 1428.6L939.51 1428.2C945.07 1424.04 950.88 1420.2 956.78 1416.53C959.42 1414.89 962.09 1413.27 964.78 1411.72L966.52 1410.72L967.24 1410.31C967.87 1409.96 966.6 1410.65 967.03 1410.43L967.45 1410.2C968.33 1409.72 969.22 1409.2 970.12 1408.82C974.12 1406.87 978.42 1405.3 982.56 1403.58L991.02 1400.04L994.9 1398.42C995.945 1398.07 996.915 1397.53 997.76 1396.82C999.51 1395.16 1000.69 1392.62 1001.9 1390.57C1003.36 1388.07 1004.75 1385.5 1006.38 1383.1C1006.51 1382.9 1006.66 1382.71 1006.79 1382.51C1007.07 1382.09 1006.45 1382.75 1006.86 1382.43C1007.27 1382.11 1006.52 1382.6 1006.54 1382.62C1006.56 1382.64 1007.83 1381.62 1007.85 1381.62C1008.16 1381.33 1008.41 1380.97 1008.58 1380.58C1008.75 1380.18 1008.84 1379.75 1008.83 1379.32C1008.82 1378.89 1008.73 1378.47 1008.55 1378.08C1008.36 1377.69 1008.1 1377.34 1007.78 1377.06C1005.87 1375.43 1002.49 1376.24 1000.35 1376.91C998.553 1377.46 996.862 1378.31 995.35 1379.42C992.588 1381.61 990.01 1384.03 987.64 1386.64C986.47 1387.85 985.31 1389.06 984.09 1390.22C983.6 1390.69 983.09 1391.16 982.57 1391.6C982.42 1391.73 981.57 1392.34 982.28 1391.86C982.04 1392.03 981.77 1392.19 981.53 1392.37C981.1 1392.69 981.92 1392.16 981.94 1392.15C981.43 1392.4 982.59 1391.91 982.55 1391.91C981.787 1392.07 981.059 1392.37 980.4 1392.79C979.18 1393.39 977.67 1394.24 977.21 1395.61C976.54 1397.61 978.45 1399.09 980.04 1399.81C981.519 1400.44 983.109 1400.76 984.715 1400.76C986.321 1400.76 987.911 1400.44 989.39 1399.81C990.68 1399.32 992.82 1398.4 992.89 1396.73C992.848 1396.28 992.691 1395.85 992.434 1395.47C992.176 1395.1 991.827 1394.8 991.42 1394.6C989.26 1393.26 986.16 1393.3 983.7 1393.33C980.497 1393.39 977.311 1393.81 974.2 1394.57C968.419 1396.06 962.898 1398.42 957.83 1401.57C949.04 1406.85 941.57 1414.05 932.68 1419.19C930.83 1420.24 928.896 1421.14 926.9 1421.87L932.7 1422.13C935.21 1415.61 940.56 1411.13 946.42 1407.63C948.02 1406.69 948.91 1406.21 950.65 1405.33C951.59 1404.86 952.53 1404.4 953.47 1403.96L954.7 1403.41C954.97 1403.28 955.25 1403.16 955.52 1403.05L955.76 1402.95C956.66 1402.59 957.57 1402.25 958.49 1401.95L959.12 1401.74C958.93 1401.8 958.38 1401.95 959.26 1401.74L960.76 1401.34C961.27 1401.19 960.76 1401.34 960.68 1401.34L961.55 1401.16L962.87 1400.94C962.34 1401.02 963.66 1400.87 963.82 1400.85C964.35 1400.85 964.89 1400.77 965.42 1400.76C973.63 1400.54 981.85 1403.15 990.09 1403.61C994.41 1403.85 998.6 1403.13 1002.9 1403C1007.01 1402.87 1010.47 1404.73 1013.9 1406.84C1022.49 1412.16 1031.02 1417.58 1039.58 1422.95C1041.05 1423.87 1043.73 1423.04 1045.19 1422.48C1045.64 1422.3 1049.09 1420.8 1047.77 1419.97L1023.22 1404.57C1019.38 1402.16 1015.54 1399.98 1010.95 1399.51C1006.36 1399.04 1001.68 1400.2 997.12 1400.08C988.04 1399.83 979.25 1396.98 970.12 1397.18C960.41 1397.4 951.22 1401.06 942.8 1405.65C935.18 1409.8 927.38 1415.25 924.14 1423.65C923.38 1425.65 929.39 1424.11 929.94 1423.91C939.25 1420.54 946.94 1414.57 954.77 1408.66C958.447 1405.76 962.33 1403.13 966.39 1400.8C967.39 1400.27 968.34 1399.8 969.34 1399.32L970.14 1398.96L970.65 1398.74C970.26 1398.9 971.09 1398.57 971.16 1398.55L972.16 1398.17L972.98 1397.89C972.24 1398.15 972.93 1397.89 973.07 1397.89C973.62 1397.73 974.18 1397.59 974.73 1397.44C973.97 1397.65 974.66 1397.44 974.81 1397.44L975.65 1397.28L976.49 1397.14C975.81 1397.24 977.11 1397.08 977.11 1397.08C978.72 1396.94 981.17 1396.71 982.9 1397.46C983.217 1397.59 983.499 1397.79 983.725 1398.05C983.951 1398.3 984.113 1398.61 984.2 1398.94C984.75 1400.41 987.77 1396.71 989.53 1397.27C989.77 1397.35 989.15 1397.18 989.11 1397.17C988.702 1397.06 988.304 1396.92 987.92 1396.75C987.175 1396.44 986.526 1395.94 986.04 1395.3C985.847 1395 985.749 1394.65 985.76 1394.3C985.76 1393.83 986.27 1393.59 985.51 1393.98C984.41 1394.55 986.12 1393.79 986.2 1393.75C986.651 1393.57 987.088 1393.36 987.51 1393.12C988.068 1392.83 988.603 1392.49 989.11 1392.12C991.516 1390.19 993.764 1388.08 995.83 1385.79C996.95 1384.63 998.07 1383.47 999.23 1382.35C999.75 1381.84 1000.23 1381.35 1000.83 1380.84L1001.6 1380.17L1001.98 1379.85C1002.05 1379.85 1002.57 1379.39 1002.23 1379.65C1001.89 1379.91 1002.65 1379.36 1002.74 1379.3L1003.08 1379.07C1003.49 1378.79 1003.21 1379.13 1003.08 1379.07C1002.95 1379.01 1002.62 1379.28 1003.08 1379.07C1003.54 1378.86 1002.08 1379.45 1002.54 1379.29C1002.13 1379.38 1001.72 1379.49 1001.32 1379.63C1000.91 1379.74 1000.49 1379.81 1000.07 1379.84H999.07C999.29 1379.61 999.94 1380.7 1000.01 1380.93C1000.1 1381.18 1000.14 1381.44 1000.14 1381.71C1000.14 1381.82 999.73 1382.81 1000.14 1382.25C999.89 1382.6 999.3 1382.79 998.98 1383.12C998.64 1383.49 998.329 1383.89 998.05 1384.31C997.38 1385.24 996.79 1386.23 996.2 1387.22C994.74 1389.66 993.34 1392.14 991.86 1394.57C991.3 1395.5 990.72 1396.42 990.08 1397.3C989.9 1397.54 990.36 1396.98 990.18 1397.18C990.18 1397.18 990.03 1397.31 990.02 1397.36C990.02 1397.57 989.43 1397.68 990.02 1397.42C990.23 1397.33 991.54 1396.68 990.76 1396.94C990.447 1397.05 990.14 1397.18 989.84 1397.32L987.78 1398.18L972.46 1404.58C969.63 1405.76 966.74 1406.84 964 1408.25C959.22 1410.7 954.61 1413.48 950.06 1416.32C944.66 1419.68 939.34 1423.18 934.2 1426.94C930.2 1429.83 925.92 1432.84 922.8 1436.68C922.265 1437.29 921.805 1437.96 921.43 1438.68C920.76 1440.12 924.43 1439.68 924.92 1439.56C926.065 1439.37 927.182 1439.04 928.24 1438.56C928.961 1438.31 929.582 1437.83 930.01 1437.2L930 1437.09Z" fill="#142838"/>
<path d="M957.73 1337.17C960.586 1339.87 962.497 1343.42 963.18 1347.29C964.18 1354.29 959.58 1358.37 961.63 1361.29C963.55 1364.05 968.41 1361.55 979.27 1361.81C991.09 1362.09 994.11 1365.25 997.96 1362.59C1002.73 1359.29 1004.16 1350.26 1000.82 1344.42C997.61 1338.84 990.91 1337.76 982.39 1336.42C974.196 1335.11 965.829 1335.37 957.73 1337.17V1337.17Z" fill="#182435" stroke="#010101" stroke-width="2" stroke-miterlimit="10"/>
<path d="M980.19 1401.54C994.73 1405.31 1013.62 1412.54 1018.56 1418.18" stroke="#142838" stroke-width="2" stroke-miterlimit="10"/>
<path d="M1005.2 1513.78C1005.4 1513.59 1005.65 1513.42 1005.83 1513.22C1005.26 1513.87 1005.66 1513.35 1005.97 1513.13L1006.67 1512.67L1007.13 1512.4C1007.65 1512.07 1006.26 1512.84 1007.13 1512.4C1007.74 1512.09 1008.35 1511.78 1008.97 1511.49C1009.36 1511.28 1009.77 1511.1 1010.19 1510.95C1008.85 1511.33 1010.37 1510.89 1010.72 1510.75C1012.51 1510.05 1014.31 1509.41 1016.14 1508.82C1016.67 1508.64 1017.22 1508.49 1017.75 1508.3L1017.43 1508.4L1018.26 1508.14L1021.52 1507.14C1029.92 1504.69 1038.43 1502.65 1046.77 1500.03C1050.75 1498.93 1054.6 1497.38 1058.23 1495.41C1058.57 1495.22 1059.38 1494.6 1059.23 1494.06C1059.08 1493.52 1058.08 1493.42 1057.69 1493.39C1055.52 1493.33 1053.39 1493.91 1051.54 1495.04C1050.86 1495.45 1052.45 1494.6 1051.48 1495.04L1050.76 1495.39C1050.39 1495.56 1049.19 1495.92 1050.63 1495.46C1050.26 1495.57 1049.91 1495.75 1049.55 1495.89C1048.82 1496.17 1048.08 1496.43 1047.34 1496.69L1046.25 1497.05C1045.88 1497.17 1044.25 1497.67 1045.77 1497.21C1041.77 1498.41 1037.68 1499.58 1033.61 1500.69C1024.91 1503.05 1016.07 1505.25 1007.67 1508.56C1004.09 1509.97 1000.11 1511.56 997.31 1514.3C995.91 1515.67 998.54 1515.9 999.39 1515.83C1001.29 1515.67 1003.78 1515.12 1005.2 1513.73V1513.78Z" fill="#223B5B"/>
<path d="M991.79 1504.85C995.61 1498.09 1002.79 1494.77 1010.21 1493.92C1014.87 1493.53 1019.54 1493.37 1024.21 1493.47C1028.82 1493.47 1033.43 1493.39 1038.04 1493.56C1043.37 1493.71 1048.68 1494.32 1053.91 1495.36C1055.29 1495.52 1056.68 1495.25 1057.91 1494.61C1058.38 1494.39 1059.91 1493.41 1058.64 1493.15C1048.28 1491 1037.74 1491.1 1027.22 1491.15C1016.9 1491.15 1006.22 1491.22 996.83 1496.08C992.35 1498.22 988.598 1501.63 986.04 1505.88C985.53 1506.78 988.04 1506.45 988.35 1506.4C989.35 1506.22 991.18 1505.85 991.75 1504.85H991.79Z" fill="#223B5B"/>
<path d="M982.4 1494.42C983.34 1492.57 985.4 1491.9 987.17 1491.13C989.45 1490.13 991.76 1489.24 994.11 1488.45C998.69 1486.88 1003.4 1485.74 1008.19 1485.02C1012.98 1484.33 1017.82 1484.06 1022.65 1484.19C1027.39 1484.32 1032.05 1485.01 1036.76 1485.36C1038.88 1485.52 1041 1485.62 1043.11 1485.86C1044.75 1485.95 1046.35 1486.35 1047.84 1487.04C1048.51 1487.32 1049.24 1487.43 1049.96 1487.35C1050.68 1487.27 1051.37 1487 1051.96 1486.58C1052.85 1485.98 1053.6 1484.74 1052.39 1484.02C1050.62 1483.12 1048.7 1482.57 1046.72 1482.39C1044.62 1482.08 1042.49 1481.94 1040.37 1481.8C1035.53 1481.48 1030.74 1480.8 1025.88 1480.57C1014.88 1480.1 1003.88 1481.62 993.42 1485.05C990.2 1486.12 987.037 1487.33 983.93 1488.7C981.23 1489.88 978.33 1491.34 976.93 1494.08C976.31 1495.3 977.48 1496.01 978.58 1496.08C979.68 1496.15 981.77 1495.65 982.39 1494.42H982.4Z" fill="#223B5B"/>
<path d="M969.41 1484.93C972.04 1475.3 985.07 1474.23 993.2 1473.66C1004.27 1472.88 1015.38 1474.01 1026.38 1475.15C1031.66 1475.56 1036.88 1476.57 1041.94 1478.15C1042.66 1478.36 1043.42 1478.37 1044.14 1478.18C1044.87 1477.98 1045.52 1477.59 1046.04 1477.05C1046.25 1476.85 1046.4 1476.61 1046.48 1476.33C1046.56 1476.06 1046.56 1475.77 1046.48 1475.49C1046.41 1475.21 1046.26 1474.96 1046.06 1474.76C1045.85 1474.56 1045.6 1474.43 1045.32 1474.36C1040.21 1472.74 1034.94 1471.68 1029.6 1471.21C1023.6 1470.55 1017.6 1469.98 1011.6 1469.62C1005.49 1469.21 999.36 1469.21 993.25 1469.62C987.25 1470.07 981.13 1470.9 975.54 1473.13C969.95 1475.36 965.13 1479.53 963.54 1485.42C963.16 1486.82 965.24 1487.3 966.19 1487.23C966.895 1487.22 967.581 1487 968.154 1486.59C968.728 1486.18 969.163 1485.6 969.4 1484.94L969.41 1484.93Z" fill="#223B5B"/>
<path d="M957.71 1469.55C964.15 1462.35 974.39 1460.45 983.58 1459.86C994.58 1459.15 1005.78 1460.71 1016.58 1463.15C1022.79 1464.56 1028.92 1466.26 1035.02 1468.06C1035.74 1468.27 1036.5 1468.27 1037.22 1468.08C1037.95 1467.89 1038.6 1467.5 1039.12 1466.96C1039.33 1466.76 1039.48 1466.51 1039.56 1466.24C1039.63 1465.96 1039.63 1465.67 1039.56 1465.39C1039.48 1465.12 1039.34 1464.86 1039.13 1464.67C1038.92 1464.47 1038.67 1464.33 1038.39 1464.26C1026.85 1460.84 1015.12 1457.78 1003.14 1456.37C991.73 1455.02 979.48 1454.96 968.43 1458.49C962.57 1460.36 957.05 1463.32 952.91 1467.94C952.706 1468.14 952.559 1468.39 952.484 1468.67C952.409 1468.94 952.408 1469.23 952.482 1469.51C952.557 1469.78 952.703 1470.04 952.907 1470.24C953.11 1470.44 953.363 1470.58 953.64 1470.65C954.359 1470.86 955.12 1470.86 955.843 1470.67C956.565 1470.47 957.221 1470.09 957.74 1469.55H957.71Z" fill="#223B5B"/>
<path d="M946.12 1453.43C954.289 1445.98 964.569 1441.25 975.54 1439.9C986.54 1438.48 998.31 1440.15 1008.8 1443.76C1014.95 1445.82 1020.77 1448.76 1026.08 1452.49C1027.16 1453.26 1028.74 1452.98 1029.9 1452.49C1030.38 1452.29 1032.53 1451.02 1031.47 1450.26C1021.23 1442.95 1009.02 1438.71 996.59 1437.07C984.01 1435.41 971.28 1436.46 959.46 1441.28C952.835 1443.95 946.74 1447.77 941.46 1452.58C940.6 1453.38 940.8 1454.29 941.99 1454.58C942.711 1454.69 943.447 1454.65 944.151 1454.46C944.855 1454.27 945.512 1453.94 946.08 1453.48L946.12 1453.43Z" fill="#223B5B"/>
<path d="M924.78 1439.63C935.621 1431.58 948.416 1426.58 961.84 1425.14C973.57 1423.78 985.7 1424.81 997.36 1426.38C1003.72 1427.18 1010.01 1428.43 1016.19 1430.1C1017.58 1430.34 1019.02 1430.09 1020.25 1429.39C1020.8 1429.12 1022.25 1428.12 1020.93 1427.76C1008.73 1424.34 995.82 1422.83 983.19 1422.26C977.107 1421.91 971.007 1422.01 964.94 1422.58C957.292 1423.38 949.762 1425.05 942.5 1427.58C934.54 1430.33 927.055 1434.3 920.31 1439.34C919.45 1439.99 919.55 1440.64 920.69 1440.74C922.136 1440.82 923.57 1440.44 924.78 1439.64V1439.63Z" fill="#223B5B"/>
<path d="M789.88 1476.19C793.696 1491.19 795.551 1506.63 795.4 1522.11C795.375 1524.17 794.855 1526.19 793.886 1528C792.917 1529.82 791.526 1531.37 789.83 1532.54C784.244 1536.38 778.362 1539.78 772.24 1542.69C760.77 1548.14 748.18 1552 729.7 1557.69C716.79 1561.69 710.36 1563.27 704.59 1569.69C701.02 1573.69 700.75 1576.06 695.76 1582.59C691.119 1588.38 685.857 1593.64 680.07 1598.28C662.71 1612.15 631.98 1616.01 618.35 1617.61C597.43 1620.08 575.74 1622.39 551.15 1613.26C541.55 1609.7 532.4 1606.16 527.59 1597.4C518.94 1581.65 530.59 1560.47 535.13 1552.18C564.85 1498.06 764 1478.59 789.88 1476.19Z" fill="url(#paint1_linear_1_12966)" stroke="#010101" stroke-width="4" stroke-miterlimit="10"/>
<path d="M756.63 1344.63C762.2 1342.76 774.43 1354.56 779.79 1369.63C787.3 1390.81 776.86 1396.99 780.79 1423.52C783.38 1441.3 788.48 1445.04 790.71 1467.01C792.15 1481.15 793.39 1488.16 791.19 1493.01C791.19 1493.01 790.77 1493.93 790.19 1494.9C782.53 1508.22 751.69 1512.9 733.97 1520.43C717.25 1527.57 719.9 1534.03 698.04 1551.16C691.52 1556.27 658.33 1581.5 611.53 1588.03C581.78 1592.18 537.23 1590.03 531.64 1572.9C529.23 1565.5 534.51 1556.65 537.79 1551.16C544.36 1540.16 553.1 1535.53 565.2 1527.52C565.2 1527.52 579.36 1518.16 598.3 1502.52C633.67 1473.22 644.7 1426.46 652.01 1404.13C655.13 1394.61 655.53 1376.04 654.11 1363.66C653.59 1359.15 650.7 1349.89 654.11 1344.79C657.79 1339.27 660.82 1337.6 666.84 1336.59C696.15 1331.66 718.69 1327.87 733.97 1341.32C740.31 1346.91 744.86 1354.99 749.57 1353.61C753.52 1352.44 753 1345.85 756.63 1344.63Z" fill="#182435" stroke="#010101" stroke-width="2" stroke-miterlimit="10"/>
<path d="M743.34 1354.3L744.58 1352.1C740.649 1345.84 735.196 1340.68 728.73 1337.1C720.2 1332.46 712.6 1332.21 703.93 1332.03C688.01 1331.7 664.52 1335.36 662.2 1345.03C661.879 1347.06 661.829 1349.12 662.05 1351.16C662.62 1357.42 664.98 1358.5 665.05 1362.89C665.14 1367.58 662.47 1368.36 661.7 1373.61C660.9 1379.09 663.09 1383.39 663.7 1385C668.36 1397 654.53 1428.14 630.86 1462.75C618.86 1480.25 612.86 1489 606.55 1494.75C596.27 1504.05 579.55 1515.51 558.14 1535.46C554.04 1539.28 549.76 1543.46 550.77 1547.19C553.02 1555.53 579.59 1554.62 582.27 1554.89C627.78 1559.47 640.03 1535.17 655.84 1543.15C664.24 1547.39 661.26 1547.55 669.06 1547.86C671.12 1547.94 673.92 1547.86 675.06 1546.18C676.84 1543.58 673.98 1535.05 673.21 1533.8C667.31 1524.3 658.9 1529.74 654.28 1521.72C652.34 1518.35 650.53 1512.36 652.94 1507.98C656.39 1501.71 664.94 1505.24 671.7 1498.26C677.35 1492.49 673.78 1487.76 679.41 1481.84C685.96 1474.95 692.6 1479.44 699.52 1473.13C706.79 1466.49 702.41 1458.82 709.24 1450C716.44 1440.7 724.86 1446.31 731.02 1438.61C741.59 1425.4 715.45 1394.51 738.39 1363.55C740.71 1360.42 743.39 1353.27 744.52 1352.03" fill="#DCDBDB"/>
<path d="M743.34 1354.3L744.58 1352.1C740.649 1345.84 735.196 1340.68 728.73 1337.1C720.2 1332.46 712.6 1332.21 703.93 1332.03C688.01 1331.7 664.52 1335.36 662.2 1345.03C661.879 1347.06 661.829 1349.12 662.05 1351.16C662.62 1357.42 664.98 1358.5 665.05 1362.89C665.14 1367.58 662.47 1368.36 661.7 1373.61C660.9 1379.09 663.09 1383.39 663.7 1385C668.36 1397 654.53 1428.14 630.86 1462.75C618.86 1480.25 612.86 1489 606.55 1494.75C596.27 1504.05 579.55 1515.51 558.14 1535.46C554.04 1539.28 549.76 1543.46 550.77 1547.19C553.02 1555.53 579.59 1554.62 582.27 1554.89C627.78 1559.47 640.03 1535.17 655.84 1543.15C664.24 1547.39 661.26 1547.55 669.06 1547.86C671.12 1547.94 673.92 1547.86 675.06 1546.18C676.84 1543.58 673.98 1535.05 673.21 1533.8C667.31 1524.3 658.9 1529.74 654.28 1521.72C652.34 1518.35 650.53 1512.36 652.94 1507.98C656.39 1501.71 664.94 1505.24 671.7 1498.26C677.35 1492.49 673.78 1487.76 679.41 1481.84C685.96 1474.95 692.6 1479.44 699.52 1473.13C706.79 1466.49 702.41 1458.82 709.24 1450C716.44 1440.7 724.86 1446.31 731.02 1438.61C741.59 1425.4 715.45 1394.51 738.39 1363.55C740.71 1360.42 743.39 1353.27 744.52 1352.03" stroke="#010101" stroke-width="4" stroke-miterlimit="10"/>
<path d="M777.49 1428C776.27 1428.15 778.75 1440.65 773.88 1443C769.32 1445.2 762.53 1436.46 758.61 1438.84C756.04 1440.4 758.07 1444.68 756.11 1449.67C753.01 1457.54 744.46 1455.67 735.56 1463C724.09 1472.37 729.77 1482.3 717.22 1492.44C710.33 1498.01 705.4 1497.62 704.17 1502.44C702.61 1508.56 709.89 1511.72 711.11 1522.16C712.19 1531.39 707.51 1537.58 709.17 1538.55C711.37 1539.83 716.79 1527.39 730.28 1519.94C741.88 1513.52 746.5 1517.94 755.55 1511.33C760.1 1507.99 763.65 1501.33 770.55 1488.27C777.67 1474.76 781.23 1468 782.37 1462.27C786 1444 778.91 1427.85 777.49 1428Z" fill="#F2EBE5" stroke="#010101" stroke-width="4" stroke-miterlimit="10"/>
<path d="M781.07 1441.47C781.07 1441.47 781 1441.39 780.98 1441.47C764.07 1476.62 751.78 1490.97 746.93 1489.38C744.04 1488.43 744.7 1483.38 746.08 1469.43H745.99C736.72 1487.95 727.83 1503.12 734.43 1510.03C737.23 1512.96 743.95 1509.4 747.76 1506.73C762.38 1496.49 766.97 1481.97 772.01 1468.9C774.48 1462.44 776.79 1453.19 781.07 1441.47Z" fill="#182435" stroke="#010101" stroke-width="2" stroke-miterlimit="10"/>
<path d="M779.16 1379.44C776.09 1376.51 772.25 1378.44 763.56 1377.17C751.19 1375.4 749.1 1370.17 743.74 1371.28C734.37 1373.28 725.04 1392.76 730.4 1406.21C738.02 1425.35 769.4 1418.12 780.63 1435.64C787.41 1446.25 787.22 1466.64 758.26 1509.42C770.45 1507.68 789.42 1503.3 792.8 1491.78C793.16 1490.54 793.26 1489.5 791.87 1478.57C790.03 1464.03 789.1 1456.77 787.49 1449.3C783.85 1432.41 782.25 1435.16 780.93 1424.84C779.886 1415.33 779.655 1405.75 780.24 1396.2C780.91 1386.7 782.18 1382.33 779.16 1379.44Z" fill="#5F9CBF" stroke="#010101" stroke-width="4" stroke-miterlimit="10"/>
<path d="M671.24 1517.29C672.289 1517.29 673.14 1516.44 673.14 1515.39C673.14 1514.34 672.289 1513.49 671.24 1513.49C670.191 1513.49 669.34 1514.34 669.34 1515.39C669.34 1516.44 670.191 1517.29 671.24 1517.29Z" fill="#010101"/>
<path d="M680.85 1509.42C681.899 1509.42 682.75 1508.57 682.75 1507.52C682.75 1506.47 681.899 1505.62 680.85 1505.62C679.801 1505.62 678.95 1506.47 678.95 1507.52C678.95 1508.57 679.801 1509.42 680.85 1509.42Z" fill="#010101"/>
<path d="M689.97 1498.09C691.019 1498.09 691.87 1497.24 691.87 1496.19C691.87 1495.14 691.019 1494.29 689.97 1494.29C688.921 1494.29 688.07 1495.14 688.07 1496.19C688.07 1497.24 688.921 1498.09 689.97 1498.09Z" fill="#010101"/>
<path d="M704.69 1488.32C705.739 1488.32 706.59 1487.47 706.59 1486.42C706.59 1485.37 705.739 1484.52 704.69 1484.52C703.641 1484.52 702.79 1485.37 702.79 1486.42C702.79 1487.47 703.641 1488.32 704.69 1488.32Z" fill="#010101"/>
<path d="M716.22 1472.48C717.269 1472.48 718.12 1471.63 718.12 1470.58C718.12 1469.53 717.269 1468.68 716.22 1468.68C715.171 1468.68 714.32 1469.53 714.32 1470.58C714.32 1471.63 715.171 1472.48 716.22 1472.48Z" fill="#010101"/>
<path d="M726.93 1457.11C727.979 1457.11 728.83 1456.26 728.83 1455.21C728.83 1454.16 727.979 1453.31 726.93 1453.31C725.881 1453.31 725.03 1454.16 725.03 1455.21C725.03 1456.26 725.881 1457.11 726.93 1457.11Z" fill="#010101"/>
<path d="M747.68 1443.32C748.729 1443.32 749.58 1442.47 749.58 1441.42C749.58 1440.37 748.729 1439.52 747.68 1439.52C746.631 1439.52 745.78 1440.37 745.78 1441.42C745.78 1442.47 746.631 1443.32 747.68 1443.32Z" fill="#010101"/>
<path d="M649.12 1419.7C654.39 1421.17 659.95 1421.7 665.35 1422.37C670.75 1423.04 676.58 1423.6 682 1425C685.66 1426 688.87 1427.91 692.12 1429.76C694.044 1430.79 695.901 1431.94 697.68 1433.21C701.96 1436.39 705.98 1439.94 709.97 1443.49C713.96 1447.04 717.63 1450.39 721.34 1453.97C722.04 1454.65 724.29 1453.83 725.05 1453.57C725.46 1453.42 727.49 1452.7 726.81 1452.05C719.682 1445.01 712.17 1438.37 704.31 1432.16C702.89 1431.02 701.386 1429.98 699.81 1429.06C696.41 1427.19 693.11 1425.06 689.45 1423.69C684.15 1421.76 678.29 1421.28 672.73 1420.56C666.48 1419.75 660 1419.26 653.91 1417.56C652.7 1417.22 650.97 1417.84 649.91 1418.34C649.39 1418.58 647.91 1419.34 649.16 1419.7H649.12Z" fill="#142838"/>
<path d="M648.34 1431.09C652.347 1431.72 656.252 1432.88 659.95 1434.54C664.597 1436.52 669.104 1438.82 673.44 1441.41C682.696 1446.85 691.459 1453.09 699.63 1460.06C703.316 1463.13 706.762 1466.47 709.94 1470.06C710.46 1470.55 711.124 1470.87 711.836 1470.95C712.547 1471.04 713.267 1470.89 713.89 1470.54C714.89 1470.06 716.22 1468.6 715.24 1467.47C708.86 1460.11 701.08 1453.86 693.24 1448.13C684.358 1441.45 674.783 1435.75 664.68 1431.13C660.123 1428.99 655.284 1427.52 650.31 1426.75C649.575 1426.64 648.823 1426.75 648.152 1427.07C647.482 1427.39 646.923 1427.91 646.55 1428.55C645.96 1429.88 647.08 1430.91 648.34 1431.07V1431.09Z" fill="#142838"/>
<path d="M640.43 1451.36C640.5 1451.36 641.21 1451.45 640.63 1451.36L641.29 1451.45L642.42 1451.65C643.42 1451.84 644.32 1452.08 645.26 1452.36C647.087 1452.92 648.881 1453.59 650.63 1454.36C654.896 1456.25 659.028 1458.43 663 1460.88C671.495 1466.09 679.64 1471.86 687.38 1478.14C690.82 1480.88 694.2 1483.7 697.48 1486.64C698.48 1487.52 700.22 1487.16 701.32 1486.7C701.94 1486.43 703.85 1485.25 702.86 1484.37C696.156 1478.42 689.146 1472.83 681.86 1467.61C673.67 1461.7 665.12 1455.97 655.86 1451.85C651.695 1449.85 647.222 1448.56 642.63 1448.04C641.912 1447.98 641.19 1448.09 640.524 1448.37C639.858 1448.64 639.267 1449.07 638.8 1449.62C638.07 1450.82 639.43 1451.25 640.38 1451.33L640.43 1451.36Z" fill="#142838"/>
<path d="M635.14 1468C635.706 1468.05 636.267 1468.15 636.82 1468.28C637.63 1468.44 638.43 1468.64 639.22 1468.85C640.93 1469.3 642.62 1469.85 644.29 1470.46C648.022 1471.86 651.672 1473.47 655.22 1475.28C662.748 1479.03 669.964 1483.38 676.8 1488.28C679.888 1490.45 682.809 1492.85 685.54 1495.45C686.54 1496.45 688.27 1496.15 689.41 1495.64C690.15 1495.31 691.89 1494.05 690.9 1493.08C685.42 1487.73 678.9 1483.35 672.42 1479.34C664.98 1474.65 657.111 1470.67 648.92 1467.46C645.189 1465.96 641.291 1464.92 637.31 1464.36C636.587 1464.29 635.857 1464.4 635.19 1464.69C634.523 1464.98 633.941 1465.43 633.5 1466.01C632.78 1467.27 634.13 1467.85 635.14 1468.01V1468Z" fill="#142838"/>
<path d="M627.37 1477.57C634.37 1478.57 640.94 1482.08 646.94 1485.57C653.869 1489.72 660.547 1494.27 666.94 1499.21C670.06 1501.57 673.15 1503.98 676.22 1506.39C677.22 1507.15 678.99 1506.66 680.01 1506.26C680.47 1506.08 682.59 1505.02 681.65 1504.26C669.39 1494.64 656.78 1484.61 642.43 1478.26C638.795 1476.59 634.955 1475.41 631.01 1474.75C629.554 1474.59 628.092 1474.99 626.91 1475.85C625.99 1476.57 626.19 1477.33 627.35 1477.51L627.37 1477.57Z" fill="#142838"/>
<path d="M619.37 1486C619.07 1486.54 617.92 1486.62 617.73 1487.4C617.683 1487.49 617.671 1487.59 617.697 1487.68C617.723 1487.78 617.785 1487.86 617.87 1487.91C618.42 1488.41 619.7 1488.38 620.4 1488.53C621.47 1488.75 622.52 1489.01 623.57 1489.3C625.719 1489.89 627.835 1490.58 629.91 1491.39C634.231 1493.08 638.413 1495.11 642.42 1497.45C650.308 1502.07 657.738 1507.42 664.61 1513.45C665.45 1514.17 667.48 1513.45 668.36 1513.16C668.78 1513.01 670.87 1512.16 670.06 1511.44C663.188 1505.41 655.758 1500.06 647.87 1495.44C643.881 1493.13 639.73 1491.1 635.45 1489.38C633.37 1488.56 631.26 1487.82 629.11 1487.2C628.06 1486.9 627 1486.63 625.94 1486.39L624.35 1486.06C624.09 1486 623.83 1485.96 623.56 1485.91C623.13 1485.81 623.04 1485.8 623.32 1485.91L623.46 1486.42C623.37 1486.8 622.8 1486.93 623.41 1486.58C623.594 1486.48 623.771 1486.36 623.94 1486.24C624.411 1485.93 624.804 1485.52 625.09 1485.03C625.63 1484.03 623.09 1484.34 622.75 1484.39C621.75 1484.57 619.95 1484.97 619.37 1486.01V1486Z" fill="#142838"/>
<path d="M746.53 1436.69C745.729 1435.22 744.676 1433.91 743.42 1432.81C741.651 1431.12 739.788 1429.54 737.84 1428.06C732.92 1424.23 727.74 1420.73 722.5 1417.36C717.74 1414.3 712.91 1411.36 707.96 1408.6C701.85 1405.23 695.22 1402.86 688.79 1400.17L681.25 1397.02C680.15 1396.56 678.51 1396.02 677.9 1395.3C676.495 1393.33 675.218 1391.27 674.08 1389.14C672.78 1386.91 671.54 1384.62 670.08 1382.5C669.667 1381.86 669.154 1381.3 668.56 1380.83C668.306 1380.65 668.104 1380.41 667.972 1380.13C667.841 1379.85 667.785 1379.54 667.81 1379.23C667.81 1378.98 668.03 1378.72 668.04 1378.49C668.04 1378.49 668.18 1378.1 668.13 1378.35L667.91 1378.51C666.472 1379.57 664.677 1380.02 662.91 1379.77C662.78 1379.84 662.52 1379.77 662.91 1379.77C663.008 1379.79 663.105 1379.82 663.2 1379.85C663.49 1379.93 662.84 1379.69 663.13 1379.85C663.241 1379.89 663.348 1379.94 663.45 1380C663.949 1380.27 664.43 1380.58 664.89 1380.91C666.008 1381.74 667.067 1382.64 668.06 1383.62C670.37 1385.82 672.52 1388.18 674.78 1390.43C676.42 1392.25 678.405 1393.73 680.62 1394.78C681.36 1395.1 682.17 1395.56 682.18 1396.48C682.18 1396.74 682.111 1397 681.98 1397.22C681.71 1397.64 681.66 1397.58 681.37 1397.75C681.89 1397.44 681.37 1397.75 681.3 1397.75C681.587 1397.61 681.884 1397.5 682.19 1397.42C682.515 1397.32 682.851 1397.27 683.19 1397.26H683.69C684.26 1397.4 684.34 1397.36 683.95 1397.15C683.892 1396.9 683.861 1396.65 683.86 1396.4C683.86 1396.13 683.16 1399.07 684.06 1396.17C683.79 1397.03 680.24 1397.26 681.59 1397.11C681.68 1397.11 682.59 1396.98 682.13 1397.03H682.66C683.13 1397.03 683.61 1396.97 683.85 1396.97C684.943 1396.96 686.036 1397.04 687.12 1397.18C689.458 1397.53 691.754 1398.12 693.97 1398.94C698.452 1400.66 702.696 1402.94 706.6 1405.73C714.29 1410.99 721.23 1417.39 729.53 1421.73C731.618 1422.83 733.78 1423.77 736 1424.57C737.41 1425.08 739.76 1424.4 741.08 1423.89C741.69 1423.66 744.31 1422.72 743.92 1421.71C741.17 1414.58 735.07 1409.55 728.65 1405.79C721.32 1401.5 713.2 1397.79 704.65 1397.22C699.768 1397.01 694.878 1397.35 690.07 1398.22C687.86 1398.56 685.65 1398.95 683.44 1399.29L681.84 1399.52L681.16 1399.62H680.86C679.71 1399.75 678.57 1399.87 677.42 1399.94C673.01 1400.23 668.59 1399.27 664.13 1399.34C658.553 1399.54 653.122 1401.18 648.37 1404.11C643.79 1406.79 639.37 1409.73 634.86 1412.55L621.01 1421.24C620.69 1421.44 619.85 1422.02 620.01 1422.55C620.17 1423.08 621.17 1423.16 621.55 1423.19C623.713 1423.25 625.846 1422.67 627.69 1421.54L650.78 1407.06C652.41 1406.06 654.18 1404.85 655.78 1404C656.02 1403.87 656.58 1403.6 656.92 1403.44C656.92 1403.44 657.55 1403.15 657.21 1403.3C656.87 1403.45 657.51 1403.18 657.5 1403.19C657.65 1403.13 658.3 1402.83 657.59 1403.19C657.59 1403.19 658.31 1402.99 657.84 1403.11C657.37 1403.23 658.12 1403.06 658.15 1403.05C657.78 1403.05 658.48 1403.05 658.5 1403.05C660.606 1402.98 662.715 1403.09 664.8 1403.4C667.069 1403.63 669.35 1403.72 671.63 1403.66C676.063 1403.45 680.477 1402.94 684.84 1402.12C688.617 1401.36 692.45 1400.91 696.3 1400.77C704.3 1400.68 711.73 1403.97 718.62 1407.77C725.51 1411.57 732.33 1416.51 735.25 1424.1L743.17 1421.23C733.48 1417.73 725.65 1410.64 717.45 1404.65C708.73 1398.28 698.79 1393.06 687.72 1393.44C684.26 1393.55 680.48 1394.08 677.49 1395.94C676.5 1396.43 675.699 1397.24 675.21 1398.23C674.78 1399.47 675.73 1400.35 676.83 1400.68C678.325 1400.99 679.871 1400.96 681.35 1400.58C683.197 1400.23 684.992 1399.65 686.69 1398.84C688.41 1398.01 691.29 1396.36 690.92 1394.02C690.781 1393.51 690.521 1393.04 690.162 1392.66C689.804 1392.27 689.357 1391.98 688.86 1391.8L687.98 1391.45C687.85 1391.45 687.3 1391.15 687.91 1391.45C687.68 1391.34 687.46 1391.22 687.24 1391.09C686.155 1390.39 685.149 1389.58 684.24 1388.66C681.71 1386.27 679.38 1383.66 676.89 1381.24C674.96 1379.35 672.74 1377.05 670.02 1376.39C668.789 1376.15 667.521 1376.15 666.29 1376.39C664.177 1376.66 662.175 1377.5 660.49 1378.8C660.154 1379.05 659.872 1379.36 659.658 1379.72C659.445 1380.08 659.304 1380.48 659.246 1380.89C659.187 1381.31 659.211 1381.73 659.317 1382.13C659.422 1382.54 659.607 1382.92 659.86 1383.25C660.195 1383.59 660.56 1383.9 660.95 1384.17C660.682 1383.93 660.331 1383.81 659.972 1383.82C659.613 1383.84 659.275 1383.99 659.028 1384.25C658.781 1384.51 658.646 1384.86 658.651 1385.22C658.656 1385.58 658.801 1385.92 659.055 1386.18C659.309 1386.43 659.652 1386.57 660.011 1386.58C660.37 1386.58 660.718 1386.45 660.979 1386.2C661.24 1385.96 661.394 1385.62 661.409 1385.26C661.425 1384.9 661.299 1384.55 661.06 1384.28C661.21 1384.47 661.36 1384.68 661.5 1384.89C662.25 1385.98 662.93 1387.13 663.6 1388.28C665.17 1390.92 666.66 1393.62 668.33 1396.21C668.81 1397.1 669.412 1397.91 670.12 1398.63C670.699 1399.02 671.332 1399.31 672 1399.51L676.34 1401.32L692.81 1408.2C697.556 1410.28 702.145 1412.7 706.54 1415.44C712.48 1419.01 718.31 1422.77 723.97 1426.77C728.43 1429.92 733.25 1433.19 736.83 1437.37C737.05 1437.61 737.247 1437.87 737.42 1438.14C737.608 1438.42 737.775 1438.71 737.92 1439.01C738.54 1440.32 741.63 1439.5 742.63 1439.22C743.22 1439.05 747.17 1437.87 746.63 1436.68L746.53 1436.69Z" fill="#142838"/>
<path d="M710.15 1337.17C707.301 1339.88 705.391 1343.42 704.7 1347.29C703.7 1354.29 708.31 1358.37 706.26 1361.29C704.33 1364.05 699.48 1361.55 688.61 1361.81C676.8 1362.09 673.78 1365.25 669.93 1362.59C665.16 1359.29 663.72 1350.26 667.07 1344.42C670.28 1338.84 676.97 1337.76 685.5 1336.42C693.69 1335.11 702.054 1335.37 710.15 1337.17V1337.17Z" fill="#182435" stroke="#010101" stroke-width="2" stroke-miterlimit="10"/>
<path d="M687.7 1401.54C673.16 1405.31 654.27 1412.54 649.32 1418.18" stroke="#142838" stroke-width="2" stroke-miterlimit="10"/>
<path d="M670.72 1512.56C668.66 1510.56 665.72 1509.39 663.14 1508.31C659.38 1506.77 655.49 1505.55 651.6 1504.39C643.19 1501.89 634.6 1499.83 626.26 1497.26C624.41 1496.7 622.57 1496.1 620.75 1495.42L619.47 1494.92C619.08 1494.76 619.41 1494.92 619.47 1494.92L618.83 1494.64C618.226 1494.37 617.639 1494.07 617.07 1493.73C615.55 1492.83 612.97 1493.58 611.46 1494.17C611.01 1494.34 607.52 1495.93 608.89 1496.74C611.534 1498.17 614.327 1499.3 617.22 1500.11C621.16 1501.38 625.16 1502.47 629.15 1503.56C637.54 1505.86 646.05 1507.96 654.15 1511.04C656.89 1512.04 660.15 1513.28 662.48 1515.55C662.92 1515.98 664.22 1515.91 664.71 1515.87C665.871 1515.79 667.013 1515.53 668.1 1515.12C668.8 1514.85 671.8 1513.67 670.66 1512.55L670.72 1512.56Z" fill="#223B5B"/>
<path d="M681.85 1504.59C677.48 1496.86 668.85 1493.11 660.42 1491.89C655.344 1491.29 650.231 1491.04 645.12 1491.16C640.03 1491.16 634.94 1491.06 629.85 1491.24C623.901 1491.41 617.976 1492.07 612.14 1493.24C611.35 1493.41 608.98 1493.82 608.74 1494.8C608.5 1495.78 610.66 1495.41 611.05 1495.32C620.33 1493.41 629.76 1493.44 639.19 1493.5C648.28 1493.5 657.91 1493.07 666.28 1497.27C670.353 1499.2 673.758 1502.3 676.06 1506.17C676.84 1507.56 682.3 1505.41 681.85 1504.62V1504.59Z" fill="#223B5B"/>
<path d="M691.12 1493.48C689.95 1491.17 687.93 1489.88 685.63 1488.85C682.94 1487.63 680.18 1486.54 677.4 1485.55C672.365 1483.75 667.177 1482.41 661.9 1481.55C656.46 1480.7 650.954 1480.34 645.45 1480.48C640.3 1480.59 635.24 1481.32 630.11 1481.69C625.41 1482.03 620.11 1481.96 615.92 1484.44C615 1484.98 614.34 1486.31 615.49 1486.99C616.64 1487.67 618.49 1487.2 619.62 1486.53C618.81 1487.01 620.29 1486.28 619.84 1486.44C619.39 1486.6 619.99 1486.44 620.08 1486.38L620.75 1486.2L621.32 1486.08H621.44L623.03 1485.85C624.91 1485.63 626.81 1485.51 628.7 1485.38C633.25 1485.08 637.7 1484.38 642.32 1484.2C652.049 1483.78 661.776 1485.07 671.06 1488.01C673.82 1488.89 676.55 1489.9 679.22 1491.01C681.29 1491.89 684.22 1492.81 685.32 1495.01C685.93 1496.22 687.5 1496.21 688.66 1495.9C689.39 1495.7 691.71 1494.63 691.12 1493.46V1493.48Z" fill="#223B5B"/>
<path d="M704.3 1484.4C701.22 1473.1 687.52 1470.68 677.59 1469.75C665.44 1468.62 653.23 1469.75 641.14 1471.03C635.236 1471.47 629.402 1472.58 623.75 1474.34C622.68 1474.71 620.98 1475.6 621.36 1477.02C621.74 1478.44 623.72 1478.51 624.77 1478.15C629.278 1476.71 633.928 1475.77 638.64 1475.33C644.1 1474.71 649.577 1474.21 655.07 1473.82C660.603 1473.39 666.156 1473.3 671.7 1473.55C677.119 1473.68 682.497 1474.52 687.7 1476.04C692.55 1477.63 697.13 1480.81 698.53 1485.95C699.23 1488.52 705.03 1486.95 704.32 1484.4H704.3Z" fill="#223B5B"/>
<path d="M715.25 1467.49C707.97 1459.36 696.68 1456.67 686.25 1455.85C674.19 1454.91 662.1 1456.5 650.33 1459.09C643.74 1460.54 637.22 1462.33 630.75 1464.25C629.66 1464.57 627.99 1465.55 628.36 1466.94C628.73 1468.33 630.71 1468.39 631.77 1468.07C642.55 1464.88 653.47 1461.97 664.64 1460.57C675.14 1459.25 686.34 1459 696.58 1462.06C701.58 1463.58 706.43 1466.06 709.98 1470C710.98 1471.08 712.7 1471 713.91 1470.38C714.81 1469.95 716.27 1468.58 715.3 1467.49H715.25Z" fill="#223B5B"/>
<path d="M726.77 1451.89C717.574 1443.62 706.051 1438.38 693.77 1436.89C681.19 1435.26 668.05 1437.11 656.09 1441.18C649.216 1443.5 642.718 1446.81 636.8 1451C635.8 1451.72 636.25 1452.73 637.33 1453C638.051 1453.09 638.783 1453.05 639.485 1452.86C640.187 1452.67 640.844 1452.34 641.42 1451.9C650.56 1445.37 661.6 1441.68 672.67 1440.22C683.74 1438.76 694.98 1439.69 705.37 1444.02C711.258 1446.46 716.673 1449.91 721.37 1454.22C722.81 1455.55 728.24 1453.36 726.76 1451.99L726.77 1451.89Z" fill="#223B5B"/>
<path d="M748.06 1438.47C736.42 1429.67 722.36 1424.63 707.95 1422.8C695.21 1421.18 682.04 1422.25 669.37 1423.95C662.515 1424.81 655.729 1426.15 649.06 1427.95C648.48 1428.12 646.17 1428.77 646.43 1429.72C646.69 1430.67 649.11 1430.07 649.59 1429.93C654.994 1428.46 660.489 1427.35 666.04 1426.6C672.307 1425.69 678.607 1425.09 684.94 1424.78C697.56 1424.17 710 1425.29 722 1429.5C729.401 1432.08 736.358 1435.79 742.62 1440.5C743.54 1441.2 745.42 1440.59 746.37 1440.24C746.75 1440.09 748.93 1439.13 748.06 1438.48V1438.47Z" fill="#223B5B"/>
<defs>
<linearGradient id="paint0_linear_1_12966" x1="872.48" y1="1547.98" x2="1143.41" y2="1547.98" gradientUnits="userSpaceOnUse">
<stop stop-color="white"/>
<stop offset="0.02" stop-color="#FEFEFE"/>
<stop offset="0.59" stop-color="#ECECEC"/>
<stop offset="1" stop-color="#E5E5E5"/>
</linearGradient>
<linearGradient id="paint1_linear_1_12966" x1="795.41" y1="1547.98" x2="524.47" y2="1547.98" gradientUnits="userSpaceOnUse">
<stop stop-color="white"/>
<stop offset="0.02" stop-color="#FEFEFE"/>
<stop offset="0.59" stop-color="#ECECEC"/>
<stop offset="1" stop-color="#E5E5E5"/>
</linearGradient>
</defs>
</svg>
