<svg width="1660" height="1660" viewBox="0 0 1660 1660" fill="none" xmlns="http://www.w3.org/2000/svg">
<g opacity="0.7">
<path opacity="0.7" d="M1106.31 589.69C1109.22 586.241 1111.42 582.247 1112.77 577.941C1114.12 573.635 1114.6 569.104 1114.18 564.61C1113.98 562.46 1113.57 560.27 1114.11 558.19C1114.71 555.85 1116.42 553.99 1117.68 551.92C1119.28 549.217 1120.14 546.139 1120.18 542.997C1120.21 539.854 1119.42 536.758 1117.88 534.02C1111.31 538.61 1109.09 547.15 1107.35 555.02C1105.1 546.47 1091.65 545.97 1087.97 537.93C1089.66 547.938 1094.44 557.165 1101.64 564.32C1098.52 566.07 1095.42 568.32 1093.9 571.51C1091.32 577.01 1094.04 583.41 1096.74 588.86C1096.98 589.499 1097.41 590.048 1097.97 590.43C1098.6 590.688 1099.31 590.737 1099.97 590.57C1102.22 590.23 1104.45 589.783 1106.65 589.23" fill="#2B332A"/>
</g>
<g opacity="0.7">
<path opacity="0.7" d="M1024.06 596.18C1024.01 595.71 1023.8 595.271 1023.48 594.93C1023.15 594.59 1022.72 594.368 1022.25 594.3C1020.92 594.074 1019.56 594.36 1018.44 595.1C1017.45 595.645 1016.64 596.469 1016.11 597.47C1015.93 597.948 1015.91 598.47 1016.05 598.962C1016.18 599.453 1016.48 599.887 1016.88 600.2C1018.43 601.72 1020.34 603.01 1020.88 605.26C1021.11 606.155 1021.03 607.101 1020.67 607.95C1020.52 608.295 1020.29 608.598 1020 608.83C1020 608.83 1020 608.83 1020 608.83C1019.86 608.865 1019.72 608.865 1019.58 608.83C1019.12 608.745 1018.69 608.525 1018.36 608.197C1018.02 607.87 1017.79 607.449 1017.69 606.99C1017.57 606.528 1017.58 606.042 1017.72 605.586C1017.86 605.131 1018.13 604.723 1018.49 604.41C1018.89 604.14 1019.33 603.64 1018.75 603.31C1018.42 603.206 1018.06 603.178 1017.72 603.226C1017.37 603.275 1017.04 603.399 1016.75 603.59C1015.88 604.081 1015.24 604.889 1014.96 605.845C1014.68 606.8 1014.78 607.827 1015.24 608.71C1016.42 610.65 1019.24 610.79 1021.11 609.97C1022.08 609.55 1022.88 608.813 1023.38 607.88C1023.88 606.946 1024.04 605.87 1023.85 604.83C1023.5 602.59 1021.7 600.9 1020.07 599.5C1019.51 599.132 1019.09 598.596 1018.86 597.97C1018.83 597.689 1018.87 597.405 1018.98 597.145C1019.09 596.884 1019.26 596.655 1019.48 596.48C1019.69 596.278 1019.92 596.094 1020.16 595.93C1020.27 595.873 1020.38 595.809 1020.49 595.74C1020.6 595.65 1020.28 595.74 1020.37 595.74C1020.46 595.74 1020.74 595.91 1020.89 596.08C1021.08 596.305 1021.18 596.594 1021.17 596.89C1021.17 597.75 1024.07 597.21 1024.06 596.11V596.18Z" fill="#232620"/>
<path opacity="0.7" d="M1025.55 604.85C1026.57 603.772 1027.42 602.548 1028.08 601.22C1028.55 600.16 1029.08 598.42 1028.3 597.36C1027.3 595.98 1025.02 597.08 1024.09 597.95C1023.2 598.808 1022.68 599.983 1022.65 601.22C1022.71 602.807 1023.16 604.355 1023.95 605.73C1024.17 606.386 1024.65 606.928 1025.26 607.24C1025.88 607.552 1026.6 607.61 1027.26 607.4C1028.78 606.99 1029.6 605.65 1030.36 604.4C1031.13 603.106 1031.77 601.743 1032.29 600.33C1033.45 597.168 1033.92 593.797 1033.67 590.44C1033.67 589.86 1032.53 589.92 1032.2 589.99C1031.65 590.09 1030.92 590.38 1030.76 590.99C1029.85 594.54 1029.93 598.268 1030.97 601.78C1031.14 602.579 1031.44 603.346 1031.86 604.05C1032.15 604.375 1032.54 604.6 1032.96 604.694C1033.39 604.787 1033.83 604.744 1034.23 604.57C1035.3 604.24 1035.72 603.45 1036.23 602.57L1037.74 599.89C1038.08 599.29 1037.45 598.96 1036.93 598.89C1036.57 598.857 1036.2 598.915 1035.87 599.058C1035.54 599.201 1035.24 599.425 1035.02 599.71L1033.89 601.71C1033.63 602.343 1033.27 602.93 1032.83 603.45L1033.83 602.94C1034.77 602.62 1034.83 603.33 1034.49 602.69C1034.38 602.436 1034.28 602.175 1034.2 601.91C1034.01 601.38 1033.85 600.85 1033.7 600.32C1033.43 599.287 1033.25 598.233 1033.15 597.17C1032.96 594.981 1033.15 592.776 1033.7 590.65L1030.8 591.2C1031.08 595.447 1030.16 599.687 1028.13 603.43C1027.9 603.85 1027.65 604.27 1027.39 604.69L1026.95 605.35C1026.88 605.47 1026.58 605.75 1026.55 605.88C1027.47 605.99 1027.77 605.94 1027.43 605.72C1027.35 605.666 1027.27 605.594 1027.22 605.51C1027.09 605.333 1026.97 605.146 1026.87 604.95C1026.61 604.44 1026.38 603.9 1026.17 603.37C1025.72 602.392 1025.54 601.311 1025.65 600.24C1025.71 599.856 1025.83 599.484 1026.01 599.14C1026.1 598.975 1026.21 598.82 1026.33 598.68C1026.81 598.16 1026.64 598.75 1025.9 598.54L1025.43 598.28C1026.17 598.95 1025.59 600.68 1025.23 601.42C1024.69 602.444 1024.01 603.395 1023.23 604.25C1022.09 605.57 1024.88 605.66 1025.59 604.84L1025.55 604.85Z" fill="#232620"/>
<path opacity="0.7" d="M1041.53 590.66C1041.81 589.53 1041.65 588.336 1041.08 587.32C1040.74 586.893 1040.3 586.567 1039.79 586.374C1039.28 586.182 1038.73 586.133 1038.19 586.23C1035.08 586.73 1035.85 590.15 1036.01 592.39L1037.42 611.81C1037.53 613.36 1040.42 612.94 1040.36 611.61L1039.36 597.61L1038.86 590.74C1038.86 590.17 1038.75 589.59 1038.74 589.01C1038.74 588.88 1038.84 588.13 1038.83 588.12C1038.18 588.19 1038.05 588.35 1038.44 588.59C1038.57 588.796 1038.65 589.028 1038.68 589.27C1038.73 589.791 1038.71 590.317 1038.6 590.83C1038.39 592.34 1041.36 591.98 1041.54 590.63L1041.53 590.66Z" fill="#232620"/>
<path opacity="0.7" d="M1037.56 600.15C1037.56 600.07 1037.56 599.99 1037.56 599.92V599.82V599.91L1037.61 599.84C1037.68 599.74 1037.61 599.77 1037.54 599.92C1037.63 599.83 1037.59 599.86 1037.42 600L1037.59 599.89C1037.35 600.09 1037.35 600.01 1037.51 599.89L1037.71 599.81C1037.97 599.7 1037.35 599.91 1037.61 599.81C1038.36 599.636 1039.11 599.423 1039.84 599.17C1040.65 598.846 1041.39 598.357 1042 597.734C1042.61 597.111 1043.09 596.367 1043.4 595.55C1043.49 595.32 1043.27 595.07 1043.09 594.97C1042.78 594.824 1042.43 594.779 1042.09 594.84C1041.75 594.845 1041.42 594.94 1041.14 595.116C1040.85 595.292 1040.62 595.542 1040.46 595.84C1040.46 595.95 1040.46 595.95 1040.46 595.84L1040.4 595.96C1040.37 596.039 1040.33 596.116 1040.29 596.19C1040.2 596.355 1040.1 596.515 1040 596.67L1039.84 596.88C1039.67 597.1 1040 596.71 1039.84 596.88C1039.68 597.05 1039.6 597.13 1039.47 597.24C1039.34 597.35 1039.17 597.49 1039.34 597.36L1039.22 597.44L1038.97 597.6C1038.87 597.66 1038.64 597.73 1038.97 597.6L1038.5 597.81C1038.9 597.62 1038.67 597.75 1038.55 597.81L1038.28 597.88C1037.57 598.019 1036.87 598.233 1036.2 598.52C1035.45 598.88 1034.61 599.52 1034.55 600.39C1034.5 601.05 1035.32 601.17 1035.82 601.1C1036.21 601.06 1036.59 600.93 1036.92 600.72C1037.13 600.58 1037.44 600.35 1037.45 600.07L1037.56 600.15Z" fill="#232620"/>
<path opacity="0.7" d="M1049.09 595.23L1052.19 592.69C1052.32 592.58 1052.57 592.39 1052.51 592.18C1052.45 591.97 1052.14 591.91 1051.98 591.89C1051.27 591.859 1050.57 592.052 1049.98 592.44L1046.87 594.99C1046.75 595.09 1046.5 595.29 1046.56 595.5C1046.62 595.71 1046.93 595.77 1047.09 595.78C1047.45 595.813 1047.81 595.775 1048.16 595.67C1048.52 595.595 1048.86 595.445 1049.16 595.23H1049.09Z" fill="#232620"/>
<path opacity="0.7" d="M1056.57 581.7C1055.81 587.036 1056.09 592.469 1057.39 597.7C1057.64 598.7 1059.57 598.15 1060.02 597.63C1062.39 594.952 1063.7 591.498 1063.7 587.92C1063.7 586.58 1060.94 587.14 1060.79 588.23C1060.45 590.59 1061.02 594.36 1063.79 595.11C1066.79 595.93 1068.7 593.05 1069.24 590.53C1069.73 588.21 1069.14 584.65 1066.15 584.6C1065.42 584.611 1064.7 584.789 1064.04 585.122C1063.39 585.455 1062.82 585.933 1062.38 586.52C1061.57 587.59 1061.38 588.97 1060.61 590.09C1060.23 590.68 1060.94 591.09 1061.43 591.09C1061.79 591.121 1062.16 591.061 1062.49 590.917C1062.82 590.772 1063.12 590.546 1063.34 590.26C1063.76 589.528 1064.11 588.762 1064.4 587.97C1064.54 587.581 1064.74 587.212 1064.97 586.87C1065.06 586.751 1065.17 586.64 1065.28 586.54C1065.44 586.4 1065.6 586.45 1065.42 586.42C1065.24 586.39 1065.71 586.79 1065.8 586.91C1066.03 587.262 1066.2 587.651 1066.3 588.06C1066.51 588.887 1066.54 589.752 1066.37 590.59C1066.24 591.406 1065.97 592.192 1065.56 592.91L1065.31 593.29C1065.16 593.54 1065.11 593.35 1065.31 593.42H1065.56H1065.44C1065.44 593.35 1065.11 593.19 1065.04 593.11C1063.75 591.89 1063.53 589.65 1063.77 588L1060.86 588.31C1060.92 591.517 1059.81 594.636 1057.73 597.08L1060.36 597.01C1059.08 591.925 1058.81 586.64 1059.55 581.45C1059.74 580.17 1056.8 580.64 1056.64 581.75L1056.57 581.7Z" fill="#232620"/>
<path opacity="0.7" d="M1069.34 583.16C1069.23 585.322 1069.94 587.446 1071.34 589.1C1071.78 589.61 1072.76 589.46 1073.28 589.21C1075.61 588.11 1075.99 585.64 1075.28 583.37C1074.78 582.266 1074.44 581.093 1074.28 579.89C1074.26 579.425 1074.35 578.962 1074.52 578.53C1074.59 578.383 1074.67 578.243 1074.76 578.11C1074.76 578.11 1074.98 577.9 1074.86 578C1075.07 577.83 1074.77 578 1075.04 577.91C1075.5 577.73 1076.2 577.12 1075.77 576.6C1075.34 576.08 1074.36 576.27 1073.83 576.48C1071.45 577.43 1071 580.02 1071.7 582.24C1072.19 583.379 1072.53 584.58 1072.7 585.81C1072.72 586.244 1072.66 586.677 1072.52 587.09C1072.45 587.266 1072.37 587.434 1072.26 587.59C1072.2 587.658 1072.14 587.722 1072.07 587.78C1072.2 587.66 1071.84 587.89 1072.07 587.78L1074.01 587.9C1072.82 586.513 1072.19 584.728 1072.25 582.9C1072.31 581.56 1069.38 582.08 1069.33 583.2L1069.34 583.16Z" fill="#232620"/>
<path opacity="0.7" d="M1079.27 584.62C1080.49 583.052 1081.16 581.134 1081.2 579.15C1081.2 578.4 1081.29 577.09 1080.53 576.65C1079.98 576.414 1079.36 576.375 1078.78 576.54C1077.97 576.66 1077.2 577.006 1076.58 577.54C1075.99 578.264 1075.7 579.189 1075.78 580.12C1075.75 581.173 1075.92 582.223 1076.29 583.21C1076.59 584.129 1077.11 584.964 1077.79 585.65C1078.19 585.972 1078.66 586.203 1079.16 586.327C1079.66 586.451 1080.18 586.466 1080.69 586.37C1082.17 586.227 1083.57 585.618 1084.69 584.63C1085.51 583.781 1086.18 582.805 1086.69 581.74C1086.92 581.29 1085.69 581.46 1085.53 581.48C1085.15 581.551 1084.78 581.669 1084.43 581.83C1084.19 581.906 1083.98 582.057 1083.83 582.26C1083.49 582.958 1083.08 583.627 1082.63 584.26C1082.41 584.535 1082.17 584.789 1081.91 585.02C1081.81 585.103 1081.7 585.18 1081.59 585.25H1081.52C1081.25 585.4 1081.52 585.25 1081.63 585.25H1081.87C1081.64 585.25 1081.74 585.25 1081.8 585.25C1081.67 585.249 1081.55 585.229 1081.43 585.19C1081.09 585.067 1080.78 584.872 1080.52 584.62C1079.99 584.068 1079.59 583.41 1079.33 582.69C1078.68 581.215 1078.53 579.57 1078.89 578C1078.98 577.711 1079.13 577.443 1079.32 577.21C1079.32 577.21 1077.82 577.64 1077.82 577.64C1077.82 577.64 1077.91 577.64 1077.92 577.71C1078.04 577.827 1078.12 577.972 1078.17 578.13C1078.35 578.858 1078.41 579.613 1078.33 580.36C1078.2 582.113 1077.54 583.787 1076.46 585.17C1076.14 585.57 1077.52 585.44 1077.61 585.43C1078.25 585.366 1078.85 585.092 1079.31 584.65L1079.27 584.62Z" fill="#232620"/>
</g>
</svg>
