<svg width="1660" height="1660" viewBox="0 0 1660 1660" fill="none" xmlns="http://www.w3.org/2000/svg">
<path d="M724.77 935.48C734.63 956.32 724.91 1077.93 681.91 1237.61C681.512 1239.08 681.419 1240.61 681.637 1242.12C681.855 1243.62 682.379 1245.07 683.178 1246.36C683.976 1247.66 685.032 1248.78 686.279 1249.65C687.526 1250.52 688.939 1251.13 690.43 1251.43C729.43 1259.25 780.52 1263.43 819.54 1263.43H839.2C878.57 1263.43 931.56 1258.06 974.1 1250.63C975.55 1250.38 976.931 1249.83 978.155 1249.01C979.38 1248.19 980.42 1247.13 981.21 1245.89C981.999 1244.65 982.521 1243.25 982.742 1241.8C982.962 1240.34 982.876 1238.86 982.49 1237.44C938.29 1075.44 913.21 947.99 935.91 937.16C957.33 926.94 961.22 926.79 961.22 926.79C980.8 920.09 980.41 921.72 984.86 917.58C989.31 913.44 990.86 905.31 968.27 863.42C951.86 833.04 953.43 832.27 941.01 825.05C934.77 821.43 898.13 804.98 880.45 799.82C859.25 793.63 871.65 798.03 860.76 794.5L829 801.21L797.28 794.54C786.38 798.07 800.18 796.67 778.37 800.69C768.61 802.48 755.14 810.79 724.31 825.09C698.69 836.98 686.52 841.09 686.52 841.09C669.22 847.19 663.4 849.09 660.43 853.5C656.13 859.92 650.22 875.93 682.77 917.5C683.885 918.922 685.318 920.063 686.954 920.831C688.59 921.599 690.384 921.972 692.19 921.92L704.52 921.52C712.87 921.25 717.52 919.28 719.74 921.82C721.74 924.05 723.62 932.9 724.74 935.4" fill="#F2D9C4"/>
<path d="M724.77 935.48C734.63 956.32 724.91 1077.93 681.91 1237.61C681.512 1239.08 681.419 1240.61 681.637 1242.12C681.855 1243.62 682.379 1245.07 683.178 1246.36C683.976 1247.66 685.032 1248.78 686.279 1249.65C687.526 1250.52 688.939 1251.13 690.43 1251.43C729.43 1259.25 780.52 1263.43 819.54 1263.43H839.2C878.57 1263.43 931.56 1258.06 974.1 1250.63C975.55 1250.38 976.931 1249.83 978.155 1249.01C979.38 1248.19 980.42 1247.13 981.21 1245.89C981.999 1244.65 982.521 1243.25 982.742 1241.8C982.962 1240.34 982.876 1238.86 982.49 1237.44C938.29 1075.44 913.21 947.99 935.91 937.16C957.33 926.94 961.22 926.79 961.22 926.79C980.8 920.09 980.41 921.72 984.86 917.58C989.31 913.44 990.86 905.31 968.27 863.42C951.86 833.04 953.43 832.27 941.01 825.05C934.77 821.43 898.13 804.98 880.45 799.82C859.25 793.63 871.65 798.03 860.76 794.5L829 801.21L797.28 794.54C786.38 798.07 800.18 796.67 778.37 800.69C768.61 802.48 755.14 810.79 724.31 825.09C698.69 836.98 686.52 841.09 686.52 841.09C669.22 847.19 663.4 849.09 660.43 853.5C656.13 859.92 650.22 875.93 682.77 917.5C683.885 918.922 685.318 920.063 686.954 920.831C688.59 921.599 690.384 921.972 692.19 921.92L704.52 921.52C712.87 921.25 717.52 919.28 719.74 921.82C721.74 924.05 723.62 932.9 724.74 935.4" stroke="black" stroke-width="4" stroke-miterlimit="10"/>
<path d="M741.53 894.21L746.93 939.89C747.026 940.665 747.287 941.411 747.696 942.076C748.106 942.741 748.654 943.31 749.302 943.745C749.951 944.179 750.686 944.469 751.457 944.594C752.228 944.719 753.017 944.677 753.77 944.47L782.2 936.69C783.475 936.336 784.581 935.535 785.315 934.433C786.049 933.332 786.363 932.004 786.2 930.69C784.267 915.357 782.343 899.997 780.43 884.61C779.9 880.4 775.5 880.44 773.79 880.08C769.27 879.08 767.53 882.34 759.95 884.21C752.95 885.94 750.52 884.1 746.68 886.75C744.33 888.39 741.09 890.55 741.53 894.21Z" fill="url(#paint0_radial_1_15361)" stroke="#C19774" stroke-width="4" stroke-miterlimit="10"/>
<path d="M815.81 808.38C816.05 864.6 816.28 919.97 816.52 976.19L829.7 989.47L844.19 976.47L840.5 810" fill="url(#paint1_radial_1_15361)"/>
<path d="M815.81 808.38C816.05 864.6 816.28 919.97 816.52 976.19L829.7 989.47L844.19 976.47L840.5 810" stroke="#C19774" stroke-width="4" stroke-miterlimit="10"/>
<path d="M832.16 861.35C831.797 862.056 831.231 862.639 830.536 863.023C829.84 863.407 829.046 863.575 828.255 863.506C827.464 863.437 826.711 863.134 826.092 862.635C825.474 862.137 825.018 861.465 824.782 860.707C824.547 859.948 824.543 859.136 824.77 858.375C824.998 857.614 825.447 856.938 826.06 856.433C826.674 855.928 827.424 855.617 828.214 855.54C829.005 855.463 829.801 855.623 830.5 856C831.422 856.497 832.112 857.336 832.423 858.336C832.733 859.336 832.639 860.418 832.16 861.35V861.35Z" fill="#F0C8A6" stroke="#C19774" stroke-width="2" stroke-miterlimit="10"/>
<path d="M828.65 909.43C830.843 909.43 832.62 907.666 832.62 905.49C832.62 903.314 830.843 901.55 828.65 901.55C826.457 901.55 824.68 903.314 824.68 905.49C824.68 907.666 826.457 909.43 828.65 909.43Z" fill="#F0C8A6" stroke="#C19774" stroke-width="2" stroke-miterlimit="10"/>
<path d="M830.49 959.49C832.683 959.49 834.46 957.726 834.46 955.55C834.46 953.374 832.683 951.61 830.49 951.61C828.297 951.61 826.52 953.374 826.52 955.55C826.52 957.726 828.297 959.49 830.49 959.49Z" fill="#F0C8A6" stroke="#C19774" stroke-width="2" stroke-miterlimit="10"/>
<path d="M763.51 896.83C763.151 897.54 762.588 898.127 761.893 898.516C761.198 898.905 760.403 899.077 759.609 899.011C758.816 898.945 758.06 898.644 757.439 898.146C756.818 897.648 756.359 896.976 756.122 896.216C755.885 895.456 755.88 894.643 756.108 893.88C756.336 893.117 756.786 892.44 757.401 891.934C758.016 891.429 758.768 891.118 759.561 891.043C760.353 890.967 761.15 891.13 761.85 891.51C762.309 891.749 762.717 892.077 763.049 892.474C763.381 892.871 763.632 893.33 763.786 893.825C763.94 894.319 763.995 894.839 763.948 895.355C763.901 895.871 763.752 896.372 763.51 896.83V896.83Z" fill="#F0C8A6" stroke="#C19774" stroke-width="2" stroke-miterlimit="10"/>
<path d="M737.39 1078.1C737.32 1075.33 740.47 1073.1 744.27 1073.24C752.799 1073.59 761.34 1073.5 769.86 1072.98C778.94 1072.43 787.17 1071.45 794.39 1070.29C798.33 1069.66 802.09 1071.74 802.33 1074.67L809.41 1159.61C809.59 1161.82 807.69 1163.84 804.78 1164.47C794.782 1166.65 784.638 1168.1 774.43 1168.81C764.776 1169.49 755.088 1169.53 745.43 1168.92C742.11 1168.71 739.56 1166.67 739.5 1164.24C738.8 1135.53 738.097 1106.82 737.39 1078.1Z" fill="url(#paint2_radial_1_15361)" stroke="#C19774" stroke-width="4" stroke-miterlimit="10"/>
<path d="M921.1 1077.2C921.17 1074.37 917.95 1072.08 914.1 1072.2C905.384 1072.55 896.657 1072.46 887.95 1071.94C878.67 1071.38 870.27 1070.37 862.89 1069.19C858.89 1068.54 855.03 1070.67 854.78 1073.66L847.55 1160.44C847.36 1162.7 849.3 1164.76 852.28 1165.44C862.493 1167.66 872.853 1169.15 883.28 1169.88C893.137 1170.57 903.029 1170.6 912.89 1169.98C916.28 1169.77 918.89 1167.69 918.95 1165.21C919.65 1135.87 920.367 1106.53 921.1 1077.2Z" fill="url(#paint3_radial_1_15361)" stroke="#C19774" stroke-width="4" stroke-miterlimit="10"/>
<path d="M914.06 893.86L908.66 939.54C908.566 940.316 908.306 941.062 907.897 941.728C907.488 942.394 906.94 942.964 906.291 943.399C905.641 943.834 904.906 944.123 904.134 944.248C903.362 944.372 902.573 944.329 901.82 944.12L873.38 936.35C872.106 935.994 871.001 935.193 870.268 934.092C869.534 932.991 869.219 931.663 869.38 930.35C871.3 915.017 873.223 899.657 875.15 884.27C875.68 880.05 880.08 880.1 881.79 879.73C886.31 878.73 888.05 882 895.63 883.86C902.63 885.6 905.05 883.76 908.89 886.41C911.26 888.05 914.49 890.21 914.06 893.86Z" fill="url(#paint4_radial_1_15361)" stroke="#C19774" stroke-width="4" stroke-miterlimit="10"/>
<path d="M892.08 896.49C892.441 897.199 893.004 897.785 893.7 898.172C894.395 898.559 895.189 898.73 895.982 898.663C896.775 898.596 897.53 898.294 898.15 897.796C898.77 897.298 899.228 896.626 899.465 895.866C899.701 895.107 899.706 894.294 899.478 893.532C899.25 892.769 898.8 892.092 898.186 891.587C897.571 891.082 896.82 890.771 896.028 890.695C895.236 890.619 894.439 890.781 893.74 891.16C892.823 891.657 892.137 892.492 891.826 893.488C891.516 894.483 891.607 895.561 892.08 896.49Z" fill="#F0C8A6" stroke="#C19774" stroke-width="2" stroke-miterlimit="10"/>
<path d="M863.38 1091.2L868.05 1091.49C868.457 1091.53 868.864 1091.41 869.184 1091.15C869.503 1090.9 869.71 1090.53 869.76 1090.12L870.48 1080.31C870.488 1080.11 870.456 1079.91 870.385 1079.72C870.314 1079.53 870.206 1079.35 870.067 1079.21C869.928 1079.06 869.762 1078.94 869.577 1078.86C869.392 1078.78 869.192 1078.73 868.99 1078.73L864.33 1078.44C863.922 1078.4 863.514 1078.52 863.194 1078.77C862.874 1079.03 862.668 1079.4 862.62 1079.81L861.89 1089.62C861.883 1089.82 861.917 1090.02 861.988 1090.21C862.059 1090.4 862.168 1090.57 862.306 1090.72C862.445 1090.87 862.611 1090.99 862.795 1091.07C862.979 1091.15 863.178 1091.19 863.38 1091.2V1091.2Z" fill="#F0C8A6" stroke="#C19774" stroke-width="2" stroke-miterlimit="10"/>
<path d="M831.51 800C848.71 800.35 865.07 801.26 880.51 802.54L862.67 846.27L829.57 809.71L797.88 845.4L778.37 800.69C788.16 800.37 810.33 799.54 831.51 800Z" fill="url(#paint5_radial_1_15361)" stroke="#C19774" stroke-width="4" stroke-miterlimit="10"/>
<path d="M907.75 1093.24L912.42 1093.53C912.828 1093.57 913.235 1093.45 913.553 1093.19C913.871 1092.93 914.075 1092.56 914.12 1092.15L914.85 1082.35C914.857 1082.15 914.823 1081.95 914.752 1081.76C914.681 1081.57 914.572 1081.4 914.434 1081.25C914.295 1081.1 914.129 1080.98 913.945 1080.9C913.761 1080.82 913.562 1080.78 913.36 1080.77L908.69 1080.48C908.284 1080.44 907.878 1080.56 907.56 1080.82C907.243 1081.07 907.038 1081.44 906.99 1081.85L906.26 1091.66C906.249 1092.07 906.4 1092.46 906.679 1092.76C906.958 1093.05 907.343 1093.23 907.75 1093.24V1093.24Z" fill="#F0C8A6" stroke="#C19774" stroke-width="2" stroke-miterlimit="10"/>
<path d="M870.14 1085C882.083 1087.97 894.509 1088.47 906.65 1086.45" stroke="#C19774" stroke-width="3" stroke-miterlimit="10"/>
<path d="M794.85 1092.53L790.19 1092.83C789.781 1092.87 789.373 1092.75 789.053 1092.49C788.734 1092.23 788.528 1091.86 788.48 1091.45L787.75 1081.64C787.745 1081.44 787.779 1081.24 787.851 1081.05C787.923 1080.86 788.031 1080.69 788.17 1080.55C788.308 1080.4 788.474 1080.28 788.657 1080.2C788.841 1080.12 789.039 1080.08 789.24 1080.07L793.91 1079.78C794.317 1079.74 794.724 1079.86 795.044 1080.12C795.363 1080.37 795.57 1080.74 795.62 1081.15L796.34 1090.96C796.347 1091.16 796.313 1091.36 796.242 1091.55C796.17 1091.74 796.062 1091.91 795.923 1092.06C795.785 1092.2 795.618 1092.32 795.434 1092.4C795.25 1092.48 795.051 1092.53 794.85 1092.53V1092.53Z" fill="#F0C8A6" stroke="#C19774" stroke-width="2" stroke-miterlimit="10"/>
<path d="M750.49 1094.57L745.82 1094.87C745.411 1094.91 745.003 1094.79 744.683 1094.53C744.364 1094.27 744.158 1093.9 744.11 1093.49L743.39 1083.68C743.382 1083.48 743.414 1083.28 743.485 1083.09C743.556 1082.9 743.665 1082.73 743.804 1082.58C743.942 1082.43 744.109 1082.32 744.294 1082.24C744.479 1082.16 744.678 1082.11 744.88 1082.11L749.54 1081.82C749.948 1081.78 750.356 1081.9 750.676 1082.15C750.996 1082.41 751.202 1082.78 751.25 1083.19L752 1093C752.007 1093.2 751.973 1093.41 751.9 1093.59C751.827 1093.78 751.717 1093.96 751.576 1094.1C751.436 1094.25 751.267 1094.37 751.08 1094.45C750.894 1094.53 750.693 1094.57 750.49 1094.57Z" fill="#F0C8A6" stroke="#C19774" stroke-width="2" stroke-miterlimit="10"/>
<path d="M788.1 1086.33C776.158 1089.31 763.732 1089.81 751.59 1087.79" stroke="#C19774" stroke-width="3" stroke-miterlimit="10"/>
<path d="M889.08 1085.83C889.16 1085.77 889.08 1085.67 889.03 1085.63C888.478 1085.36 887.848 1085.31 887.257 1085.47C886.666 1085.63 886.155 1086.01 885.82 1086.52C885.451 1087.01 885.235 1087.59 885.198 1088.2C885.16 1088.81 885.304 1089.41 885.61 1089.94C885.778 1090.18 885.997 1090.37 886.251 1090.51C886.505 1090.65 886.787 1090.73 887.076 1090.74C887.365 1090.75 887.653 1090.7 887.919 1090.59C888.185 1090.47 888.421 1090.3 888.61 1090.08C888.843 1089.85 889.06 1089.6 889.26 1089.34C889.26 1089.28 889.26 1089.34 889.26 1089.41C889.26 1089.48 889.26 1089.41 889.26 1089.41C888.387 1089.2 887.551 1088.87 886.78 1088.41C887.642 1088.63 888.522 1088.77 889.41 1088.83C890.41 1089.1 889.52 1090.14 889.16 1090.6C888.904 1090.93 888.576 1091.2 888.2 1091.39C887.824 1091.58 887.41 1091.68 886.99 1091.68C882.99 1091.44 883.63 1085.24 887.25 1084.96C887.581 1084.93 887.915 1084.96 888.231 1085.07C888.546 1085.17 888.836 1085.34 889.08 1085.57C889.08 1085.63 889.18 1085.78 889.08 1085.82V1085.83Z" fill="#595A5A"/>
<path d="M892.22 1086.2C892.3 1086.14 892.22 1086.05 892.17 1086C891.616 1085.74 890.985 1085.68 890.394 1085.84C889.803 1086.01 889.29 1086.38 888.95 1086.89C888.584 1087.38 888.369 1087.96 888.332 1088.57C888.294 1089.18 888.436 1089.78 888.74 1090.31C888.907 1090.55 889.125 1090.74 889.38 1090.88C889.634 1091.02 889.916 1091.1 890.206 1091.12C890.495 1091.13 890.784 1091.08 891.05 1090.96C891.316 1090.85 891.552 1090.67 891.74 1090.45C891.976 1090.22 892.196 1089.97 892.4 1089.71C892.4 1089.71 892.4 1089.71 892.4 1089.78C892.4 1089.85 892.4 1089.78 892.4 1089.78C891.527 1089.58 890.69 1089.24 889.92 1088.78C890.781 1089 891.662 1089.14 892.55 1089.2C893.55 1089.47 892.66 1090.51 892.29 1090.98C892.034 1091.31 891.705 1091.58 891.329 1091.77C890.953 1091.95 890.539 1092.05 890.12 1092.05C886.12 1091.82 886.77 1085.62 890.38 1085.33C890.711 1085.3 891.045 1085.33 891.361 1085.44C891.677 1085.54 891.966 1085.71 892.21 1085.94C892.27 1086.01 892.31 1086.15 892.21 1086.19L892.22 1086.2Z" fill="#595A5A"/>
<path d="M889.08 1085.48C889.16 1085.42 889.08 1085.33 889.03 1085.28C888.478 1085.02 887.848 1084.96 887.259 1085.13C886.669 1085.29 886.158 1085.66 885.82 1086.17C885.451 1086.66 885.235 1087.24 885.198 1087.85C885.16 1088.46 885.304 1089.06 885.61 1089.59C885.777 1089.83 885.995 1090.02 886.25 1090.16C886.504 1090.3 886.786 1090.38 887.076 1090.4C887.365 1090.41 887.654 1090.36 887.92 1090.24C888.186 1090.13 888.422 1089.95 888.61 1089.73C888.845 1089.5 889.062 1089.25 889.26 1088.99C889.26 1088.99 889.26 1088.99 889.26 1089.06C889.26 1089.13 889.26 1089.06 889.26 1089.06C888.387 1088.85 887.551 1088.52 886.78 1088.06C887.642 1088.28 888.522 1088.42 889.41 1088.48C890.41 1088.75 889.52 1089.79 889.16 1090.25C888.904 1090.58 888.576 1090.85 888.2 1091.04C887.824 1091.23 887.41 1091.33 886.99 1091.33C882.99 1091.09 883.63 1084.89 887.25 1084.61C887.581 1084.58 887.915 1084.61 888.231 1084.72C888.546 1084.82 888.836 1084.99 889.08 1085.22C889.08 1085.29 889.18 1085.43 889.08 1085.47V1085.48Z" fill="#CC8656"/>
<path d="M892.22 1085.86C892.3 1085.79 892.22 1085.7 892.17 1085.65C891.616 1085.39 890.985 1085.33 890.394 1085.49C889.803 1085.66 889.29 1086.03 888.95 1086.54C888.584 1087.03 888.369 1087.61 888.332 1088.22C888.294 1088.83 888.436 1089.43 888.74 1089.96C888.907 1090.2 889.125 1090.39 889.38 1090.53C889.634 1090.67 889.916 1090.75 890.206 1090.77C890.495 1090.78 890.784 1090.73 891.05 1090.61C891.316 1090.5 891.552 1090.32 891.74 1090.1C891.976 1089.87 892.196 1089.62 892.4 1089.36C892.4 1089.36 892.4 1089.36 892.4 1089.43C892.4 1089.5 892.4 1089.43 892.4 1089.43C891.527 1089.23 890.69 1088.89 889.92 1088.43C890.781 1088.66 891.662 1088.8 892.55 1088.86C893.55 1089.12 892.66 1090.17 892.29 1090.63C892.034 1090.96 891.705 1091.23 891.329 1091.42C890.953 1091.6 890.539 1091.7 890.12 1091.7C886.12 1091.47 886.77 1085.27 890.38 1084.98C890.711 1084.95 891.045 1084.99 891.36 1085.09C891.675 1085.2 891.965 1085.37 892.21 1085.59C892.27 1085.66 892.31 1085.8 892.21 1085.85L892.22 1085.86Z" fill="#DD9361"/>
<path d="M770 1086.88C770.07 1086.81 770 1086.73 769.93 1086.69C769.352 1086.48 768.719 1086.5 768.149 1086.72C767.578 1086.95 767.11 1087.37 766.83 1087.92C766.515 1088.44 766.363 1089.05 766.391 1089.65C766.419 1090.26 766.628 1090.85 766.99 1091.34C767.18 1091.56 767.418 1091.73 767.686 1091.85C767.954 1091.96 768.244 1092.01 768.535 1091.99C768.825 1091.97 769.107 1091.89 769.36 1091.75C769.612 1091.6 769.828 1091.4 769.99 1091.16C770.201 1090.9 770.395 1090.63 770.57 1090.35C770.57 1090.35 770.57 1090.35 770.57 1090.42C770.57 1090.49 770.57 1090.42 770.57 1090.42C769.682 1090.31 768.816 1090.08 768 1089.71C768.88 1089.84 769.771 1089.89 770.66 1089.85C771.66 1090.01 770.91 1091.14 770.6 1091.64C770.386 1091.99 770.095 1092.29 769.748 1092.52C769.402 1092.74 769.01 1092.89 768.6 1092.94C764.6 1093.14 764.6 1086.94 768.14 1086.23C768.465 1086.16 768.8 1086.16 769.124 1086.23C769.448 1086.31 769.753 1086.44 770.02 1086.64C770.08 1086.7 770.14 1086.84 770.02 1086.89L770 1086.88Z" fill="#595A5A"/>
<path d="M773.12 1086.92C773.19 1086.85 773.12 1086.76 773.05 1086.72C772.473 1086.53 771.847 1086.56 771.287 1086.79C770.727 1087.03 770.27 1087.46 770 1088C769.683 1088.52 769.529 1089.13 769.558 1089.74C769.586 1090.35 769.796 1090.94 770.16 1091.43C770.352 1091.65 770.591 1091.82 770.859 1091.93C771.127 1092.04 771.417 1092.09 771.707 1092.07C771.996 1092.05 772.278 1091.97 772.53 1091.82C772.782 1091.68 772.997 1091.48 773.16 1091.24C773.373 1090.99 773.564 1090.72 773.73 1090.44C773.73 1090.38 773.73 1090.44 773.78 1090.5C773.83 1090.56 773.78 1090.5 773.78 1090.5C772.892 1090.4 772.024 1090.17 771.21 1089.8C772.091 1089.92 772.981 1089.97 773.87 1089.94C774.92 1090.09 774.12 1091.23 773.8 1091.72C773.588 1092.07 773.297 1092.38 772.951 1092.6C772.604 1092.83 772.21 1092.97 771.8 1093.02C767.8 1093.22 767.8 1087.02 771.34 1086.32C771.666 1086.25 772.003 1086.25 772.329 1086.32C772.655 1086.39 772.962 1086.53 773.23 1086.73C773.29 1086.79 773.35 1086.93 773.23 1086.98L773.12 1086.92Z" fill="#595A5A"/>
<path d="M769.92 1086.54C770 1086.47 769.92 1086.38 769.85 1086.34C769.272 1086.14 768.64 1086.15 768.07 1086.38C767.5 1086.6 767.031 1087.03 766.75 1087.57C766.438 1088.09 766.287 1088.7 766.315 1089.3C766.344 1089.91 766.55 1090.5 766.91 1090.99C767.101 1091.21 767.339 1091.38 767.607 1091.49C767.875 1091.6 768.165 1091.65 768.454 1091.64C768.744 1091.62 769.026 1091.54 769.278 1091.39C769.53 1091.25 769.747 1091.05 769.91 1090.81C770.117 1090.56 770.307 1090.29 770.48 1090.01C770.48 1089.95 770.48 1090.01 770.48 1090.07C770.48 1090.13 770.48 1090.07 770.48 1090.07C769.591 1089.97 768.724 1089.73 767.91 1089.36C768.79 1089.49 769.681 1089.54 770.57 1089.51C771.57 1089.66 770.81 1090.8 770.5 1091.29C770.286 1091.64 769.995 1091.94 769.648 1092.17C769.302 1092.39 768.91 1092.54 768.5 1092.59C764.5 1092.79 764.5 1086.59 768.04 1085.89C768.364 1085.82 768.7 1085.82 769.025 1085.89C769.349 1085.96 769.654 1086.1 769.92 1086.3C769.98 1086.36 770.04 1086.5 769.92 1086.55V1086.54Z" fill="#CC8656"/>
<path d="M773.08 1086.57C773.15 1086.5 773.08 1086.42 773.01 1086.38C772.433 1086.18 771.802 1086.19 771.232 1086.41C770.663 1086.63 770.193 1087.06 769.91 1087.6C769.596 1088.12 769.443 1088.73 769.472 1089.34C769.5 1089.95 769.708 1090.54 770.07 1091.03C770.261 1091.25 770.499 1091.42 770.767 1091.53C771.035 1091.64 771.325 1091.69 771.614 1091.68C771.904 1091.66 772.186 1091.58 772.438 1091.43C772.69 1091.29 772.907 1091.09 773.07 1090.85C773.281 1090.59 773.475 1090.32 773.65 1090.04C773.65 1089.98 773.65 1090.04 773.65 1090.1C773.65 1090.16 773.65 1090.1 773.65 1090.1C772.762 1089.99 771.896 1089.76 771.08 1089.39C771.96 1089.52 772.851 1089.57 773.74 1089.53C774.74 1089.68 773.99 1090.82 773.68 1091.32C773.464 1091.67 773.172 1091.97 772.827 1092.2C772.481 1092.42 772.089 1092.57 771.68 1092.62C767.68 1092.82 767.68 1086.62 771.21 1085.91C771.536 1085.84 771.873 1085.84 772.199 1085.91C772.524 1085.99 772.831 1086.12 773.1 1086.32C773.16 1086.38 773.22 1086.52 773.1 1086.57H773.08Z" fill="#DD9361"/>
<path d="M830.59 954.2C830.59 954.1 830.51 954.07 830.44 954.05C830.154 953.982 829.854 954.012 829.586 954.133C829.318 954.254 829.098 954.46 828.96 954.72C828.22 955.95 829.42 957.64 830.59 956.39C830.698 956.262 830.795 956.125 830.88 955.98C830.88 955.98 830.88 955.98 830.88 955.98C830.425 955.926 829.98 955.805 829.56 955.62C829.917 955.676 830.278 955.703 830.64 955.7C831.46 955.62 831.18 956.15 830.88 956.61C830.766 956.792 830.611 956.945 830.427 957.057C830.243 957.169 830.036 957.237 829.822 957.255C829.608 957.273 829.393 957.242 829.193 957.163C828.993 957.084 828.814 956.96 828.67 956.8C828.418 956.468 828.281 956.062 828.281 955.645C828.281 955.228 828.418 954.822 828.67 954.49C828.861 954.197 829.151 953.983 829.487 953.885C829.822 953.788 830.182 953.815 830.5 953.96C830.56 953.96 830.71 954.09 830.62 954.18L830.59 954.2Z" fill="#595A5A"/>
<path d="M832.21 954.21C832.21 954.12 832.13 954.09 832.06 954.07C831.774 954.001 831.473 954.029 831.205 954.15C830.937 954.272 830.717 954.479 830.58 954.74C829.84 955.96 831.04 957.65 832.21 956.41C832.316 956.28 832.412 956.143 832.5 956C832.5 956 832.5 956 832.5 956C832.044 955.954 831.599 955.836 831.18 955.65C831.537 955.706 831.898 955.733 832.26 955.73C833.08 955.65 832.8 956.18 832.5 956.63C832.386 956.813 832.232 956.966 832.049 957.079C831.866 957.192 831.659 957.261 831.445 957.28C831.231 957.3 831.015 957.269 830.814 957.191C830.614 957.113 830.434 956.989 830.29 956.83C830.033 956.5 829.893 956.093 829.893 955.675C829.893 955.257 830.033 954.85 830.29 954.52C830.478 954.226 830.766 954.011 831.1 953.913C831.435 953.816 831.794 953.843 832.11 953.99C832.18 953.99 832.33 954.11 832.24 954.2L832.21 954.21Z" fill="#595A5A"/>
<path d="M830.57 954C830.57 953.91 830.49 953.87 830.42 953.85C830.134 953.782 829.834 953.812 829.566 953.933C829.298 954.054 829.078 954.261 828.94 954.52C828.2 955.75 829.41 957.44 830.57 956.2C830.676 956.066 830.773 955.926 830.86 955.78C830.86 955.78 830.86 955.78 830.86 955.78C830.403 955.737 829.956 955.615 829.54 955.42C829.897 955.476 830.258 955.503 830.62 955.5C831.44 955.42 831.16 955.95 830.86 956.41C830.746 956.593 830.592 956.747 830.409 956.859C830.226 956.972 830.019 957.041 829.805 957.06C829.591 957.08 829.375 957.049 829.174 956.971C828.974 956.893 828.795 956.769 828.65 956.61C828.398 956.278 828.261 955.872 828.261 955.455C828.261 955.038 828.398 954.632 828.65 954.3C828.838 954.004 829.127 953.786 829.464 953.687C829.8 953.587 830.161 953.613 830.48 953.76C830.54 953.76 830.69 953.89 830.6 953.98L830.57 954Z" fill="#CC8656"/>
<path d="M832.19 954C832.19 953.9 832.11 953.87 832.04 953.85C831.754 953.782 831.454 953.812 831.186 953.933C830.918 954.054 830.698 954.261 830.56 954.52C829.82 955.75 831.02 957.44 832.19 956.19C832.298 956.062 832.395 955.925 832.48 955.78C832.48 955.78 832.48 955.78 832.48 955.78C832.025 955.726 831.58 955.605 831.16 955.42C831.517 955.476 831.878 955.503 832.24 955.5C833.06 955.42 832.78 955.95 832.48 956.41C832.366 956.592 832.211 956.745 832.027 956.857C831.843 956.969 831.636 957.037 831.422 957.055C831.208 957.074 830.993 957.042 830.793 956.963C830.593 956.884 830.414 956.76 830.27 956.6C830.018 956.268 829.881 955.862 829.881 955.445C829.881 955.028 830.018 954.622 830.27 954.29C830.461 953.997 830.751 953.783 831.087 953.685C831.422 953.588 831.782 953.615 832.1 953.76C832.16 953.76 832.31 953.89 832.22 953.98L832.19 954Z" fill="#DD9361"/>
<path d="M828.67 904.27C828.72 904.18 828.59 904.15 828.51 904.13C828.225 904.063 827.927 904.093 827.661 904.214C827.394 904.335 827.176 904.541 827.04 904.8C826.3 906.02 827.5 907.72 828.67 906.47C828.776 906.34 828.872 906.203 828.96 906.06C828.96 906.06 828.96 906.06 828.96 906.06C828.505 906.006 828.06 905.885 827.64 905.7C827.997 905.756 828.358 905.783 828.72 905.78C829.54 905.7 829.26 906.23 828.96 906.68C828.846 906.863 828.692 907.016 828.509 907.129C828.326 907.242 828.119 907.311 827.905 907.33C827.691 907.35 827.475 907.319 827.274 907.241C827.074 907.163 826.895 907.039 826.75 906.88C826.493 906.55 826.353 906.143 826.353 905.725C826.353 905.307 826.493 904.9 826.75 904.57C826.939 904.278 827.227 904.064 827.561 903.966C827.896 903.869 828.254 903.895 828.57 904.04C828.64 904.04 828.78 904.17 828.7 904.25L828.67 904.27Z" fill="#595A5A"/>
<path d="M830.29 904.29C830.34 904.2 830.21 904.17 830.13 904.15C829.845 904.081 829.546 904.11 829.279 904.231C829.013 904.353 828.795 904.56 828.66 904.82C827.92 906.04 829.12 907.73 830.29 906.49C830.396 906.36 830.492 906.223 830.58 906.08C830.58 906.08 830.58 906.08 830.58 906.08C830.124 906.034 829.679 905.916 829.26 905.73C829.711 905.791 830.165 905.818 830.62 905.81C831.15 905.89 830.74 906.46 830.62 906.71C830.505 906.893 830.35 907.047 830.166 907.159C829.982 907.272 829.775 907.341 829.56 907.36C829.345 907.38 829.128 907.349 828.927 907.271C828.726 907.193 828.546 907.069 828.4 906.91C828.145 906.579 828.006 906.173 828.006 905.755C828.006 905.337 828.145 904.931 828.4 904.6C828.588 904.306 828.876 904.091 829.211 903.993C829.545 903.896 829.904 903.923 830.22 904.07C830.29 904.07 830.43 904.19 830.35 904.28L830.29 904.29Z" fill="#595A5A"/>
<path d="M828.65 904.1C828.7 904.01 828.57 903.97 828.5 903.95C828.214 903.882 827.914 903.912 827.646 904.033C827.378 904.154 827.158 904.36 827.02 904.62C826.28 905.85 827.48 907.54 828.65 906.3C828.756 906.166 828.853 906.026 828.94 905.88C828.94 905.88 828.94 905.88 828.94 905.88C828.484 905.831 828.038 905.71 827.62 905.52C827.977 905.576 828.338 905.603 828.7 905.6C829.52 905.52 829.24 906.05 828.94 906.51C828.826 906.693 828.672 906.846 828.489 906.959C828.306 907.072 828.099 907.141 827.885 907.16C827.671 907.18 827.455 907.149 827.254 907.071C827.054 906.993 826.874 906.869 826.73 906.71C826.475 906.379 826.336 905.973 826.336 905.555C826.336 905.137 826.475 904.731 826.73 904.4C826.918 904.104 827.207 903.886 827.544 903.787C827.88 903.687 828.241 903.713 828.56 903.86C828.62 903.86 828.77 903.99 828.68 904.08L828.65 904.1Z" fill="#CC8656"/>
<path d="M830.27 904.11C830.32 904.02 830.19 903.99 830.11 903.97C829.825 903.903 829.527 903.933 829.261 904.054C828.995 904.175 828.776 904.381 828.64 904.64C827.9 905.86 829.1 907.56 830.27 906.31C830.376 906.18 830.472 906.043 830.56 905.9C830.56 905.9 830.56 905.9 830.56 905.9C830.105 905.846 829.66 905.725 829.24 905.54C829.69 905.606 830.145 905.633 830.6 905.62C831.13 905.7 830.72 906.27 830.6 906.52C830.486 906.703 830.332 906.857 830.149 906.969C829.966 907.082 829.759 907.151 829.545 907.17C829.331 907.19 829.115 907.159 828.914 907.081C828.714 907.003 828.535 906.879 828.39 906.72C828.133 906.39 827.993 905.983 827.993 905.565C827.993 905.147 828.133 904.74 828.39 904.41C828.579 904.118 828.867 903.904 829.201 903.806C829.536 903.709 829.894 903.735 830.21 903.88C830.28 903.88 830.43 904.01 830.34 904.09L830.27 904.11Z" fill="#DD9361"/>
<path d="M828.67 858.3C828.72 858.2 828.59 858.17 828.51 858.15C828.225 858.083 827.927 858.113 827.661 858.234C827.394 858.355 827.176 858.561 827.04 858.82C826.3 860.04 827.5 861.74 828.67 860.49C828.778 860.362 828.875 860.225 828.96 860.08C828.96 860.08 828.96 860.08 828.96 860.08C828.505 860.026 828.06 859.905 827.64 859.72C828.44 859.95 829.89 859.36 828.96 860.72C828.846 860.902 828.691 861.055 828.507 861.167C828.323 861.279 828.116 861.347 827.902 861.365C827.688 861.384 827.473 861.352 827.273 861.273C827.073 861.194 826.894 861.07 826.75 860.91C826.493 860.58 826.353 860.173 826.353 859.755C826.353 859.337 826.493 858.93 826.75 858.6C826.939 858.308 827.227 858.094 827.561 857.996C827.896 857.899 828.254 857.925 828.57 858.07C828.64 858.07 828.78 858.2 828.7 858.29L828.67 858.3Z" fill="#595A5A"/>
<path d="M830.29 858.31C830.34 858.22 830.21 858.19 830.13 858.17C829.845 858.101 829.546 858.13 829.279 858.251C829.013 858.373 828.795 858.58 828.66 858.84C827.92 860.06 829.12 861.75 830.29 860.51C830.396 860.38 830.492 860.243 830.58 860.1C830.58 860.1 830.58 860.1 830.58 860.1C830.124 860.054 829.679 859.936 829.26 859.75C829.617 859.808 829.979 859.832 830.34 859.82C831.16 859.75 830.88 860.28 830.58 860.73C830.465 860.913 830.31 861.067 830.126 861.179C829.942 861.292 829.735 861.361 829.52 861.38C829.305 861.4 829.088 861.369 828.887 861.291C828.686 861.213 828.505 861.089 828.36 860.93C828.105 860.599 827.966 860.193 827.966 859.775C827.966 859.357 828.105 858.951 828.36 858.62C828.548 858.326 828.836 858.111 829.17 858.013C829.505 857.916 829.864 857.943 830.18 858.09C830.25 858.09 830.39 858.21 830.31 858.3L830.29 858.31Z" fill="#595A5A"/>
<path d="M828.65 858.12C828.7 858.03 828.57 857.99 828.5 857.97C828.214 857.902 827.914 857.932 827.646 858.053C827.378 858.174 827.158 858.381 827.02 858.64C826.28 859.87 827.48 861.56 828.65 860.32C828.756 860.186 828.853 860.046 828.94 859.9C828.94 859.9 828.94 859.9 828.94 859.9C828.484 859.851 828.038 859.73 827.62 859.54C828.07 859.606 828.525 859.633 828.98 859.62C829.51 859.7 829.1 860.27 828.98 860.53C828.866 860.713 828.712 860.867 828.529 860.979C828.346 861.092 828.139 861.161 827.925 861.18C827.711 861.2 827.495 861.169 827.294 861.091C827.094 861.013 826.915 860.889 826.77 860.73C826.515 860.399 826.376 859.993 826.376 859.575C826.376 859.157 826.515 858.751 826.77 858.42C826.958 858.124 827.247 857.906 827.584 857.807C827.92 857.707 828.281 857.733 828.6 857.88C828.66 857.88 828.81 858.01 828.72 858.1L828.65 858.12Z" fill="#CC8656"/>
<path d="M830.27 858.14C830.32 858.04 830.19 858.01 830.11 857.99C829.825 857.923 829.527 857.953 829.261 858.074C828.995 858.195 828.776 858.401 828.64 858.66C827.9 859.88 829.1 861.58 830.27 860.33C830.378 860.202 830.475 860.065 830.56 859.92C830.56 859.92 830.56 859.92 830.56 859.92C830.105 859.866 829.66 859.745 829.24 859.56C829.597 859.616 829.958 859.643 830.32 859.64C831.14 859.56 830.86 860.09 830.56 860.55C830.446 860.732 830.291 860.885 830.107 860.997C829.923 861.109 829.716 861.177 829.502 861.195C829.288 861.214 829.073 861.182 828.873 861.103C828.673 861.024 828.494 860.9 828.35 860.74C828.093 860.41 827.953 860.003 827.953 859.585C827.953 859.167 828.093 858.76 828.35 858.43C828.539 858.138 828.827 857.924 829.161 857.826C829.496 857.729 829.854 857.755 830.17 857.9C830.24 857.9 830.39 858.03 830.3 858.12L830.27 858.14Z" fill="#DD9361"/>
<path d="M895.86 893.46C895.93 893.38 895.8 893.32 895.74 893.28C895.474 893.154 895.173 893.12 894.885 893.183C894.597 893.247 894.339 893.404 894.15 893.63C893.15 894.63 893.99 896.57 895.39 895.63C895.52 895.53 895.65 895.4 895.77 895.29C895.89 895.18 895.77 895.29 895.77 895.29C895.331 895.149 894.919 894.936 894.55 894.66C894.873 894.793 895.208 894.897 895.55 894.97C896.37 895.07 895.98 895.53 895.55 895.91C895.399 896.064 895.214 896.181 895.011 896.251C894.807 896.322 894.59 896.345 894.376 896.317C894.162 896.29 893.957 896.214 893.777 896.095C893.598 895.976 893.448 895.817 893.34 895.63C893.155 895.256 893.099 894.832 893.181 894.423C893.262 894.015 893.476 893.644 893.79 893.37C894.036 893.121 894.365 892.97 894.714 892.944C895.063 892.918 895.41 893.02 895.69 893.23C895.74 893.23 895.87 893.4 895.77 893.47L895.86 893.46Z" fill="#595A5A"/>
<path d="M897.44 893.82C897.51 893.74 897.38 893.68 897.32 893.65C897.055 893.521 896.755 893.485 896.466 893.546C896.178 893.608 895.919 893.764 895.73 893.99C894.73 894.99 895.57 896.99 896.97 895.99C897.1 895.885 897.224 895.771 897.34 895.65C897.34 895.65 897.34 895.65 897.34 895.65C896.903 895.51 896.491 895.301 896.12 895.03C896.445 895.156 896.779 895.256 897.12 895.33C897.94 895.43 897.55 895.89 897.17 896.27C897.02 896.417 896.838 896.527 896.639 896.594C896.44 896.661 896.228 896.683 896.02 896.657C895.812 896.631 895.612 896.558 895.435 896.445C895.259 896.331 895.11 896.179 895 896C894.815 895.626 894.759 895.202 894.841 894.793C894.922 894.385 895.136 894.014 895.45 893.74C895.698 893.493 896.025 893.343 896.374 893.317C896.723 893.292 897.069 893.392 897.35 893.6C897.35 893.6 897.53 893.77 897.43 893.84L897.44 893.82Z" fill="#595A5A"/>
<path d="M895.88 893.28C895.95 893.2 895.82 893.14 895.76 893.11C895.495 892.981 895.195 892.945 894.906 893.006C894.618 893.068 894.359 893.224 894.17 893.45C893.17 894.45 894.01 896.4 895.41 895.45C895.54 895.345 895.664 895.231 895.78 895.11C895.344 894.963 894.933 894.75 894.56 894.48C895.29 894.88 896.84 894.61 895.65 895.72C895.499 895.874 895.314 895.991 895.111 896.061C894.907 896.132 894.69 896.155 894.476 896.127C894.262 896.1 894.057 896.024 893.877 895.905C893.698 895.786 893.548 895.627 893.44 895.44C893.257 895.066 893.202 894.642 893.283 894.234C893.365 893.826 893.578 893.455 893.89 893.18C894.138 892.933 894.466 892.783 894.816 892.759C895.165 892.735 895.511 892.839 895.79 893.05C895.84 893.1 895.97 893.21 895.87 893.28H895.88Z" fill="#CC8656"/>
<path d="M897.46 893.64C897.53 893.56 897.4 893.5 897.34 893.47C897.075 893.343 896.775 893.307 896.487 893.369C896.199 893.43 895.94 893.585 895.75 893.81C894.75 894.81 895.59 896.81 896.99 895.81C897.12 895.705 897.244 895.591 897.36 895.47C897.36 895.47 897.36 895.47 897.36 895.47C896.928 895.321 896.52 895.108 896.15 894.84C896.475 894.966 896.809 895.066 897.15 895.14C897.97 895.24 897.58 895.7 897.15 896.08C897 896.234 896.816 896.352 896.612 896.423C896.409 896.495 896.192 896.518 895.978 896.492C895.764 896.466 895.559 896.391 895.379 896.272C895.199 896.154 895.049 895.996 894.94 895.81C894.756 895.435 894.701 895.009 894.782 894.599C894.863 894.189 895.077 893.817 895.39 893.54C895.638 893.293 895.966 893.143 896.316 893.119C896.665 893.095 897.011 893.199 897.29 893.41C897.29 893.46 897.47 893.57 897.37 893.64H897.46Z" fill="#DD9361"/>
<path d="M759.75 893.86C759.75 893.76 759.63 893.77 759.56 893.77C759.267 893.789 758.989 893.904 758.768 894.097C758.547 894.291 758.397 894.552 758.34 894.84C757.99 896.23 759.64 897.5 760.34 895.97C760.402 895.813 760.456 895.653 760.5 895.49C760.039 895.561 759.571 895.561 759.11 895.49C759.94 895.49 761.11 894.49 760.67 896.05C759.84 898.24 757.2 896.64 757.89 894.69C757.992 894.359 758.21 894.075 758.503 893.891C758.797 893.708 759.148 893.636 759.49 893.69C759.56 893.69 759.72 893.69 759.67 893.85L759.75 893.86Z" fill="#595A5A"/>
<path d="M761.31 893.41C761.31 893.3 761.19 893.31 761.11 893.31C760.817 893.33 760.539 893.447 760.32 893.642C760.1 893.838 759.953 894.101 759.9 894.39C759.55 895.77 761.19 897.04 761.9 895.51C761.967 895.355 762.02 895.194 762.06 895.03C762.06 895.03 762.06 895.03 762.06 895.03C761.605 895.113 761.14 895.13 760.68 895.08C761.51 895.08 762.68 894.08 762.23 895.63C761.4 897.82 758.76 896.22 759.46 894.27C759.563 893.942 759.78 893.661 760.071 893.478C760.362 893.295 760.709 893.221 761.05 893.27C761.12 893.27 761.29 893.33 761.24 893.44L761.31 893.41Z" fill="#595A5A"/>
<path d="M759.68 893.7C759.68 893.6 759.56 893.61 759.49 893.61C759.197 893.627 758.917 893.742 758.696 893.935C758.475 894.129 758.325 894.391 758.27 894.68C757.92 896.07 759.57 897.33 760.32 895.8C760.382 895.643 760.436 895.483 760.48 895.32C760.48 895.32 760.48 895.32 760.48 895.32C760.019 895.386 759.551 895.386 759.09 895.32C759.92 895.32 761.09 894.32 760.65 895.87C759.82 898.06 757.18 896.47 757.87 894.52C757.966 894.182 758.18 893.889 758.474 893.696C758.768 893.503 759.122 893.423 759.47 893.47C759.54 893.47 759.7 893.53 759.65 893.64L759.68 893.7Z" fill="#CC8656"/>
<path d="M761.24 893.24C761.24 893.14 761.12 893.15 761.04 893.15C760.748 893.169 760.471 893.285 760.252 893.478C760.033 893.672 759.885 893.933 759.83 894.22C759.47 895.61 761.12 896.88 761.83 895.35C761.898 895.192 761.952 895.028 761.99 894.86C761.99 894.86 761.99 894.86 761.99 894.86C761.533 894.931 761.067 894.931 760.61 894.86C761.44 894.86 762.66 893.86 762.16 895.42C761.33 897.61 758.69 896.01 759.39 894.06C759.493 893.732 759.71 893.451 760.001 893.268C760.293 893.085 760.639 893.011 760.98 893.06C761.05 893.06 761.22 893.12 761.17 893.23L761.24 893.24Z" fill="#DD9361"/>
<path d="M719.5 907.15C724.2 926.15 729.5 953.92 728.28 962.45" stroke="black" stroke-width="4" stroke-miterlimit="10"/>
<path d="M936.4 907.15C931.69 926.15 927.95 946.55 926.99 963.03" stroke="black" stroke-width="4" stroke-miterlimit="10"/>
<path d="M990.23 1106C1002.67 1131.33 1004.02 1153.78 993.92 1162.06C988.12 1166.82 977.24 1167.96 973.27 1163.54C967.73 1157.37 978.38 1143.47 973.27 1138.46C967.78 1133.08 953.9 1143.99 952.64 1141.27C947.35 1129.84 957.47 1131.51 969.58 1119.27C974.23 1114.57 976.04 1111.38 979.9 1105.99C982.24 1102.72 987.47 1105.14 990.23 1106Z" fill="#010101" stroke="black" stroke-width="4" stroke-miterlimit="10"/>
<path d="M738.64 909.38C734.549 912.256 730.089 914.567 725.38 916.25" stroke="black" stroke-width="4" stroke-miterlimit="10"/>
<defs>
<radialGradient id="paint0_radial_1_15361" cx="0" cy="0" r="1" gradientUnits="userSpaceOnUse" gradientTransform="translate(763.88 912.28) scale(27.84)">
<stop stop-color="#F2D8C4"/>
<stop offset="0.4" stop-color="#F1D3BB"/>
<stop offset="1" stop-color="#F0C8A6"/>
</radialGradient>
<radialGradient id="paint1_radial_1_15361" cx="0" cy="0" r="1" gradientUnits="userSpaceOnUse" gradientTransform="translate(830 898.92) scale(64.8)">
<stop stop-color="#F2D8C4"/>
<stop offset="0.4" stop-color="#F1D3BB"/>
<stop offset="1" stop-color="#F0C8A6"/>
</radialGradient>
<radialGradient id="paint2_radial_1_15361" cx="0" cy="0" r="1" gradientUnits="userSpaceOnUse" gradientTransform="translate(773.4 1119.76) scale(43.34)">
<stop stop-color="#F2D8C4"/>
<stop offset="0.4" stop-color="#F1D3BB"/>
<stop offset="1" stop-color="#F0C8A6"/>
</radialGradient>
<radialGradient id="paint3_radial_1_15361" cx="0" cy="0" r="1" gradientUnits="userSpaceOnUse" gradientTransform="translate(884.3 1119.76) scale(44.27)">
<stop stop-color="#F2D8C4"/>
<stop offset="0.4" stop-color="#F1D3BB"/>
<stop offset="1" stop-color="#F0C8A6"/>
</radialGradient>
<radialGradient id="paint4_radial_1_15361" cx="0" cy="0" r="1" gradientUnits="userSpaceOnUse" gradientTransform="translate(891.7 911.93) scale(27.84)">
<stop stop-color="#F2D8C4"/>
<stop offset="0.4" stop-color="#F1D3BB"/>
<stop offset="1" stop-color="#F0C8A6"/>
</radialGradient>
<radialGradient id="paint5_radial_1_15361" cx="0" cy="0" r="1" gradientUnits="userSpaceOnUse" gradientTransform="translate(829.43 823.05) scale(39.65)">
<stop stop-color="#F2D8C4"/>
<stop offset="0.4" stop-color="#F1D3BB"/>
<stop offset="1" stop-color="#F0C8A6"/>
</radialGradient>
</defs>
</svg>
