<svg width="300" height="300" viewBox="0 0 1660 1660" fill="none" xmlns="http://www.w3.org/2000/svg"><path d="M1660 0H0V1660H1660V0Z" fill="#F5DFCE"/><path opacity="0.1" d="M954.792 1439.01C999.308 1302.2 843.64 1128.9 607.099 1051.94C370.559 974.972 142.718 1023.49 98.2026 1160.3C53.6875 1297.11 209.355 1470.41 445.896 1547.37C682.436 1624.34 910.277 1575.82 954.792 1439.01Z" fill="#171717"/>
<path d="M900.89 1189.21L935.59 1435.64L945.54 1506.5" stroke="#010101" stroke-width="14" stroke-miterlimit="10"/><path d="M762.1 1185.1L727.4 1431.54L716.79 1506.5" stroke="#010101" stroke-width="14" stroke-miterlimit="10"/><path d="M897.87 1168.28L934.36 1427.43" stroke="#010101" stroke-width="14" stroke-miterlimit="10"/><path d="M764.48 1168.28L729.78 1414.71" stroke="#010101" stroke-width="14" stroke-miterlimit="10"/>
<path d="M885.6 1340.44C892.9 1343.06 906.58 1346.89 923.8 1345.22C942.59 1343.4 956.15 1335.95 962.8 1331.69C962.28 1339.27 961.69 1351.23 962 1365.91C962.54 1391.32 965.36 1404.98 967.57 1428.78C971.41 1470.18 966.53 1468.34 969.96 1487.67C979.52 1541.5 1020.29 1565.37 1006.34 1576.59C990.39 1589.42 940.44 1580.18 916.64 1562.48C912.39 1559.32 915.22 1558.32 904.7 1512.34C897.26 1479.82 895.01 1473.28 889.58 1465.39C882.74 1455.43 877.73 1453.32 871.28 1440.72C866.88 1432.14 862.19 1422.96 863.32 1412.07C864.74 1398.43 873.94 1395.11 880.83 1380.24C884.62 1372.04 888.2 1359.29 885.6 1340.44Z" fill="url(#paint0_linear_87_109)" stroke="#010101" stroke-width="4" stroke-miterlimit="10"/><path d="M883.94 1337.57C891.8 1333.16 904.04 1328.42 919.32 1326.12C922.15 1325.7 934.91 1323.96 951.32 1326.51C956.5 1327.31 961.1 1327.3 964.21 1328.16C957.33 1337.54 949.41 1343.41 944.87 1345.79C919.53 1359.06 893.76 1346.31 891.01 1344.34C887.84 1342.08 885.3 1339.1 883.94 1337.57Z" fill="#010101" stroke="#010101" stroke-miterlimit="10"/><path d="M877.41 1450.73V1451.03C877.41 1452.58 877.41 1485.58 877.41 1520.12C880.73 1520.2 884.04 1520.27 887.36 1520.35C886.63 1497.46 885.9 1474.57 885.17 1451.68L879.4 1450.5C878.77 1450.44 878.13 1450.38 877.5 1450.32" fill="#010101"/><path d="M877.41 1450.73V1451.03C877.41 1452.58 877.41 1485.58 877.41 1520.12C880.73 1520.2 884.04 1520.27 887.36 1520.35C886.63 1497.46 885.9 1474.57 885.17 1451.68L879.4 1450.5C878.77 1450.44 878.13 1450.38 877.5 1450.32" stroke="#010101" stroke-width="4" stroke-miterlimit="10"/><path d="M774.4 1340.44C767.1 1343.06 753.42 1346.89 736.2 1345.22C717.41 1343.4 703.85 1335.95 697.2 1331.69C697.72 1339.27 698.31 1351.23 698 1365.91C697.46 1391.32 694.64 1404.98 692.43 1428.78C688.59 1470.18 693.47 1468.34 690.04 1487.67C680.48 1541.5 639.71 1565.37 653.66 1576.59C669.61 1589.42 719.56 1580.18 743.36 1562.48C747.61 1559.32 744.78 1558.32 755.3 1512.34C762.74 1479.82 764.99 1473.28 770.42 1465.39C777.26 1455.43 782.27 1453.32 788.72 1440.72C793.12 1432.14 797.81 1422.96 796.68 1412.07C795.26 1398.43 786.06 1395.11 779.17 1380.24C775.38 1372.04 771.8 1359.29 774.4 1340.44Z" fill="url(#paint1_linear_87_109)" stroke="#010101" stroke-width="4" stroke-miterlimit="10"/><path d="M776.02 1337.57C768.16 1333.16 755.96 1328.42 740.68 1326.12C737.85 1325.7 725.09 1323.96 708.68 1326.51C703.5 1327.31 699.35 1327.94 695.85 1328.29C702.73 1337.67 710.59 1343.41 715.13 1345.79C740.47 1359.06 766.24 1346.31 768.99 1344.34C772.16 1342.08 774.66 1339.1 776.02 1337.57Z" fill="#010101" stroke="#010101" stroke-miterlimit="10"/><path d="M782.59 1450.73V1451.03C782.59 1452.58 782.59 1485.58 782.59 1520.12C779.27 1520.2 775.96 1520.27 772.64 1520.35C773.37 1497.46 774.1 1474.57 774.83 1451.68L780.6 1450.5C781.23 1450.44 781.87 1450.38 782.5 1450.32" fill="#010101"/><path d="M782.59 1450.73V1451.03C782.59 1452.58 782.59 1485.58 782.59 1520.12C779.27 1520.2 775.96 1520.27 772.64 1520.35C773.37 1497.46 774.1 1474.57 774.83 1451.68L780.6 1450.5C781.23 1450.44 781.87 1450.38 782.5 1450.32" stroke="#010101" stroke-width="4" stroke-miterlimit="10"/><defs><linearGradient id="paint0_linear_87_109" x1="878.477" y1="1497.6" x2="1013.56" y2="1419.61" gradientUnits="userSpaceOnUse"><stop stop-color="#010101"/><stop offset="1" stop-color="#1A1A1A"/></linearGradient><linearGradient id="paint1_linear_87_109" x1="650.784" y1="1457.13" x2="796.854" y2="1457.13" gradientUnits="userSpaceOnUse"><stop stop-color="#1A1A1A"/><stop offset="1" stop-color="#010101"/></linearGradient></defs>
<path d="M788.73 796.77C765.28 825.21 726.07 857.24 702.69 916.56C676.84 982.14 678.78 1052.24 677.46 1090.89" stroke="#010101" stroke-width="14" stroke-miterlimit="10"/><path d="M872.07 797.05C895.52 825.49 934.73 857.52 958.11 916.84C983.96 982.42 982.02 1052.52 983.34 1091.17" stroke="#010101" stroke-width="14" stroke-miterlimit="10"/><path d="M671.82 1090.42C659.38 1115.75 658.03 1138.2 668.13 1146.48C673.93 1151.24 684.81 1152.38 688.78 1147.96C694.32 1141.79 683.66 1127.9 688.78 1122.88C694.26 1117.5 708.15 1128.42 709.41 1125.69C714.7 1114.26 704.57 1115.93 692.47 1103.7C687.82 1099 686 1095.82 682.14 1090.42C679.81 1087.15 674.58 1089.58 671.82 1090.42Z" fill="#010101" stroke="#010101" stroke-width="4" stroke-miterlimit="10"/><path d="M988.18 1090.14C1000.62 1115.47 1001.97 1137.92 991.87 1146.2C986.07 1150.96 975.19 1152.1 971.22 1147.68C965.68 1141.51 976.34 1127.62 971.22 1122.6C965.74 1117.22 951.85 1128.14 950.59 1125.41C945.3 1113.98 955.43 1115.65 967.53 1103.42C972.18 1098.72 974 1095.54 977.86 1090.14C980.19 1086.87 985.42 1089.29 988.18 1090.14Z" fill="#010101" stroke="#010101" stroke-width="4" stroke-miterlimit="10"/>
<path d="M880.03 776.89H779.97V1004.79H880.03V776.89Z" fill="#010101" stroke="#010101" stroke-width="4" stroke-miterlimit="10"/>
<path d="M751.91 821.16C729.51 831.05 707.11 840.93 684.7 850.82C681.12 852.4 678.16 854.75 676.15 857.6C670.58 865.46 665.95 872.8 662.55 882.03C648.45 920.24 624.08 969.31 611.11 1001.96C607.6 1010.8 618.51 1010.57 630 1011.91C637.58 1012.8 641.21 1013.45 649.28 1017.35C660.59 1022.8 660.9 1026.23 676.08 1033.17C681.38 1035.59 695.95 1035.87 696.46 1040.73C703.37 1106.11 704.34 1080.04 703.68 1144.05C703.66 1146.2 701.82 1162.17 702.5 1168.82L957.99 1170.56C961.89 1170.76 960.54 1143.71 960.5 1140.58C959.8 1079.53 962.46 1116.62 964.01 1049.06C964.19 1041.05 964.74 1034.81 974.53 1033.11C983.81 1031.5 993.09 1029.89 1002.37 1028.27C1008.75 1027.16 1014.07 1023.79 1017.19 1019.21C1018.21 1017.7 1019.51 1016.14 1021.15 1014.61C1025.08 1010.95 1030.13 1009.29 1034.12 1007.25C1047.92 1000.2 1052.65 1001.23 1047.53 989.07C1035.35 960.15 1022.72 922.73 1000.46 877.5C995.52 867.46 985.84 860.05 978.29 852.58C976.14 850.45 973.4 848.74 970.28 847.6C944.32 838.11 918.37 828.62 892.41 819.13C886.3 816.89 879.26 817.05 873.25 819.46C864.95 822.79 854.13 826.14 841.09 827.9C836.97 828.46 822.31 830.24 803.38 827.9C790.72 826.33 780.04 823.41 771.65 820.41C765.32 818.16 758 818.47 751.91 821.16Z" fill="url(#paint0_radial_87_872)" stroke="#030303" stroke-width="4" stroke-miterlimit="10"/><path d="M958.49 1126.82C953.47 1127.01 935.79 1124.43 926.03 1125.16C925.95 1125.16 925.51 1125.17 925.15 1125.45C924.92 1125.63 924.79 1125.88 924.79 1126.15V1140.31C924.79 1140.86 925.35 1141.3 926.04 1141.31C933.63 1141.38 952.36 1143.22 958.84 1143.22" fill="#F58045"/><path d="M958.49 1126.82C953.47 1127.01 935.79 1124.43 926.03 1125.16C925.95 1125.16 925.51 1125.17 925.15 1125.45C924.92 1125.63 924.79 1125.88 924.79 1126.15V1140.31C924.79 1140.86 925.35 1141.3 926.04 1141.31C933.63 1141.38 952.36 1143.22 958.84 1143.22" stroke="#010101" stroke-width="4" stroke-miterlimit="10"/><path d="M759.28 820.52C760.16 813.35 761.04 806.17 761.92 799C773.37 802.67 795.87 808.02 816.51 808.97C847.39 810.39 865.99 802.79 879.46 798.33C880.48 805.48 881.5 812.62 882.52 819.77C869.55 824.12 847.15 832.51 817.94 832.18C792.38 831.9 771.72 824.52 759.28 820.52Z" fill="url(#paint1_radial_87_872)" stroke="#030303" stroke-width="4" stroke-miterlimit="10"/><path d="M804.47 815.17C804.9 815.23 805.33 815.32 805.76 815.46C806.19 815.6 806.55 815.76 806.85 815.95C806.66 816.53 806.57 816.83 806.38 817.41C806.14 817.28 805.86 817.16 805.54 817.05C805.22 816.94 804.9 816.86 804.58 816.82C803.72 816.71 803.01 816.83 802.44 817.19C801.87 817.56 801.52 818.18 801.38 819.08C801.24 819.97 801.39 820.68 801.84 821.2C802.29 821.72 802.97 822.04 803.87 822.16C804.21 822.2 804.55 822.21 804.9 822.18C805.25 822.15 805.56 822.1 805.84 822.03C805.9 822.64 805.93 822.95 805.99 823.56C805.63 823.68 805.21 823.75 804.73 823.78C804.25 823.8 803.78 823.79 803.31 823.72C802.52 823.61 801.84 823.41 801.28 823.1C800.71 822.8 800.26 822.42 799.93 821.97C799.59 821.53 799.37 821.03 799.26 820.47C799.15 819.92 799.15 819.33 799.26 818.72C799.37 818.1 799.56 817.55 799.85 817.07C800.13 816.59 800.5 816.19 800.94 815.87C801.38 815.55 801.89 815.33 802.48 815.2C803.07 815.08 803.73 815.07 804.47 815.17Z" fill="#121313"/><path d="M814.11 816.19C814.08 816.84 814.06 817.17 814.03 817.82C813.12 817.78 812.66 817.75 811.75 817.69C811.57 820.37 811.48 821.71 811.3 824.38C810.42 824.32 809.97 824.29 809.09 824.21C809.32 821.54 809.43 820.2 809.66 817.53C808.75 817.45 808.29 817.41 807.38 817.31C807.45 816.66 807.48 816.34 807.55 815.69C810.18 815.96 811.49 816.06 814.11 816.19Z" fill="#121313"/><path d="M820.42 824.64C820.4 822.49 820.39 821.41 820.38 819.26C819.09 821.42 818.42 822.5 817.01 824.62C816.12 824.6 815.68 824.59 814.8 824.56C814.93 821.23 814.99 819.56 815.12 816.23C815.94 816.26 816.36 816.27 817.18 816.29C817.14 818.4 817.12 819.45 817.08 821.56C818.45 819.48 819.11 818.43 820.37 816.31C821.2 816.3 821.61 816.3 822.43 816.27C822.52 819.6 822.56 821.27 822.65 824.6C821.75 824.63 821.31 824.64 820.42 824.64Z" fill="#121313"/><path d="M827.3 817.67C827.26 818.42 827.25 818.8 827.21 819.55C827.16 820.49 827.05 821.28 826.89 821.92C826.73 822.56 826.52 823.08 826.28 823.48C826.03 823.88 825.76 824.17 825.44 824.36C825.13 824.55 824.81 824.66 824.49 824.7C824.2 824.1 824.06 823.8 823.77 823.2C824.01 823.12 824.22 822.98 824.41 822.8C824.6 822.62 824.76 822.36 824.9 822.04C825.03 821.72 825.15 821.31 825.23 820.83C825.32 820.35 825.37 819.77 825.4 819.09C825.45 817.91 825.47 817.33 825.51 816.15C827.74 816.03 828.85 815.94 831.07 815.71C831.41 819.03 831.59 820.68 831.93 824C831.05 824.09 830.61 824.13 829.72 824.21C829.49 821.54 829.38 820.2 829.15 817.53C828.41 817.59 828.04 817.62 827.3 817.67Z" fill="#121313"/><path d="M836.35 818.12C836.93 818.03 837.43 818.03 837.84 818.11C838.25 818.19 838.6 818.32 838.88 818.51C839.16 818.7 839.37 818.93 839.52 819.21C839.67 819.48 839.77 819.77 839.83 820.08C839.91 820.55 839.9 820.97 839.78 821.35C839.66 821.73 839.46 822.06 839.16 822.34C838.87 822.62 838.49 822.86 838.04 823.04C837.59 823.22 837.08 823.36 836.51 823.44C835.38 823.6 834.81 823.67 833.68 823.81C833.29 820.5 833.09 818.84 832.7 815.53C833.52 815.43 833.93 815.38 834.75 815.27C834.92 816.51 835 817.13 835.17 818.37C835.29 818.34 835.45 818.3 835.66 818.25C835.87 818.2 836.1 818.16 836.35 818.12ZM837.72 820.49C837.67 820.18 837.51 819.94 837.25 819.77C836.99 819.6 836.62 819.56 836.15 819.62C836.06 819.63 835.94 819.65 835.79 819.68C835.64 819.71 835.49 819.74 835.37 819.78C835.49 820.67 835.55 821.11 835.67 822C835.93 821.96 836.07 821.95 836.33 821.91C837.38 821.76 837.84 821.28 837.72 820.49Z" fill="#121313"/><defs><radialGradient id="paint0_radial_87_872" cx="0" cy="0" r="1" gradientUnits="userSpaceOnUse" gradientTransform="translate(830 994.089) scale(204.44 191.826)"><stop stop-color="white"/><stop offset="1" stop-color="#F6F2EF"/></radialGradient><radialGradient id="paint1_radial_87_872" cx="0" cy="0" r="1" gradientUnits="userSpaceOnUse" gradientTransform="translate(820.903 815.284) scale(45.4016 42.6003)"><stop stop-color="white"/><stop offset="1" stop-color="#F6F2EF"/></radialGradient></defs>
<path d="M830 389.3C773.03 442.69 690.69 476.24 599.12 476.24C575.85 476.24 553.18 474.06 531.37 469.95C523.09 493.73 518.62 518.91 518.62 544.97C518.62 690.9 658.03 809.2 830 809.2C1001.97 809.2 1141.38 690.9 1141.38 544.97C1141.38 518.91 1136.91 493.73 1128.63 469.95C1106.82 474.06 1084.15 476.24 1060.88 476.24C969.31 476.24 886.97 442.7 830 389.3Z" fill="url(#paint0_radial_87_19141)" stroke="#010101" stroke-width="4" stroke-miterlimit="10"/><defs><radialGradient id="paint0_radial_87_19141" cx="0" cy="0" r="1" gradientUnits="userSpaceOnUse" gradientTransform="translate(830 599.253) scale(265.553)"><stop stop-color="#A57C52"/><stop offset="1" stop-color="#603A17"/></radialGradient></defs>
<path d="M628.64 576.22C625.16 574.98 602.55 566.75 590.62 554.01C590.62 554.01 583.65 546.57 581.89 536.71C581.74 535.9 581.09 528.49 581.89 526.91C584.06 522.59 594.8 522.34 597.19 525.19C598.92 527.25 594.36 534.76 595.04 541.19C595.45 545.07 596.83 547.84 597.86 549.89C600.28 554.72 603.54 557.95 608.55 562.1C613.27 566 619.94 571.03 628.64 576.22Z" fill="#010101"/><path d="M790.52 603.24C793.79 598.19 763.72 568.09 725.73 548.16C697.56 533.38 674.1 528.95 658.03 526.04C634.74 521.84 599.76 515.52 592.98 528.35C587.9 537.97 600.43 555.04 608.86 563.2C611.67 565.92 619.8 573.24 637.86 578.94C663.54 587.05 672.97 580.39 710.88 585.29C726.74 587.34 740.15 590.45 745.59 591.72C777.08 599.1 788.66 606.13 790.52 603.24Z" fill="#EDEDEE"/><path d="M716.43 540.34C682.09 564.01 654.99 540.19 647.21 530.68C645.03 528.01 642.88 525.32 641.4 522.21" fill="url(#paint0_radial_87_19250)"/><path d="M716.43 540.34C682.09 564.01 654.99 540.19 647.21 530.68C645.03 528.01 642.88 525.32 641.4 522.21" stroke="#010101" stroke-width="4" stroke-miterlimit="10"/><path d="M791.4 604.17C794.67 599.12 764.6 569.02 726.61 549.09C698.44 534.31 674.98 529.88 658.91 526.97C635.62 522.77 600.64 516.45 593.86 529.28C588.78 538.9 601.31 555.97 609.74 564.13C612.55 566.85 620.68 574.17 638.74 579.87C664.42 587.98 673.85 581.32 711.76 586.22C727.62 588.27 741.03 591.38 746.47 592.65C777.95 600.03 789.53 607.05 791.4 604.17Z" stroke="#010101" stroke-width="4" stroke-miterlimit="10"/><path d="M791.04 601.01C790.72 601.35 771.13 572.55 729.43 550.59C681.18 525.18 619.51 517.45 588.89 525.96C586.38 526.66 580.45 528.47 572.61 527.73C555.06 526.07 541.57 512.86 532.22 500.3C551.3 506.12 567.01 508.44 577.58 509.5C597.53 511.5 605.61 509.63 627.46 511.56C627.46 511.56 647.29 513.31 670.8 518.79C732.1 533.09 791.56 600.46 791.04 601.01Z" fill="#010101"/><path opacity="0.2" d="M789.56 602.81C788.24 598.04 780.16 589.88 771.37 582.12C763.96 575.58 758.02 571.3 750.79 566.19C736.19 555.86 724.15 550.46 721.57 548.89C713.35 543.9 695.06 537.55 669.92 531.48C669.92 531.48 655.6 527.71 632.14 524.72C627.58 524.14 623.52 523.82 619.29 523.69C614.09 523.53 611.02 523.6 607.5 524.17C603.28 524.85 600.84 525.55 598.14 527.38C595.75 529 595.63 530.23 595.13 531.35C607.1 533.06 621.7 535.18 638.2 537.61C674.9 543.02 682.85 544.41 694.38 547.91C708.05 552.06 718.27 556.61 728.48 561.16C742.47 567.39 752.52 571.86 764.3 580.05C776.09 588.26 783.75 596.33 789.56 602.81Z" fill="#40403C"/><path d="M1031.36 576.22C1034.84 574.98 1057.45 566.75 1069.38 554.01C1069.38 554.01 1076.35 546.57 1078.11 536.71C1078.26 535.9 1078.91 528.49 1078.11 526.91C1075.94 522.59 1065.2 522.34 1062.81 525.19C1061.08 527.25 1065.64 534.76 1064.96 541.19C1064.55 545.07 1063.17 547.84 1062.14 549.89C1059.72 554.72 1056.46 557.95 1051.45 562.1C1046.73 566 1040.06 571.03 1031.36 576.22Z" fill="#010101"/><path d="M869.48 603.24C866.21 598.19 896.28 568.09 934.27 548.16C962.44 533.38 985.9 528.95 1001.97 526.04C1025.26 521.84 1060.24 515.52 1067.02 528.35C1072.1 537.97 1059.57 555.04 1051.14 563.2C1048.33 565.92 1040.2 573.24 1022.14 578.94C996.46 587.05 987.03 580.39 949.12 585.29C933.26 587.34 919.85 590.45 914.41 591.72C882.92 599.1 871.34 606.13 869.48 603.24Z" fill="#EDEDEE"/><path d="M942.33 540.6C976.67 564.27 1003.67 541.08 1011.46 531.56C1013.64 528.89 1015.79 526.2 1017.27 523.09C1019.35 518.69 1021.42 522.56 1022.16 515.52" fill="url(#paint1_radial_87_19250)"/><path d="M942.33 540.6C976.67 564.27 1003.67 541.08 1011.46 531.56C1013.64 528.89 1015.79 526.2 1017.27 523.09C1019.35 518.69 1021.42 522.56 1022.16 515.52" stroke="#010101" stroke-width="4" stroke-miterlimit="10"/><path d="M868.6 604.17C865.33 599.12 895.4 569.02 933.39 549.09C961.56 534.31 985.02 529.88 1001.09 526.97C1024.38 522.77 1059.36 516.45 1066.14 529.28C1071.22 538.9 1058.69 555.97 1050.26 564.13C1047.45 566.85 1039.32 574.17 1021.26 579.87C995.58 587.98 986.15 581.32 948.24 586.22C932.38 588.27 918.97 591.38 913.53 592.65C882.05 600.03 870.47 607.05 868.6 604.17Z" stroke="#010101" stroke-width="4" stroke-miterlimit="10"/><path d="M868.96 601.01C869.28 601.35 888.87 572.55 930.57 550.59C978.82 525.18 1040.49 517.45 1071.11 525.96C1073.62 526.66 1079.55 528.47 1087.39 527.73C1104.94 526.07 1118.43 512.86 1127.78 500.3C1108.7 506.12 1092.99 508.44 1082.42 509.5C1062.47 511.5 1054.39 509.63 1032.54 511.56C1032.54 511.56 1012.71 513.31 989.2 518.79C927.9 533.09 868.44 600.46 868.96 601.01Z" fill="#010101"/><path opacity="0.2" d="M870.44 602.81C871.76 598.04 879.84 589.88 888.63 582.12C896.04 575.58 901.98 571.3 909.21 566.19C923.81 555.86 935.85 550.46 938.43 548.89C946.65 543.9 964.94 537.55 990.08 531.48C990.08 531.48 1004.4 527.71 1027.86 524.72C1032.42 524.14 1036.48 523.82 1040.71 523.69C1045.91 523.53 1048.98 523.6 1052.5 524.17C1056.72 524.85 1059.16 525.55 1061.86 527.38C1064.25 529 1064.37 530.23 1064.87 531.35C1052.9 533.06 1038.3 535.18 1021.8 537.61C985.1 543.02 977.15 544.41 965.62 547.91C951.95 552.06 941.73 556.61 931.52 561.16C917.53 567.39 907.48 571.86 895.7 580.05C883.91 588.26 876.25 596.33 870.44 602.81Z" fill="#40403C"/><defs><radialGradient id="paint0_radial_87_19250" cx="0" cy="0" r="1" gradientUnits="userSpaceOnUse" gradientTransform="translate(678.915 536.35) scale(28.3527)"><stop stop-color="#B42C7B"/><stop offset="0.2398" stop-color="#B22C7B"/><stop offset="0.4026" stop-color="#AC2C7D"/><stop offset="0.5427" stop-color="#A22D7F"/><stop offset="0.6698" stop-color="#942F82"/><stop offset="0.7882" stop-color="#813085"/><stop offset="0.8986" stop-color="#69328A"/><stop offset="1" stop-color="#4B338F"/></radialGradient><radialGradient id="paint1_radial_87_19250" cx="0" cy="0" r="1" gradientUnits="userSpaceOnUse" gradientTransform="translate(982.241 533.216) scale(30.8736)"><stop stop-color="#B42C7B"/><stop offset="0.2398" stop-color="#B22C7B"/><stop offset="0.4026" stop-color="#AC2C7D"/><stop offset="0.5427" stop-color="#A22D7F"/><stop offset="0.6698" stop-color="#942F82"/><stop offset="0.7882" stop-color="#813085"/><stop offset="0.8986" stop-color="#69328A"/><stop offset="1" stop-color="#4B338F"/></radialGradient></defs>
<path d="M861.65 720.03C820.49 721.13 763.59 682.1 764.46 676.41C764.84 673.91 770.52 677.01 785.82 671.29C800.62 665.76 802.17 660.89 811.53 660.45C822.08 659.95 822.51 666.01 834.27 666.47C847.59 666.99 849.84 659.33 862.72 660.54C868.57 661.09 868.56 662.72 882.32 667.84C901.52 674.98 901.77 674.48 902.13 677.17C902.99 683.45 898.61 719.04 861.65 720.03Z" fill="#28181C"/><path d="M859.45 638.03C850.97 635.41 846.24 638.58 846.24 638.58C841.53 641.28 841.81 644.99 837.19 647.35C831.29 650.35 824.71 647.42 823.87 647.03C818.83 644.7 818.69 641.45 814.3 639.39C809.17 636.98 803.89 638.84 800.28 640.11C790.69 643.48 775.08 657.41 757.93 679.02C754.48 683.37 747.39 694.2 755.62 694.4C801.29 695.54 804.58 725.96 832.14 740.52C866.92 758.89 907.25 732.18 907.99 694.08C908.11 687.72 909.31 681.44 904.86 676.9C882.56 654.12 865 639.74 859.45 638.03ZM845.89 708.81C814.04 668.77 760.84 692.38 761.77 686.81C762.53 682.25 767.74 687.29 782.73 681.68C797.23 676.26 798.74 671.49 807.91 671.06C818.24 670.57 818.66 676.51 830.18 676.96C843.23 677.47 850.01 673.55 862.04 671.13C867.68 669.99 868.14 672.4 881.62 677.41C900.42 684.41 900.02 682.43 900.38 685.07C901.22 691.22 861.1 727.93 845.89 708.81Z" fill="url(#paint0_radial_87_19407)" stroke="#010101" stroke-width="4" stroke-miterlimit="10"/><path d="M890.64 683.85C889.96 682.77 893.5 682.08 886 679.01C874.02 674.11 868.81 670.96 864.34 670.89C863.73 670.88 864.19 670.91 846.85 674.94C845.25 675.31 841.88 675.97 837.37 676.33C830.58 676.86 826.93 675.57 816.43 672.59C811.75 671.26 810.61 671.21 806.58 671.24C801.61 671.28 785.55 681.89 782.73 682.48C782.72 685.14 784.46 685.02 784.48 684.96C784.66 684.52 782.69 684.69 782.73 684.47C782.9 683.42 819.64 691.67 863.85 689.1C869.37 688.79 892.62 687.02 890.64 683.85Z" fill="url(#paint1_radial_87_19407)" stroke="#010101" stroke-width="4" stroke-miterlimit="10"/><path d="M861.65 720.08C820.49 721.18 763.59 682.15 764.46 676.46C764.84 673.96 770.52 677.06 785.82 671.34C800.62 665.81 802.17 660.94 811.53 660.5C822.08 660 822.51 666.06 834.27 666.52C847.59 667.04 849.84 659.38 862.72 660.59C868.57 661.14 868.56 662.77 882.32 667.89C901.52 675.03 901.77 674.53 902.13 677.22C902.99 683.49 898.61 719.09 861.65 720.08Z" fill="#28181C"/><path d="M859.45 638.08C850.97 635.46 846.24 638.63 846.24 638.63C841.53 641.33 841.81 645.04 837.19 647.4C831.29 650.4 824.71 647.47 823.87 647.08C818.83 644.75 818.69 641.5 814.3 639.44C809.17 637.03 803.89 638.89 800.28 640.16C790.69 643.53 775.08 657.46 757.93 679.07C754.48 683.42 747.39 694.25 755.62 694.45C801.29 695.59 804.58 726.01 832.14 740.57C866.92 758.94 907.25 732.23 907.99 694.13C908.11 687.77 909.31 681.49 904.86 676.95C882.56 654.17 865 639.79 859.45 638.08ZM845.89 708.86C814.04 668.82 760.84 692.43 761.77 686.86C762.53 682.3 767.74 687.34 782.73 681.73C797.23 676.31 798.74 671.54 807.91 671.11C818.24 670.62 818.66 676.56 830.18 677.01C843.23 677.52 850.01 673.6 862.04 671.18C867.68 670.04 868.14 672.45 881.62 677.46C900.42 684.46 900.02 682.48 900.38 685.12C901.22 691.27 861.1 727.98 845.89 708.86Z" fill="url(#paint2_radial_87_19407)" stroke="#010101" stroke-width="4" stroke-miterlimit="10"/><path d="M890.64 683.9C889.96 682.82 893.5 682.13 886 679.06C874.02 674.16 868.81 671.01 864.34 670.94C863.73 670.93 864.19 670.96 846.85 674.99C845.25 675.36 841.88 676.02 837.37 676.38C830.58 676.91 826.93 675.62 816.43 672.64C811.75 671.31 810.61 671.26 806.58 671.29C801.61 671.33 785.55 681.94 782.73 682.53C782.72 685.19 784.46 685.07 784.48 685.01C784.66 684.57 782.69 684.74 782.73 684.52C782.9 683.47 819.64 691.72 863.85 689.15C869.37 688.84 892.62 687.07 890.64 683.9Z" fill="url(#paint3_radial_87_19407)" stroke="#010101" stroke-width="4" stroke-miterlimit="10"/><defs><radialGradient id="paint0_radial_87_19407" cx="0" cy="0" r="1" gradientUnits="userSpaceOnUse" gradientTransform="translate(830.042 691.729) scale(65.7461 71.5876)"><stop stop-color="#931A1E"/><stop offset="1" stop-color="#7F143D"/></radialGradient><radialGradient id="paint1_radial_87_19407" cx="0" cy="0" r="1" gradientUnits="userSpaceOnUse" gradientTransform="translate(836.8 680.254) scale(39.7989 23.906)"><stop offset="0.184" stop-color="#E5E5E5"/><stop offset="1" stop-color="#F2F2F2"/></radialGradient><radialGradient id="paint2_radial_87_19407" cx="0" cy="0" r="1" gradientUnits="userSpaceOnUse" gradientTransform="translate(830.042 691.778) scale(65.7461 71.5876)"><stop stop-color="#D37777"/><stop offset="0.0266" stop-color="#D27677"/><stop offset="0.6194" stop-color="#BC616E"/><stop offset="1" stop-color="#B55A6B"/></radialGradient><radialGradient id="paint3_radial_87_19407" cx="0" cy="0" r="1" gradientUnits="userSpaceOnUse" gradientTransform="translate(836.8 680.302) scale(39.7989 23.9061)"><stop offset="0.184" stop-color="#E5E5E5"/><stop offset="1" stop-color="#F2F2F2"/></radialGradient></defs>
<path d="M840.28 491.29C841.7 489.56 842.76 487.5 842.99 485.25C843.16 483.57 842.96 481.62 841.51 480.52C840.24 479.56 838.44 479.75 837.15 480.57C835.54 481.6 835.13 483.42 836.1 485.06C837.17 486.87 839.1 488 840.85 489.07C843.07 490.42 845.16 491.85 846.91 493.79C849.86 497.05 852.75 503.13 848.04 506.35C844.95 508.46 842.24 505.29 841.48 502.43C841.09 500.96 841.41 499.43 842.64 498.47C843.63 497.69 845.01 497.31 846.13 498.01C846.52 498.26 847.86 497.67 847.28 497.31C844.23 495.41 839.55 498.53 839.88 501.98C840.07 503.98 841.54 506.51 843.37 507.45C845.19 508.38 847.4 507.83 849.01 506.74C853.18 503.91 852.31 498.74 849.77 495.13C848.32 493.06 846.46 491.31 844.38 489.89C842.29 488.46 839.79 487.4 838.11 485.44C837.1 484.27 836.2 481.77 838.18 480.91C839.73 480.24 840.98 481.59 841.38 482.96C842.21 485.87 840.73 489.08 838.92 491.29C838.53 491.75 839.98 491.65 840.28 491.29Z" fill="#2B332A"/><path d="M844.2 481.55C845 483.94 845.96 486.28 847.1 488.53C848.01 490.33 848.95 492.66 850.91 493.53C851.18 493.65 852.2 493.49 852.31 493.16C852.75 491.78 853.01 490.37 853.07 488.93C853.08 488.76 851.64 488.92 851.62 489.32C851.56 490.72 851.31 492.09 850.88 493.43C851.35 493.31 851.81 493.18 852.28 493.06C851.33 492.64 850.66 491.9 850.12 491.03C849.51 490.04 848.97 488.99 848.45 487.95C847.36 485.76 846.43 483.49 845.65 481.17C845.55 480.86 844.11 481.28 844.2 481.55Z" fill="#2B332A"/><path d="M846.07 490.16C846.95 488.7 847.83 487.24 848.71 485.78C848.87 485.51 848.57 485.41 848.33 485.42C848.05 485.43 847.54 485.52 847.37 485.8C846.49 487.26 845.61 488.72 844.73 490.18C844.57 490.45 844.87 490.55 845.11 490.54C845.39 490.53 845.9 490.43 846.07 490.16Z" fill="#2B332A"/><path d="M854.17 480.66C852.26 479.82 850.8 481.49 850.52 483.25C850.2 485.32 851.02 487.75 852.78 488.99C854.16 489.96 855.91 488.97 856.23 487.42C856.71 485.08 855.36 482.17 854.17 480.23C853.88 479.75 852.48 480.25 852.83 480.83C853.97 482.73 856.61 486.24 859.06 484.02C860.18 483 860.39 481.08 860.52 479.67C860.68 477.81 860.46 475.98 859.89 474.21C859.7 473.63 858.29 474.01 858.44 474.6C859.66 479.51 860.91 484.41 862.11 489.33C862.63 491.48 863.11 493.72 862.71 495.94C862.52 496.98 862.16 498.04 861.54 498.9C860.41 500.46 858.54 500 857.28 498.89C853.64 495.66 856.69 490.74 859.45 488.14C861.96 485.78 866.68 482.79 865.7 478.69C865.56 478.11 864.11 478.48 864.25 479.08C865.25 483.28 859.56 486.3 857.19 488.89C855 491.28 853.12 494.83 854.8 498.02C856.15 500.57 859.72 501.98 862.1 499.91C864.98 497.4 864.47 492.87 863.7 489.57C862.5 484.44 861.16 479.34 859.88 474.22C859.4 474.35 858.91 474.48 858.43 474.61C859.2 476.99 859.3 479.46 858.71 481.89C858.61 482.32 858.52 482.99 858.19 483.32C857.33 484.17 856.69 483.33 856.14 482.78C855.37 482.02 854.72 481.17 854.16 480.24C853.71 480.44 853.27 480.64 852.82 480.84C853.55 482.02 854.11 483.28 854.44 484.63C854.61 485.33 855.33 488.29 854.19 488.35C853.23 488.4 852.27 486.08 852.08 485.38C851.97 484.98 851.71 480.87 853.02 481.44C853.53 481.64 854.83 480.95 854.17 480.66Z" fill="#2B332A"/><path d="M869.95 480.19C868.91 482.34 871.89 482.55 873.18 481.77C875.94 480.12 874.84 477.03 874.19 474.52C873.36 471.34 872.32 468.14 871.78 464.89C871.24 461.67 871.96 458.47 874.42 456.2C873.98 456.19 873.55 456.17 873.11 456.16C873.11 459.12 873.33 462.07 873.88 464.99C874.14 466.39 874.47 467.78 874.87 469.15C875.17 470.18 875.49 471.3 876.21 472.14C877.36 473.47 879.55 473.64 880.74 472.25C882.2 470.54 881.72 467.21 881.31 465.21C881.21 464.7 879.75 465.06 879.86 465.6C880.1 466.76 880.22 467.93 880.17 469.12C880.14 469.91 880.16 471.18 879.65 471.85C878.04 473.96 876.54 469.55 876.26 468.55C875.09 464.47 874.56 460.23 874.57 455.99C874.57 455.39 873.51 455.72 873.26 455.95C869.95 459 869.74 463.14 870.77 467.29C871.38 469.76 872.05 472.22 872.69 474.68C873 475.87 873.45 477.11 873.58 478.34C873.66 479.11 873.56 479.84 873.13 480.5C872.82 481.05 872.34 481.33 871.66 481.36C871.19 481.09 871.08 480.72 871.32 480.23C871.61 479.6 870.16 479.75 869.95 480.19Z" fill="#2B332A"/><path d="M871.38 473.33C872.76 471 874.14 468.66 875.53 466.33C875.69 466.07 875.02 466.09 874.93 466.1C874.62 466.15 874.26 466.27 874.09 466.55C872.71 468.88 871.33 471.22 869.94 473.55C869.78 473.81 870.45 473.79 870.54 473.78C870.85 473.73 871.21 473.61 871.38 473.33Z" fill="#2B332A"/><path d="M880.81 465.43C881 464.61 881.37 463.87 881.9 463.22C882.05 463.04 882.25 462.88 882.39 462.69C882.62 462.54 882.59 462.51 882.3 462.6C882.03 462.57 881.99 462.63 882.16 462.79C882.25 463.23 882.49 463.69 882.64 464.11C882.97 465.02 883.29 465.94 883.62 466.85C883.79 467.33 883.96 467.8 884.13 468.28C884.24 468.58 884.31 468.94 884.61 469.11C885.11 469.41 885.92 469.12 886.36 468.83C887 468.4 887.06 467.77 887.08 467.06C887.14 465.01 887.2 462.95 887.26 460.89C886.78 461.02 886.29 461.15 885.81 461.28C885.99 462.18 886.22 463.07 886.52 463.94C886.78 464.7 887.06 465.54 887.51 466.2C888.33 467.41 890.23 467.02 890.9 465.83C891.25 465.2 891.25 464.45 891.24 463.74C891.23 462.8 891.1 461.86 891.04 460.92C890.92 459.1 891.17 457.31 892.28 455.82C892.63 455.35 891.2 455.5 890.95 455.84C890.15 456.92 889.7 458.17 889.6 459.51C889.48 460.94 889.73 462.35 889.79 463.78C889.82 464.44 889.86 465.18 889.59 465.8C889.45 466.12 889.43 466.25 889.15 466C888.89 465.76 888.75 465.44 888.61 465.13C887.99 463.77 887.56 462.35 887.27 460.88C887.18 460.43 885.83 460.82 885.82 461.27C885.76 463.24 885.7 465.21 885.65 467.18C885.64 467.44 885.65 467.72 885.61 467.98C885.59 468.11 885.35 468.53 885.36 468.57C885.5 468.51 885.64 468.45 885.78 468.39C885.74 468.3 885.71 468.21 885.68 468.13C885.59 467.89 885.51 467.65 885.43 467.42C885.1 466.51 884.78 465.59 884.45 464.68C884.18 463.93 884 462.95 883.57 462.28C883.21 461.72 882.4 461.87 881.89 462.12C880.62 462.73 879.69 464.31 879.4 465.64C879.27 466.1 880.71 465.88 880.81 465.43Z" fill="#2B332A"/><path d="M897.1 452.7C895.08 453.59 893.31 455.04 892.3 457.04C891.35 458.92 891.17 461.82 892.99 463.29C894.32 464.36 896.05 463.12 896.65 461.85C897.8 459.43 897.99 456.28 897.84 453.65C897.36 453.78 896.87 453.91 896.39 454.04C896.54 455.49 896.73 457.32 898.2 458.05C899.28 458.59 900.65 458.42 901.7 457.87C904.66 456.32 905.26 451.42 904.43 448.54C904.31 448.14 903.07 448.53 902.99 448.85C902.57 450.44 902.48 452.11 903.07 453.67C903.47 454.73 904.13 455.99 905.43 455.89C908.24 455.68 909.81 451.81 910.24 449.5C909.76 449.6 909.28 449.71 908.8 449.81C908.72 457.55 907.97 465.33 904.55 472.38C902.93 475.71 900.79 478.83 898.12 481.41C896.12 483.34 891.37 486.89 888.97 483.67C887.11 481.17 888.37 477.02 889.4 474.43C890.63 471.33 892.53 468.51 894.83 466.11C897.28 463.55 900.31 461.26 903.67 460.06C905.24 459.49 907.17 459.08 908.77 459.76C910.42 460.47 910.92 462.21 910.78 463.87C910.47 467.75 907.96 472.21 904.85 474.51C903.2 475.73 900.59 476.86 898.72 475.44C897.2 474.29 897.23 472.24 898.09 470.72C898.24 470.45 896.88 470.55 896.65 470.95C895.84 472.37 895.75 474.13 896.84 475.45C897.86 476.69 899.54 476.91 901.05 476.71C905.01 476.18 908.1 473.26 910 469.91C911.53 467.23 914.14 461.46 910.4 459.36C907.45 457.7 903.23 459.37 900.54 460.81C893.73 464.44 887.56 471.61 886.73 479.51C886.56 481.18 886.63 483.15 887.83 484.45C888.87 485.58 890.5 485.76 891.95 485.54C895.76 484.97 898.96 482.17 901.37 479.34C908.51 470.93 910.17 460.13 910.28 449.44C910.28 449.1 908.9 449.4 908.84 449.75C908.63 450.88 907.09 455.84 905.45 454.88C904.75 454.47 904.38 452.89 904.25 452.15C904.04 450.97 904.17 449.79 904.47 448.64C903.99 448.74 903.51 448.85 903.03 448.95C903.7 451.28 903.34 453.81 902.24 455.96C901.56 457.28 900.14 458.4 898.89 457.02C898.09 456.15 898 454.78 897.89 453.67C897.85 453.31 896.42 453.61 896.44 454.06C896.55 455.96 896.39 457.85 895.97 459.71C895.79 460.5 895.61 461.37 895.26 462.1C894.66 463.33 894.13 462.78 893.6 461.75C891.87 458.43 894.65 454.48 897.69 453.15C898.57 452.72 897.69 452.44 897.1 452.7Z" fill="#2B332A"/>
<path d="M615.31 451.96C696.09 459.31 771.35 491.33 836.28 541.96" stroke="#E8E7E7" stroke-width="20" stroke-miterlimit="10"/><path d="M1044.69 451.96C963.91 459.31 888.65 491.33 823.72 541.96" stroke="#E8E7E7" stroke-width="20" stroke-miterlimit="10"/><path d="M897.75 287.15C875.94 283.04 853.27 280.86 830 280.86C806.73 280.86 784.06 283.04 762.25 287.15C651.65 307.98 563.2 378.71 531.37 470.07C553.18 474.18 575.85 476.36 599.12 476.36C690.69 476.36 773.02 442.82 830 389.42C886.98 442.81 969.31 476.36 1060.88 476.36C1084.15 476.36 1106.82 474.18 1128.63 470.07C1096.8 378.7 1008.35 307.97 897.75 287.15Z" fill="#E8E7E7" stroke="#010101" stroke-width="4" stroke-miterlimit="10"/>
<path d="M752.14 173.24C967.41 104.6 1163.12 174.44 1179.95 239.74C1195.94 301.88 1136.2 338.85 1130.39 342.29L1128.48 342.48C1128.48 342.48 1050.1 312.15 888.31 326.7C726.5 341.25 554.98 415.19 517.95 444.96C517.95 444.96 474.82 460.07 463.04 424.93C447.98 379.85 557.8 235.2 752.14 173.24Z" fill="#E3E5CC" stroke="#010101" stroke-width="4" stroke-miterlimit="10"/><path d="M950.39 374.46C1075.19 370.39 1123.42 382.6 1123.42 382.6C1123.42 382.6 1330.1 489.91 1120.18 528.87C869.05 575.48 644.49 429.74 644.49 429.74C644.49 429.74 825.62 378.53 950.39 374.46Z" fill="#E3E5CC" stroke="#010101" stroke-width="4" stroke-miterlimit="10"/><path d="M517.95 444.96C554.98 415.19 726.49 341.24 888.31 326.7C1050.1 312.15 1128.48 342.48 1128.48 342.48L1130.39 342.29C1130.09 342.46 1129.87 342.58 1129.87 342.58C1129.87 342.58 1135.78 342.8 1136.77 349.27C1137.33 353.02 1136.18 359.72 1134.19 372.34C1132.48 383.32 1123.43 382.59 1123.43 382.59C1123.43 382.59 1075.21 370.38 950.4 374.45C825.63 378.52 644.5 429.74 644.5 429.74C576.47 444.74 527.55 470.3 527.55 470.3C518.83 460.01 517.95 444.96 517.95 444.96Z" fill="#BABF9A" stroke="#010101" stroke-width="4" stroke-miterlimit="10"/><path d="M1133.27 282.32C1133.27 282.32 1132.2 286.21 1129.65 291.61C1128.43 294.32 1126.71 297.36 1124.8 300.5C1122.8 303.61 1120.51 306.82 1117.92 309.72C1116.68 311.2 1115.34 312.61 1113.93 313.9C1112.62 315.25 1111.16 316.45 1109.78 317.56C1108.42 318.74 1107 319.7 1105.61 320.59C1104.32 321.54 1103 322.35 1101.71 322.96C1100.48 323.62 1099.36 324.28 1098.33 324.77C1097.28 325.21 1096.35 325.59 1095.58 325.89C1094.07 326.52 1093.21 326.88 1093.21 326.88L1092.88 327.03C1090.75 327.89 1089.74 330.33 1090.63 332.45C1091.5 334.57 1093.92 335.58 1096.03 334.69C1096.19 334.63 1096.34 334.56 1096.5 334.47C1096.5 334.47 1097.42 333.95 1099.07 333.02C1099.88 332.55 1100.85 331.98 1101.95 331.34C1103.07 330.65 1104.23 329.74 1105.53 328.83C1106.84 327.94 1108.16 326.86 1109.49 325.62C1110.88 324.44 1112.29 323.2 1113.61 321.73C1114.98 320.31 1116.35 318.83 1117.57 317.2C1118.9 315.64 1120.09 313.94 1121.22 312.23C1123.54 308.84 1125.46 305.2 1127.11 301.75C1128.65 298.26 1130 294.99 1130.88 292.08C1132.73 286.33 1133.27 282.32 1133.27 282.32Z" fill="#212216" stroke="#010101" stroke-width="4" stroke-miterlimit="10"/><path d="M1051.24 326.85C1051.24 326.85 1051.52 326.59 1052.02 326.11C1052.59 325.57 1053.24 324.88 1054.1 323.97C1055.74 322.13 1057.95 319.39 1060.26 315.98C1061.34 314.23 1062.59 312.39 1063.69 310.3C1064.86 308.27 1065.98 306.06 1067.03 303.74C1068.16 301.46 1068.99 298.98 1070.03 296.53C1070.86 294.02 1071.76 291.48 1072.5 288.9C1073.17 286.29 1073.97 283.74 1074.44 281.15C1074.91 278.58 1075.49 276.05 1075.85 273.57C1076.15 271.11 1076.47 268.72 1076.75 266.45C1076.89 264.18 1077.03 262.03 1077.16 260.04C1077.5 256.1 1077.29 252.77 1077.33 250.48C1077.32 248.17 1077.34 246.86 1077.34 246.86C1077.34 246.86 1077.2 248.17 1076.97 250.47C1076.71 252.75 1076.6 256.04 1075.9 259.92C1075.53 261.85 1075.21 263.96 1074.84 266.18C1074.35 268.37 1073.82 270.67 1073.27 273.06C1072.72 275.43 1071.92 277.83 1071.19 280.28C1070.51 282.74 1069.47 285.13 1068.61 287.57C1067.66 289.97 1066.54 292.31 1065.53 294.62C1064.3 296.84 1063.3 299.11 1062.01 301.14C1060.78 303.21 1059.56 305.17 1058.29 306.95C1057.11 308.78 1055.76 310.34 1054.63 311.86C1052.22 314.73 1050.06 316.98 1048.48 318.4C1047.69 319.08 1047.06 319.66 1046.68 319.92C1046.25 320.25 1046.02 320.42 1046.02 320.42L1045.89 320.54C1044.09 321.93 1043.72 324.53 1045.12 326.33C1046.5 328.15 1049.1 328.49 1050.94 327.1C1051.03 327.01 1051.15 326.92 1051.24 326.85Z" fill="#212216" stroke="#010101" stroke-width="4" stroke-miterlimit="10"/><path d="M1027.42 324.3C1027.42 324.3 1027.69 323.92 1028.11 323.24C1028.66 322.47 1029.24 321.41 1029.84 320.17C1030.47 318.92 1031.04 317.41 1031.66 315.82C1032.06 314.14 1032.74 312.49 1032.93 310.66C1033.04 309.79 1033.17 308.92 1033.33 308.05C1033.51 307.21 1033.38 306.33 1033.42 305.5C1033.39 303.84 1033.54 302.36 1033.2 301.06C1032.81 298.55 1032.54 296.88 1032.54 296.88C1032.54 296.88 1032.3 298.54 1031.94 301.02C1031.84 302.25 1031.27 303.62 1030.83 305.06C1030.58 305.77 1030.47 306.53 1030.05 307.24C1029.72 307.93 1029.36 308.66 1029.01 309.36C1028.4 310.82 1027.33 312.05 1026.6 313.27C1025.68 314.41 1024.88 315.47 1024.07 316.28C1023.25 317.09 1022.62 317.72 1022.18 318.04C1021.7 318.45 1021.39 318.7 1021.39 318.7L1021.28 318.8C1019.51 320.24 1019.21 322.9 1020.7 324.69C1022.16 326.47 1024.8 326.74 1026.59 325.28C1026.9 325 1027.19 324.66 1027.42 324.3Z" fill="#212216" stroke="#010101" stroke-width="4" stroke-miterlimit="10"/><path d="M1077.72 331.39C1077.72 331.39 1078.07 330.94 1078.65 330.17C1079.21 329.4 1079.93 328.31 1080.75 326.98C1082.36 324.3 1084.28 320.6 1085.52 316.68C1086.12 314.71 1086.6 312.73 1086.86 310.82C1086.99 309.88 1087.13 308.98 1087.14 308.11C1087.18 307.23 1087.27 306.44 1087.2 305.68C1087.16 304.18 1087.02 302.95 1086.81 302.1C1086.67 301.26 1086.59 300.77 1086.59 300.77C1086.59 300.77 1086.56 301.26 1086.45 302.11C1086.44 302.96 1086.26 304.15 1085.89 305.54C1085.79 306.24 1085.49 306.98 1085.25 307.76C1085.04 308.53 1084.69 309.31 1084.37 310.12C1083.67 311.73 1082.76 313.36 1081.73 314.92C1079.75 318.05 1077.23 320.76 1075.27 322.65C1074.27 323.57 1073.41 324.32 1072.84 324.79C1072.23 325.25 1071.92 325.49 1071.92 325.49L1071.85 325.55C1070.01 326.96 1069.67 329.57 1071.05 331.4C1072.48 333.23 1075.08 333.58 1076.93 332.16C1077.24 331.95 1077.52 331.68 1077.72 331.39Z" fill="#212216" stroke="#010101" stroke-width="4" stroke-miterlimit="10"/><path d="M896 324.22C896 324.22 896.72 319.62 897.05 312.93C897.2 309.54 897.38 305.62 897.22 301.41C897.13 297.23 896.77 292.74 896.3 288.31C895.95 286.1 895.68 283.88 895.25 281.72C894.77 279.58 894.46 277.44 893.86 275.43C893.27 273.42 892.86 271.45 892.18 269.66C891.52 267.87 890.99 266.14 890.29 264.62C889.6 263.12 888.97 261.74 888.42 260.48C887.83 259.29 887.21 258.28 886.72 257.45C885.77 255.77 885.22 254.84 885.22 254.84C885.22 254.84 885.66 255.85 886.39 257.6C886.76 258.5 887.3 259.54 887.7 260.8C888.12 262.06 888.59 263.49 889.08 265.06C889.6 266.6 889.87 268.35 890.29 270.16C890.77 271.96 890.94 273.94 891.3 275.92C891.64 277.92 891.71 280.04 891.93 282.15C892.08 284.27 892.08 286.44 892.16 288.58C892.13 292.9 891.97 297.21 891.56 301.23C891.25 305.26 890.65 308.99 890.15 312.17C889.03 318.57 887.92 322.55 887.92 322.55C887.31 324.74 888.58 327.02 890.8 327.65C892.99 328.27 895.27 327 895.91 324.78C895.94 324.63 895.95 324.49 896 324.34V324.22Z" fill="#212216" stroke="#010101" stroke-width="4" stroke-miterlimit="10"/><path d="M865.77 327.04C865.77 327.04 865.77 324.56 865.49 321.09C865.19 317.59 864.56 312.96 863.38 308.43C862.81 306.18 862.05 303.97 861.24 301.95C860.41 299.92 859.4 298.13 858.45 296.69C857.42 295.29 856.57 294.14 855.78 293.5C855.07 292.82 854.66 292.43 854.66 292.43C854.66 292.43 854.99 292.9 855.5 293.72C856.11 294.49 856.65 295.78 857.29 297.28C857.88 298.83 858.39 300.65 858.71 302.67C859.03 304.7 859.27 306.85 859.27 309.03C859.37 313.38 859 317.71 858.49 320.92C857.99 324.18 857.53 326.15 857.53 326.15C856.97 328.39 858.34 330.64 860.57 331.19C862.84 331.72 865.09 330.37 865.62 328.14C865.71 327.81 865.73 327.48 865.77 327.18V327.04Z" fill="#212216" stroke="#010101" stroke-width="4" stroke-miterlimit="10"/><path d="M798.89 337.88C798.89 337.88 798.82 337.43 798.67 336.63C798.51 335.78 798.27 334.59 797.92 333.28C797.25 330.58 796.01 327.12 794.47 323.87C793.56 322.27 792.9 320.63 791.84 319.28C790.81 317.91 790.07 316.58 789.11 315.63C787.31 313.74 786.07 312.49 786.07 312.49C786.07 312.49 786.85 314.03 788.02 316.32C788.63 317.44 788.94 318.93 789.44 320.38C789.98 321.82 790.15 323.54 790.49 325.14C791 328.4 791.11 331.67 790.97 334.08C790.93 335.32 790.81 336.28 790.75 336.9C790.66 337.61 790.6 338.01 790.6 338.01V338.11C790.31 340.4 791.93 342.49 794.22 342.77C796.52 343.07 798.62 341.44 798.9 339.14C798.99 338.72 798.95 338.28 798.89 337.88Z" fill="#212216" stroke="#010101" stroke-width="4" stroke-miterlimit="10"/><path d="M680.54 364.62C680.54 364.62 680.37 364.64 680.06 364.67C679.84 364.69 679.39 364.72 678.77 364.73C677.6 364.71 675.83 364.68 673.7 364.31C672.64 364.19 671.5 363.89 670.29 363.63C669.12 363.25 667.83 362.96 666.57 362.4C665.28 361.95 663.99 361.37 662.7 360.7C661.38 360.1 660.18 359.21 658.89 358.45C657.64 357.64 656.52 356.64 655.33 355.74C654.25 354.7 653.23 353.68 652.17 352.69C651.26 351.59 650.36 350.54 649.51 349.53C648.67 348.52 648.04 347.43 647.37 346.47C646 344.57 645.19 342.78 644.54 341.59C643.86 340.38 643.51 339.68 643.51 339.68C643.51 339.68 643.77 340.42 644.2 341.72C644.68 343 645.18 344.93 646.25 347.06C646.76 348.14 647.23 349.37 647.9 350.54C648.61 351.74 649.35 352.99 650.13 354.28C651.02 355.51 651.97 356.77 652.92 358.06C654.02 359.22 655.09 360.49 656.29 361.62C657.51 362.68 658.71 363.88 660.08 364.78C661.37 365.81 662.74 366.69 664.09 367.47C665.42 368.33 666.85 368.91 668.15 369.58C669.51 370.11 670.78 370.7 672 371.05C674.44 371.88 676.55 372.29 678.1 372.57C678.84 372.69 679.47 372.77 679.97 372.81C680.39 372.86 680.62 372.88 680.62 372.88C682.9 373.06 684.89 371.36 685.1 369.08C685.3 366.8 683.56 364.79 681.31 364.6C681.07 364.6 680.85 364.6 680.63 364.59L680.54 364.62Z" fill="#212216" stroke="#010101" stroke-width="4" stroke-miterlimit="10"/><path d="M655.52 373.08C655.43 373.07 655.14 373.19 654.23 373.32C653.4 373.47 652.12 373.62 650.56 373.7C647.42 373.86 643.16 373.64 639.07 372.41C637 371.85 635.02 371 633.22 370.03C632.28 369.59 631.48 369.01 630.68 368.5C629.87 367.99 629.15 367.45 628.55 366.9C627.22 365.86 626.25 364.85 625.59 364.09C624.92 363.39 624.52 362.96 624.52 362.96C624.52 362.96 624.8 363.46 625.29 364.32C625.77 365.21 626.5 366.44 627.6 367.79C628.12 368.5 628.72 369.24 629.43 369.94C630.13 370.67 630.84 371.47 631.71 372.18C633.35 373.64 635.33 375.07 637.45 376.2C641.63 378.62 646.36 380 650.01 380.65C651.83 380.98 653.37 381.15 654.48 381.22C655.58 381.32 656.41 381.28 656.31 381.29C658.59 381.07 660.24 379.04 660.02 376.78C659.82 374.51 657.8 372.86 655.52 373.08Z" fill="#212216" stroke="#010101" stroke-width="4" stroke-miterlimit="10"/><path d="M587.18 399.87C587.18 399.87 587.07 399.92 586.88 400.02C586.76 400.09 586.45 400.23 586.06 400.39C585.28 400.67 584.06 401.13 582.54 401.47C581.04 401.82 579.2 402.11 577.22 402.2C575.22 402.34 573.07 402.2 570.92 401.88C568.74 401.56 566.6 400.96 564.63 400.28C563.62 399.93 562.73 399.5 561.8 399.11C560.91 398.76 560.13 398.24 559.38 397.86C557.82 397.08 556.67 396.21 555.83 395.66C554.97 395.08 554.5 394.77 554.5 394.77C554.5 394.77 554.88 395.2 555.6 395.94C556.3 396.68 557.26 397.79 558.63 398.92C559.32 399.46 559.97 400.19 560.83 400.76C561.65 401.33 562.54 402.01 563.43 402.62C565.34 403.82 567.51 404.98 569.82 405.87C572.11 406.74 574.5 407.45 576.84 407.82C579.15 408.25 581.36 408.41 583.28 408.38C585.21 408.41 586.83 408.2 587.99 408.05C588.57 407.97 589.06 407.86 589.44 407.78C589.75 407.72 589.93 407.68 589.93 407.68C592.16 407.16 593.57 404.94 593.06 402.7C592.55 400.46 590.32 399.07 588.11 399.57C587.78 399.62 587.46 399.74 587.18 399.87Z" fill="#212216" stroke="#010101" stroke-width="4" stroke-miterlimit="10"/><path d="M545.57 420.18C545.57 420.18 545.19 420.27 544.59 420.43C544.07 420.57 543.27 420.77 542.19 420.9C540.05 421.28 537.17 421.42 534.21 421.18C532.83 420.9 531.25 420.86 529.97 420.39C528.69 419.89 527.31 419.61 526.35 419.03C524.33 417.85 522.98 417.07 522.98 417.07C522.98 417.07 524.02 418.28 525.62 420.09C526.4 421.03 527.61 421.75 528.82 422.73C530.08 423.75 531.61 424.31 533.11 425.17C536.17 426.51 539.47 427.48 542.03 427.88C543.29 428.12 544.39 428.26 545.24 428.31C545.96 428.38 546.41 428.4 546.41 428.4C548.74 428.58 550.74 426.85 550.91 424.54C551.11 422.23 549.39 420.21 547.05 420.03C546.56 419.99 546.13 420.03 545.68 420.15L545.57 420.18Z" fill="#212216" stroke="#010101" stroke-width="4" stroke-miterlimit="10"/><path opacity="0.4" d="M644.5 429.74C644.5 429.74 869.05 575.48 1120.19 528.87C1330.11 489.91 1123.43 382.6 1123.43 382.6C1123.43 382.6 1075.21 370.39 950.4 374.46C825.62 378.53 644.5 429.74 644.5 429.74ZM926.11 382.97C1040.85 370.11 1133.1 394.69 1163.98 415.07C1216.6 449.8 1229.81 500.59 1119.43 522.53C1009.02 544.46 880.53 514.91 808.59 477.25C736.68 439.58 811.41 395.82 926.11 382.97Z" fill="#A3A496"/><path opacity="0.4" d="M527.54 470.3C527.54 470.3 576.46 444.74 644.49 429.74C644.49 429.74 825.62 378.53 950.39 374.45C1075.19 370.38 1123.42 382.59 1123.42 382.59C1123.42 382.59 1132.47 383.32 1134.18 372.34C1136.17 359.72 1137.32 353.02 1136.76 349.27C1135.77 342.8 1129.86 342.58 1129.86 342.58C1129.86 342.58 1130.08 342.47 1130.38 342.29L1128.47 342.48C1128.47 342.48 1050.09 312.15 888.3 326.7C726.49 341.25 554.97 415.19 517.94 444.96C517.95 444.96 518.83 460.01 527.54 470.3ZM714.05 368.17C882.46 313.42 1026.64 327.94 1094.95 341.09C1140.38 349.82 1131.24 379.22 1086.27 371.1C942.05 345.07 759.41 394.72 717.53 403.57C675.64 412.42 665.64 383.9 714.05 368.17Z" fill="#A3A496"/><path opacity="0.4" d="M463.04 424.93C474.82 460.07 517.95 444.96 517.95 444.96C554.98 415.19 726.49 341.24 888.31 326.7C1050.1 312.15 1128.48 342.48 1128.48 342.48L1130.39 342.29C1136.2 338.85 1195.94 301.88 1179.95 239.74C1163.12 174.43 967.42 104.6 752.14 173.24C557.8 235.2 447.98 379.85 463.04 424.93ZM712.31 195.48C851.47 138.72 977.98 143.38 1069.77 169.96C1161.54 196.55 1186.7 254.16 1166.5 292.9C1142.63 338.67 1116.86 326.33 1125.98 313.6C1135.11 300.89 1144.85 245.41 1132.76 277.02C1120.65 308.66 1085.65 325.26 1091.6 311.92C1097.53 298.6 1090.49 279.46 1087.29 292.92C1084.14 306.38 1065.48 324.11 1075.42 295.12C1085.35 266.13 1074.48 226.05 1073.58 242.05C1071.32 281.57 1035.29 319.82 1036.57 300.98C1037.82 282.13 1036.18 269.24 1032.45 280.34C1028.7 291.42 1011.67 311.43 968.16 312.41C924.69 313.41 904.19 298.14 899.95 279.88C895.74 261.62 875.68 231.77 881.64 250.22C897.08 297.96 874.8 317.97 868.01 301.52C861.2 285.08 847.6 278.64 847.89 286.9C848.2 295.18 868.93 315.97 830.33 321.27C791.75 326.58 776.33 292.38 779.34 301.95C782.35 311.5 787.16 328.69 724.22 348.07C661.27 367.48 634.34 320.38 638.94 335.59C643.55 350.81 655.59 367.57 638.03 364.02C620.48 360.48 614.2 347.77 617.86 358.54C621.53 369.31 626.54 383.39 606.91 389.58C576.79 399.1 540.09 385.15 545.87 391.33C551.66 397.5 566.53 416.96 542.73 417.57C518.96 418.19 504.81 401.08 510.55 412.03C516.31 422.99 505.7 436.28 488.02 399.12C470.35 361.96 573.14 252.24 712.31 195.48Z" fill="#A3A496"/><path d="M1148.78 228.89C1148.78 228.89 1148.46 228.33 1147.78 227.37C1147.12 226.36 1146.11 224.91 1144.62 223.12C1141.75 219.47 1137.13 214.41 1130.48 208.78C1127.07 206.09 1123.43 202.9 1119 200.06C1116.85 198.56 1114.59 197.02 1112.26 195.41C1109.79 193.99 1107.27 192.49 1104.65 190.97C1099.48 187.7 1093.55 185.14 1087.46 182.06C1084.42 180.44 1081.12 179.29 1077.81 177.96C1074.46 176.65 1071.05 175.31 1067.57 173.93C1060.48 171.52 1053.05 169.27 1045.3 166.86C1037.49 164.97 1029.37 163.01 1020.98 161.16C1012.54 159.75 1003.87 158.28 995.02 156.79C986.05 155.89 976.93 154.97 967.63 154.02C949.03 153.02 929.73 151.98 910.16 152.77C905.2 152.88 900.24 152.97 895.22 153.09C890.36 153.48 885.49 153.87 880.59 154.27C875.72 154.68 870.81 155.07 865.89 155.47L858.52 156.07L851.09 157.18C841.19 158.8 831.24 160.31 821.41 162.05C811.74 164.3 802.1 166.56 792.52 168.79C773.6 173.95 755.18 179.85 737.86 186.82C729.04 189.95 720.71 193.83 712.56 197.57C708.49 199.46 704.39 201.2 700.46 203.17C696.59 205.2 692.74 207.2 688.96 209.19C685.16 211.17 681.45 213.12 677.78 215.05C674.19 217.15 670.67 219.22 667.22 221.25C663.76 223.31 660.37 225.34 657.03 227.33C653.73 229.31 650.62 231.52 647.52 233.54C634.96 241.58 624.03 249.78 614.55 257.25C605.06 264.71 597.11 271.6 590.68 277.4C584.26 283.19 579.52 288.08 576.29 291.41C573.14 294.76 571.5 296.62 571.5 296.62C571.5 296.62 573.27 294.93 576.77 291.9C580.26 288.85 585.51 284.61 592.26 279.24C599.05 273.94 607.38 267.68 617.29 260.97C622.12 257.47 627.6 254.18 633.24 250.56C638.82 246.85 644.91 243.33 651.24 239.59C654.42 237.76 657.6 235.75 660.95 233.95C664.31 232.16 667.76 230.34 671.26 228.49C674.73 226.62 678.27 224.72 681.88 222.8C685.55 221.05 689.32 219.25 693.09 217.46C696.88 215.65 700.72 213.82 704.63 211.97C708.54 210.18 712.6 208.62 716.64 206.91C724.81 203.6 733.02 199.84 741.73 197.02C746.03 195.48 750.36 193.94 754.73 192.39C756.93 191.62 759.11 190.83 761.32 190.06C763.55 189.41 765.81 188.77 768.09 188.11C772.59 186.82 777.13 185.52 781.72 184.2C786.3 182.95 790.78 181.28 795.51 180.38C804.87 178.26 814.28 176.13 823.75 173.99C833.26 172.5 842.81 171 852.37 169.49L859.54 168.35L866.91 167.7C871.79 167.26 876.69 166.83 881.59 166.4C886.49 165.96 891.37 165.52 896.23 165.09C900.99 164.97 905.73 164.83 910.48 164.71C915.29 164.57 920.07 164.44 924.84 164.31L931.96 164.06C934.35 164.11 936.67 164.15 939.05 164.19C948.47 164.44 957.76 164.44 966.91 164.86C976.03 165.55 985.02 166.21 993.77 166.87C1002.49 168.01 1011.02 169.13 1019.33 170.2C1027.53 171.8 1035.54 173.33 1043.26 174.82C1050.86 176.81 1058.28 178.62 1065.3 180.63C1079.18 185.13 1091.82 189.69 1102.44 194.99C1105.11 196.31 1107.7 197.58 1110.19 198.82C1112.6 200.22 1114.9 201.57 1117.1 202.88C1121.65 205.36 1125.38 208.22 1128.95 210.63C1132.39 213.15 1135.32 215.61 1137.9 217.71C1140.37 219.95 1142.53 221.8 1144.07 223.52C1145.68 225.16 1146.85 226.48 1147.63 227.43C1148.43 228.36 1148.78 228.89 1148.78 228.89Z" fill="#444A29" stroke="#010101" stroke-width="4" stroke-miterlimit="10"/><path d="M1146.03 411.86C1146.03 411.86 1150.89 414.62 1158.55 420.48C1162.36 423.42 1166.78 427.2 1171.38 431.92C1175.84 436.69 1180.51 442.57 1183.38 449.64C1186.3 456.68 1186.61 464.89 1183.12 472.5C1181.42 476.32 1179.07 480.05 1175.93 483.45C1174.54 485.25 1172.65 486.78 1171.1 488.51C1169.73 489.51 1167.22 491.88 1165.46 492.87C1161.87 495.15 1157.44 497.5 1152.7 499.19C1150.38 500.12 1147.99 500.97 1145.5 501.65C1143.03 502.44 1140.55 503.19 1137.99 503.76C1127.81 506.34 1117.09 507.96 1106.3 509.12C1095.5 510.33 1084.6 511.02 1073.81 511.43C1063.03 511.77 1052.4 512.04 1042.09 511.98C1021.49 511.95 1002.17 511.31 985.6 510.7C969.04 509.92 955.19 509.27 945.53 508.81C935.83 508.31 930.28 508.01 930.28 508.01C930.28 508.01 951.88 513.43 984.99 517.8C993.25 518.89 1002.24 520.01 1011.78 520.81C1021.32 521.67 1031.38 522.55 1041.84 522.9C1052.29 523.28 1063.13 523.74 1074.14 523.4C1085.19 523.13 1096.42 522.6 1107.61 521.43C1118.84 520.11 1130.06 518.26 1141.01 515.36C1143.74 514.67 1146.46 513.85 1149.14 512.92C1151.82 512.07 1154.45 511.03 1157.09 509.87C1159.69 508.84 1162.23 507.51 1164.69 506.15C1167.19 505 1169.74 503.1 1172.2 501.44C1173.53 500.59 1174.39 499.74 1175.37 498.88L1178.51 496.08C1180.33 494.02 1182.25 492.17 1183.83 489.91C1187.19 485.71 1189.86 480.91 1191.71 475.91C1193.54 470.89 1194.41 465.54 1193.91 460.45C1193.46 455.37 1191.85 450.73 1189.83 446.72C1185.7 438.62 1179.89 432.98 1174.61 428.52C1169.26 424.06 1164.16 420.89 1159.94 418.45C1155.65 416.01 1152.13 414.46 1149.73 413.4C1147.33 412.34 1146.03 411.86 1146.03 411.86Z" fill="#444A29" stroke="#010101" stroke-width="4" stroke-miterlimit="10"/></svg>