<svg width="300" height="300" viewBox="0 0 1660 1660" fill="none" xmlns="http://www.w3.org/2000/svg"><path d="M1660 0H0V1660H1660V0Z" fill="#F7DEE1"/><path opacity="0.1" d="M954.792 1439.01C999.308 1302.2 843.64 1128.9 607.099 1051.94C370.559 974.972 142.718 1023.49 98.2026 1160.3C53.6875 1297.11 209.355 1470.41 445.896 1547.37C682.436 1624.34 910.277 1575.82 954.792 1439.01Z" fill="#171717"/>
<path d="M900.89 1189.21L935.59 1435.64L945.54 1506.5" stroke="#010101" stroke-width="14" stroke-miterlimit="10"/><path d="M762.1 1185.1L727.4 1431.54L716.79 1506.5" stroke="#010101" stroke-width="14" stroke-miterlimit="10"/><path d="M897.87 1168.28L934.36 1427.43" stroke="#010101" stroke-width="14" stroke-miterlimit="10"/><path d="M764.48 1168.28L729.78 1414.71" stroke="#010101" stroke-width="14" stroke-miterlimit="10"/>
<path d="M939.3 1500.33C932.52 1496.42 925.73 1492.52 918.95 1488.61C912.99 1500.33 907.03 1506.84 901.07 1518.56C907.65 1520 911.49 1526.64 918.06 1528.08C924.23 1518.82 933.13 1509.57 939.3 1500.33Z" fill="#010101"/><path d="M1082.28 1509.45C1082.02 1509.02 1081.76 1508.6 1081.5 1508.17C1047.75 1496.75 1039.64 1494.36 1002.72 1468.54C991.34 1460.58 987.84 1439.4 979.04 1372.21C951.78 1371.55 924.52 1370.9 897.27 1370.24C897.9 1396.53 897.89 1418.18 895.13 1432.3C892.76 1444.42 886.79 1455.94 886.79 1455.94C884.18 1471.85 881.58 1487.75 878.97 1503.66C891.23 1512.3 903.5 1520.94 915.76 1529.58C915.76 1529.57 915.77 1529.11 915.77 1529.1C915.77 1529.06 915.79 1528.2 915.79 1528.16C915.79 1528.12 916.29 1504.17 916.32 1502.82C922.07 1504.33 927.9 1506.3 933.19 1508.93C931.1 1511.37 927.81 1515.41 924.52 1519.45L933.19 1508.93C941.59 1513.1 948.66 1518.92 951.96 1527.16C955.22 1535.31 952.41 1539.86 955.46 1549.27C960.74 1565.51 976.26 1573.96 986.81 1579.7C1017.51 1596.4 1048.1 1591.49 1051.98 1590.81C1086.02 1584.84 1105.78 1562.79 1111.09 1556.46C1101.48 1540.8 1091.88 1525.13 1082.28 1509.45Z" fill="url(#paint0_linear_87_120)" stroke="#010101" stroke-width="4" stroke-miterlimit="10"/><path d="M924.52 1519.46L915.85 1529.98C917.94 1527.54 921.23 1523.5 924.52 1519.46Z" fill="url(#paint1_linear_87_120)" stroke="#010101" stroke-width="4" stroke-miterlimit="10"/><path d="M942.17 1423.23C941.71 1432.55 953.26 1457.75 954.3 1481.13C955.5 1508.18 1030.3 1534.03 1034.78 1534.2C1049.01 1527.73 1067.27 1514.65 1081.5 1508.18" stroke="#010101" stroke-width="5" stroke-miterlimit="10"/><path d="M1035.41 1534.19L1052.6 1590.82" stroke="#010101" stroke-width="5" stroke-miterlimit="10"/><path d="M727.34 1500.33C734.12 1496.42 740.91 1492.52 747.69 1488.61C753.65 1500.33 759.61 1506.84 765.57 1518.56C758.99 1520 755.15 1526.64 748.58 1528.08C742.41 1518.82 733.51 1509.57 727.34 1500.33Z" fill="#010101"/><path d="M584.35 1509.45C584.61 1509.02 584.87 1508.6 585.13 1508.17C618.88 1496.75 626.99 1494.36 663.91 1468.54C675.29 1460.58 678.79 1439.4 687.59 1372.21C714.85 1371.55 742.11 1370.9 769.36 1370.24C768.73 1396.53 768.74 1418.18 771.5 1432.3C773.87 1444.42 779.84 1455.94 779.84 1455.94C782.45 1471.85 785.05 1487.75 787.66 1503.66C775.4 1512.3 763.13 1520.94 750.87 1529.58C750.87 1529.57 750.86 1529.11 750.86 1529.1C750.86 1529.06 750.84 1528.2 750.84 1528.16C750.84 1528.12 750.34 1504.17 750.31 1502.82C744.56 1504.33 738.73 1506.3 733.44 1508.93C735.53 1511.37 738.82 1515.41 742.11 1519.45L733.44 1508.93C725.04 1513.1 717.97 1518.92 714.67 1527.16C711.41 1535.31 714.22 1539.86 711.17 1549.27C705.89 1565.51 690.37 1573.96 679.82 1579.7C649.12 1596.4 618.53 1591.49 614.65 1590.81C580.61 1584.84 560.85 1562.79 555.54 1556.46C565.16 1540.8 574.75 1525.13 584.35 1509.45Z" fill="url(#paint2_linear_87_120)" stroke="#010101" stroke-width="4" stroke-miterlimit="10"/><path d="M742.12 1519.46L750.79 1529.98C748.69 1527.54 745.41 1523.5 742.12 1519.46Z" fill="url(#paint3_linear_87_120)" stroke="#010101" stroke-width="4" stroke-miterlimit="10"/><path d="M724.47 1423.23C724.93 1432.55 713.38 1457.75 712.34 1481.13C711.14 1508.18 636.34 1534.03 631.86 1534.2C617.63 1527.73 599.37 1514.65 585.14 1508.18" stroke="#010101" stroke-width="5" stroke-miterlimit="10"/><path d="M631.23 1534.19L614.04 1590.82" stroke="#010101" stroke-width="5" stroke-miterlimit="10"/><defs><linearGradient id="paint0_linear_87_120" x1="882.974" y1="1514.68" x2="1070.97" y2="1446.26" gradientUnits="userSpaceOnUse"><stop offset="0.4178" stop-color="#171618"/><stop offset="0.5095" stop-color="#1C1B1C"/><stop offset="0.646" stop-color="#282726"/><stop offset="0.8104" stop-color="#393934"/><stop offset="0.9953" stop-color="#535145"/><stop offset="1" stop-color="#545246"/></linearGradient><linearGradient id="paint1_linear_87_120" x1="914.665" y1="1526.72" x2="925.702" y2="1522.71" gradientUnits="userSpaceOnUse"><stop offset="0.4178" stop-color="#171618"/><stop offset="0.5095" stop-color="#1C1B1C"/><stop offset="0.646" stop-color="#282726"/><stop offset="0.8104" stop-color="#393934"/><stop offset="0.9953" stop-color="#535145"/><stop offset="1" stop-color="#545246"/></linearGradient><linearGradient id="paint2_linear_87_120" x1="783.663" y1="1514.68" x2="595.67" y2="1446.26" gradientUnits="userSpaceOnUse"><stop offset="0.4178" stop-color="#171618"/><stop offset="0.5095" stop-color="#1C1B1C"/><stop offset="0.646" stop-color="#282726"/><stop offset="0.8104" stop-color="#393934"/><stop offset="0.9953" stop-color="#535145"/><stop offset="1" stop-color="#545246"/></linearGradient><linearGradient id="paint3_linear_87_120" x1="751.972" y1="1526.72" x2="740.936" y2="1522.71" gradientUnits="userSpaceOnUse"><stop offset="0.4178" stop-color="#171618"/><stop offset="0.5095" stop-color="#1C1B1C"/><stop offset="0.646" stop-color="#282726"/><stop offset="0.8104" stop-color="#393934"/><stop offset="0.9953" stop-color="#535145"/><stop offset="1" stop-color="#545246"/></linearGradient></defs>
<path d="M788.73 796.77C765.28 825.21 726.07 857.24 702.69 916.56C676.84 982.14 678.78 1052.24 677.46 1090.89" stroke="#010101" stroke-width="14" stroke-miterlimit="10"/><path d="M872.07 797.05C895.52 825.49 934.73 857.52 958.11 916.84C983.96 982.42 982.02 1052.52 983.34 1091.17" stroke="#010101" stroke-width="14" stroke-miterlimit="10"/><path d="M671.82 1090.42C659.38 1115.75 658.03 1138.2 668.13 1146.48C673.93 1151.24 684.81 1152.38 688.78 1147.96C694.32 1141.79 683.66 1127.9 688.78 1122.88C694.26 1117.5 708.15 1128.42 709.41 1125.69C714.7 1114.26 704.57 1115.93 692.47 1103.7C687.82 1099 686 1095.82 682.14 1090.42C679.81 1087.15 674.58 1089.58 671.82 1090.42Z" fill="#010101" stroke="#010101" stroke-width="4" stroke-miterlimit="10"/><path d="M988.18 1090.14C1000.62 1115.47 1001.97 1137.92 991.87 1146.2C986.07 1150.96 975.19 1152.1 971.22 1147.68C965.68 1141.51 976.34 1127.62 971.22 1122.6C965.74 1117.22 951.85 1128.14 950.59 1125.41C945.3 1113.98 955.43 1115.65 967.53 1103.42C972.18 1098.72 974 1095.54 977.86 1090.14C980.19 1086.87 985.42 1089.29 988.18 1090.14Z" fill="#010101" stroke="#010101" stroke-width="4" stroke-miterlimit="10"/>
<path d="M880.03 776.89H779.97V1004.79H880.03V776.89Z" fill="#010101" stroke="#010101" stroke-width="4" stroke-miterlimit="10"/>
<path d="M751.91 821.16C729.51 831.05 707.11 840.93 684.7 850.82C681.12 852.4 678.16 854.75 676.15 857.6C670.58 865.46 665.95 872.8 662.55 882.03C648.45 920.24 624.08 969.31 611.11 1001.96C607.6 1010.8 618.51 1010.57 630 1011.91C637.58 1012.8 641.21 1013.45 649.28 1017.35C660.59 1022.8 660.9 1026.23 676.08 1033.17C681.38 1035.59 695.95 1035.87 696.46 1040.73C703.37 1106.11 704.34 1080.04 703.68 1144.05C703.66 1146.2 701.82 1162.17 702.5 1168.82L957.99 1170.56C961.89 1170.76 960.54 1143.71 960.5 1140.58C959.8 1079.53 962.46 1116.62 964.01 1049.06C964.19 1041.05 964.74 1034.81 974.53 1033.11C983.81 1031.5 993.09 1029.89 1002.37 1028.27C1008.75 1027.16 1014.07 1023.79 1017.19 1019.21C1018.21 1017.7 1019.51 1016.14 1021.15 1014.61C1025.08 1010.95 1030.13 1009.29 1034.12 1007.25C1047.92 1000.2 1052.65 1001.23 1047.53 989.07C1035.35 960.15 1022.72 922.73 1000.46 877.5C995.52 867.46 985.84 860.05 978.29 852.58C976.14 850.45 973.4 848.74 970.28 847.6C944.32 838.11 918.37 828.62 892.41 819.13C886.3 816.89 879.26 817.05 873.25 819.46C864.95 822.79 854.13 826.14 841.09 827.9C836.97 828.46 822.31 830.24 803.38 827.9C790.72 826.33 780.04 823.41 771.65 820.41C765.32 818.16 758 818.47 751.91 821.16Z" fill="url(#paint0_radial_87_872)" stroke="#030303" stroke-width="4" stroke-miterlimit="10"/><path d="M958.49 1126.82C953.47 1127.01 935.79 1124.43 926.03 1125.16C925.95 1125.16 925.51 1125.17 925.15 1125.45C924.92 1125.63 924.79 1125.88 924.79 1126.15V1140.31C924.79 1140.86 925.35 1141.3 926.04 1141.31C933.63 1141.38 952.36 1143.22 958.84 1143.22" fill="#F58045"/><path d="M958.49 1126.82C953.47 1127.01 935.79 1124.43 926.03 1125.16C925.95 1125.16 925.51 1125.17 925.15 1125.45C924.92 1125.63 924.79 1125.88 924.79 1126.15V1140.31C924.79 1140.86 925.35 1141.3 926.04 1141.31C933.63 1141.38 952.36 1143.22 958.84 1143.22" stroke="#010101" stroke-width="4" stroke-miterlimit="10"/><path d="M759.28 820.52C760.16 813.35 761.04 806.17 761.92 799C773.37 802.67 795.87 808.02 816.51 808.97C847.39 810.39 865.99 802.79 879.46 798.33C880.48 805.48 881.5 812.62 882.52 819.77C869.55 824.12 847.15 832.51 817.94 832.18C792.38 831.9 771.72 824.52 759.28 820.52Z" fill="url(#paint1_radial_87_872)" stroke="#030303" stroke-width="4" stroke-miterlimit="10"/><path d="M804.47 815.17C804.9 815.23 805.33 815.32 805.76 815.46C806.19 815.6 806.55 815.76 806.85 815.95C806.66 816.53 806.57 816.83 806.38 817.41C806.14 817.28 805.86 817.16 805.54 817.05C805.22 816.94 804.9 816.86 804.58 816.82C803.72 816.71 803.01 816.83 802.44 817.19C801.87 817.56 801.52 818.18 801.38 819.08C801.24 819.97 801.39 820.68 801.84 821.2C802.29 821.72 802.97 822.04 803.87 822.16C804.21 822.2 804.55 822.21 804.9 822.18C805.25 822.15 805.56 822.1 805.84 822.03C805.9 822.64 805.93 822.95 805.99 823.56C805.63 823.68 805.21 823.75 804.73 823.78C804.25 823.8 803.78 823.79 803.31 823.72C802.52 823.61 801.84 823.41 801.28 823.1C800.71 822.8 800.26 822.42 799.93 821.97C799.59 821.53 799.37 821.03 799.26 820.47C799.15 819.92 799.15 819.33 799.26 818.72C799.37 818.1 799.56 817.55 799.85 817.07C800.13 816.59 800.5 816.19 800.94 815.87C801.38 815.55 801.89 815.33 802.48 815.2C803.07 815.08 803.73 815.07 804.47 815.17Z" fill="#121313"/><path d="M814.11 816.19C814.08 816.84 814.06 817.17 814.03 817.82C813.12 817.78 812.66 817.75 811.75 817.69C811.57 820.37 811.48 821.71 811.3 824.38C810.42 824.32 809.97 824.29 809.09 824.21C809.32 821.54 809.43 820.2 809.66 817.53C808.75 817.45 808.29 817.41 807.38 817.31C807.45 816.66 807.48 816.34 807.55 815.69C810.18 815.96 811.49 816.06 814.11 816.19Z" fill="#121313"/><path d="M820.42 824.64C820.4 822.49 820.39 821.41 820.38 819.26C819.09 821.42 818.42 822.5 817.01 824.62C816.12 824.6 815.68 824.59 814.8 824.56C814.93 821.23 814.99 819.56 815.12 816.23C815.94 816.26 816.36 816.27 817.18 816.29C817.14 818.4 817.12 819.45 817.08 821.56C818.45 819.48 819.11 818.43 820.37 816.31C821.2 816.3 821.61 816.3 822.43 816.27C822.52 819.6 822.56 821.27 822.65 824.6C821.75 824.63 821.31 824.64 820.42 824.64Z" fill="#121313"/><path d="M827.3 817.67C827.26 818.42 827.25 818.8 827.21 819.55C827.16 820.49 827.05 821.28 826.89 821.92C826.73 822.56 826.52 823.08 826.28 823.48C826.03 823.88 825.76 824.17 825.44 824.36C825.13 824.55 824.81 824.66 824.49 824.7C824.2 824.1 824.06 823.8 823.77 823.2C824.01 823.12 824.22 822.98 824.41 822.8C824.6 822.62 824.76 822.36 824.9 822.04C825.03 821.72 825.15 821.31 825.23 820.83C825.32 820.35 825.37 819.77 825.4 819.09C825.45 817.91 825.47 817.33 825.51 816.15C827.74 816.03 828.85 815.94 831.07 815.71C831.41 819.03 831.59 820.68 831.93 824C831.05 824.09 830.61 824.13 829.72 824.21C829.49 821.54 829.38 820.2 829.15 817.53C828.41 817.59 828.04 817.62 827.3 817.67Z" fill="#121313"/><path d="M836.35 818.12C836.93 818.03 837.43 818.03 837.84 818.11C838.25 818.19 838.6 818.32 838.88 818.51C839.16 818.7 839.37 818.93 839.52 819.21C839.67 819.48 839.77 819.77 839.83 820.08C839.91 820.55 839.9 820.97 839.78 821.35C839.66 821.73 839.46 822.06 839.16 822.34C838.87 822.62 838.49 822.86 838.04 823.04C837.59 823.22 837.08 823.36 836.51 823.44C835.38 823.6 834.81 823.67 833.68 823.81C833.29 820.5 833.09 818.84 832.7 815.53C833.52 815.43 833.93 815.38 834.75 815.27C834.92 816.51 835 817.13 835.17 818.37C835.29 818.34 835.45 818.3 835.66 818.25C835.87 818.2 836.1 818.16 836.35 818.12ZM837.72 820.49C837.67 820.18 837.51 819.94 837.25 819.77C836.99 819.6 836.62 819.56 836.15 819.62C836.06 819.63 835.94 819.65 835.79 819.68C835.64 819.71 835.49 819.74 835.37 819.78C835.49 820.67 835.55 821.11 835.67 822C835.93 821.96 836.07 821.95 836.33 821.91C837.38 821.76 837.84 821.28 837.72 820.49Z" fill="#121313"/><defs><radialGradient id="paint0_radial_87_872" cx="0" cy="0" r="1" gradientUnits="userSpaceOnUse" gradientTransform="translate(830 994.089) scale(204.44 191.826)"><stop stop-color="white"/><stop offset="1" stop-color="#F6F2EF"/></radialGradient><radialGradient id="paint1_radial_87_872" cx="0" cy="0" r="1" gradientUnits="userSpaceOnUse" gradientTransform="translate(820.903 815.284) scale(45.4016 42.6003)"><stop stop-color="white"/><stop offset="1" stop-color="#F6F2EF"/></radialGradient></defs>
<path d="M830 389.3C773.03 442.69 690.69 476.24 599.12 476.24C575.85 476.24 553.18 474.06 531.37 469.95C523.09 493.73 518.62 518.91 518.62 544.97C518.62 690.9 658.03 809.2 830 809.2C1001.97 809.2 1141.38 690.9 1141.38 544.97C1141.38 518.91 1136.91 493.73 1128.63 469.95C1106.82 474.06 1084.15 476.24 1060.88 476.24C969.31 476.24 886.97 442.7 830 389.3Z" fill="url(#paint0_radial_87_19135)" stroke="#010101" stroke-width="4" stroke-miterlimit="10"/><defs><radialGradient id="paint0_radial_87_19135" cx="0" cy="0" r="1" gradientUnits="userSpaceOnUse" gradientTransform="translate(830 599.253) scale(265.553)"><stop stop-color="#603A17"/><stop offset="0.9992" stop-color="#28120B"/></radialGradient></defs>
<path d="M869.34 603.62C866.07 598.57 896.14 568.47 934.13 548.54C962.3 533.76 985.76 529.33 1001.83 526.42C1025.12 522.22 1060.1 515.9 1066.88 528.73C1071.96 538.35 1059.43 555.42 1051 563.58C1048.19 566.3 1040.06 573.62 1022 579.32C996.32 587.43 986.89 580.77 948.98 585.67C933.12 587.72 919.71 590.83 914.27 592.1C882.79 599.48 871.21 606.5 869.34 603.62Z" fill="#ECECEC"/><path d="M921.78 555.92C921.91 558.11 922.16 560.31 922.57 562.52C924.43 572.57 929 581.44 935.37 588.53" fill="url(#paint0_radial_87_19189)"/><path d="M921.78 555.92C921.91 558.11 922.16 560.31 922.57 562.52C924.43 572.57 929 581.44 935.37 588.53" stroke="#010101" stroke-width="4" stroke-miterlimit="10"/><path d="M1024.95 533.27C1023.5 529.57 1021.49 525.65 1020.36 524.21C1017.2 520.17 1006.5 517.03 963.07 534.25C952.38 538.49 939.59 546.71 923.14 555.11C923.14 556.06 921.71 554.87 921.77 555.83C921.77 555.86 922.09 557.56 922.1 557.59C922.85 567.85 926.5 577.13 935.37 588.53C939.34 587.85 943.62 587.18 948.11 586.6C985.96 581.71 995.41 588.34 1021 580.29C1023.64 575.84 1027.32 568.26 1028.35 558.35C1029.05 551.66 1028.31 546.13 1027.74 543.04C1026.95 538.76 1025.78 535.39 1024.95 533.27Z" fill="url(#paint1_radial_87_19189)" stroke="#010101" stroke-width="4" stroke-miterlimit="10"/><path d="M952.13 540.72C950.2 545.45 949.54 550.76 950.53 556.12C953.3 571.06 967.87 581.08 982.81 578.31C997.75 575.54 1007.77 560.97 1005 546.03C1003.66 538.78 999.53 532.69 993.93 528.66" fill="#010101"/><path d="M1005.47 559.22C1010.9 559.22 1015.3 554.819 1015.3 549.39C1015.3 543.961 1010.9 539.56 1005.47 539.56C1000.04 539.56 995.64 543.961 995.64 549.39C995.64 554.819 1000.04 559.22 1005.47 559.22Z" fill="#E4E4E4"/><path d="M868.46 604.55C865.19 599.5 895.26 569.4 933.25 549.47C961.42 534.69 984.88 530.26 1000.95 527.35C1024.24 523.15 1059.22 516.83 1066 529.66C1071.08 539.28 1058.55 556.35 1050.12 564.51C1047.31 567.23 1039.18 574.55 1021.12 580.25C995.44 588.36 986.01 581.7 948.1 586.6C932.24 588.65 918.83 591.76 913.39 593.03C881.91 600.41 870.33 607.43 868.46 604.55Z" stroke="#010101" stroke-width="4" stroke-miterlimit="10"/><path d="M868.82 601.39C869.14 601.73 888.73 572.93 930.43 550.97C978.68 525.56 1040.35 517.83 1070.97 526.34C1073.48 527.04 1079.41 528.85 1087.25 528.11C1104.8 526.45 1118.29 513.24 1127.64 500.68C1108.56 506.5 1092.85 508.82 1082.28 509.88C1062.33 511.88 1054.25 510.01 1032.4 511.94C1032.4 511.94 1012.57 513.69 989.06 519.17C927.77 533.47 868.31 600.84 868.82 601.39Z" fill="#010101"/><path d="M1032.72 575.84C1036.2 574.6 1058.81 566.37 1070.74 553.63C1070.74 553.63 1077.71 546.19 1079.47 536.33C1079.62 535.52 1080.27 528.11 1079.47 526.53C1077.3 522.21 1066.56 521.96 1064.17 524.81C1062.44 526.87 1067 534.38 1066.32 540.81C1065.91 544.69 1064.53 547.46 1063.5 549.51C1061.08 554.34 1057.82 557.57 1052.81 561.72C1048.09 565.63 1041.42 570.65 1032.72 575.84Z" fill="#010101"/><path d="M628.77 575.84C625.29 574.6 602.68 566.37 590.75 553.63C590.75 553.63 583.78 546.19 582.02 536.33C581.87 535.52 581.22 528.11 582.02 526.53C584.19 522.21 594.93 521.96 597.32 524.81C599.05 526.87 594.49 534.38 595.17 540.81C595.58 544.69 596.96 547.46 597.99 549.51C600.41 554.34 603.67 557.57 608.68 561.72C613.4 565.63 620.07 570.65 628.77 575.84Z" fill="#010101"/><path d="M790.66 602.86C793.93 597.81 763.86 567.71 725.87 547.78C697.7 533 674.24 528.57 658.17 525.66C634.88 521.46 599.9 515.14 593.12 527.97C588.04 537.59 600.57 554.66 609 562.82C611.81 565.54 619.94 572.86 638 578.56C663.68 586.67 673.11 580.01 711.02 584.91C726.88 586.96 740.29 590.07 745.73 591.34C777.21 598.73 788.79 605.75 790.66 602.86Z" fill="#ECECEC"/><path d="M738.22 555.16C738.09 557.35 737.84 559.55 737.43 561.76C735.57 571.81 731 580.68 724.63 587.77" fill="url(#paint2_radial_87_19189)"/><path d="M738.22 555.16C738.09 557.35 737.84 559.55 737.43 561.76C735.57 571.81 731 580.68 724.63 587.77" stroke="#010101" stroke-width="4" stroke-miterlimit="10"/><path d="M635.05 532.51C636.5 528.81 638.51 524.89 639.64 523.45C642.8 519.41 653.5 516.27 696.93 533.49C707.62 537.73 720.41 545.95 736.86 554.35C736.86 555.3 738.29 554.11 738.23 555.07C738.23 555.1 737.91 556.8 737.9 556.83C737.15 567.09 733.5 576.37 724.63 587.77C720.66 587.09 716.38 586.42 711.89 585.84C674.04 580.95 664.59 587.58 639 579.53C636.36 575.08 632.68 567.5 631.65 557.59C630.95 550.9 631.69 545.37 632.26 542.28C633.05 538.01 634.22 534.63 635.05 532.51Z" fill="url(#paint3_radial_87_19189)" stroke="#010101" stroke-width="4" stroke-miterlimit="10"/><path d="M707.87 539.96C709.8 544.7 710.46 550 709.47 555.36C706.7 570.3 692.13 580.32 677.19 577.55C662.25 574.78 652.23 560.21 655 545.27C656.34 538.02 660.47 531.93 666.07 527.9" fill="#010101"/><path d="M709.92 571.77C715.349 571.77 719.75 567.369 719.75 561.94C719.75 556.511 715.349 552.11 709.92 552.11C704.491 552.11 700.09 556.511 700.09 561.94C700.09 567.369 704.491 571.77 709.92 571.77Z" fill="#E4E4E4"/><path d="M791.54 603.79C794.81 598.74 764.74 568.64 726.75 548.71C698.58 533.93 675.12 529.5 659.05 526.59C635.76 522.39 600.78 516.07 594 528.9C588.92 538.52 601.45 555.59 609.88 563.75C612.69 566.47 620.82 573.79 638.88 579.49C664.56 587.6 673.99 580.94 711.9 585.84C727.76 587.89 741.17 591 746.61 592.27C778.09 599.65 789.67 606.67 791.54 603.79Z" stroke="#010101" stroke-width="4" stroke-miterlimit="10"/><path d="M791.18 600.63C790.86 600.97 771.27 572.17 729.57 550.21C681.32 524.8 619.65 517.07 589.03 525.58C586.52 526.28 580.59 528.09 572.75 527.35C555.2 525.69 541.71 512.48 532.36 499.92C551.44 505.74 567.15 508.06 577.72 509.12C597.67 511.12 605.75 509.25 627.6 511.18C627.6 511.18 647.43 512.93 670.94 518.41C732.23 532.71 791.69 600.08 791.18 600.63Z" fill="#010101"/><path opacity="0.2" d="M789.7 602.43C788.38 597.66 780.3 589.5 771.51 581.74C764.1 575.2 758.16 570.92 750.93 565.81C736.33 555.48 724.29 550.08 721.71 548.51C713.49 543.52 695.2 537.17 670.06 531.1C670.06 531.1 655.74 527.33 632.28 524.34C627.72 523.76 623.66 523.44 619.43 523.31C614.23 523.15 611.16 523.22 607.64 523.79C603.42 524.47 600.98 525.17 598.28 527C595.89 528.62 595.77 529.85 595.27 530.97C607.24 532.68 621.84 534.8 638.34 537.23C675.04 542.64 682.99 544.03 694.52 547.53C708.19 551.68 718.41 556.23 728.62 560.78C742.61 567.01 752.66 571.48 764.44 579.67C776.22 587.88 783.88 595.95 789.7 602.43Z" fill="#40403C"/><path opacity="0.2" d="M870.49 603.21C871.81 598.44 879.89 590.28 888.68 582.52C896.09 575.98 902.03 571.7 909.26 566.59C923.86 556.26 935.9 550.86 938.48 549.29C946.7 544.3 964.99 537.95 990.13 531.88C990.13 531.88 1004.45 528.11 1027.91 525.12C1032.47 524.54 1036.53 524.22 1040.76 524.09C1045.96 523.93 1049.03 524 1052.55 524.57C1056.77 525.25 1059.21 525.95 1061.91 527.78C1064.3 529.4 1064.42 530.63 1064.92 531.75C1052.95 533.46 1038.35 535.58 1021.85 538.01C985.15 543.42 977.2 544.81 965.67 548.31C952 552.46 941.78 557.01 931.57 561.56C917.58 567.79 907.53 572.26 895.75 580.45C883.97 588.66 876.31 596.73 870.49 603.21Z" fill="#40403C"/><defs><radialGradient id="paint0_radial_87_19189" cx="0" cy="0" r="1" gradientUnits="userSpaceOnUse" gradientTransform="translate(928.417 572.243) rotate(-10.4976) scale(12.523)"><stop stop-color="#F15B27"/><stop offset="0.1857" stop-color="#E35528"/><stop offset="0.4468" stop-color="#CB4829"/><stop offset="0.7512" stop-color="#A73328"/><stop offset="1" stop-color="#862024"/></radialGradient><radialGradient id="paint1_radial_87_19189" cx="0" cy="0" r="1" gradientUnits="userSpaceOnUse" gradientTransform="translate(975.204 554.781) scale(44.6884)"><stop stop-color="#F69320"/><stop offset="1" stop-color="#754D25"/></radialGradient><radialGradient id="paint2_radial_87_19189" cx="0" cy="0" r="1" gradientUnits="userSpaceOnUse" gradientTransform="translate(731.59 571.491) rotate(-169.502) scale(12.523)"><stop stop-color="#F15B27"/><stop offset="0.1857" stop-color="#E35528"/><stop offset="0.4468" stop-color="#CB4829"/><stop offset="0.7512" stop-color="#A73328"/><stop offset="1" stop-color="#862024"/></radialGradient><radialGradient id="paint3_radial_87_19189" cx="0" cy="0" r="1" gradientUnits="userSpaceOnUse" gradientTransform="translate(683.76 557.265) rotate(-169.502) scale(43.5991)"><stop stop-color="#F69320"/><stop offset="1" stop-color="#754D25"/></radialGradient></defs>
<path d="M831.99 708.93C790.83 710.03 756.07 690.6 756.94 684.9C757.32 682.4 763 685.5 778.3 679.78C793.1 674.25 794.65 669.38 804.01 668.94C814.56 668.44 814.99 674.5 826.75 674.96C840.07 675.48 842.32 667.82 855.2 669.03C861.05 669.58 861.04 671.21 874.8 676.33C894 683.47 900.31 682.65 900.67 685.35C901.53 691.62 868.95 707.94 831.99 708.93Z" fill="#28181C"/><path d="M857.54 638.51C849.06 635.89 844.33 639.06 844.33 639.06C839.62 641.76 839.9 645.47 835.28 647.83C829.38 650.83 822.8 647.9 821.96 647.51C816.92 645.18 816.78 641.93 812.39 639.87C807.26 637.46 801.98 639.32 798.37 640.59C788.78 643.96 773.17 657.89 756.02 679.5C752.57 683.85 751.65 689.73 753.71 694.88C767.93 730.52 795.61 755.62 830.23 752.6C860.41 749.96 892.36 725.71 906.08 694.56C908.64 688.74 907.4 681.92 902.95 677.38C880.64 654.61 863.09 640.22 857.54 638.51ZM833.4 710.72C793.09 711.8 758.92 692.87 759.85 687.3C760.61 682.74 765.82 687.78 780.81 682.17C795.31 676.75 796.82 671.98 805.99 671.55C816.32 671.06 816.74 677 828.26 677.45C841.31 677.96 843.51 670.45 856.12 671.64C861.85 672.18 861.84 673.77 875.32 678.79C894.12 685.79 898.1 682.92 898.46 685.56C899.31 691.7 869.6 709.75 833.4 710.72Z" fill="url(#paint0_radial_87_19400)" stroke="#010101" stroke-width="4" stroke-miterlimit="10"/><path d="M830.71 697.44C808.78 697.5 813.53 690.29 795.73 695.17C777.08 700.29 776.61 734.18 776.59 738.2C776.54 747.52 779.54 756.78 785.54 774.91C793.84 799.99 797.99 812.52 805.13 817.75C820.78 829.21 847.28 826.83 861.27 813.62C866.6 808.58 869.46 800.02 875.16 782.88C881.67 763.35 884.92 753.58 885.07 740.2C885.17 731.6 886.99 698.49 869.93 694.05C850.31 688.94 853.87 697.37 830.71 697.44Z" fill="url(#paint1_radial_87_19400)" stroke="#010101" stroke-width="4" stroke-miterlimit="10"/><path d="M776.6 686.63C776.79 692.52 833.17 690.25 833.17 690.25C833.17 690.25 889.91 688.43 889.78 685.77C889.78 685.73 889.71 685.62 889.66 685.38C889.51 684.63 890.59 684.42 889.91 683.82C888.54 682.6 885.17 681.84 885.17 681.84C884.58 681.77 880.04 679.99 870.95 676.44C865.13 674.16 863.57 673.35 859.56 672.25C856.26 671.35 854.56 670.9 852.4 671.03C850.17 671.16 847.6 672.19 842.45 674.24C839.97 675.23 838.77 675.8 836.27 676.6C834.31 677.23 832.92 677.67 831.55 677.9C829.53 678.23 826.81 678.52 814.87 673.23C809.96 671.05 803.07 672.21 799.92 673.98C791.76 678.56 776.6 683.55 776.6 683.56V685.31C776.6 685.3 776.6 686.53 776.6 686.63Z" fill="url(#paint2_radial_87_19400)" stroke="#010101" stroke-width="4" stroke-miterlimit="10"/><defs><radialGradient id="paint0_radial_87_19400" cx="0" cy="0" r="1" gradientUnits="userSpaceOnUse" gradientTransform="translate(830.042 695.165) scale(66.3181 72.2105)"><stop stop-color="#F26757"/><stop offset="1" stop-color="#931F62"/></radialGradient><radialGradient id="paint1_radial_87_19400" cx="0" cy="0" r="1" gradientUnits="userSpaceOnUse" gradientTransform="translate(830.892 758.747) scale(60.6183)"><stop stop-color="#F5A3C1"/><stop offset="1" stop-color="#F16F9C"/></radialGradient><radialGradient id="paint2_radial_87_19400" cx="0" cy="0" r="1" gradientUnits="userSpaceOnUse" gradientTransform="translate(833.354 680.845) scale(41.7758 25.0936)"><stop offset="0.184" stop-color="#E5E5E5"/><stop offset="1" stop-color="#F2F2F2"/></radialGradient></defs>
<g opacity="0.7"><path opacity="0.7" d="M1106.31 589.69C1112.15 582.83 1115.05 573.57 1114.18 564.61C1113.97 562.47 1113.56 560.27 1114.1 558.19C1114.71 555.85 1116.42 553.99 1117.67 551.93C1120.93 546.58 1121.01 539.44 1117.87 534.02C1111.3 538.61 1109.09 547.16 1107.34 554.98C1105.09 546.42 1091.64 545.93 1087.96 537.88C1089.61 547.82 1094.47 557.19 1101.64 564.27C1098.52 566.02 1095.42 568.22 1093.9 571.46C1091.32 576.96 1094.04 583.36 1096.73 588.81C1097.03 589.42 1097.37 590.06 1097.96 590.39C1098.57 590.71 1099.3 590.63 1099.98 590.53C1102.23 590.19 1104.46 589.74 1106.66 589.19" fill="#2B332A"/></g><g opacity="0.7"><g opacity="0.7"><g opacity="0.7"><path opacity="0.7" d="M1024.06 596.18C1024.05 595.18 1023.14 594.51 1022.24 594.3C1020.95 594 1019.54 594.43 1018.44 595.1C1017.51 595.66 1016.55 596.47 1016.11 597.48C1015.66 598.51 1016.12 599.47 1016.87 600.21C1018.42 601.73 1020.34 603.02 1020.87 605.27C1021.08 606.15 1021.05 607.13 1020.66 607.96C1020.51 608.28 1020.29 608.63 1019.99 608.84C1019.94 608.88 1020.02 608.88 1020.04 608.87C1019.92 608.92 1019.75 608.89 1019.62 608.87C1018.68 608.74 1017.93 607.94 1017.73 607.04C1017.54 606.2 1017.75 604.97 1018.52 604.45C1018.92 604.18 1019.37 603.69 1018.78 603.35C1018.23 603.04 1017.21 603.31 1016.73 603.63C1015.07 604.73 1014.1 606.9 1015.22 608.75C1016.4 610.69 1019.19 610.83 1021.09 610.01C1023.14 609.12 1024.17 607.05 1023.83 604.87C1023.48 602.63 1021.68 600.94 1020.05 599.53C1019.57 599.12 1018.97 598.65 1018.84 598C1018.72 597.41 1019.06 596.91 1019.46 596.51C1019.67 596.31 1019.9 596.12 1020.14 595.96C1020.24 595.89 1020.38 595.85 1020.47 595.78C1020.59 595.68 1020.26 595.74 1020.35 595.82C1020.5 595.95 1020.72 595.99 1020.87 596.16C1021.09 596.4 1021.14 596.65 1021.15 596.97C1021.17 597.82 1024.07 597.28 1024.06 596.18Z" fill="#232620"/></g></g><g opacity="0.7"><g opacity="0.7"><path opacity="0.7" d="M1025.55 604.85C1026.51 603.74 1027.48 602.58 1028.08 601.22C1028.55 600.16 1029.03 598.42 1028.3 597.36C1027.35 595.98 1025.02 597.08 1024.09 597.95C1023.2 598.78 1022.68 600 1022.65 601.22C1022.62 602.82 1023.24 604.32 1023.94 605.73C1024.62 607.1 1025.67 607.83 1027.26 607.4C1028.78 606.99 1029.6 605.66 1030.36 604.39C1031.13 603.1 1031.77 601.74 1032.29 600.33C1033.46 597.16 1033.9 593.8 1033.67 590.44C1033.63 589.86 1032.53 589.92 1032.2 589.99C1031.65 590.1 1030.92 590.39 1030.76 590.99C1029.86 594.52 1029.91 598.29 1030.96 601.78C1031.18 602.51 1031.4 603.42 1031.86 604.05C1032.42 604.81 1033.4 604.83 1034.23 604.58C1035.3 604.25 1035.72 603.46 1036.24 602.54C1036.74 601.65 1037.25 600.75 1037.75 599.86C1038.09 599.26 1037.46 598.93 1036.93 598.9C1036.3 598.86 1035.36 599.12 1035.03 599.72C1034.65 600.39 1034.27 601.06 1033.9 601.73C1033.6 602.27 1033.31 603.09 1032.84 603.48C1033.16 603.31 1033.48 603.14 1033.8 602.97C1034.74 602.65 1034.79 603.35 1034.47 602.71C1034.35 602.47 1034.26 602.18 1034.17 601.93C1033.98 601.41 1033.82 600.88 1033.68 600.34C1033.41 599.31 1033.23 598.26 1033.13 597.2C1032.93 595.01 1033.14 592.81 1033.68 590.68C1032.71 590.86 1031.74 591.05 1030.78 591.23C1031.07 595.44 1030.14 599.75 1028.11 603.46C1027.88 603.89 1027.63 604.31 1027.37 604.72C1027.23 604.94 1027.08 605.17 1026.93 605.39C1026.85 605.5 1026.55 605.78 1026.52 605.92C1027.44 606.03 1027.74 605.98 1027.41 605.76C1027.32 605.71 1027.25 605.64 1027.2 605.55C1027.06 605.38 1026.95 605.18 1026.85 604.98C1026.59 604.47 1026.35 603.94 1026.14 603.4C1025.75 602.41 1025.45 601.34 1025.62 600.27C1025.68 599.88 1025.79 599.51 1025.98 599.17C1026.07 599.01 1026.17 598.85 1026.29 598.71C1026.78 598.19 1026.6 598.78 1025.86 598.56C1025.7 598.47 1025.55 598.39 1025.39 598.3C1026.13 598.97 1025.55 600.7 1025.19 601.44C1024.67 602.48 1023.94 603.4 1023.18 604.28C1022.05 605.58 1024.84 605.67 1025.55 604.85Z" fill="#232620"/></g></g><g opacity="0.7"><g opacity="0.7"><path opacity="0.7" d="M1041.53 590.66C1041.68 589.55 1041.78 588.29 1041.08 587.33C1040.43 586.44 1039.25 586.06 1038.19 586.23C1035.09 586.74 1035.86 590.15 1036.02 592.39C1036.49 598.86 1036.96 605.34 1037.43 611.81C1037.54 613.36 1040.47 612.94 1040.37 611.61C1040.03 606.95 1039.69 602.3 1039.36 597.64C1039.19 595.35 1039.03 593.06 1038.86 590.77C1038.82 590.2 1038.75 589.62 1038.74 589.05C1038.74 588.92 1038.84 588.16 1038.82 588.15C1038.17 588.23 1038.04 588.39 1038.43 588.63C1038.56 588.84 1038.65 589.06 1038.67 589.31C1038.76 589.81 1038.65 590.37 1038.58 590.87C1038.38 592.37 1041.35 592.01 1041.53 590.66Z" fill="#232620"/></g></g><g opacity="0.7"><g opacity="0.7"><path opacity="0.7" d="M1037.56 600.15C1037.57 600.07 1037.58 600 1037.59 599.92C1037.6 599.89 1037.61 599.86 1037.62 599.83C1037.57 599.95 1037.56 599.98 1037.59 599.92C1037.6 599.89 1037.62 599.87 1037.64 599.84C1037.71 599.75 1037.69 599.77 1037.57 599.92C1037.58 599.91 1037.6 599.89 1037.61 599.88C1037.71 599.79 1037.67 599.82 1037.5 599.96C1037.55 599.93 1037.62 599.89 1037.66 599.85C1037.43 600.05 1037.42 599.97 1037.58 599.9C1037.65 599.87 1037.71 599.84 1037.78 599.82C1038.04 599.71 1037.43 599.93 1037.68 599.86C1038.43 599.65 1039.18 599.51 1039.9 599.22C1041.54 598.56 1042.85 597.26 1043.47 595.6C1043.56 595.37 1043.33 595.12 1043.16 595.02C1042.89 594.87 1042.49 594.85 1042.2 594.88C1041.54 594.97 1040.81 595.25 1040.57 595.92C1040.53 596.02 1040.53 596.03 1040.57 595.93C1040.55 595.97 1040.54 596.01 1040.52 596.05C1040.48 596.13 1040.45 596.21 1040.41 596.28C1040.32 596.44 1040.23 596.6 1040.12 596.76C1040.07 596.83 1040.02 596.9 1039.97 596.97C1039.8 597.2 1040.13 596.81 1039.93 597.01C1039.81 597.13 1039.69 597.26 1039.57 597.38C1039.54 597.41 1039.26 597.62 1039.44 597.5C1039.61 597.38 1039.36 597.55 1039.33 597.58C1039.25 597.64 1039.16 597.69 1039.08 597.74C1038.98 597.8 1038.75 597.87 1039.1 597.73C1038.94 597.79 1038.78 597.87 1038.63 597.94C1039.03 597.75 1038.8 597.88 1038.68 597.92C1038.59 597.95 1038.5 597.97 1038.41 597.99C1037.7 598.16 1036.98 598.31 1036.33 598.63C1035.58 598.99 1034.74 599.59 1034.68 600.5C1034.63 601.16 1035.45 601.28 1035.96 601.21C1036.34 601.16 1036.74 601.05 1037.05 600.83C1037.24 600.66 1037.55 600.43 1037.56 600.15Z" fill="#232620"/></g></g><g opacity="0.7"><g opacity="0.7"><path opacity="0.7" d="M1049.09 595.23C1050.13 594.38 1051.16 593.53 1052.2 592.68C1052.33 592.57 1052.57 592.38 1052.52 592.17C1052.47 591.97 1052.15 591.9 1051.99 591.89C1051.63 591.86 1051.26 591.9 1050.92 592C1050.58 592.1 1050.21 592.21 1049.94 592.44C1048.9 593.29 1047.87 594.14 1046.83 594.99C1046.7 595.1 1046.46 595.29 1046.51 595.5C1046.56 595.7 1046.88 595.77 1047.04 595.78C1047.4 595.81 1047.77 595.77 1048.11 595.67C1048.44 595.58 1048.81 595.46 1049.09 595.23Z" fill="#232620"/></g></g><g opacity="0.7"><g opacity="0.7"><path opacity="0.7" d="M1056.57 581.7C1055.8 587.04 1056.08 592.5 1057.39 597.73C1057.64 598.73 1059.57 598.17 1060.02 597.65C1062.36 594.95 1063.73 591.54 1063.69 587.94C1063.68 586.6 1060.93 587.16 1060.78 588.25C1060.44 590.61 1061.01 594.38 1063.75 595.13C1066.75 595.96 1068.66 593.07 1069.19 590.56C1069.69 588.23 1069.09 584.67 1066.11 584.62C1064.65 584.6 1063.21 585.39 1062.34 586.54C1061.53 587.61 1061.3 588.99 1060.57 590.11C1060.19 590.7 1060.9 591.07 1061.39 591.11C1062.07 591.16 1062.91 590.87 1063.29 590.28C1063.75 589.56 1064.02 588.77 1064.35 587.99C1064.51 587.62 1064.67 587.22 1064.92 586.89C1065.01 586.77 1065.12 586.66 1065.23 586.56C1065.39 586.42 1065.55 586.47 1065.37 586.44C1065.09 586.39 1065.66 586.82 1065.75 586.94C1065.99 587.28 1066.14 587.69 1066.26 588.08C1066.49 588.91 1066.48 589.77 1066.33 590.61C1066.19 591.41 1065.93 592.23 1065.52 592.93C1065.44 593.06 1065.35 593.18 1065.27 593.3C1065.12 593.56 1065.06 593.36 1065.24 593.43C1065.32 593.42 1065.41 593.41 1065.49 593.39C1065.45 593.37 1065.41 593.36 1065.37 593.34C1065.33 593.28 1065.04 593.11 1064.97 593.04C1063.68 591.82 1063.46 589.58 1063.7 587.93C1062.73 588.03 1061.76 588.13 1060.79 588.24C1060.82 591.44 1059.77 594.59 1057.67 597.02C1058.55 596.99 1059.42 596.97 1060.3 596.94C1059.02 591.84 1058.75 586.58 1059.49 581.38C1059.67 580.12 1056.73 580.59 1056.57 581.7Z" fill="#232620"/></g></g><g opacity="0.7"><g opacity="0.7"><path opacity="0.7" d="M1069.34 583.16C1069.25 585.34 1069.93 587.43 1071.35 589.1C1071.79 589.61 1072.77 589.46 1073.29 589.22C1075.62 588.11 1076 585.64 1075.26 583.38C1074.89 582.25 1074.29 581.1 1074.27 579.89C1074.26 579.44 1074.34 578.95 1074.51 578.54C1074.58 578.39 1074.67 578.22 1074.75 578.12C1074.78 578.08 1074.97 577.9 1074.85 578C1075.05 577.83 1074.76 578.02 1075.03 577.91C1075.49 577.73 1076.19 577.12 1075.76 576.59C1075.32 576.05 1074.35 576.26 1073.82 576.47C1071.44 577.42 1070.99 580.01 1071.68 582.23C1072.04 583.39 1072.67 584.57 1072.71 585.8C1072.72 586.21 1072.67 586.68 1072.52 587.07C1072.46 587.24 1072.35 587.45 1072.26 587.57C1072.23 587.61 1072.13 587.71 1072.07 587.77C1072.2 587.65 1071.83 587.87 1072.06 587.77C1072.71 587.81 1073.35 587.85 1074 587.89C1072.81 586.49 1072.16 584.7 1072.23 582.86C1072.32 581.52 1069.39 582.04 1069.34 583.16Z" fill="#232620"/></g></g><g opacity="0.7"><g opacity="0.7"><path opacity="0.7" d="M1079.27 584.62C1080.49 583.06 1081.16 581.12 1081.2 579.15C1081.22 578.4 1081.29 577.1 1080.53 576.65C1080.03 576.35 1079.32 576.44 1078.78 576.54C1078.03 576.68 1077.15 576.95 1076.58 577.5C1075.9 578.15 1075.81 579.19 1075.78 580.09C1075.75 581.14 1075.92 582.19 1076.29 583.18C1076.62 584.07 1077.09 584.97 1077.8 585.62C1078.59 586.34 1079.67 586.47 1080.7 586.34C1082.14 586.17 1083.64 585.61 1084.7 584.6C1085.55 583.78 1086.12 582.74 1086.66 581.71C1086.9 581.26 1085.65 581.43 1085.51 581.46C1085.13 581.53 1084.75 581.64 1084.41 581.8C1084.2 581.9 1083.92 582.02 1083.81 582.23C1083.45 582.93 1083.08 583.63 1082.61 584.26C1082.4 584.54 1082.16 584.8 1081.89 585.03C1081.79 585.12 1081.68 585.19 1081.57 585.26C1081.36 585.39 1081.45 585.33 1081.5 585.3C1081.24 585.45 1081.53 585.29 1081.61 585.27C1081.7 585.25 1081.77 585.25 1081.85 585.23C1081.62 585.28 1081.72 585.23 1081.78 585.24C1081.65 585.23 1081.53 585.21 1081.41 585.18C1081.07 585.08 1080.76 584.85 1080.5 584.61C1079.95 584.09 1079.59 583.37 1079.31 582.68C1078.74 581.27 1078.44 579.48 1078.87 577.99C1078.96 577.67 1079.11 577.46 1079.3 577.21C1079.28 577.23 1077.81 577.64 1077.8 577.64C1077.82 577.67 1077.89 577.69 1077.9 577.71C1078.02 577.85 1078.09 577.95 1078.15 578.13C1078.37 578.82 1078.35 579.65 1078.3 580.36C1078.18 582.11 1077.51 583.79 1076.43 585.17C1076.12 585.57 1077.49 585.44 1077.58 585.42C1078.14 585.28 1078.89 585.11 1079.27 584.62Z" fill="#232620"/></g></g></g>
<path d="M615.31 451.96C696.09 459.31 771.35 491.33 836.28 541.96" stroke="black" stroke-width="20" stroke-miterlimit="10"/><path d="M1044.69 451.96C963.91 459.31 888.65 491.33 823.72 541.96" stroke="black" stroke-width="20" stroke-miterlimit="10"/><path d="M829.52 389.42C798.6 360.45 775.17 325.62 761.77 287.14C651.17 307.97 562.72 378.7 530.89 470.06C552.7 474.17 575.37 476.35 598.64 476.35C690.21 476.36 772.55 442.81 829.52 389.42Z" fill="#E0E0DF" stroke="#070707" stroke-width="4" stroke-miterlimit="10"/><path d="M897.27 287.14C883.87 325.62 860.43 360.44 829.52 389.42C886.49 442.81 968.83 476.36 1060.4 476.36C1083.67 476.36 1106.34 474.18 1128.15 470.07C1096.32 378.7 1007.87 307.97 897.27 287.14Z" fill="#010101" stroke="#070707" stroke-width="4" stroke-miterlimit="10"/><path d="M761.77 287.14C775.17 325.62 798.61 360.44 829.52 389.42C860.44 360.45 883.87 325.62 897.27 287.14C875.46 283.03 852.79 280.85 829.52 280.85C806.25 280.85 783.58 283.04 761.77 287.14Z" fill="#010101" stroke="#070707" stroke-width="4" stroke-miterlimit="10"/>
<path d="M629.96 434.39C620.1 421.14 585.43 393.41 534.12 366.65C428.43 311.54 419.45 367.68 405.3 373.7" stroke="#030303" stroke-width="6" stroke-miterlimit="10"/><path d="M1030.04 434.39C1039.9 421.14 1074.57 393.41 1125.88 366.65C1231.57 311.54 1240.55 367.68 1254.7 373.7" stroke="#030303" stroke-width="6" stroke-miterlimit="10"/><path d="M411.62 407.32C424.577 407.32 435.08 396.817 435.08 383.86C435.08 370.903 424.577 360.4 411.62 360.4C398.663 360.4 388.16 370.903 388.16 383.86C388.16 396.817 398.663 407.32 411.62 407.32Z" fill="#010101" stroke="#030303" stroke-miterlimit="10"/><path d="M1248.38 407.32C1261.34 407.32 1271.84 396.817 1271.84 383.86C1271.84 370.903 1261.34 360.4 1248.38 360.4C1235.42 360.4 1224.92 370.903 1224.92 383.86C1224.92 396.817 1235.42 407.32 1248.38 407.32Z" fill="#010101" stroke="#030303" stroke-miterlimit="10"/>
<path opacity="0.65" d="M972.44 654.09C1013.84 654.09 1047.4 620.529 1047.4 579.13C1047.4 537.731 1013.84 504.17 972.44 504.17C931.041 504.17 897.48 537.731 897.48 579.13C897.48 620.529 931.041 654.09 972.44 654.09Z" fill="#F7E3E3"/><path opacity="0.65" d="M688.41 645.65C729.809 645.65 763.37 612.089 763.37 570.69C763.37 529.291 729.809 495.73 688.41 495.73C647.011 495.73 613.45 529.291 613.45 570.69C613.45 612.089 647.011 645.65 688.41 645.65Z" fill="#F7E3E3"/><path d="M690.03 648.43C731.429 648.43 764.99 614.869 764.99 573.47C764.99 532.071 731.429 498.51 690.03 498.51C648.631 498.51 615.07 532.071 615.07 573.47C615.07 614.869 648.631 648.43 690.03 648.43Z" stroke="#4A73B8" stroke-width="12" stroke-miterlimit="10"/><path d="M972.44 652.01C1013.84 652.01 1047.4 618.449 1047.4 577.05C1047.4 535.651 1013.84 502.09 972.44 502.09C931.041 502.09 897.48 535.651 897.48 577.05C897.48 618.449 931.041 652.01 972.44 652.01Z" stroke="#4A73B8" stroke-width="12" stroke-miterlimit="10"/><path d="M766.08 577.35C785.12 556.59 859.95 541.25 897.67 582.43" stroke="#4A73B8" stroke-width="12" stroke-miterlimit="10"/><path d="M522.92 513.17C539.17 515.42 588.62 546.61 619.73 563.01" stroke="#4A73B8" stroke-width="12" stroke-miterlimit="10"/><path d="M1137.35 515.36C1119.45 517.7 1073.69 547.16 1042.58 563.56" stroke="#4A73B8" stroke-width="12" stroke-miterlimit="10"/></svg>