<svg width="1660" height="1660" viewBox="0 0 1660 1660" fill="none" xmlns="http://www.w3.org/2000/svg">
<path d="M869.34 603.24C866.07 598.19 896.14 568.09 934.13 548.16C962.3 533.38 985.76 528.95 1001.83 526.04C1025.12 521.84 1060.1 515.52 1066.88 528.35C1071.96 537.97 1059.43 555.04 1051 563.2C1048.19 565.92 1040.06 573.24 1022 578.94C996.32 587.05 986.89 580.39 948.98 585.29C933.12 587.34 919.71 590.45 914.27 591.72C882.79 599.1 871.21 606.13 869.34 603.24Z" fill="#ECECEC"/>
<path d="M921.78 555.54C921.91 557.73 922.16 559.93 922.57 562.14C924.43 572.19 929 581.06 935.37 588.15" fill="url(#paint0_radial_87_19159)"/>
<path d="M921.78 555.54C921.91 557.73 922.16 559.93 922.57 562.14C924.43 572.19 929 581.06 935.37 588.15" stroke="#010101" stroke-width="4" stroke-miterlimit="10"/>
<path d="M900.35 570.01C897.17 571.96 897.76 572.1 899.16 576.38C901.82 584.52 906.08 590.3 909.03 593.7C913 593.02 919.62 591.16 924.06 590.29C960.12 583.23 969 584.41 998.04 583.21C1000.68 578.76 1002.2 575.04 1003.23 565.12C1003.93 558.43 1003.19 552.9 1002.62 549.81C1001.83 545.54 1000.66 542.16 999.83 540.04C998.31 536.16 996.29 532.34 995.24 530.98C990.2 524.44 976.74 525.35 943.52 543C914.86 558.22 908.65 564.92 900.35 570.01Z" fill="url(#paint1_radial_87_19159)" stroke="#010101" stroke-width="4" stroke-miterlimit="10"/>
<path d="M926.98 548.8C925.05 553.53 924.42 557.53 925.41 562.89C928.18 577.83 942.75 587.85 957.69 585.08C972.63 582.31 982.65 567.74 979.88 552.8C978.54 545.55 974.41 539.46 968.81 535.43" fill="#010101"/>
<path d="M868.46 604.17C865.19 599.12 895.26 569.02 933.25 549.09C961.42 534.31 984.88 529.88 1000.95 526.97C1024.24 522.77 1059.22 516.45 1066 529.28C1071.08 538.9 1058.55 555.97 1050.12 564.13C1047.31 566.85 1039.18 574.17 1021.12 579.87C995.44 587.98 986.01 581.32 948.1 586.22C932.24 588.27 918.83 591.38 913.39 592.65C881.91 600.03 870.33 607.05 868.46 604.17Z" stroke="#010101" stroke-width="4" stroke-miterlimit="10"/>
<path d="M868.82 601.01C869.14 601.35 888.73 572.55 930.43 550.59C978.68 525.18 1040.35 517.45 1070.97 525.96C1073.48 526.66 1079.41 528.47 1087.25 527.73C1104.8 526.07 1118.29 512.86 1127.64 500.3C1108.56 506.12 1092.85 508.44 1082.28 509.5C1062.33 511.5 1054.25 509.63 1032.4 511.56C1032.4 511.56 1012.57 513.31 989.06 518.79C927.77 533.09 868.31 600.46 868.82 601.01Z" fill="#010101"/>
<path d="M1032.72 575.46C1036.2 574.22 1058.81 565.99 1070.74 553.25C1070.74 553.25 1077.71 545.81 1079.47 535.95C1079.62 535.14 1080.27 527.73 1079.47 526.15C1077.3 521.83 1066.56 521.58 1064.17 524.43C1062.44 526.49 1067 534 1066.32 540.43C1065.91 544.31 1064.53 547.08 1063.5 549.13C1061.08 553.96 1057.82 557.19 1052.81 561.34C1048.09 565.25 1041.42 570.27 1032.72 575.46Z" fill="#010101"/>
<path d="M628.77 576.22C625.29 574.98 602.68 566.75 590.75 554.01C590.75 554.01 583.78 546.57 582.02 536.71C581.87 535.9 581.22 528.49 582.02 526.91C584.19 522.59 594.93 522.34 597.32 525.19C599.05 527.25 594.49 534.76 595.17 541.19C595.58 545.07 596.96 547.84 597.99 549.89C600.41 554.72 603.67 557.95 608.68 562.1C613.4 566 620.07 571.03 628.77 576.22Z" fill="#010101"/>
<path d="M790.66 603.24C793.93 598.19 763.86 568.09 725.87 548.16C697.7 533.38 674.24 528.95 658.17 526.04C634.88 521.84 599.9 515.52 593.12 528.35C588.04 537.97 600.57 555.04 609 563.2C611.81 565.92 619.94 573.24 638 578.94C663.68 587.05 673.11 580.39 711.02 585.29C726.88 587.34 740.29 590.45 745.73 591.72C777.21 599.1 788.79 606.13 790.66 603.24Z" fill="#ECECEC"/>
<path d="M715.19 550.91C715.06 553.1 714.81 555.3 714.4 557.51C712.54 567.56 707.97 576.43 701.6 583.52" fill="url(#paint2_radial_87_19159)"/>
<path d="M715.19 550.91C715.06 553.1 714.81 555.3 714.4 557.51C712.54 567.56 707.97 576.43 701.6 583.52" stroke="#010101" stroke-width="4" stroke-miterlimit="10"/>
<path d="M612.02 528.25C613.47 524.55 615.48 520.63 616.61 519.19C619.77 515.15 630.47 512.01 673.9 529.23C684.59 533.47 698.97 535.41 715.43 543.8C715.43 544.75 715.26 549.85 715.21 550.8C715.21 550.83 715.05 552.62 715.05 552.66C714.3 562.92 710.49 573.28 701.61 584.69C696.1 585.03 691.78 584.06 687.27 584.28C657.6 585.76 633.96 581.3 610.69 565.38C609.74 563.72 609.67 563.25 608.63 553.34C607.93 546.65 608.67 541.12 609.24 538.03C610.02 533.75 611.19 530.37 612.02 528.25Z" fill="url(#paint3_radial_87_19159)" stroke="#010101" stroke-width="4" stroke-miterlimit="10"/>
<path d="M791.54 604.17C794.81 599.12 764.74 569.02 726.75 549.09C698.58 534.31 675.12 529.88 659.05 526.97C635.76 522.77 600.78 516.45 594 529.28C588.92 538.9 601.45 555.97 609.88 564.13C612.69 566.85 620.82 574.17 638.88 579.87C664.56 587.98 673.99 581.32 711.9 586.22C727.76 588.27 741.17 591.38 746.61 592.65C778.09 600.03 789.67 607.05 791.54 604.17Z" stroke="#010101" stroke-width="4" stroke-miterlimit="10"/>
<path d="M791.18 601.01C790.86 601.35 771.27 572.55 729.57 550.59C681.32 525.18 619.65 517.45 589.03 525.96C586.52 526.66 580.59 528.47 572.75 527.73C555.2 526.07 541.71 512.86 532.36 500.3C551.44 506.12 567.15 508.44 577.72 509.5C597.67 511.5 605.75 509.63 627.6 511.56C627.6 511.56 647.43 513.31 670.94 518.79C732.23 533.09 791.69 600.46 791.18 601.01Z" fill="#010101"/>
<path opacity="0.2" d="M789.7 602.81C788.38 598.04 780.3 589.88 771.51 582.12C764.1 575.58 758.16 571.3 750.93 566.19C736.33 555.86 724.29 550.46 721.71 548.89C713.49 543.9 695.2 537.55 670.06 531.48C670.06 531.48 655.74 527.71 632.28 524.72C627.72 524.14 623.66 523.82 619.43 523.69C614.23 523.53 611.16 523.6 607.64 524.17C603.42 524.85 600.98 525.55 598.28 527.38C595.89 529 595.77 530.23 595.27 531.35C607.24 533.06 621.84 535.18 638.34 537.61C675.04 543.02 682.99 544.41 694.52 547.91C708.19 552.06 718.41 556.61 728.62 561.16C742.61 567.39 752.66 571.86 764.44 580.05C776.22 588.26 783.88 596.33 789.7 602.81Z" fill="#40403C"/>
<path d="M980.35 559.6C985.779 559.6 990.18 555.199 990.18 549.77C990.18 544.341 985.779 539.94 980.35 539.94C974.921 539.94 970.52 544.341 970.52 549.77C970.52 555.199 974.921 559.6 980.35 559.6Z" fill="#E4E4E4"/>
<path d="M658.03 577.89C673.56 577.89 686.15 565.3 686.15 549.77C686.15 534.24 673.56 521.65 658.03 521.65C642.5 521.65 629.91 534.24 629.91 549.77C629.91 565.3 642.5 577.89 658.03 577.89Z" fill="#010101"/>
<path d="M684.84 571.07C690.269 571.07 694.67 566.669 694.67 561.24C694.67 555.811 690.269 551.41 684.84 551.41C679.411 551.41 675.01 555.811 675.01 561.24C675.01 566.669 679.411 571.07 684.84 571.07Z" fill="#E4E4E4"/>
<path opacity="0.2" d="M870.49 603.59C871.81 598.82 879.89 590.66 888.68 582.9C896.09 576.36 902.03 572.08 909.26 566.97C923.86 556.64 935.9 551.24 938.48 549.67C946.7 544.68 964.99 538.33 990.13 532.26C990.13 532.26 1004.45 528.49 1027.91 525.5C1032.47 524.92 1036.53 524.6 1040.76 524.47C1045.96 524.31 1049.03 524.38 1052.55 524.95C1056.77 525.63 1059.21 526.33 1061.91 528.16C1064.3 529.78 1064.42 531.01 1064.92 532.13C1052.95 533.84 1038.35 535.96 1021.85 538.39C985.15 543.8 977.2 545.19 965.67 548.69C952 552.84 941.78 557.39 931.57 561.94C917.58 568.17 907.53 572.64 895.75 580.83C883.97 589.04 876.31 597.11 870.49 603.59Z" fill="#40403C"/>
<defs>
<radialGradient id="paint0_radial_87_19159" cx="0" cy="0" r="1" gradientUnits="userSpaceOnUse" gradientTransform="translate(928.417 571.864) rotate(-10.4976) scale(12.523)">
<stop stop-color="#F15B27"/>
<stop offset="0.1857" stop-color="#E35528"/>
<stop offset="0.4468" stop-color="#CB4829"/>
<stop offset="0.7512" stop-color="#A73328"/>
<stop offset="1" stop-color="#862024"/>
</radialGradient>
<radialGradient id="paint1_radial_87_19159" cx="0" cy="0" r="1" gradientUnits="userSpaceOnUse" gradientTransform="translate(950.77 560.477) scale(44.0787)">
<stop stop-color="#6093A2"/>
<stop offset="0.0439" stop-color="#6196A3"/>
<stop offset="0.4627" stop-color="#72B1AD"/>
<stop offset="0.7956" stop-color="#7DC3B3"/>
<stop offset="0.9993" stop-color="#81CCB6"/>
</radialGradient>
<radialGradient id="paint2_radial_87_19159" cx="0" cy="0" r="1" gradientUnits="userSpaceOnUse" gradientTransform="translate(708.558 567.235) rotate(-169.502) scale(12.5231)">
<stop stop-color="#F15B27"/>
<stop offset="0.1857" stop-color="#E35528"/>
<stop offset="0.4468" stop-color="#CB4829"/>
<stop offset="0.7512" stop-color="#A73328"/>
<stop offset="1" stop-color="#862024"/>
</radialGradient>
<radialGradient id="paint3_radial_87_19159" cx="0" cy="0" r="1" gradientUnits="userSpaceOnUse" gradientTransform="translate(661.876 550.391) scale(44.9918)">
<stop stop-color="#6093A2"/>
<stop offset="0.0439" stop-color="#6196A3"/>
<stop offset="0.4627" stop-color="#72B1AD"/>
<stop offset="0.7956" stop-color="#7DC3B3"/>
<stop offset="0.9993" stop-color="#81CCB6"/>
</radialGradient>
</defs>
</svg>
