<svg width="1660" height="1660" viewBox="0 0 1660 1660" fill="none" xmlns="http://www.w3.org/2000/svg">
<path d="M628.64 576.22C625.16 574.98 602.55 566.75 590.62 554.01C590.62 554.01 583.65 546.57 581.89 536.71C581.74 535.9 581.09 528.49 581.89 526.91C584.06 522.59 594.8 522.34 597.19 525.19C598.92 527.25 594.36 534.76 595.04 541.19C595.45 545.07 596.83 547.84 597.86 549.89C600.28 554.72 603.54 557.95 608.55 562.1C613.27 566 619.94 571.03 628.64 576.22Z" fill="#010101"/>
<path d="M790.52 603.24C793.79 598.19 763.72 568.09 725.73 548.16C697.56 533.38 674.1 528.95 658.03 526.04C634.74 521.84 599.76 515.52 592.98 528.35C587.9 537.97 600.43 555.04 608.86 563.2C611.67 565.92 619.8 573.24 637.86 578.94C663.54 587.05 672.97 580.39 710.88 585.29C726.74 587.34 740.15 590.45 745.59 591.72C777.08 599.1 788.66 606.13 790.52 603.24Z" fill="#ECECEC"/>
<path d="M726.7 545.11C726.01 546.23 725.78 551.85 717.26 557.73C682.92 581.4 653.97 558.82 646.18 549.3C644 546.63 641.85 543.94 640.37 540.83C638.29 536.43 636.22 530.56 635.48 523.52C634.78 516.83 634.86 516.11 635.43 513.02" fill="url(#paint0_radial_87_19219)"/>
<path d="M726.7 545.11C726.01 546.23 725.78 551.85 717.26 557.73C682.92 581.4 653.97 558.82 646.18 549.3C644 546.63 641.85 543.94 640.37 540.83C638.29 536.43 636.22 530.56 635.48 523.52C634.78 516.83 634.86 516.11 635.43 513.02" stroke="#010101" stroke-width="4" stroke-miterlimit="10"/>
<path d="M708.6 533.7C705.83 548.64 692.83 555.64 677.89 552.87C662.95 550.1 652.93 535.53 655.7 520.59" fill="#010101"/>
<path d="M705.73 553.97C711.159 553.97 715.56 549.569 715.56 544.14C715.56 538.711 711.159 534.31 705.73 534.31C700.301 534.31 695.9 538.711 695.9 544.14C695.9 549.569 700.301 553.97 705.73 553.97Z" fill="#E4E4E4"/>
<path d="M791.4 604.17C794.67 599.12 764.6 569.02 726.61 549.09C698.44 534.31 674.98 529.88 658.91 526.97C635.62 522.77 600.64 516.45 593.86 529.28C588.78 538.9 601.31 555.97 609.74 564.13C612.55 566.85 620.68 574.17 638.74 579.87C664.42 587.98 673.85 581.32 711.76 586.22C727.62 588.27 741.03 591.38 746.47 592.65C777.95 600.03 789.53 607.05 791.4 604.17Z" stroke="#010101" stroke-width="4" stroke-miterlimit="10"/>
<path d="M791.04 601.01C790.72 601.35 771.13 572.55 729.43 550.59C681.18 525.18 619.51 517.45 588.89 525.96C586.38 526.66 580.45 528.47 572.61 527.73C555.06 526.07 541.57 512.86 532.22 500.3C551.3 506.12 567.01 508.44 577.58 509.5C597.53 511.5 605.61 509.63 627.46 511.56C627.46 511.56 647.29 513.31 670.8 518.79C732.1 533.09 791.56 600.46 791.04 601.01Z" fill="#010101"/>
<path opacity="0.2" d="M789.56 602.81C788.24 598.04 780.16 589.88 771.37 582.12C763.96 575.58 758.02 571.3 750.79 566.19C736.19 555.86 724.15 550.46 721.57 548.89C713.35 543.9 695.06 537.55 669.92 531.48C669.92 531.48 655.6 527.71 632.14 524.72C627.58 524.14 623.52 523.82 619.29 523.69C614.09 523.53 611.02 523.6 607.5 524.17C603.28 524.85 600.84 525.55 598.14 527.38C595.75 529 595.63 530.23 595.13 531.35C607.1 533.06 621.7 535.18 638.2 537.61C674.9 543.02 682.85 544.41 694.38 547.91C708.05 552.06 718.27 556.61 728.48 561.16C742.47 567.39 752.52 571.86 764.3 580.05C776.09 588.26 783.75 596.33 789.56 602.81Z" fill="#40403C"/>
<path d="M1031.36 576.22C1034.84 574.98 1057.45 566.75 1069.38 554.01C1069.38 554.01 1076.35 546.57 1078.11 536.71C1078.26 535.9 1078.91 528.49 1078.11 526.91C1075.94 522.59 1065.2 522.34 1062.81 525.19C1061.08 527.25 1065.64 534.76 1064.96 541.19C1064.55 545.07 1063.17 547.84 1062.14 549.89C1059.72 554.72 1056.46 557.95 1051.45 562.1C1046.73 566 1040.06 571.03 1031.36 576.22Z" fill="#010101"/>
<path d="M869.48 603.24C866.21 598.19 896.28 568.09 934.27 548.16C962.44 533.38 985.9 528.95 1001.97 526.04C1025.26 521.84 1060.24 515.52 1067.02 528.35C1072.1 537.97 1059.57 555.04 1051.14 563.2C1048.33 565.92 1040.2 573.24 1022.14 578.94C996.46 587.05 987.03 580.39 949.12 585.29C933.26 587.34 919.85 590.45 914.41 591.72C882.92 599.1 871.34 606.13 869.48 603.24Z" fill="#ECECEC"/>
<path d="M933.3 545.11C933.99 546.23 934.22 551.85 942.74 557.73C977.08 581.4 1006.03 558.82 1013.82 549.3C1016 546.63 1018.15 543.94 1019.63 540.83C1021.71 536.43 1023.78 530.56 1024.52 523.52C1025.22 516.83 1025.14 516.11 1024.57 513.02" fill="url(#paint1_radial_87_19219)"/>
<path d="M933.3 545.11C933.99 546.23 934.22 551.85 942.74 557.73C977.08 581.4 1006.03 558.82 1013.82 549.3C1016 546.63 1018.15 543.94 1019.63 540.83C1021.71 536.43 1023.78 530.56 1024.52 523.52C1025.22 516.83 1025.14 516.11 1024.57 513.02" stroke="#010101" stroke-width="4" stroke-miterlimit="10"/>
<path d="M951.4 533.7C954.17 548.64 967.17 555.64 982.11 552.87C997.05 550.1 1007.07 535.53 1004.3 520.59" fill="#010101"/>
<path d="M954.27 553.97C959.699 553.97 964.1 549.569 964.1 544.14C964.1 538.711 959.699 534.31 954.27 534.31C948.841 534.31 944.44 538.711 944.44 544.14C944.44 549.569 948.841 553.97 954.27 553.97Z" fill="#E4E4E4"/>
<path d="M868.6 604.17C865.33 599.12 895.4 569.02 933.39 549.09C961.56 534.31 985.02 529.88 1001.09 526.97C1024.38 522.77 1059.36 516.45 1066.14 529.28C1071.22 538.9 1058.69 555.97 1050.26 564.13C1047.45 566.85 1039.32 574.17 1021.26 579.87C995.58 587.98 986.15 581.32 948.24 586.22C932.38 588.27 918.97 591.38 913.53 592.65C882.05 600.03 870.47 607.05 868.6 604.17Z" stroke="#010101" stroke-width="4" stroke-miterlimit="10"/>
<path d="M868.96 601.01C869.28 601.35 888.87 572.55 930.57 550.59C978.82 525.18 1040.49 517.45 1071.11 525.96C1073.62 526.66 1079.55 528.47 1087.39 527.73C1104.94 526.07 1118.43 512.86 1127.78 500.3C1108.7 506.12 1092.99 508.44 1082.42 509.5C1062.47 511.5 1054.39 509.63 1032.54 511.56C1032.54 511.56 1012.71 513.31 989.2 518.79C927.9 533.09 868.44 600.46 868.96 601.01Z" fill="#010101"/>
<path opacity="0.2" d="M870.44 602.81C871.76 598.04 879.84 589.88 888.63 582.12C896.04 575.58 901.98 571.3 909.21 566.19C923.81 555.86 935.85 550.46 938.43 548.89C946.65 543.9 964.94 537.55 990.08 531.48C990.08 531.48 1004.4 527.71 1027.86 524.72C1032.42 524.14 1036.48 523.82 1040.71 523.69C1045.91 523.53 1048.98 523.6 1052.5 524.17C1056.72 524.85 1059.16 525.55 1061.86 527.38C1064.25 529 1064.37 530.23 1064.87 531.35C1052.9 533.06 1038.3 535.18 1021.8 537.61C985.1 543.02 977.15 544.41 965.62 547.91C951.95 552.06 941.73 556.61 931.52 561.16C917.53 567.39 907.48 571.86 895.7 580.05C883.91 588.26 876.25 596.33 870.44 602.81Z" fill="#40403C"/>
<defs>
<radialGradient id="paint0_radial_87_19219" cx="0" cy="0" r="1" gradientUnits="userSpaceOnUse" gradientTransform="translate(678.212 544.22) rotate(-169.502) scale(37.4751)">
<stop stop-color="#75A54F"/>
<stop offset="0.2783" stop-color="#74A450"/>
<stop offset="0.42" stop-color="#72A255"/>
<stop offset="0.531" stop-color="#6D9F5E"/>
<stop offset="0.6259" stop-color="#679B69"/>
<stop offset="0.7107" stop-color="#5F9577"/>
<stop offset="0.7881" stop-color="#558E84"/>
<stop offset="0.8601" stop-color="#478694"/>
<stop offset="0.9277" stop-color="#357DA5"/>
<stop offset="0.9895" stop-color="#1874B5"/>
<stop offset="1" stop-color="#0C72BA"/>
</radialGradient>
<radialGradient id="paint1_radial_87_19219" cx="0" cy="0" r="1" gradientUnits="userSpaceOnUse" gradientTransform="translate(982.043 543.994) rotate(-10.4975) scale(37.4751)">
<stop stop-color="#75A54F"/>
<stop offset="0.2783" stop-color="#74A450"/>
<stop offset="0.42" stop-color="#72A255"/>
<stop offset="0.531" stop-color="#6D9F5E"/>
<stop offset="0.6259" stop-color="#679B69"/>
<stop offset="0.7107" stop-color="#5F9577"/>
<stop offset="0.7881" stop-color="#558E84"/>
<stop offset="0.8601" stop-color="#478694"/>
<stop offset="0.9277" stop-color="#357DA5"/>
<stop offset="0.9895" stop-color="#1874B5"/>
<stop offset="1" stop-color="#0C72BA"/>
</radialGradient>
</defs>
</svg>
