<svg width="1660" height="1660" viewBox="0 0 1660 1660" fill="none" xmlns="http://www.w3.org/2000/svg">
<path d="M869.34 603.62C866.07 598.57 896.14 568.47 934.13 548.54C962.3 533.76 985.76 529.33 1001.83 526.42C1025.12 522.22 1060.1 515.9 1066.88 528.73C1071.96 538.35 1059.43 555.42 1051 563.58C1048.19 566.3 1040.06 573.62 1022 579.32C996.32 587.43 986.89 580.77 948.98 585.67C933.12 587.72 919.71 590.83 914.27 592.1C882.79 599.48 871.21 606.5 869.34 603.62Z" fill="#ECECEC"/>
<path d="M921.78 555.92C921.91 558.11 922.16 560.31 922.57 562.52C924.43 572.57 929 581.44 935.37 588.53" fill="url(#paint0_radial_87_19189)"/>
<path d="M921.78 555.92C921.91 558.11 922.16 560.31 922.57 562.52C924.43 572.57 929 581.44 935.37 588.53" stroke="#010101" stroke-width="4" stroke-miterlimit="10"/>
<path d="M1024.95 533.27C1023.5 529.57 1021.49 525.65 1020.36 524.21C1017.2 520.17 1006.5 517.03 963.07 534.25C952.38 538.49 939.59 546.71 923.14 555.11C923.14 556.06 921.71 554.87 921.77 555.83C921.77 555.86 922.09 557.56 922.1 557.59C922.85 567.85 926.5 577.13 935.37 588.53C939.34 587.85 943.62 587.18 948.11 586.6C985.96 581.71 995.41 588.34 1021 580.29C1023.64 575.84 1027.32 568.26 1028.35 558.35C1029.05 551.66 1028.31 546.13 1027.74 543.04C1026.95 538.76 1025.78 535.39 1024.95 533.27Z" fill="url(#paint1_radial_87_19189)" stroke="#010101" stroke-width="4" stroke-miterlimit="10"/>
<path d="M952.13 540.72C950.2 545.45 949.54 550.76 950.53 556.12C953.3 571.06 967.87 581.08 982.81 578.31C997.75 575.54 1007.77 560.97 1005 546.03C1003.66 538.78 999.53 532.69 993.93 528.66" fill="#010101"/>
<path d="M1005.47 559.22C1010.9 559.22 1015.3 554.819 1015.3 549.39C1015.3 543.961 1010.9 539.56 1005.47 539.56C1000.04 539.56 995.64 543.961 995.64 549.39C995.64 554.819 1000.04 559.22 1005.47 559.22Z" fill="#E4E4E4"/>
<path d="M868.46 604.55C865.19 599.5 895.26 569.4 933.25 549.47C961.42 534.69 984.88 530.26 1000.95 527.35C1024.24 523.15 1059.22 516.83 1066 529.66C1071.08 539.28 1058.55 556.35 1050.12 564.51C1047.31 567.23 1039.18 574.55 1021.12 580.25C995.44 588.36 986.01 581.7 948.1 586.6C932.24 588.65 918.83 591.76 913.39 593.03C881.91 600.41 870.33 607.43 868.46 604.55Z" stroke="#010101" stroke-width="4" stroke-miterlimit="10"/>
<path d="M868.82 601.39C869.14 601.73 888.73 572.93 930.43 550.97C978.68 525.56 1040.35 517.83 1070.97 526.34C1073.48 527.04 1079.41 528.85 1087.25 528.11C1104.8 526.45 1118.29 513.24 1127.64 500.68C1108.56 506.5 1092.85 508.82 1082.28 509.88C1062.33 511.88 1054.25 510.01 1032.4 511.94C1032.4 511.94 1012.57 513.69 989.06 519.17C927.77 533.47 868.31 600.84 868.82 601.39Z" fill="#010101"/>
<path d="M1032.72 575.84C1036.2 574.6 1058.81 566.37 1070.74 553.63C1070.74 553.63 1077.71 546.19 1079.47 536.33C1079.62 535.52 1080.27 528.11 1079.47 526.53C1077.3 522.21 1066.56 521.96 1064.17 524.81C1062.44 526.87 1067 534.38 1066.32 540.81C1065.91 544.69 1064.53 547.46 1063.5 549.51C1061.08 554.34 1057.82 557.57 1052.81 561.72C1048.09 565.63 1041.42 570.65 1032.72 575.84Z" fill="#010101"/>
<path d="M628.77 575.84C625.29 574.6 602.68 566.37 590.75 553.63C590.75 553.63 583.78 546.19 582.02 536.33C581.87 535.52 581.22 528.11 582.02 526.53C584.19 522.21 594.93 521.96 597.32 524.81C599.05 526.87 594.49 534.38 595.17 540.81C595.58 544.69 596.96 547.46 597.99 549.51C600.41 554.34 603.67 557.57 608.68 561.72C613.4 565.63 620.07 570.65 628.77 575.84Z" fill="#010101"/>
<path d="M790.66 602.86C793.93 597.81 763.86 567.71 725.87 547.78C697.7 533 674.24 528.57 658.17 525.66C634.88 521.46 599.9 515.14 593.12 527.97C588.04 537.59 600.57 554.66 609 562.82C611.81 565.54 619.94 572.86 638 578.56C663.68 586.67 673.11 580.01 711.02 584.91C726.88 586.96 740.29 590.07 745.73 591.34C777.21 598.73 788.79 605.75 790.66 602.86Z" fill="#ECECEC"/>
<path d="M738.22 555.16C738.09 557.35 737.84 559.55 737.43 561.76C735.57 571.81 731 580.68 724.63 587.77" fill="url(#paint2_radial_87_19189)"/>
<path d="M738.22 555.16C738.09 557.35 737.84 559.55 737.43 561.76C735.57 571.81 731 580.68 724.63 587.77" stroke="#010101" stroke-width="4" stroke-miterlimit="10"/>
<path d="M635.05 532.51C636.5 528.81 638.51 524.89 639.64 523.45C642.8 519.41 653.5 516.27 696.93 533.49C707.62 537.73 720.41 545.95 736.86 554.35C736.86 555.3 738.29 554.11 738.23 555.07C738.23 555.1 737.91 556.8 737.9 556.83C737.15 567.09 733.5 576.37 724.63 587.77C720.66 587.09 716.38 586.42 711.89 585.84C674.04 580.95 664.59 587.58 639 579.53C636.36 575.08 632.68 567.5 631.65 557.59C630.95 550.9 631.69 545.37 632.26 542.28C633.05 538.01 634.22 534.63 635.05 532.51Z" fill="url(#paint3_radial_87_19189)" stroke="#010101" stroke-width="4" stroke-miterlimit="10"/>
<path d="M707.87 539.96C709.8 544.7 710.46 550 709.47 555.36C706.7 570.3 692.13 580.32 677.19 577.55C662.25 574.78 652.23 560.21 655 545.27C656.34 538.02 660.47 531.93 666.07 527.9" fill="#010101"/>
<path d="M709.92 571.77C715.349 571.77 719.75 567.369 719.75 561.94C719.75 556.511 715.349 552.11 709.92 552.11C704.491 552.11 700.09 556.511 700.09 561.94C700.09 567.369 704.491 571.77 709.92 571.77Z" fill="#E4E4E4"/>
<path d="M791.54 603.79C794.81 598.74 764.74 568.64 726.75 548.71C698.58 533.93 675.12 529.5 659.05 526.59C635.76 522.39 600.78 516.07 594 528.9C588.92 538.52 601.45 555.59 609.88 563.75C612.69 566.47 620.82 573.79 638.88 579.49C664.56 587.6 673.99 580.94 711.9 585.84C727.76 587.89 741.17 591 746.61 592.27C778.09 599.65 789.67 606.67 791.54 603.79Z" stroke="#010101" stroke-width="4" stroke-miterlimit="10"/>
<path d="M791.18 600.63C790.86 600.97 771.27 572.17 729.57 550.21C681.32 524.8 619.65 517.07 589.03 525.58C586.52 526.28 580.59 528.09 572.75 527.35C555.2 525.69 541.71 512.48 532.36 499.92C551.44 505.74 567.15 508.06 577.72 509.12C597.67 511.12 605.75 509.25 627.6 511.18C627.6 511.18 647.43 512.93 670.94 518.41C732.23 532.71 791.69 600.08 791.18 600.63Z" fill="#010101"/>
<path opacity="0.2" d="M789.7 602.43C788.38 597.66 780.3 589.5 771.51 581.74C764.1 575.2 758.16 570.92 750.93 565.81C736.33 555.48 724.29 550.08 721.71 548.51C713.49 543.52 695.2 537.17 670.06 531.1C670.06 531.1 655.74 527.33 632.28 524.34C627.72 523.76 623.66 523.44 619.43 523.31C614.23 523.15 611.16 523.22 607.64 523.79C603.42 524.47 600.98 525.17 598.28 527C595.89 528.62 595.77 529.85 595.27 530.97C607.24 532.68 621.84 534.8 638.34 537.23C675.04 542.64 682.99 544.03 694.52 547.53C708.19 551.68 718.41 556.23 728.62 560.78C742.61 567.01 752.66 571.48 764.44 579.67C776.22 587.88 783.88 595.95 789.7 602.43Z" fill="#40403C"/>
<path opacity="0.2" d="M870.49 603.21C871.81 598.44 879.89 590.28 888.68 582.52C896.09 575.98 902.03 571.7 909.26 566.59C923.86 556.26 935.9 550.86 938.48 549.29C946.7 544.3 964.99 537.95 990.13 531.88C990.13 531.88 1004.45 528.11 1027.91 525.12C1032.47 524.54 1036.53 524.22 1040.76 524.09C1045.96 523.93 1049.03 524 1052.55 524.57C1056.77 525.25 1059.21 525.95 1061.91 527.78C1064.3 529.4 1064.42 530.63 1064.92 531.75C1052.95 533.46 1038.35 535.58 1021.85 538.01C985.15 543.42 977.2 544.81 965.67 548.31C952 552.46 941.78 557.01 931.57 561.56C917.58 567.79 907.53 572.26 895.75 580.45C883.97 588.66 876.31 596.73 870.49 603.21Z" fill="#40403C"/>
<defs>
<radialGradient id="paint0_radial_87_19189" cx="0" cy="0" r="1" gradientUnits="userSpaceOnUse" gradientTransform="translate(928.417 572.243) rotate(-10.4976) scale(12.523)">
<stop stop-color="#F15B27"/>
<stop offset="0.1857" stop-color="#E35528"/>
<stop offset="0.4468" stop-color="#CB4829"/>
<stop offset="0.7512" stop-color="#A73328"/>
<stop offset="1" stop-color="#862024"/>
</radialGradient>
<radialGradient id="paint1_radial_87_19189" cx="0" cy="0" r="1" gradientUnits="userSpaceOnUse" gradientTransform="translate(975.204 554.781) scale(44.6884)">
<stop stop-color="#F69320"/>
<stop offset="1" stop-color="#754D25"/>
</radialGradient>
<radialGradient id="paint2_radial_87_19189" cx="0" cy="0" r="1" gradientUnits="userSpaceOnUse" gradientTransform="translate(731.59 571.491) rotate(-169.502) scale(12.523)">
<stop stop-color="#F15B27"/>
<stop offset="0.1857" stop-color="#E35528"/>
<stop offset="0.4468" stop-color="#CB4829"/>
<stop offset="0.7512" stop-color="#A73328"/>
<stop offset="1" stop-color="#862024"/>
</radialGradient>
<radialGradient id="paint3_radial_87_19189" cx="0" cy="0" r="1" gradientUnits="userSpaceOnUse" gradientTransform="translate(683.76 557.265) rotate(-169.502) scale(43.5991)">
<stop stop-color="#F69320"/>
<stop offset="1" stop-color="#754D25"/>
</radialGradient>
</defs>
</svg>
