<svg width="1660" height="1660" viewBox="0 0 1660 1660" fill="none" xmlns="http://www.w3.org/2000/svg">
<path d="M563.48 196.1C576.437 196.1 586.94 185.597 586.94 172.64C586.94 159.683 576.437 149.18 563.48 149.18C550.523 149.18 540.02 159.683 540.02 172.64C540.02 185.597 550.523 196.1 563.48 196.1Z" fill="#010101" stroke="#030303" stroke-miterlimit="10"/>
<path d="M755.27 288.58C750.02 272.92 725.7 235.78 685.25 194.39C601.95 109.14 575.95 159.7 560.63 161.02" stroke="#030303" stroke-width="6" stroke-miterlimit="10"/>
<path d="M1096.52 196.1C1109.48 196.1 1119.98 185.597 1119.98 172.64C1119.98 159.683 1109.48 149.18 1096.52 149.18C1083.56 149.18 1073.06 159.683 1073.06 172.64C1073.06 185.597 1083.56 196.1 1096.52 196.1Z" fill="#010101" stroke="#030303" stroke-miterlimit="10"/>
<path d="M904.73 288.58C909.98 272.92 934.3 235.78 974.75 194.39C1058.05 109.14 1084.05 159.7 1099.37 161.02" stroke="#030303" stroke-width="6" stroke-miterlimit="10"/>
</svg>
