<svg width="1660" height="1660" viewBox="0 0 1660 1660" fill="none" xmlns="http://www.w3.org/2000/svg">
<path d="M629.96 434.39C620.1 421.14 585.43 393.41 534.12 366.65C428.43 311.54 419.45 367.68 405.3 373.7" stroke="#030303" stroke-width="6" stroke-miterlimit="10"/>
<path d="M1030.04 434.39C1039.9 421.14 1074.57 393.41 1125.88 366.65C1231.57 311.54 1240.55 367.68 1254.7 373.7" stroke="#030303" stroke-width="6" stroke-miterlimit="10"/>
<path d="M411.62 407.32C424.577 407.32 435.08 396.817 435.08 383.86C435.08 370.903 424.577 360.4 411.62 360.4C398.663 360.4 388.16 370.903 388.16 383.86C388.16 396.817 398.663 407.32 411.62 407.32Z" fill="#010101" stroke="#030303" stroke-miterlimit="10"/>
<path d="M1248.38 407.32C1261.34 407.32 1271.84 396.817 1271.84 383.86C1271.84 370.903 1261.34 360.4 1248.38 360.4C1235.42 360.4 1224.92 370.903 1224.92 383.86C1224.92 396.817 1235.42 407.32 1248.38 407.32Z" fill="#010101" stroke="#030303" stroke-miterlimit="10"/>
</svg>
