<svg width="1660" height="1660" viewBox="0 0 1660 1660" fill="none" xmlns="http://www.w3.org/2000/svg">
<path d="M637.91 1240.19C632.79 1238.64 632.92 1219.05 637.91 1203.36C643.43 1185.99 656.26 1169.13 661.45 1171.09C666.68 1173.07 661.06 1194.09 655.56 1209.71C650.43 1224.28 643.15 1241.78 637.91 1240.19Z" fill="#13161B" stroke="#010101" stroke-width="4" stroke-miterlimit="10"/>
<path d="M1031 1226.88C1035.92 1224.8 1033.72 1205.33 1027.11 1190.26C1019.79 1173.58 1005.25 1158.16 1000.29 1160.66C995.3 1163.18 1003.11 1183.49 1010.23 1198.44C1016.87 1212.38 1025.96 1229.01 1031 1226.88Z" fill="#13161B" stroke="#010101" stroke-width="4" stroke-miterlimit="10"/>
<path d="M535.29 1018.15C549.1 1052.33 558.55 1102.06 599.53 1150.91C644.84 1204.91 707.37 1236.65 740.72 1256.24" stroke="#010101" stroke-width="14" stroke-miterlimit="10"/>
<path d="M1093.36 912.1C1093.37 948.96 1100.2 1012.65 1080.52 1073.3C1058.77 1140.35 1012.7 1193.22 989.13 1223.89" stroke="#010101" stroke-width="14" stroke-miterlimit="10"/>
<path d="M993.53 1226.16C987.02 1253.62 973.79 1271.81 960.73 1271.77C953.23 1271.75 944.1 1265.72 943.85 1259.77C943.5 1251.49 960.56 1247.54 959.8 1240.41C958.99 1232.77 941.33 1232.37 942.09 1229.46C945.28 1217.28 952.03 1225 969.15 1223.26C975.72 1222.59 979.15 1221.29 985.56 1219.58C989.44 1218.55 991.93 1223.75 993.53 1226.16Z" fill="#010101" stroke="#010101" stroke-width="4" stroke-miterlimit="10"/>
<path d="M615.05 856.47C598.4 873.27 591.86 882.51 561.86 920.74C536.73 952.76 534.79 956.51 531.04 965.92C526.9 976.3 524.6 989.29 526.34 1006.14C529.04 1032.23 509.35 1034.08 523.89 1079.49C526.64 1088.09 515.61 1094.26 521.31 1125.44C528.38 1164.11 590.96 1237.39 637.99 1240.8C645.06 1241.31 632.86 1224.67 640.98 1204.4C649.07 1184.22 664.71 1184.78 667.93 1171.21C670.43 1160.67 664.88 1137.08 661.37 1125.45C662.52 1128.66 667.96 1143.65 669.22 1147.43C674.91 1164.49 664.53 1181.56 664.06 1211.81C663.68 1236.24 670.92 1248.72 670.92 1258.85C670.92 1266.13 666.87 1270.81 665.92 1279.49C664.94 1288.41 664.64 1296.65 670.07 1302.35C681.68 1314.53 705.94 1310.4 744.33 1305C765.95 1301.96 798.04 1297.68 838.28 1293.19C838.27 1293.12 838.25 1293.05 838.24 1292.98C838.22 1292.84 838.18 1292.63 838.13 1292.36C926.15 1308.51 994.17 1308.05 1003.07 1290.99C1009.19 1279.26 1007.74 1272.55 1007.74 1272.55C1006.53 1263.54 1003.32 1259.95 1002.18 1253.56C999.11 1236.31 1003.29 1224.86 1003.11 1200.28C1002.91 1173.59 989.02 1164.31 993.72 1136.28C994.73 1130.27 1000.19 1113.56 1000.11 1113.93C997.37 1125.73 993.38 1149.57 996.57 1159.96C1000.68 1173.33 1016.26 1171.96 1025.66 1191.68C1034.2 1209.6 1025.95 1225.44 1029.5 1227.64C1030.07 1227.99 1030.71 1227.87 1031.05 1227.87C1047.42 1227.87 1129.67 1159.25 1140.5 1103.23C1143.3 1088.74 1137.95 1073.21 1137.95 1073.21C1136.29 1068.92 1135.73 1069.11 1135.15 1066.38C1133.24 1057.48 1138.93 1054.23 1140.98 1039.96C1141.83 1034.02 1141.5 1030.04 1141.09 1027.43C1140.89 1026.14 1140.51 1024.52 1139.75 1021.27C1138.48 1015.86 1137.85 1013.15 1137.03 1010.96C1134.65 1004.58 1132.98 1005.36 1132.24 1001.4C1131.5 997.4 1133.16 996.33 1133.52 989.66C1133.66 986.96 1133.49 985.07 1133.13 981.28C1132.34 972.83 1131.85 967.63 1129.37 961.05C1128.77 959.45 1126.64 954.04 1122.29 947.87C1119.23 943.53 1116.15 940.35 1114.5 938.65C1112.66 936.76 1111 935.23 1109.72 934.1C1109.79 930.98 1109.61 926.56 1108.42 921.42C1107.36 916.84 1104.14 906.06 1091.88 892.97C1078.99 879.21 1067.78 877.57 1028.11 847.28C1018.83 840.19 1004.72 832.05 1000.76 830.47C978.99 821.8 969.06 817.97 959.24 816.84C944.09 815.1 929.58 812.66 917.7 819.47C905.05 826.72 906.61 837.61 897.29 854.98C888.01 872.27 865.09 901.29 841.34 901.17C825.9 901.09 810.24 883.64 779.56 848.73C758.62 824.91 755.42 817.74 749.64 813.41C749.22 813.09 746.69 811.57 744.14 810.31C715.73 796.26 666.11 811.41 630.02 842.04C625.71 845.7 622.16 849.29 615.05 856.47ZM642.02 1095.65C634.12 1087.78 640.82 1085.81 643.36 1055.61C644.98 1036.34 642.86 1018.07 645.31 1018.12C648.32 1018.17 655.7 1046.16 654.16 1057.71C649.44 1093.02 653.03 1103.02 661.37 1125.44C656.17 1113.41 649.04 1102.64 642.02 1095.65ZM1017.48 1083.18C1010.93 1090.53 1004.52 1101.64 1000.12 1113.94C1006.98 1091.11 1009.9 1080.95 1002.86 1045.94C1000.56 1034.49 1006.09 1006.17 1009.09 1005.95C1011.53 1005.78 1010.61 1024.12 1013.5 1043.28C1018.03 1073.29 1024.85 1074.9 1017.48 1083.18Z" fill="url(#paint0_radial_87_18432)" stroke="#010101" stroke-width="4" stroke-miterlimit="10"/>
<path d="M650.72 1008.4C645.54 1007.86 649.96 969.3 636.49 927.49C634.84 922.36 637.15 922.81 628 897.14C622.46 881.61 606.72 865.97 613.06 859.52C630.06 842.21 642.08 834.1 652.38 827.93C669.05 817.94 706.51 797.99 736.54 808.57C740.5 809.96 740.39 811.47 742.44 812.93C752.83 820.37 753.74 834.21 779.11 861.34C802.88 886.76 815.86 900.64 831.76 900.27C864.45 899.51 914.46 875.73 922.7 832.35C929.33 797.47 992.35 826.42 1008.26 835.5C1014.24 838.91 1026.34 847.5 1041.53 858.94C1049.03 864.59 1057.55 869.18 1061.68 872.67C1057.68 877.22 1051.32 884.32 1045.68 892.12C1040.62 899.12 1029.87 915.46 1021.74 935.05C1011.56 959.61 1009.2 988.58 1009.09 1005.94C993.14 989.9 958.57 967.18 922.2 950.37C905.14 942.48 878.81 938.99 833.49 936.24C818.2 935.31 801.68 937.1 764.72 940.9C749.34 945.79 707.48 952.03 679.01 977.18C660.72 993.35 655.19 1008.87 650.72 1008.4Z" fill="url(#paint1_radial_87_18432)"/>
<path d="M621.36 1234.98C620.13 1228.47 616.03 1211.8 624.78 1193.81C636.43 1169.85 659.01 1162.53 667.7 1159.29C667.7 1169.26 666.05 1175.12 661.62 1178.89C648.64 1189.97 646.54 1191.01 641.83 1199.27C636.63 1208.42 637.18 1215.64 638.81 1239.25C633.62 1238.66 627.09 1237.5 621.36 1234.98Z" fill="url(#paint2_radial_87_18432)"/>
<path d="M1048.42 1217.76C1049.39 1211.47 1052.61 1193.42 1043.61 1176.33C1031.63 1153.57 1005.81 1145.63 996.21 1143.27C995.45 1155.5 998.34 1163.36 1002.71 1166.88C1015.56 1177.21 1020.29 1179.45 1025.08 1187.29C1030.38 1195.96 1033.11 1202.65 1030.43 1225.96C1033.46 1226.67 1042.68 1222.13 1048.42 1217.76Z" fill="url(#paint3_radial_87_18432)"/>
<path d="M942.36 896.32C944.21 896.2 946.09 896.25 947.93 896.51C948.23 896.55 948.71 896.5 948.93 896.28C949.16 896.04 948.8 895.93 948.61 895.91C946.66 895.64 944.64 895.58 942.68 895.71C942.45 895.73 941.89 895.75 941.79 896.03C941.69 896.3 942.21 896.33 942.36 896.32Z" fill="white"/>
<path d="M944.5 896.05C944.5 897.21 944.53 898.37 944.57 899.52C944.59 900.09 944.62 900.66 944.65 901.22C944.68 901.71 944.65 902.25 944.86 902.71C945.03 903.1 946.49 903.04 946.31 902.63C946.11 902.18 946.16 901.59 946.14 901.11C946.11 900.56 946.09 900.02 946.07 899.47C946.03 898.36 946.01 897.24 946 896.13C946 895.69 944.5 895.64 944.5 896.05Z" fill="white"/>
<path d="M949.65 895.74C949.62 898.28 949.65 900.82 949.72 903.36C949.73 903.74 951.21 903.57 951.2 903.1C951.13 900.56 951.11 898.02 951.13 895.48C951.13 895.11 949.65 895.26 949.65 895.74Z" fill="white"/>
<path d="M951.13 899.55C952.52 898.98 953.95 898.66 955.43 898.59C955.59 898.58 956.1 898.49 955.96 898.23C955.83 897.97 955.27 897.99 955.04 898C953.34 898.08 951.65 898.45 950.08 899.1C950 899.13 949.86 899.2 949.86 899.31C949.86 899.42 950 899.49 950.07 899.53C950.37 899.66 950.83 899.68 951.13 899.55Z" fill="white"/>
<path d="M955.26 896.1C955.26 898.21 955.34 900.32 955.52 902.42C955.55 902.83 957.05 902.68 957.01 902.25C956.83 900.15 956.75 898.04 956.75 895.93C956.75 895.54 955.26 895.64 955.26 896.1Z" fill="white"/>
<path d="M958.35 895.76C958.43 897.82 958.61 899.87 958.9 901.9C958.97 902.42 958.98 902.76 959.51 902.99C959.98 903.19 960.51 903.15 961.01 903.18C962.02 903.25 963.02 903.42 964 903.66C964.17 903.7 964.74 903.8 964.8 903.54C964.86 903.28 964.29 903.12 964.14 903.08C963.39 902.89 962.64 902.75 961.88 902.64C961.51 902.59 961.13 902.55 960.76 902.52C960.56 902.5 960.36 902.49 960.16 902.48C960.07 902.48 959.97 902.47 959.88 902.47C959.58 902.45 959.69 902.48 960.22 902.57C960.32 902.65 960.42 902.74 960.52 902.82C960.39 902.61 960.4 902.3 960.36 902.06C960.32 901.77 960.28 901.49 960.25 901.2C960.18 900.63 960.11 900.06 960.06 899.48C959.95 898.35 959.88 897.22 959.83 896.08C959.79 895.62 958.34 895.43 958.35 895.76Z" fill="white"/>
<path d="M960.11 899.3C961.35 899.29 962.59 899.28 963.83 899.27C963.97 899.27 964.52 899.26 964.4 898.98C964.29 898.72 963.75 898.64 963.52 898.64C962.28 898.65 961.04 898.66 959.8 898.67C959.66 898.67 959.11 898.68 959.23 898.96C959.33 899.22 959.88 899.3 960.11 899.3Z" fill="white"/>
<path d="M960.11 896.33C961.44 896.27 962.92 896.31 964.18 896.44C964.36 896.46 964.91 896.53 964.97 896.25C965.02 895.99 964.41 895.86 964.27 895.85C962.66 895.68 961.06 895.64 959.44 895.71C959.25 895.72 958.88 895.85 959.11 896.08C959.35 896.31 959.8 896.35 960.11 896.33Z" fill="white"/>
<path d="M946.64 905.65C947.15 907.91 947.5 910.18 947.7 912.48C947.74 912.93 949.23 912.93 949.2 912.54C949 910.24 948.65 907.96 948.14 905.71C948.03 905.24 946.56 905.32 946.64 905.65Z" fill="white"/>
<path d="M945.22 906.64C946.98 905.96 948.86 905.62 950.75 905.65C950.95 905.65 951.31 905.58 951.11 905.32C950.92 905.07 950.44 904.96 950.14 904.96C948.06 904.93 945.98 905.27 944.04 906.03C943.73 906.15 944.03 906.41 944.2 906.5C944.47 906.63 944.91 906.76 945.22 906.64Z" fill="white"/>
<path d="M952.95 905.8C954.51 905.64 956.06 905.58 957.65 905.62C957.89 905.63 958.43 905.57 958.54 905.31C958.66 905.03 958.11 905.01 957.98 905C956.28 904.95 954.58 905.02 952.89 905.2C952.71 905.22 952.16 905.31 952.18 905.58C952.19 905.85 952.8 905.81 952.95 905.8Z" fill="white"/>
<path d="M954.91 905.57C955.07 907.81 955.23 910.06 955.39 912.3C955.42 912.74 956.92 912.68 956.89 912.27C956.73 910.03 956.57 907.78 956.41 905.54C956.38 905.11 954.88 905.16 954.91 905.57Z" fill="white"/>
<path d="M959.93 905.31C960.32 907.35 960.71 909.39 961.11 911.43C961.19 911.84 961.23 912.19 961.68 912.31C962.15 912.44 962.72 912.36 963.2 912.36C964.24 912.36 965.28 912.36 966.32 912.36C966.55 912.36 967.11 912.3 967.21 912.04C967.31 911.76 966.79 911.74 966.64 911.74C965.93 911.74 965.22 911.74 964.51 911.74C964.16 911.74 963.8 911.74 963.45 911.74C963.27 911.74 963.1 911.74 962.92 911.74C962.83 911.74 962.74 911.74 962.65 911.74C962.5 911.75 962.47 911.74 962.58 911.73C962.65 911.77 962.72 911.8 962.79 911.84C962.6 911.7 962.61 911.4 962.57 911.19C962.52 910.93 962.47 910.66 962.42 910.4C962.31 909.81 962.19 909.22 962.08 908.62C961.86 907.46 961.63 906.3 961.41 905.13C961.33 904.69 959.85 904.91 959.93 905.31Z" fill="white"/>
<path d="M938.72 916.09C939.28 918.17 939.54 920.33 939.47 922.48C939.45 922.96 940.89 923.26 940.9 922.93C940.97 920.72 940.72 918.51 940.14 916.37C940.03 915.95 938.61 915.69 938.72 916.09Z" fill="white"/>
<path d="M940.03 916.08C941.53 915.78 943.06 915.62 944.6 915.63C944.75 915.63 945.28 915.64 945.18 915.36C945.09 915.1 944.52 915 944.31 915C942.55 914.99 940.8 915.14 939.07 915.49C938.99 915.51 938.84 915.56 938.82 915.66C938.8 915.77 938.93 915.86 939 915.91C939.27 916.08 939.7 916.15 940.03 916.08Z" fill="white"/>
<path d="M940.48 919.08C941.87 918.85 943.27 918.62 944.66 918.39C944.8 918.37 945.33 918.25 945.17 918C945.01 917.76 944.47 917.79 944.24 917.83C942.85 918.06 941.45 918.29 940.06 918.52C939.92 918.54 939.39 918.66 939.55 918.91C939.71 919.15 940.25 919.12 940.48 919.08Z" fill="white"/>
<path d="M947.84 914.75C947.02 917.24 946.17 919.71 945.27 922.17C945.13 922.54 946.57 922.98 946.72 922.55C947.61 920.09 948.47 917.61 949.29 915.13C949.41 914.75 947.98 914.33 947.84 914.75Z" fill="white"/>
<path d="M948.28 915.5C950.01 917.78 950.03 920.82 951.34 923.3C951.52 923.65 952.97 923.34 952.74 922.91C951.42 920.42 951.42 917.41 949.68 915.11C949.43 914.77 948.02 915.15 948.28 915.5Z" fill="white"/>
<path d="M947.83 921.27C948.95 920.97 950.07 920.67 951.18 920.37C951.32 920.33 951.84 920.18 951.66 919.94C951.48 919.72 950.94 919.78 950.72 919.84C949.6 920.14 948.48 920.44 947.37 920.74C947.23 920.78 946.71 920.93 946.89 921.17C947.06 921.39 947.6 921.33 947.83 921.27Z" fill="white"/>
<path d="M960.13 917.38C959.89 916.23 958.26 915.78 957.27 915.66C956.06 915.5 954.74 915.68 953.78 916.49C953.4 916.81 953.1 917.23 952.95 917.71C952.76 918.29 952.86 918.92 953.07 919.49C953.49 920.63 954.28 921.64 955.41 922.15C956.12 922.47 956.94 922.59 957.71 922.48C958.44 922.38 959.1 922.08 959.74 921.74C960.03 921.59 959.71 921.36 959.54 921.29C959.26 921.17 958.8 921.09 958.51 921.24C957.88 921.57 957.02 922.08 956.32 921.78C955.52 921.43 955 920.62 954.65 919.85C954.27 919.02 954.18 918.1 954.74 917.34C955.22 916.69 955.99 916.28 956.79 916.25C957.53 916.22 958.49 916.52 958.66 917.33C958.76 917.72 960.23 917.85 960.13 917.38Z" fill="white"/>
<path d="M961.57 915.95C961.68 916.99 961.79 918.04 961.89 919.08C962 920.1 962.04 921.16 962.21 922.17C962.39 923.25 963.94 922.96 964.71 922.87C965.74 922.75 966.75 922.58 967.76 922.37C967.96 922.33 968.28 922.18 968.04 921.97C967.81 921.76 967.3 921.77 967.02 921.83C966.21 922 965.4 922.14 964.58 922.25C964.37 922.28 964.16 922.3 963.95 922.33C963.84 922.34 963.74 922.35 963.63 922.36C963.59 922.36 963.55 922.37 963.52 922.37C963.37 922.38 963.45 922.4 963.77 922.42C963.78 922.4 963.7 922.21 963.7 922.18C963.69 922.08 963.68 921.97 963.67 921.87C963.65 921.65 963.62 921.44 963.6 921.22C963.42 919.48 963.24 917.74 963.06 916.01C963.02 915.54 961.53 915.56 961.57 915.95Z" fill="white"/>
<path d="M963.71 919.05C964.28 918.85 964.85 918.67 965.43 918.5C965.71 918.42 966 918.34 966.29 918.26C966.43 918.22 966.58 918.18 966.72 918.15C966.79 918.13 966.85 918.12 966.92 918.1C966.96 918.09 967.01 918.08 967.05 918.07C966.98 918.09 966.99 918.08 967.07 918.06C967.21 918.03 967.74 917.9 967.56 917.65C967.4 917.42 966.85 917.46 966.62 917.51C965.36 917.82 964.12 918.17 962.9 918.6C962.73 918.66 962.38 918.85 962.66 919.03C962.94 919.18 963.42 919.15 963.71 919.05Z" fill="white"/>
<path d="M962.98 916.08C964.22 915.75 965.5 915.61 966.77 915.69C966.95 915.7 967.35 915.65 967.15 915.38C966.96 915.12 966.51 914.99 966.2 914.97C964.73 914.88 963.26 915.02 961.83 915.4C961.51 915.49 961.81 915.79 961.96 915.87C962.25 916.04 962.65 916.17 962.98 916.08Z" fill="white"/>
<path d="M968.2 899.25C972.93 900.23 977.32 903.4 979.55 907.72C981.65 911.8 982.4 916.99 981.63 921.5C981.46 922.49 984.36 921.99 984.52 921.09C985.34 916.29 984.58 910.66 982.16 906.4C979.59 901.89 975.05 898.84 970.01 897.79C969.37 897.66 968.45 897.91 967.96 898.34C967.5 898.75 967.6 899.13 968.2 899.25Z" fill="white"/>
<path d="M970.92 908C972.96 909.02 973.65 911.06 974.19 913.14C974.96 916.05 974.75 918.88 974.37 921.83C974.21 923.07 977.14 922.58 977.28 921.51C977.69 918.34 977.87 915.3 977.04 912.19C976.42 909.85 975.48 907.68 973.2 906.54C972.57 906.23 971.71 906.42 971.14 906.79C970.75 907.03 970.29 907.68 970.92 908Z" fill="white"/>
<path d="M670.93 1157.48C722.1 1128.34 774.81 1141.05 831.52 1143.44C895.82 1146.16 925.77 1125.44 992.78 1147.43" stroke="#010101" stroke-width="4" stroke-miterlimit="10"/>
<path d="M654.34 1055.48C690.84 1025.23 753.1 1031.95 834.12 1031.26C907.67 1030.63 962.4 1019.31 1003.41 1048.77" stroke="#010101" stroke-width="4" stroke-miterlimit="10"/>
<path d="M646.58 1019.31C662.26 984.97 704.01 959.58 720.05 953.74C773.9 934.12 874.34 931.54 927.6 952.37C963.07 966.24 997.49 990.91 1009.09 1005.96" stroke="#010101" stroke-width="4" stroke-miterlimit="10"/>
<path d="M670.93 1258.85C728.24 1266.13 771.65 1255.4 832.07 1249.13C865.81 1245.63 914.58 1266.55 1001.17 1251.07" stroke="#010101" stroke-width="4" stroke-miterlimit="10"/>
<path d="M611.18 860.25C620.33 879.08 629.52 901.85 636.57 928.22C646.57 965.65 649.21 998.96 649.08 1025.22" stroke="#010101" stroke-width="4" stroke-miterlimit="10"/>
<path d="M1063.49 873.88C1051.55 885.57 1032.52 907.23 1020.58 938.98C1009.65 968.06 1009.27 993.38 1010.34 1008.72" stroke="#010101" stroke-width="4" stroke-miterlimit="10"/>
<path d="M560.91 928.74C572.75 938.29 585.49 949.82 598.17 963.58C619.12 986.32 633.78 1008.51 644.03 1027.11" stroke="#010101" stroke-width="4" stroke-miterlimit="10"/>
<path d="M525.47 1017.88C548.03 1025.02 567.77 1028.77 581.77 1035.38C596.41 1042.29 622.89 1053.29 641.97 1067.59" stroke="#010101" stroke-width="4" stroke-miterlimit="10"/>
<path d="M524.84 1084.59C539.76 1083.03 557.33 1082.14 576.96 1082.94C600.96 1083.93 621.81 1087.2 638.71 1090.9" stroke="#010101" stroke-width="4" stroke-miterlimit="10"/>
<path d="M537.25 1162.99C544.01 1153.59 559.18 1137.71 577.99 1125.49C603.45 1108.97 631.55 1103.77 645.17 1101.89" stroke="#010101" stroke-width="4" stroke-miterlimit="10"/>
<path d="M667.32 1157.48C662.75 1158.83 636.16 1167.12 623.32 1192.32C613.55 1211.51 618.45 1230.93 619.99 1236.55" stroke="#010101" stroke-width="4" stroke-miterlimit="10"/>
<path d="M1109.73 934.11C1094.37 943.15 1076.68 955.08 1058.6 970.6C1038.1 988.2 1022.98 1010.42 1011.62 1025.23" stroke="#010101" stroke-width="4" stroke-miterlimit="10"/>
<path d="M1132.26 1001.4C1112.65 1005.01 1094.7 1011.12 1071.33 1022.74C1044.1 1036.28 1032.95 1050.02 1018.29 1061.37" stroke="#010101" stroke-width="4" stroke-miterlimit="10"/>
<path d="M1135.16 1066.38C1119.9 1063.93 1099.48 1062.59 1076.06 1065.9C1049.04 1069.72 1033.67 1074.06 1019.87 1079.83" stroke="#010101" stroke-width="4" stroke-miterlimit="10"/>
<path d="M1050.57 1218.84C1049.1 1214.96 1058.5 1192.72 1039.35 1167.81C1023.63 1147.35 1000.09 1141.99 994.46 1140.85" stroke="#010101" stroke-width="4" stroke-miterlimit="10"/>
<path d="M1011.63 1092.48C1025.3 1090.38 1057.69 1094.52 1078.96 1101.89C1105.36 1111.05 1120.91 1120.46 1132.26 1127.57" stroke="#010101" stroke-width="4" stroke-miterlimit="10"/>
<path d="M834.91 903.86C834.79 951.17 834.84 989.67 834.91 1016.27C835.03 1063.17 835.2 1068.6 834.91 1087.36C834.03 1145.06 831.48 1157.52 831.51 1193.08C831.53 1216.37 832.66 1250.77 838.27 1293.18" stroke="#303030" stroke-width="7" stroke-miterlimit="10"/>
<path d="M833.25 878.77C833.09 929.31 833.15 970.42 833.25 998.84C833.42 1048.93 833.65 1054.74 833.25 1074.78C832.01 1136.41 828.43 1149.72 828.47 1187.71C828.5 1212.59 830.08 1249.33 837.98 1294.63" stroke="#57534E" stroke-width="0.25" stroke-miterlimit="10"/>
<path d="M747.84 857.89C741.07 843.32 739.33 836.26 738.64 809.69C738.18 792.04 741.14 769.13 750.06 768.92C755.97 768.78 763.37 776.11 776.06 794.24C785.04 807.06 809.44 832.01 831.51 832.96C867.39 834.51 873.38 826.91 886.58 810.84C908.85 783.75 920.8 766.27 929.75 768.84C936.07 770.66 936.95 783.86 937.99 799.61C938.73 810.75 939.42 812.83 935.59 833.29C931.43 855.49 924.01 864.95 911.57 876.24C903.28 883.77 875.02 903.38 834.91 903.86C794.04 904.35 763.04 890.58 747.84 857.89Z" fill="url(#paint4_radial_87_18432)" stroke="#010101" stroke-width="4" stroke-miterlimit="10"/>
<path d="M756.19 787.24C758.25 793.91 762.44 804.2 771.33 814.73C782.51 827.97 795.59 835.03 803.03 838.41" stroke="#010101" stroke-width="4" stroke-miterlimit="10"/>
<path d="M916.3 796.18C913.42 802.6 907.96 812.41 897.82 821.98C885.06 834.02 871.17 839.73 863.35 842.35" stroke="#010101" stroke-width="4" stroke-miterlimit="10"/>
<path d="M835.79 831.07C834.15 869.99 834.73 888.02 834.93 907" stroke="#232323" stroke-width="7" stroke-miterlimit="10"/>
<path d="M834.01 831.35C832.55 870.23 833.07 888.24 833.24 907.21" stroke="#232323" stroke-width="0.25" stroke-miterlimit="10"/>
<path d="M837.34 840.8C837.67 836.75 838.89 835.11 837.89 833.26C837.32 832.2 836.26 831.5 835.21 831.36C835.14 831.35 833.46 831.16 832.26 832.47C830.87 833.99 831.67 835.81 830.86 839.28C829.92 843.3 828.13 843.83 828.52 845.55C829.21 848.56 835.51 850.34 837.29 848.04C838.27 846.76 836.96 845.43 837.34 840.8ZM835.56 845.77C834.62 847.03 831.09 845.92 830.79 844.2C830.7 843.67 830.93 843.18 831.37 842.23C831.85 841.19 832.15 840.55 832.8 840.24C833.68 839.82 834.86 840.19 835.41 841.06C835.7 841.52 835.72 842.08 835.77 843.19C835.84 844.63 835.87 845.36 835.56 845.77ZM836.12 837.12C835.51 837.73 834.68 837.45 834.27 837.32C833.89 837.19 833.37 836.94 833.15 836.23C832.91 835.47 833.23 834.76 833.32 834.64C833.87 833.82 834.78 833.85 834.94 833.86C835.14 833.87 835.96 833.92 836.4 834.71C836.81 835.46 836.68 836.56 836.12 837.12Z" fill="#342F28" stroke="#010101" stroke-miterlimit="10"/>
<defs>
<radialGradient id="paint0_radial_87_18432" cx="0" cy="0" r="1" gradientUnits="userSpaceOnUse" gradientTransform="translate(829.977 1057.64) scale(297.42 265.844)">
<stop stop-color="#E9E8E9"/>
<stop offset="0.6519" stop-color="#E6E5E5"/>
<stop offset="1" stop-color="#E0E0DF"/>
</radialGradient>
<radialGradient id="paint1_radial_87_18432" cx="0" cy="0" r="1" gradientUnits="userSpaceOnUse" gradientTransform="translate(836.602 906.976) scale(178.215 159.295)">
<stop stop-color="#2F2E30"/>
<stop offset="0.3514" stop-color="#2C2B2D"/>
<stop offset="0.8633" stop-color="#222224"/>
<stop offset="0.9994" stop-color="#1F1E20"/>
</radialGradient>
<radialGradient id="paint2_radial_87_18432" cx="0" cy="0" r="1" gradientUnits="userSpaceOnUse" gradientTransform="translate(643.49 1199.26) scale(35.9576 32.1402)">
<stop stop-color="#2F2E30"/>
<stop offset="0.3514" stop-color="#2C2B2D"/>
<stop offset="0.8633" stop-color="#222224"/>
<stop offset="0.9994" stop-color="#1F1E20"/>
</radialGradient>
<radialGradient id="paint3_radial_87_18432" cx="0" cy="0" r="1" gradientUnits="userSpaceOnUse" gradientTransform="translate(1022.91 1184.63) scale(37.8429 33.8253)">
<stop stop-color="#2F2E30"/>
<stop offset="0.3514" stop-color="#2C2B2D"/>
<stop offset="0.8633" stop-color="#222224"/>
<stop offset="0.9994" stop-color="#1F1E20"/>
</radialGradient>
<radialGradient id="paint4_radial_87_18432" cx="0" cy="0" r="1" gradientUnits="userSpaceOnUse" gradientTransform="translate(838.563 836.216) scale(88.6691 79.2555)">
<stop stop-color="#2F2E30"/>
<stop offset="0.3514" stop-color="#2C2B2D"/>
<stop offset="0.8633" stop-color="#222224"/>
<stop offset="0.9994" stop-color="#1F1E20"/>
</radialGradient>
</defs>
</svg>
