<svg width="1660" height="1660" viewBox="0 0 1660 1660" fill="none" xmlns="http://www.w3.org/2000/svg">
<path d="M829.41 778.25C791.08 778.25 760.02 788.8 760.02 834.73C760.02 856.54 775.67 882.1 792.1 902.92C811.13 927.03 847.7 927.03 866.72 902.92C883.15 882.09 898.8 856.54 898.8 834.73C898.8 788.8 867.73 778.25 829.41 778.25ZM861.94 891.82C845.35 912.84 813.47 912.84 796.88 891.82C782.55 873.66 768.91 851.38 768.91 832.37C768.91 792.32 796 783.13 829.41 783.13C862.82 783.13 889.91 792.33 889.91 832.37C889.91 851.38 876.27 873.66 861.94 891.82Z" fill="#DEA73A"/>
<path opacity="0.42" d="M768.9 832.36C768.9 831.57 768.91 830.79 768.93 830.02L760.18 838.77C760.75 845.55 762.68 852.63 765.57 859.77L773.02 852.32C770.44 845.49 768.9 838.74 768.9 832.36Z" fill="white"/>
<path opacity="0.42" d="M841.75 783.61L846.29 779.07C840.89 778.5 835.23 778.25 829.41 778.25C826.39 778.25 823.42 778.32 820.51 778.46L815.18 783.79C819.74 783.33 824.51 783.13 829.41 783.13C833.64 783.12 837.76 783.27 841.75 783.61Z" fill="white"/>
<path opacity="0.42" d="M803.07 898.16L794.98 906.25C799.17 910.67 804.01 914.1 809.22 916.53L819.39 906.36C813.52 904.92 807.93 902.18 803.07 898.16Z" fill="white"/>
<path opacity="0.42" d="M893.77 807.45L887.45 813.77C889.05 819.07 889.91 825.22 889.91 832.36C889.91 833.56 889.86 834.77 889.75 835.99L898.5 827.24C897.87 819.56 896.25 813.01 893.77 807.45Z" fill="white"/>
<path opacity="0.42" d="M782.96 872.08L775.61 879.43C776.91 881.58 778.27 883.71 779.66 885.82L787.05 878.43C785.64 876.34 784.27 874.22 782.96 872.08Z" fill="white"/>
<path opacity="0.42" d="M877.1 788.38C874.93 787.04 872.63 785.86 870.21 784.82L865.81 789.22C868.19 790.29 870.43 791.53 872.52 792.95L877.1 788.38Z" fill="white"/>
<path d="M828.81 931.99C838.022 931.99 845.49 925.068 845.49 916.53C845.49 907.992 838.022 901.07 828.81 901.07C819.598 901.07 812.13 907.992 812.13 916.53C812.13 925.068 819.598 931.99 828.81 931.99Z" fill="#EFBD1B"/>
<path opacity="0.42" d="M828.81 930.46C820.4 930.46 813.55 924.26 813.28 916.53C813.27 916.68 813.27 916.84 813.27 916.99C813.27 924.94 820.22 931.38 828.8 931.38C837.38 931.38 844.33 924.94 844.33 916.99C844.33 916.84 844.33 916.68 844.32 916.53C844.07 924.27 837.22 930.46 828.81 930.46Z" fill="white"/>
<path d="M828.81 929.54C825.45 929.54 822.22 928.27 819.74 925.97C818.45 924.77 817.43 923.37 816.71 921.79C815.95 920.13 815.57 918.36 815.57 916.53C815.57 914.7 815.95 912.93 816.71 911.27C817.43 909.7 818.45 908.29 819.74 907.09C822.23 904.79 825.45 903.52 828.81 903.52C832.17 903.52 835.4 904.79 837.88 907.09C839.17 908.29 840.19 909.69 840.91 911.27C841.67 912.93 842.05 914.7 842.05 916.53C842.05 918.36 841.67 920.13 840.91 921.79C840.19 923.36 839.17 924.77 837.88 925.97C835.4 928.27 832.18 929.54 828.81 929.54Z" fill="#EE9B21"/>
<path d="M828.81 928.23C835.785 928.23 841.44 922.992 841.44 916.53C841.44 910.068 835.785 904.83 828.81 904.83C821.835 904.83 816.18 910.068 816.18 916.53C816.18 922.992 821.835 928.23 828.81 928.23Z" fill="#177549"/>
<path d="M828.81 927.58C835.399 927.58 840.74 922.633 840.74 916.53C840.74 910.427 835.399 905.48 828.81 905.48C822.221 905.48 816.88 910.427 816.88 916.53C816.88 922.633 822.221 927.58 828.81 927.58Z" fill="#50BC81"/>
<path opacity="0.2" d="M828.81 921.91C823.28 921.91 818.63 918.42 817.28 913.69C817.02 914.6 816.88 915.55 816.88 916.53C816.88 922.63 822.22 927.58 828.81 927.58C835.4 927.58 840.74 922.63 840.74 916.53C840.74 915.55 840.6 914.6 840.34 913.69C838.99 918.42 834.34 921.91 828.81 921.91Z" fill="#010101"/>
<path opacity="0.42" d="M828.81 903C833.81 903 838.16 904.99 840.46 907.94H841.3C839.37 904.3 834.5 901.71 828.81 901.71C823.12 901.71 818.25 904.29 816.32 907.94H817.16C819.46 904.99 823.81 903 828.81 903Z" fill="white"/>
<path d="M836.84 910C836.84 911.24 833.25 909.28 828.81 909.28C824.37 909.28 820.78 911.24 820.78 910C820.78 908.76 824.37 906.32 828.81 906.32C833.25 906.32 836.84 908.76 836.84 910Z" fill="#B7DFCA"/>
</svg>
