<svg width="1660" height="1660" viewBox="0 0 1660 1660" fill="none" xmlns="http://www.w3.org/2000/svg">
<path d="M885.6 1340.44C892.9 1343.06 906.58 1346.89 923.8 1345.22C942.59 1343.4 956.15 1335.95 962.8 1331.69C962.28 1339.27 961.69 1351.23 962 1365.91C962.54 1391.32 965.36 1404.98 967.57 1428.78C971.41 1470.18 966.53 1468.34 969.96 1487.67C979.52 1541.5 1020.29 1565.37 1006.34 1576.59C990.39 1589.42 940.44 1580.18 916.64 1562.48C912.39 1559.32 915.22 1558.32 904.7 1512.34C897.26 1479.82 895.01 1473.28 889.58 1465.39C882.74 1455.43 877.73 1453.32 871.28 1440.72C866.88 1432.14 862.19 1422.96 863.32 1412.07C864.74 1398.43 873.94 1395.11 880.83 1380.24C884.62 1372.04 888.2 1359.29 885.6 1340.44Z" fill="url(#paint0_linear_87_109)" stroke="#010101" stroke-width="4" stroke-miterlimit="10"/>
<path d="M883.94 1337.57C891.8 1333.16 904.04 1328.42 919.32 1326.12C922.15 1325.7 934.91 1323.96 951.32 1326.51C956.5 1327.31 961.1 1327.3 964.21 1328.16C957.33 1337.54 949.41 1343.41 944.87 1345.79C919.53 1359.06 893.76 1346.31 891.01 1344.34C887.84 1342.08 885.3 1339.1 883.94 1337.57Z" fill="#010101" stroke="#010101" stroke-miterlimit="10"/>
<path d="M877.41 1450.73V1451.03C877.41 1452.58 877.41 1485.58 877.41 1520.12C880.73 1520.2 884.04 1520.27 887.36 1520.35C886.63 1497.46 885.9 1474.57 885.17 1451.68L879.4 1450.5C878.77 1450.44 878.13 1450.38 877.5 1450.32" fill="#010101"/>
<path d="M877.41 1450.73V1451.03C877.41 1452.58 877.41 1485.58 877.41 1520.12C880.73 1520.2 884.04 1520.27 887.36 1520.35C886.63 1497.46 885.9 1474.57 885.17 1451.68L879.4 1450.5C878.77 1450.44 878.13 1450.38 877.5 1450.32" stroke="#010101" stroke-width="4" stroke-miterlimit="10"/>
<path d="M774.4 1340.44C767.1 1343.06 753.42 1346.89 736.2 1345.22C717.41 1343.4 703.85 1335.95 697.2 1331.69C697.72 1339.27 698.31 1351.23 698 1365.91C697.46 1391.32 694.64 1404.98 692.43 1428.78C688.59 1470.18 693.47 1468.34 690.04 1487.67C680.48 1541.5 639.71 1565.37 653.66 1576.59C669.61 1589.42 719.56 1580.18 743.36 1562.48C747.61 1559.32 744.78 1558.32 755.3 1512.34C762.74 1479.82 764.99 1473.28 770.42 1465.39C777.26 1455.43 782.27 1453.32 788.72 1440.72C793.12 1432.14 797.81 1422.96 796.68 1412.07C795.26 1398.43 786.06 1395.11 779.17 1380.24C775.38 1372.04 771.8 1359.29 774.4 1340.44Z" fill="url(#paint1_linear_87_109)" stroke="#010101" stroke-width="4" stroke-miterlimit="10"/>
<path d="M776.02 1337.57C768.16 1333.16 755.96 1328.42 740.68 1326.12C737.85 1325.7 725.09 1323.96 708.68 1326.51C703.5 1327.31 699.35 1327.94 695.85 1328.29C702.73 1337.67 710.59 1343.41 715.13 1345.79C740.47 1359.06 766.24 1346.31 768.99 1344.34C772.16 1342.08 774.66 1339.1 776.02 1337.57Z" fill="#010101" stroke="#010101" stroke-miterlimit="10"/>
<path d="M782.59 1450.73V1451.03C782.59 1452.58 782.59 1485.58 782.59 1520.12C779.27 1520.2 775.96 1520.27 772.64 1520.35C773.37 1497.46 774.1 1474.57 774.83 1451.68L780.6 1450.5C781.23 1450.44 781.87 1450.38 782.5 1450.32" fill="#010101"/>
<path d="M782.59 1450.73V1451.03C782.59 1452.58 782.59 1485.58 782.59 1520.12C779.27 1520.2 775.96 1520.27 772.64 1520.35C773.37 1497.46 774.1 1474.57 774.83 1451.68L780.6 1450.5C781.23 1450.44 781.87 1450.38 782.5 1450.32" stroke="#010101" stroke-width="4" stroke-miterlimit="10"/>
<defs>
<linearGradient id="paint0_linear_87_109" x1="878.477" y1="1497.6" x2="1013.56" y2="1419.61" gradientUnits="userSpaceOnUse">
<stop stop-color="#010101"/>
<stop offset="1" stop-color="#1A1A1A"/>
</linearGradient>
<linearGradient id="paint1_linear_87_109" x1="650.784" y1="1457.13" x2="796.854" y2="1457.13" gradientUnits="userSpaceOnUse">
<stop stop-color="#1A1A1A"/>
<stop offset="1" stop-color="#010101"/>
</linearGradient>
</defs>
</svg>
