<svg width="1660" height="1660" viewBox="0 0 1660 1660" fill="none" xmlns="http://www.w3.org/2000/svg">
<path d="M762.91 809.83C742.75 819.72 722.59 829.6 702.44 839.49C699.22 841.07 696.56 843.42 694.74 846.27C689.73 854.13 685.56 861.47 682.5 870.7C669.81 908.91 647.89 957.98 636.22 990.63C633.06 999.47 642.88 999.24 653.22 1000.58C660.04 1001.47 663.31 1002.12 670.57 1006.02C680.74 1011.47 681.03 1014.9 694.69 1021.84C699.46 1024.26 741.69 940.68 742.15 945.54C748.37 1010.92 776.23 1066.27 741.08 1133.49C740.08 1135.4 717.85 1150.85 718.47 1157.49L922.68 1163.72C926.19 1163.92 909.53 1130.95 909.49 1127.82C908.86 1066.77 892.66 1008.86 914.96 941C917.46 933.38 954.44 1023.48 963.25 1021.78C971.6 1020.17 979.95 1018.56 988.3 1016.94C994.04 1015.83 998.83 1012.46 1001.63 1007.88C1002.55 1006.37 1003.72 1004.81 1005.2 1003.28C1008.74 999.62 1009.92 999.72 1013.51 997.68C1025.92 990.63 1026.29 995.53 1021.68 983.37C1010.72 954.45 995.66 916.51 975.63 871.28C971.18 861.24 963.64 844.93 956.84 837.46C954.9 835.33 953.99 834.06 951.18 832.92C927.82 823.43 912.71 817.29 889.35 807.8C883.85 805.56 877.52 805.72 872.11 808.13C864.64 811.46 854.91 814.81 843.17 816.57C839.46 817.13 826.27 818.91 809.23 816.57C797.84 815 788.23 812.08 780.68 809.08C774.97 806.84 768.38 807.15 762.91 809.83Z" fill="url(#paint0_linear_87_2727)" stroke="#030303" stroke-width="4" stroke-miterlimit="10"/>
<path d="M770.78 814.77C781.61 819.94 801.12 827.52 826.57 828.2C854.69 828.95 876.32 820.9 887.53 815.8" stroke="#030303" stroke-width="4" stroke-miterlimit="10"/>
<path d="M744.47 892.9C741.96 915.08 741.17 935.77 741.5 954.81C742.17 993.45 740.67 1012.18 735.44 1041.99C730.41 1070.68 729.78 1070.4 722.31 1099.95C712.39 1139.18 678.27 1240.84 663.92 1453.32C670.4 1457.56 703.61 1450.24 713.75 1449.31C724.41 1448.33 725.65 1442.4 734.56 1442.34C746.38 1442.27 749.57 1452.68 770.24 1457.82C775.96 1459.24 780.61 1459.66 783.12 1457.82C786.24 1455.53 783.42 1451.68 786.09 1449.31C789.18 1446.58 796.91 1448.17 810.87 1451.63C834.92 1457.59 842.2 1460.36 845.56 1457.82C849.53 1454.81 842.83 1448.29 847.54 1443.89C851.9 1439.82 863.61 1439.82 868.35 1443.89C872.31 1447.29 869.3 1451.71 872.31 1453.18C876.97 1455.45 884.79 1445.18 900.06 1441.57C910.35 1439.14 914.96 1441.87 935.74 1443.12C948.97 1443.91 995.21 1453.77 1002.71 1453.32C984.38 1239.33 947.85 1140.97 937.86 1101.28C929.54 1068.23 929.56 1066 923.73 1038.32C917.78 1010.08 914.16 991.15 914.93 951.7C915.26 934.79 914.3 915.59 910.97 894.43C883.88 908.1 856.79 921.77 829.7 935.45C801.29 921.27 772.88 907.08 744.47 892.9Z" fill="url(#paint1_linear_87_2727)" stroke="#010101" stroke-width="4" stroke-miterlimit="10"/>
<path d="M725.18 830.3C729.75 840.32 739.65 885.21 744.22 895.24" stroke="#010101" stroke-width="4" stroke-miterlimit="10"/>
<path d="M926.45 822.89C920.06 835.75 914.05 886.83 909.48 896.86" stroke="#010101" stroke-width="4" stroke-miterlimit="10"/>
<path d="M698.41 1010.73C693.5 1004.99 683.6 995.03 667.9 988.74C657.93 984.75 648.93 983.57 642.59 983.27" stroke="#030303" stroke-width="4" stroke-miterlimit="10"/>
<path d="M957.36 1007.21C970.63 1008.35 978.24 1004.96 982.75 1001.62C988.88 997.07 990.15 991.97 997.92 986.11C1004.1 981.46 1010.38 979.34 1014.65 978.29" stroke="#030303" stroke-width="4" stroke-miterlimit="10"/>
<path d="M842.08 1441.61C837.19 1421.06 835.78 1399.74 834.09 1378.74C833.46 1370 832.75 1360.41 832.03 1351.74C831.48 1345.6 831.69 1339.42 832.45 1333.37C833.52 1324.59 836.02 1315.3 838.15 1306.73C838.83 1303.8 839.51 1300.87 839.77 1297.86C839.84 1300.89 839.44 1303.91 838.99 1306.9C837.59 1315.79 835.69 1324.69 835.05 1333.64C833.83 1345.69 836.42 1357.48 837.32 1369.42C839.46 1393.4 840.12 1417.62 842.08 1441.61Z" fill="#E893BE"/>
<path d="M873.96 1439.38C875.46 1421.74 877.91 1404.22 879.3 1386.6C883.43 1342.86 876.59 1298.13 873.76 1254.42C873.11 1245.59 872.35 1236.76 872.07 1227.9C872.61 1235.43 874.02 1246.66 874.84 1254.31C878.52 1289.18 883.41 1325.26 884.42 1360.26C884.63 1386.97 880.17 1413.52 873.96 1439.38Z" fill="#E893BE"/>
<path d="M715.17 1441.61C698.08 1373.22 698.55 1361.73 720.27 1294.39C722.34 1287.59 724.88 1280.87 725.82 1273.8C725.74 1280.97 723.72 1287.97 722.16 1294.92C720.44 1301.85 718.63 1308.75 716.86 1315.65C713.43 1329.36 709.91 1343.2 707.88 1357.19C704.03 1385.59 712.02 1413.5 715.17 1441.61Z" fill="#E893BE"/>
<path d="M752.14 1441.61C745.04 1412.92 730.96 1404.13 737.94 1370.98C741.31 1352.54 745.2 1334.13 747.14 1315.45C748.29 1336.96 743.86 1358.44 740.56 1379.53C736.85 1405.01 750.2 1418.01 752.14 1441.61Z" fill="#E893BE"/>
<path d="M789.02 1432.26C782.81 1406.4 778.35 1379.85 778.56 1353.14C779.57 1318.17 784.46 1282.03 788.14 1247.19C788.96 1239.56 790.36 1228.36 790.91 1220.78C790.63 1229.63 789.87 1238.47 789.22 1247.3C786.39 1291.03 779.55 1335.73 783.68 1379.48C785.08 1397.1 787.53 1414.62 789.02 1432.26Z" fill="#E893BE"/>
<path d="M913.69 1432.26C915.07 1414.64 918.54 1397.58 918.04 1379.96C917.08 1362.81 914.9 1344.55 913.4 1327.35C912.98 1322.33 912.46 1317.3 912.33 1312.26C912.78 1316.53 913.84 1322.89 914.48 1327.22C917.32 1347 920.9 1367.49 921.76 1387.44C921.98 1402.73 918.68 1417.9 913.69 1432.26Z" fill="#E893BE"/>
<defs>
<linearGradient id="paint0_linear_87_2727" x1="677.157" y1="1079.8" x2="997.073" y2="909.936" gradientUnits="userSpaceOnUse">
<stop stop-color="#F0EEE3"/>
<stop offset="1" stop-color="white"/>
</linearGradient>
<linearGradient id="paint1_linear_87_2727" x1="595.002" y1="1333.96" x2="1022.29" y2="1087.26" gradientUnits="userSpaceOnUse">
<stop stop-color="#F7B2C4"/>
<stop offset="0.2857" stop-color="#F7B9C8"/>
<stop offset="0.6879" stop-color="#F7CBD4"/>
<stop offset="1" stop-color="#F7DEE1"/>
</linearGradient>
</defs>
</svg>
