<svg width="1660" height="1660" viewBox="0 0 1660 1660" fill="none" xmlns="http://www.w3.org/2000/svg">
<path d="M751.91 809.42C729.51 821.79 707.11 834.16 684.7 846.53C681.12 848.51 678.16 851.45 676.15 855.01C670.58 864.84 665.95 874.02 662.55 885.58C648.45 933.38 624.08 994.78 611.11 1035.63C607.6 1046.69 618.51 1046.4 630 1048.08C637.58 1049.19 641.21 1050.01 649.28 1054.88C660.59 1061.7 660.9 1066 676.08 1074.67C681.38 1077.7 695.95 1078.05 696.46 1084.13C703.37 1165.93 706.91 1254.14 714.24 1335.14C714.48 1337.81 716.64 1339.91 719.32 1340.07L936 1348.56C939.9 1348.81 943.09 1345.78 943.4 1341.88C950.02 1257.88 962.46 1179.07 964.01 1094.55C964.19 1084.52 964.74 1076.73 974.53 1074.6C983.81 1072.58 993.09 1070.57 1002.37 1068.55C1008.75 1067.16 1014.07 1062.95 1017.19 1057.21C1018.21 1055.32 1019.51 1053.37 1021.15 1051.45C1025.08 1046.88 1030.13 1044.79 1034.12 1042.24C1047.92 1033.42 1052.65 1034.7 1047.53 1019.49C1035.35 983.31 1022.72 936.49 1000.46 879.91C995.52 867.35 985.84 858.08 978.29 848.74C976.14 846.07 973.4 843.94 970.28 842.52C944.32 830.65 918.37 818.78 892.41 806.91C886.3 804.11 879.26 804.3 873.25 807.32C864.95 811.49 854.13 815.68 841.09 817.88C836.97 818.57 822.31 820.81 803.38 817.88C790.72 815.92 780.04 812.26 771.65 808.51C765.32 805.67 758 806.06 751.91 809.42Z" fill="url(#paint0_radial_87_270)" stroke="#010101" stroke-width="4" stroke-miterlimit="10"/>
<path d="M780.59 1030.29C780.6 1018.37 780.6 1006.45 780.61 994.53C778.75 995.03 776.88 995.54 775.02 996.04C780.49 1007.98 785.54 1020.1 790.18 1032.39C790.65 1033.64 791.66 1034.59 793.07 1034.59C794.29 1034.59 795.75 1033.67 795.96 1032.39C798.11 1019.68 801.31 1007.18 805.54 995C803.61 995 801.68 995 799.75 995C801.59 1007.28 803.07 1019.6 804.22 1031.96C804.37 1033.57 805.49 1034.96 807.22 1034.96C808.73 1034.96 810.37 1033.58 810.22 1031.96C809.02 1019.07 807.45 1006.21 805.53 993.41C805.34 992.13 803.84 991.21 802.64 991.21C801.26 991.21 800.18 992.16 799.75 993.41C795.52 1005.58 792.32 1018.09 790.17 1030.8C792.1 1030.8 794.03 1030.8 795.96 1030.8C791.14 1018.03 785.87 1005.43 780.19 993.02C778.9 990.21 774.6 991.74 774.6 994.53C774.59 1006.45 774.59 1018.37 774.58 1030.29C774.59 1034.15 780.59 1034.16 780.59 1030.29Z" fill="#010101"/>
<path d="M816.16 1029.02C817.14 1016.2 822.79 1004.33 828.24 992.88C826.41 992.64 824.58 992.4 822.76 992.16C827.73 1004.94 832.18 1017.92 836.08 1031.07C837.18 1034.76 842.97 1033.19 841.87 1029.47C837.96 1016.32 833.52 1003.34 828.55 990.56C828.11 989.43 827.33 988.56 826.06 988.41C824.96 988.28 823.59 988.76 823.07 989.84C817.14 1002.31 811.24 1015.05 810.18 1029.01C810.06 1030.63 811.65 1032.01 813.18 1032.01C814.88 1032.02 816.03 1030.64 816.16 1029.02Z" fill="#010101"/>
<path d="M819.72 1024.53C823.2 1024.53 826.67 1024.53 830.15 1024.53C831.72 1024.53 833.22 1023.15 833.15 1021.53C833.08 1019.9 831.83 1018.53 830.15 1018.53C826.67 1018.53 823.2 1018.53 819.72 1018.53C818.15 1018.53 816.65 1019.91 816.72 1021.53C816.79 1023.16 818.04 1024.53 819.72 1024.53Z" fill="#010101"/>
<path d="M849.36 994.84C848.71 1007.1 849.17 1019.39 850.74 1031.56C850.95 1033.17 851.97 1034.56 853.74 1034.56C855.2 1034.56 856.95 1033.18 856.74 1031.56C855.17 1019.39 854.71 1007.1 855.36 994.84C855.45 993.22 853.92 991.84 852.36 991.84C850.67 991.84 849.45 993.22 849.36 994.84Z" fill="#010101"/>
<path d="M862.66 993.59C862.35 1005.72 862.58 1017.87 863.35 1029.98C863.45 1031.6 864.66 1032.98 866.35 1032.98C867.99 1032.98 869.33 1031.61 869.35 1029.98C869.48 1018.37 869.8 1006.75 870.3 995.15C868.44 995.65 866.57 996.16 864.71 996.66C870.57 1008.64 876.43 1020.62 882.29 1032.61C883.62 1035.34 887.92 1033.96 887.88 1031.1C887.69 1018.04 887.5 1004.98 887.31 991.93C887.25 988.07 881.25 988.06 881.31 991.93C881.5 1004.99 881.69 1018.05 881.88 1031.1C883.74 1030.6 885.61 1030.09 887.47 1029.59C881.61 1017.61 875.75 1005.63 869.89 993.64C868.51 990.81 864.42 992.38 864.3 995.15C863.8 1006.75 863.49 1018.37 863.35 1029.98C865.35 1029.98 867.35 1029.98 869.35 1029.98C868.58 1017.87 868.35 1005.72 868.66 993.59C868.76 989.73 862.76 989.73 862.66 993.59Z" fill="#010101"/>
<path d="M788.02 1042.35C784.73 1041.28 781.04 1040.5 777.57 1040.63C775.54 1040.71 773.7 1041.59 772.7 1043.4C771.89 1044.87 771.76 1046.73 772.26 1048.32C773.34 1051.77 776.87 1053.34 779.79 1054.93C781.24 1055.72 782.77 1056.45 784.14 1057.37C784.26 1057.45 784.38 1057.53 784.49 1057.61C784.11 1057.31 784.48 1057.62 784.53 1057.68C784.66 1057.82 784.8 1057.94 784.92 1058.09C784.83 1057.99 784.66 1057.67 784.91 1058.12C784.94 1058.17 785.1 1058.54 784.97 1058.22C784.83 1057.86 784.99 1058.38 785.02 1058.46C785.18 1058.86 785.01 1057.98 785 1058.4C785 1058.66 785.29 1057.96 784.99 1058.44C785.1 1058.26 785.15 1058.16 785.28 1057.98C785.14 1058.18 785.03 1058.21 785.29 1058.03C785.14 1058.13 784.98 1058.21 784.83 1058.3C784.38 1058.56 784.97 1058.3 784.67 1058.36C784.28 1058.43 783.89 1058.58 783.49 1058.66C783.62 1058.63 784.07 1058.62 783.48 1058.65C783.3 1058.66 783.12 1058.67 782.94 1058.67C782.76 1058.67 782.58 1058.65 782.4 1058.66C781.83 1058.67 782.59 1058.73 782.26 1058.66C781.86 1058.58 781.47 1058.5 781.08 1058.37C780.91 1058.32 780.74 1058.26 780.57 1058.19C780.85 1058.3 780.77 1058.28 780.55 1058.16C780.15 1057.94 779.78 1057.71 779.41 1057.44C778.14 1056.51 776.01 1057.18 775.31 1058.52C774.48 1060.08 775.03 1061.63 776.39 1062.62C779.08 1064.59 782.83 1065.18 786.02 1064.22C787.8 1063.68 789.54 1062.69 790.41 1060.97C791.34 1059.11 791.13 1056.87 790.1 1055.09C789.21 1053.55 787.72 1052.45 786.21 1051.59C784.69 1050.73 783.14 1049.91 781.61 1049.07C780.94 1048.71 780.27 1048.35 779.61 1047.96C779.29 1047.77 778.99 1047.57 778.69 1047.36C778.41 1047.16 778.72 1047.37 778.76 1047.41C778.57 1047.22 778.37 1047.05 778.18 1046.85C778.15 1046.81 777.92 1046.47 778.08 1046.73C778.26 1047.02 778.02 1046.57 777.97 1046.49C777.73 1046.16 778.21 1046.98 778.03 1046.61C778.02 1046.58 777.93 1046.31 777.95 1046.29C777.98 1046.25 777.94 1046.94 777.98 1046.44C777.98 1046.42 777.96 1046.05 778 1046.01C777.76 1046.26 778.21 1046.51 778.01 1046.18C778.03 1046.11 778.05 1046.05 778.08 1045.98C777.92 1046.34 777.89 1046.43 778 1046.24C778.15 1045.95 777.84 1046.44 777.84 1046.45C778.16 1046.03 777.51 1046.61 777.48 1046.64C777.51 1046.61 777.96 1046.57 777.69 1046.59C777.38 1046.61 778.16 1046.62 778.22 1046.62C779.2 1046.65 780.19 1046.72 781.17 1046.85C781.03 1046.83 780.72 1046.78 781.35 1046.88C781.62 1046.92 781.89 1046.97 782.16 1047.02C782.65 1047.11 783.13 1047.21 783.61 1047.32C784.57 1047.54 785.52 1047.81 786.46 1048.12C787.95 1048.61 789.8 1047.55 790.15 1046.02C790.49 1044.39 789.62 1042.87 788.02 1042.35Z" fill="#010101"/>
<path d="M794.7 1045.38C797.62 1045.38 800.54 1045.38 803.46 1045.38C805.03 1045.38 806.53 1044 806.46 1042.38C806.39 1040.75 805.14 1039.38 803.46 1039.38C800.54 1039.38 797.62 1039.38 794.7 1039.38C793.13 1039.38 791.63 1040.76 791.7 1042.38C791.77 1044.01 793.02 1045.38 794.7 1045.38Z" fill="#010101"/>
<path d="M795.87 1044.47C795.87 1050.73 795.87 1056.98 795.87 1063.24C795.87 1064.81 797.25 1066.31 798.87 1066.24C800.5 1066.17 801.87 1064.92 801.87 1063.24C801.87 1056.98 801.87 1050.73 801.87 1044.47C801.87 1042.9 800.49 1041.4 798.87 1041.47C797.24 1041.54 795.87 1042.79 795.87 1044.47Z" fill="#010101"/>
<path d="M806.55 1043.21C806.75 1050.42 806.95 1057.62 807.15 1064.83C809.15 1064.83 811.15 1064.83 813.15 1064.83C812.72 1061.01 812.45 1057.18 812.26 1053.34C812.17 1051.51 812.04 1049.68 812.06 1047.85C812.07 1046.5 812.16 1044.98 813.01 1043.89C813.25 1043.58 813.63 1043.31 814.08 1043.09C814.06 1043.1 814.55 1043.04 814.53 1043.03C815.64 1043.34 816.26 1044.75 816.46 1045.68C816.89 1047.71 815.57 1049.67 813.57 1050.25C810.22 1051.23 811.05 1055.9 814.37 1056.14C814.1 1056.12 814.88 1056.27 814.93 1056.29C814.68 1056.19 815.12 1056.4 815.14 1056.42C815.53 1056.63 815.88 1056.97 816.29 1057.42C817 1058.21 817.56 1059.32 818.05 1060.36C819.22 1062.83 820.31 1065.39 822.46 1067.19C823.7 1068.23 825.48 1068.41 826.7 1067.19C827.77 1066.12 827.95 1063.99 826.7 1062.95C824.53 1061.13 823.83 1058.16 822.39 1055.71C820.62 1052.69 817.95 1050.42 814.37 1050.15C814.64 1052.11 814.9 1054.08 815.17 1056.04C818.57 1055.05 821.46 1052.29 822.27 1048.78C823.08 1045.23 821.92 1041.2 819.06 1038.87C815.76 1036.19 811.26 1036.68 808.53 1039.96C805.94 1043.08 806 1047.1 806.17 1050.93C806.37 1055.57 806.65 1060.2 807.17 1064.82C807.35 1066.43 808.42 1067.82 810.17 1067.82C811.76 1067.82 813.21 1066.45 813.17 1064.82C812.97 1057.61 812.77 1050.41 812.57 1043.2C812.45 1039.36 806.45 1039.34 806.55 1043.21Z" fill="#010101"/>
<path d="M828.03 1041.97C827.74 1048.19 827.95 1054.42 828.7 1060.6C828.9 1062.29 828.95 1064.06 830.11 1065.41C831.16 1066.63 832.75 1067.07 834.31 1066.89C837.51 1066.52 840.69 1065.81 843.86 1065.26C845.46 1064.98 846.36 1063.02 845.96 1061.57C845.5 1059.88 843.87 1059.19 842.27 1059.47C839.73 1059.91 837.19 1060.36 834.65 1060.8C834.66 1060.8 833.6 1060.97 833.91 1060.94C834.21 1060.91 833.62 1060.93 833.58 1060.94C833.04 1060.91 833.36 1061.07 834.54 1061.41C834.66 1061.58 834.77 1061.75 834.89 1061.92C834.86 1061.91 834.84 1061.47 834.83 1061.67C834.87 1060.36 834.5 1058.93 834.38 1057.62C833.9 1052.42 833.79 1047.19 834.03 1041.97C834.11 1040.35 832.6 1038.97 831.03 1038.97C829.34 1038.97 828.11 1040.34 828.03 1041.97Z" fill="#010101"/>
<path d="M833.9 1057.06C835.71 1057.06 837.51 1057.06 839.32 1057.06C840.09 1057.06 840.9 1056.73 841.44 1056.18C841.96 1055.66 842.35 1054.81 842.32 1054.06C842.29 1053.28 842.03 1052.48 841.44 1051.94C840.85 1051.4 840.13 1051.06 839.32 1051.06C837.51 1051.06 835.71 1051.06 833.9 1051.06C833.13 1051.06 832.32 1051.39 831.78 1051.94C831.26 1052.46 830.87 1053.31 830.9 1054.06C830.93 1054.84 831.19 1055.64 831.78 1056.18C832.37 1056.72 833.09 1057.06 833.9 1057.06Z" fill="#010101"/>
<path d="M833.07 1047.05C835.71 1047.05 838.35 1047.05 840.99 1047.05C842.56 1047.05 844.06 1045.67 843.99 1044.05C843.92 1042.42 842.67 1041.05 840.99 1041.05C838.35 1041.05 835.71 1041.05 833.07 1041.05C831.5 1041.05 830 1042.43 830.07 1044.05C830.14 1045.68 831.39 1047.05 833.07 1047.05Z" fill="#010101"/>
<path d="M853.73 1064.06C853.39 1060.14 853.35 1056.19 853.64 1052.26C853.77 1050.49 853.96 1048.73 854.24 1046.98C854.32 1046.49 854.4 1046 854.49 1045.52C854.52 1045.36 854.84 1044.46 854.78 1044.37C854.95 1044.62 853.83 1045.04 854.14 1044.94C852.94 1045.34 852.16 1043.74 852.76 1044.91C856.18 1051.6 858.98 1058.6 861.26 1065.76C861.75 1067.3 863.34 1068.3 864.95 1067.86C866.47 1067.44 867.54 1065.72 867.05 1064.17C864.85 1057.26 862.15 1050.51 858.99 1043.99C858.19 1042.34 857.5 1040.47 855.84 1039.51C853.88 1038.37 851.34 1039.19 850.02 1040.88C848.9 1042.31 848.67 1044.07 848.4 1045.81C848.11 1047.73 847.87 1049.66 847.71 1051.6C847.37 1055.75 847.39 1059.91 847.75 1064.05C847.89 1065.66 849.03 1067.05 850.75 1067.05C852.24 1067.06 853.87 1065.68 853.73 1064.06Z" fill="#010101"/>
<path d="M851.83 1060.42C854.68 1060.52 857.57 1059.77 860.03 1058.34C860.68 1057.96 861.21 1057.27 861.41 1056.55C861.61 1055.83 861.52 1054.88 861.11 1054.24C860.23 1052.87 858.46 1052.32 857.01 1053.16C856.54 1053.43 856.05 1053.68 855.55 1053.89C855.79 1053.79 856.03 1053.69 856.27 1053.59C855.26 1054.01 854.21 1054.29 853.13 1054.44C853.4 1054.4 853.66 1054.37 853.93 1054.33C853.24 1054.42 852.54 1054.45 851.84 1054.43C850.27 1054.37 848.77 1055.85 848.84 1057.43C848.91 1059.1 850.15 1060.36 851.83 1060.42Z" fill="#010101"/>
<path d="M871.26 1063.64C870.82 1055.32 870.4 1046.77 873.66 1038.91C871.73 1038.91 869.8 1038.91 867.87 1038.91C870.42 1048.36 872.97 1057.82 875.53 1067.27C876.26 1069.96 880.8 1070.29 881.32 1067.27C882.69 1059.18 884.49 1051.18 886.71 1043.28C884.75 1043.01 882.78 1042.75 880.82 1042.48C881.19 1050 882.12 1057.48 883.56 1064.86C883.87 1066.45 885.77 1067.36 887.25 1066.96C888.91 1066.5 889.66 1064.87 889.35 1063.27C888 1056.4 887.17 1049.47 886.82 1042.48C886.66 1039.17 881.87 1038.33 880.93 1041.68C878.71 1049.58 876.92 1057.58 875.54 1065.67C877.47 1065.67 879.4 1065.67 881.33 1065.67C878.78 1056.22 876.23 1046.76 873.67 1037.31C873.33 1036.04 872.09 1035.11 870.78 1035.11C869.35 1035.11 868.4 1036.07 867.89 1037.31C864.45 1045.62 864.81 1054.83 865.28 1063.63C865.37 1065.25 866.6 1066.63 868.28 1066.63C869.82 1066.64 871.35 1065.26 871.26 1063.64Z" fill="#010101"/>
<path d="M912.83 1007.81C911.9 1004.28 901.48 967.09 863.71 951.08C856.53 948.04 829.35 937.7 799.37 950.39C795.62 951.98 771.31 962.69 758.55 989.13C752.13 1002.43 752.89 1019.68 754.4 1054.16C755.28 1074.15 757.33 1082.04 763.39 1086.68C769.71 1091.52 777.22 1090.41 784.17 1098.44C788.54 1103.49 787.52 1106.18 791.06 1110.2C797.85 1117.9 810.01 1117.55 820.12 1117.12C849.1 1115.89 870.1 1102.9 875.27 1099.55C883.46 1094.26 892.41 1088.47 900.38 1077.68C922.62 1047.55 913.51 1010.42 912.83 1007.81ZM892.48 1072.25C885.52 1081.67 877.7 1086.73 870.56 1091.35C866.04 1094.27 847.71 1105.62 822.4 1106.69C813.57 1107.06 802.95 1107.37 797.02 1100.65C793.93 1097.14 794.82 1094.79 791 1090.38C784.93 1083.37 778.37 1084.33 772.85 1080.11C767.55 1076.06 765.76 1069.17 765 1051.71C763.68 1021.59 763.02 1006.53 768.63 994.92C779.78 971.83 801.01 962.47 804.28 961.09C830.46 950.01 854.2 959.04 860.47 961.69C893.46 975.67 902.56 1008.15 903.37 1011.23C903.95 1013.51 911.91 1045.93 892.48 1072.25Z" fill="#E75B59"/>
<path d="M778.67 979.81L884.18 1081.37" stroke="#E75B59" stroke-width="10" stroke-miterlimit="10"/>
<path d="M692.77 1011.36C694.35 1039.81 695.94 1068.25 697.52 1096.7Z" fill="url(#paint1_radial_87_270)"/>
<path d="M692.77 1011.36C694.35 1039.81 695.94 1068.25 697.52 1096.7" stroke="#010101" stroke-width="4" stroke-miterlimit="10"/>
<path d="M968.7 1010.29C967.12 1038.74 965.53 1067.18 963.95 1095.63Z" fill="url(#paint2_radial_87_270)"/>
<path d="M968.7 1010.29C967.12 1038.74 965.53 1067.18 963.95 1095.63" stroke="#010101" stroke-width="4" stroke-miterlimit="10"/>
<path d="M755.74 811.69C763.95 817.14 784.66 827.92 802.34 831.16C823.96 835.12 840.98 831.1 849.28 829.04C865.73 824.97 885.29 814.29 892.43 806.91" stroke="black" stroke-width="4" stroke-miterlimit="10"/>
<defs>
<radialGradient id="paint0_radial_87_270" cx="0" cy="0" r="1" gradientUnits="userSpaceOnUse" gradientTransform="translate(830 1076.75) scale(247.077)">
<stop offset="0.1876" stop-color="#F2F2F2"/>
<stop offset="1" stop-color="white"/>
</radialGradient>
<radialGradient id="paint1_radial_87_270" cx="0" cy="0" r="1" gradientUnits="userSpaceOnUse" gradientTransform="translate(695.181 1054) rotate(-3.1855) scale(77.0803 30.2187)">
<stop offset="0.1876" stop-color="#F2F2F2"/>
<stop offset="1" stop-color="white"/>
</radialGradient>
<radialGradient id="paint2_radial_87_270" cx="0" cy="0" r="1" gradientUnits="userSpaceOnUse" gradientTransform="translate(966.149 1052.86) rotate(-176.814) scale(77.0803 30.2187)">
<stop offset="0.1876" stop-color="#F2F2F2"/>
<stop offset="1" stop-color="white"/>
</radialGradient>
</defs>
</svg>
