<svg width="1660" height="1653" viewBox="0 0 1660 1653" fill="none" xmlns="http://www.w3.org/2000/svg">
<path d="M751.91 821.16C729.51 831.05 707.11 840.93 684.7 850.82C681.12 852.4 678.16 854.75 676.15 857.6C670.58 865.46 665.95 872.8 662.55 882.03C648.45 920.24 624.08 969.31 611.11 1001.96C607.6 1010.8 618.51 1010.57 630 1011.91C637.58 1012.8 641.21 1013.45 649.28 1017.35C660.59 1022.8 660.9 1026.23 676.08 1033.17C681.38 1035.59 695.95 1035.87 696.46 1040.73C703.37 1106.11 704.34 1080.04 703.68 1144.05C703.66 1146.2 701.82 1162.17 702.5 1168.82L957.99 1170.56C961.89 1170.76 960.54 1143.71 960.5 1140.58C959.8 1079.53 962.46 1116.62 964.01 1049.06C964.19 1041.05 964.74 1034.81 974.53 1033.11C983.81 1031.5 993.09 1029.89 1002.37 1028.27C1008.75 1027.16 1014.07 1023.79 1017.19 1019.21C1018.21 1017.7 1019.51 1016.14 1021.15 1014.61C1025.08 1010.95 1030.13 1009.29 1034.12 1007.25C1047.92 1000.2 1052.65 1001.23 1047.53 989.07C1035.35 960.15 1022.72 922.73 1000.46 877.5C995.52 867.46 985.84 860.05 978.29 852.58C976.14 850.45 973.4 848.74 970.28 847.6C944.32 838.11 918.37 828.62 892.41 819.13C886.3 816.89 879.26 817.05 873.25 819.46C864.95 822.79 854.13 826.14 841.09 827.9C836.97 828.46 822.31 830.24 803.38 827.9C790.72 826.33 780.04 823.41 771.65 820.41C765.32 818.16 758 818.47 751.91 821.16Z" fill="url(#paint0_radial_87_872)" stroke="#030303" stroke-width="4" stroke-miterlimit="10"/>
<path d="M958.49 1126.82C953.47 1127.01 935.79 1124.43 926.03 1125.16C925.95 1125.16 925.51 1125.17 925.15 1125.45C924.92 1125.63 924.79 1125.88 924.79 1126.15V1140.31C924.79 1140.86 925.35 1141.3 926.04 1141.31C933.63 1141.38 952.36 1143.22 958.84 1143.22" fill="#F58045"/>
<path d="M958.49 1126.82C953.47 1127.01 935.79 1124.43 926.03 1125.16C925.95 1125.16 925.51 1125.17 925.15 1125.45C924.92 1125.63 924.79 1125.88 924.79 1126.15V1140.31C924.79 1140.86 925.35 1141.3 926.04 1141.31C933.63 1141.38 952.36 1143.22 958.84 1143.22" stroke="#010101" stroke-width="4" stroke-miterlimit="10"/>
<path d="M759.28 820.52C760.16 813.35 761.04 806.17 761.92 799C773.37 802.67 795.87 808.02 816.51 808.97C847.39 810.39 865.99 802.79 879.46 798.33C880.48 805.48 881.5 812.62 882.52 819.77C869.55 824.12 847.15 832.51 817.94 832.18C792.38 831.9 771.72 824.52 759.28 820.52Z" fill="url(#paint1_radial_87_872)" stroke="#030303" stroke-width="4" stroke-miterlimit="10"/>
<path d="M804.47 815.17C804.9 815.23 805.33 815.32 805.76 815.46C806.19 815.6 806.55 815.76 806.85 815.95C806.66 816.53 806.57 816.83 806.38 817.41C806.14 817.28 805.86 817.16 805.54 817.05C805.22 816.94 804.9 816.86 804.58 816.82C803.72 816.71 803.01 816.83 802.44 817.19C801.87 817.56 801.52 818.18 801.38 819.08C801.24 819.97 801.39 820.68 801.84 821.2C802.29 821.72 802.97 822.04 803.87 822.16C804.21 822.2 804.55 822.21 804.9 822.18C805.25 822.15 805.56 822.1 805.84 822.03C805.9 822.64 805.93 822.95 805.99 823.56C805.63 823.68 805.21 823.75 804.73 823.78C804.25 823.8 803.78 823.79 803.31 823.72C802.52 823.61 801.84 823.41 801.28 823.1C800.71 822.8 800.26 822.42 799.93 821.97C799.59 821.53 799.37 821.03 799.26 820.47C799.15 819.92 799.15 819.33 799.26 818.72C799.37 818.1 799.56 817.55 799.85 817.07C800.13 816.59 800.5 816.19 800.94 815.87C801.38 815.55 801.89 815.33 802.48 815.2C803.07 815.08 803.73 815.07 804.47 815.17Z" fill="#121313"/>
<path d="M814.11 816.19C814.08 816.84 814.06 817.17 814.03 817.82C813.12 817.78 812.66 817.75 811.75 817.69C811.57 820.37 811.48 821.71 811.3 824.38C810.42 824.32 809.97 824.29 809.09 824.21C809.32 821.54 809.43 820.2 809.66 817.53C808.75 817.45 808.29 817.41 807.38 817.31C807.45 816.66 807.48 816.34 807.55 815.69C810.18 815.96 811.49 816.06 814.11 816.19Z" fill="#121313"/>
<path d="M820.42 824.64C820.4 822.49 820.39 821.41 820.38 819.26C819.09 821.42 818.42 822.5 817.01 824.62C816.12 824.6 815.68 824.59 814.8 824.56C814.93 821.23 814.99 819.56 815.12 816.23C815.94 816.26 816.36 816.27 817.18 816.29C817.14 818.4 817.12 819.45 817.08 821.56C818.45 819.48 819.11 818.43 820.37 816.31C821.2 816.3 821.61 816.3 822.43 816.27C822.52 819.6 822.56 821.27 822.65 824.6C821.75 824.63 821.31 824.64 820.42 824.64Z" fill="#121313"/>
<path d="M827.3 817.67C827.26 818.42 827.25 818.8 827.21 819.55C827.16 820.49 827.05 821.28 826.89 821.92C826.73 822.56 826.52 823.08 826.28 823.48C826.03 823.88 825.76 824.17 825.44 824.36C825.13 824.55 824.81 824.66 824.49 824.7C824.2 824.1 824.06 823.8 823.77 823.2C824.01 823.12 824.22 822.98 824.41 822.8C824.6 822.62 824.76 822.36 824.9 822.04C825.03 821.72 825.15 821.31 825.23 820.83C825.32 820.35 825.37 819.77 825.4 819.09C825.45 817.91 825.47 817.33 825.51 816.15C827.74 816.03 828.85 815.94 831.07 815.71C831.41 819.03 831.59 820.68 831.93 824C831.05 824.09 830.61 824.13 829.72 824.21C829.49 821.54 829.38 820.2 829.15 817.53C828.41 817.59 828.04 817.62 827.3 817.67Z" fill="#121313"/>
<path d="M836.35 818.12C836.93 818.03 837.43 818.03 837.84 818.11C838.25 818.19 838.6 818.32 838.88 818.51C839.16 818.7 839.37 818.93 839.52 819.21C839.67 819.48 839.77 819.77 839.83 820.08C839.91 820.55 839.9 820.97 839.78 821.35C839.66 821.73 839.46 822.06 839.16 822.34C838.87 822.62 838.49 822.86 838.04 823.04C837.59 823.22 837.08 823.36 836.51 823.44C835.38 823.6 834.81 823.67 833.68 823.81C833.29 820.5 833.09 818.84 832.7 815.53C833.52 815.43 833.93 815.38 834.75 815.27C834.92 816.51 835 817.13 835.17 818.37C835.29 818.34 835.45 818.3 835.66 818.25C835.87 818.2 836.1 818.16 836.35 818.12ZM837.72 820.49C837.67 820.18 837.51 819.94 837.25 819.77C836.99 819.6 836.62 819.56 836.15 819.62C836.06 819.63 835.94 819.65 835.79 819.68C835.64 819.71 835.49 819.74 835.37 819.78C835.49 820.67 835.55 821.11 835.67 822C835.93 821.96 836.07 821.95 836.33 821.91C837.38 821.76 837.84 821.28 837.72 820.49Z" fill="#121313"/>
<defs>
<radialGradient id="paint0_radial_87_872" cx="0" cy="0" r="1" gradientUnits="userSpaceOnUse" gradientTransform="translate(830 994.089) scale(204.44 191.826)">
<stop stop-color="white"/>
<stop offset="1" stop-color="#F6F2EF"/>
</radialGradient>
<radialGradient id="paint1_radial_87_872" cx="0" cy="0" r="1" gradientUnits="userSpaceOnUse" gradientTransform="translate(820.903 815.284) scale(45.4016 42.6003)">
<stop stop-color="white"/>
<stop offset="1" stop-color="#F6F2EF"/>
</radialGradient>
</defs>
</svg>
