<svg width="1660" height="1660" viewBox="0 0 1660 1660" fill="none" xmlns="http://www.w3.org/2000/svg">
<path d="M968.27 863.46C951.86 833.09 953.44 832.31 941.01 825.09C934.77 821.47 898.13 805.02 880.45 799.86C859.25 793.67 871.66 798.08 860.76 794.55L829.04 801.22L797.32 794.55C786.43 798.08 800.22 796.68 778.42 800.69C762.32 803.66 731.93 819.71 724.36 825.09C709.57 835.61 711.58 829.48 695.85 861.17C674.69 903.82 668.86 911.32 674.27 917.62C678.23 922.23 677.28 920.13 696.86 926.83C696.86 926.83 696.86 926.83 718.71 935.65C742.89 945.41 724.91 1077.93 681.91 1237.62C680.29 1243.62 683.74 1250.07 689.83 1251.3C728.9 1259.2 780.32 1263.47 819.55 1263.47C825.67 1263.47 833.08 1263.47 839.21 1263.47C878.58 1263.47 931.57 1258.1 974.11 1250.67C980.25 1249.6 984.14 1243.49 982.5 1237.48C938.3 1075.46 913.22 948.02 935.91 937.2C957.33 926.98 961.22 926.83 961.22 926.83C980.8 920.13 980.4 921.76 984.86 917.62C989.46 913.34 990.89 905.35 968.27 863.46Z" fill="#F2D8C4" stroke="black" stroke-width="4" stroke-miterlimit="10"/>
<path d="M741.53 894.21C743.33 909.44 745.13 924.66 746.93 939.89C747.32 943.18 750.56 945.35 753.77 944.47C763.25 941.88 772.73 939.29 782.21 936.69C784.87 935.96 786.59 933.41 786.25 930.68C784.33 915.32 782.4 899.96 780.48 884.6C779.95 880.38 775.56 880.43 773.84 880.06C769.32 879.09 767.58 882.32 760 884.19C752.95 885.93 750.57 884.08 746.73 886.73C744.33 888.39 741.09 890.55 741.53 894.21Z" fill="url(#paint0_radial_87_885)" stroke="#C19774" stroke-width="4" stroke-miterlimit="10"/>
<path d="M815.81 808.38C816.05 864.6 816.28 919.97 816.52 976.19C820.91 980.61 825.31 985.04 829.7 989.46C834.53 985.13 839.36 980.79 844.2 976.46C842.97 920.97 841.74 865.49 840.51 810" fill="url(#paint1_radial_87_885)"/>
<path d="M815.81 808.38C816.05 864.6 816.28 919.97 816.52 976.19C820.91 980.61 825.31 985.04 829.7 989.46C834.53 985.13 839.36 980.79 844.2 976.46C842.97 920.97 841.74 865.49 840.51 810" stroke="#C19774" stroke-width="4" stroke-miterlimit="10"/>
<path d="M832.16 861.35C831.14 863.28 828.74 864.02 826.8 863.01C824.86 862 824.12 859.61 825.13 857.68C826.15 855.75 828.55 855.01 830.49 856.02C832.44 857.03 833.18 859.42 832.16 861.35Z" fill="#F0C8A6" stroke="#C19774" stroke-width="2" stroke-miterlimit="10"/>
<path d="M828.65 909.43C830.843 909.43 832.62 907.666 832.62 905.49C832.62 903.314 830.843 901.55 828.65 901.55C826.457 901.55 824.68 903.314 824.68 905.49C824.68 907.666 826.457 909.43 828.65 909.43Z" fill="#F0C8A6" stroke="#C19774" stroke-width="2" stroke-miterlimit="10"/>
<path d="M830.49 959.49C832.683 959.49 834.46 957.726 834.46 955.55C834.46 953.374 832.683 951.61 830.49 951.61C828.297 951.61 826.52 953.374 826.52 955.55C826.52 957.726 828.297 959.49 830.49 959.49Z" fill="#F0C8A6" stroke="#C19774" stroke-width="2" stroke-miterlimit="10"/>
<path d="M763.51 896.83C762.49 898.76 760.09 899.5 758.15 898.49C756.21 897.48 755.47 895.09 756.48 893.16C757.5 891.23 759.9 890.49 761.84 891.5C763.78 892.52 764.53 894.91 763.51 896.83Z" fill="#F0C8A6" stroke="#C19774" stroke-width="2" stroke-miterlimit="10"/>
<path d="M737.39 1078.1C737.32 1075.33 740.48 1073.09 744.27 1073.24C751.86 1073.55 760.46 1073.55 769.86 1072.98C778.94 1072.43 787.16 1071.44 794.39 1070.29C798.32 1069.66 802.08 1071.74 802.33 1074.67C804.69 1102.98 807.05 1131.29 809.41 1159.61C809.59 1161.82 807.69 1163.84 804.78 1164.48C796.44 1166.3 786.22 1167.99 774.43 1168.82C763.49 1169.59 753.69 1169.44 745.45 1168.92C742.12 1168.71 739.57 1166.68 739.51 1164.24C738.8 1135.53 738.09 1106.81 737.39 1078.1Z" fill="url(#paint2_radial_87_885)" stroke="#C19774" stroke-width="4" stroke-miterlimit="10"/>
<path d="M921.1 1077.2C921.17 1074.37 917.95 1072.08 914.07 1072.23C906.32 1072.54 897.53 1072.55 887.92 1071.97C878.64 1071.41 870.24 1070.4 862.86 1069.22C858.84 1068.58 855 1070.7 854.75 1073.7C852.34 1102.63 849.93 1131.55 847.52 1160.48C847.33 1162.74 849.27 1164.8 852.25 1165.45C860.77 1167.31 871.22 1169.04 883.26 1169.88C894.44 1170.67 904.45 1170.52 912.87 1169.99C916.27 1169.78 918.88 1167.7 918.94 1165.21C919.66 1135.87 920.38 1106.53 921.1 1077.2Z" fill="url(#paint3_radial_87_885)" stroke="#C19774" stroke-width="4" stroke-miterlimit="10"/>
<path d="M914.06 893.86C912.26 909.09 910.46 924.31 908.66 939.54C908.27 942.83 905.03 945 901.82 944.12C892.34 941.53 882.86 938.94 873.38 936.34C870.72 935.61 869 933.06 869.34 930.33C871.26 914.97 873.19 899.61 875.11 884.25C875.64 880.03 880.03 880.08 881.75 879.71C886.27 878.74 888.01 881.97 895.59 883.84C902.64 885.58 905.02 883.73 908.86 886.38C911.26 888.05 914.49 890.21 914.06 893.86Z" fill="url(#paint4_radial_87_885)" stroke="#C19774" stroke-width="4" stroke-miterlimit="10"/>
<path d="M892.08 896.49C893.1 898.42 895.5 899.16 897.44 898.15C899.38 897.14 900.12 894.75 899.11 892.82C898.09 890.89 895.69 890.15 893.75 891.16C891.8 892.18 891.06 894.56 892.08 896.49Z" fill="#F0C8A6" stroke="#C19774" stroke-width="2" stroke-miterlimit="10"/>
<path d="M863.38 1091.2L868.05 1091.49C868.93 1091.55 869.7 1090.93 869.76 1090.12L870.49 1080.31C870.55 1079.5 869.88 1078.79 869 1078.74L864.33 1078.45C863.45 1078.39 862.68 1079.01 862.62 1079.82L861.89 1089.63C861.83 1090.44 862.5 1091.14 863.38 1091.2Z" fill="#F0C8A6" stroke="#C19774" stroke-width="2" stroke-miterlimit="10"/>
<path d="M831.51 799.98C848.72 800.33 865.07 801.24 880.49 802.52C874.54 817.09 868.59 831.67 862.64 846.25C851.61 834.06 840.58 821.88 829.54 809.69L797.88 845.41C791.38 830.5 784.87 815.6 778.37 800.69H778.42C788.16 800.37 810.33 799.54 831.51 799.98Z" fill="url(#paint5_radial_87_885)" stroke="#C19774" stroke-width="4" stroke-miterlimit="10"/>
<path d="M907.75 1093.24L912.42 1093.53C913.3 1093.59 914.07 1092.97 914.13 1092.16L914.86 1082.35C914.92 1081.54 914.25 1080.83 913.37 1080.78L908.7 1080.49C907.82 1080.43 907.05 1081.05 906.99 1081.86L906.26 1091.67C906.2 1092.47 906.87 1093.18 907.75 1093.24Z" fill="#F0C8A6" stroke="#C19774" stroke-width="2" stroke-miterlimit="10"/>
<path d="M870.14 1085C881.25 1087.97 895.67 1088.49 906.65 1086.46" stroke="#C19774" stroke-width="3" stroke-miterlimit="10"/>
<path d="M794.85 1092.53L790.18 1092.82C789.3 1092.88 788.53 1092.26 788.47 1091.45L787.74 1081.64C787.68 1080.83 788.35 1080.12 789.23 1080.07L793.9 1079.78C794.78 1079.72 795.55 1080.34 795.61 1081.15L796.34 1090.96C796.4 1091.77 795.73 1092.48 794.85 1092.53Z" fill="#F0C8A6" stroke="#C19774" stroke-width="2" stroke-miterlimit="10"/>
<path d="M750.49 1094.57L745.82 1094.86C744.94 1094.92 744.17 1094.3 744.11 1093.49L743.38 1083.68C743.32 1082.87 743.99 1082.16 744.87 1082.11L749.54 1081.82C750.42 1081.76 751.19 1082.38 751.25 1083.19L751.98 1093C752.04 1093.81 751.37 1094.52 750.49 1094.57Z" fill="#F0C8A6" stroke="#C19774" stroke-width="2" stroke-miterlimit="10"/>
<path d="M788.1 1086.33C776.99 1089.3 762.57 1089.82 751.59 1087.79" stroke="#C19774" stroke-width="3" stroke-miterlimit="10"/>
<path d="M889.08 1085.83C889.16 1085.77 889.09 1085.67 889.03 1085.63C887.94 1085.01 886.48 1085.53 885.82 1086.52C885.11 1087.54 884.93 1089.04 885.61 1089.94C886.34 1090.93 887.72 1091.02 888.6 1090.08C888.83 1089.87 889.06 1089.58 889.26 1089.34C889.3 1089.28 889.26 1089.34 889.3 1089.41C889.35 1089.46 889.33 1089.42 889.28 1089.4C888.44 1089.19 887.54 1088.88 886.8 1088.42C887.7 1088.66 888.51 1088.77 889.43 1088.85C890.45 1089.12 889.54 1090.16 889.17 1090.62C888.7 1091.21 887.9 1091.73 887 1091.69C882.99 1091.46 883.65 1085.26 887.26 1084.97C887.92 1084.94 888.63 1085.09 889.09 1085.58C889.14 1085.64 889.19 1085.79 889.08 1085.83Z" fill="#595A5A"/>
<path d="M892.22 1086.2C892.3 1086.14 892.23 1086.04 892.17 1086C891.08 1085.38 889.62 1085.9 888.96 1086.89C888.25 1087.91 888.07 1089.41 888.75 1090.31C889.48 1091.3 890.86 1091.39 891.74 1090.45C891.97 1090.24 892.2 1089.95 892.4 1089.71C892.44 1089.65 892.4 1089.71 892.44 1089.78C892.49 1089.83 892.47 1089.79 892.42 1089.77C891.58 1089.56 890.68 1089.25 889.94 1088.79C890.84 1089.03 891.65 1089.14 892.57 1089.22C893.59 1089.49 892.68 1090.53 892.31 1090.99C891.84 1091.58 891.04 1092.1 890.14 1092.06C886.13 1091.83 886.79 1085.63 890.4 1085.34C891.06 1085.31 891.77 1085.46 892.23 1085.95C892.28 1086.02 892.32 1086.16 892.22 1086.2Z" fill="#595A5A"/>
<path d="M889.08 1085.48C889.16 1085.42 889.09 1085.32 889.03 1085.28C887.94 1084.66 886.48 1085.18 885.82 1086.17C885.11 1087.19 884.93 1088.69 885.61 1089.59C886.34 1090.58 887.72 1090.67 888.6 1089.73C888.83 1089.52 889.06 1089.23 889.26 1088.99C889.3 1088.93 889.26 1088.99 889.3 1089.06C889.35 1089.11 889.33 1089.07 889.28 1089.05C888.44 1088.84 887.54 1088.53 886.8 1088.07C887.7 1088.31 888.51 1088.42 889.43 1088.5C890.45 1088.77 889.54 1089.81 889.17 1090.27C888.7 1090.86 887.9 1091.38 887 1091.34C882.99 1091.11 883.65 1084.91 887.26 1084.62C887.92 1084.59 888.63 1084.74 889.09 1085.23C889.14 1085.3 889.19 1085.44 889.08 1085.48Z" fill="#CC8656"/>
<path d="M892.22 1085.86C892.3 1085.8 892.23 1085.7 892.17 1085.66C891.08 1085.04 889.62 1085.56 888.96 1086.55C888.25 1087.57 888.07 1089.07 888.75 1089.97C889.48 1090.96 890.86 1091.05 891.74 1090.11C891.97 1089.9 892.2 1089.61 892.4 1089.37C892.44 1089.31 892.4 1089.37 892.44 1089.44C892.49 1089.49 892.47 1089.45 892.42 1089.43C891.58 1089.22 890.68 1088.91 889.94 1088.45C890.84 1088.69 891.65 1088.8 892.57 1088.88C893.59 1089.15 892.68 1090.19 892.31 1090.65C891.84 1091.24 891.04 1091.76 890.14 1091.72C886.13 1091.49 886.79 1085.29 890.4 1085C891.06 1084.97 891.77 1085.12 892.23 1085.61C892.28 1085.67 892.32 1085.81 892.22 1085.86Z" fill="#DD9361"/>
<path d="M769.96 1086.88C770.03 1086.81 769.95 1086.72 769.89 1086.68C768.74 1086.18 767.34 1086.85 766.79 1087.91C766.2 1089 766.17 1090.51 766.95 1091.34C767.78 1092.24 769.16 1092.19 769.94 1091.16C770.15 1090.92 770.35 1090.61 770.51 1090.36C770.54 1090.3 770.51 1090.36 770.56 1090.42C770.61 1090.47 770.59 1090.42 770.53 1090.41C769.67 1090.29 768.74 1090.08 767.96 1089.7C768.88 1089.85 769.7 1089.86 770.62 1089.84C771.67 1089.99 770.87 1091.13 770.55 1091.63C770.14 1092.27 769.4 1092.87 768.51 1092.93C764.5 1093.13 764.49 1086.89 768.05 1086.22C768.7 1086.12 769.42 1086.19 769.93 1086.63C770 1086.69 770.06 1086.83 769.96 1086.88Z" fill="#595A5A"/>
<path d="M773.12 1086.92C773.19 1086.85 773.11 1086.76 773.05 1086.72C771.9 1086.22 770.5 1086.89 769.95 1087.95C769.36 1089.04 769.33 1090.55 770.11 1091.38C770.94 1092.28 772.32 1092.23 773.1 1091.2C773.31 1090.96 773.51 1090.65 773.67 1090.4C773.7 1090.34 773.67 1090.4 773.72 1090.46C773.77 1090.51 773.75 1090.46 773.69 1090.45C772.83 1090.33 771.9 1090.12 771.12 1089.74C772.04 1089.89 772.86 1089.9 773.78 1089.88C774.83 1090.03 774.03 1091.17 773.71 1091.67C773.3 1092.31 772.56 1092.91 771.67 1092.97C767.66 1093.17 767.65 1086.93 771.21 1086.26C771.86 1086.16 772.58 1086.23 773.09 1086.67C773.16 1086.73 773.22 1086.87 773.12 1086.92Z" fill="#595A5A"/>
<path d="M769.92 1086.54C769.99 1086.47 769.91 1086.38 769.85 1086.34C768.7 1085.84 767.3 1086.51 766.75 1087.57C766.16 1088.66 766.13 1090.17 766.91 1091C767.74 1091.9 769.12 1091.85 769.9 1090.82C770.11 1090.58 770.31 1090.27 770.47 1090.02C770.5 1089.96 770.47 1090.02 770.52 1090.08C770.57 1090.13 770.55 1090.08 770.49 1090.07C769.63 1089.95 768.7 1089.74 767.92 1089.36C768.84 1089.51 769.66 1089.52 770.58 1089.5C771.63 1089.65 770.83 1090.79 770.51 1091.29C770.1 1091.93 769.36 1092.53 768.47 1092.59C764.46 1092.79 764.45 1086.55 768.01 1085.88C768.66 1085.78 769.38 1085.85 769.89 1086.29C769.96 1086.35 770.02 1086.49 769.92 1086.54Z" fill="#CC8656"/>
<path d="M773.08 1086.57C773.15 1086.5 773.07 1086.41 773.01 1086.37C771.86 1085.87 770.46 1086.54 769.91 1087.6C769.32 1088.69 769.29 1090.2 770.07 1091.03C770.9 1091.93 772.28 1091.88 773.06 1090.85C773.27 1090.61 773.47 1090.3 773.63 1090.05C773.66 1089.99 773.63 1090.05 773.68 1090.11C773.73 1090.16 773.71 1090.11 773.65 1090.1C772.79 1089.98 771.86 1089.77 771.08 1089.39C772 1089.54 772.82 1089.55 773.74 1089.53C774.79 1089.68 773.99 1090.82 773.67 1091.32C773.26 1091.96 772.52 1092.56 771.63 1092.62C767.62 1092.82 767.61 1086.58 771.17 1085.91C771.82 1085.81 772.54 1085.88 773.05 1086.32C773.12 1086.38 773.18 1086.52 773.08 1086.57Z" fill="#DD9361"/>
<path d="M830.59 954.2C830.64 954.11 830.5 954.08 830.43 954.05C829.86 953.89 829.22 954.21 828.95 954.72C828.21 955.95 829.41 957.64 830.58 956.39C830.69 956.27 830.79 956.11 830.88 955.98C830.9 955.95 830.88 955.97 830.9 956C830.92 956.02 830.91 956 830.88 955.99C830.44 955.94 829.96 955.83 829.56 955.63C829.92 955.68 830.28 955.72 830.64 955.71C831.46 955.63 831.18 956.16 830.89 956.62C830.47 957.4 829.26 957.51 828.67 956.82C828.08 956.13 828.18 955.16 828.63 954.51C829.02 953.93 829.83 953.63 830.46 953.98C830.53 954.02 830.68 954.11 830.59 954.2Z" fill="#595A5A"/>
<path d="M832.21 954.21C832.26 954.12 832.12 954.09 832.05 954.06C831.48 953.9 830.84 954.22 830.57 954.73C829.83 955.95 831.03 957.65 832.2 956.4C832.31 956.28 832.41 956.12 832.5 955.99C832.52 955.96 832.5 955.98 832.52 956.01C832.54 956.03 832.53 956.01 832.5 956C832.06 955.95 831.58 955.84 831.18 955.64C831.54 955.69 831.9 955.73 832.26 955.72C833.08 955.64 832.8 956.17 832.51 956.63C832.09 957.41 830.88 957.52 830.29 956.83C829.7 956.14 829.8 955.17 830.25 954.52C830.64 953.94 831.45 953.64 832.08 953.99C832.15 954.04 832.3 954.12 832.21 954.21Z" fill="#595A5A"/>
<path d="M830.57 954.02C830.62 953.93 830.48 953.9 830.41 953.87C829.84 953.71 829.2 954.03 828.93 954.54C828.19 955.76 829.39 957.46 830.56 956.21C830.67 956.09 830.77 955.93 830.86 955.8C830.88 955.77 830.86 955.79 830.88 955.82C830.9 955.84 830.89 955.82 830.86 955.81C830.42 955.76 829.94 955.65 829.54 955.45C829.9 955.5 830.26 955.54 830.62 955.53C831.44 955.45 831.16 955.98 830.87 956.44C830.45 957.22 829.24 957.33 828.65 956.64C828.06 955.95 828.16 954.98 828.61 954.33C829 953.75 829.81 953.45 830.44 953.8C830.51 953.84 830.66 953.93 830.57 954.02Z" fill="#CC8656"/>
<path d="M832.19 954.04C832.24 953.95 832.1 953.92 832.03 953.89C831.46 953.73 830.82 954.05 830.55 954.56C829.81 955.79 831.01 957.48 832.18 956.23C832.29 956.11 832.39 955.95 832.48 955.82C832.5 955.79 832.48 955.81 832.5 955.84C832.52 955.86 832.51 955.84 832.48 955.83C832.04 955.78 831.56 955.67 831.16 955.47C831.52 955.52 831.88 955.56 832.24 955.55C833.06 955.47 832.78 956 832.49 956.46C832.07 957.24 830.86 957.35 830.27 956.66C829.68 955.97 829.78 955 830.23 954.35C830.62 953.77 831.43 953.47 832.06 953.82C832.13 953.86 832.28 953.95 832.19 954.04Z" fill="#DD9361"/>
<path d="M828.67 904.27C828.72 904.18 828.58 904.15 828.51 904.12C827.94 903.96 827.3 904.28 827.03 904.79C826.29 906.01 827.49 907.71 828.66 906.46C828.77 906.34 828.87 906.18 828.96 906.05C828.98 906.02 828.96 906.04 828.98 906.07C829 906.09 828.99 906.07 828.96 906.06C828.52 906.01 828.04 905.9 827.64 905.7C828 905.75 828.36 905.79 828.72 905.78C829.54 905.7 829.26 906.23 828.97 906.69C828.55 907.47 827.34 907.58 826.75 906.89C826.16 906.2 826.26 905.23 826.71 904.58C827.1 904 827.91 903.7 828.54 904.05C828.61 904.1 828.75 904.19 828.67 904.27Z" fill="#595A5A"/>
<path d="M830.29 904.29C830.34 904.2 830.2 904.17 830.13 904.14C829.56 903.98 828.92 904.3 828.65 904.81C827.91 906.03 829.11 907.73 830.28 906.48C830.39 906.36 830.49 906.2 830.58 906.07C830.6 906.04 830.58 906.06 830.6 906.09C830.62 906.11 830.61 906.09 830.58 906.08C830.14 906.03 829.66 905.92 829.26 905.72C829.73 905.8 830.15 905.8 830.62 905.8C831.15 905.88 830.73 906.45 830.58 906.71C830.16 907.49 828.95 907.6 828.36 906.91C827.77 906.22 827.87 905.25 828.32 904.6C828.71 904.02 829.52 903.72 830.15 904.07C830.23 904.12 830.37 904.2 830.29 904.29Z" fill="#595A5A"/>
<path d="M828.65 904.1C828.7 904.01 828.56 903.98 828.49 903.95C827.92 903.79 827.28 904.11 827.01 904.62C826.27 905.84 827.47 907.54 828.64 906.29C828.75 906.17 828.85 906.01 828.94 905.88C828.96 905.85 828.94 905.87 828.96 905.9C828.98 905.92 828.97 905.9 828.94 905.89C828.5 905.84 828.02 905.73 827.62 905.53C827.98 905.58 828.34 905.62 828.7 905.61C829.52 905.53 829.24 906.06 828.95 906.52C828.53 907.3 827.32 907.41 826.73 906.72C826.14 906.03 826.24 905.06 826.69 904.41C827.08 903.83 827.89 903.53 828.52 903.88C828.59 903.92 828.74 904.01 828.65 904.1Z" fill="#CC8656"/>
<path d="M830.27 904.11C830.32 904.02 830.18 903.99 830.11 903.96C829.54 903.8 828.9 904.12 828.63 904.63C827.89 905.85 829.09 907.55 830.26 906.3C830.37 906.18 830.47 906.02 830.56 905.89C830.58 905.86 830.56 905.88 830.58 905.91C830.6 905.93 830.59 905.91 830.56 905.9C830.12 905.85 829.64 905.74 829.24 905.54C829.71 905.62 830.13 905.62 830.6 905.62C831.13 905.7 830.71 906.27 830.56 906.53C830.14 907.31 828.93 907.42 828.34 906.73C827.75 906.04 827.85 905.07 828.3 904.42C828.69 903.84 829.5 903.54 830.13 903.89C830.21 903.94 830.36 904.03 830.27 904.11Z" fill="#DD9361"/>
<path d="M828.67 858.3C828.72 858.21 828.58 858.18 828.51 858.15C827.94 857.99 827.3 858.31 827.03 858.82C826.29 860.05 827.49 861.74 828.66 860.49C828.77 860.37 828.87 860.21 828.96 860.08C828.98 860.05 828.96 860.07 828.98 860.1C829 860.12 828.99 860.1 828.96 860.09C828.52 860.04 828.04 859.93 827.64 859.73C828.44 859.96 829.89 859.37 828.96 860.71C828.54 861.49 827.33 861.6 826.74 860.91C826.15 860.22 826.25 859.25 826.7 858.6C827.09 858.02 827.9 857.72 828.53 858.07C828.61 858.12 828.75 858.21 828.67 858.3Z" fill="#595A5A"/>
<path d="M830.29 858.31C830.34 858.22 830.2 858.19 830.13 858.16C829.56 858 828.92 858.32 828.65 858.83C827.91 860.05 829.11 861.75 830.28 860.5C830.39 860.38 830.49 860.22 830.58 860.09C830.6 860.06 830.58 860.08 830.6 860.11C830.62 860.13 830.61 860.11 830.58 860.1C830.14 860.05 829.66 859.94 829.26 859.74C829.62 859.79 829.98 859.83 830.34 859.82C831.16 859.74 830.88 860.27 830.59 860.73C830.17 861.51 828.96 861.62 828.37 860.93C827.78 860.24 827.88 859.27 828.33 858.62C828.72 858.04 829.53 857.74 830.16 858.09C830.23 858.14 830.37 858.22 830.29 858.31Z" fill="#595A5A"/>
<path d="M828.65 858.12C828.7 858.03 828.56 858 828.49 857.97C827.92 857.81 827.28 858.13 827.01 858.64C826.27 859.87 827.47 861.56 828.64 860.31C828.75 860.19 828.85 860.03 828.94 859.9C828.96 859.87 828.94 859.89 828.96 859.92C828.98 859.94 828.97 859.92 828.94 859.91C828.5 859.86 828.02 859.75 827.62 859.55C828.09 859.63 828.51 859.63 828.98 859.63C829.51 859.71 829.09 860.28 828.94 860.54C828.52 861.32 827.31 861.43 826.72 860.74C826.13 860.05 826.23 859.08 826.68 858.43C827.07 857.85 827.88 857.55 828.51 857.9C828.59 857.94 828.74 858.03 828.65 858.12Z" fill="#CC8656"/>
<path d="M830.27 858.14C830.32 858.05 830.18 858.02 830.11 857.99C829.54 857.83 828.9 858.15 828.63 858.66C827.89 859.88 829.09 861.58 830.26 860.33C830.37 860.21 830.47 860.05 830.56 859.92C830.58 859.89 830.56 859.91 830.58 859.94C830.6 859.96 830.59 859.94 830.56 859.93C830.12 859.88 829.64 859.77 829.24 859.57C829.6 859.62 829.96 859.66 830.32 859.65C831.14 859.57 830.86 860.1 830.57 860.56C830.15 861.34 828.94 861.45 828.35 860.76C827.76 860.07 827.86 859.1 828.31 858.45C828.7 857.87 829.51 857.57 830.14 857.92C830.21 857.96 830.36 858.05 830.27 858.14Z" fill="#DD9361"/>
<path d="M895.86 893.46C895.93 893.38 895.8 893.32 895.74 893.28C895.22 893 894.52 893.18 894.16 893.62C893.17 894.66 893.99 896.57 895.39 895.6C895.52 895.5 895.66 895.37 895.77 895.26C895.79 895.23 895.77 895.26 895.79 895.29C895.81 895.31 895.8 895.29 895.77 895.28C895.35 895.13 894.91 894.92 894.56 894.65C894.9 894.78 895.25 894.89 895.6 894.95C896.42 895.05 896.03 895.51 895.65 895.89C895.08 896.56 893.87 896.41 893.44 895.61C893.01 894.81 893.31 893.88 893.89 893.34C894.39 892.86 895.25 892.74 895.79 893.21C895.83 893.27 895.96 893.39 895.86 893.46Z" fill="#595A5A"/>
<path d="M897.44 893.82C897.51 893.74 897.38 893.68 897.32 893.64C896.8 893.36 896.1 893.54 895.74 893.98C894.76 895.02 895.57 896.93 896.97 895.96C897.1 895.86 897.24 895.73 897.35 895.62C897.37 895.59 897.35 895.62 897.37 895.65C897.39 895.67 897.38 895.65 897.35 895.64C896.93 895.49 896.49 895.28 896.14 895.01C896.48 895.14 896.83 895.25 897.18 895.31C898 895.41 897.61 895.87 897.23 896.25C896.66 896.92 895.45 896.77 895.02 895.97C894.59 895.17 894.89 894.24 895.47 893.7C895.97 893.22 896.83 893.1 897.37 893.57C897.41 893.63 897.54 893.75 897.44 893.82Z" fill="#595A5A"/>
<path d="M895.88 893.28C895.95 893.2 895.82 893.14 895.76 893.1C895.24 892.82 894.54 893 894.18 893.44C893.19 894.48 894.01 896.39 895.41 895.42C895.54 895.32 895.68 895.19 895.79 895.08C895.81 895.05 895.79 895.08 895.81 895.11C895.83 895.14 895.82 895.11 895.79 895.1C895.37 894.95 894.93 894.74 894.58 894.47C895.31 894.87 896.85 894.6 895.66 895.71C895.09 896.38 893.88 896.23 893.45 895.43C893.02 894.63 893.32 893.7 893.9 893.16C894.4 892.68 895.26 892.56 895.8 893.03C895.85 893.1 895.98 893.21 895.88 893.28Z" fill="#CC8656"/>
<path d="M897.46 893.64C897.53 893.56 897.4 893.5 897.34 893.46C896.82 893.18 896.12 893.36 895.76 893.8C894.78 894.84 895.59 896.75 896.99 895.78C897.12 895.68 897.26 895.55 897.37 895.44C897.39 895.41 897.37 895.44 897.39 895.47C897.41 895.49 897.4 895.47 897.37 895.46C896.95 895.31 896.51 895.1 896.16 894.83C896.5 894.96 896.85 895.07 897.2 895.13C898.02 895.23 897.63 895.69 897.25 896.07C896.68 896.74 895.47 896.59 895.04 895.79C894.61 894.99 894.91 894.06 895.49 893.52C895.99 893.04 896.85 892.92 897.39 893.39C897.43 893.46 897.56 893.57 897.46 893.64Z" fill="#DD9361"/>
<path d="M759.75 893.86C759.77 893.76 759.63 893.77 759.56 893.77C758.97 893.78 758.45 894.28 758.34 894.84C757.99 896.23 759.64 897.49 760.39 895.96C760.46 895.81 760.51 895.63 760.55 895.48C760.56 895.45 760.55 895.47 760.58 895.49C760.22 895.55 759.62 895.61 759.19 895.53C760.02 895.52 761.24 894.53 760.74 896.08C759.91 898.27 757.27 896.67 757.96 894.72C758.17 894.05 758.85 893.53 759.55 893.68C759.64 893.71 759.8 893.75 759.75 893.86Z" fill="#595A5A"/>
<path d="M761.31 893.41C761.33 893.31 761.19 893.32 761.12 893.32C760.53 893.33 760.01 893.83 759.9 894.39C759.55 895.78 761.2 897.04 761.95 895.51C762.02 895.36 762.07 895.18 762.11 895.03C762.12 895 762.11 895.02 762.14 895.04C761.78 895.1 761.18 895.16 760.75 895.09C761.58 895.08 762.8 894.09 762.3 895.64C761.47 897.83 758.83 896.23 759.52 894.28C759.73 893.61 760.41 893.09 761.11 893.24C761.19 893.26 761.36 893.3 761.31 893.41Z" fill="#595A5A"/>
<path d="M759.68 893.7C759.7 893.6 759.56 893.61 759.49 893.61C758.9 893.62 758.38 894.12 758.27 894.68C757.92 896.07 759.57 897.33 760.32 895.8C760.39 895.65 760.44 895.47 760.48 895.32C760.49 895.29 760.48 895.31 760.51 895.33C760.15 895.39 759.55 895.45 759.12 895.37C759.95 895.36 761.17 894.37 760.67 895.92C759.84 898.11 757.2 896.51 757.89 894.56C758.1 893.89 758.78 893.37 759.48 893.52C759.57 893.55 759.73 893.59 759.68 893.7Z" fill="#CC8656"/>
<path d="M761.24 893.24C761.26 893.14 761.12 893.15 761.05 893.15C760.46 893.16 759.94 893.66 759.83 894.22C759.48 895.61 761.13 896.87 761.88 895.34C761.95 895.19 762 895.01 762.04 894.86C762.05 894.83 762.04 894.85 762.07 894.87C761.71 894.93 761.11 894.99 760.68 894.92C761.51 894.91 762.73 893.92 762.23 895.47C761.4 897.66 758.76 896.06 759.45 894.11C759.66 893.44 760.34 892.92 761.04 893.07C761.12 893.09 761.29 893.13 761.24 893.24Z" fill="#DD9361"/>
<path d="M719.5 907.15C724.2 926.18 727.94 946.55 728.91 963.03" stroke="black" stroke-width="4" stroke-miterlimit="10"/>
<path d="M936.4 907.15C931.7 926.18 927.96 946.55 926.99 963.03" stroke="black" stroke-width="4" stroke-miterlimit="10"/>
<defs>
<radialGradient id="paint0_radial_87_885" cx="0" cy="0" r="1" gradientUnits="userSpaceOnUse" gradientTransform="translate(763.884 912.276) scale(27.8435)">
<stop stop-color="#F2D8C4"/>
<stop offset="0.3659" stop-color="#F1D4BC"/>
<stop offset="0.9535" stop-color="#F0C9A8"/>
<stop offset="1" stop-color="#F0C8A6"/>
</radialGradient>
<radialGradient id="paint1_radial_87_885" cx="0" cy="0" r="1" gradientUnits="userSpaceOnUse" gradientTransform="translate(830 898.924) scale(64.8044)">
<stop stop-color="#F2D8C4"/>
<stop offset="0.3659" stop-color="#F1D4BC"/>
<stop offset="0.9535" stop-color="#F0C9A8"/>
<stop offset="1" stop-color="#F0C8A6"/>
</radialGradient>
<radialGradient id="paint2_radial_87_885" cx="0" cy="0" r="1" gradientUnits="userSpaceOnUse" gradientTransform="translate(773.402 1119.76) scale(43.3363)">
<stop stop-color="#F2D8C4"/>
<stop offset="0.3659" stop-color="#F1D4BC"/>
<stop offset="0.9535" stop-color="#F0C9A8"/>
<stop offset="1" stop-color="#F0C8A6"/>
</radialGradient>
<radialGradient id="paint3_radial_87_885" cx="0" cy="0" r="1" gradientUnits="userSpaceOnUse" gradientTransform="translate(884.304 1119.76) scale(44.2749)">
<stop stop-color="#F2D8C4"/>
<stop offset="0.3659" stop-color="#F1D4BC"/>
<stop offset="0.9535" stop-color="#F0C9A8"/>
<stop offset="1" stop-color="#F0C8A6"/>
</radialGradient>
<radialGradient id="paint4_radial_87_885" cx="0" cy="0" r="1" gradientUnits="userSpaceOnUse" gradientTransform="translate(891.703 911.933) scale(27.8435)">
<stop stop-color="#F2D8C4"/>
<stop offset="0.3659" stop-color="#F1D4BC"/>
<stop offset="0.9535" stop-color="#F0C9A8"/>
<stop offset="1" stop-color="#F0C8A6"/>
</radialGradient>
<radialGradient id="paint5_radial_87_885" cx="0" cy="0" r="1" gradientUnits="userSpaceOnUse" gradientTransform="translate(829.426 823.052) scale(39.6545)">
<stop stop-color="#F2D8C4"/>
<stop offset="0.3659" stop-color="#F1D4BC"/>
<stop offset="0.9535" stop-color="#F0C9A8"/>
<stop offset="1" stop-color="#F0C8A6"/>
</radialGradient>
</defs>
</svg>
