<svg width="1660" height="1660" viewBox="0 0 1660 1660" fill="none" xmlns="http://www.w3.org/2000/svg">
<path opacity="0.76" d="M857.34 580.7C879.58 553.1 901.71 542.78 917.89 538.48C949.82 529.98 984.8 537.94 992.06 523.45C996.99 513.59 995.79 502.03 995.79 502.03C995.26 497.15 994.02 494.96 994.96 490.76C996.96 481.85 1006.11 475.85 1007.8 476.86C1009.3 477.75 1004.06 483.55 1006.56 490.39C1007.71 493.55 1010.64 497.28 1013.6 497.15C1018.06 496.96 1020.77 488.14 1021.47 485.88C1026.21 470.5 1017.55 464.25 1022.3 457.7C1026.29 452.21 1033.15 455.55 1058.35 447.55C1065.98 445.13 1071.18 442.97 1074.09 438.16C1074.09 438.16 1074.85 436.52 1075.75 425.76C1076.65 424.49 1077.93 423.13 1079.48 423.13C1083.88 423.13 1090.11 434.2 1087.35 443.04C1085.01 450.54 1076.79 454.55 1070.36 457.69C1060.22 462.64 1055.5 461.17 1048.4 467.08C1045.79 469.26 1040.67 473.52 1041.77 478.35C1042.54 481.73 1046.23 484.89 1050.06 485.11C1057.48 485.54 1062.21 474.72 1064.56 475.72C1066.66 476.6 1066.56 486.71 1060 491.88C1052.83 497.53 1043.76 492.67 1039.28 497.89C1035.94 501.79 1036.64 509.56 1041.77 513.3C1045.71 516.17 1051.96 516.42 1055.86 514.05C1061.06 510.89 1058.75 505.12 1065.39 499.4C1068.2 496.97 1068.77 497.88 1072.43 495.27C1081.27 488.97 1083.86 479.53 1084.86 479.86C1085.81 480.18 1081.68 487.94 1085.27 491.51C1086.64 492.87 1089.3 493.8 1091.07 493.01C1095.54 491.04 1089.5 480.32 1092.73 466.33C1093.31 463.79 1096.56 449.72 1109.72 442.66C1115.44 439.59 1118.67 441.92 1122.15 438.9C1130.17 431.95 1122 415.53 1124.22 414.85C1126.1 414.28 1135.87 424.83 1133.34 435.14C1130.96 444.81 1120.11 444.64 1114.28 456.56C1109.15 467.06 1112 478.57 1114.69 479.1C1116.58 479.47 1118.04 474.37 1123.39 473.46C1125.89 473.04 1129.04 473.57 1129.61 474.96C1130.32 476.69 1126.49 478.43 1123.81 482.1C1119.76 487.63 1122.3 492.06 1120.91 497.88C1118.13 509.48 1102.39 515.56 1101.44 515.92C1087.87 520.98 1081.23 513.29 1067.88 519.3C1061.31 522.26 1053.81 528.23 1055.04 532.45C1055.65 534.53 1058.41 536.32 1060.84 536.21C1064.3 536.06 1064.71 532.17 1069.96 528.69C1074.29 525.82 1080.86 523.93 1083.22 526.06C1084.69 527.39 1084.19 529.97 1083.63 531.32C1081.87 535.58 1074.1 533.02 1071.2 536.96C1069.21 539.66 1070 544.28 1072.86 546.73C1076.5 549.84 1082.26 548.38 1082.8 548.23C1089.95 546.31 1089.55 539.71 1097.3 530.95C1100.07 527.81 1111.14 515.3 1123.82 515.92C1128.77 516.16 1133.21 518.37 1136.66 515.92C1139.61 513.82 1139.63 509.89 1141.22 509.91C1142.59 509.93 1143.71 512.88 1144.12 514.79C1144.96 518.69 1144.3 524.87 1139.98 527.94C1135 531.48 1130.67 527 1122.99 529.44C1114.59 532.11 1109.27 540.82 1107.66 547.48C1105.87 554.9 1109.19 557.67 1106.42 562.51C1103.09 568.33 1095.36 569.44 1089.85 571.15C1072.83 576.45 1072.11 588.92 1050.9 610.6C1047.49 614.08 1034.7 626.86 1015.68 638.41C1000.38 647.7 986.61 656.06 968.03 658.32C929.01 663.07 897.86 637.37 891.38 632.02C869.18 613.73 860.69 591.93 857.34 580.7Z" fill="url(#paint0_linear_87_19785)" stroke="#F15E2D" stroke-miterlimit="10"/>
<path d="M857.34 580.7C879.58 553.1 901.71 542.78 917.89 538.48C949.82 529.98 984.8 537.94 992.06 523.45C996.99 513.59 995.79 502.03 995.79 502.03C995.26 497.15 994.02 494.96 994.96 490.76C996.96 481.85 1006.11 475.85 1007.8 476.86C1009.3 477.75 1004.06 483.55 1006.56 490.39C1007.71 493.55 1010.64 497.28 1013.6 497.15C1018.06 496.96 1020.77 488.14 1021.47 485.88C1026.21 470.5 1017.55 464.25 1022.3 457.7C1026.29 452.21 1033.15 455.55 1058.35 447.55C1065.98 445.13 1071.18 442.97 1074.09 438.16C1074.09 438.16 1074.85 436.52 1075.75 425.76C1076.65 424.49 1077.93 423.13 1079.48 423.13C1083.88 423.13 1090.11 434.2 1087.35 443.04C1085.01 450.54 1076.79 454.55 1070.36 457.69C1060.22 462.64 1055.5 461.17 1048.4 467.08C1045.79 469.26 1040.67 473.52 1041.77 478.35C1042.54 481.73 1046.23 484.89 1050.06 485.11C1057.48 485.54 1062.21 474.72 1064.56 475.72C1066.66 476.6 1066.56 486.71 1060 491.88C1052.83 497.53 1043.76 492.67 1039.28 497.89C1035.94 501.79 1036.64 509.56 1041.77 513.3C1045.71 516.17 1051.96 516.42 1055.86 514.05C1061.06 510.89 1058.75 505.12 1065.39 499.4C1068.2 496.97 1068.77 497.88 1072.43 495.27C1081.27 488.97 1083.86 479.53 1084.86 479.86C1085.81 480.18 1081.68 487.94 1085.27 491.51C1086.64 492.87 1089.3 493.8 1091.07 493.01C1095.54 491.04 1089.5 480.32 1092.73 466.33C1093.31 463.79 1096.56 449.72 1109.72 442.66C1115.44 439.59 1118.67 441.92 1122.15 438.9C1130.17 431.95 1122 415.53 1124.22 414.85C1126.1 414.28 1135.87 424.83 1133.34 435.14C1130.96 444.81 1120.11 444.64 1114.28 456.56C1109.15 467.06 1112 478.57 1114.69 479.1C1116.58 479.47 1118.04 474.37 1123.39 473.46C1125.89 473.04 1129.04 473.57 1129.61 474.96C1130.32 476.69 1126.49 478.43 1123.81 482.1C1119.76 487.63 1122.3 492.06 1120.91 497.88C1118.13 509.48 1102.39 515.56 1101.44 515.92C1087.87 520.98 1081.23 513.29 1067.88 519.3C1061.31 522.26 1053.81 528.23 1055.04 532.45C1055.65 534.53 1058.41 536.32 1060.84 536.21C1064.3 536.06 1064.71 532.17 1069.96 528.69C1074.29 525.82 1080.86 523.93 1083.22 526.06C1084.69 527.39 1084.19 529.97 1083.63 531.32C1081.87 535.58 1074.1 533.02 1071.2 536.96C1069.21 539.66 1070 544.28 1072.86 546.73C1076.5 549.84 1082.26 548.38 1082.8 548.23C1089.95 546.31 1089.55 539.71 1097.3 530.95C1100.07 527.81 1111.14 515.3 1123.82 515.92C1128.77 516.16 1133.21 518.37 1136.66 515.92C1139.61 513.82 1139.63 509.89 1141.22 509.91C1142.59 509.93 1143.71 512.88 1144.12 514.79C1144.96 518.69 1144.3 524.87 1139.98 527.94C1135 531.48 1130.67 527 1122.99 529.44C1114.59 532.11 1109.27 540.82 1107.66 547.48C1105.87 554.9 1109.19 557.67 1106.42 562.51C1103.09 568.33 1095.36 569.44 1089.85 571.15C1072.83 576.45 1072.11 588.92 1050.9 610.6C1047.49 614.08 1034.7 626.86 1015.68 638.41C1000.38 647.7 986.61 656.06 968.03 658.32C929.01 663.07 897.86 637.37 891.38 632.02C869.18 613.73 860.69 591.93 857.34 580.7Z" stroke="#F15E2D" stroke-width="4" stroke-miterlimit="10"/>
<path opacity="0.76" d="M802.66 580.7C780.42 553.1 758.29 542.78 742.11 538.48C710.18 529.98 675.2 537.94 667.94 523.45C663.01 513.59 664.21 502.03 664.21 502.03C664.74 497.15 665.98 494.96 665.04 490.76C663.04 481.85 653.89 475.85 652.2 476.86C650.7 477.75 655.94 483.55 653.44 490.39C652.29 493.55 649.36 497.28 646.4 497.15C641.94 496.96 639.23 488.14 638.53 485.88C633.79 470.5 642.45 464.25 637.7 457.7C633.71 452.21 626.85 455.55 601.65 447.55C594.02 445.13 588.82 442.97 585.91 438.16C585.91 438.16 585.15 436.52 584.25 425.76C583.35 424.49 582.07 423.13 580.52 423.13C576.12 423.13 569.89 434.2 572.65 443.04C574.99 450.54 583.21 454.55 589.64 457.69C599.78 462.64 604.5 461.17 611.6 467.08C614.21 469.26 619.33 473.52 618.23 478.35C617.46 481.73 613.77 484.89 609.94 485.11C602.52 485.54 597.79 474.72 595.44 475.72C593.34 476.6 593.44 486.71 600 491.88C607.17 497.53 616.24 492.67 620.72 497.89C624.06 501.79 623.36 509.56 618.23 513.3C614.29 516.17 608.04 516.42 604.14 514.05C598.94 510.89 601.25 505.12 594.61 499.4C591.8 496.97 591.23 497.88 587.57 495.27C578.73 488.97 576.14 479.53 575.14 479.86C574.19 480.18 578.32 487.94 574.73 491.51C573.36 492.87 570.7 493.8 568.93 493.01C564.46 491.04 570.5 480.32 567.27 466.33C566.69 463.79 563.44 449.72 550.28 442.66C544.56 439.59 541.33 441.92 537.85 438.9C529.83 431.95 538 415.53 535.78 414.85C533.9 414.28 524.13 424.83 526.66 435.14C529.04 444.81 539.89 444.64 545.72 456.56C550.85 467.06 548 478.57 545.31 479.1C543.42 479.47 541.96 474.37 536.61 473.46C534.11 473.04 530.96 473.57 530.39 474.96C529.68 476.69 533.51 478.43 536.19 482.1C540.24 487.63 537.7 492.06 539.09 497.88C541.87 509.48 557.61 515.56 558.56 515.92C572.13 520.98 578.77 513.29 592.12 519.3C598.69 522.26 606.19 528.23 604.96 532.45C604.35 534.53 601.59 536.32 599.16 536.21C595.7 536.06 595.29 532.17 590.04 528.69C585.71 525.82 579.14 523.93 576.78 526.06C575.31 527.39 575.81 529.97 576.37 531.32C578.13 535.58 585.9 533.02 588.8 536.96C590.79 539.66 590 544.28 587.14 546.73C583.5 549.84 577.74 548.38 577.2 548.23C570.05 546.31 570.45 539.71 562.7 530.95C559.93 527.81 548.86 515.3 536.18 515.92C531.23 516.16 526.79 518.37 523.34 515.92C520.39 513.82 520.37 509.89 518.78 509.91C517.41 509.93 516.29 512.88 515.88 514.79C515.04 518.69 515.7 524.87 520.02 527.94C525 531.48 529.33 527 537.01 529.44C545.41 532.11 550.73 540.82 552.34 547.48C554.13 554.9 550.81 557.67 553.58 562.51C556.91 568.33 564.64 569.44 570.15 571.15C587.17 576.45 587.89 588.92 609.1 610.6C612.51 614.08 625.3 626.86 644.32 638.41C659.62 647.7 673.39 656.06 691.97 658.32C730.99 663.07 762.14 637.37 768.62 632.02C790.82 613.73 799.31 591.93 802.66 580.7Z" fill="url(#paint1_linear_87_19785)" stroke="#F15E2D" stroke-miterlimit="10"/>
<path d="M802.66 580.7C780.42 553.1 758.29 542.78 742.11 538.48C710.18 529.98 675.2 537.94 667.94 523.45C663.01 513.59 664.21 502.03 664.21 502.03C664.74 497.15 665.98 494.96 665.04 490.76C663.04 481.85 653.89 475.85 652.2 476.86C650.7 477.75 655.94 483.55 653.44 490.39C652.29 493.55 649.36 497.28 646.4 497.15C641.94 496.96 639.23 488.14 638.53 485.88C633.79 470.5 642.45 464.25 637.7 457.7C633.71 452.21 626.85 455.55 601.65 447.55C594.02 445.13 588.82 442.97 585.91 438.16C585.91 438.16 585.15 436.52 584.25 425.76C583.35 424.49 582.07 423.13 580.52 423.13C576.12 423.13 569.89 434.2 572.65 443.04C574.99 450.54 583.21 454.55 589.64 457.69C599.78 462.64 604.5 461.17 611.6 467.08C614.21 469.26 619.33 473.52 618.23 478.35C617.46 481.73 613.77 484.89 609.94 485.11C602.52 485.54 597.79 474.72 595.44 475.72C593.34 476.6 593.44 486.71 600 491.88C607.17 497.53 616.24 492.67 620.72 497.89C624.06 501.79 623.36 509.56 618.23 513.3C614.29 516.17 608.04 516.42 604.14 514.05C598.94 510.89 601.25 505.12 594.61 499.4C591.8 496.97 591.23 497.88 587.57 495.27C578.73 488.97 576.14 479.53 575.14 479.86C574.19 480.18 578.32 487.94 574.73 491.51C573.36 492.87 570.7 493.8 568.93 493.01C564.46 491.04 570.5 480.32 567.27 466.33C566.69 463.79 563.44 449.72 550.28 442.66C544.56 439.59 541.33 441.92 537.85 438.9C529.83 431.95 538 415.53 535.78 414.85C533.9 414.28 524.13 424.83 526.66 435.14C529.04 444.81 539.89 444.64 545.72 456.56C550.85 467.06 548 478.57 545.31 479.1C543.42 479.47 541.96 474.37 536.61 473.46C534.11 473.04 530.96 473.57 530.39 474.96C529.68 476.69 533.51 478.43 536.19 482.1C540.24 487.63 537.7 492.06 539.09 497.88C541.87 509.48 557.61 515.56 558.56 515.92C572.13 520.98 578.77 513.29 592.12 519.3C598.69 522.26 606.19 528.23 604.96 532.45C604.35 534.53 601.59 536.32 599.16 536.21C595.7 536.06 595.29 532.17 590.04 528.69C585.71 525.82 579.14 523.93 576.78 526.06C575.31 527.39 575.81 529.97 576.37 531.32C578.13 535.58 585.9 533.02 588.8 536.96C590.79 539.66 590 544.28 587.14 546.73C583.5 549.84 577.74 548.38 577.2 548.23C570.05 546.31 570.45 539.71 562.7 530.95C559.93 527.81 548.86 515.3 536.18 515.92C531.23 516.16 526.79 518.37 523.34 515.92C520.39 513.82 520.37 509.89 518.78 509.91C517.41 509.93 516.29 512.88 515.88 514.79C515.04 518.69 515.7 524.87 520.02 527.94C525 531.48 529.33 527 537.01 529.44C545.41 532.11 550.73 540.82 552.34 547.48C554.13 554.9 550.81 557.67 553.58 562.51C556.91 568.33 564.64 569.44 570.15 571.15C587.17 576.45 587.89 588.92 609.1 610.6C612.51 614.08 625.3 626.86 644.32 638.41C659.62 647.7 673.39 656.06 691.97 658.32C730.99 663.07 762.14 637.37 768.62 632.02C790.82 613.73 799.31 591.93 802.66 580.7Z" stroke="#F15E2D" stroke-width="4" stroke-miterlimit="10"/>
<path d="M771.04 572.46C776.5 572.74 784.82 572.85 794.82 571.65C813.86 569.37 814.46 565.3 825.98 565.2C841.8 565.06 845.26 572.69 868.21 575.68C875.71 576.66 881.96 576.71 886.06 576.6" stroke="#F15E2D" stroke-width="7" stroke-miterlimit="10"/>
<defs>
<linearGradient id="paint0_linear_87_19785" x1="857.342" y1="536.881" x2="1144.43" y2="536.881" gradientUnits="userSpaceOnUse">
<stop stop-color="#F15A29"/>
<stop offset="0.333" stop-color="#F47C30"/>
<stop offset="0.7806" stop-color="#F9A13B"/>
<stop offset="1" stop-color="#FBB040"/>
</linearGradient>
<linearGradient id="paint1_linear_87_19785" x1="802.658" y1="536.881" x2="515.566" y2="536.881" gradientUnits="userSpaceOnUse">
<stop stop-color="#F15A29"/>
<stop offset="0.333" stop-color="#F47C30"/>
<stop offset="0.7806" stop-color="#F9A13B"/>
<stop offset="1" stop-color="#FBB040"/>
</linearGradient>
</defs>
</svg>
