<svg width="1660" height="1660" viewBox="0 0 1660 1660" fill="none" xmlns="http://www.w3.org/2000/svg">
<path d="M752.33 685.72C752.16 661.11 780.84 638.58 801.05 641.64C813.39 643.51 819.18 654.4 831.51 652.27C840.68 650.68 841.99 643.87 849.58 641.04C867.01 634.55 901.68 655.02 907.45 681.35C914.19 712.11 879.83 743.34 847.05 748.8C812.73 754.51 781.35 732.68 773.52 725.98C762.73 716.77 752.45 702.98 752.33 685.72Z" fill="url(#paint0_radial_87_19336)" stroke="#010101" stroke-width="4" stroke-miterlimit="10"/>
<path d="M753.79 684.23C764.89 687.56 778.78 690.4 794.83 690.69C797.87 690.74 803.36 688.12 809.59 690.23C815.57 692.26 816.02 695.86 822.5 698.07C824.16 698.64 831.61 700.96 838.18 697.61C843.51 694.9 843.16 691.07 847.86 688.39C854.05 684.87 861.24 687.74 865.85 688.85C873.97 690.8 886.65 690.3 905.97 678.24" stroke="#010101" stroke-width="4" stroke-miterlimit="10"/>
<path d="M847.02 692.4C896.9 745.64 897.98 757.02 914.57 773.24C917.45 776.05 936.68 764.59 933.7 760.76C921.46 745.02 884.48 710.3 859.36 687.41C858.09 686.94 855.21 687.43 852.48 688C849.53 688.61 847.04 690.96 847.02 692.4Z" fill="url(#paint1_radial_87_19336)" stroke="#010101" stroke-width="4" stroke-miterlimit="10"/>
<path d="M914.34 772.49C914.3 772.64 914.27 772.87 915.08 774.53C916.14 776.7 916.67 777.79 917.23 778.22C918.79 779.43 921.01 778.95 922.82 778.56C923.61 778.39 925.52 777.97 927.48 776.52C929.7 774.87 929.24 773.92 931.23 772.54C933.58 770.91 934.84 771.82 936.39 770.21C938.06 768.47 937.95 766 937.92 765.5C937.87 764.73 937.71 762.41 935.91 761.28C934.15 760.17 932.03 760.95 931.55 761.12C929.52 761.86 928.42 761.61 925.36 763.36C923.66 764.34 923.32 767.78 920.9 770.24C918.32 772.87 914.72 771.14 914.34 772.49Z" fill="url(#paint2_radial_87_19336)" stroke="#010101" stroke-width="4" stroke-miterlimit="10"/>
<defs>
<radialGradient id="paint0_radial_87_19336" cx="0" cy="0" r="1" gradientUnits="userSpaceOnUse" gradientTransform="translate(830.312 694.789) scale(67.4613)">
<stop stop-color="#D37777"/>
<stop offset="0.0266" stop-color="#D27677"/>
<stop offset="0.6194" stop-color="#BC616E"/>
<stop offset="1" stop-color="#B55A6B"/>
</radialGradient>
<radialGradient id="paint1_radial_87_19336" cx="0" cy="0" r="1" gradientUnits="userSpaceOnUse" gradientTransform="translate(890.515 730.45) scale(43.3643)">
<stop stop-color="#917759"/>
<stop offset="0.3396" stop-color="#8C633A"/>
<stop offset="0.5947" stop-color="#865E39"/>
<stop offset="0.97" stop-color="#775137"/>
<stop offset="1" stop-color="#755037"/>
</radialGradient>
<radialGradient id="paint2_radial_87_19336" cx="0" cy="0" r="1" gradientUnits="userSpaceOnUse" gradientTransform="translate(926.77 769.802) rotate(-30.2111) scale(9.96024)">
<stop stop-color="#B84826"/>
<stop offset="0.3396" stop-color="#A52026"/>
<stop offset="0.4323" stop-color="#9F2325"/>
<stop offset="0.569" stop-color="#8E2823"/>
<stop offset="0.7329" stop-color="#722B1F"/>
<stop offset="0.9165" stop-color="#512818"/>
<stop offset="1" stop-color="#412312"/>
</radialGradient>
</defs>
</svg>
