<svg width="1660" height="1660" viewBox="0 0 1660 1660" fill="none" xmlns="http://www.w3.org/2000/svg">
<path d="M737.56 1291.35C727.13 1249.21 717.72 1202.45 710.71 1151.5C705.52 1113.77 702.23 1078 700.33 1044.54C700.33 1044.54 697.23 1028.97 694.87 1003.03C692.08 972.25 692.59 947.51 693.94 899.27C694.89 865.37 695.74 861.43 697.13 856.97C708.47 820.71 740.58 799.45 744.22 797.1C755.74 789.68 761.52 789.04 782.53 775.55C796 766.9 799.9 763.87 806.48 758.79C827.49 742.55 870.26 727.76 893.48 742.83C908.63 752.66 904.14 767.86 928.6 788.33C929.69 789.24 932.79 790.92 936.3 794.18C936.3 794.18 945.26 802.48 950.15 815.47C970.22 868.77 966.91 955.16 966.91 955.16C964.03 1030.41 968.24 982.95 963.72 1096.44C962.05 1138.37 960.28 1173.25 958.93 1197.81C917.46 1214.48 884.9 1193.89 841.59 1206.59C830.47 1136.58 839.57 1086.97 850.37 1054.13C857.15 1033.51 863.3 1023.45 869.53 995.86C876.34 965.71 877.26 939.57 879.11 887.3C881.13 830.33 877.95 829.68 883.1 817.06C885.78 810.51 893.82 793.09 891.08 771.56C890.32 765.57 889.77 761.63 887.09 758.79C873.93 744.83 825.34 754.68 805.67 783.53C799.41 792.71 796.06 803.87 800.08 856.17C803.75 903.94 808.61 921.49 812.05 954.35C817.89 1009.96 808.98 1007.37 813.65 1063.7C816.01 1092.15 822.38 1122.95 835.04 1183.39C843.78 1225.12 851.66 1259.76 857.43 1284.38C814.11 1296.81 777.53 1289.03 737.56 1291.35Z" fill="#CFC8CB" stroke="#8E8D8D" stroke-width="4" stroke-miterlimit="10"/>
<path d="M914.22 995.35C915.67 993.85 913.78 990.93 913.46 986.99C913.17 983.45 914.09 978.4 919.55 971.92C925.87 979.05 926.83 984.41 926.38 988.13C925.87 992.27 923.48 995.43 924.79 996.74C926.24 998.18 929.86 995.06 935.17 995C939.89 994.94 943.74 997.33 946.18 999.26C943.91 1002.74 940.46 1006.68 935.67 1007.39C930.44 1008.16 926.58 1004.65 924.57 1006.48C922.71 1008.18 925.17 1012 924.99 1017.58C924.81 1023.2 922.06 1027.74 919.56 1030.85C916.19 1028.01 912.47 1023.83 912.11 1018.48C911.76 1013.18 914.88 1009.26 913.02 1007.38C911.38 1005.71 908.22 1008.05 903.23 1007.42C899 1006.89 895.74 1004.51 893.54 1002.4C896.09 998.95 899.7 995.44 904.42 994.92C909.03 994.41 912.57 997.05 914.22 995.35Z" fill="#7F91BC"/>
<path d="M919.84 1006.15C922.469 1006.15 924.6 1004.02 924.6 1001.39C924.6 998.761 922.469 996.63 919.84 996.63C917.211 996.63 915.08 998.761 915.08 1001.39C915.08 1004.02 917.211 1006.15 919.84 1006.15Z" fill="#FDF2EC"/>
<path d="M911.86 1122.65C913.31 1121.15 911.42 1118.23 911.1 1114.29C910.81 1110.75 911.73 1105.7 917.19 1099.22C923.51 1106.35 924.47 1111.71 924.02 1115.43C923.51 1119.57 921.12 1122.73 922.43 1124.04C923.88 1125.48 927.5 1122.36 932.81 1122.3C937.53 1122.24 941.38 1124.63 943.82 1126.56C941.55 1130.04 938.1 1133.98 933.31 1134.69C928.08 1135.46 924.22 1131.95 922.21 1133.78C920.35 1135.48 922.81 1139.3 922.63 1144.88C922.45 1150.5 919.7 1155.04 917.2 1158.15C913.83 1155.31 910.11 1151.13 909.75 1145.78C909.4 1140.48 912.52 1136.56 910.66 1134.68C909.02 1133.01 905.86 1135.35 900.87 1134.72C896.64 1134.19 893.38 1131.81 891.18 1129.7C893.73 1126.25 897.34 1122.74 902.06 1122.22C906.67 1121.72 910.21 1124.35 911.86 1122.65Z" fill="#7F91BC"/>
<path d="M917.48 1133.45C920.109 1133.45 922.24 1131.32 922.24 1128.69C922.24 1126.06 920.109 1123.93 917.48 1123.93C914.851 1123.93 912.72 1126.06 912.72 1128.69C912.72 1131.32 914.851 1133.45 917.48 1133.45Z" fill="#FDF2EC"/>
<path d="M914.22 868.04C915.67 866.54 913.78 863.62 913.46 859.68C913.17 856.14 914.09 851.09 919.55 844.61C925.87 851.74 926.83 857.1 926.38 860.82C925.87 864.96 923.48 868.12 924.79 869.43C926.24 870.87 929.86 867.75 935.17 867.69C939.89 867.63 943.74 870.02 946.18 871.95C943.91 875.43 940.46 879.37 935.67 880.08C930.44 880.85 926.58 877.34 924.57 879.17C922.71 880.87 925.17 884.69 924.99 890.27C924.81 895.89 922.06 900.43 919.56 903.54C913.22 898.21 912.03 894.01 912.11 891.17C912.21 887.77 914.33 881.4 913.02 880.07C911.38 878.4 911.62 880.76 906.63 880.13C902.4 879.6 899.65 874.6 897.45 872.49C900 869.04 902.98 867.74 907.69 867.23C912.31 866.73 912.57 869.75 914.22 868.04Z" fill="#7F91BC"/>
<path d="M919.84 878.84C922.469 878.84 924.6 876.709 924.6 874.08C924.6 871.451 922.469 869.32 919.84 869.32C917.211 869.32 915.08 871.451 915.08 874.08C915.08 876.709 917.211 878.84 919.84 878.84Z" fill="#FDF2EC"/>
<path d="M772.81 1108.86C774.26 1107.36 772.37 1104.44 772.05 1100.5C771.76 1096.96 774.55 1091.91 780.01 1085.43C786.33 1092.56 785.42 1097.92 784.97 1101.64C784.46 1105.78 782.07 1108.94 783.38 1110.25C784.83 1111.69 788.45 1108.57 793.76 1108.51C798.48 1108.45 799.75 1114.48 802.19 1116.41C799.92 1119.89 799.05 1120.19 794.26 1120.9C789.03 1121.67 785.17 1118.16 783.16 1119.99C781.4 1121.6 783.9 1125.45 783.58 1131.09C783.28 1136.39 780.58 1140.52 778.45 1143.12C772.11 1138.5 770.73 1134.68 770.7 1132C770.65 1127.88 773.83 1123.15 771.61 1120.9C769.97 1119.23 769.45 1120.29 764.46 1119.66C760.23 1119.13 759.11 1116.01 756.9 1113.9C759.45 1110.45 760.83 1107.32 765.54 1106.8C770.17 1106.29 771.16 1110.56 772.81 1108.86Z" fill="#7F91BC"/>
<path d="M778.44 1119.66C781.069 1119.66 783.2 1117.53 783.2 1114.9C783.2 1112.27 781.069 1110.14 778.44 1110.14C775.811 1110.14 773.68 1112.27 773.68 1114.9C773.68 1117.53 775.811 1119.66 778.44 1119.66Z" fill="#FDF2EC"/>
<path d="M736.6 981.58C738.05 980.08 734.4 980.07 734.08 976.13C733.79 972.59 734.91 965.41 740.36 958.92C746.68 966.05 749.21 970.63 748.75 974.35C748.24 978.49 745.84 981.65 747.16 982.96C748.61 984.4 752.23 981.28 757.54 981.22C762.26 981.16 764.02 984.15 766.45 986.08C764.18 989.56 762.82 992.9 758.03 993.6C752.8 994.37 748.94 990.86 746.93 992.69C745.23 994.24 747.53 998.23 747.35 1003.79C747.17 1009.41 744.42 1013.95 741.92 1017.06C735.65 1011.78 734.43 1007.57 734.47 1004.69C734.53 1000.78 736.91 995.15 735.38 993.59C733.74 991.92 733.65 997.43 728.66 996.79C724.43 996.26 723.33 994.46 721.12 992.35C723.67 988.9 723.76 983.35 728.47 982.83C733.12 982.36 734.95 983.28 736.6 981.58Z" fill="#7F91BC"/>
<path d="M742.23 992.38C744.859 992.38 746.99 990.249 746.99 987.62C746.99 984.991 744.859 982.86 742.23 982.86C739.601 982.86 737.47 984.991 737.47 987.62C737.47 990.249 739.601 992.38 742.23 992.38Z" fill="#FDF2EC"/>
<path d="M784.69 981.58C786.14 980.08 782.49 980.07 782.17 976.13C781.88 972.59 783 965.41 788.45 958.92C794.77 966.05 797.3 970.63 796.84 974.35C796.33 978.49 793.93 981.65 795.25 982.96C796.7 984.4 795.57 982.09 800.88 982.03C805.6 981.97 805.22 985.22 807.65 987.15C805.38 990.63 805.41 992.41 800.62 993.12C795.39 993.89 797.03 990.87 795.02 992.7C793.27 994.3 795.99 998.5 795.44 1003.8C794.85 1009.51 790.59 1013.75 787.09 1016.43C783.03 1011.42 782.34 1007.49 782.56 1004.71C782.9 1000.48 785.72 995.9 783.47 993.61C781.83 991.94 780.62 992.45 775.63 991.82C771.4 991.29 767.65 984.97 765.44 982.85C767.99 979.4 771.45 977.99 776.16 977.47C780.82 976.98 783.04 983.28 784.69 981.58Z" fill="#7F91BC"/>
<path d="M790.32 992.38C792.949 992.38 795.08 990.249 795.08 987.62C795.08 984.991 792.949 982.86 790.32 982.86C787.691 982.86 785.56 984.991 785.56 987.62C785.56 990.249 787.691 992.38 790.32 992.38Z" fill="#FDF2EC"/>
<path d="M744.94 854.93C747.63 852.57 745.27 848.92 747.25 843.66C749.26 838.34 754.47 834.69 755.74 835.48C756.54 835.98 755.52 838.13 754.51 843.2C753.01 850.67 753.97 852.34 752.81 859.25C751.8 865.31 750.93 864.86 749.41 871.6C746.61 884.09 748.28 891.56 746.32 891.97C744.74 892.31 741.77 887.8 740.76 883.02C738.99 874.63 743.53 866.73 742.3 866.2C742.21 866.16 742.08 866.16 739.83 867.74C737.59 869.31 737.59 869.4 737.21 869.59C734.78 870.83 730.6 869.6 730.11 867.74C729.9 866.94 730.49 866.43 733.66 862.65C737.34 858.27 737.46 857.86 738.64 857.12C741.74 855.15 743.13 856.51 744.94 854.93Z" fill="#7F91BC"/>
<path d="M751.45 859.01C750.44 858.39 748.76 858.77 747.87 859.59C746.42 860.91 746.83 863.53 748.27 864.11C749.26 864.51 750.61 863.89 751.32 863.19C752.54 862.01 752.76 859.81 751.45 859.01Z" fill="#FDF2EC"/>
<path d="M744.65 1189.13C745.76 1187.36 743.31 1184.89 742.19 1181.11C741.18 1177.7 742.87 1172.19 746.88 1164.72C754.53 1170.4 754.74 1175.83 755.06 1179.56C755.41 1183.72 753.72 1187.31 755.28 1188.31C756.99 1189.42 759.89 1185.63 765.08 1184.47C769.69 1183.45 772.17 1189.08 774.95 1190.47C773.45 1194.34 772.66 1194.82 768.11 1196.5C763.15 1198.33 758.65 1195.69 757.06 1197.89C755.67 1199.83 758.9 1203.08 759.75 1208.67C760.54 1213.91 758.76 1218.52 757.2 1221.49C750.04 1218.27 747.91 1214.82 747.33 1212.2C746.44 1208.17 748.57 1202.9 745.94 1201.15C743.99 1199.86 743.7 1201 738.68 1201.41C734.43 1201.76 732.69 1198.94 730.1 1197.32C731.89 1193.42 732.59 1190.07 737.1 1188.6C741.53 1187.16 743.38 1191.14 744.65 1189.13Z" fill="#7F91BC"/>
<path d="M751.4 1198.65C754.029 1198.65 756.16 1196.52 756.16 1193.89C756.16 1191.26 754.029 1189.13 751.4 1189.13C748.771 1189.13 746.64 1191.26 746.64 1193.89C746.64 1196.52 748.771 1198.65 751.4 1198.65Z" fill="#FDF2EC"/>
<path d="M917.26 770.51C915.87 772.45 919.1 775.7 919.95 781.29C920.74 786.53 918.96 791.14 917.4 794.11C910.24 790.89 908.11 787.44 907.53 784.82C906.64 780.79 908.77 775.52 906.14 773.77C904.19 772.48 903.9 773.62 898.88 774.03C894.63 774.38 892.89 771.56 890.3 769.94C892.09 766.04 892.79 762.69 897.3 761.22C901.74 759.77 903.59 763.75 904.86 761.74C905.97 759.97 903.52 757.5 902.4 753.72" fill="#7F91BC"/>
<path d="M915.26 768.29C913.24 772.35 907.48 770.05 906.94 767.48C906.4 764.91 907.13 762.68 909.71 762.14" fill="#FDF2EC"/>
<path d="M789.42 777.37C763.84 816.47 742.78 871.13 748 918.38C749.46 925.34 754.28 931.09 756.31 937.95C758.67 944.91 759.6 952.17 760.32 959.4C761.03 966.52 764.94 972.52 767.37 979.18C770.73 988.43 771.68 998.25 772.12 1007.96C772.92 1022.45 770.9 1037.13 767.26 1051.11C764.92 1060.46 761.83 1069.58 759.45 1078.71C758.31 1083.26 757.32 1087.88 757.42 1092.32C758.43 1111.35 762.1 1130.2 763.57 1149.21C764.73 1160.91 765.76 1172.97 771.06 1183.62C773.19 1187.86 776.18 1191.72 778.14 1196.1C781.16 1202.69 782.38 1209.92 783.21 1217.04C781.55 1207.69 779.1 1198.31 773.36 1190.58C767.4 1182.84 764.33 1173.31 762.7 1163.8C760.96 1154.34 760.21 1144.81 758.9 1135.31C757.05 1121.04 754.47 1106.87 753.65 1092.46C753.49 1087.31 754.58 1082.48 755.72 1077.77C758.14 1068.39 761.17 1059.36 763.45 1050.15C766.98 1036.37 768.89 1022.33 768.18 1008.12C767.79 998.78 766.91 989.3 763.74 980.5C762.15 975.98 759.76 971.86 758.21 967.22C756.58 962.62 756.45 957.53 755.84 952.74C755.23 948.08 754.37 943.47 752.92 939.07C751.49 934.51 749.22 930.56 747.09 926.22C744.89 921.77 743.95 916.54 743.98 911.63C743.27 863.4 762.07 816.45 789.42 777.37Z" fill="#AFADAE"/>
<path d="M791.3 953.32C792.73 929.9 793.76 906.03 794.32 882.57C794.52 879.07 794.44 873.31 795.07 869.86C795.2 869.31 795.38 868.68 795.88 868.2C796.6 867.45 798.1 867.43 798.83 868.32C799.23 868.73 799.36 869.14 799.53 869.54C800.35 871.99 800.61 874.38 801 876.88C801.98 883.95 802.64 891.03 803.25 898.13C804.8 917.1 805.05 942.71 806.02 961.83C806.7 968.83 808.72 975.58 810.32 982.43C811.32 987.14 811.66 991.96 811.5 996.71C811.36 1001.47 810.74 1006.2 809.66 1010.8C810.32 1006.12 810.56 1001.4 810.39 996.71C810.43 984.66 804.67 973.95 803.14 962.11C801.31 941.14 800.99 919.44 799.26 898.45C798.38 889.25 798.02 879.68 795.93 870.7C795.96 870.74 795.94 870.73 796.08 870.9L796.21 871.02C796.91 871.67 798.26 871.42 798.69 870.67C798.28 872.88 797.97 879.75 797.81 882.72C796.69 906.31 794.78 929.93 791.3 953.32Z" fill="#AFADAE"/>
<path d="M932.19 795.66C929.6 796.41 943.58 845.04 944.56 862.71C944.58 863.09 945.64 868.15 947.75 878.28C948.48 881.78 949.04 884.28 950.94 885.07C953.2 886 956.59 884.23 958.12 881.88C961.35 876.93 956.8 868.71 955.33 865.92C941.96 840.58 934.65 794.95 932.19 795.66Z" fill="#AFADAE"/>
</svg>
