<svg width="1500" height="1500" viewBox="0 0 1660 1660" fill="none" xmlns="http://www.w3.org/2000/svg">
    <path d="M1660 0H0V1660H1660V0Z" fill="#BCE7E6"/><path opacity="0.1" d="M954.792 1439.01C999.308 1302.2 843.64 1128.9 607.099 1051.94C370.559 974.972 142.718 1023.49 98.2026 1160.3C53.6875 1297.11 209.355 1470.41 445.896 1547.37C682.436 1624.34 910.277 1575.82 954.792 1439.01Z" fill="#171717"/>
<path d="M900.89 1189.21L935.59 1435.64L945.54 1506.5" stroke="#010101" stroke-width="14" stroke-miterlimit="10"/><path d="M762.1 1185.1L727.4 1431.54L716.79 1506.5" stroke="#010101" stroke-width="14" stroke-miterlimit="10"/><path d="M897.87 1168.28L934.36 1427.43" stroke="#010101" stroke-width="14" stroke-miterlimit="10"/><path d="M764.48 1168.28L729.78 1414.71" stroke="#010101" stroke-width="14" stroke-miterlimit="10"/>
<path d="M868.47 1544.2C868.54 1551.24 867.64 1558.25 868.47 1575.35C869.47 1596.06 937.71 1585.76 936.21 1580.37C934.71 1574.95 923.33 1564.27 870.51 1543.1" fill="url(#paint0_linear_87_186)"/><path d="M868.47 1544.2C868.54 1551.24 867.64 1558.25 868.47 1575.35C869.47 1596.06 937.71 1585.76 936.21 1580.37C934.71 1574.95 923.33 1564.27 870.51 1543.1" stroke="#010101" stroke-width="4" stroke-miterlimit="10"/><path d="M879.83 1383.21C916.96 1381.21 913.9 1378.51 961.2 1379.83C982.45 1380.42 964.55 1412.29 982.16 1471.25C991.02 1500.93 990.49 1517.23 1003.95 1528.33C1009.18 1532.64 1029.05 1547.07 1054.06 1551.42C1057.98 1552.1 1066.13 1553.25 1073.67 1559.26C1079.79 1564.13 1081.35 1567.74 1083.07 1577.9C1083.82 1582.34 1075.82 1585.43 1073.67 1583.66C1071.53 1581.89 1073.91 1577.17 1071.56 1571.58C1069.45 1566.57 1067.34 1563.3 1064.52 1561.43C1054.12 1554.51 1045.31 1558.76 1037.67 1553.12C1037.13 1552.72 1034.8 1550.95 1031.4 1550.43C1029.07 1550.08 1026.02 1550.28 1025.73 1551.33C1025.38 1552.61 1029.33 1554.74 1030.21 1555.21C1036.62 1558.66 1041.5 1557.9 1053.19 1560.28C1057.25 1561.11 1058.22 1561.51 1059.16 1562.07C1064.06 1564.99 1066.95 1570.21 1067.85 1573.25C1069.34 1578.33 1069.71 1585.02 1067.82 1585.64C1027.8 1598.66 1003.74 1596.83 954.84 1594.12C946.72 1593.67 939.51 1581.88 927.93 1573.06C920.73 1567.58 913.51 1560.84 895.93 1555.2C880.79 1550.35 876.09 1552.79 870.56 1546.84C862.2 1537.84 864.33 1522.96 864.89 1519.09C866.44 1508.3 870.78 1505.25 874.74 1494.32C878.2 1484.76 878.83 1476.22 878.32 1459.7C876.65 1406.03 865.55 1383.98 879.83 1383.21Z" fill="url(#paint1_linear_87_186)" stroke="#010101" stroke-width="4" stroke-miterlimit="10"/><path d="M791.53 1544.2C791.46 1551.24 792.36 1558.25 791.53 1575.35C790.53 1596.06 722.29 1585.76 723.79 1580.37C725.29 1574.95 736.67 1564.27 789.49 1543.1" fill="url(#paint2_linear_87_186)"/><path d="M791.53 1544.2C791.46 1551.24 792.36 1558.25 791.53 1575.35C790.53 1596.06 722.29 1585.76 723.79 1580.37C725.29 1574.95 736.67 1564.27 789.49 1543.1" stroke="#010101" stroke-width="4" stroke-miterlimit="10"/><path d="M780.17 1383.21C743.04 1381.21 746.1 1378.51 698.8 1379.83C677.55 1380.42 695.45 1412.29 677.84 1471.25C668.98 1500.93 669.51 1517.23 656.05 1528.33C650.82 1532.64 630.95 1547.07 605.94 1551.42C602.02 1552.1 593.87 1553.25 586.33 1559.26C580.21 1564.13 578.65 1567.74 576.93 1577.9C576.18 1582.34 584.18 1585.43 586.33 1583.66C588.47 1581.89 586.09 1577.17 588.44 1571.58C590.55 1566.57 592.66 1563.3 595.48 1561.43C605.88 1554.51 614.69 1558.76 622.34 1553.12C622.88 1552.72 625.21 1550.95 628.61 1550.43C630.94 1550.08 633.99 1550.28 634.28 1551.33C634.63 1552.61 630.68 1554.74 629.8 1555.21C623.39 1558.66 618.51 1557.9 606.82 1560.28C602.76 1561.11 601.79 1561.51 600.85 1562.07C595.95 1564.99 593.06 1570.21 592.16 1573.25C590.67 1578.33 590.3 1585.02 592.19 1585.64C632.21 1598.66 656.27 1596.83 705.17 1594.12C713.29 1593.67 720.5 1581.88 732.08 1573.06C739.28 1567.58 746.5 1560.84 764.08 1555.2C779.22 1550.35 783.92 1552.79 789.45 1546.84C797.81 1537.84 795.68 1522.96 795.12 1519.09C793.57 1508.3 789.23 1505.25 785.27 1494.32C781.81 1484.76 781.18 1476.22 781.69 1459.7C783.35 1406.03 794.45 1383.98 780.17 1383.21Z" fill="url(#paint3_linear_87_186)" stroke="#010101" stroke-width="4" stroke-miterlimit="10"/><defs><linearGradient id="paint0_linear_87_186" x1="868.113" y1="1565.42" x2="936.232" y2="1565.42" gradientUnits="userSpaceOnUse"><stop stop-color="#998575"/><stop offset="0.0999" stop-color="#A99582"/><stop offset="0.231" stop-color="#B8A48E"/><stop offset="0.3911" stop-color="#C2AE96"/><stop offset="0.6603" stop-color="#C6B199"/><stop offset="0.7115" stop-color="#B29D89"/><stop offset="0.7802" stop-color="#A38F7D"/><stop offset="0.8634" stop-color="#9B8777"/><stop offset="1" stop-color="#998575"/></linearGradient><linearGradient id="paint1_linear_87_186" x1="864.23" y1="1487.79" x2="1083.12" y2="1487.79" gradientUnits="userSpaceOnUse"><stop stop-color="#C6B199"/><stop offset="0.0542" stop-color="#CBB9A4"/><stop offset="0.1811" stop-color="#D4C8BA"/><stop offset="0.3215" stop-color="#DBD5CC"/><stop offset="0.4807" stop-color="#E1DEDA"/><stop offset="0.6744" stop-color="#E4E4E2"/><stop offset="1" stop-color="#E5E5E5"/></linearGradient><linearGradient id="paint2_linear_87_186" x1="791.887" y1="1565.42" x2="723.768" y2="1565.42" gradientUnits="userSpaceOnUse"><stop stop-color="#998575"/><stop offset="0.0999" stop-color="#A99582"/><stop offset="0.231" stop-color="#B8A48E"/><stop offset="0.3911" stop-color="#C2AE96"/><stop offset="0.6603" stop-color="#C6B199"/><stop offset="0.7115" stop-color="#B29D89"/><stop offset="0.7802" stop-color="#A38F7D"/><stop offset="0.8634" stop-color="#9B8777"/><stop offset="1" stop-color="#998575"/></linearGradient><linearGradient id="paint3_linear_87_186" x1="795.77" y1="1487.79" x2="576.88" y2="1487.79" gradientUnits="userSpaceOnUse"><stop stop-color="#C6B199"/><stop offset="0.0542" stop-color="#CBB9A4"/><stop offset="0.1811" stop-color="#D4C8BA"/><stop offset="0.3215" stop-color="#DBD5CC"/><stop offset="0.4807" stop-color="#E1DEDA"/><stop offset="0.6744" stop-color="#E4E4E2"/><stop offset="1" stop-color="#E5E5E5"/></linearGradient></defs>
<path d="M788.73 796.77C765.28 825.21 726.07 857.24 702.69 916.56C676.84 982.14 678.78 1052.24 677.46 1090.89" stroke="#010101" stroke-width="14" stroke-miterlimit="10"/><path d="M872.07 797.05C895.52 825.49 934.73 857.52 958.11 916.84C983.96 982.42 982.02 1052.52 983.34 1091.17" stroke="#010101" stroke-width="14" stroke-miterlimit="10"/><path d="M671.82 1090.42C659.38 1115.75 658.03 1138.2 668.13 1146.48C673.93 1151.24 684.81 1152.38 688.78 1147.96C694.32 1141.79 683.66 1127.9 688.78 1122.88C694.26 1117.5 708.15 1128.42 709.41 1125.69C714.7 1114.26 704.57 1115.93 692.47 1103.7C687.82 1099 686 1095.82 682.14 1090.42C679.81 1087.15 674.58 1089.58 671.82 1090.42Z" fill="#010101" stroke="#010101" stroke-width="4" stroke-miterlimit="10"/><path d="M988.18 1090.14C1000.62 1115.47 1001.97 1137.92 991.87 1146.2C986.07 1150.96 975.19 1152.1 971.22 1147.68C965.68 1141.51 976.34 1127.62 971.22 1122.6C965.74 1117.22 951.85 1128.14 950.59 1125.41C945.3 1113.98 955.43 1115.65 967.53 1103.42C972.18 1098.72 974 1095.54 977.86 1090.14C980.19 1086.87 985.42 1089.29 988.18 1090.14Z" fill="#010101" stroke="#010101" stroke-width="4" stroke-miterlimit="10"/>
<path d="M880.03 776.89H779.97V1004.79H880.03V776.89Z" fill="#010101" stroke="#010101" stroke-width="4" stroke-miterlimit="10"/>
<path d="M751.91 825.86C729.51 836.4 707.11 846.93 684.7 857.47C681.12 859.15 678.16 861.66 676.15 864.7C670.58 873.08 665.95 880.9 662.55 890.74C648.45 931.46 624.08 983.77 611.11 1018.56C607.6 1027.99 618.51 1027.73 630 1029.17C637.58 1030.11 641.21 1030.81 649.28 1034.96C660.59 1040.77 660.9 1044.43 676.08 1051.82C681.38 1054.4 695.95 1054.7 696.46 1059.88C703.37 1129.56 706.91 1204.71 714.24 1273.71C714.48 1275.99 716.64 1277.77 719.32 1277.91L936 1285.14C939.9 1285.35 943.09 1282.77 943.4 1279.45C950.02 1207.89 962.46 1140.76 964.01 1068.75C964.19 1060.21 964.74 1053.57 974.53 1051.75C983.81 1050.03 993.09 1048.31 1002.37 1046.59C1008.75 1045.41 1014.07 1041.82 1017.19 1036.93C1018.21 1035.32 1019.51 1033.66 1021.15 1032.02C1025.08 1028.12 1030.13 1026.35 1034.12 1024.17C1047.92 1016.66 1052.65 1017.75 1047.53 1004.79C1035.35 973.97 1022.72 934.09 1000.46 885.88C995.52 875.18 985.84 867.29 978.29 859.32C976.14 857.05 973.4 855.23 970.28 854.02C944.32 843.91 918.37 833.79 892.41 823.68C886.3 821.3 879.26 821.46 873.25 824.03C864.95 827.58 854.13 831.15 841.09 833.02C836.97 833.61 822.31 835.51 803.38 833.02C790.72 831.35 780.04 828.23 771.65 825.04C765.32 822.67 758 823 751.91 825.86Z" fill="#171618" stroke="#030303" stroke-width="4" stroke-miterlimit="10"/><path d="M946.43 1235.91C940.22 1235.5 922.26 1233.25 912.49 1234.02C912.41 1234.02 911.97 1234.03 911.61 1234.33C911.38 1234.52 911.25 1234.79 911.25 1235.08V1250.17C911.25 1250.76 911.81 1251.22 912.5 1251.23C920.09 1251.3 935.8 1252.21 944.13 1253.26" fill="#F58047"/><path d="M946.43 1235.91C940.22 1235.5 922.26 1233.25 912.49 1234.02C912.41 1234.02 911.97 1234.03 911.61 1234.33C911.38 1234.52 911.25 1234.79 911.25 1235.08V1250.17C911.25 1250.76 911.81 1251.22 912.5 1251.23C920.09 1251.3 935.8 1252.21 944.13 1253.26" stroke="#010101" stroke-width="4" stroke-miterlimit="10"/><path d="M759.28 825.19C760.16 817.55 761.04 809.9 761.92 802.26C773.37 806.17 795.87 811.88 816.51 812.89C847.39 814.4 865.99 806.3 879.46 801.55C880.48 809.17 881.5 816.78 882.52 824.4C869.55 829.03 847.15 837.98 817.94 837.63C792.38 837.32 771.72 829.44 759.28 825.19Z" fill="#171618" stroke="#030303" stroke-width="4" stroke-miterlimit="10"/><path d="M803.98 819.63C804.43 819.69 804.87 819.79 805.31 819.93C805.75 820.07 806.13 820.24 806.44 820.44C806.25 821.04 806.15 821.35 805.95 821.95C805.7 821.82 805.41 821.69 805.08 821.58C804.75 821.47 804.42 821.39 804.09 821.34C803.2 821.22 802.47 821.35 801.89 821.73C801.31 822.11 800.94 822.75 800.79 823.68C800.65 824.6 800.8 825.33 801.27 825.87C801.74 826.4 802.44 826.74 803.37 826.86C803.72 826.91 804.07 826.91 804.43 826.88C804.79 826.85 805.11 826.8 805.4 826.73C805.46 827.36 805.49 827.68 805.56 828.31C805.19 828.43 804.76 828.51 804.26 828.53C803.76 828.56 803.27 828.54 802.79 828.47C801.98 828.36 801.28 828.15 800.69 827.83C800.1 827.51 799.64 827.13 799.3 826.67C798.95 826.21 798.72 825.7 798.61 825.13C798.49 824.56 798.49 823.96 798.61 823.32C798.72 822.68 798.92 822.12 799.22 821.62C799.51 821.12 799.89 820.71 800.34 820.38C800.79 820.05 801.32 819.82 801.93 819.69C802.55 819.54 803.23 819.53 803.98 819.63Z" fill="#EDEDEE"/><path d="M813.94 820.68C813.91 821.35 813.89 821.69 813.86 822.36C812.92 822.32 812.45 822.29 811.5 822.23C811.32 824.99 811.22 826.38 811.04 829.14C810.13 829.08 809.67 829.04 808.76 828.97C809 826.21 809.11 824.83 809.35 822.07C808.41 821.99 807.94 821.94 807 821.85C807.07 821.18 807.11 820.85 807.18 820.18C809.88 820.45 811.23 820.55 813.94 820.68Z" fill="#EDEDEE"/><path d="M820.45 829.41C820.43 827.19 820.42 826.08 820.4 823.85C819.07 826.08 818.37 827.19 816.92 829.39C816.01 829.37 815.55 829.36 814.63 829.32C814.76 825.88 814.83 824.16 814.96 820.72C815.81 820.75 816.24 820.77 817.09 820.78C817.05 822.96 817.03 824.04 816.98 826.22C818.4 824.07 819.08 822.99 820.37 820.8C821.22 820.79 821.65 820.79 822.5 820.76C822.59 824.2 822.64 825.92 822.73 829.36C821.82 829.4 821.37 829.4 820.45 829.41Z" fill="#EDEDEE"/><path d="M827.56 822.21C827.52 822.98 827.5 823.37 827.46 824.15C827.41 825.12 827.3 825.94 827.13 826.6C826.96 827.26 826.75 827.8 826.5 828.21C826.25 828.62 825.96 828.92 825.64 829.12C825.32 829.31 824.99 829.43 824.66 829.47C824.36 828.85 824.21 828.54 823.92 827.92C824.17 827.83 824.39 827.7 824.58 827.51C824.77 827.32 824.94 827.06 825.08 826.72C825.22 826.39 825.33 825.97 825.42 825.47C825.51 824.97 825.57 824.38 825.59 823.68C825.64 822.47 825.66 821.86 825.71 820.65C828.01 820.53 829.16 820.44 831.45 820.2C831.8 823.62 831.98 825.34 832.34 828.76C831.43 828.85 830.97 828.9 830.06 828.98C829.83 826.22 829.71 824.84 829.47 822.08C828.7 822.13 828.32 822.16 827.56 822.21Z" fill="#EDEDEE"/><path d="M836.9 822.68C837.5 822.59 838.01 822.59 838.44 822.67C838.86 822.75 839.22 822.89 839.51 823.08C839.8 823.28 840.02 823.52 840.17 823.8C840.32 824.08 840.43 824.38 840.49 824.7C840.57 825.18 840.56 825.62 840.44 826.01C840.32 826.4 840.11 826.74 839.8 827.03C839.5 827.32 839.11 827.56 838.64 827.75C838.17 827.94 837.65 828.08 837.06 828.16C835.89 828.33 835.31 828.4 834.14 828.54C833.74 825.12 833.53 823.41 833.13 819.99C833.98 819.89 834.4 819.84 835.25 819.72C835.42 821 835.51 821.64 835.69 822.92C835.81 822.89 835.98 822.85 836.2 822.8C836.41 822.76 836.64 822.72 836.9 822.68ZM838.31 825.12C838.26 824.8 838.1 824.55 837.82 824.38C837.55 824.21 837.17 824.16 836.69 824.23C836.6 824.24 836.48 824.26 836.32 824.3C836.16 824.33 836.01 824.36 835.88 824.4C836.01 825.32 836.07 825.78 836.19 826.69C836.46 826.65 836.6 826.63 836.87 826.59C837.96 826.43 838.44 825.94 838.31 825.12Z" fill="#EDEDEE"/>
<path d="M737.56 1291.35C727.13 1249.21 717.72 1202.45 710.71 1151.5C705.52 1113.77 702.23 1078 700.33 1044.54C700.33 1044.54 697.23 1028.97 694.87 1003.03C692.08 972.25 692.59 947.51 693.94 899.27C694.89 865.37 695.74 861.43 697.13 856.97C708.47 820.71 740.58 799.45 744.22 797.1C755.74 789.68 761.52 789.04 782.53 775.55C796 766.9 799.9 763.87 806.48 758.79C827.49 742.55 870.26 727.76 893.48 742.83C908.63 752.66 904.14 767.86 928.6 788.33C929.69 789.24 932.79 790.92 936.3 794.18C936.3 794.18 945.26 802.48 950.15 815.47C970.22 868.77 966.91 955.16 966.91 955.16C964.03 1030.41 968.24 982.95 963.72 1096.44C962.05 1138.37 960.28 1173.25 958.93 1197.81C917.46 1214.48 884.9 1193.89 841.59 1206.59C830.47 1136.58 839.57 1086.97 850.37 1054.13C857.15 1033.51 863.3 1023.45 869.53 995.86C876.34 965.71 877.26 939.57 879.11 887.3C881.13 830.33 877.95 829.68 883.1 817.06C885.78 810.51 893.82 793.09 891.08 771.56C890.32 765.57 889.77 761.63 887.09 758.79C873.93 744.83 825.34 754.68 805.67 783.53C799.41 792.71 796.06 803.87 800.08 856.17C803.75 903.94 808.61 921.49 812.05 954.35C817.89 1009.96 808.98 1007.37 813.65 1063.7C816.01 1092.15 822.38 1122.95 835.04 1183.39C843.78 1225.12 851.66 1259.76 857.43 1284.38C814.11 1296.81 777.53 1289.03 737.56 1291.35Z" fill="#CFC8CB" stroke="#8E8D8D" stroke-width="4" stroke-miterlimit="10"/><path d="M914.22 995.35C915.67 993.85 913.78 990.93 913.46 986.99C913.17 983.45 914.09 978.4 919.55 971.92C925.87 979.05 926.83 984.41 926.38 988.13C925.87 992.27 923.48 995.43 924.79 996.74C926.24 998.18 929.86 995.06 935.17 995C939.89 994.94 943.74 997.33 946.18 999.26C943.91 1002.74 940.46 1006.68 935.67 1007.39C930.44 1008.16 926.58 1004.65 924.57 1006.48C922.71 1008.18 925.17 1012 924.99 1017.58C924.81 1023.2 922.06 1027.74 919.56 1030.85C916.19 1028.01 912.47 1023.83 912.11 1018.48C911.76 1013.18 914.88 1009.26 913.02 1007.38C911.38 1005.71 908.22 1008.05 903.23 1007.42C899 1006.89 895.74 1004.51 893.54 1002.4C896.09 998.95 899.7 995.44 904.42 994.92C909.03 994.41 912.57 997.05 914.22 995.35Z" fill="#7F91BC"/><path d="M919.84 1006.15C922.469 1006.15 924.6 1004.02 924.6 1001.39C924.6 998.761 922.469 996.63 919.84 996.63C917.211 996.63 915.08 998.761 915.08 1001.39C915.08 1004.02 917.211 1006.15 919.84 1006.15Z" fill="#FDF2EC"/><path d="M911.86 1122.65C913.31 1121.15 911.42 1118.23 911.1 1114.29C910.81 1110.75 911.73 1105.7 917.19 1099.22C923.51 1106.35 924.47 1111.71 924.02 1115.43C923.51 1119.57 921.12 1122.73 922.43 1124.04C923.88 1125.48 927.5 1122.36 932.81 1122.3C937.53 1122.24 941.38 1124.63 943.82 1126.56C941.55 1130.04 938.1 1133.98 933.31 1134.69C928.08 1135.46 924.22 1131.95 922.21 1133.78C920.35 1135.48 922.81 1139.3 922.63 1144.88C922.45 1150.5 919.7 1155.04 917.2 1158.15C913.83 1155.31 910.11 1151.13 909.75 1145.78C909.4 1140.48 912.52 1136.56 910.66 1134.68C909.02 1133.01 905.86 1135.35 900.87 1134.72C896.64 1134.19 893.38 1131.81 891.18 1129.7C893.73 1126.25 897.34 1122.74 902.06 1122.22C906.67 1121.72 910.21 1124.35 911.86 1122.65Z" fill="#7F91BC"/><path d="M917.48 1133.45C920.109 1133.45 922.24 1131.32 922.24 1128.69C922.24 1126.06 920.109 1123.93 917.48 1123.93C914.851 1123.93 912.72 1126.06 912.72 1128.69C912.72 1131.32 914.851 1133.45 917.48 1133.45Z" fill="#FDF2EC"/><path d="M914.22 868.04C915.67 866.54 913.78 863.62 913.46 859.68C913.17 856.14 914.09 851.09 919.55 844.61C925.87 851.74 926.83 857.1 926.38 860.82C925.87 864.96 923.48 868.12 924.79 869.43C926.24 870.87 929.86 867.75 935.17 867.69C939.89 867.63 943.74 870.02 946.18 871.95C943.91 875.43 940.46 879.37 935.67 880.08C930.44 880.85 926.58 877.34 924.57 879.17C922.71 880.87 925.17 884.69 924.99 890.27C924.81 895.89 922.06 900.43 919.56 903.54C913.22 898.21 912.03 894.01 912.11 891.17C912.21 887.77 914.33 881.4 913.02 880.07C911.38 878.4 911.62 880.76 906.63 880.13C902.4 879.6 899.65 874.6 897.45 872.49C900 869.04 902.98 867.74 907.69 867.23C912.31 866.73 912.57 869.75 914.22 868.04Z" fill="#7F91BC"/><path d="M919.84 878.84C922.469 878.84 924.6 876.709 924.6 874.08C924.6 871.451 922.469 869.32 919.84 869.32C917.211 869.32 915.08 871.451 915.08 874.08C915.08 876.709 917.211 878.84 919.84 878.84Z" fill="#FDF2EC"/><path d="M772.81 1108.86C774.26 1107.36 772.37 1104.44 772.05 1100.5C771.76 1096.96 774.55 1091.91 780.01 1085.43C786.33 1092.56 785.42 1097.92 784.97 1101.64C784.46 1105.78 782.07 1108.94 783.38 1110.25C784.83 1111.69 788.45 1108.57 793.76 1108.51C798.48 1108.45 799.75 1114.48 802.19 1116.41C799.92 1119.89 799.05 1120.19 794.26 1120.9C789.03 1121.67 785.17 1118.16 783.16 1119.99C781.4 1121.6 783.9 1125.45 783.58 1131.09C783.28 1136.39 780.58 1140.52 778.45 1143.12C772.11 1138.5 770.73 1134.68 770.7 1132C770.65 1127.88 773.83 1123.15 771.61 1120.9C769.97 1119.23 769.45 1120.29 764.46 1119.66C760.23 1119.13 759.11 1116.01 756.9 1113.9C759.45 1110.45 760.83 1107.32 765.54 1106.8C770.17 1106.29 771.16 1110.56 772.81 1108.86Z" fill="#7F91BC"/><path d="M778.44 1119.66C781.069 1119.66 783.2 1117.53 783.2 1114.9C783.2 1112.27 781.069 1110.14 778.44 1110.14C775.811 1110.14 773.68 1112.27 773.68 1114.9C773.68 1117.53 775.811 1119.66 778.44 1119.66Z" fill="#FDF2EC"/><path d="M736.6 981.58C738.05 980.08 734.4 980.07 734.08 976.13C733.79 972.59 734.91 965.41 740.36 958.92C746.68 966.05 749.21 970.63 748.75 974.35C748.24 978.49 745.84 981.65 747.16 982.96C748.61 984.4 752.23 981.28 757.54 981.22C762.26 981.16 764.02 984.15 766.45 986.08C764.18 989.56 762.82 992.9 758.03 993.6C752.8 994.37 748.94 990.86 746.93 992.69C745.23 994.24 747.53 998.23 747.35 1003.79C747.17 1009.41 744.42 1013.95 741.92 1017.06C735.65 1011.78 734.43 1007.57 734.47 1004.69C734.53 1000.78 736.91 995.15 735.38 993.59C733.74 991.92 733.65 997.43 728.66 996.79C724.43 996.26 723.33 994.46 721.12 992.35C723.67 988.9 723.76 983.35 728.47 982.83C733.12 982.36 734.95 983.28 736.6 981.58Z" fill="#7F91BC"/><path d="M742.23 992.38C744.859 992.38 746.99 990.249 746.99 987.62C746.99 984.991 744.859 982.86 742.23 982.86C739.601 982.86 737.47 984.991 737.47 987.62C737.47 990.249 739.601 992.38 742.23 992.38Z" fill="#FDF2EC"/><path d="M784.69 981.58C786.14 980.08 782.49 980.07 782.17 976.13C781.88 972.59 783 965.41 788.45 958.92C794.77 966.05 797.3 970.63 796.84 974.35C796.33 978.49 793.93 981.65 795.25 982.96C796.7 984.4 795.57 982.09 800.88 982.03C805.6 981.97 805.22 985.22 807.65 987.15C805.38 990.63 805.41 992.41 800.62 993.12C795.39 993.89 797.03 990.87 795.02 992.7C793.27 994.3 795.99 998.5 795.44 1003.8C794.85 1009.51 790.59 1013.75 787.09 1016.43C783.03 1011.42 782.34 1007.49 782.56 1004.71C782.9 1000.48 785.72 995.9 783.47 993.61C781.83 991.94 780.62 992.45 775.63 991.82C771.4 991.29 767.65 984.97 765.44 982.85C767.99 979.4 771.45 977.99 776.16 977.47C780.82 976.98 783.04 983.28 784.69 981.58Z" fill="#7F91BC"/><path d="M790.32 992.38C792.949 992.38 795.08 990.249 795.08 987.62C795.08 984.991 792.949 982.86 790.32 982.86C787.691 982.86 785.56 984.991 785.56 987.62C785.56 990.249 787.691 992.38 790.32 992.38Z" fill="#FDF2EC"/><path d="M744.94 854.93C747.63 852.57 745.27 848.92 747.25 843.66C749.26 838.34 754.47 834.69 755.74 835.48C756.54 835.98 755.52 838.13 754.51 843.2C753.01 850.67 753.97 852.34 752.81 859.25C751.8 865.31 750.93 864.86 749.41 871.6C746.61 884.09 748.28 891.56 746.32 891.97C744.74 892.31 741.77 887.8 740.76 883.02C738.99 874.63 743.53 866.73 742.3 866.2C742.21 866.16 742.08 866.16 739.83 867.74C737.59 869.31 737.59 869.4 737.21 869.59C734.78 870.83 730.6 869.6 730.11 867.74C729.9 866.94 730.49 866.43 733.66 862.65C737.34 858.27 737.46 857.86 738.64 857.12C741.74 855.15 743.13 856.51 744.94 854.93Z" fill="#7F91BC"/><path d="M751.45 859.01C750.44 858.39 748.76 858.77 747.87 859.59C746.42 860.91 746.83 863.53 748.27 864.11C749.26 864.51 750.61 863.89 751.32 863.19C752.54 862.01 752.76 859.81 751.45 859.01Z" fill="#FDF2EC"/><path d="M744.65 1189.13C745.76 1187.36 743.31 1184.89 742.19 1181.11C741.18 1177.7 742.87 1172.19 746.88 1164.72C754.53 1170.4 754.74 1175.83 755.06 1179.56C755.41 1183.72 753.72 1187.31 755.28 1188.31C756.99 1189.42 759.89 1185.63 765.08 1184.47C769.69 1183.45 772.17 1189.08 774.95 1190.47C773.45 1194.34 772.66 1194.82 768.11 1196.5C763.15 1198.33 758.65 1195.69 757.06 1197.89C755.67 1199.83 758.9 1203.08 759.75 1208.67C760.54 1213.91 758.76 1218.52 757.2 1221.49C750.04 1218.27 747.91 1214.82 747.33 1212.2C746.44 1208.17 748.57 1202.9 745.94 1201.15C743.99 1199.86 743.7 1201 738.68 1201.41C734.43 1201.76 732.69 1198.94 730.1 1197.32C731.89 1193.42 732.59 1190.07 737.1 1188.6C741.53 1187.16 743.38 1191.14 744.65 1189.13Z" fill="#7F91BC"/><path d="M751.4 1198.65C754.029 1198.65 756.16 1196.52 756.16 1193.89C756.16 1191.26 754.029 1189.13 751.4 1189.13C748.771 1189.13 746.64 1191.26 746.64 1193.89C746.64 1196.52 748.771 1198.65 751.4 1198.65Z" fill="#FDF2EC"/><path d="M917.26 770.51C915.87 772.45 919.1 775.7 919.95 781.29C920.74 786.53 918.96 791.14 917.4 794.11C910.24 790.89 908.11 787.44 907.53 784.82C906.64 780.79 908.77 775.52 906.14 773.77C904.19 772.48 903.9 773.62 898.88 774.03C894.63 774.38 892.89 771.56 890.3 769.94C892.09 766.04 892.79 762.69 897.3 761.22C901.74 759.77 903.59 763.75 904.86 761.74C905.97 759.97 903.52 757.5 902.4 753.72" fill="#7F91BC"/><path d="M915.26 768.29C913.24 772.35 907.48 770.05 906.94 767.48C906.4 764.91 907.13 762.68 909.71 762.14" fill="#FDF2EC"/><path d="M789.42 777.37C763.84 816.47 742.78 871.13 748 918.38C749.46 925.34 754.28 931.09 756.31 937.95C758.67 944.91 759.6 952.17 760.32 959.4C761.03 966.52 764.94 972.52 767.37 979.18C770.73 988.43 771.68 998.25 772.12 1007.96C772.92 1022.45 770.9 1037.13 767.26 1051.11C764.92 1060.46 761.83 1069.58 759.45 1078.71C758.31 1083.26 757.32 1087.88 757.42 1092.32C758.43 1111.35 762.1 1130.2 763.57 1149.21C764.73 1160.91 765.76 1172.97 771.06 1183.62C773.19 1187.86 776.18 1191.72 778.14 1196.1C781.16 1202.69 782.38 1209.92 783.21 1217.04C781.55 1207.69 779.1 1198.31 773.36 1190.58C767.4 1182.84 764.33 1173.31 762.7 1163.8C760.96 1154.34 760.21 1144.81 758.9 1135.31C757.05 1121.04 754.47 1106.87 753.65 1092.46C753.49 1087.31 754.58 1082.48 755.72 1077.77C758.14 1068.39 761.17 1059.36 763.45 1050.15C766.98 1036.37 768.89 1022.33 768.18 1008.12C767.79 998.78 766.91 989.3 763.74 980.5C762.15 975.98 759.76 971.86 758.21 967.22C756.58 962.62 756.45 957.53 755.84 952.74C755.23 948.08 754.37 943.47 752.92 939.07C751.49 934.51 749.22 930.56 747.09 926.22C744.89 921.77 743.95 916.54 743.98 911.63C743.27 863.4 762.07 816.45 789.42 777.37Z" fill="#AFADAE"/><path d="M791.3 953.32C792.73 929.9 793.76 906.03 794.32 882.57C794.52 879.07 794.44 873.31 795.07 869.86C795.2 869.31 795.38 868.68 795.88 868.2C796.6 867.45 798.1 867.43 798.83 868.32C799.23 868.73 799.36 869.14 799.53 869.54C800.35 871.99 800.61 874.38 801 876.88C801.98 883.95 802.64 891.03 803.25 898.13C804.8 917.1 805.05 942.71 806.02 961.83C806.7 968.83 808.72 975.58 810.32 982.43C811.32 987.14 811.66 991.96 811.5 996.71C811.36 1001.47 810.74 1006.2 809.66 1010.8C810.32 1006.12 810.56 1001.4 810.39 996.71C810.43 984.66 804.67 973.95 803.14 962.11C801.31 941.14 800.99 919.44 799.26 898.45C798.38 889.25 798.02 879.68 795.93 870.7C795.96 870.74 795.94 870.73 796.08 870.9L796.21 871.02C796.91 871.67 798.26 871.42 798.69 870.67C798.28 872.88 797.97 879.75 797.81 882.72C796.69 906.31 794.78 929.93 791.3 953.32Z" fill="#AFADAE"/><path d="M932.19 795.66C929.6 796.41 943.58 845.04 944.56 862.71C944.58 863.09 945.64 868.15 947.75 878.28C948.48 881.78 949.04 884.28 950.94 885.07C953.2 886 956.59 884.23 958.12 881.88C961.35 876.93 956.8 868.71 955.33 865.92C941.96 840.58 934.65 794.95 932.19 795.66Z" fill="#AFADAE"/>
<path d="M830 389.3C773.03 442.69 690.69 476.24 599.12 476.24C575.85 476.24 553.18 474.06 531.37 469.95C523.09 493.73 518.62 518.91 518.62 544.97C518.62 690.9 658.03 809.2 830 809.2C1001.97 809.2 1141.38 690.9 1141.38 544.97C1141.38 518.91 1136.91 493.73 1128.63 469.95C1106.82 474.06 1084.15 476.24 1060.88 476.24C969.31 476.24 886.97 442.7 830 389.3Z" fill="url(#paint0_radial_87_19147)" stroke="#010101" stroke-width="4" stroke-miterlimit="10"/><defs><radialGradient id="paint0_radial_87_19147" cx="0" cy="0" r="1" gradientUnits="userSpaceOnUse" gradientTransform="translate(830 599.253) scale(265.553)"><stop stop-color="#E5D195"/><stop offset="1" stop-color="#C49B6D"/></radialGradient></defs>
<path d="M628.64 576.22C625.16 574.98 602.55 566.75 590.62 554.01C590.62 554.01 583.65 546.57 581.89 536.71C581.74 535.9 581.09 528.49 581.89 526.91C584.06 522.59 594.8 522.34 597.19 525.19C598.92 527.25 594.36 534.76 595.04 541.19C595.45 545.07 596.83 547.84 597.86 549.89C600.28 554.72 603.54 557.95 608.55 562.1C613.27 566 619.94 571.03 628.64 576.22Z" fill="#010101"/><path d="M790.52 603.24C793.79 598.19 763.72 568.09 725.73 548.16C697.56 533.38 674.1 528.95 658.03 526.04C634.74 521.84 599.76 515.52 592.98 528.35C587.9 537.97 600.43 555.04 608.86 563.2C611.67 565.92 619.8 573.24 637.86 578.94C663.54 587.05 672.97 580.39 710.88 585.29C726.74 587.34 740.15 590.45 745.59 591.72C777.08 599.1 788.66 606.13 790.52 603.24Z" fill="#EDEDEE"/><path d="M716.43 540.34C682.09 564.01 654.99 540.19 647.21 530.68C645.03 528.01 642.88 525.32 641.4 522.21" fill="url(#paint0_radial_87_19250)"/><path d="M716.43 540.34C682.09 564.01 654.99 540.19 647.21 530.68C645.03 528.01 642.88 525.32 641.4 522.21" stroke="#010101" stroke-width="4" stroke-miterlimit="10"/><path d="M791.4 604.17C794.67 599.12 764.6 569.02 726.61 549.09C698.44 534.31 674.98 529.88 658.91 526.97C635.62 522.77 600.64 516.45 593.86 529.28C588.78 538.9 601.31 555.97 609.74 564.13C612.55 566.85 620.68 574.17 638.74 579.87C664.42 587.98 673.85 581.32 711.76 586.22C727.62 588.27 741.03 591.38 746.47 592.65C777.95 600.03 789.53 607.05 791.4 604.17Z" stroke="#010101" stroke-width="4" stroke-miterlimit="10"/><path d="M791.04 601.01C790.72 601.35 771.13 572.55 729.43 550.59C681.18 525.18 619.51 517.45 588.89 525.96C586.38 526.66 580.45 528.47 572.61 527.73C555.06 526.07 541.57 512.86 532.22 500.3C551.3 506.12 567.01 508.44 577.58 509.5C597.53 511.5 605.61 509.63 627.46 511.56C627.46 511.56 647.29 513.31 670.8 518.79C732.1 533.09 791.56 600.46 791.04 601.01Z" fill="#010101"/><path opacity="0.2" d="M789.56 602.81C788.24 598.04 780.16 589.88 771.37 582.12C763.96 575.58 758.02 571.3 750.79 566.19C736.19 555.86 724.15 550.46 721.57 548.89C713.35 543.9 695.06 537.55 669.92 531.48C669.92 531.48 655.6 527.71 632.14 524.72C627.58 524.14 623.52 523.82 619.29 523.69C614.09 523.53 611.02 523.6 607.5 524.17C603.28 524.85 600.84 525.55 598.14 527.38C595.75 529 595.63 530.23 595.13 531.35C607.1 533.06 621.7 535.18 638.2 537.61C674.9 543.02 682.85 544.41 694.38 547.91C708.05 552.06 718.27 556.61 728.48 561.16C742.47 567.39 752.52 571.86 764.3 580.05C776.09 588.26 783.75 596.33 789.56 602.81Z" fill="#40403C"/><path d="M1031.36 576.22C1034.84 574.98 1057.45 566.75 1069.38 554.01C1069.38 554.01 1076.35 546.57 1078.11 536.71C1078.26 535.9 1078.91 528.49 1078.11 526.91C1075.94 522.59 1065.2 522.34 1062.81 525.19C1061.08 527.25 1065.64 534.76 1064.96 541.19C1064.55 545.07 1063.17 547.84 1062.14 549.89C1059.72 554.72 1056.46 557.95 1051.45 562.1C1046.73 566 1040.06 571.03 1031.36 576.22Z" fill="#010101"/><path d="M869.48 603.24C866.21 598.19 896.28 568.09 934.27 548.16C962.44 533.38 985.9 528.95 1001.97 526.04C1025.26 521.84 1060.24 515.52 1067.02 528.35C1072.1 537.97 1059.57 555.04 1051.14 563.2C1048.33 565.92 1040.2 573.24 1022.14 578.94C996.46 587.05 987.03 580.39 949.12 585.29C933.26 587.34 919.85 590.45 914.41 591.72C882.92 599.1 871.34 606.13 869.48 603.24Z" fill="#EDEDEE"/><path d="M942.33 540.6C976.67 564.27 1003.67 541.08 1011.46 531.56C1013.64 528.89 1015.79 526.2 1017.27 523.09C1019.35 518.69 1021.42 522.56 1022.16 515.52" fill="url(#paint1_radial_87_19250)"/><path d="M942.33 540.6C976.67 564.27 1003.67 541.08 1011.46 531.56C1013.64 528.89 1015.79 526.2 1017.27 523.09C1019.35 518.69 1021.42 522.56 1022.16 515.52" stroke="#010101" stroke-width="4" stroke-miterlimit="10"/><path d="M868.6 604.17C865.33 599.12 895.4 569.02 933.39 549.09C961.56 534.31 985.02 529.88 1001.09 526.97C1024.38 522.77 1059.36 516.45 1066.14 529.28C1071.22 538.9 1058.69 555.97 1050.26 564.13C1047.45 566.85 1039.32 574.17 1021.26 579.87C995.58 587.98 986.15 581.32 948.24 586.22C932.38 588.27 918.97 591.38 913.53 592.65C882.05 600.03 870.47 607.05 868.6 604.17Z" stroke="#010101" stroke-width="4" stroke-miterlimit="10"/><path d="M868.96 601.01C869.28 601.35 888.87 572.55 930.57 550.59C978.82 525.18 1040.49 517.45 1071.11 525.96C1073.62 526.66 1079.55 528.47 1087.39 527.73C1104.94 526.07 1118.43 512.86 1127.78 500.3C1108.7 506.12 1092.99 508.44 1082.42 509.5C1062.47 511.5 1054.39 509.63 1032.54 511.56C1032.54 511.56 1012.71 513.31 989.2 518.79C927.9 533.09 868.44 600.46 868.96 601.01Z" fill="#010101"/><path opacity="0.2" d="M870.44 602.81C871.76 598.04 879.84 589.88 888.63 582.12C896.04 575.58 901.98 571.3 909.21 566.19C923.81 555.86 935.85 550.46 938.43 548.89C946.65 543.9 964.94 537.55 990.08 531.48C990.08 531.48 1004.4 527.71 1027.86 524.72C1032.42 524.14 1036.48 523.82 1040.71 523.69C1045.91 523.53 1048.98 523.6 1052.5 524.17C1056.72 524.85 1059.16 525.55 1061.86 527.38C1064.25 529 1064.37 530.23 1064.87 531.35C1052.9 533.06 1038.3 535.18 1021.8 537.61C985.1 543.02 977.15 544.41 965.62 547.91C951.95 552.06 941.73 556.61 931.52 561.16C917.53 567.39 907.48 571.86 895.7 580.05C883.91 588.26 876.25 596.33 870.44 602.81Z" fill="#40403C"/><defs><radialGradient id="paint0_radial_87_19250" cx="0" cy="0" r="1" gradientUnits="userSpaceOnUse" gradientTransform="translate(678.915 536.35) scale(28.3527)"><stop stop-color="#B42C7B"/><stop offset="0.2398" stop-color="#B22C7B"/><stop offset="0.4026" stop-color="#AC2C7D"/><stop offset="0.5427" stop-color="#A22D7F"/><stop offset="0.6698" stop-color="#942F82"/><stop offset="0.7882" stop-color="#813085"/><stop offset="0.8986" stop-color="#69328A"/><stop offset="1" stop-color="#4B338F"/></radialGradient><radialGradient id="paint1_radial_87_19250" cx="0" cy="0" r="1" gradientUnits="userSpaceOnUse" gradientTransform="translate(982.241 533.216) scale(30.8736)"><stop stop-color="#B42C7B"/><stop offset="0.2398" stop-color="#B22C7B"/><stop offset="0.4026" stop-color="#AC2C7D"/><stop offset="0.5427" stop-color="#A22D7F"/><stop offset="0.6698" stop-color="#942F82"/><stop offset="0.7882" stop-color="#813085"/><stop offset="0.8986" stop-color="#69328A"/><stop offset="1" stop-color="#4B338F"/></radialGradient></defs>
<path d="M896.28 664.93C888.57 653.15 887.75 647.21 880.89 643.01C873.51 638.5 863.9 638.69 857.73 641.4C847.46 645.91 844.42 652.55 837.5 656.75C834.7 658.45 833.55 659.41 822.91 658.2C800.06 655.6 799.19 658.59 795.55 660.58C789 664.15 783.62 675.32 773.74 683.2C765.79 689.54 756.4 692.39 752.49 693.41C751.6 693.64 751.26 693.72 751.26 693.72C749.43 694.13 748.85 694.03 748.75 694.27C748.45 695 753.09 697.56 753.42 697.74C760.12 701.46 763.79 707.65 767.31 712.64C774.15 722.36 777.86 727.17 784.81 732.36C803.53 746.35 819.34 751.1 835.16 749.95C860.73 748.09 870.57 744.02 883.41 729.82C891.78 720.56 894.16 716.59 899.95 700.85C905.36 686.14 909.7 690.75 910.18 685.65C910.8 679.07 909.62 685.31 896.28 664.93ZM868.53 696.99C865.15 698.5 859.87 700.33 846.97 700.79C843.68 700.91 835.22 701.11 810.33 697.99C795.89 696.18 793.74 695.49 793.7 694.66C793.6 692.62 806.57 693.35 823.78 685.99C841.77 678.29 849.08 674.58 849.08 674.58C852.83 672.68 857.86 670.01 863.25 671.53C864.69 671.94 865.29 672.4 871.2 676.59C880.54 683.21 881.45 683.75 881.63 685.15C882.38 690.69 869.94 696.36 868.53 696.99Z" fill="url(#paint0_radial_87_19323)" stroke="#010101" stroke-width="4" stroke-miterlimit="10"/><path d="M871.21 676.59C865.3 672.4 864.7 671.94 863.26 671.53C857.88 670.01 852.84 672.67 849.09 674.58C849.09 674.58 841.78 678.3 823.79 685.99C806.58 693.35 793.62 692.62 793.71 694.66C793.75 695.49 795.91 696.18 810.34 697.99C835.23 701.11 843.68 700.91 846.98 700.79C859.88 700.32 865.16 698.49 868.54 696.99C869.94 696.36 882.38 690.69 881.65 685.15C881.46 683.76 880.55 683.21 871.21 676.59Z" fill="#F6BA2F" stroke="#010101" stroke-width="4" stroke-miterlimit="10"/><path d="M794.97 693.73C793.65 694.05 791.52 694.54 788.87 694.98C785.87 695.48 779.86 696.3 764.87 695.83C761.8 695.73 757.5 695.55 752.33 695.2" fill="url(#paint1_radial_87_19323)"/><path d="M794.97 693.73C793.65 694.05 791.52 694.54 788.87 694.98C785.87 695.48 779.86 696.3 764.87 695.83C761.8 695.73 757.5 695.55 752.33 695.2" stroke="#010101" stroke-width="4" stroke-miterlimit="10"/><path d="M880.72 683.63C883.27 685.23 888.96 685.8 893.65 685.7C899.02 685.59 906.33 684.68 909.7 683.74" fill="url(#paint2_radial_87_19323)"/><path d="M880.72 683.63C883.27 685.23 888.96 685.8 893.65 685.7C899.02 685.59 906.33 684.68 909.7 683.74" stroke="#010101" stroke-width="4" stroke-miterlimit="10"/><path d="M804.11 697.18C793.59 694.83 758.94 697.72 754.56 697.18Z" fill="url(#paint3_radial_87_19323)"/><path d="M804.11 697.18C793.59 694.83 758.94 697.72 754.56 697.18" stroke="#010101" stroke-width="4" stroke-miterlimit="10"/><path d="M911.26 686.79C907.12 685.97 886.68 682.91 878.13 691.21" stroke="#010101" stroke-width="4" stroke-miterlimit="10"/><path opacity="0.2" d="M829.35 685.36C833.34 683.51 839.8 680.79 854.3 674.28C855.15 673.9 857.37 673.26 860.14 673.03L862.03 673.27C863.57 673.61 865.75 675.22 866.13 675.48C867.94 676.71 870.83 679.24 879.57 685.22C860.08 686.53 840.82 687.83 821.34 689.14C824.9 687.52 827.53 686.2 829.35 685.36Z" fill="#232323"/><path d="M861.75 686.61C864.41 684.07 863.83 679.18 864.03 679.19C864.23 679.2 863 683.84 865.17 686.27C867.55 688.93 873.05 687.89 873.05 688.1C873.05 688.3 868.28 687.45 865.74 689.93C863.52 692.1 863.86 696.01 863.57 695.98C863.27 695.95 864.38 691.83 862.43 689.81C860.3 687.61 855.49 688.92 855.47 688.67C855.45 688.45 859.42 688.84 861.75 686.61Z" fill="white"/><defs><radialGradient id="paint0_radial_87_19323" cx="0" cy="0" r="1" gradientUnits="userSpaceOnUse" gradientTransform="translate(829.52 694.789) scale(69.2328)"><stop stop-color="#EB2127"/><stop offset="1" stop-color="#931A1E"/></radialGradient><radialGradient id="paint1_radial_87_19323" cx="0" cy="0" r="1" gradientUnits="userSpaceOnUse" gradientTransform="translate(773.648 694.855) scale(15.0969 15.0971)"><stop stop-color="#931A1E"/><stop offset="1" stop-color="#7F143D"/></radialGradient><radialGradient id="paint2_radial_87_19323" cx="0" cy="0" r="1" gradientUnits="userSpaceOnUse" gradientTransform="translate(895.208 684.397) scale(10.2864)"><stop stop-color="#931A1E"/><stop offset="1" stop-color="#7F143D"/></radialGradient><radialGradient id="paint3_radial_87_19323" cx="0" cy="0" r="1" gradientUnits="userSpaceOnUse" gradientTransform="translate(779.333 696.615) scale(17.5235)"><stop stop-color="#D3B0C9"/><stop offset="1" stop-color="#C7A3CC"/></radialGradient></defs>
<path d="M897.75 287.15C875.94 283.04 853.27 280.86 830 280.86C806.73 280.86 784.06 283.04 762.25 287.15C651.65 307.98 563.2 378.71 531.37 470.07C553.18 474.18 575.85 476.36 599.12 476.36C690.69 476.36 773.02 442.82 830 389.42C886.98 442.81 969.31 476.36 1060.88 476.36C1084.15 476.36 1106.82 474.18 1128.63 470.07C1096.8 378.7 1008.35 307.97 897.75 287.15Z" stroke="#010101" stroke-width="4" stroke-miterlimit="10"/>
<path d="M903.91 173.97C688.64 105.33 492.93 175.17 476.1 240.47C460.11 302.61 519.85 339.58 525.66 343.02L527.57 343.21C527.57 343.21 605.95 312.88 767.74 327.43C929.55 341.98 1101.07 415.92 1138.1 445.69C1138.1 445.69 1181.23 460.8 1193.01 425.66C1208.07 380.59 1098.25 235.93 903.91 173.97Z" fill="#2B2C2B" stroke="#010101" stroke-width="4" stroke-miterlimit="10"/><path d="M705.66 375.19C580.86 371.12 532.63 383.33 532.63 383.33C532.63 383.33 325.95 490.64 535.87 529.6C787 576.21 1011.56 430.47 1011.56 430.47C1011.56 430.47 830.43 379.26 705.66 375.19Z" fill="#2B2C2B" stroke="#010101" stroke-width="4" stroke-miterlimit="10"/><path d="M1138.1 445.69C1101.07 415.92 929.56 341.97 767.74 327.43C605.95 312.88 527.57 343.21 527.57 343.21L525.66 343.02C525.96 343.19 526.18 343.31 526.18 343.31C526.18 343.31 520.27 343.53 519.28 350C518.72 353.75 519.87 360.45 521.86 373.07C523.57 384.05 532.62 383.32 532.62 383.32C532.62 383.32 580.84 371.11 705.65 375.18C830.42 379.25 1011.55 430.47 1011.55 430.47C1079.58 445.47 1128.5 471.03 1128.5 471.03C1137.22 460.75 1138.1 445.69 1138.1 445.69Z" fill="#1E1E1E" stroke="#010101" stroke-width="4" stroke-miterlimit="10"/><path d="M522.78 283.06C522.78 283.06 523.85 286.95 526.4 292.35C527.62 295.06 529.34 298.1 531.25 301.24C533.25 304.35 535.54 307.56 538.13 310.46C539.37 311.94 540.71 313.35 542.12 314.64C543.43 315.99 544.89 317.19 546.27 318.3C547.63 319.48 549.05 320.44 550.44 321.33C551.73 322.28 553.05 323.09 554.34 323.7C555.57 324.36 556.69 325.02 557.72 325.51C558.77 325.95 559.7 326.33 560.47 326.63C561.98 327.26 562.84 327.62 562.84 327.62L563.17 327.77C565.3 328.63 566.31 331.07 565.42 333.19C564.55 335.31 562.13 336.32 560.02 335.43C559.86 335.37 559.71 335.3 559.55 335.21C559.55 335.21 558.63 334.69 556.98 333.76C556.17 333.29 555.2 332.72 554.1 332.08C552.98 331.39 551.82 330.48 550.52 329.57C549.21 328.68 547.89 327.6 546.56 326.36C545.17 325.18 543.76 323.94 542.44 322.47C541.07 321.05 539.7 319.57 538.48 317.94C537.15 316.38 535.96 314.68 534.83 312.97C532.51 309.58 530.59 305.94 528.94 302.49C527.4 299 526.05 295.73 525.17 292.82C523.33 287.06 522.78 283.06 522.78 283.06Z" fill="#212216" stroke="#010101" stroke-width="4" stroke-miterlimit="10"/><path d="M604.81 327.58C604.81 327.58 604.53 327.32 604.03 326.84C603.46 326.3 602.81 325.61 601.95 324.7C600.31 322.86 598.1 320.12 595.79 316.71C594.71 314.96 593.46 313.12 592.36 311.03C591.19 309 590.07 306.79 589.02 304.47C587.89 302.19 587.06 299.71 586.02 297.26C585.19 294.75 584.29 292.21 583.55 289.63C582.88 287.02 582.08 284.47 581.61 281.88C581.14 279.31 580.56 276.78 580.2 274.3C579.9 271.84 579.58 269.45 579.3 267.18C579.16 264.91 579.02 262.76 578.89 260.77C578.55 256.83 578.76 253.5 578.72 251.21C578.73 248.9 578.71 247.59 578.71 247.59C578.71 247.59 578.85 248.9 579.08 251.2C579.34 253.48 579.45 256.77 580.15 260.65C580.52 262.58 580.84 264.69 581.21 266.91C581.7 269.1 582.23 271.4 582.78 273.79C583.33 276.16 584.13 278.56 584.86 281.01C585.54 283.47 586.58 285.86 587.44 288.3C588.39 290.7 589.51 293.04 590.52 295.35C591.75 297.57 592.75 299.84 594.04 301.87C595.27 303.94 596.49 305.9 597.76 307.68C598.94 309.51 600.29 311.07 601.42 312.59C603.83 315.46 605.99 317.71 607.57 319.13C608.36 319.81 608.99 320.39 609.37 320.65C609.8 320.98 610.03 321.15 610.03 321.15L610.16 321.27C611.96 322.66 612.33 325.26 610.93 327.06C609.55 328.88 606.95 329.22 605.11 327.83C605.02 327.74 604.9 327.66 604.81 327.58Z" fill="#212216" stroke="#010101" stroke-width="4" stroke-miterlimit="10"/><path d="M628.63 325.03C628.63 325.03 628.36 324.65 627.94 323.97C627.39 323.2 626.81 322.14 626.21 320.9C625.58 319.65 625.01 318.14 624.39 316.55C623.99 314.87 623.31 313.22 623.12 311.39C623.01 310.52 622.88 309.65 622.72 308.78C622.54 307.94 622.67 307.06 622.63 306.23C622.66 304.57 622.51 303.09 622.85 301.79C623.24 299.28 623.51 297.61 623.51 297.61C623.51 297.61 623.75 299.27 624.11 301.75C624.21 302.98 624.78 304.35 625.22 305.79C625.47 306.5 625.59 307.26 626 307.97C626.33 308.66 626.69 309.39 627.04 310.09C627.65 311.55 628.72 312.78 629.45 314C630.37 315.14 631.17 316.2 631.98 317.01C632.8 317.82 633.43 318.45 633.87 318.77C634.35 319.18 634.66 319.43 634.66 319.43L634.77 319.53C636.54 320.97 636.84 323.63 635.35 325.42C633.89 327.2 631.25 327.47 629.46 326.01C629.15 325.73 628.86 325.39 628.63 325.03Z" fill="#212216" stroke="#010101" stroke-width="4" stroke-miterlimit="10"/><path d="M578.33 332.12C578.33 332.12 577.98 331.67 577.4 330.9C576.84 330.13 576.12 329.04 575.3 327.71C573.69 325.03 571.77 321.33 570.53 317.41C569.93 315.44 569.45 313.46 569.19 311.55C569.06 310.61 568.92 309.71 568.91 308.84C568.87 307.96 568.78 307.17 568.85 306.41C568.89 304.91 569.03 303.68 569.24 302.83C569.38 301.99 569.46 301.5 569.46 301.5C569.46 301.5 569.49 301.99 569.6 302.84C569.61 303.69 569.79 304.88 570.16 306.27C570.26 306.97 570.56 307.71 570.8 308.49C571.01 309.26 571.36 310.04 571.68 310.85C572.38 312.46 573.29 314.09 574.32 315.65C576.3 318.78 578.82 321.49 580.78 323.38C581.78 324.3 582.64 325.05 583.21 325.52C583.82 325.98 584.13 326.22 584.13 326.22L584.2 326.28C586.04 327.69 586.38 330.3 585 332.13C583.57 333.96 580.97 334.31 579.12 332.89C578.81 332.68 578.53 332.42 578.33 332.12Z" fill="#212216" stroke="#010101" stroke-width="4" stroke-miterlimit="10"/><path d="M760.06 324.95C760.06 324.95 759.34 320.35 759.01 313.66C758.86 310.27 758.68 306.35 758.84 302.14C758.93 297.96 759.29 293.47 759.76 289.04C760.11 286.83 760.38 284.61 760.81 282.45C761.29 280.31 761.6 278.17 762.2 276.16C762.79 274.15 763.2 272.18 763.88 270.39C764.54 268.6 765.07 266.87 765.77 265.35C766.46 263.85 767.09 262.47 767.64 261.21C768.23 260.02 768.85 259.01 769.34 258.18C770.29 256.5 770.84 255.57 770.84 255.57C770.84 255.57 770.4 256.58 769.67 258.33C769.3 259.23 768.76 260.27 768.36 261.53C767.94 262.79 767.47 264.22 766.98 265.79C766.46 267.33 766.19 269.08 765.77 270.89C765.29 272.69 765.12 274.67 764.76 276.65C764.42 278.65 764.35 280.77 764.13 282.88C763.98 285 763.98 287.17 763.9 289.31C763.93 293.63 764.09 297.94 764.5 301.96C764.81 305.99 765.41 309.72 765.91 312.9C767.03 319.3 768.14 323.28 768.14 323.28C768.75 325.47 767.48 327.75 765.26 328.38C763.07 329 760.79 327.73 760.15 325.51C760.12 325.36 760.11 325.22 760.06 325.07V324.95Z" fill="#212216" stroke="#010101" stroke-width="4" stroke-miterlimit="10"/><path d="M790.28 327.77C790.28 327.77 790.28 325.29 790.56 321.82C790.86 318.32 791.49 313.69 792.67 309.16C793.24 306.91 794 304.7 794.81 302.68C795.64 300.65 796.65 298.86 797.6 297.42C798.63 296.02 799.48 294.87 800.27 294.23C800.98 293.55 801.39 293.16 801.39 293.16C801.39 293.16 801.06 293.63 800.55 294.45C799.94 295.22 799.4 296.51 798.76 298.01C798.17 299.56 797.66 301.38 797.34 303.4C797.02 305.43 796.78 307.58 796.78 309.76C796.68 314.11 797.05 318.44 797.56 321.65C798.06 324.91 798.52 326.88 798.52 326.88C799.08 329.12 797.71 331.37 795.48 331.92C793.21 332.45 790.96 331.1 790.43 328.87C790.34 328.54 790.32 328.21 790.28 327.91V327.77Z" fill="#212216" stroke="#010101" stroke-width="4" stroke-miterlimit="10"/><path d="M857.17 338.62C857.17 338.62 857.24 338.17 857.39 337.37C857.55 336.52 857.79 335.33 858.14 334.02C858.81 331.32 860.05 327.86 861.59 324.61C862.5 323.01 863.16 321.37 864.22 320.02C865.25 318.65 865.99 317.32 866.95 316.37C868.75 314.48 869.99 313.23 869.99 313.23C869.99 313.23 869.21 314.77 868.04 317.06C867.43 318.18 867.12 319.67 866.62 321.12C866.08 322.56 865.91 324.28 865.57 325.88C865.06 329.14 864.95 332.41 865.09 334.82C865.13 336.06 865.25 337.02 865.31 337.64C865.4 338.35 865.46 338.75 865.46 338.75V338.85C865.75 341.14 864.13 343.23 861.84 343.51C859.54 343.81 857.44 342.18 857.16 339.88C857.06 339.45 857.11 339.02 857.17 338.62Z" fill="#212216" stroke="#010101" stroke-width="4" stroke-miterlimit="10"/><path d="M975.51 365.35C975.51 365.35 975.68 365.37 975.99 365.4C976.21 365.42 976.66 365.45 977.28 365.46C978.45 365.44 980.22 365.41 982.35 365.04C983.41 364.92 984.55 364.62 985.76 364.36C986.93 363.98 988.22 363.69 989.48 363.13C990.77 362.68 992.06 362.1 993.35 361.43C994.67 360.83 995.87 359.94 997.16 359.18C998.41 358.37 999.53 357.37 1000.72 356.47C1001.8 355.43 1002.82 354.41 1003.88 353.42C1004.79 352.32 1005.69 351.27 1006.54 350.26C1007.38 349.25 1008.01 348.16 1008.68 347.2C1010.05 345.3 1010.86 343.51 1011.51 342.32C1012.19 341.11 1012.54 340.41 1012.54 340.41C1012.54 340.41 1012.28 341.15 1011.85 342.45C1011.37 343.73 1010.87 345.66 1009.8 347.79C1009.29 348.87 1008.82 350.1 1008.15 351.27C1007.44 352.47 1006.7 353.72 1005.92 355.01C1005.03 356.24 1004.08 357.5 1003.13 358.79C1002.03 359.95 1000.96 361.22 999.76 362.35C998.54 363.41 997.34 364.61 995.97 365.51C994.68 366.54 993.31 367.42 991.96 368.2C990.63 369.06 989.2 369.64 987.9 370.31C986.54 370.84 985.27 371.43 984.05 371.78C981.61 372.61 979.5 373.02 977.95 373.3C977.21 373.42 976.58 373.5 976.08 373.54C975.66 373.59 975.43 373.61 975.43 373.61C973.15 373.79 971.16 372.09 970.95 369.81C970.75 367.53 972.49 365.52 974.74 365.33C974.98 365.33 975.2 365.33 975.42 365.32L975.51 365.35Z" fill="#212216" stroke="#010101" stroke-width="4" stroke-miterlimit="10"/><path d="M1000.53 373.81C1000.62 373.8 1000.91 373.92 1001.82 374.05C1002.65 374.2 1003.93 374.35 1005.49 374.43C1008.63 374.59 1012.89 374.37 1016.98 373.14C1019.05 372.58 1021.03 371.73 1022.83 370.76C1023.77 370.32 1024.57 369.74 1025.37 369.23C1026.18 368.72 1026.9 368.18 1027.5 367.63C1028.83 366.59 1029.8 365.58 1030.46 364.82C1031.13 364.12 1031.53 363.69 1031.53 363.69C1031.53 363.69 1031.25 364.19 1030.76 365.05C1030.28 365.94 1029.55 367.17 1028.45 368.52C1027.93 369.23 1027.33 369.97 1026.62 370.67C1025.92 371.4 1025.21 372.2 1024.34 372.91C1022.7 374.37 1020.72 375.8 1018.6 376.93C1014.42 379.35 1009.69 380.73 1006.04 381.38C1004.22 381.71 1002.68 381.88 1001.57 381.95C1000.47 382.05 999.64 382.01 999.74 382.02C997.46 381.8 995.81 379.77 996.03 377.51C996.23 375.24 998.25 373.59 1000.53 373.81Z" fill="#212216" stroke="#010101" stroke-width="4" stroke-miterlimit="10"/><path d="M1068.87 400.6C1068.87 400.6 1068.98 400.65 1069.17 400.75C1069.29 400.82 1069.6 400.96 1069.99 401.12C1070.77 401.4 1071.99 401.86 1073.51 402.2C1075.01 402.55 1076.85 402.84 1078.83 402.93C1080.83 403.07 1082.98 402.93 1085.13 402.61C1087.31 402.29 1089.45 401.69 1091.42 401.01C1092.43 400.66 1093.32 400.23 1094.25 399.84C1095.14 399.49 1095.92 398.97 1096.67 398.59C1098.23 397.81 1099.38 396.94 1100.22 396.39C1101.08 395.81 1101.55 395.5 1101.55 395.5C1101.55 395.5 1101.17 395.93 1100.45 396.67C1099.75 397.41 1098.79 398.52 1097.42 399.65C1096.73 400.19 1096.08 400.92 1095.22 401.49C1094.4 402.06 1093.51 402.74 1092.62 403.35C1090.71 404.55 1088.54 405.71 1086.23 406.6C1083.94 407.47 1081.55 408.18 1079.21 408.55C1076.9 408.98 1074.69 409.14 1072.77 409.11C1070.84 409.14 1069.22 408.93 1068.06 408.78C1067.48 408.7 1066.99 408.59 1066.61 408.51C1066.3 408.45 1066.12 408.41 1066.12 408.41C1063.89 407.89 1062.48 405.67 1062.99 403.43C1063.5 401.19 1065.73 399.8 1067.94 400.3C1068.27 400.35 1068.59 400.47 1068.87 400.6Z" fill="#212216" stroke="#010101" stroke-width="4" stroke-miterlimit="10"/><path d="M1110.48 420.91C1110.48 420.91 1110.86 421 1111.46 421.16C1111.98 421.3 1112.78 421.5 1113.86 421.63C1116 422.01 1118.88 422.15 1121.84 421.91C1123.22 421.63 1124.8 421.59 1126.08 421.12C1127.36 420.62 1128.74 420.34 1129.7 419.76C1131.72 418.58 1133.07 417.8 1133.07 417.8C1133.07 417.8 1132.03 419.01 1130.43 420.82C1129.65 421.76 1128.44 422.48 1127.23 423.46C1125.97 424.48 1124.44 425.04 1122.94 425.9C1119.88 427.24 1116.58 428.21 1114.02 428.61C1112.76 428.85 1111.66 428.99 1110.81 429.04C1110.09 429.11 1109.64 429.13 1109.64 429.13C1107.31 429.31 1105.31 427.58 1105.14 425.27C1104.94 422.96 1106.66 420.94 1109 420.76C1109.49 420.72 1109.92 420.76 1110.37 420.88L1110.48 420.91Z" fill="#212216" stroke="#010101" stroke-width="4" stroke-miterlimit="10"/><path opacity="0.4" d="M705.66 375.19C580.86 371.12 532.63 383.33 532.63 383.33C532.63 383.33 325.95 490.64 535.87 529.6C787 576.21 1011.56 430.47 1011.56 430.47C1011.56 430.47 830.43 379.26 705.66 375.19ZM847.47 477.97C775.53 515.63 647.04 545.18 536.63 523.25C426.25 501.31 439.46 450.52 492.08 415.79C522.95 395.41 615.21 370.83 729.95 383.69C844.64 396.55 919.37 440.31 847.47 477.97Z" fill="#444A29" stroke="#010101" stroke-width="4" stroke-miterlimit="10"/><path opacity="0.5" d="M1138.1 445.69C1101.07 415.92 929.56 341.97 767.74 327.43C605.95 312.88 527.57 343.21 527.57 343.21L525.66 343.02C525.96 343.19 526.18 343.31 526.18 343.31C526.18 343.31 520.27 343.53 519.28 350C518.72 353.75 519.87 360.45 521.86 373.07C523.57 384.05 532.62 383.32 532.62 383.32C532.62 383.32 580.84 371.11 705.65 375.18C830.42 379.25 1011.55 430.47 1011.55 430.47C1079.58 445.47 1128.5 471.03 1128.5 471.03C1137.22 460.75 1138.1 445.69 1138.1 445.69ZM938.52 404.3C896.64 395.45 714 345.79 569.78 371.83C524.81 379.95 515.68 350.55 561.1 341.82C629.41 328.68 773.59 314.15 942 368.9C990.41 384.63 980.41 413.15 938.52 404.3Z" fill="#0D1420"/><path opacity="0.4" d="M903.91 173.97C688.64 105.33 492.93 175.17 476.1 240.47C460.11 302.61 519.85 339.58 525.66 343.02L527.57 343.21C527.57 343.21 605.95 312.88 767.74 327.43C929.55 341.98 1101.07 415.92 1138.1 445.69C1138.1 445.69 1181.23 460.8 1193.01 425.66C1208.07 380.59 1098.25 235.93 903.91 173.97ZM1168.03 399.88C1150.35 437.03 1139.74 423.75 1145.5 412.79C1151.24 401.84 1137.09 418.95 1113.32 418.33C1089.52 417.72 1104.39 398.27 1110.18 392.09C1115.96 385.91 1079.26 399.86 1049.14 390.34C1029.51 384.15 1034.52 370.07 1038.19 359.3C1041.85 348.53 1035.58 361.24 1018.02 364.78C1000.46 368.34 1012.5 351.57 1017.11 336.35C1021.7 321.13 994.78 368.24 931.83 348.83C868.89 329.44 873.7 312.26 876.71 302.71C879.72 293.14 864.3 327.34 825.72 322.03C787.13 316.72 807.86 295.93 808.16 287.66C808.45 279.4 794.84 285.84 788.04 302.28C781.25 318.73 758.97 298.72 774.41 250.98C780.37 232.53 760.32 262.37 756.1 280.64C751.86 298.9 731.36 314.17 687.89 313.17C644.38 312.19 627.35 292.17 623.6 281.1C619.86 270 618.22 282.89 619.48 301.74C620.76 320.58 584.73 282.33 582.47 242.81C581.57 226.81 570.7 266.89 580.63 295.88C590.57 324.87 571.91 307.14 568.76 293.68C565.56 280.22 558.52 299.37 564.45 312.68C570.4 326.02 535.39 309.42 523.29 277.78C511.2 246.17 520.94 301.64 530.07 314.36C539.19 327.08 513.42 339.42 489.55 293.66C469.35 254.92 494.51 197.31 586.28 170.72C678.08 144.14 804.59 139.48 943.74 196.24C1082.91 252.97 1185.7 362.69 1168.03 399.88Z" fill="#444A29"/><path d="M500.56 232.05C500.56 232.05 500.88 231.49 501.56 230.53C502.22 229.52 503.23 228.07 504.72 226.28C507.59 222.63 512.21 217.57 518.86 211.94C522.27 209.25 525.91 206.06 530.34 203.22C532.49 201.72 534.75 200.18 537.08 198.57C539.55 197.15 542.07 195.65 544.69 194.13C549.86 190.86 555.79 188.3 561.88 185.22C564.92 183.6 568.22 182.45 571.53 181.12C574.88 179.81 578.29 178.47 581.77 177.09C588.86 174.68 596.29 172.43 604.04 170.02C611.85 168.13 619.97 166.17 628.36 164.32C636.8 162.91 645.47 161.44 654.32 159.95C663.29 159.05 672.41 158.13 681.71 157.18C700.31 156.18 719.61 155.14 739.18 155.93C744.14 156.04 749.1 156.13 754.12 156.25C758.98 156.64 763.85 157.03 768.75 157.43C773.62 157.84 778.53 158.23 783.45 158.63L790.82 159.23L798.25 160.34C808.15 161.96 818.1 163.47 827.93 165.21C837.6 167.46 847.24 169.72 856.82 171.95C875.74 177.11 894.16 183.01 911.48 189.98C920.3 193.11 928.63 196.99 936.78 200.73C940.85 202.62 944.95 204.36 948.88 206.33C952.75 208.36 956.6 210.37 960.38 212.35C964.18 214.33 967.89 216.28 971.56 218.21C975.14 220.31 978.67 222.38 982.12 224.41C985.58 226.47 988.97 228.5 992.31 230.49C995.61 232.47 998.72 234.68 1001.82 236.7C1014.38 244.74 1025.31 252.94 1034.79 260.41C1044.28 267.87 1052.23 274.76 1058.66 280.56C1065.08 286.35 1069.82 291.24 1073.05 294.57C1076.2 297.92 1077.84 299.78 1077.84 299.78C1077.84 299.78 1076.07 298.09 1072.57 295.06C1069.08 292.01 1063.83 287.77 1057.08 282.4C1050.29 277.1 1041.96 270.84 1032.05 264.13C1027.22 260.63 1021.74 257.34 1016.1 253.72C1010.52 250.01 1004.43 246.49 998.1 242.75C994.92 240.92 991.74 238.91 988.39 237.11C985.03 235.32 981.58 233.5 978.08 231.65C974.61 229.78 971.07 227.88 967.46 225.96C963.79 224.21 960.02 222.41 956.25 220.62C952.46 218.81 948.62 216.98 944.71 215.13C940.8 213.34 936.74 211.78 932.7 210.07C924.53 206.76 916.32 203 907.61 200.18C903.31 198.64 898.98 197.1 894.6 195.55C892.4 194.78 890.22 193.99 888.01 193.22C885.78 192.57 883.52 191.93 881.24 191.27C876.74 189.98 872.2 188.68 867.61 187.36C863.03 186.11 858.55 184.44 853.82 183.54C844.46 181.42 835.05 179.29 825.58 177.15C816.07 175.66 806.52 174.16 796.96 172.65L789.79 171.51L782.42 170.86C777.54 170.42 772.64 169.99 767.74 169.56C762.84 169.12 757.96 168.68 753.1 168.25C748.34 168.13 743.6 167.99 738.85 167.87C734.04 167.73 729.26 167.6 724.49 167.47L717.37 167.22C714.98 167.27 712.66 167.31 710.28 167.35C700.86 167.6 691.57 167.6 682.42 168.02C673.3 168.71 664.31 169.37 655.56 170.03C646.84 171.17 638.31 172.29 630 173.36C621.8 174.96 613.79 176.49 606.07 177.98C598.47 179.97 591.05 181.78 584.03 183.79C570.15 188.29 557.51 192.85 546.89 198.15C544.22 199.47 541.63 200.74 539.14 201.98C536.73 203.38 534.43 204.73 532.23 206.04C527.68 208.52 523.95 211.38 520.38 213.79C516.94 216.31 514.01 218.77 511.43 220.87C508.96 223.11 506.8 224.96 505.26 226.68C503.65 228.32 502.48 229.64 501.7 230.59C500.91 231.51 500.56 232.05 500.56 232.05Z" fill="#8E8D8D" stroke="#010101" stroke-width="4" stroke-miterlimit="10"/>
  </svg>