<svg xmlns="http://www.w3.org/2000/svg" xmlns:xlink="http://www.w3.org/1999/xlink" viewBox="0 0 1660 1660">
  <defs>
    <style>
      .cls-1 {
        fill: none;
      }

      .cls-15 {
        fill: #bce7e6;
      }

      .cls-27 {
        opacity: 0.18;
        fill: url(#New_Pattern_Swatch_3);
      }

      .cls-8 {
        fill: #fdfeff;
      }

      .cls-16,
      .cls-36 {
        fill: #171717;
      }

      .cls-16 {
        opacity: 0.1;
      }
    </style>

    <pattern id="New_Pattern_Swatch_3" data-name="New Pattern Swatch 3" width="470.54" height="470.54"
      patternTransform="translate(290 290)" patternUnits="userSpaceOnUse" viewBox="0 0 470.54 470.54">
      <rect class="cls-1" width="470.54" height="470.54" />
      <path class="cls-8"
        d="M190.86,197.22c6.3-2.8,27.69,31.68,39.16,64,3.23,9.1,6.18,19.43,3.49,31.51-1.24,5.58-4.38,19.65-16.9,24.93-9.78,4.12-21.23,1.16-28.32-4.89-12.18-10.39-10.1-28.69-9.22-36.5,1.74-15.35,7.66-17.21,11.64-32.93C197.42,216.77,186.36,199.23,190.86,197.22Z" />
      <path class="cls-1"
        d="M211.8,252.42a59.76,59.76,0,0,1,5.14,17.36c.29,2.13.06,4.91-2,5.55a3.37,3.37,0,0,1-3.74-2,9.42,9.42,0,0,1-.6-4.45l.48-17.36" />
      <path class="cls-8"
        d="M254.57,56c6.3-2.81,27.69,31.67,39.16,64,3.23,9.09,6.18,19.42,3.49,31.51-1.24,5.57-4.38,19.65-16.89,24.92-9.78,4.12-21.24,1.16-28.33-4.89-12.18-10.38-10.1-28.69-9.22-36.5,1.74-15.34,7.66-17.2,11.64-32.93C261.13,75.55,250.07,58,254.57,56Z" />
      <path class="cls-1"
        d="M275.51,111.19a59.82,59.82,0,0,1,5.14,17.37c.29,2.12.06,4.9-2,5.54a3.37,3.37,0,0,1-3.75-2,9.48,9.48,0,0,1-.6-4.46l.49-17.35" />
      <path class="cls-8"
        d="M241.5,336.73c6.3-2.8,27.69,31.68,39.16,63.95,3.23,9.09,6.18,19.42,3.49,31.51-1.24,5.57-4.38,19.65-16.89,24.93-9.78,4.12-21.24,1.15-28.33-4.89-12.18-10.39-10.1-28.7-9.22-36.5,1.74-15.35,7.67-17.21,11.65-32.94C248.06,356.28,237,338.73,241.5,336.73Z" />
      <path class="cls-1"
        d="M262.44,391.93a59.36,59.36,0,0,1,5.14,17.36c.29,2.12.06,4.9-2,5.55a3.38,3.38,0,0,1-3.75-2,9.45,9.45,0,0,1-.6-4.46l.49-17.35" />
      <path class="cls-8"
        d="M356.79,185.25c6.3-2.81,27.69,31.67,39.16,63.95,3.23,9.09,6.18,19.42,3.48,31.51-1.24,5.57-4.37,19.65-16.89,24.92-9.78,4.12-21.24,1.16-28.33-4.89-12.17-10.38-10.1-28.69-9.21-36.5,1.73-15.34,7.66-17.2,11.64-32.93C363.35,204.8,352.29,187.25,356.79,185.25Z" />
      <path class="cls-1"
        d="M377.73,240.44a60.13,60.13,0,0,1,5.14,17.37c.28,2.12.05,4.9-2,5.54a3.37,3.37,0,0,1-3.74-2,9.48,9.48,0,0,1-.6-4.46l.48-17.35" />
      <path class="cls-8"
        d="M108.59,13.45c6.3-2.81,27.69,31.68,39.16,64,3.23,9.09,6.18,19.42,3.49,31.51-1.24,5.57-4.38,19.65-16.9,24.92C124.56,138,113.11,135,106,128.94c-12.18-10.38-10.1-28.69-9.22-36.5,1.74-15.34,7.66-17.2,11.64-32.93C115.15,33,104.09,15.45,108.59,13.45Z" />
      <path class="cls-1"
        d="M129.53,68.65A60,60,0,0,1,134.67,86c.29,2.12.06,4.9-2,5.54a3.37,3.37,0,0,1-3.74-2,9.45,9.45,0,0,1-.6-4.46l.48-17.35" />
      <path class="cls-8"
        d="M391,8.25c6.29-2.81,27.69,31.67,39.16,64,3.23,9.09,6.17,19.42,3.48,31.51-1.24,5.57-4.38,19.65-16.89,24.92-9.78,4.12-21.24,1.16-28.33-4.89-12.17-10.38-10.1-28.69-9.22-36.5,1.74-15.34,7.67-17.2,11.65-32.93C397.51,27.8,386.45,10.25,391,8.25Z" />
      <path class="cls-1"
        d="M411.89,63.44A59.51,59.51,0,0,1,417,80.81c.29,2.12.06,4.9-2,5.54a3.36,3.36,0,0,1-3.74-2,9.36,9.36,0,0,1-.6-4.46l.48-17.35" />
      <path class="cls-8"
        d="M21,136c6.3-2.8,27.69,31.68,39.16,63.95,3.23,9.1,6.18,19.43,3.49,31.52-1.24,5.57-4.38,19.65-16.9,24.92-9.78,4.12-21.23,1.16-28.32-4.89C6.27,241.1,8.35,222.8,9.23,215c1.74-15.35,7.66-17.2,11.64-32.93C27.58,155.54,16.52,138,21,136Z" />
      <path class="cls-1"
        d="M42,191.19a59.76,59.76,0,0,1,5.14,17.36c.29,2.13.06,4.91-2,5.55a3.38,3.38,0,0,1-3.74-2,9.48,9.48,0,0,1-.6-4.46l.49-17.36" />
      <path class="cls-8"
        d="M64,312.94c6.3-2.8,27.69,31.68,39.16,63.95,3.23,9.09,6.18,19.43,3.49,31.51-1.24,5.58-4.38,19.65-16.9,24.93-9.78,4.12-21.23,1.16-28.32-4.89-12.18-10.39-10.1-28.69-9.22-36.5C53.9,376.59,59.82,374.73,63.8,359,70.51,332.49,59.45,314.94,64,312.94Z" />
      <path class="cls-1"
        d="M84.89,368.14A59.76,59.76,0,0,1,90,385.5c.29,2.13.06,4.91-2,5.55a3.37,3.37,0,0,1-3.74-2,9.42,9.42,0,0,1-.6-4.45l.48-17.36" />
      <path class="cls-8"
        d="M412.7,318.14c6.3-2.8,27.69,31.68,39.16,63.95,3.23,9.1,6.17,19.43,3.48,31.51-1.24,5.58-4.37,19.66-16.89,24.93-9.78,4.12-21.24,1.16-28.33-4.89C398,423.25,400,405,400.91,397.14c1.73-15.35,7.66-17.2,11.64-32.93C419.26,337.69,408.2,320.15,412.7,318.14Z" />
      <path class="cls-1"
        d="M433.64,373.34a59.74,59.74,0,0,1,5.13,17.36c.29,2.13.06,4.91-2,5.55a3.38,3.38,0,0,1-3.74-2,9.48,9.48,0,0,1-.6-4.46l.48-17.36" />
    </pattern>
  </defs>
  <g id="back12">
    <rect class="cls-15" width="1660" height="1660" />
    <rect class="cls-27" x="0.8" y="0.8" width="1658.41" height="1658.41" />
    <ellipse class="cls-16" cx="526.54" cy="1299.63" rx="260.51" ry="450.41"
      transform="translate(-872.23 1398.24) rotate(-71.98)" />
  </g>
</svg>