<svg width="1660" height="1660" viewBox="0 0 1660 1660" fill="none" xmlns="http://www.w3.org/2000/svg">
<path d="M1160 654.64C1160.52 653.61 1160.74 652.456 1160.65 651.306C1160.55 650.157 1160.13 649.058 1159.44 648.133C1158.75 647.208 1157.81 646.494 1156.74 646.071C1155.67 645.648 1154.5 645.534 1153.36 645.74L1135.36 649.06C1134.37 649.243 1133.35 649.183 1132.39 648.885C1131.43 648.587 1130.56 648.06 1129.85 647.35L1117 634.42C1116.18 633.604 1115.15 633.033 1114.03 632.772C1112.9 632.51 1111.73 632.568 1110.64 632.94C1109.54 633.311 1108.57 633.981 1107.84 634.873C1107.11 635.766 1106.64 636.845 1106.49 637.99L1104.09 656.12C1103.96 657.114 1103.59 658.061 1103.01 658.88C1102.43 659.699 1101.66 660.365 1100.77 660.82L1084.47 669.12C1083.44 669.645 1082.58 670.448 1081.98 671.437C1081.39 672.426 1081.08 673.562 1081.1 674.717C1081.11 675.871 1081.45 676.999 1082.07 677.971C1082.7 678.944 1083.58 679.723 1084.62 680.22L1101.11 688.1C1102.02 688.534 1102.8 689.181 1103.4 689.985C1104 690.79 1104.4 691.728 1104.56 692.72L1107.42 710.78C1107.6 711.921 1108.1 712.989 1108.85 713.863C1109.61 714.736 1110.59 715.381 1111.69 715.725C1112.8 716.068 1113.97 716.096 1115.09 715.805C1116.21 715.515 1117.22 714.917 1118.02 714.08L1130.62 700.82C1131.31 700.092 1132.17 699.543 1133.12 699.221C1134.07 698.898 1135.08 698.812 1136.07 698.97L1154.13 701.83C1155.27 702.014 1156.44 701.875 1157.51 701.427C1158.57 700.979 1159.49 700.242 1160.16 699.298C1160.83 698.355 1161.22 697.243 1161.28 696.089C1161.35 694.935 1161.09 693.785 1160.54 692.77L1151.83 676.69C1151.35 675.808 1151.1 674.823 1151.08 673.82C1151.07 672.817 1151.3 671.825 1151.75 670.93L1160 654.64ZM1141.78 664.13L1137.6 672.33C1137.37 672.778 1137.24 673.275 1137.24 673.78C1137.24 674.285 1137.37 674.782 1137.6 675.23L1141.99 683.32C1142.27 683.832 1142.4 684.411 1142.36 684.992C1142.33 685.574 1142.13 686.134 1141.8 686.609C1141.46 687.085 1141 687.457 1140.46 687.683C1139.92 687.909 1139.34 687.981 1138.76 687.89L1129.67 686.45C1129.17 686.367 1128.66 686.408 1128.18 686.571C1127.7 686.733 1127.27 687.011 1126.92 687.38L1120.58 694.05C1120.18 694.472 1119.67 694.773 1119.11 694.92C1118.55 695.067 1117.95 695.053 1117.4 694.88C1116.84 694.707 1116.35 694.382 1115.97 693.942C1115.59 693.502 1115.34 692.964 1115.25 692.39L1113.81 683.3C1113.73 682.801 1113.53 682.329 1113.23 681.925C1112.92 681.521 1112.53 681.196 1112.07 680.98L1103.77 676.98C1103.25 676.728 1102.8 676.335 1102.49 675.845C1102.18 675.355 1102.01 674.788 1102 674.207C1101.99 673.626 1102.15 673.054 1102.45 672.556C1102.75 672.059 1103.18 671.655 1103.7 671.39L1111.9 667.21C1112.35 666.981 1112.74 666.645 1113.03 666.232C1113.32 665.819 1113.51 665.341 1113.57 664.84L1114.78 655.72C1114.86 655.143 1115.09 654.599 1115.46 654.15C1115.83 653.7 1116.32 653.363 1116.87 653.176C1117.42 652.99 1118.01 652.962 1118.58 653.095C1119.14 653.228 1119.66 653.517 1120.07 653.93L1126.58 660.43C1126.94 660.788 1127.38 661.054 1127.86 661.206C1128.34 661.357 1128.85 661.39 1129.35 661.3L1138.35 659.62C1138.93 659.481 1139.55 659.514 1140.11 659.715C1140.68 659.916 1141.18 660.277 1141.54 660.753C1141.91 661.23 1142.13 661.802 1142.18 662.401C1142.23 663 1142.1 663.6 1141.82 664.13H1141.78Z" fill="url(#paint0_linear_1_34474)" stroke="#010101" stroke-width="4" stroke-miterlimit="10"/>
<path d="M1125.74 602.17C1128.74 603.52 1130.5 606.24 1131.74 608.99C1135.46 617.51 1144.91 651.99 1130.46 660.62C1127.07 662.62 1121.93 663.5 1119.37 661.26C1115.56 657.95 1121.37 651.32 1120.64 638.86C1119.98 627.7 1114.64 622.13 1115.32 609.62C1115.46 607.16 1115.86 603.8 1118.32 602.17C1121.23 600.19 1125.35 602 1125.74 602.17Z" fill="url(#paint1_linear_1_34474)" stroke="#010101" stroke-width="4" stroke-miterlimit="10"/>
<path d="M510.19 670.93C510.644 671.824 510.875 672.815 510.863 673.819C510.851 674.822 510.596 675.807 510.12 676.69L501.4 692.77C500.851 693.785 500.596 694.934 500.665 696.086C500.734 697.239 501.124 698.349 501.791 699.291C502.458 700.233 503.375 700.97 504.438 701.419C505.502 701.868 506.67 702.01 507.81 701.83L525.87 699C526.862 698.842 527.877 698.928 528.828 699.251C529.78 699.573 530.638 700.122 531.33 700.85L543.92 714.11C544.716 714.947 545.73 715.545 546.848 715.835C547.966 716.126 549.143 716.098 550.246 715.755C551.349 715.411 552.333 714.766 553.089 713.893C553.844 713.019 554.34 711.951 554.52 710.81L557.38 692.75C557.539 691.758 557.935 690.82 558.536 690.015C559.137 689.211 559.924 688.564 560.83 688.13L577.33 680.25C578.372 679.752 579.254 678.972 579.876 677.999C580.498 677.026 580.835 675.898 580.85 674.744C580.864 673.589 580.555 672.453 579.958 671.464C579.361 670.476 578.499 669.674 577.47 669.15L561.18 660.85C560.286 660.395 559.515 659.73 558.935 658.911C558.355 658.092 557.982 657.145 557.85 656.15L555.45 638C555.299 636.855 554.83 635.776 554.098 634.883C553.365 633.991 552.397 633.321 551.304 632.95C550.211 632.578 549.035 632.52 547.911 632.782C546.786 633.043 545.757 633.614 544.94 634.43L532 647.35C531.29 648.059 530.419 648.586 529.461 648.884C528.503 649.182 527.487 649.242 526.5 649.06L508.5 645.74C507.364 645.53 506.191 645.642 505.116 646.063C504.04 646.485 503.103 647.199 502.412 648.125C501.721 649.051 501.303 650.152 501.206 651.304C501.108 652.455 501.335 653.611 501.86 654.64L510.19 670.93ZM523.44 659.65L532.44 661.33C532.938 661.42 533.45 661.388 533.932 661.237C534.415 661.085 534.853 660.819 535.21 660.46L541.72 653.96C542.13 653.547 542.647 653.258 543.214 653.125C543.78 652.992 544.372 653.02 544.923 653.206C545.474 653.393 545.961 653.73 546.33 654.179C546.699 654.629 546.935 655.173 547.01 655.75L548.22 664.87C548.284 665.371 548.47 665.849 548.761 666.262C549.052 666.675 549.44 667.011 549.89 667.24L558.09 671.42C558.607 671.685 559.041 672.089 559.341 672.586C559.641 673.084 559.796 673.656 559.789 674.237C559.781 674.818 559.612 675.385 559.3 675.875C558.987 676.365 558.544 676.758 558.02 677.01L549.72 681.01C549.271 681.226 548.88 681.547 548.581 681.945C548.281 682.344 548.082 682.808 548 683.3L546.56 692.39C546.47 692.964 546.222 693.502 545.842 693.942C545.462 694.382 544.967 694.707 544.412 694.88C543.857 695.053 543.265 695.067 542.702 694.92C542.14 694.773 541.63 694.472 541.23 694.05L534.89 687.38C534.543 687.011 534.111 686.733 533.631 686.571C533.152 686.408 532.639 686.367 532.14 686.45L523.05 687.89C522.476 687.979 521.888 687.905 521.353 687.678C520.818 687.451 520.357 687.079 520.022 686.604C519.688 686.129 519.492 685.57 519.458 684.989C519.424 684.409 519.553 683.831 519.83 683.32L524.21 675.23C524.444 674.782 524.566 674.285 524.566 673.78C524.566 673.275 524.444 672.778 524.21 672.33L520.03 664.13C519.761 663.606 519.646 663.017 519.698 662.43C519.749 661.844 519.966 661.284 520.323 660.815C520.679 660.347 521.161 659.988 521.713 659.782C522.265 659.576 522.863 659.53 523.44 659.65Z" fill="url(#paint2_linear_1_34474)" stroke="#010101" stroke-width="4" stroke-miterlimit="10"/>
<path d="M536.19 602.17C533.19 603.52 531.42 606.24 530.19 608.99C526.47 617.51 517.03 651.99 531.47 660.62C534.87 662.62 540 663.5 542.57 661.26C546.37 657.95 540.57 651.32 541.29 638.86C541.96 627.7 547.29 622.13 546.61 609.62C546.48 607.16 546.08 603.8 543.61 602.17C540.69 600.19 536.57 602 536.19 602.17Z" fill="url(#paint3_linear_1_34474)" stroke="#010101" stroke-width="4" stroke-miterlimit="10"/>
<defs>
<linearGradient id="paint0_linear_1_34474" x1="1083.95" y1="684.192" x2="1162.95" y2="657.408" gradientUnits="userSpaceOnUse">
<stop stop-color="#603A17"/>
<stop offset="0.42" stop-color="#623B17"/>
<stop offset="0.58" stop-color="#694119"/>
<stop offset="0.69" stop-color="#744A1C"/>
<stop offset="0.77" stop-color="#855821"/>
<stop offset="0.85" stop-color="#9B6927"/>
<stop offset="0.92" stop-color="#B77F2E"/>
<stop offset="0.98" stop-color="#D69836"/>
<stop offset="1" stop-color="#E5A43A"/>
</linearGradient>
<linearGradient id="paint1_linear_1_34474" x1="1138.2" y1="631.92" x2="1115.24" y2="631.92" gradientUnits="userSpaceOnUse">
<stop stop-color="#E5A43A"/>
<stop offset="0.07" stop-color="#D89A37"/>
<stop offset="0.38" stop-color="#A57129"/>
<stop offset="0.65" stop-color="#7F531F"/>
<stop offset="0.86" stop-color="#684119"/>
<stop offset="1" stop-color="#603A17"/>
</linearGradient>
<linearGradient id="paint2_linear_1_34474" x1="577.034" y1="686.129" x2="497.794" y2="659.438" gradientUnits="userSpaceOnUse">
<stop stop-color="#603A17"/>
<stop offset="0.42" stop-color="#623B17"/>
<stop offset="0.58" stop-color="#694119"/>
<stop offset="0.69" stop-color="#744A1C"/>
<stop offset="0.77" stop-color="#855821"/>
<stop offset="0.85" stop-color="#9B6927"/>
<stop offset="0.92" stop-color="#B77F2E"/>
<stop offset="0.98" stop-color="#D69836"/>
<stop offset="1" stop-color="#E5A43A"/>
</linearGradient>
<linearGradient id="paint3_linear_1_34474" x1="523.73" y1="631.92" x2="546.69" y2="631.92" gradientUnits="userSpaceOnUse">
<stop stop-color="#E5A43A"/>
<stop offset="0.07" stop-color="#D89A37"/>
<stop offset="0.38" stop-color="#A57129"/>
<stop offset="0.65" stop-color="#7F531F"/>
<stop offset="0.86" stop-color="#684119"/>
<stop offset="1" stop-color="#603A17"/>
</linearGradient>
</defs>
</svg>
