<svg width="1660" height="1660" viewBox="0 0 1660 1660" fill="none" xmlns="http://www.w3.org/2000/svg">
<path d="M532.37 600.35C524.19 599.81 516.83 608.26 515.37 616.35C513.31 627.6 522.07 640.74 531.65 640.53C539.4 640.35 545.9 631.46 546.97 623.29C548.24 613.31 541.81 601 532.37 600.35Z" fill="url(#paint0_linear_1_34450)" stroke="#010101" stroke-width="4" stroke-miterlimit="10"/>
<path d="M529.48 655.19C524.19 651.87 518.19 651.87 513.92 652.49C513.009 652.621 512.176 653.081 511.58 653.783C510.983 654.484 510.663 655.379 510.68 656.3L511.34 702.93C511.35 703.703 511.595 704.454 512.044 705.083C512.493 705.712 513.123 706.189 513.85 706.45C517.18 707.64 523.1 708.99 528.55 706.16C535.32 702.64 536.88 695.01 538.07 689.16C538.64 686.41 543.25 663.84 529.48 655.19ZM532.16 687.57C531.48 692.04 530.58 697.88 526.7 700.57C525.62 701.279 524.381 701.711 523.094 701.828C521.807 701.945 520.511 701.743 519.32 701.24C518.594 700.976 517.965 700.496 517.519 699.865C517.072 699.235 516.828 698.483 516.82 697.71C516.687 686.157 516.56 674.613 516.44 663.08C516.427 662.116 516.782 661.184 517.432 660.472C518.082 659.761 518.979 659.324 519.94 659.25C522.577 659.018 525.199 659.842 527.23 661.54C535.13 668.17 532.48 685.45 532.16 687.57Z" fill="url(#paint1_linear_1_34450)" stroke="#010101" stroke-width="4" stroke-miterlimit="10"/>
<path d="M550.67 665.14C550.81 664.891 550.884 664.611 550.884 664.325C550.884 664.04 550.81 663.759 550.67 663.51C548.88 660.35 544.73 654.11 539.17 653.88C530.43 653.53 522.38 668.23 522.74 680.58C523.15 694.26 530.63 708.39 543.28 707.84C552.4 707.44 555.54 697.04 556.75 684.37C556.775 684.098 556.743 683.825 556.658 683.566C556.573 683.306 556.436 683.067 556.256 682.863C556.075 682.659 555.854 682.494 555.607 682.378C555.36 682.263 555.092 682.198 554.82 682.19L529.46 681.29C529.246 681.282 529.032 681.317 528.832 681.393C528.631 681.469 528.448 681.585 528.293 681.733C528.138 681.882 528.015 682.06 527.93 682.257C527.845 682.454 527.801 682.666 527.8 682.88C527.8 683.88 527.75 684.79 527.75 685.74C527.746 686.195 527.918 686.635 528.228 686.968C528.539 687.301 528.965 687.502 529.42 687.53C535.33 687.86 541.49 688.13 547.42 688.46C547.661 688.474 547.897 688.542 548.108 688.66C548.319 688.778 548.501 688.942 548.64 689.141C548.778 689.339 548.87 689.566 548.908 689.805C548.946 690.044 548.93 690.288 548.86 690.52C546.61 698.16 547.8 700.52 542.17 700.52C532.83 700.65 525.57 682.61 531.06 669.91C531.51 668.91 534.4 661.42 538.62 661.31C542.84 661.2 545 664.2 546.62 668.31C546.695 668.505 546.824 668.675 546.991 668.8C547.157 668.926 547.356 669.002 547.564 669.021C547.772 669.04 547.981 669 548.168 668.906C548.354 668.812 548.511 668.668 548.62 668.49C549.33 667.41 550 666.28 550.67 665.14Z" fill="url(#paint2_linear_1_34450)" stroke="#010101" stroke-width="4" stroke-miterlimit="10"/>
<path d="M531.29 649.55C533.03 649.55 534.44 647.535 534.44 645.05C534.44 642.565 533.03 640.55 531.29 640.55C529.55 640.55 528.14 642.565 528.14 645.05C528.14 647.535 529.55 649.55 531.29 649.55Z" fill="url(#paint3_linear_1_34450)" stroke="#010101" stroke-width="4" stroke-miterlimit="10"/>
<path d="M531.29 656.68C533.328 656.68 534.98 654.419 534.98 651.63C534.98 648.841 533.328 646.58 531.29 646.58C529.252 646.58 527.6 648.841 527.6 651.63C527.6 654.419 529.252 656.68 531.29 656.68Z" fill="url(#paint4_linear_1_34450)" stroke="#010101" stroke-width="4" stroke-miterlimit="10"/>
<path d="M1129.29 600.35C1121.11 599.81 1113.75 608.26 1112.29 616.35C1110.23 627.6 1118.99 640.74 1128.57 640.53C1136.33 640.35 1142.83 631.46 1143.89 623.29C1145.16 613.31 1138.73 601 1129.29 600.35Z" fill="url(#paint5_linear_1_34450)" stroke="#010101" stroke-width="4" stroke-miterlimit="10"/>
<path d="M1126.41 655.19C1121.11 651.87 1115.11 651.87 1110.84 652.49C1109.93 652.623 1109.1 653.084 1108.5 653.785C1107.91 654.486 1107.59 655.38 1107.6 656.3L1108.26 702.93C1108.27 703.702 1108.52 704.453 1108.97 705.082C1109.41 705.711 1110.04 706.188 1110.77 706.45C1114.1 707.64 1120.03 708.99 1125.47 706.16C1132.24 702.64 1133.8 695.01 1135 689.16C1135.56 686.41 1140.17 663.84 1126.41 655.19ZM1129.08 687.57C1128.4 692.04 1127.5 697.88 1123.62 700.57C1122.54 701.278 1121.3 701.71 1120.02 701.827C1118.73 701.944 1117.44 701.742 1116.25 701.24C1115.52 700.975 1114.89 700.495 1114.45 699.865C1114 699.235 1113.75 698.483 1113.74 697.71C1113.61 686.157 1113.48 674.613 1113.37 663.08C1113.35 662.117 1113.71 661.185 1114.36 660.473C1115 659.761 1115.9 659.324 1116.86 659.25C1119.5 659.016 1122.13 659.839 1124.16 661.54C1132.06 668.17 1129.41 685.45 1129.08 687.57V687.57Z" fill="url(#paint6_linear_1_34450)" stroke="#010101" stroke-width="4" stroke-miterlimit="10"/>
<path d="M1147.59 665.14C1147.73 664.893 1147.81 664.612 1147.81 664.325C1147.81 664.039 1147.73 663.757 1147.59 663.51C1145.8 660.35 1141.66 654.11 1136.1 653.88C1127.35 653.53 1119.3 668.23 1119.67 680.58C1120.07 694.26 1127.55 708.39 1140.2 707.84C1149.33 707.44 1152.46 697.04 1153.67 684.37C1153.69 684.099 1153.66 683.826 1153.58 683.568C1153.5 683.309 1153.36 683.071 1153.18 682.867C1153 682.663 1152.78 682.498 1152.53 682.381C1152.29 682.265 1152.02 682.2 1151.75 682.19L1126.38 681.29C1126.17 681.283 1125.95 681.319 1125.75 681.396C1125.55 681.473 1125.37 681.588 1125.22 681.737C1125.06 681.885 1124.94 682.062 1124.85 682.258C1124.77 682.455 1124.72 682.666 1124.72 682.88C1124.72 683.88 1124.72 684.79 1124.72 685.74C1124.72 686.197 1124.89 686.638 1125.2 686.971C1125.51 687.304 1125.94 687.504 1126.4 687.53C1132.3 687.86 1138.47 688.13 1144.4 688.46C1144.64 688.472 1144.88 688.54 1145.09 688.657C1145.3 688.774 1145.49 688.939 1145.63 689.137C1145.77 689.335 1145.86 689.563 1145.9 689.803C1145.94 690.042 1145.92 690.288 1145.85 690.52C1143.59 698.16 1144.78 700.52 1139.15 700.52C1129.82 700.65 1122.55 682.61 1128.04 669.91C1128.49 668.91 1131.39 661.42 1135.61 661.31C1139.83 661.2 1141.99 664.2 1143.61 668.31C1143.68 668.508 1143.81 668.681 1143.98 668.809C1144.14 668.937 1144.34 669.015 1144.55 669.034C1144.76 669.053 1144.97 669.012 1145.16 668.916C1145.35 668.819 1145.5 668.672 1145.61 668.49L1147.59 665.14Z" fill="url(#paint7_linear_1_34450)" stroke="#010101" stroke-width="4" stroke-miterlimit="10"/>
<path d="M1128.21 649.55C1129.95 649.55 1131.36 647.535 1131.36 645.05C1131.36 642.565 1129.95 640.55 1128.21 640.55C1126.47 640.55 1125.06 642.565 1125.06 645.05C1125.06 647.535 1126.47 649.55 1128.21 649.55Z" fill="url(#paint8_linear_1_34450)" stroke="#010101" stroke-width="4" stroke-miterlimit="10"/>
<path d="M1128.21 656.68C1130.25 656.68 1131.9 654.419 1131.9 651.63C1131.9 648.841 1130.25 646.58 1128.21 646.58C1126.17 646.58 1124.52 648.841 1124.52 651.63C1124.52 654.419 1126.17 656.68 1128.21 656.68Z" fill="url(#paint9_linear_1_34450)" stroke="#010101" stroke-width="4" stroke-miterlimit="10"/>
<defs>
<linearGradient id="paint0_linear_1_34450" x1="515.04" y1="620.44" x2="547.1" y2="620.44" gradientUnits="userSpaceOnUse">
<stop stop-color="#603A17"/>
<stop offset="0.22" stop-color="#633C18"/>
<stop offset="0.39" stop-color="#6D441A"/>
<stop offset="0.55" stop-color="#7D511F"/>
<stop offset="0.69" stop-color="#946425"/>
<stop offset="0.82" stop-color="#B27B2D"/>
<stop offset="0.95" stop-color="#D69836"/>
<stop offset="1" stop-color="#E5A43A"/>
</linearGradient>
<linearGradient id="paint1_linear_1_34450" x1="510.67" y1="680" x2="539.26" y2="680" gradientUnits="userSpaceOnUse">
<stop stop-color="#603A17"/>
<stop offset="0.22" stop-color="#633C18"/>
<stop offset="0.39" stop-color="#6D441A"/>
<stop offset="0.55" stop-color="#7D511F"/>
<stop offset="0.69" stop-color="#946425"/>
<stop offset="0.82" stop-color="#B27B2D"/>
<stop offset="0.95" stop-color="#D69836"/>
<stop offset="1" stop-color="#E5A43A"/>
</linearGradient>
<linearGradient id="paint2_linear_1_34450" x1="522.75" y1="680.87" x2="556.78" y2="680.87" gradientUnits="userSpaceOnUse">
<stop stop-color="#603A17"/>
<stop offset="0.22" stop-color="#633C18"/>
<stop offset="0.39" stop-color="#6D441A"/>
<stop offset="0.55" stop-color="#7D511F"/>
<stop offset="0.69" stop-color="#946425"/>
<stop offset="0.82" stop-color="#B27B2D"/>
<stop offset="0.95" stop-color="#D69836"/>
<stop offset="1" stop-color="#E5A43A"/>
</linearGradient>
<linearGradient id="paint3_linear_1_34450" x1="528.13" y1="645.05" x2="534.44" y2="645.05" gradientUnits="userSpaceOnUse">
<stop stop-color="#603A17"/>
<stop offset="0.22" stop-color="#633C18"/>
<stop offset="0.39" stop-color="#6D441A"/>
<stop offset="0.55" stop-color="#7D511F"/>
<stop offset="0.69" stop-color="#946425"/>
<stop offset="0.82" stop-color="#B27B2D"/>
<stop offset="0.95" stop-color="#D69836"/>
<stop offset="1" stop-color="#E5A43A"/>
</linearGradient>
<linearGradient id="paint4_linear_1_34450" x1="527.59" y1="651.63" x2="534.98" y2="651.63" gradientUnits="userSpaceOnUse">
<stop stop-color="#603A17"/>
<stop offset="0.22" stop-color="#633C18"/>
<stop offset="0.39" stop-color="#6D441A"/>
<stop offset="0.55" stop-color="#7D511F"/>
<stop offset="0.69" stop-color="#946425"/>
<stop offset="0.82" stop-color="#B27B2D"/>
<stop offset="0.95" stop-color="#D69836"/>
<stop offset="1" stop-color="#E5A43A"/>
</linearGradient>
<linearGradient id="paint5_linear_1_34450" x1="1111.96" y1="620.44" x2="1144.03" y2="620.44" gradientUnits="userSpaceOnUse">
<stop stop-color="#603A17"/>
<stop offset="0.16" stop-color="#653E19"/>
<stop offset="0.35" stop-color="#73491D"/>
<stop offset="0.56" stop-color="#8B5C25"/>
<stop offset="0.73" stop-color="#A6712D"/>
<stop offset="0.88" stop-color="#C78C34"/>
<stop offset="1" stop-color="#E5A43A"/>
</linearGradient>
<linearGradient id="paint6_linear_1_34450" x1="1107.6" y1="680" x2="1136.19" y2="680" gradientUnits="userSpaceOnUse">
<stop stop-color="#603A17"/>
<stop offset="0.16" stop-color="#653E19"/>
<stop offset="0.35" stop-color="#73491D"/>
<stop offset="0.56" stop-color="#8B5C25"/>
<stop offset="0.73" stop-color="#A6712D"/>
<stop offset="0.88" stop-color="#C78C34"/>
<stop offset="1" stop-color="#E5A43A"/>
</linearGradient>
<linearGradient id="paint7_linear_1_34450" x1="1119.68" y1="680.87" x2="1153.7" y2="680.87" gradientUnits="userSpaceOnUse">
<stop stop-color="#603A17"/>
<stop offset="0.16" stop-color="#653E19"/>
<stop offset="0.35" stop-color="#73491D"/>
<stop offset="0.56" stop-color="#8B5C25"/>
<stop offset="0.73" stop-color="#A6712D"/>
<stop offset="0.88" stop-color="#C78C34"/>
<stop offset="1" stop-color="#E5A43A"/>
</linearGradient>
<linearGradient id="paint8_linear_1_34450" x1="1125.06" y1="645.05" x2="1131.37" y2="645.05" gradientUnits="userSpaceOnUse">
<stop stop-color="#603A17"/>
<stop offset="0.16" stop-color="#653E19"/>
<stop offset="0.35" stop-color="#73491D"/>
<stop offset="0.56" stop-color="#8B5C25"/>
<stop offset="0.73" stop-color="#A6712D"/>
<stop offset="0.88" stop-color="#C78C34"/>
<stop offset="1" stop-color="#E5A43A"/>
</linearGradient>
<linearGradient id="paint9_linear_1_34450" x1="1124.52" y1="651.63" x2="1131.9" y2="651.63" gradientUnits="userSpaceOnUse">
<stop stop-color="#603A17"/>
<stop offset="0.16" stop-color="#653E19"/>
<stop offset="0.35" stop-color="#73491D"/>
<stop offset="0.56" stop-color="#8B5C25"/>
<stop offset="0.73" stop-color="#A6712D"/>
<stop offset="0.88" stop-color="#C78C34"/>
<stop offset="1" stop-color="#E5A43A"/>
</linearGradient>
</defs>
</svg>
