<svg width="1660" height="1660" viewBox="0 0 1660 1660" fill="none" xmlns="http://www.w3.org/2000/svg">
<path d="M513.36 539.46H1146.63C1146.63 551.7 1146.63 563.94 1146.63 576.18L1121.44 578.35L1120.66 602.8L1094.73 603.49V627.94L1069.55 629.38L1070.24 655.3H915.39L915.24 632.54L887.71 632.21L887.65 605.32L860.94 605.23C860.88 590.443 860.817 575.657 860.75 560.87C851.483 561.21 842.023 561.443 832.37 561.57C821.51 561.71 810.88 561.71 800.48 561.57L800 604.83L774 605V631.37L747.51 631.71L747.59 656.23L594.48 658.16L594.09 632.7L569.15 632.46L569.21 610.58L546 610.18L545.64 583.49L516 583.32L513.61 583.24C513.517 568.653 513.433 554.06 513.36 539.46Z" fill="url(#paint0_linear_1_35013)" stroke="#010101" stroke-width="4" stroke-miterlimit="10"/>
<g opacity="0.93">
<path opacity="0.93" d="M579.68 566.3H554.25V591.73H579.68V566.3Z" fill="#F0EFEF"/>
<path opacity="0.93" d="M605.11 591.73H579.68V617.16H605.11V591.73Z" fill="#F0EFEF"/>
<path opacity="0.93" d="M630.55 566.3H605.12V591.73H630.55V566.3Z" fill="#F0EFEF"/>
<path opacity="0.93" d="M630.55 617.17H605.12V642.6H630.55V617.17Z" fill="#F0EFEF"/>
<path opacity="0.93" d="M655.98 591.73H630.55V617.16H655.98V591.73Z" fill="#F0EFEF"/>
<path opacity="0.93" d="M681.41 617.17H655.98V642.6H681.41V617.17Z" fill="#F0EFEF"/>
</g>
<g opacity="0.93">
<path opacity="0.93" d="M898.64 566.3H873.21V591.73H898.64V566.3Z" fill="#F0EFEF"/>
<path opacity="0.93" d="M924.07 591.73H898.64V617.16H924.07V591.73Z" fill="#F0EFEF"/>
<path opacity="0.93" d="M949.5 566.3H924.07V591.73H949.5V566.3Z" fill="#F0EFEF"/>
<path opacity="0.93" d="M949.5 617.17H924.07V642.6H949.5V617.17Z" fill="#F0EFEF"/>
<path opacity="0.93" d="M974.93 591.73H949.5V617.16H974.93V591.73Z" fill="#F0EFEF"/>
<path opacity="0.93" d="M1000.36 617.17H974.93V642.6H1000.36V617.17Z" fill="#F0EFEF"/>
</g>
<defs>
<linearGradient id="paint0_linear_1_35013" x1="513.36" y1="598.8" x2="1146.64" y2="598.8" gradientUnits="userSpaceOnUse">
<stop/>
<stop offset="0.31" stop-color="#050505"/>
<stop offset="0.7" stop-color="#151515"/>
<stop offset="1" stop-color="#262626"/>
</linearGradient>
</defs>
</svg>
