<svg width="1660" height="1660" viewBox="0 0 1660 1660" fill="none" xmlns="http://www.w3.org/2000/svg">
<path d="M740.45 125.94C753.407 125.94 763.91 115.437 763.91 102.48C763.91 89.5234 753.407 79.02 740.45 79.02C727.493 79.02 716.99 89.5234 716.99 102.48C716.99 115.437 727.493 125.94 740.45 125.94Z" fill="#010101" stroke="#030303" stroke-miterlimit="10"/>
<path d="M858.47 282.82C854.08 261.65 850.47 232.39 849.74 198.03C847.28 78.86 901.57 95.74 913.25 85.73" stroke="#030303" stroke-width="6" stroke-miterlimit="10"/>
<path d="M919.55 119.36C932.507 119.36 943.01 108.857 943.01 95.9C943.01 82.9434 932.507 72.44 919.55 72.44C906.593 72.44 896.09 82.9434 896.09 95.9C896.09 108.857 906.593 119.36 919.55 119.36Z" fill="#010101" stroke="#030303" stroke-miterlimit="10"/>
<path d="M803.18 280.85C807.493 255.656 809.86 230.167 810.26 204.61C812.72 85.44 758.43 102.32 746.75 92.31" stroke="#030303" stroke-width="6" stroke-miterlimit="10"/>
<path d="M563.48 196.1C576.437 196.1 586.94 185.597 586.94 172.64C586.94 159.683 576.437 149.18 563.48 149.18C550.523 149.18 540.02 159.683 540.02 172.64C540.02 185.597 550.523 196.1 563.48 196.1Z" fill="#010101" stroke="#030303" stroke-miterlimit="10"/>
<path d="M755.27 288.58C750.02 272.92 725.7 235.78 685.27 194.39C602 109.13 576 159.7 560.64 161" stroke="#030303" stroke-width="6" stroke-miterlimit="10"/>
<path d="M1096.52 196.1C1109.48 196.1 1119.98 185.597 1119.98 172.64C1119.98 159.683 1109.48 149.18 1096.52 149.18C1083.56 149.18 1073.06 159.683 1073.06 172.64C1073.06 185.597 1083.56 196.1 1096.52 196.1Z" fill="#010101" stroke="#030303" stroke-miterlimit="10"/>
<path d="M904.73 288.58C909.98 272.92 934.3 235.78 974.73 194.39C1058 109.13 1084 159.7 1099.36 161" stroke="#030303" stroke-width="6" stroke-miterlimit="10"/>
</svg>
