<svg width="1660" height="1660" viewBox="0 0 1660 1660" fill="none" xmlns="http://www.w3.org/2000/svg">
<path d="M740.45 125.94C753.407 125.94 763.91 115.437 763.91 102.48C763.91 89.5234 753.407 79.02 740.45 79.02C727.493 79.02 716.99 89.5234 716.99 102.48C716.99 115.437 727.493 125.94 740.45 125.94Z" fill="#010101" stroke="#030303" stroke-miterlimit="10"/>
<path d="M858.46 282.75C854.07 261.58 850.46 232.36 849.74 198.03C847.28 78.86 901.57 95.74 913.25 85.73" stroke="#030303" stroke-width="6" stroke-miterlimit="10"/>
<path d="M919.55 119.36C932.507 119.36 943.01 108.857 943.01 95.9C943.01 82.9434 932.507 72.44 919.55 72.44C906.593 72.44 896.09 82.9434 896.09 95.9C896.09 108.857 906.593 119.36 919.55 119.36Z" fill="#010101" stroke="#030303" stroke-miterlimit="10"/>
<path d="M803.18 280.85C807.493 255.656 809.86 230.167 810.26 204.61C812.72 85.44 758.43 102.32 746.75 92.31" stroke="#030303" stroke-width="6" stroke-miterlimit="10"/>
</svg>
