<svg width="1660" height="1660" viewBox="0 0 1660 1660" fill="none" xmlns="http://www.w3.org/2000/svg">
<path d="M537 1545.14C534.25 1546.34 517.74 1553.85 513.12 1571.01C509.94 1582.83 513.74 1594.89 519.12 1602.67C536.79 1628.13 596.92 1626.48 638.56 1603.47C658 1592.73 651.48 1589.47 686.66 1565.4C712.21 1547.93 740.66 1532.56 750.39 1527.32C754.48 1525.12 762.45 1524.57 768.02 1518.1C775.83 1509.1 775.29 1495.65 773.51 1485.48C772.26 1488.3 770.573 1490.9 768.51 1493.19C760.84 1501.74 749.94 1503.19 745.15 1504.13C738.94 1505.31 726.26 1513.13 700.91 1528.9C669.2 1548.57 675.14 1548.9 660.25 1556.34C637.42 1567.7 617.13 1569.96 593.4 1572.61C581.41 1573.94 569.306 1573.84 557.34 1572.31C544.57 1570.68 530.75 1568.92 528.58 1561.46C526.84 1555.37 533.66 1548.24 537 1545.14Z" fill="url(#paint0_radial_1_24283)" stroke="#010101" stroke-width="4" stroke-miterlimit="10"/>
<path d="M771.3 1371.06C761.77 1362.62 737.74 1362.91 729.3 1363.67C723.19 1364.23 725.98 1364.55 698.42 1369.32C691.65 1370.49 690.05 1370.72 687.79 1371.98C676.94 1377.98 675.92 1393.77 674.18 1403.19C670.65 1422.19 659.18 1435.65 636.27 1462.52C629.77 1470.13 613.82 1489.39 587.87 1506.52C577.61 1513.31 562.79 1521.76 546.06 1538.67C534.41 1550.43 527.44 1557.48 529.31 1563.67C533.59 1577.67 580.51 1575.73 603.84 1572.87C619.027 1571.24 633.97 1567.83 648.36 1562.71C684.61 1549.71 686.22 1537.01 730.63 1513.83C761.23 1497.83 770.48 1498.65 774.19 1487.7C779.92 1470.7 768.37 1437.63 772.25 1428.17C773.549 1425.46 774.052 1422.44 773.7 1419.46C773.31 1416.81 772.44 1416.6 772.25 1414.14C771.93 1409.96 774.31 1408.85 774.19 1404.94C774.09 1401.75 772.48 1401.61 771.77 1398.17C770.82 1393.59 773.21 1391.67 774.19 1386.07C775.37 1379.28 773.71 1371.55 771.28 1371.07C769.42 1370.7 768.41 1374.89 764.51 1378.81C759.51 1383.81 753.94 1384.22 740.8 1386.55C725.8 1389.22 718.28 1390.55 715.15 1392.36C706.34 1397.45 703.54 1406.03 698.69 1418.01C688.97 1442.01 684.11 1454.01 676.43 1464.47C657.92 1489.63 635.5 1488.77 628.04 1512.86C626.354 1518.34 625.696 1524.08 626.1 1529.8C627.24 1543.96 638.46 1560.8 642.1 1564.8" fill="url(#paint1_linear_1_24283)"/>
<path d="M771.3 1371.06C761.77 1362.62 737.74 1362.91 729.3 1363.67C723.19 1364.23 725.98 1364.55 698.42 1369.32C691.65 1370.49 690.05 1370.72 687.79 1371.98C676.94 1377.98 675.92 1393.77 674.18 1403.19C670.65 1422.19 659.18 1435.65 636.27 1462.52C629.77 1470.13 613.82 1489.39 587.87 1506.52C577.61 1513.31 562.79 1521.76 546.06 1538.67C534.41 1550.43 527.44 1557.48 529.31 1563.67C533.59 1577.67 580.51 1575.73 603.84 1572.87C619.027 1571.24 633.97 1567.83 648.36 1562.71C684.61 1549.71 686.22 1537.01 730.63 1513.83C761.23 1497.83 770.48 1498.65 774.19 1487.7C779.92 1470.7 768.37 1437.63 772.25 1428.17C773.549 1425.46 774.052 1422.44 773.7 1419.46C773.31 1416.81 772.44 1416.6 772.25 1414.14C771.93 1409.96 774.31 1408.85 774.19 1404.94C774.09 1401.75 772.48 1401.61 771.77 1398.17C770.82 1393.59 773.21 1391.67 774.19 1386.07C775.37 1379.28 773.71 1371.55 771.28 1371.07C769.42 1370.7 768.41 1374.89 764.51 1378.81C759.51 1383.81 753.94 1384.22 740.8 1386.55C725.8 1389.22 718.28 1390.55 715.15 1392.36C706.34 1397.45 703.54 1406.03 698.69 1418.01C688.97 1442.01 684.11 1454.01 676.43 1464.47C657.92 1489.63 635.5 1488.77 628.04 1512.86C626.354 1518.34 625.696 1524.08 626.1 1529.8C627.24 1543.96 638.46 1560.8 642.1 1564.8" stroke="#010101" stroke-width="4" stroke-miterlimit="10"/>
<path d="M690.51 1390.78C691.435 1387.66 692.781 1384.67 694.51 1381.91C695.052 1381.1 695.801 1380.45 696.681 1380.02C697.56 1379.6 698.537 1379.42 699.51 1379.5C702.969 1379.76 706.387 1380.4 709.7 1381.43C710.801 1381.83 711.852 1382.36 712.83 1383.01C713.482 1383.46 714.028 1384.05 714.429 1384.73C714.831 1385.41 715.078 1386.18 715.155 1386.96C715.231 1387.75 715.134 1388.55 714.871 1389.3C714.607 1390.04 714.184 1390.72 713.63 1391.29L706.73 1398.4C705.982 1399.19 705.085 1399.82 704.09 1400.25C702.686 1400.91 701.156 1401.27 699.603 1401.29C698.05 1401.31 696.511 1401 695.09 1400.37C694.052 1399.89 693.104 1399.23 692.29 1398.43C691.32 1397.44 690.641 1396.2 690.327 1394.85C690.013 1393.51 690.076 1392.1 690.51 1390.78V1390.78Z" fill="#CED0D5" stroke="#010101" stroke-width="4" stroke-miterlimit="10"/>
<path d="M705.784 1392.89C708.158 1390.02 708.294 1386.22 706.086 1384.39C703.878 1382.56 700.164 1383.4 697.79 1386.27C695.415 1389.14 695.28 1392.94 697.488 1394.77C699.696 1396.6 703.41 1395.76 705.784 1392.89Z" fill="#9A222D"/>
<path d="M680.43 1514.08C682.43 1511.93 688.93 1513.9 692.43 1511.18C697.05 1507.6 695.21 1507.02 705.59 1492.42C710.59 1485.42 727.59 1466.21 737.19 1463.1C746.79 1459.99 747.4 1461.21 756.83 1460.93C759.062 1460.9 761.279 1460.56 763.42 1459.93C769.35 1458.11 770.11 1455.7 771.98 1456.65C772.81 1457.07 772.86 1457.74 773.38 1463.32C773.96 1469.54 774.44 1472.73 773.97 1473.64C772.18 1477.12 768.04 1476.15 760.67 1475.87C749.89 1475.46 747.67 1475.79 740.4 1478.07C735.974 1479.39 731.901 1481.68 728.48 1484.78C727.02 1486.21 724.61 1487.94 717.26 1498.68C710.49 1508.57 709.39 1512.68 706.56 1517.68C704.699 1521.24 702.11 1524.37 698.96 1526.86C697.273 1528 695.355 1528.74 693.344 1529.05C691.334 1529.36 689.28 1529.22 687.33 1528.64C680.49 1526.35 677.09 1517.71 680.43 1514.08Z" fill="#EFEFEC"/>
<path d="M739.25 1388C710.58 1457.8 692.78 1491 685.37 1498.89C682.77 1501.52 680.94 1504.82 680.08 1508.42C678.17 1517.18 680.76 1523.16 692.76 1537.42" stroke="#010101" stroke-width="4" stroke-miterlimit="10"/>
<path fill-rule="evenodd" clip-rule="evenodd" d="M721 1394.77L720.38 1393.4C719.604 1393.75 718.853 1394.16 718.13 1394.61L718.92 1395.88C719.589 1395.47 720.284 1395.1 721 1394.77V1394.77Z" fill="#F9F9FA"/>
<path fill-rule="evenodd" clip-rule="evenodd" d="M725 1393.56L724.77 1392.08C723.919 1392.21 723.08 1392.41 722.26 1392.67L722.72 1394.1C723.466 1393.87 724.228 1393.69 725 1393.56Z" fill="#F9F9FA"/>
<path fill-rule="evenodd" clip-rule="evenodd" d="M729.14 1393.59L729.41 1392.11C728.551 1391.96 727.681 1391.9 726.81 1391.91V1393.41C727.591 1393.39 728.371 1393.45 729.14 1393.59Z" fill="#F9F9FA"/>
<path fill-rule="evenodd" clip-rule="evenodd" d="M711.69 1403.25L710.44 1402.41C709.98 1403.1 709.54 1403.8 709.13 1404.51L710.41 1405.27C710.82 1404.59 711.25 1403.91 711.69 1403.25Z" fill="#F9F9FA"/>
<path fill-rule="evenodd" clip-rule="evenodd" d="M714.29 1399.86L713.16 1398.86C712.61 1399.49 712.08 1400.14 711.59 1400.8L712.78 1401.7C713.26 1401.07 713.76 1400.45 714.29 1399.86Z" fill="#F9F9FA"/>
<path fill-rule="evenodd" clip-rule="evenodd" d="M717.36 1397L716.45 1395.81C715.778 1396.33 715.137 1396.88 714.53 1397.47L715.58 1398.55C716.14 1398 716.735 1397.48 717.36 1397Z" fill="#F9F9FA"/>
<path fill-rule="evenodd" clip-rule="evenodd" d="M705.54 1414.67L704.19 1414.01L703.13 1416.19L704.48 1416.85L705.54 1414.67Z" fill="#F9F9FA"/>
<path fill-rule="evenodd" clip-rule="evenodd" d="M707.46 1410.78L706.12 1410.1L705.04 1412.28L706.39 1412.95L707.46 1410.78Z" fill="#F9F9FA"/>
<path fill-rule="evenodd" clip-rule="evenodd" d="M709.45 1407L708.14 1406.28C707.74 1407 707.36 1407.72 706.99 1408.44L708.32 1409.13C708.69 1408.37 709.06 1407.66 709.45 1407Z" fill="#F9F9FA"/>
<path d="M698.58 1425.69L697.558 1427.88L698.917 1428.52L699.94 1426.32L698.58 1425.69Z" fill="#F9F9FA"/>
<path d="M700.433 1422.02L699.404 1424.21L700.761 1424.85L701.791 1422.66L700.433 1422.02Z" fill="#F9F9FA"/>
<path d="M702.292 1417.98L701.25 1420.17L702.603 1420.81L703.646 1418.63L702.292 1417.98Z" fill="#F9F9FA"/>
<path d="M693.034 1437.59L691.99 1439.77L693.343 1440.42L694.387 1438.23L693.034 1437.59Z" fill="#F9F9FA"/>
<path d="M694.897 1433.69L693.867 1435.88L695.224 1436.52L696.255 1434.33L694.897 1433.69Z" fill="#F9F9FA"/>
<path d="M696.737 1429.78L695.714 1431.97L697.073 1432.61L698.096 1430.41L696.737 1429.78Z" fill="#F9F9FA"/>
<path fill-rule="evenodd" clip-rule="evenodd" d="M688.56 1450L687.23 1449.31C686.86 1450.02 686.5 1450.74 686.1 1451.44L687.43 1452.15C687.82 1451.42 688.18 1450.69 688.56 1450Z" fill="#F9F9FA"/>
<path fill-rule="evenodd" clip-rule="evenodd" d="M690.56 1446.11L689.22 1445.43L688.12 1447.58L689.45 1448.26L690.56 1446.11Z" fill="#F9F9FA"/>
<path fill-rule="evenodd" clip-rule="evenodd" d="M692.49 1442.22L691.14 1441.56L690.07 1443.72L691.41 1444.39L692.49 1442.22Z" fill="#F9F9FA"/>
<path fill-rule="evenodd" clip-rule="evenodd" d="M682.14 1461.38L680.86 1460.59L679.56 1462.62L680.83 1463.42L682.14 1461.38Z" fill="#F9F9FA"/>
<path fill-rule="evenodd" clip-rule="evenodd" d="M684.35 1457.62L683.05 1456.87L681.83 1458.95L683.12 1459.71L684.35 1457.62Z" fill="#F9F9FA"/>
<path fill-rule="evenodd" clip-rule="evenodd" d="M686.48 1453.84L685.17 1453.11L684 1455.23L685.31 1455.96L686.48 1453.84Z" fill="#F9F9FA"/>
<path fill-rule="evenodd" clip-rule="evenodd" d="M674.75 1472.2L673.56 1471.29L672.09 1473.19L673.27 1474.13L674.75 1472.2Z" fill="#F9F9FA"/>
<path fill-rule="evenodd" clip-rule="evenodd" d="M677.32 1468.67L676.1 1467.81L674.72 1469.78L675.93 1470.66L677.32 1468.67Z" fill="#F9F9FA"/>
<path fill-rule="evenodd" clip-rule="evenodd" d="M679.77 1465.08L678.52 1464.26C678.1 1464.94 677.65 1465.6 677.18 1466.26L678.42 1467.11C678.89 1466.44 679.35 1465.77 679.77 1465.08Z" fill="#F9F9FA"/>
<path fill-rule="evenodd" clip-rule="evenodd" d="M666.19 1482.13L665.12 1481.07C664.57 1481.65 664.03 1482.24 663.43 1482.77L664.43 1483.85C665.08 1483.31 665.63 1482.71 666.19 1482.13Z" fill="#F9F9FA"/>
<path fill-rule="evenodd" clip-rule="evenodd" d="M669.2 1479L668.09 1478C667.57 1478.6 666.99 1479.16 666.44 1479.74L667.53 1480.74C668.09 1480.14 668.67 1479.58 669.2 1479Z" fill="#F9F9FA"/>
<path fill-rule="evenodd" clip-rule="evenodd" d="M672.04 1475.65L670.88 1474.7L669.32 1476.52L670.45 1477.51L672.04 1475.65Z" fill="#F9F9FA"/>
<path fill-rule="evenodd" clip-rule="evenodd" d="M656.35 1490.8L655.43 1489.61L653.52 1491.07L654.42 1492.27L656.35 1490.8Z" fill="#F9F9FA"/>
<path fill-rule="evenodd" clip-rule="evenodd" d="M659.76 1488.08L658.81 1486.92L656.94 1488.43L657.87 1489.61L659.76 1488.08Z" fill="#F9F9FA"/>
<path fill-rule="evenodd" clip-rule="evenodd" d="M663.02 1485.18L662 1484.07L660.24 1485.69L661.22 1486.83L663.02 1485.18Z" fill="#F9F9FA"/>
<path fill-rule="evenodd" clip-rule="evenodd" d="M645.95 1498.67L645.02 1497.49L643.12 1499.03L644.07 1500.18L645.95 1498.67Z" fill="#F9F9FA"/>
<path fill-rule="evenodd" clip-rule="evenodd" d="M649.38 1496.03L648.48 1494.83L646.54 1496.3L647.46 1497.49L649.38 1496.03Z" fill="#F9F9FA"/>
<path d="M651.924 1492.28L649.984 1493.73L650.881 1494.93L652.821 1493.49L651.924 1492.28Z" fill="#F9F9FA"/>
<path fill-rule="evenodd" clip-rule="evenodd" d="M636.54 1507.51L635.38 1506.51C634.85 1507.15 634.38 1507.81 633.87 1508.51L635.1 1509.37C635.55 1508.76 636 1508.13 636.54 1507.51Z" fill="#F9F9FA"/>
<path fill-rule="evenodd" clip-rule="evenodd" d="M639.42 1504.34L638.42 1503.28C637.83 1503.86 637.26 1504.46 636.71 1505.07L637.82 1506.07C638.31 1505.48 638.86 1504.91 639.42 1504.34Z" fill="#F9F9FA"/>
<path fill-rule="evenodd" clip-rule="evenodd" d="M642.59 1501.43L641.59 1500.3C640.97 1500.84 640.35 1501.37 639.75 1501.93L640.75 1503.04C641.37 1502.49 642 1502 642.59 1501.43Z" fill="#F9F9FA"/>
<path fill-rule="evenodd" clip-rule="evenodd" d="M631.19 1518.91L629.7 1518.71C629.65 1519.56 629.54 1520.41 629.53 1521.25H631C631 1520.47 631.14 1519.69 631.19 1518.91Z" fill="#F9F9FA"/>
<path fill-rule="evenodd" clip-rule="evenodd" d="M632.2 1514.81L630.79 1514.29C630.498 1515.09 630.251 1515.9 630.05 1516.72L631.51 1517.07C631.69 1516.3 631.92 1515.55 632.2 1514.81V1514.81Z" fill="#F9F9FA"/>
<path fill-rule="evenodd" clip-rule="evenodd" d="M634.05 1511L632.76 1510.23C632.33 1510.95 631.93 1511.69 631.57 1512.45L632.92 1513.09C633.26 1512.39 633.64 1511.69 634.05 1511Z" fill="#F9F9FA"/>
<path fill-rule="evenodd" clip-rule="evenodd" d="M633.33 1531.35L631.94 1531.92L632.93 1534.18L634.29 1533.55L633.33 1531.35Z" fill="#F9F9FA"/>
<path fill-rule="evenodd" clip-rule="evenodd" d="M631.93 1527.31L630.48 1527.71L630.82 1528.91C630.95 1529.31 631.1 1529.69 631.24 1530.08L632.65 1529.58C632.52 1529.2 632.37 1528.83 632.25 1528.45L631.93 1527.31Z" fill="#F9F9FA"/>
<path fill-rule="evenodd" clip-rule="evenodd" d="M631.13 1523.15L629.64 1523.29C629.718 1524.13 629.841 1524.96 630.01 1525.79L631.48 1525.49C631.324 1524.72 631.207 1523.94 631.13 1523.15V1523.15Z" fill="#F9F9FA"/>
<path fill-rule="evenodd" clip-rule="evenodd" d="M639.14 1542.99L637.8 1543.67L638.86 1545.82L640.22 1545.17L639.14 1542.99Z" fill="#F9F9FA"/>
<path d="M637.111 1539.14L635.784 1539.84L636.912 1541.98L638.239 1541.28L637.111 1539.14Z" fill="#F9F9FA"/>
<path fill-rule="evenodd" clip-rule="evenodd" d="M635.14 1535.29L633.79 1535.96C634.14 1536.7 634.53 1537.41 634.9 1538.13L636.23 1537.44C635.87 1536.73 635.48 1536 635.14 1535.29Z" fill="#F9F9FA"/>
<path fill-rule="evenodd" clip-rule="evenodd" d="M643.68 1555.34L642.2 1555.58C642.338 1556.34 642.422 1557.12 642.45 1557.89L643.95 1557.8C643.92 1556.97 643.83 1556.15 643.68 1555.34V1555.34Z" fill="#F9F9FA"/>
<path fill-rule="evenodd" clip-rule="evenodd" d="M642.63 1551.05L641.2 1551.51L641.85 1553.77L643.31 1553.41L642.63 1551.05Z" fill="#F9F9FA"/>
<path fill-rule="evenodd" clip-rule="evenodd" d="M641 1547L639.63 1547.61C639.967 1548.32 640.268 1549.06 640.53 1549.8L641.94 1549.27C641.69 1548.45 641.37 1547.71 641 1547Z" fill="#F9F9FA"/>
<path d="M726.976 1403.81L725.954 1406.03L727.317 1406.66L728.339 1404.43L726.976 1403.81Z" fill="#F9F9FA"/>
<path d="M728.803 1399.85L727.781 1402.07L729.144 1402.7L730.166 1400.47L728.803 1399.85Z" fill="#F9F9FA"/>
<path d="M730.624 1395.87L729.603 1398.1L730.966 1398.73L731.988 1396.5L730.624 1395.87Z" fill="#F9F9FA"/>
<path d="M721.47 1415.67L720.448 1417.9L721.812 1418.52L722.833 1416.3L721.47 1415.67Z" fill="#F9F9FA"/>
<path d="M723.297 1411.8L722.275 1414.03L723.638 1414.66L724.66 1412.43L723.297 1411.8Z" fill="#F9F9FA"/>
<path d="M725.128 1407.74L724.106 1409.97L725.469 1410.6L726.491 1408.37L725.128 1407.74Z" fill="#F9F9FA"/>
<path d="M715.974 1427.78L714.953 1430L716.316 1430.63L717.338 1428.4L715.974 1427.78Z" fill="#F9F9FA"/>
<path d="M717.801 1423.78L716.779 1426.01L718.143 1426.63L719.164 1424.4L717.801 1423.78Z" fill="#F9F9FA"/>
<path d="M719.632 1419.84L718.61 1422.07L719.974 1422.69L720.995 1420.46L719.632 1419.84Z" fill="#F9F9FA"/>
<path fill-rule="evenodd" clip-rule="evenodd" d="M711.82 1440.39L710.46 1439.76L709.43 1441.97L710.78 1442.61L711.82 1440.39Z" fill="#F9F9FA"/>
<path d="M712.3 1435.84L711.274 1438.07L712.636 1438.69L713.662 1436.47L712.3 1435.84Z" fill="#F9F9FA"/>
<path d="M714.126 1431.78L713.104 1434.01L714.467 1434.64L715.489 1432.41L714.126 1431.78Z" fill="#F9F9FA"/>
<path fill-rule="evenodd" clip-rule="evenodd" d="M706.15 1452.3L704.81 1451.64L703.73 1453.84L705.07 1454.5L706.15 1452.3Z" fill="#F9F9FA"/>
<path fill-rule="evenodd" clip-rule="evenodd" d="M708.07 1448.35L706.72 1447.7L705.66 1449.9L707.01 1450.56L708.07 1448.35Z" fill="#F9F9FA"/>
<path fill-rule="evenodd" clip-rule="evenodd" d="M709.95 1444.39L708.59 1443.76L707.54 1445.96L708.9 1446.61L709.95 1444.39Z" fill="#F9F9FA"/>
<path fill-rule="evenodd" clip-rule="evenodd" d="M700.17 1464.07L698.84 1463.36L697.69 1465.52L699.01 1466.23L700.17 1464.07Z" fill="#F9F9FA"/>
<path fill-rule="evenodd" clip-rule="evenodd" d="M702.21 1460.17L700.87 1459.49L699.75 1461.65L701.07 1462.35L702.21 1460.17Z" fill="#F9F9FA"/>
<path fill-rule="evenodd" clip-rule="evenodd" d="M704.19 1456.27L702.85 1455.6L701.75 1457.78L703.09 1458.46L704.19 1456.27Z" fill="#F9F9FA"/>
<path fill-rule="evenodd" clip-rule="evenodd" d="M693.77 1475.61L692.47 1474.86L691.24 1476.97L692.53 1477.73L693.77 1475.61Z" fill="#F9F9FA"/>
<path fill-rule="evenodd" clip-rule="evenodd" d="M695.94 1471.8L694.63 1471.06L693.43 1473.18L694.74 1473.93L695.94 1471.8Z" fill="#F9F9FA"/>
<path fill-rule="evenodd" clip-rule="evenodd" d="M698.07 1467.96L696.75 1467.24L695.57 1469.38L696.88 1470.11L698.07 1467.96Z" fill="#F9F9FA"/>
<path fill-rule="evenodd" clip-rule="evenodd" d="M686.96 1486.92L685.69 1486.13L684.38 1488.19L685.65 1488.99L686.96 1486.92Z" fill="#F9F9FA"/>
<path fill-rule="evenodd" clip-rule="evenodd" d="M689.27 1483.18L687.99 1482.4L686.71 1484.48L687.99 1485.27L689.27 1483.18Z" fill="#F9F9FA"/>
<path fill-rule="evenodd" clip-rule="evenodd" d="M691.53 1479.43L690.24 1478.67L688.99 1480.76L690.27 1481.53L691.53 1479.43Z" fill="#F9F9FA"/>
<path fill-rule="evenodd" clip-rule="evenodd" d="M679.79 1498L678.52 1497.2C678.08 1497.89 677.65 1498.6 677.23 1499.32L678.53 1500.07C678.93 1499.36 679.36 1498.67 679.79 1498Z" fill="#F9F9FA"/>
<path d="M680.935 1493.55L679.585 1495.59L680.837 1496.42L682.187 1494.37L680.935 1493.55Z" fill="#F9F9FA"/>
<path fill-rule="evenodd" clip-rule="evenodd" d="M684.59 1490.66L683.32 1489.85L682 1491.89L683.25 1492.71L684.59 1490.66Z" fill="#F9F9FA"/>
<path fill-rule="evenodd" clip-rule="evenodd" d="M675.19 1509.88L673.69 1509.82C673.663 1510.68 673.696 1511.55 673.79 1512.41L675.29 1512.24C675.197 1511.46 675.163 1510.67 675.19 1509.88Z" fill="#F9F9FA"/>
<path fill-rule="evenodd" clip-rule="evenodd" d="M675.94 1505.71L674.51 1505.27C674.254 1506.09 674.053 1506.92 673.91 1507.77L675.39 1508.02C675.524 1507.24 675.707 1506.47 675.94 1505.71Z" fill="#F9F9FA"/>
<path fill-rule="evenodd" clip-rule="evenodd" d="M677.59 1501.77L676.26 1501.08C675.87 1501.82 675.52 1502.59 675.19 1503.37L676.58 1503.94C676.89 1503.21 677.22 1502.48 677.59 1501.77Z" fill="#F9F9FA"/>
<path fill-rule="evenodd" clip-rule="evenodd" d="M678.89 1522.06L677.58 1522.79C677.98 1523.51 678.4 1524.23 678.82 1524.93L680.11 1524.16C679.69 1523.46 679.28 1522.76 678.89 1522.06Z" fill="#F9F9FA"/>
<path fill-rule="evenodd" clip-rule="evenodd" d="M677 1518.18L675.62 1518.78C675.96 1519.55 676.31 1520.31 676.69 1521.05L678.03 1520.36C677.61 1519.65 677.27 1518.92 677 1518.18Z" fill="#F9F9FA"/>
<path fill-rule="evenodd" clip-rule="evenodd" d="M675.6 1514.13L674.14 1514.46C674.334 1515.29 674.571 1516.11 674.85 1516.91L676.27 1516.42C676.007 1515.67 675.784 1514.9 675.6 1514.13V1514.13Z" fill="#F9F9FA"/>
<path d="M685.767 1533.24L684.489 1534.02L685.771 1536.11L687.049 1535.33L685.767 1533.24Z" fill="#F9F9FA"/>
<path d="M683.364 1529.65L682.086 1530.43L683.368 1532.52L684.646 1531.73L683.364 1529.65Z" fill="#F9F9FA"/>
<path d="M681.176 1525.77L679.898 1526.55L681.18 1528.64L682.458 1527.85L681.176 1525.77Z" fill="#F9F9FA"/>
<path fill-rule="evenodd" clip-rule="evenodd" d="M740.18 1412.59L740.59 1414.04L742.87 1413.38L742.44 1411.94L740.18 1412.59Z" fill="#F9F9FA"/>
<path fill-rule="evenodd" clip-rule="evenodd" d="M736.1 1413.65L736.45 1415.11L738.76 1414.53L738.38 1413.08L736.1 1413.65Z" fill="#F9F9FA"/>
<path fill-rule="evenodd" clip-rule="evenodd" d="M732 1414.57L732.3 1416.04C733.08 1415.88 733.86 1415.72 734.63 1415.54L734.3 1414.07C733.53 1414.25 732.76 1414.41 732 1414.57Z" fill="#F9F9FA"/>
<path fill-rule="evenodd" clip-rule="evenodd" d="M752.19 1408.55L752.74 1409.95C753.48 1409.65 754.22 1409.37 754.95 1409.05L754.37 1407.66C753.65 1408 752.92 1408.26 752.19 1408.55Z" fill="#F9F9FA"/>
<path fill-rule="evenodd" clip-rule="evenodd" d="M748.24 1410L748.74 1411.42C749.49 1411.16 750.24 1410.88 750.98 1410.6L750.45 1409.19C749.72 1409.51 749 1409.78 748.24 1410Z" fill="#F9F9FA"/>
<path fill-rule="evenodd" clip-rule="evenodd" d="M744.25 1411.38L744.71 1412.81C745.47 1412.58 746.22 1412.31 746.97 1412.06L746.49 1410.64C745.74 1410.89 745 1411.15 744.25 1411.38Z" fill="#F9F9FA"/>
<path fill-rule="evenodd" clip-rule="evenodd" d="M763.71 1403.28L764.4 1404.61C765.11 1404.25 765.81 1403.87 766.5 1403.49L765.78 1402.17C765.1 1402.55 764.41 1402.93 763.71 1403.28Z" fill="#F9F9FA"/>
<path fill-rule="evenodd" clip-rule="evenodd" d="M759.94 1405.17L760.59 1406.53L762.72 1405.47L762.05 1404.13L759.94 1405.17Z" fill="#F9F9FA"/>
<path fill-rule="evenodd" clip-rule="evenodd" d="M756.11 1406.92L756.71 1408.3L758.89 1407.32L758.26 1405.96L756.11 1406.92Z" fill="#F9F9FA"/>
<path fill-rule="evenodd" clip-rule="evenodd" d="M736.3 1431.23L736.51 1432.71L739.39 1432.24L739.11 1430.77L736.3 1431.23Z" fill="#F9F9FA"/>
<path fill-rule="evenodd" clip-rule="evenodd" d="M731.23 1431.72L731.31 1433.22C732.31 1433.14 733.25 1433.1 734.22 1432.99L734.06 1431.5C733.12 1431.61 732.18 1431.64 731.23 1431.72Z" fill="#F9F9FA"/>
<path fill-rule="evenodd" clip-rule="evenodd" d="M726.16 1431.76V1433.26C727.16 1433.26 728.1 1433.33 729.07 1433.26V1431.76C728.05 1431.83 727.11 1431.79 726.16 1431.76Z" fill="#F9F9FA"/>
<path fill-rule="evenodd" clip-rule="evenodd" d="M751 1427.19L751.57 1428.58C752.46 1428.19 753.37 1427.84 754.23 1427.4L753.59 1426.04C752.78 1426.48 751.89 1426.81 751 1427.19Z" fill="#F9F9FA"/>
<path fill-rule="evenodd" clip-rule="evenodd" d="M746.24 1428.94L746.7 1430.37L748.08 1429.93L749.45 1429.42L748.93 1428.01L747.6 1428.51L746.24 1428.94Z" fill="#F9F9FA"/>
<path fill-rule="evenodd" clip-rule="evenodd" d="M741.35 1430.29L741.68 1431.75C742.68 1431.56 743.56 1431.27 744.5 1431.03L744.1 1429.59C743.18 1429.82 742.28 1430.11 741.35 1430.29Z" fill="#F9F9FA"/>
<path fill-rule="evenodd" clip-rule="evenodd" d="M764.26 1419.6L765.17 1420.79C765.96 1420.23 766.7 1419.6 767.45 1418.97L766.45 1417.83C765.75 1418.43 765 1419.05 764.26 1419.6Z" fill="#F9F9FA"/>
<path fill-rule="evenodd" clip-rule="evenodd" d="M760.08 1422.51L760.88 1423.78C761.71 1423.27 762.5 1422.7 763.31 1422.16L762.45 1420.93C761.66 1421.46 760.89 1422 760.08 1422.51Z" fill="#F9F9FA"/>
<path fill-rule="evenodd" clip-rule="evenodd" d="M755.68 1425.04L756.37 1426.37L758.92 1424.97L758.17 1423.67L755.68 1425.04Z" fill="#F9F9FA"/>
<path fill-rule="evenodd" clip-rule="evenodd" d="M727 1449.6L727.13 1451.1C728 1451.02 728.87 1450.91 729.73 1450.78L729.5 1449.3C728.66 1449.42 727.83 1449.53 727 1449.6Z" fill="#F9F9FA"/>
<path fill-rule="evenodd" clip-rule="evenodd" d="M722.48 1449.72L722.42 1451.22C723.3 1451.22 724.17 1451.22 725.05 1451.22L724.99 1449.73C724.16 1449.76 723.32 1449.75 722.48 1449.72Z" fill="#F9F9FA"/>
<path fill-rule="evenodd" clip-rule="evenodd" d="M718 1449.22L717.73 1450.7C718.59 1450.86 719.46 1450.99 720.33 1451.07L720.48 1449.58C719.67 1449.5 718.84 1449.37 718 1449.22Z" fill="#F9F9FA"/>
<path fill-rule="evenodd" clip-rule="evenodd" d="M740.15 1446.33L740.71 1447.73C741.51 1447.41 742.31 1447.07 743.1 1446.73L742.49 1445.35C741.72 1445.69 740.94 1446 740.15 1446.33Z" fill="#F9F9FA"/>
<path fill-rule="evenodd" clip-rule="evenodd" d="M735.87 1447.83L736.31 1449.27C737.14 1449.01 737.96 1448.75 738.78 1448.45L738.27 1447.04C737.48 1447.33 736.68 1447.59 735.87 1447.83Z" fill="#F9F9FA"/>
<path fill-rule="evenodd" clip-rule="evenodd" d="M731.49 1448.94L731.79 1450.41C732.65 1450.25 733.49 1450.04 734.33 1449.82L733.95 1448.37C733.14 1448.58 732.32 1448.78 731.49 1448.94Z" fill="#F9F9FA"/>
<path fill-rule="evenodd" clip-rule="evenodd" d="M752.39 1440.23L753.14 1441.53L755.35 1440.23L754.59 1438.94L752.39 1440.23Z" fill="#F9F9FA"/>
<path fill-rule="evenodd" clip-rule="evenodd" d="M748.4 1442.45L749.11 1443.77L751.37 1442.54L750.63 1441.23L748.4 1442.45Z" fill="#F9F9FA"/>
<path fill-rule="evenodd" clip-rule="evenodd" d="M744.35 1444.5L744.99 1445.86C745.77 1445.49 746.54 1445.1 747.31 1444.72L746.63 1443.38C745.87 1443.76 745.12 1444.14 744.35 1444.5Z" fill="#F9F9FA"/>
<path fill-rule="evenodd" clip-rule="evenodd" d="M764.05 1433L764.93 1434.22C765.64 1433.71 766.33 1433.22 767.01 1432.61L766.01 1431.46C765.4 1432 764.73 1432.53 764.05 1433Z" fill="#F9F9FA"/>
<path fill-rule="evenodd" clip-rule="evenodd" d="M760.26 1435.52L761.04 1436.79C761.77 1436.34 762.5 1435.89 763.22 1435.41L762.4 1434.16L760.26 1435.52Z" fill="#F9F9FA"/>
<path d="M758.579 1436.5L756.386 1437.82L757.159 1439.1L759.353 1437.78L758.579 1436.5Z" fill="#F9F9FA"/>
<path fill-rule="evenodd" clip-rule="evenodd" d="M717.57 1474.11L716.29 1474.88L717.76 1477.33L719.05 1476.56L717.57 1474.11Z" fill="#F9F9FA"/>
<path fill-rule="evenodd" clip-rule="evenodd" d="M714.88 1469.74L713.61 1470.53L715.11 1472.95L716.39 1472.17L714.88 1469.74Z" fill="#F9F9FA"/>
<path fill-rule="evenodd" clip-rule="evenodd" d="M712.13 1465.42L710.87 1466.23L712.41 1468.63L713.67 1467.83L712.13 1465.42Z" fill="#F9F9FA"/>
<path fill-rule="evenodd" clip-rule="evenodd" d="M725.29 1487.46L723.98 1488.18L725.34 1490.68L726.66 1489.97L725.29 1487.46Z" fill="#F9F9FA"/>
<path fill-rule="evenodd" clip-rule="evenodd" d="M722.78 1482.98L721.48 1483.72L722.88 1486.2L724.19 1485.47L722.78 1482.98Z" fill="#F9F9FA"/>
<path fill-rule="evenodd" clip-rule="evenodd" d="M720.22 1478.55L718.93 1479.31L720.36 1481.77L721.66 1481.02L720.22 1478.55Z" fill="#F9F9FA"/>
<path fill-rule="evenodd" clip-rule="evenodd" d="M732.44 1501.12L731.09 1501.79L732.35 1504.35L733.7 1503.69L732.44 1501.12Z" fill="#F9F9FA"/>
<path fill-rule="evenodd" clip-rule="evenodd" d="M730.12 1496.54L728.79 1497.22L730.08 1499.77L731.42 1499.09L730.12 1496.54Z" fill="#F9F9FA"/>
<path fill-rule="evenodd" clip-rule="evenodd" d="M727.75 1492L726.43 1492.71L727.76 1495.23L729.09 1494.54L727.75 1492Z" fill="#F9F9FA"/>
<path fill-rule="evenodd" clip-rule="evenodd" d="M573 1527.35L571.73 1526.56C571.31 1527.23 570.89 1527.91 570.5 1528.56L571.79 1529.31C572.13 1528.68 572.54 1528 573 1527.35Z" fill="#F9F9FA"/>
<path fill-rule="evenodd" clip-rule="evenodd" d="M575.27 1523.88L574.05 1523.01C573.59 1523.66 573.14 1524.31 572.7 1525.01L573.95 1525.84C574.383 1525.17 574.823 1524.51 575.27 1523.88Z" fill="#F9F9FA"/>
<path fill-rule="evenodd" clip-rule="evenodd" d="M577.79 1520.56L576.62 1519.62C576.12 1520.24 575.62 1520.86 575.16 1521.5L576.36 1522.4C576.82 1521.77 577.3 1521.16 577.79 1520.56Z" fill="#F9F9FA"/>
<path fill-rule="evenodd" clip-rule="evenodd" d="M567.26 1538.53L565.86 1537.98C565.55 1538.76 565.287 1539.56 565.07 1540.37L566.55 1540.66C566.745 1539.94 566.982 1539.23 567.26 1538.53V1538.53Z" fill="#F9F9FA"/>
<path fill-rule="evenodd" clip-rule="evenodd" d="M568.93 1534.7L567.57 1534.06C567.23 1534.78 566.91 1535.5 566.57 1536.23L567.95 1536.82C568.28 1536.11 568.6 1535.4 568.93 1534.7Z" fill="#F9F9FA"/>
<path fill-rule="evenodd" clip-rule="evenodd" d="M570.82 1531L569.5 1530.28C569.12 1530.97 568.75 1531.68 568.4 1532.38L569.74 1533.06C570.09 1532.36 570.45 1531.67 570.82 1531Z" fill="#F9F9FA"/>
<path fill-rule="evenodd" clip-rule="evenodd" d="M570.27 1548.36L569.6 1549.71C570.421 1550.01 571.268 1550.24 572.13 1550.39L572.39 1548.91C571.669 1548.79 570.959 1548.61 570.27 1548.36V1548.36Z" fill="#F9F9FA"/>
<path fill-rule="evenodd" clip-rule="evenodd" d="M567.15 1546.1L565.86 1546.95C566.368 1547.67 567.006 1548.29 567.74 1548.77L568.74 1547.6C568.114 1547.21 567.574 1546.7 567.15 1546.1V1546.1Z" fill="#F9F9FA"/>
<path fill-rule="evenodd" clip-rule="evenodd" d="M566.24 1542.39L564.73 1542.47C564.657 1543.35 564.742 1544.23 564.98 1545.08L566.42 1544.56C566.235 1543.85 566.174 1543.12 566.24 1542.39Z" fill="#F9F9FA"/>
<path fill-rule="evenodd" clip-rule="evenodd" d="M582.55 1549.06L582.64 1550.56L585.01 1550.38L584.88 1548.89L582.55 1549.06Z" fill="#F9F9FA"/>
<path fill-rule="evenodd" clip-rule="evenodd" d="M578.37 1549.22V1550.72C579.16 1550.72 579.95 1550.72 580.74 1550.65L580.68 1549.16C579.92 1549.18 579.15 1549.22 578.37 1549.22Z" fill="#F9F9FA"/>
<path fill-rule="evenodd" clip-rule="evenodd" d="M574.22 1549.14L574.1 1550.64C574.92 1550.7 575.73 1550.72 576.52 1550.72V1549.22C575.75 1549.22 575 1549.2 574.22 1549.14Z" fill="#F9F9FA"/>
<path fill-rule="evenodd" clip-rule="evenodd" d="M595 1547.33L595.32 1548.8C596.09 1548.63 596.87 1548.47 597.63 1548.27L597.28 1546.81C596.52 1547 595.75 1547.17 595 1547.33Z" fill="#F9F9FA"/>
<path fill-rule="evenodd" clip-rule="evenodd" d="M590.88 1548.12L591.13 1549.6L593.46 1549.18L593.18 1547.71L590.88 1548.12Z" fill="#F9F9FA"/>
<path fill-rule="evenodd" clip-rule="evenodd" d="M586.75 1548.69L586.92 1550.18C587.71 1550.11 588.49 1549.99 589.28 1549.88L589.06 1548.39C588.29 1548.5 587.52 1548.62 586.75 1548.69Z" fill="#F9F9FA"/>
<path fill-rule="evenodd" clip-rule="evenodd" d="M607 1543.77L607.53 1545.17C608.28 1544.91 609.01 1544.6 609.74 1544.3L609.17 1542.91C608.49 1543.21 607.77 1543.51 607 1543.77Z" fill="#F9F9FA"/>
<path fill-rule="evenodd" clip-rule="evenodd" d="M603.09 1545.16L603.55 1546.58C604.3 1546.33 605.06 1546.1 605.8 1545.83L605.3 1544.42C604.57 1544.68 603.83 1544.91 603.09 1545.16Z" fill="#F9F9FA"/>
<path fill-rule="evenodd" clip-rule="evenodd" d="M599.09 1546.35L599.48 1547.8C600.25 1547.59 601 1547.36 601.76 1547.14L601.33 1545.7C600.59 1545.92 599.84 1546.15 599.09 1546.35Z" fill="#F9F9FA"/>
<path fill-rule="evenodd" clip-rule="evenodd" d="M618.42 1538.46L619.16 1539.76C619.85 1539.38 620.52 1538.96 621.16 1538.56L620.39 1537.27C619.76 1537.67 619.1 1538.08 618.42 1538.46Z" fill="#F9F9FA"/>
<path fill-rule="evenodd" clip-rule="evenodd" d="M614.72 1540.41L615.39 1541.75C616.1 1541.4 616.81 1541.05 617.5 1540.66L616.79 1539.34C616.11 1539.72 615.41 1540.06 614.72 1540.41Z" fill="#F9F9FA"/>
<path fill-rule="evenodd" clip-rule="evenodd" d="M610.94 1542.18L611.54 1543.56L613.71 1542.58L613.07 1541.22L610.94 1542.18Z" fill="#F9F9FA"/>
<path fill-rule="evenodd" clip-rule="evenodd" d="M556.08 1535.41L554.91 1534.47C554.38 1535.13 553.85 1535.8 553.33 1536.47L554.53 1537.38C555 1536.72 555.55 1536.07 556.08 1535.41Z" fill="#F9F9FA"/>
<path fill-rule="evenodd" clip-rule="evenodd" d="M559 1532L557.89 1531C557.32 1531.63 556.75 1532.26 556.19 1532.91L557.33 1533.91C557.9 1533.25 558.45 1532.63 559 1532Z" fill="#F9F9FA"/>
<path fill-rule="evenodd" clip-rule="evenodd" d="M562.14 1528.79L561.14 1527.71C560.53 1528.31 559.93 1528.91 559.34 1529.53L560.42 1530.53C561 1530 561.54 1529.37 562.14 1528.79Z" fill="#F9F9FA"/>
<path fill-rule="evenodd" clip-rule="evenodd" d="M549.19 1546.79L547.74 1546.39C547.501 1547.26 547.347 1548.16 547.28 1549.06L548.77 1549.17C548.835 1548.37 548.976 1547.57 549.19 1546.79V1546.79Z" fill="#F9F9FA"/>
<path fill-rule="evenodd" clip-rule="evenodd" d="M550.9 1542.74L549.58 1542.01C549.155 1542.78 548.771 1543.58 548.43 1544.39L549.82 1544.96C550.131 1544.2 550.492 1543.46 550.9 1542.74V1542.74Z" fill="#F9F9FA"/>
<path fill-rule="evenodd" clip-rule="evenodd" d="M553.32 1539L552.11 1538.12C551.61 1538.81 551.11 1539.52 550.65 1540.25L551.91 1541.06C552.36 1540.37 552.83 1539.69 553.32 1539Z" fill="#F9F9FA"/>
<path fill-rule="evenodd" clip-rule="evenodd" d="M553.26 1558.05L552.45 1559.31C553.203 1559.79 553.992 1560.21 554.81 1560.56L555.42 1559.19C554.673 1558.86 553.951 1558.48 553.26 1558.05Z" fill="#F9F9FA"/>
<path fill-rule="evenodd" clip-rule="evenodd" d="M550.16 1555.1L548.91 1555.93C549.427 1556.7 550.038 1557.4 550.73 1558.01L551.73 1556.89C551.131 1556.36 550.604 1555.76 550.16 1555.1V1555.1Z" fill="#F9F9FA"/>
<path fill-rule="evenodd" clip-rule="evenodd" d="M548.79 1551.12L547.29 1551.26C547.382 1552.18 547.59 1553.09 547.91 1553.96L549.32 1553.44C549.044 1552.69 548.866 1551.91 548.79 1551.12Z" fill="#F9F9FA"/>
<path fill-rule="evenodd" clip-rule="evenodd" d="M566 1561.38L565.93 1562.88C566.79 1562.88 567.64 1562.94 568.5 1562.94V1561.44C567.69 1561.44 566.85 1561.42 566 1561.38Z" fill="#F9F9FA"/>
<path fill-rule="evenodd" clip-rule="evenodd" d="M561.58 1560.93L561.34 1562.41C562.19 1562.56 563.05 1562.65 563.91 1562.74L564.05 1561.24C563.22 1561.16 562.39 1561.07 561.58 1560.93Z" fill="#F9F9FA"/>
<path fill-rule="evenodd" clip-rule="evenodd" d="M557.27 1559.9L556.8 1561.32C557.63 1561.59 558.47 1561.83 559.32 1562.02L559.66 1560.56C558.85 1560.37 558.06 1560.15 557.27 1559.9Z" fill="#F9F9FA"/>
<path fill-rule="evenodd" clip-rule="evenodd" d="M579.5 1560.72L579.7 1562.21C580.54 1562.11 581.38 1561.96 582.22 1561.84L581.99 1560.36C581.16 1560.48 580.34 1560.62 579.5 1560.72Z" fill="#F9F9FA"/>
<path fill-rule="evenodd" clip-rule="evenodd" d="M575 1561.17L575.11 1562.67C575.96 1562.61 576.81 1562.55 577.65 1562.44L577.49 1560.95C576.69 1561.05 575.86 1561.11 575 1561.17Z" fill="#F9F9FA"/>
<path fill-rule="evenodd" clip-rule="evenodd" d="M570.54 1561.41L570.58 1562.91L573.13 1562.82L573.05 1561.32L570.54 1561.41Z" fill="#F9F9FA"/>
<path fill-rule="evenodd" clip-rule="evenodd" d="M592.77 1558.08L593.16 1559.53L595.61 1558.84L595.19 1557.4L592.77 1558.08Z" fill="#F9F9FA"/>
<path fill-rule="evenodd" clip-rule="evenodd" d="M588.39 1559.14L588.72 1560.61C589.55 1560.43 590.38 1560.24 591.2 1560.02L590.84 1558.57C590 1558.78 589.21 1559 588.39 1559.14Z" fill="#F9F9FA"/>
<path fill-rule="evenodd" clip-rule="evenodd" d="M583.99 1560.03L584.25 1561.5L586.76 1561.04L586.46 1559.57L583.99 1560.03Z" fill="#F9F9FA"/>
<path fill-rule="evenodd" clip-rule="evenodd" d="M605.66 1553.89L606.19 1555.29L608.56 1554.36L608 1552.97L605.66 1553.89Z" fill="#F9F9FA"/>
<path fill-rule="evenodd" clip-rule="evenodd" d="M601.41 1555.42L601.9 1556.84C602.7 1556.57 603.5 1556.29 604.3 1555.99L603.78 1554.58C603 1554.86 602.21 1555.14 601.41 1555.42Z" fill="#F9F9FA"/>
<path fill-rule="evenodd" clip-rule="evenodd" d="M597.14 1556.82L597.58 1558.25L600 1557.49L599.54 1556.06L597.14 1556.82Z" fill="#F9F9FA"/>
<path fill-rule="evenodd" clip-rule="evenodd" d="M618.13 1548.56L618.77 1549.92L621.06 1548.82L620.4 1547.47L618.13 1548.56Z" fill="#F9F9FA"/>
<path fill-rule="evenodd" clip-rule="evenodd" d="M614 1550.43L614.61 1551.81C615.38 1551.47 616.16 1551.12 616.92 1550.81L616.3 1549.45C615.56 1549.76 614.79 1550.1 614 1550.43Z" fill="#F9F9FA"/>
<path fill-rule="evenodd" clip-rule="evenodd" d="M609.88 1552.21L610.45 1553.59L612.8 1552.61L612.2 1551.23L609.88 1552.21Z" fill="#F9F9FA"/>
<path d="M640.67 1520.15C643.47 1520.15 645.74 1518.23 645.74 1515.87C645.74 1513.51 643.47 1511.59 640.67 1511.59C637.87 1511.59 635.6 1513.51 635.6 1515.87C635.6 1518.23 637.87 1520.15 640.67 1520.15Z" fill="url(#paint2_linear_1_24283)" stroke="#010101" stroke-width="4" stroke-miterlimit="10"/>
<path d="M655.5 1507.37C658.3 1507.37 660.57 1505.45 660.57 1503.09C660.57 1500.73 658.3 1498.81 655.5 1498.81C652.7 1498.81 650.43 1500.73 650.43 1503.09C650.43 1505.45 652.7 1507.37 655.5 1507.37Z" fill="url(#paint3_linear_1_24283)" stroke="#010101" stroke-width="4" stroke-miterlimit="10"/>
<path d="M667.32 1496.16C670.12 1496.16 672.39 1494.24 672.39 1491.88C672.39 1489.52 670.12 1487.6 667.32 1487.6C664.52 1487.6 662.25 1489.52 662.25 1491.88C662.25 1494.24 664.52 1496.16 667.32 1496.16Z" fill="url(#paint4_linear_1_24283)" stroke="#010101" stroke-width="4" stroke-miterlimit="10"/>
<path d="M680.34 1484.38C683.14 1484.38 685.41 1482.46 685.41 1480.1C685.41 1477.74 683.14 1475.82 680.34 1475.82C677.54 1475.82 675.27 1477.74 675.27 1480.1C675.27 1482.46 677.54 1484.38 680.34 1484.38Z" fill="url(#paint5_linear_1_24283)" stroke="#010101" stroke-width="4" stroke-miterlimit="10"/>
<path d="M690.48 1470.31C693.28 1470.31 695.55 1468.39 695.55 1466.03C695.55 1463.67 693.28 1461.75 690.48 1461.75C687.68 1461.75 685.41 1463.67 685.41 1466.03C685.41 1468.39 687.68 1470.31 690.48 1470.31Z" fill="url(#paint6_linear_1_24283)" stroke="#010101" stroke-width="4" stroke-miterlimit="10"/>
<path d="M699.78 1450.05C702.58 1450.05 704.85 1448.13 704.85 1445.77C704.85 1443.41 702.58 1441.49 699.78 1441.49C696.98 1441.49 694.71 1443.41 694.71 1445.77C694.71 1448.13 696.98 1450.05 699.78 1450.05Z" fill="url(#paint7_linear_1_24283)" stroke="#010101" stroke-width="4" stroke-miterlimit="10"/>
<path d="M709.38 1430.76C712.18 1430.76 714.45 1428.84 714.45 1426.48C714.45 1424.12 712.18 1422.2 709.38 1422.2C706.58 1422.2 704.31 1424.12 704.31 1426.48C704.31 1428.84 706.58 1430.76 709.38 1430.76Z" fill="url(#paint8_linear_1_24283)" stroke="#010101" stroke-width="4" stroke-miterlimit="10"/>
<path d="M715.6 1412.69C718.4 1412.69 720.67 1410.77 720.67 1408.41C720.67 1406.05 718.4 1404.13 715.6 1404.13C712.8 1404.13 710.53 1406.05 710.53 1408.41C710.53 1410.77 712.8 1412.69 715.6 1412.69Z" fill="url(#paint9_linear_1_24283)" stroke="#010101" stroke-width="4" stroke-miterlimit="10"/>
<path d="M597.37 1505.31C597.483 1505.12 597.613 1504.94 597.76 1504.78C597.37 1505.13 597.36 1505.15 597.7 1504.86C597.18 1505.16 597.14 1505.2 597.56 1504.96C597.98 1504.72 597.95 1504.78 597.56 1504.96C596.85 1505.2 598.14 1504.8 598.28 1504.81C597.11 1504.75 598.28 1504.81 598.63 1504.81C598.98 1504.81 599.44 1504.81 599.85 1504.81C598.7 1504.81 600.39 1504.81 600.55 1504.87C601.64 1504.97 602.72 1505.08 603.8 1505.2C608.118 1505.71 612.398 1506.51 616.61 1507.59C617.03 1507.7 618.42 1508.08 619.19 1508.31C620.19 1508.62 621.27 1508.95 622.3 1509.31C624.3 1509.97 626.3 1510.69 628.23 1511.49C629.1 1511.85 629.96 1512.23 630.8 1512.64C631.472 1512.96 632.121 1513.33 632.74 1513.74C633.515 1514.24 634.253 1514.8 634.95 1515.4C635.226 1515.62 635.477 1515.86 635.7 1516.13C635.87 1516.33 636.04 1516.53 636.2 1516.74C636.49 1517.16 636.52 1517.16 636.29 1516.74L636.45 1514.97L636.38 1515.21L638.59 1513.04L638.42 1513.11L642.87 1512.8L642.7 1512.73L644.2 1513.84L644.1 1513.71L643.82 1517.12L643.9 1517.01C644.99 1515.35 644.77 1513.22 642.68 1512.47C640.76 1511.79 637.75 1512.27 636.54 1514.12L636.46 1514.24C636.053 1514.7 635.805 1515.29 635.755 1515.9C635.705 1516.52 635.854 1517.14 636.18 1517.66C638.42 1520.93 645.3 1518.98 645.02 1514.86C644.88 1512.86 642.61 1510.95 641.14 1509.75C637.99 1507.18 634.08 1505.58 630.31 1504.19C621.742 1501.02 612.79 1499 603.69 1498.19C598.92 1497.78 592.95 1498.03 589.98 1502.46C588.87 1504.11 589.12 1506.25 591.19 1506.99C593.26 1507.73 596.1 1507.19 597.34 1505.35L597.37 1505.31Z" fill="#F9F9FA"/>
<path d="M611.69 1491.52C611.98 1491.25 612.26 1490.98 612.56 1490.74C612.08 1491.13 613.06 1490.4 613.17 1490.32C613.49 1490.11 613.83 1489.92 614.17 1489.71C614.51 1489.5 614.39 1489.58 614.04 1489.78L614.73 1489.44C615.08 1489.27 615.44 1489.12 615.8 1488.97C616.16 1488.82 617.1 1488.49 616.12 1488.82C616.87 1488.57 617.63 1488.34 618.39 1488.14C619.15 1487.94 619.93 1487.76 620.71 1487.6C621.02 1487.54 621.89 1487.37 621.09 1487.52L622.46 1487.28C624.19 1486.99 625.93 1486.73 627.66 1486.48C629.39 1486.23 631.19 1486 632.97 1485.84C633.92 1485.75 634.88 1485.68 635.84 1485.63H636.51H638C641.3 1485.57 644.577 1486.19 647.63 1487.44C648.642 1487.83 649.734 1487.98 650.813 1487.85C651.892 1487.73 652.924 1487.34 653.82 1486.73C654.95 1485.98 656.47 1483.79 654.47 1482.93C646.11 1479.36 637.02 1479.93 628.22 1481.18C619.9 1482.39 610.95 1483.66 604.59 1489.69C603.21 1491 603.76 1492.69 605.53 1493.19C606.611 1493.43 607.733 1493.4 608.801 1493.11C609.87 1492.83 610.854 1492.29 611.67 1491.54L611.69 1491.52Z" fill="#F9F9FA"/>
<path d="M626.62 1475.91C627.44 1475.56 628.28 1475.24 629.12 1474.91C629.96 1474.58 628.66 1475.02 629.68 1474.74L630.75 1474.43L632.05 1474.11C632.31 1474.05 633.05 1473.9 632.4 1474.03C633.28 1473.85 634.16 1473.69 635.05 1473.55C638.38 1473.03 641.05 1472.84 644.66 1472.55C647.65 1472.24 650.66 1472.18 653.66 1472.37C656.58 1472.56 659.411 1473.46 661.91 1474.98C663.45 1475.98 666 1475.29 667.56 1474.66C668.07 1474.46 671.56 1472.81 670.07 1471.88C663.61 1467.77 655.62 1468.05 648.28 1468.61C639.87 1469.25 631.28 1470.03 623.45 1473.4C622.7 1473.72 619.72 1474.96 620.95 1476.18C622.18 1477.4 625.44 1476.37 626.59 1475.87L626.62 1475.91Z" fill="#F9F9FA"/>
<path d="M639.48 1462.49C640.932 1461.67 642.428 1460.92 643.96 1460.26C644.29 1460.11 644.62 1459.97 644.96 1459.84C644.96 1459.84 646.32 1459.33 645.46 1459.63C646.21 1459.37 646.97 1459.12 647.73 1458.89C649.328 1458.41 650.95 1458.01 652.59 1457.7C653.42 1457.54 652.4 1457.7 652.91 1457.7C653.42 1457.7 653.63 1457.6 653.98 1457.55C654.85 1457.44 655.71 1457.35 656.58 1457.29C657.45 1457.23 658.17 1457.2 658.97 1457.18C659.33 1457.18 659.7 1457.18 660.06 1457.18C659.33 1457.18 660.68 1457.18 660.68 1457.18C662.224 1457.24 663.763 1457.38 665.29 1457.62C667.46 1457.96 670.13 1458.74 671.76 1460.41L678.25 1455.57L677.25 1455.15C676.176 1454.81 675.026 1454.78 673.937 1455.07C672.848 1455.36 671.866 1455.96 671.11 1456.8C669.74 1458.42 670.37 1460.23 672.23 1461L673.23 1461.42C674.143 1461.7 675.109 1461.75 676.047 1461.58C676.985 1461.4 677.868 1461.01 678.62 1460.42C679.62 1459.61 680.92 1457.76 679.72 1456.53C674.3 1450.98 665.54 1450.43 658.23 1450.82C650.299 1451.25 642.572 1453.48 635.64 1457.36C634.14 1458.2 632.25 1460.01 633.58 1461.82C634.91 1463.63 637.86 1463.38 639.48 1462.47V1462.49Z" fill="#F9F9FA"/>
<path d="M653.45 1445.76L654.37 1445.46L654.61 1445.39C655.3 1445.18 655.99 1444.99 656.69 1444.81L657.61 1444.57L658.18 1444.44L658.99 1444.27L659.92 1444.1C662.333 1443.66 664.778 1443.42 667.23 1443.39C672.349 1443.34 677.447 1444.04 682.36 1445.48C684.28 1446.02 686.74 1445.3 688.45 1444.48C689.28 1444.06 691.39 1442.54 689.45 1442C676.45 1438.35 663.03 1439.21 650.35 1443.52C649.63 1443.77 646.63 1445.05 647.82 1446.19C649.01 1447.33 652.25 1446.19 653.44 1445.81L653.45 1445.76Z" fill="#F9F9FA"/>
<path d="M663.09 1429.12C664.727 1429.09 666.36 1429.29 667.94 1429.72C670.164 1430.23 672.438 1430.49 674.72 1430.49C680.22 1430.42 685.59 1429.12 690.95 1428.01C692.091 1427.8 693.205 1427.47 694.27 1427.01C694.69 1426.81 695.87 1426.28 696.06 1425.72C696.56 1424.32 693.06 1424.9 692.61 1424.99C687.94 1425.99 683.55 1427.28 678.95 1427.06C677.216 1426.9 675.498 1426.61 673.81 1426.18C671.537 1425.72 669.21 1425.6 666.9 1425.8C665.02 1425.95 662.48 1426.51 661.07 1427.8C659.66 1429.09 662.36 1429.16 663.07 1429.1L663.09 1429.12Z" fill="#F9F9FA"/>
<path d="M674.65 1413.7C677.937 1412.5 681.305 1411.53 684.73 1410.81C685.5 1410.64 686.27 1410.5 687.04 1410.36C686.27 1410.49 687.7 1410.27 687.7 1410.27L688.86 1410.11C690.56 1409.89 692.26 1409.74 693.97 1409.65C697.094 1409.46 700.23 1409.54 703.34 1409.89C706.636 1410.23 709.904 1410.79 713.12 1411.59C714.195 1411.93 715.345 1411.96 716.435 1411.67C717.524 1411.38 718.508 1410.78 719.27 1409.95C720.44 1408.48 720.15 1406.07 718.08 1405.54C703.199 1401.6 687.472 1402.27 672.98 1407.46C671.25 1408.09 668.87 1409.52 669.46 1411.75C670 1413.75 672.93 1414.32 674.65 1413.75V1413.7Z" fill="#F9F9FA"/>
<path d="M673.32 1396.37C679.7 1401.14 685.831 1406.23 691.69 1411.62C694.56 1414.26 697.39 1416.96 700.1 1419.76C702.5 1422.24 704.72 1424.89 705.18 1428.42C705.26 1429.08 706.35 1429.42 706.82 1429.42C707.902 1429.57 709.003 1429.48 710.05 1429.17C711.34 1428.8 714.11 1427.85 713.87 1426.06C713.41 1422.51 711.15 1419.55 708.77 1417.06C706.02 1414.14 703.09 1411.37 700.14 1408.65C694.174 1403.14 687.926 1397.95 681.42 1393.09C679.89 1391.94 677.34 1392.46 675.71 1393.16C675 1393.47 671.78 1395.23 673.32 1396.37V1396.37Z" fill="#F9F9FA"/>
<path d="M671 1421.7C682.123 1427.45 690.945 1436.83 696 1448.28C696.52 1449.46 699.82 1448.5 700.66 1448.28C701.18 1448.13 705.16 1447.01 704.66 1445.96C699.481 1434.29 690.485 1424.73 679.15 1418.85C677.65 1418.07 675.05 1418.94 673.59 1419.48C673.22 1419.61 669.73 1421.09 670.93 1421.71L671 1421.7Z" fill="#F9F9FA"/>
<path d="M660.9 1439.22C671.892 1446.31 680.748 1456.26 686.52 1468C687.13 1469.25 690.24 1468.39 691.21 1468.12C691.74 1467.97 695.76 1466.78 695.21 1465.67C689.325 1453.69 680.301 1443.53 669.1 1436.28C667.69 1435.37 664.91 1436.28 663.51 1436.81C663.06 1436.98 659.65 1438.4 660.9 1439.21V1439.22Z" fill="#F9F9FA"/>
<path d="M652.33 1453.23C663.127 1459.98 671.565 1469.91 676.48 1481.66C677.21 1483.42 679.94 1483.2 681.43 1482.76C682.5 1482.45 685.9 1481.08 685.17 1479.33C679.905 1466.74 670.835 1456.11 659.23 1448.93C657.52 1447.87 654.61 1448.73 653.06 1449.71C651.72 1450.56 650.61 1452.16 652.33 1453.23V1453.23Z" fill="#F9F9FA"/>
<path d="M637.88 1468C648.71 1473.9 657.519 1482.92 663.17 1493.88C664.48 1496.44 672.87 1493.5 671.86 1491.55C665.84 1479.91 656.424 1470.37 644.86 1464.21C643.945 1463.93 642.974 1463.89 642.04 1464.1C640.887 1464.26 639.77 1464.63 638.74 1465.17C637.55 1465.83 636.13 1467.09 637.83 1468H637.88Z" fill="#F9F9FA"/>
<path d="M627.37 1481.64C632.74 1483.64 637.89 1486.21 641.93 1490.48C643.893 1492.6 645.685 1494.88 647.29 1497.28C648.09 1498.45 648.86 1499.64 649.63 1500.84C650.07 1501.46 650.478 1502.11 650.85 1502.77C650.962 1502.96 651.03 1503.18 651.047 1503.4C651.064 1503.62 651.031 1503.84 650.95 1504.05C650.71 1504.8 651.4 1505.69 651.95 1506.05C652.843 1506.55 653.874 1506.75 654.89 1506.62C657.01 1506.38 659.04 1505.37 659.72 1503.26C660.28 1501.49 659.32 1499.81 658.4 1498.36C657.48 1496.91 656.65 1495.61 655.75 1494.26C654.012 1491.6 652.059 1489.09 649.91 1486.75C645.06 1481.63 638.98 1478.56 632.46 1476.08C631.384 1475.77 630.244 1475.76 629.163 1476.05C628.082 1476.34 627.099 1476.92 626.32 1477.72C624.94 1479.26 625.53 1480.94 627.32 1481.63L627.37 1481.64Z" fill="#F9F9FA"/>
<path d="M609.48 1496.21C615.606 1497.7 621.601 1499.68 627.41 1502.13C628.432 1502.47 629.517 1502.57 630.584 1502.43C631.651 1502.28 632.672 1501.9 633.57 1501.31C634.57 1500.62 636.3 1498.76 634.33 1497.93C627.998 1495.29 621.472 1493.14 614.81 1491.5C613.727 1491.3 612.612 1491.34 611.548 1491.63C610.484 1491.91 609.497 1492.43 608.66 1493.15C608.17 1493.63 607.6 1494.27 607.8 1495.02C608 1495.77 608.8 1496.02 609.48 1496.21V1496.21Z" fill="#F9F9FA"/>
<path d="M760.36 1379.48L765.26 1339.62C764.52 1337.19 763.06 1333.86 759.94 1331.9C754.51 1328.5 750.25 1333.14 741.61 1331.54C732.14 1329.79 729.75 1322.81 722.96 1324.03C720.03 1324.55 715.41 1325.39 714.78 1329.73C711.49 1352.63 709.93 1356.09 706.64 1378.99C706.07 1382.92 715.17 1380.33 715.17 1385.45C715.129 1386.89 715.569 1388.29 716.42 1389.45C717.74 1391.52 723.15 1390.38 725.09 1389.98C730.61 1388.83 736.17 1387.87 741.69 1386.7C752.69 1384.36 759.15 1384.22 760.21 1380.62C760.317 1380.25 760.368 1379.87 760.36 1379.48Z" fill="#EDEDEE" stroke="#010101" stroke-width="4" stroke-miterlimit="10"/>
<path d="M1125.94 1548.47C1128.69 1549.67 1145.21 1557.18 1149.82 1574.33C1153 1586.16 1149.2 1598.22 1143.82 1606C1126.16 1631.45 1066.02 1629.81 1024.38 1606.8C1004.94 1596.06 1011.46 1592.8 976.28 1568.72C950.74 1551.25 922.28 1535.89 912.55 1530.65C908.46 1528.45 900.55 1527.89 894.92 1521.43C887.11 1512.43 887.65 1498.98 889.44 1488.81C890.668 1491.63 892.335 1494.23 894.38 1496.52C902.05 1505.07 912.95 1506.52 917.75 1507.46C923.95 1508.64 936.63 1516.46 961.98 1532.22C993.69 1551.9 987.75 1552.22 1002.64 1559.67C1025.48 1571.02 1045.76 1573.29 1069.49 1575.94C1081.48 1577.27 1093.58 1577.16 1105.55 1575.63C1118.32 1574.01 1132.14 1572.25 1134.31 1564.79C1136.07 1558.69 1129.25 1551.56 1125.94 1548.47Z" fill="url(#paint10_radial_1_24283)" stroke="#010101" stroke-width="4" stroke-miterlimit="10"/>
<path d="M891.61 1374.38C901.14 1365.95 925.18 1366.24 933.61 1367C939.72 1367.55 936.93 1367.87 964.49 1372.64C971.26 1373.82 972.86 1374.04 975.12 1375.3C985.97 1381.3 986.99 1397.09 988.74 1406.52C992.26 1425.52 1003.74 1438.98 1026.65 1465.85C1033.14 1473.46 1049.09 1492.72 1075.04 1509.85C1085.3 1516.63 1100.12 1525.09 1116.85 1541.99C1128.5 1553.76 1135.47 1560.8 1133.6 1566.99C1129.32 1580.99 1082.41 1578.99 1059.07 1576.18C1043.88 1574.56 1028.94 1571.15 1014.55 1566.02C978.3 1553.02 976.69 1540.33 932.28 1517.14C901.68 1501.14 892.43 1501.97 888.72 1491.01C882.99 1474.07 894.54 1440.95 890.66 1431.49C889.361 1428.78 888.859 1425.76 889.21 1422.78C889.6 1420.12 890.47 1419.91 890.66 1417.45C890.98 1413.28 888.6 1412.17 888.72 1408.26C888.82 1405.07 890.43 1404.92 891.14 1401.48C892.14 1396.91 889.7 1394.99 888.72 1389.38C887.54 1382.6 889.21 1374.86 891.63 1374.38C893.49 1374.01 894.5 1378.21 898.4 1382.13C903.4 1387.13 908.98 1387.54 922.12 1389.87C937.12 1392.53 944.63 1393.87 947.77 1395.68C956.57 1400.77 959.37 1409.35 964.22 1421.32C973.94 1445.32 978.8 1457.32 986.48 1467.78C1004.99 1492.94 1027.42 1492.09 1034.87 1516.18C1036.56 1521.66 1037.21 1527.4 1036.81 1533.11C1035.67 1547.28 1024.46 1564.11 1020.81 1568.11" fill="url(#paint11_linear_1_24283)"/>
<path d="M891.61 1374.38C901.14 1365.95 925.18 1366.24 933.61 1367C939.72 1367.55 936.93 1367.87 964.49 1372.64C971.26 1373.82 972.86 1374.04 975.12 1375.3C985.97 1381.3 986.99 1397.09 988.74 1406.52C992.26 1425.52 1003.74 1438.98 1026.65 1465.85C1033.14 1473.46 1049.09 1492.72 1075.04 1509.85C1085.3 1516.63 1100.12 1525.09 1116.85 1541.99C1128.5 1553.76 1135.47 1560.8 1133.6 1566.99C1129.32 1580.99 1082.41 1578.99 1059.07 1576.18C1043.88 1574.56 1028.94 1571.15 1014.55 1566.02C978.3 1553.02 976.69 1540.33 932.28 1517.14C901.68 1501.14 892.43 1501.97 888.72 1491.01C882.99 1474.07 894.54 1440.95 890.66 1431.49C889.361 1428.78 888.859 1425.76 889.21 1422.78C889.6 1420.12 890.47 1419.91 890.66 1417.45C890.98 1413.28 888.6 1412.17 888.72 1408.26C888.82 1405.07 890.43 1404.92 891.14 1401.48C892.14 1396.91 889.7 1394.99 888.72 1389.38C887.54 1382.6 889.21 1374.86 891.63 1374.38C893.49 1374.01 894.5 1378.21 898.4 1382.13C903.4 1387.13 908.98 1387.54 922.12 1389.87C937.12 1392.53 944.63 1393.87 947.77 1395.68C956.57 1400.77 959.37 1409.35 964.22 1421.32C973.94 1445.32 978.8 1457.32 986.48 1467.78C1004.99 1492.94 1027.42 1492.09 1034.87 1516.18C1036.56 1521.66 1037.21 1527.4 1036.81 1533.11C1035.67 1547.28 1024.46 1564.11 1020.81 1568.11" stroke="#010101" stroke-width="4" stroke-miterlimit="10"/>
<path d="M972.4 1394.1C971.473 1390.98 970.127 1387.99 968.4 1385.23C967.86 1384.42 967.11 1383.76 966.23 1383.34C965.35 1382.92 964.372 1382.74 963.4 1382.83C959.941 1383.09 956.523 1383.73 953.21 1384.76C952.109 1385.16 951.061 1385.69 950.09 1386.34C949.436 1386.79 948.888 1387.37 948.484 1388.06C948.081 1388.74 947.832 1389.5 947.754 1390.29C947.677 1391.08 947.774 1391.88 948.037 1392.62C948.301 1393.37 948.725 1394.05 949.28 1394.62L956.18 1401.73C956.931 1402.51 957.828 1403.14 958.82 1403.58C960.218 1404.23 961.739 1404.58 963.282 1404.6C964.825 1404.62 966.355 1404.32 967.77 1403.7C968.813 1403.2 969.76 1402.52 970.57 1401.7C971.539 1400.72 972.223 1399.49 972.545 1398.16C972.868 1396.82 972.818 1395.41 972.4 1394.1V1394.1Z" fill="#CED0D5" stroke="#010101" stroke-width="4" stroke-miterlimit="10"/>
<path d="M965.424 1398.28C967.632 1396.45 967.497 1392.64 965.122 1389.77C962.748 1386.91 959.034 1386.07 956.826 1387.89C954.618 1389.72 954.754 1393.53 957.128 1396.39C959.502 1399.26 963.216 1400.1 965.424 1398.28Z" fill="#9A222D"/>
<path d="M982.48 1517.4C980.48 1515.26 973.98 1517.22 970.48 1514.51C965.85 1510.93 967.69 1510.35 957.31 1495.74C952.31 1488.74 935.31 1469.54 925.71 1466.43C916.11 1463.32 915.5 1464.53 906.07 1464.26C903.838 1464.23 901.621 1463.89 899.48 1463.26C893.55 1461.44 892.79 1459.04 890.92 1459.99C890.1 1460.4 890.04 1461.07 889.52 1466.66C888.94 1472.87 888.52 1476.07 888.94 1476.98C890.72 1480.46 894.86 1479.49 902.24 1479.21C913.02 1478.79 915.24 1479.13 922.5 1481.4C926.925 1482.72 930.998 1485.01 934.42 1488.11C935.88 1489.55 938.29 1491.28 945.64 1502.02C952.42 1511.91 953.51 1516.02 956.34 1521.02C958.201 1524.58 960.791 1527.71 963.94 1530.2C965.628 1531.33 967.546 1532.08 969.557 1532.39C971.567 1532.69 973.621 1532.55 975.57 1531.97C982.42 1529.67 985.82 1521 982.48 1517.4Z" fill="#EFEFEC"/>
<path d="M923.66 1391.37C952.33 1461.17 970.13 1494.37 977.54 1502.26C980.152 1504.89 981.983 1508.18 982.83 1511.79C984.74 1520.54 982.15 1526.52 970.16 1540.79" stroke="#010101" stroke-width="4" stroke-miterlimit="10"/>
<path fill-rule="evenodd" clip-rule="evenodd" d="M942.35 1397.13L941.73 1398.5C942.42 1398.82 943.088 1399.18 943.73 1399.58L944.52 1398.31C943.824 1397.87 943.099 1397.47 942.35 1397.13V1397.13Z" fill="#F9F9FA"/>
<path fill-rule="evenodd" clip-rule="evenodd" d="M938.07 1395.84L937.84 1397.32C938.585 1397.44 939.321 1397.61 940.04 1397.84L940.5 1396.41C939.706 1396.16 938.893 1395.97 938.07 1395.84V1395.84Z" fill="#F9F9FA"/>
<path fill-rule="evenodd" clip-rule="evenodd" d="M933.58 1395.87L933.85 1397.34C934.583 1397.21 935.326 1397.16 936.07 1397.17V1395.67C935.236 1395.66 934.402 1395.72 933.58 1395.87Z" fill="#F9F9FA"/>
<path fill-rule="evenodd" clip-rule="evenodd" d="M952.1 1406L950.86 1406.84C951.3 1407.49 951.72 1408.16 952.12 1408.84L953.41 1408.08C953 1407.36 952.56 1406.66 952.1 1406Z" fill="#F9F9FA"/>
<path fill-rule="evenodd" clip-rule="evenodd" d="M949.42 1402.48L948.3 1403.48C948.81 1404.07 949.3 1404.67 949.78 1405.3L950.98 1404.4C950.48 1403.73 950 1403.1 949.42 1402.48Z" fill="#F9F9FA"/>
<path fill-rule="evenodd" clip-rule="evenodd" d="M946.2 1399.45L945.28 1400.64C945.895 1401.11 946.48 1401.61 947.03 1402.15L948.03 1401.07C947.455 1400.49 946.844 1399.95 946.2 1399.45V1399.45Z" fill="#F9F9FA"/>
<path fill-rule="evenodd" clip-rule="evenodd" d="M958.33 1417.53L956.98 1418.19L958.04 1420.36L959.39 1419.71L958.33 1417.53Z" fill="#F9F9FA"/>
<path fill-rule="evenodd" clip-rule="evenodd" d="M956.4 1413.63L955.06 1414.3L956.13 1416.47L957.48 1415.8L956.4 1413.63Z" fill="#F9F9FA"/>
<path fill-rule="evenodd" clip-rule="evenodd" d="M954.39 1409.77L953.08 1410.49C953.46 1411.19 953.83 1411.9 954.2 1412.61L955.54 1411.92C955.16 1411.2 954.78 1410.48 954.39 1409.77Z" fill="#F9F9FA"/>
<path d="M963.853 1429.44L962.494 1430.08L963.516 1432.27L964.876 1431.64L963.853 1429.44Z" fill="#F9F9FA"/>
<path d="M962.164 1425.27L960.806 1425.91L961.836 1428.1L963.193 1427.46L962.164 1425.27Z" fill="#F9F9FA"/>
<path d="M960.314 1421.34L958.96 1421.99L960.003 1424.17L961.356 1423.53L960.314 1421.34Z" fill="#F9F9FA"/>
<path d="M969.456 1441.19L968.103 1441.83L969.148 1444.02L970.501 1443.37L969.456 1441.19Z" fill="#F9F9FA"/>
<path d="M967.542 1437.34L966.185 1437.98L967.216 1440.17L968.573 1439.53L967.542 1437.34Z" fill="#F9F9FA"/>
<path d="M965.768 1433.3L964.409 1433.94L965.432 1436.13L966.791 1435.5L965.768 1433.3Z" fill="#F9F9FA"/>
<path fill-rule="evenodd" clip-rule="evenodd" d="M975.29 1452.81L973.96 1453.5C974.34 1454.22 974.7 1454.95 975.1 1455.65L976.42 1454.94C976 1454.24 975.67 1453.52 975.29 1452.81Z" fill="#F9F9FA"/>
<path fill-rule="evenodd" clip-rule="evenodd" d="M973.3 1448.95L971.96 1449.63L973.07 1451.79L974.41 1451.1L973.3 1448.95Z" fill="#F9F9FA"/>
<path fill-rule="evenodd" clip-rule="evenodd" d="M971.38 1445.08L970.03 1445.74L971.11 1447.91L972.45 1447.25L971.38 1445.08Z" fill="#F9F9FA"/>
<path fill-rule="evenodd" clip-rule="evenodd" d="M981.68 1464.15L980.4 1464.93L981.71 1466.99L982.98 1466.18L981.68 1464.15Z" fill="#F9F9FA"/>
<path fill-rule="evenodd" clip-rule="evenodd" d="M979.48 1460.42L978.18 1461.17L979.42 1463.27L980.71 1462.5L979.48 1460.42Z" fill="#F9F9FA"/>
<path fill-rule="evenodd" clip-rule="evenodd" d="M977.36 1456.65L976.05 1457.37L977.22 1459.51L978.53 1458.77L977.36 1456.65Z" fill="#F9F9FA"/>
<path fill-rule="evenodd" clip-rule="evenodd" d="M989.01 1474.88L987.81 1475.79L989.3 1477.72L990.48 1476.79L989.01 1474.88Z" fill="#F9F9FA"/>
<path fill-rule="evenodd" clip-rule="evenodd" d="M986.46 1471.39L985.23 1472.25L986.63 1474.25L987.84 1473.36L986.46 1471.39Z" fill="#F9F9FA"/>
<path fill-rule="evenodd" clip-rule="evenodd" d="M984 1467.82L982.74 1468.64C983.17 1469.34 983.63 1470.01 984.1 1470.64L985.34 1469.8C984.9 1469.17 984.45 1468.51 984 1467.82Z" fill="#F9F9FA"/>
<path fill-rule="evenodd" clip-rule="evenodd" d="M997.48 1484.71L996.41 1485.71C996.98 1486.3 997.53 1486.9 998.14 1487.44L999.14 1486.36C998.57 1485.88 998 1485.29 997.48 1484.71Z" fill="#F9F9FA"/>
<path fill-rule="evenodd" clip-rule="evenodd" d="M994.5 1481.58L993.38 1482.58C993.92 1483.2 994.5 1483.77 995.06 1484.36L996.15 1483.36C995.6 1482.75 995 1482.19 994.5 1481.58Z" fill="#F9F9FA"/>
<path fill-rule="evenodd" clip-rule="evenodd" d="M991.7 1478.31L990.54 1479.26L992.13 1481.12L993.26 1480.14L991.7 1478.31Z" fill="#F9F9FA"/>
<path fill-rule="evenodd" clip-rule="evenodd" d="M1007.21 1493.28L1006.29 1494.47L1008.23 1495.94L1009.13 1494.75L1007.21 1493.28Z" fill="#F9F9FA"/>
<path fill-rule="evenodd" clip-rule="evenodd" d="M1003.83 1490.59L1002.87 1491.74L1004.77 1493.28L1005.7 1492.1L1003.83 1490.59Z" fill="#F9F9FA"/>
<path fill-rule="evenodd" clip-rule="evenodd" d="M1000.61 1487.72L999.6 1488.83L1001.4 1490.48L1002.38 1489.35L1000.61 1487.72Z" fill="#F9F9FA"/>
<path fill-rule="evenodd" clip-rule="evenodd" d="M1017.62 1501.16L1016.69 1502.34L1018.56 1503.85L1019.52 1502.69L1017.62 1501.16Z" fill="#F9F9FA"/>
<path fill-rule="evenodd" clip-rule="evenodd" d="M1014.17 1498.51L1013.26 1499.71L1015.19 1501.17L1016.1 1499.98L1014.17 1498.51Z" fill="#F9F9FA"/>
<path d="M1010.7 1495.86L1009.8 1497.06L1011.74 1498.51L1012.64 1497.3L1010.7 1495.86Z" fill="#F9F9FA"/>
<path fill-rule="evenodd" clip-rule="evenodd" d="M1027.2 1510.17L1026.03 1511.12C1026.53 1511.72 1027.03 1512.35 1027.46 1512.99L1028.68 1512.13C1028.22 1511.45 1027.72 1510.8 1027.2 1510.17Z" fill="#F9F9FA"/>
<path fill-rule="evenodd" clip-rule="evenodd" d="M1024.24 1506.91L1023.18 1507.98C1023.74 1508.54 1024.28 1509.11 1024.82 1509.69L1025.93 1508.69C1025.38 1508.08 1024.81 1507.49 1024.24 1506.91Z" fill="#F9F9FA"/>
<path fill-rule="evenodd" clip-rule="evenodd" d="M1021 1504L1020 1505.13C1020.6 1505.66 1021.21 1506.18 1021.78 1506.72L1022.78 1505.62C1022.25 1505 1021.63 1504.49 1021 1504Z" fill="#F9F9FA"/>
<path fill-rule="evenodd" clip-rule="evenodd" d="M1032.77 1522.1L1031.28 1522.29C1031.28 1523.05 1031.43 1523.81 1031.45 1524.58H1032.95C1032.93 1523.75 1032.83 1522.92 1032.77 1522.1Z" fill="#F9F9FA"/>
<path fill-rule="evenodd" clip-rule="evenodd" d="M1031.71 1517.77L1030.3 1518.29C1030.57 1519.01 1030.8 1519.74 1030.97 1520.49L1032.43 1520.15C1032.24 1519.34 1032 1518.55 1031.71 1517.77Z" fill="#F9F9FA"/>
<path fill-rule="evenodd" clip-rule="evenodd" d="M1029.77 1513.79L1028.49 1514.57C1028.89 1515.23 1029.26 1515.92 1029.59 1516.57L1030.95 1515.93C1030.59 1515.23 1030.2 1514.5 1029.77 1513.79Z" fill="#F9F9FA"/>
<path fill-rule="evenodd" clip-rule="evenodd" d="M1030.57 1535.08L1029.18 1534.51L1028.23 1536.69L1029.59 1537.32L1030.57 1535.08Z" fill="#F9F9FA"/>
<path fill-rule="evenodd" clip-rule="evenodd" d="M1032 1530.92L1030.55 1530.52L1030.24 1531.65C1030.12 1532.02 1029.97 1532.39 1029.84 1532.76L1031.25 1533.26C1031.39 1532.88 1031.54 1532.49 1031.67 1532.1L1032 1530.92Z" fill="#F9F9FA"/>
<path fill-rule="evenodd" clip-rule="evenodd" d="M1032.84 1526.58L1031.34 1526.44C1031.27 1527.21 1031.16 1527.97 1031 1528.73L1032.47 1529.03C1032.59 1528.21 1032.8 1527.41 1032.84 1526.58Z" fill="#F9F9FA"/>
<path fill-rule="evenodd" clip-rule="evenodd" d="M1024.72 1546.8L1023.38 1546.11L1022.3 1548.31L1023.65 1548.95L1024.72 1546.8Z" fill="#F9F9FA"/>
<path d="M1025.41 1542.4L1024.28 1544.54L1025.61 1545.24L1026.74 1543.1L1025.41 1542.4Z" fill="#F9F9FA"/>
<path fill-rule="evenodd" clip-rule="evenodd" d="M1028.72 1539.09L1027.38 1538.42C1027.04 1539.14 1026.65 1539.85 1026.29 1540.57L1027.62 1541.26C1028 1540.53 1028.38 1539.83 1028.72 1539.09Z" fill="#F9F9FA"/>
<path fill-rule="evenodd" clip-rule="evenodd" d="M1020.28 1558.84L1018.8 1558.59C1018.65 1559.42 1018.56 1560.26 1018.52 1561.1L1020.02 1561.19C1020.05 1560.4 1020.14 1559.62 1020.28 1558.84V1558.84Z" fill="#F9F9FA"/>
<path fill-rule="evenodd" clip-rule="evenodd" d="M1021.29 1554.7L1019.87 1554.24L1019.17 1556.63L1020.63 1556.99L1021.29 1554.7Z" fill="#F9F9FA"/>
<path fill-rule="evenodd" clip-rule="evenodd" d="M1022.85 1550.72L1021.48 1550.11C1021.14 1550.86 1020.81 1551.61 1020.54 1552.4L1021.94 1552.93C1022.2 1552.18 1022.52 1551.45 1022.85 1550.72Z" fill="#F9F9FA"/>
<path d="M935.478 1407.42L934.115 1408.05L935.137 1410.28L936.5 1409.65L935.478 1407.42Z" fill="#F9F9FA"/>
<path d="M933.705 1403.36L932.342 1403.99L933.363 1406.21L934.727 1405.59L933.705 1403.36Z" fill="#F9F9FA"/>
<path d="M931.881 1399.38L930.517 1400.01L931.539 1402.23L932.903 1401.61L931.881 1399.38Z" fill="#F9F9FA"/>
<path d="M941.047 1419.31L939.684 1419.93L940.706 1422.16L942.069 1421.53L941.047 1419.31Z" fill="#F9F9FA"/>
<path d="M939.21 1415.34L937.847 1415.97L938.869 1418.2L940.232 1417.57L939.21 1415.34Z" fill="#F9F9FA"/>
<path d="M937.386 1411.36L936.023 1411.98L937.045 1414.21L938.408 1413.58L937.386 1411.36Z" fill="#F9F9FA"/>
<path d="M946.553 1431.28L945.189 1431.91L946.211 1434.13L947.575 1433.51L946.553 1431.28Z" fill="#F9F9FA"/>
<path d="M944.706 1427.32L943.342 1427.94L944.364 1430.17L945.727 1429.55L944.706 1427.32Z" fill="#F9F9FA"/>
<path d="M942.881 1423.34L941.518 1423.97L942.54 1426.19L943.903 1425.57L942.881 1423.34Z" fill="#F9F9FA"/>
<path fill-rule="evenodd" clip-rule="evenodd" d="M952.05 1443.27L950.7 1443.9L951.73 1446.12L953.09 1445.48L952.05 1443.27Z" fill="#F9F9FA"/>
<path d="M950.259 1439.22L948.897 1439.85L949.922 1442.07L951.285 1441.45L950.259 1439.22Z" fill="#F9F9FA"/>
<path d="M948.395 1435.3L947.032 1435.93L948.054 1438.15L949.418 1437.53L948.395 1435.3Z" fill="#F9F9FA"/>
<path fill-rule="evenodd" clip-rule="evenodd" d="M957.71 1455.16L956.36 1455.82L957.45 1458.02L958.79 1457.36L957.71 1455.16Z" fill="#F9F9FA"/>
<path fill-rule="evenodd" clip-rule="evenodd" d="M955.8 1451.22L954.45 1451.87L955.51 1454.07L956.86 1453.42L955.8 1451.22Z" fill="#F9F9FA"/>
<path fill-rule="evenodd" clip-rule="evenodd" d="M953.93 1447.27L952.57 1447.91L953.62 1450.12L954.97 1449.48L953.93 1447.27Z" fill="#F9F9FA"/>
<path fill-rule="evenodd" clip-rule="evenodd" d="M963.68 1466.9L962.36 1467.6L963.51 1469.76L964.84 1469.05L963.68 1466.9Z" fill="#F9F9FA"/>
<path fill-rule="evenodd" clip-rule="evenodd" d="M961.65 1463.01L960.32 1463.7L961.45 1465.88L962.78 1465.18L961.65 1463.01Z" fill="#F9F9FA"/>
<path fill-rule="evenodd" clip-rule="evenodd" d="M959.67 1459.12L958.33 1459.79L959.43 1461.98L960.77 1461.3L959.67 1459.12Z" fill="#F9F9FA"/>
<path fill-rule="evenodd" clip-rule="evenodd" d="M970.06 1478.41L968.76 1479.16L970 1481.28L971.29 1480.52L970.06 1478.41Z" fill="#F9F9FA"/>
<path fill-rule="evenodd" clip-rule="evenodd" d="M967.89 1474.6L966.59 1475.34L967.8 1477.47L969.1 1476.73L967.89 1474.6Z" fill="#F9F9FA"/>
<path fill-rule="evenodd" clip-rule="evenodd" d="M965.77 1470.78L964.46 1471.5L965.64 1473.65L966.95 1472.92L965.77 1470.78Z" fill="#F9F9FA"/>
<path fill-rule="evenodd" clip-rule="evenodd" d="M976.85 1489.68L975.58 1490.48L976.89 1492.56L978.16 1491.75L976.85 1489.68Z" fill="#F9F9FA"/>
<path fill-rule="evenodd" clip-rule="evenodd" d="M974.55 1485.96L973.27 1486.74L974.55 1488.83L975.83 1488.04L974.55 1485.96Z" fill="#F9F9FA"/>
<path fill-rule="evenodd" clip-rule="evenodd" d="M972.29 1482.22L971 1482.98L972.26 1485.09L973.55 1484.31L972.29 1482.22Z" fill="#F9F9FA"/>
<path fill-rule="evenodd" clip-rule="evenodd" d="M984 1500.75L982.73 1501.55C983.16 1502.23 983.58 1502.92 983.98 1503.61L985.28 1502.85C984.89 1502.14 984.46 1501.44 984 1500.75Z" fill="#F9F9FA"/>
<path d="M975.526 1491.67L974.281 1492.5L975.628 1494.53L976.873 1493.71L975.526 1491.67Z" fill="#F9F9FA"/>
<path fill-rule="evenodd" clip-rule="evenodd" d="M979.22 1493.41L977.96 1494.22L979.29 1496.28L980.55 1495.46L979.22 1493.41Z" fill="#F9F9FA"/>
<path fill-rule="evenodd" clip-rule="evenodd" d="M988.78 1513.17L987.28 1513.23C987.305 1513.99 987.275 1514.76 987.19 1515.52L988.68 1515.69C988.773 1514.85 988.807 1514.01 988.78 1513.17V1513.17Z" fill="#F9F9FA"/>
<path fill-rule="evenodd" clip-rule="evenodd" d="M988 1508.72L986.57 1509.17C986.799 1509.91 986.98 1510.66 987.11 1511.42L988.59 1511.17C988.449 1510.34 988.252 1509.52 988 1508.72V1508.72Z" fill="#F9F9FA"/>
<path fill-rule="evenodd" clip-rule="evenodd" d="M986.26 1504.61L984.93 1505.29C985.3 1506 985.62 1506.71 985.93 1507.44L987.32 1506.87C987 1506.1 986.65 1505.34 986.26 1504.61Z" fill="#F9F9FA"/>
<path fill-rule="evenodd" clip-rule="evenodd" d="M985 1525.9L983.69 1525.17C983.3 1525.87 982.89 1526.57 982.48 1527.26L983.76 1528.03C984.14 1527.33 984.55 1526.62 985 1525.9Z" fill="#F9F9FA"/>
<path fill-rule="evenodd" clip-rule="evenodd" d="M986.94 1521.93L985.56 1521.34C985.24 1522.06 984.91 1522.78 984.56 1523.49L985.9 1524.17C986.26 1523.44 986.61 1522.69 986.94 1521.93Z" fill="#F9F9FA"/>
<path fill-rule="evenodd" clip-rule="evenodd" d="M988.34 1517.69L986.88 1517.36C986.703 1518.12 986.486 1518.87 986.23 1519.6L987.65 1520.1C987.925 1519.31 988.156 1518.51 988.34 1517.69V1517.69Z" fill="#F9F9FA"/>
<path d="M976.821 1536.3L975.539 1538.39L976.817 1539.18L978.099 1537.09L976.821 1536.3Z" fill="#F9F9FA"/>
<path d="M979.117 1532.76L977.835 1534.85L979.113 1535.63L980.395 1533.55L979.117 1532.76Z" fill="#F9F9FA"/>
<path d="M981.401 1528.84L980.119 1530.93L981.397 1531.71L982.679 1529.63L981.401 1528.84Z" fill="#F9F9FA"/>
<path fill-rule="evenodd" clip-rule="evenodd" d="M922.45 1416.94L922.85 1415.5L920.6 1414.84L920.16 1416.28L922.45 1416.94Z" fill="#F9F9FA"/>
<path fill-rule="evenodd" clip-rule="evenodd" d="M926.57 1418.01L926.92 1416.55L924.64 1415.98L924.26 1417.43L926.57 1418.01Z" fill="#F9F9FA"/>
<path fill-rule="evenodd" clip-rule="evenodd" d="M930.71 1418.93L931.01 1417.46C930.24 1417.31 929.48 1417.15 928.72 1416.97L928.39 1418.43C929.16 1418.61 929.93 1418.77 930.71 1418.93Z" fill="#F9F9FA"/>
<path fill-rule="evenodd" clip-rule="evenodd" d="M910.33 1412.86L910.88 1411.47C910.16 1411.17 909.43 1410.9 908.71 1410.59L908.13 1411.97C908.86 1412.29 909.6 1412.57 910.33 1412.86Z" fill="#F9F9FA"/>
<path fill-rule="evenodd" clip-rule="evenodd" d="M914.32 1414.36L914.82 1412.95C914.08 1412.69 913.35 1412.42 912.62 1412.14L912.09 1413.54C912.83 1413.83 913.57 1414.1 914.32 1414.36Z" fill="#F9F9FA"/>
<path fill-rule="evenodd" clip-rule="evenodd" d="M918.34 1415.71L918.79 1414.28C918.04 1414.06 917.31 1413.8 916.56 1413.55L916.08 1414.97C916.83 1415.22 917.58 1415.48 918.34 1415.71Z" fill="#F9F9FA"/>
<path fill-rule="evenodd" clip-rule="evenodd" d="M898.71 1407.55L899.41 1406.22C898.743 1405.86 898.053 1405.49 897.34 1405.11L896.62 1406.43C897.31 1406.81 898 1407.19 898.71 1407.55Z" fill="#F9F9FA"/>
<path fill-rule="evenodd" clip-rule="evenodd" d="M902.52 1409.45L903.16 1408.1L901.06 1407.07L900.39 1408.41L902.52 1409.45Z" fill="#F9F9FA"/>
<path fill-rule="evenodd" clip-rule="evenodd" d="M906.37 1411.22L906.97 1409.85L904.84 1408.89L904.21 1410.25L906.37 1411.22Z" fill="#F9F9FA"/>
<path fill-rule="evenodd" clip-rule="evenodd" d="M926.46 1435.61L926.67 1434.12L923.89 1433.66L923.61 1435.13L926.46 1435.61Z" fill="#F9F9FA"/>
<path fill-rule="evenodd" clip-rule="evenodd" d="M931.62 1436.1L931.7 1434.61C930.77 1434.53 929.83 1434.5 928.89 1434.39L928.74 1435.88C929.7 1436 930.66 1436 931.62 1436.1Z" fill="#F9F9FA"/>
<path fill-rule="evenodd" clip-rule="evenodd" d="M936.79 1436.15V1434.65C935.85 1434.65 934.91 1434.71 933.97 1434.65V1436.15C934.86 1436.21 935.83 1436.18 936.79 1436.15Z" fill="#F9F9FA"/>
<path fill-rule="evenodd" clip-rule="evenodd" d="M911.48 1431.5L912.06 1430.11C911.2 1429.73 910.31 1429.4 909.48 1428.97L908.84 1430.33C909.7 1430.77 910.6 1431.11 911.48 1431.5Z" fill="#F9F9FA"/>
<path fill-rule="evenodd" clip-rule="evenodd" d="M916.35 1433.28L916.8 1431.85L915.46 1431.42L914.14 1430.93L913.62 1432.34L914.97 1432.84L916.35 1433.28Z" fill="#F9F9FA"/>
<path fill-rule="evenodd" clip-rule="evenodd" d="M921.33 1434.65L921.66 1433.19C920.74 1433.01 919.84 1432.72 918.93 1432.49L918.53 1433.93C919.46 1434.17 920.38 1434.46 921.33 1434.65Z" fill="#F9F9FA"/>
<path fill-rule="evenodd" clip-rule="evenodd" d="M898 1423.77L898.9 1422.58C898.14 1422.03 897.43 1421.42 896.7 1420.82L895.7 1421.96C896.49 1422.58 897.22 1423.21 898 1423.77Z" fill="#F9F9FA"/>
<path fill-rule="evenodd" clip-rule="evenodd" d="M902.26 1426.73L903.06 1425.46C902.26 1424.97 901.5 1424.46 900.72 1423.9L899.86 1425.13C900.66 1425.66 901.44 1426.23 902.26 1426.73Z" fill="#F9F9FA"/>
<path fill-rule="evenodd" clip-rule="evenodd" d="M906.74 1429.31L907.43 1427.97L904.96 1426.62L904.21 1427.92L906.74 1429.31Z" fill="#F9F9FA"/>
<path fill-rule="evenodd" clip-rule="evenodd" d="M935.83 1454L935.96 1452.51C935.13 1452.44 934.31 1452.33 933.49 1452.21L933.26 1453.7C934.11 1453.8 935 1453.91 935.83 1454Z" fill="#F9F9FA"/>
<path fill-rule="evenodd" clip-rule="evenodd" d="M940.48 1454.11L940.42 1452.61C939.59 1452.61 938.76 1452.61 937.93 1452.61V1454.11C938.75 1454.14 939.61 1454.13 940.48 1454.11Z" fill="#F9F9FA"/>
<path fill-rule="evenodd" clip-rule="evenodd" d="M945.09 1453.59L944.81 1452.12C944 1452.27 943.19 1452.39 942.36 1452.47L942.51 1453.96C943.38 1453.88 944.23 1453.75 945.09 1453.59Z" fill="#F9F9FA"/>
<path fill-rule="evenodd" clip-rule="evenodd" d="M922.37 1450.65L922.92 1449.25C922.14 1448.94 921.37 1448.62 920.6 1448.25L919.99 1449.62C920.78 1450 921.57 1450.33 922.37 1450.65Z" fill="#F9F9FA"/>
<path fill-rule="evenodd" clip-rule="evenodd" d="M926.73 1452.18L927.17 1450.74C926.37 1450.49 925.57 1450.24 924.79 1449.95L924.28 1451.36C925.09 1451.66 925.91 1451.92 926.73 1452.18Z" fill="#F9F9FA"/>
<path fill-rule="evenodd" clip-rule="evenodd" d="M931.21 1453.31L931.5 1451.84C930.69 1451.68 929.88 1451.48 929.07 1451.27L928.69 1452.73C929.52 1452.94 930.36 1453.14 931.21 1453.31Z" fill="#F9F9FA"/>
<path fill-rule="evenodd" clip-rule="evenodd" d="M909.99 1444.47L910.74 1443.17L908.55 1441.88L907.78 1443.17L909.99 1444.47Z" fill="#F9F9FA"/>
<path fill-rule="evenodd" clip-rule="evenodd" d="M914.01 1446.71L914.72 1445.39L912.49 1444.17L911.76 1445.48L914.01 1446.71Z" fill="#F9F9FA"/>
<path fill-rule="evenodd" clip-rule="evenodd" d="M918.11 1448.79L918.75 1447.43C917.99 1447.07 917.23 1446.7 916.48 1446.31L915.8 1447.65C916.56 1448.04 917.33 1448.42 918.11 1448.79Z" fill="#F9F9FA"/>
<path fill-rule="evenodd" clip-rule="evenodd" d="M898.24 1437.21L899.12 1435.99C898.44 1435.51 897.78 1434.99 897.12 1434.47L896.12 1435.62C896.85 1436.18 897.54 1436.71 898.24 1437.21Z" fill="#F9F9FA"/>
<path fill-rule="evenodd" clip-rule="evenodd" d="M902.1 1439.75L902.89 1438.47C902.17 1438.03 901.45 1437.58 900.75 1437.12L899.93 1438.37C900.65 1438.84 901.37 1439.3 902.1 1439.75Z" fill="#F9F9FA"/>
<path d="M904.6 1439.52L903.827 1440.81L906.012 1442.12L906.785 1440.84L904.6 1439.52Z" fill="#F9F9FA"/>
<path fill-rule="evenodd" clip-rule="evenodd" d="M946.25 1477.98L944.97 1477.2L943.49 1479.66L944.78 1480.43L946.25 1477.98Z" fill="#F9F9FA"/>
<path fill-rule="evenodd" clip-rule="evenodd" d="M948.94 1473.63L947.66 1472.83L946.15 1475.27L947.43 1476.05L948.94 1473.63Z" fill="#F9F9FA"/>
<path fill-rule="evenodd" clip-rule="evenodd" d="M951.68 1469.32L950.42 1468.51L948.87 1470.92L950.14 1471.72L951.68 1469.32Z" fill="#F9F9FA"/>
<path fill-rule="evenodd" clip-rule="evenodd" d="M938.55 1491.3L937.24 1490.57L935.87 1493.09L937.18 1493.8L938.55 1491.3Z" fill="#F9F9FA"/>
<path fill-rule="evenodd" clip-rule="evenodd" d="M941.05 1486.83L939.75 1486.09L938.34 1488.58L939.65 1489.32L941.05 1486.83Z" fill="#F9F9FA"/>
<path fill-rule="evenodd" clip-rule="evenodd" d="M943.61 1482.41L942.31 1481.65L940.87 1484.13L942.17 1484.88L943.61 1482.41Z" fill="#F9F9FA"/>
<path fill-rule="evenodd" clip-rule="evenodd" d="M931.42 1504.92L930.08 1504.25L928.82 1506.83L930.17 1507.48L931.42 1504.92Z" fill="#F9F9FA"/>
<path fill-rule="evenodd" clip-rule="evenodd" d="M933.73 1500.35L932.4 1499.66L931.1 1502.22L932.44 1502.89L933.73 1500.35Z" fill="#F9F9FA"/>
<path fill-rule="evenodd" clip-rule="evenodd" d="M936.1 1495.83L934.77 1495.13L933.44 1497.66L934.77 1498.35L936.1 1495.83Z" fill="#F9F9FA"/>
<path fill-rule="evenodd" clip-rule="evenodd" d="M1090.86 1530.12L1089.59 1530.91C1090 1531.57 1090.4 1532.23 1090.79 1532.91L1092.09 1532.15C1091.69 1531.46 1091.28 1530.79 1090.86 1530.12Z" fill="#F9F9FA"/>
<path fill-rule="evenodd" clip-rule="evenodd" d="M1088.51 1526.59L1087.28 1527.46C1087.73 1528.09 1088.17 1528.72 1088.59 1529.37L1089.84 1528.54C1089.41 1527.88 1089 1527.23 1088.51 1526.59Z" fill="#F9F9FA"/>
<path fill-rule="evenodd" clip-rule="evenodd" d="M1086 1523.22L1084.83 1524.16C1085.32 1524.76 1085.83 1525.37 1086.26 1525.99L1087.45 1525.09C1086.93 1524.45 1086.44 1523.83 1086 1523.22Z" fill="#F9F9FA"/>
<path fill-rule="evenodd" clip-rule="evenodd" d="M1096.64 1541.47L1095.24 1542.01C1095.51 1542.68 1095.74 1543.37 1095.93 1544.07L1097.41 1543.78C1097.2 1543 1096.94 1542.22 1096.64 1541.47V1541.47Z" fill="#F9F9FA"/>
<path fill-rule="evenodd" clip-rule="evenodd" d="M1094.94 1537.57L1093.58 1538.21C1093.92 1538.91 1094.23 1539.62 1094.58 1540.32L1095.96 1539.73C1095.6 1539 1095.28 1538.29 1094.94 1537.57Z" fill="#F9F9FA"/>
<path fill-rule="evenodd" clip-rule="evenodd" d="M1093 1533.8L1091.69 1534.52C1092.06 1535.2 1092.42 1535.88 1092.76 1536.52L1094.1 1535.85C1093.77 1535.19 1093.4 1534.5 1093 1533.8Z" fill="#F9F9FA"/>
<path fill-rule="evenodd" clip-rule="evenodd" d="M1093.11 1552.64L1092.44 1551.28C1091.79 1551.52 1091.12 1551.7 1090.44 1551.81L1090.7 1553.29C1091.52 1553.14 1092.33 1552.93 1093.11 1552.64V1552.64Z" fill="#F9F9FA"/>
<path fill-rule="evenodd" clip-rule="evenodd" d="M1096.68 1550L1095.37 1549.14C1094.97 1549.7 1094.47 1550.18 1093.9 1550.55L1094.9 1551.73C1095.6 1551.27 1096.2 1550.69 1096.68 1550V1550Z" fill="#F9F9FA"/>
<path fill-rule="evenodd" clip-rule="evenodd" d="M1097.75 1545.78L1096.22 1545.7C1096.28 1546.37 1096.22 1547.05 1096.05 1547.7L1097.52 1548.24C1097.73 1547.44 1097.81 1546.61 1097.75 1545.78V1545.78Z" fill="#F9F9FA"/>
<path fill-rule="evenodd" clip-rule="evenodd" d="M1080.29 1553.45L1080.39 1551.95L1078.07 1551.78L1077.94 1553.27L1080.29 1553.45Z" fill="#F9F9FA"/>
<path fill-rule="evenodd" clip-rule="evenodd" d="M1084.53 1553.61V1552.11C1083.75 1552.11 1082.98 1552.11 1082.21 1552.04L1082.15 1553.54C1083 1553.56 1083.74 1553.61 1084.53 1553.61Z" fill="#F9F9FA"/>
<path fill-rule="evenodd" clip-rule="evenodd" d="M1088.77 1553.53L1088.66 1552.03C1087.91 1552.09 1087.16 1552.11 1086.38 1552.1V1553.6C1087.18 1553.61 1088 1553.59 1088.77 1553.53Z" fill="#F9F9FA"/>
<path fill-rule="evenodd" clip-rule="evenodd" d="M1067.7 1551.69L1068.01 1550.23C1067.26 1550.06 1066.5 1549.91 1065.75 1549.71L1065.39 1551.17C1066.15 1551.37 1066.93 1551.53 1067.7 1551.69Z" fill="#F9F9FA"/>
<path fill-rule="evenodd" clip-rule="evenodd" d="M1071.86 1552.5L1072.1 1551.02L1069.82 1550.61L1069.53 1552.08L1071.86 1552.5Z" fill="#F9F9FA"/>
<path fill-rule="evenodd" clip-rule="evenodd" d="M1076 1553.07L1076.17 1551.58C1075.4 1551.51 1074.64 1551.39 1073.87 1551.28L1073.66 1552.77C1074.48 1552.88 1075.26 1553 1076 1553.07Z" fill="#F9F9FA"/>
<path fill-rule="evenodd" clip-rule="evenodd" d="M1055.5 1548.09L1056.03 1546.69C1055.3 1546.43 1054.59 1546.13 1053.87 1545.83L1053.3 1547.22C1054 1547.52 1054.75 1547.83 1055.5 1548.09Z" fill="#F9F9FA"/>
<path fill-rule="evenodd" clip-rule="evenodd" d="M1059.5 1549.49L1059.96 1548.07C1059.22 1547.82 1058.49 1547.59 1057.76 1547.33L1057.26 1548.74C1058 1549 1058.75 1549.24 1059.5 1549.49Z" fill="#F9F9FA"/>
<path fill-rule="evenodd" clip-rule="evenodd" d="M1063.55 1550.7L1063.94 1549.25C1063.19 1549.05 1062.45 1548.82 1061.7 1548.61L1061.27 1550.04C1062 1550.26 1062.78 1550.5 1063.55 1550.7Z" fill="#F9F9FA"/>
<path fill-rule="evenodd" clip-rule="evenodd" d="M1044 1542.71L1044.74 1541.4C1044.06 1541.02 1043.41 1540.61 1042.74 1540.22L1041.96 1541.51C1042.61 1541.91 1043.28 1542.32 1044 1542.71Z" fill="#F9F9FA"/>
<path fill-rule="evenodd" clip-rule="evenodd" d="M1047.72 1544.69L1048.39 1543.34C1047.7 1543 1047 1542.66 1046.33 1542.28L1045.62 1543.6C1046.31 1544 1047 1544.33 1047.72 1544.69Z" fill="#F9F9FA"/>
<path fill-rule="evenodd" clip-rule="evenodd" d="M1051.54 1546.48L1052.14 1545.11L1050.03 1544.15L1049.39 1545.51L1051.54 1546.48Z" fill="#F9F9FA"/>
<path fill-rule="evenodd" clip-rule="evenodd" d="M1107.66 1538.07L1106.49 1539.07C1107.02 1539.71 1107.49 1540.37 1108.04 1541.07L1109.23 1540.16C1108.72 1539.39 1108.19 1538.73 1107.66 1538.07Z" fill="#F9F9FA"/>
<path fill-rule="evenodd" clip-rule="evenodd" d="M1104.68 1534.62L1103.57 1535.62C1104.13 1536.24 1104.69 1536.86 1105.22 1537.49L1106.36 1536.49C1105.81 1535.88 1105.25 1535.25 1104.68 1534.62Z" fill="#F9F9FA"/>
<path fill-rule="evenodd" clip-rule="evenodd" d="M1101.52 1531.35L1100.52 1532.43C1101.12 1533.01 1101.7 1533.6 1102.28 1534.2L1103.36 1533.2C1102.72 1532.55 1102.12 1531.94 1101.52 1531.35Z" fill="#F9F9FA"/>
<path fill-rule="evenodd" clip-rule="evenodd" d="M1114.75 1549.84L1113.3 1550.23C1113.51 1550.98 1113.64 1551.75 1113.7 1552.53L1115.2 1552.42C1115.13 1551.55 1114.98 1550.68 1114.75 1549.84V1549.84Z" fill="#F9F9FA"/>
<path fill-rule="evenodd" clip-rule="evenodd" d="M1112.94 1545.55L1111.63 1546.28C1112.03 1546.98 1112.38 1547.71 1112.69 1548.45L1114.07 1547.88C1113.74 1547.08 1113.36 1546.3 1112.94 1545.55V1545.55Z" fill="#F9F9FA"/>
<path fill-rule="evenodd" clip-rule="evenodd" d="M1110.45 1541.72L1109.23 1542.59C1109.72 1543.26 1110.19 1543.92 1110.64 1544.59L1111.9 1543.78C1111.43 1543.1 1111 1542.4 1110.45 1541.72Z" fill="#F9F9FA"/>
<path fill-rule="evenodd" clip-rule="evenodd" d="M1110.22 1562.27L1109.42 1561C1108.75 1561.42 1108.05 1561.79 1107.32 1562.11L1107.92 1563.49C1108.72 1563.14 1109.49 1562.74 1110.22 1562.27V1562.27Z" fill="#F9F9FA"/>
<path fill-rule="evenodd" clip-rule="evenodd" d="M1113.64 1559L1112.39 1558.17C1111.96 1558.8 1111.46 1559.38 1110.89 1559.88L1111.89 1561C1112.56 1560.41 1113.14 1559.74 1113.64 1559Z" fill="#F9F9FA"/>
<path fill-rule="evenodd" clip-rule="evenodd" d="M1115.18 1554.55L1113.69 1554.4C1113.62 1555.15 1113.45 1555.9 1113.19 1556.61L1114.59 1557.13C1114.89 1556.3 1115.09 1555.43 1115.18 1554.55V1554.55Z" fill="#F9F9FA"/>
<path fill-rule="evenodd" clip-rule="evenodd" d="M1096.94 1565.77L1096.87 1564.27C1096.05 1564.27 1095.22 1564.33 1094.39 1564.33V1565.83C1095.24 1565.83 1096.09 1565.81 1096.94 1565.77Z" fill="#F9F9FA"/>
<path fill-rule="evenodd" clip-rule="evenodd" d="M1101.51 1565.31L1101.27 1563.82C1100.46 1563.96 1099.64 1564.05 1098.83 1564.13L1098.96 1565.63C1099.81 1565.54 1100.66 1565.45 1101.51 1565.31Z" fill="#F9F9FA"/>
<path fill-rule="evenodd" clip-rule="evenodd" d="M1106 1564.23L1105.53 1562.81C1104.76 1563.05 1103.98 1563.28 1103.19 1563.46L1103.52 1564.92C1104.33 1564.73 1105.15 1564.49 1106 1564.23Z" fill="#F9F9FA"/>
<path fill-rule="evenodd" clip-rule="evenodd" d="M1083.27 1565.1L1083.46 1563.61C1082.64 1563.51 1081.81 1563.37 1080.99 1563.25L1080.76 1564.73C1081.6 1564.85 1082.43 1565 1083.27 1565.1Z" fill="#F9F9FA"/>
<path fill-rule="evenodd" clip-rule="evenodd" d="M1087.81 1565.56L1087.92 1564.06C1087.09 1564 1086.26 1563.94 1085.43 1563.84L1085.27 1565.33C1086.12 1565.44 1087 1565.5 1087.81 1565.56Z" fill="#F9F9FA"/>
<path fill-rule="evenodd" clip-rule="evenodd" d="M1092.34 1565.79L1092.38 1564.3L1089.88 1564.21L1089.8 1565.7L1092.34 1565.79Z" fill="#F9F9FA"/>
<path fill-rule="evenodd" clip-rule="evenodd" d="M1069.87 1562.43L1070.25 1560.98L1067.84 1560.3L1067.42 1561.74L1069.87 1562.43Z" fill="#F9F9FA"/>
<path fill-rule="evenodd" clip-rule="evenodd" d="M1074.29 1563.5L1074.62 1562.04C1073.8 1561.87 1072.99 1561.68 1072.18 1561.47L1071.82 1562.92C1072.64 1563.14 1073.46 1563.33 1074.29 1563.5Z" fill="#F9F9FA"/>
<path fill-rule="evenodd" clip-rule="evenodd" d="M1078.74 1564.4L1079 1562.92L1076.54 1562.46L1076.24 1563.93L1078.74 1564.4Z" fill="#F9F9FA"/>
<path fill-rule="evenodd" clip-rule="evenodd" d="M1056.88 1558.21L1057.41 1556.81L1055.07 1555.89L1054.52 1557.28L1056.88 1558.21Z" fill="#F9F9FA"/>
<path fill-rule="evenodd" clip-rule="evenodd" d="M1061.15 1559.75L1061.64 1558.33C1060.85 1558.07 1060.06 1557.79 1059.28 1557.49L1058.77 1558.9C1059.56 1559.2 1060.35 1559.48 1061.15 1559.75Z" fill="#F9F9FA"/>
<path fill-rule="evenodd" clip-rule="evenodd" d="M1065.46 1561.16L1065.9 1559.72L1063.51 1558.97L1063.05 1560.4L1065.46 1561.16Z" fill="#F9F9FA"/>
<path fill-rule="evenodd" clip-rule="evenodd" d="M1044.33 1552.85L1044.97 1551.49L1042.7 1550.4L1042.05 1551.75L1044.33 1552.85Z" fill="#F9F9FA"/>
<path fill-rule="evenodd" clip-rule="evenodd" d="M1048.46 1554.73L1049.07 1553.36C1048.3 1553.03 1047.54 1552.68 1046.78 1552.36L1046.15 1553.72C1046.92 1554.05 1047.69 1554.4 1048.46 1554.73Z" fill="#F9F9FA"/>
<path fill-rule="evenodd" clip-rule="evenodd" d="M1052.63 1556.52L1053.2 1555.13L1050.88 1554.16L1050.29 1555.54L1052.63 1556.52Z" fill="#F9F9FA"/>
<path d="M1022.24 1523.47C1025.04 1523.47 1027.31 1521.55 1027.31 1519.19C1027.31 1516.83 1025.04 1514.91 1022.24 1514.91C1019.44 1514.91 1017.17 1516.83 1017.17 1519.19C1017.17 1521.55 1019.44 1523.47 1022.24 1523.47Z" fill="url(#paint12_linear_1_24283)" stroke="#010101" stroke-width="4" stroke-miterlimit="10"/>
<path d="M1007.41 1510.7C1010.21 1510.7 1012.48 1508.78 1012.48 1506.42C1012.48 1504.06 1010.21 1502.14 1007.41 1502.14C1004.61 1502.14 1002.34 1504.06 1002.34 1506.42C1002.34 1508.78 1004.61 1510.7 1007.41 1510.7Z" fill="url(#paint13_linear_1_24283)" stroke="#010101" stroke-width="4" stroke-miterlimit="10"/>
<path d="M995.6 1499.49C998.4 1499.49 1000.67 1497.57 1000.67 1495.21C1000.67 1492.85 998.4 1490.93 995.6 1490.93C992.8 1490.93 990.53 1492.85 990.53 1495.21C990.53 1497.57 992.8 1499.49 995.6 1499.49Z" fill="url(#paint14_linear_1_24283)" stroke="#010101" stroke-width="4" stroke-miterlimit="10"/>
<path d="M982.57 1487.71C985.37 1487.71 987.64 1485.79 987.64 1483.43C987.64 1481.07 985.37 1479.15 982.57 1479.15C979.77 1479.15 977.5 1481.07 977.5 1483.43C977.5 1485.79 979.77 1487.71 982.57 1487.71Z" fill="url(#paint15_linear_1_24283)" stroke="#010101" stroke-width="4" stroke-miterlimit="10"/>
<path d="M972.43 1473.63C975.23 1473.63 977.5 1471.71 977.5 1469.35C977.5 1466.99 975.23 1465.07 972.43 1465.07C969.63 1465.07 967.36 1466.99 967.36 1469.35C967.36 1471.71 969.63 1473.63 972.43 1473.63Z" fill="url(#paint16_linear_1_24283)" stroke="#010101" stroke-width="4" stroke-miterlimit="10"/>
<path d="M963.14 1453.38C965.94 1453.38 968.21 1451.46 968.21 1449.1C968.21 1446.74 965.94 1444.82 963.14 1444.82C960.34 1444.82 958.07 1446.74 958.07 1449.1C958.07 1451.46 960.34 1453.38 963.14 1453.38Z" fill="url(#paint17_linear_1_24283)" stroke="#010101" stroke-width="4" stroke-miterlimit="10"/>
<path d="M953.53 1434.09C956.33 1434.09 958.6 1432.17 958.6 1429.81C958.6 1427.45 956.33 1425.53 953.53 1425.53C950.73 1425.53 948.46 1427.45 948.46 1429.81C948.46 1432.17 950.73 1434.09 953.53 1434.09Z" fill="url(#paint18_linear_1_24283)" stroke="#010101" stroke-width="4" stroke-miterlimit="10"/>
<path d="M947.31 1416.02C950.11 1416.02 952.38 1414.1 952.38 1411.74C952.38 1409.38 950.11 1407.46 947.31 1407.46C944.51 1407.46 942.24 1409.38 942.24 1411.74C942.24 1414.1 944.51 1416.02 947.31 1416.02Z" fill="url(#paint19_linear_1_24283)" stroke="#010101" stroke-width="4" stroke-miterlimit="10"/>
<path d="M1073.19 1505.21C1070.81 1501.67 1066.1 1501.11 1062.19 1501.34C1057.59 1501.66 1053.02 1502.31 1048.52 1503.28C1044.11 1504.19 1039.77 1505.39 1035.52 1506.89C1031.26 1508.23 1027.19 1510.13 1023.42 1512.54C1021.41 1513.83 1019.71 1515.53 1018.42 1517.54C1018.15 1517.93 1017.98 1518.38 1017.91 1518.85C1017.85 1519.32 1017.89 1519.8 1018.04 1520.25C1018.19 1520.71 1018.44 1521.12 1018.77 1521.46C1019.1 1521.8 1019.51 1522.05 1019.96 1522.21C1021.1 1522.61 1022.33 1522.66 1023.5 1522.33C1024.66 1522 1025.69 1521.32 1026.45 1520.38C1026.86 1519.92 1027.11 1519.33 1027.16 1518.72C1027.21 1518.1 1027.06 1517.49 1026.74 1516.96L1026.66 1516.85C1024.34 1513.32 1016.11 1516.85 1018.73 1520.8L1018.81 1520.91L1019.09 1517.5L1019 1517.63L1020.69 1516.29L1020.52 1516.37L1024.97 1516.06L1024.81 1515.99L1026.69 1517.92L1026.62 1517.67L1026.46 1519.45C1026.11 1519.87 1026.09 1519.87 1026.46 1519.45C1026.62 1519.24 1026.79 1519.03 1026.96 1518.84C1027.13 1518.65 1027.31 1518.45 1027.5 1518.26C1027.27 1518.49 1027.26 1518.51 1027.5 1518.32C1028.2 1517.72 1028.93 1517.15 1029.7 1516.64C1029.95 1516.47 1029.92 1516.49 1029.59 1516.71L1030.28 1516.31C1030.75 1516.05 1031.22 1515.81 1031.7 1515.57C1032.54 1515.16 1033.4 1514.78 1034.27 1514.42C1036.2 1513.63 1037.19 1513.28 1039.52 1512.51C1041.59 1511.84 1043.67 1511.23 1045.78 1510.69C1047.89 1510.15 1050.01 1509.69 1052.15 1509.29L1053.26 1509.09L1054.64 1508.87C1055.71 1508.72 1056.79 1508.57 1057.87 1508.45C1058.95 1508.33 1060.03 1508.22 1061.11 1508.14C1061.57 1508.14 1062.02 1508.08 1062.48 1508.07C1062.94 1508.06 1063.48 1508.12 1062.75 1508.07C1063.21 1508.07 1063.65 1508.18 1064.11 1508.24C1064.98 1508.35 1063.67 1507.98 1064.38 1508.32C1064.58 1508.4 1064.78 1508.48 1064.97 1508.58C1064.58 1508.37 1064.57 1508.38 1064.97 1508.58C1065.37 1508.78 1065.29 1508.85 1064.97 1508.58C1065.11 1508.74 1065.24 1508.92 1065.36 1509.1C1067.71 1512.61 1075.94 1509.1 1073.29 1505.1L1073.19 1505.21Z" fill="#F9F9FA"/>
<path d="M1058.78 1492.14C1052.78 1486.5 1044.35 1485.54 1036.59 1484.42C1027.67 1483.14 1018.51 1482.8 1010.04 1486.42C1008.75 1486.97 1006.53 1488.71 1007.82 1490.27C1009.11 1491.83 1012.09 1491.27 1013.63 1490.57L1014.44 1490.23C1014.9 1490.06 1014.99 1490.02 1014.69 1490.13C1014.39 1490.24 1015.42 1489.9 1015.57 1489.86C1016.06 1489.72 1016.57 1489.59 1017.04 1489.48C1017.22 1489.48 1018.44 1489.22 1017.55 1489.37C1018.41 1489.23 1019.27 1489.12 1020.14 1489.04C1020.57 1489.04 1021.01 1488.98 1021.44 1488.95C1021.66 1488.92 1021.87 1488.92 1022.09 1488.95C1025.86 1488.99 1029.62 1489.3 1033.35 1489.89C1039.08 1490.72 1046.19 1491.4 1050.74 1495.72C1052.22 1497.12 1054.85 1496.84 1056.55 1496.02C1057.62 1495.51 1060.31 1493.62 1058.78 1492.16V1492.14Z" fill="#F9F9FA"/>
<path d="M1041.4 1476.19C1034.1 1473.05 1026 1472.47 1018.17 1471.91C1009.64 1471.3 1000.93 1471.77 993.52 1476.49C993.13 1476.73 992.39 1477.39 992.52 1477.96C992.65 1478.53 993.63 1478.7 994.09 1478.75C996.263 1478.88 998.419 1478.3 1000.24 1477.11C1001.24 1476.49 999.82 1477.26 1000.83 1476.77C1000.83 1476.77 1002.03 1476.24 1001.3 1476.53C1001.67 1476.38 1002.05 1476.24 1002.43 1476.12C1001.8 1476.32 1002.27 1476.18 1002.64 1476.12C1003.01 1476.06 1003.5 1475.94 1002.85 1476.06L1004.05 1475.85C1004.05 1475.85 1005.35 1475.72 1004.6 1475.78L1005.84 1475.69C1008.8 1475.61 1011.76 1475.71 1014.71 1476.01C1021.38 1476.54 1028.07 1477.17 1034.29 1479.85C1036.04 1480.6 1038.82 1479.65 1040.39 1478.85C1041.39 1478.31 1043.15 1477 1041.39 1476.24L1041.4 1476.19Z" fill="#F9F9FA"/>
<path d="M1028.7 1460.75C1021.87 1456.85 1014.22 1454.6 1006.36 1454.18C998.47 1453.8 989.36 1454.54 983.54 1460.51C983.279 1460.76 983.076 1461.07 982.947 1461.4C982.817 1461.74 982.764 1462.1 982.791 1462.47C982.818 1462.83 982.924 1463.18 983.102 1463.49C983.28 1463.81 983.525 1464.08 983.82 1464.29C985.36 1465.37 987.49 1465.01 989.1 1464.29L990.1 1463.88C991.71 1463.21 993.4 1461.1 992.16 1459.41C990.92 1457.72 988 1458.04 986.26 1458.77L985.26 1459.18L990.82 1463.02C991.62 1462.2 990.28 1463.36 991.19 1462.69C991.5 1462.46 991.8 1462.24 992.12 1462.03C991.59 1462.36 992 1462.12 992.32 1461.96C992.64 1461.8 992.89 1461.7 993.19 1461.57C994.31 1461.07 992.31 1461.8 993.51 1461.46L994.63 1461.14C994.94 1461.06 995.26 1460.99 995.63 1460.93C996 1460.87 996.43 1460.79 995.78 1460.93C997.31 1460.71 998.85 1460.55 1000.4 1460.48C1000.83 1460.48 1001.27 1460.48 1001.7 1460.48C1001.7 1460.48 1003.06 1460.48 1002.32 1460.48C1003.12 1460.48 1003.92 1460.54 1004.71 1460.6C1010.81 1461.03 1016.73 1462.81 1022.06 1465.8C1023.04 1466.32 1024.15 1466.55 1025.25 1466.46C1026.36 1466.36 1027.41 1465.95 1028.29 1465.27C1029.57 1464.27 1030.73 1461.9 1028.76 1460.79L1028.7 1460.75Z" fill="#F9F9FA"/>
<path d="M1014.55 1446.18C1002.26 1442.12 989.024 1441.9 976.6 1445.53C975.6 1445.8 972.34 1446.72 972.66 1448.21C972.98 1449.7 976.73 1448.74 977.41 1448.55C978.09 1448.36 978.8 1448.17 979.51 1447.99L980.44 1447.77C981.22 1447.59 979.9 1447.88 980.67 1447.77C981.99 1447.5 983.32 1447.28 984.67 1447.1C985.15 1447.04 985.42 1447.01 986.17 1446.95L988.04 1446.82C989.3 1446.76 990.51 1446.74 991.77 1446.82C997.122 1447.04 1002.41 1448.05 1007.47 1449.82C1009.31 1450.45 1011.91 1449.61 1013.57 1448.82C1014.47 1448.36 1016.43 1446.97 1014.57 1446.34L1014.55 1446.18Z" fill="#F9F9FA"/>
<path d="M1000.75 1429.06C998.327 1428.9 995.893 1429.07 993.52 1429.59C992.74 1429.75 991.98 1429.94 991.2 1430.09C991.06 1430.09 989.6 1430.36 990.42 1430.25C990 1430.25 989.57 1430.35 989.15 1430.38C984.33 1430.62 979.39 1429.14 974.71 1428.17C972.621 1427.93 970.51 1428.33 968.65 1429.31C967.95 1429.63 965.65 1431.05 967.55 1431.45C972.62 1432.45 977.79 1433.85 983 1433.81C985.544 1433.78 988.079 1433.49 990.56 1432.92L991.86 1432.64C992.04 1432.64 993.47 1432.37 992.45 1432.5C993.323 1432.38 994.207 1432.38 995.08 1432.5C997.247 1432.57 999.386 1431.99 1001.23 1430.85C1001.59 1430.63 1002.41 1430.15 1002.23 1429.62C1002.05 1429.09 1001.08 1429.1 1000.72 1429.07L1000.75 1429.06Z" fill="#F9F9FA"/>
<path d="M991.58 1410.88C977.107 1405.63 961.38 1404.89 946.48 1408.77C944.69 1409.23 942.4 1410.94 942.96 1413.06C943.52 1415.18 946.39 1415.46 948.15 1415.06C949.91 1414.66 951.58 1414.23 953.31 1413.91C953.45 1413.91 954.75 1413.67 954 1413.79L955.17 1413.61C956.03 1413.49 956.89 1413.39 957.75 1413.3C959.38 1413.13 961.02 1413.02 962.65 1412.97C963.51 1412.97 964.36 1412.97 965.22 1412.97C965.61 1412.97 966 1412.97 966.38 1412.97H967.07C973.735 1413.31 980.31 1414.66 986.57 1416.97C987.644 1417.33 988.799 1417.36 989.893 1417.07C990.986 1416.77 991.969 1416.17 992.72 1415.32C993.029 1414.98 993.248 1414.58 993.357 1414.13C993.466 1413.69 993.46 1413.23 993.341 1412.79C993.223 1412.35 992.994 1411.94 992.677 1411.62C992.361 1411.29 991.966 1411.04 991.53 1410.91L991.58 1410.88Z" fill="#F9F9FA"/>
<path d="M982.1 1397.5C975.533 1402.41 969.228 1407.65 963.21 1413.22C960.21 1415.98 957.28 1418.81 954.46 1421.75C951.95 1424.38 949.54 1427.48 949.06 1431.19C948.82 1433.01 951.55 1432.96 952.74 1432.78C953.895 1432.62 955.011 1432.25 956.03 1431.68C956.62 1431.34 957.62 1430.68 957.72 1429.98C958.16 1426.55 960.31 1423.98 962.64 1421.57C965.25 1418.85 968 1416.25 970.78 1413.7C976.596 1408.37 982.677 1403.33 989 1398.61C989.45 1398.27 990.07 1397.54 989.9 1396.89C989.73 1396.24 988.83 1395.96 988.26 1395.89C986.075 1395.62 983.869 1396.2 982.11 1397.53L982.1 1397.5Z" fill="#F9F9FA"/>
<path d="M984.54 1423.6C972.901 1429.57 963.643 1439.33 958.29 1451.26C957.72 1452.56 961.29 1451.95 961.71 1451.86C962.847 1451.65 963.957 1451.31 965.02 1450.86C965.59 1450.61 966.57 1450.23 966.84 1449.63C971.737 1438.45 980.307 1429.28 991.13 1423.63C991.37 1423.51 992.31 1422.95 992.13 1422.48C991.95 1422.01 990.92 1422.01 990.64 1422.01C988.49 1422.07 986.382 1422.63 984.49 1423.65L984.54 1423.6Z" fill="#F9F9FA"/>
<path d="M994.6 1441C983.099 1448.38 973.822 1458.75 967.76 1471C967.09 1472.38 970.76 1471.85 971.22 1471.77C972.363 1471.57 973.478 1471.24 974.54 1470.77C975.255 1470.53 975.88 1470.08 976.33 1469.47C981.922 1457.98 990.528 1448.22 1001.23 1441.24C1001.52 1441.06 1002.4 1440.51 1002.23 1439.99C1002.06 1439.47 1001.05 1439.44 1000.72 1439.42C998.556 1439.38 996.425 1439.96 994.57 1441.07L994.6 1441Z" fill="#F9F9FA"/>
<path d="M1004.41 1453C992.473 1460.4 983.148 1471.34 977.74 1484.3C977.46 1484.97 978.15 1485.66 978.64 1485.93C979.547 1486.32 980.547 1486.44 981.52 1486.27C983.52 1486 985.64 1485.19 986.44 1483.27C988.872 1477.51 992.177 1472.16 996.24 1467.41C1000.14 1462.84 1004.73 1458.9 1009.85 1455.75C1011.09 1454.98 1012.37 1453.18 1010.58 1452.23C1008.79 1451.28 1006.03 1452.01 1004.41 1453.01V1453Z" fill="#F9F9FA"/>
<path d="M1018.92 1468.46C1007 1474.83 997.296 1484.66 991.08 1496.66C990.24 1498.28 994.08 1498.12 994.7 1498.01C996.44 1497.72 998.83 1497.07 999.7 1495.35C1002.48 1489.98 1006.05 1485.06 1010.28 1480.74C1012.32 1478.65 1014.53 1476.71 1016.87 1474.96C1019.15 1473.21 1021.57 1471.66 1024.11 1470.33C1025.11 1469.79 1026.87 1468.22 1025.03 1467.5C1023.19 1466.78 1020.53 1467.59 1018.91 1468.5L1018.92 1468.46Z" fill="#F9F9FA"/>
<path d="M1031.12 1479.84C1024.44 1482.37 1018.18 1485.7 1013.24 1490.97C1010.95 1493.5 1008.87 1496.21 1007.02 1499.07C1006.16 1500.36 1005.31 1501.66 1004.48 1502.99C1003.48 1504.53 1002.63 1506.29 1003.22 1508.15C1003.81 1510.01 1006.66 1510.24 1008.31 1509.75C1009.79 1509.31 1012.57 1507.85 1011.92 1505.82C1011.65 1504.98 1012.65 1503.9 1013.19 1503.05C1013.99 1501.8 1014.8 1500.55 1015.64 1499.32C1017.16 1497.05 1018.86 1494.92 1020.73 1492.93C1021.54 1492.04 1022.43 1491.22 1023.39 1490.48C1023.96 1490.03 1024.56 1489.6 1025.17 1489.19L1026.09 1488.59C1026.26 1488.49 1026.94 1488.08 1026.44 1488.36C1029.14 1486.86 1031.95 1485.59 1034.86 1484.55C1036.37 1483.97 1038.23 1481.95 1036.98 1480.33C1035.73 1478.71 1032.81 1479.19 1031.12 1479.84V1479.84Z" fill="#F9F9FA"/>
<path d="M1050.19 1495C1043.41 1496.67 1036.77 1498.86 1030.33 1501.56C1029.23 1502.02 1026.7 1503.56 1028 1505.04C1029.3 1506.52 1032.32 1505.71 1033.75 1505.11C1035.18 1504.51 1036.75 1503.87 1038.34 1503.3L1040.66 1502.45L1040.86 1502.38L1042.03 1501.99C1045.1 1500.99 1048.21 1500.1 1051.35 1499.33C1052.61 1499.02 1055.59 1497.78 1055.11 1496C1054.63 1494.22 1051.37 1494.71 1050.19 1495Z" fill="#F9F9FA"/>
<path d="M902.56 1382.81L897.66 1342.95C898.39 1340.52 899.85 1337.19 902.98 1335.23C908.41 1331.83 912.66 1336.46 921.3 1334.87C930.77 1333.11 933.16 1326.14 939.96 1327.35C942.89 1327.88 947.5 1328.72 948.13 1333.06C951.42 1355.96 952.99 1359.42 956.28 1382.32C956.84 1386.25 947.74 1383.65 947.74 1388.78C947.782 1390.22 947.342 1391.62 946.49 1392.78C945.17 1394.86 939.76 1393.72 937.83 1393.32C932.3 1392.16 926.74 1391.21 921.22 1390.04C910.22 1387.69 903.76 1387.56 902.7 1383.95C902.589 1383.58 902.541 1383.2 902.56 1382.81V1382.81Z" fill="#EDEDEE" stroke="#010101" stroke-width="4" stroke-miterlimit="10"/>
<defs>
<radialGradient id="paint0_radial_1_24283" cx="0" cy="0" r="1" gradientUnits="userSpaceOnUse" gradientTransform="translate(643.27 1553.37) scale(104.54)">
<stop stop-color="#CBCDCA"/>
<stop offset="1" stop-color="#CED0CF"/>
</radialGradient>
<linearGradient id="paint1_linear_1_24283" x1="522.76" y1="1552.64" x2="788.34" y2="1399.31" gradientUnits="userSpaceOnUse">
<stop stop-color="#121210"/>
<stop offset="1" stop-color="#33332F"/>
</linearGradient>
<linearGradient id="paint2_linear_1_24283" x1="635.6" y1="1515.87" x2="645.74" y2="1515.87" gradientUnits="userSpaceOnUse">
<stop stop-color="#121210"/>
<stop offset="1" stop-color="#33332F"/>
</linearGradient>
<linearGradient id="paint3_linear_1_24283" x1="650.43" y1="1503.09" x2="660.57" y2="1503.09" gradientUnits="userSpaceOnUse">
<stop stop-color="#121210"/>
<stop offset="1" stop-color="#33332F"/>
</linearGradient>
<linearGradient id="paint4_linear_1_24283" x1="662.25" y1="1491.88" x2="672.39" y2="1491.88" gradientUnits="userSpaceOnUse">
<stop stop-color="#121210"/>
<stop offset="1" stop-color="#33332F"/>
</linearGradient>
<linearGradient id="paint5_linear_1_24283" x1="675.27" y1="1480.1" x2="685.41" y2="1480.1" gradientUnits="userSpaceOnUse">
<stop stop-color="#121210"/>
<stop offset="1" stop-color="#33332F"/>
</linearGradient>
<linearGradient id="paint6_linear_1_24283" x1="685.41" y1="1466.03" x2="695.55" y2="1466.03" gradientUnits="userSpaceOnUse">
<stop stop-color="#121210"/>
<stop offset="1" stop-color="#33332F"/>
</linearGradient>
<linearGradient id="paint7_linear_1_24283" x1="694.71" y1="1445.77" x2="704.85" y2="1445.77" gradientUnits="userSpaceOnUse">
<stop stop-color="#121210"/>
<stop offset="1" stop-color="#33332F"/>
</linearGradient>
<linearGradient id="paint8_linear_1_24283" x1="704.31" y1="1426.48" x2="714.45" y2="1426.48" gradientUnits="userSpaceOnUse">
<stop stop-color="#121210"/>
<stop offset="1" stop-color="#33332F"/>
</linearGradient>
<linearGradient id="paint9_linear_1_24283" x1="710.53" y1="1408.41" x2="720.67" y2="1408.41" gradientUnits="userSpaceOnUse">
<stop stop-color="#121210"/>
<stop offset="1" stop-color="#33332F"/>
</linearGradient>
<radialGradient id="paint10_radial_1_24283" cx="0" cy="0" r="1" gradientUnits="userSpaceOnUse" gradientTransform="translate(1019.65 1556.69) rotate(180) scale(104.54)">
<stop stop-color="#CBCDCA"/>
<stop offset="1" stop-color="#CED0CF"/>
</radialGradient>
<linearGradient id="paint11_linear_1_24283" x1="1140.16" y1="1555.97" x2="874.57" y2="1402.63" gradientUnits="userSpaceOnUse">
<stop stop-color="#121210"/>
<stop offset="1" stop-color="#33332F"/>
</linearGradient>
<linearGradient id="paint12_linear_1_24283" x1="1027.31" y1="1519.19" x2="1017.17" y2="1519.19" gradientUnits="userSpaceOnUse">
<stop stop-color="#121210"/>
<stop offset="1" stop-color="#33332F"/>
</linearGradient>
<linearGradient id="paint13_linear_1_24283" x1="1012.48" y1="1506.42" x2="1002.34" y2="1506.42" gradientUnits="userSpaceOnUse">
<stop stop-color="#121210"/>
<stop offset="1" stop-color="#33332F"/>
</linearGradient>
<linearGradient id="paint14_linear_1_24283" x1="1000.66" y1="1495.21" x2="990.53" y2="1495.21" gradientUnits="userSpaceOnUse">
<stop stop-color="#121210"/>
<stop offset="1" stop-color="#33332F"/>
</linearGradient>
<linearGradient id="paint15_linear_1_24283" x1="987.64" y1="1483.43" x2="977.5" y2="1483.43" gradientUnits="userSpaceOnUse">
<stop stop-color="#121210"/>
<stop offset="1" stop-color="#33332F"/>
</linearGradient>
<linearGradient id="paint16_linear_1_24283" x1="977.5" y1="1469.35" x2="967.36" y2="1469.35" gradientUnits="userSpaceOnUse">
<stop stop-color="#121210"/>
<stop offset="1" stop-color="#33332F"/>
</linearGradient>
<linearGradient id="paint17_linear_1_24283" x1="968.21" y1="1449.1" x2="958.07" y2="1449.1" gradientUnits="userSpaceOnUse">
<stop stop-color="#121210"/>
<stop offset="1" stop-color="#33332F"/>
</linearGradient>
<linearGradient id="paint18_linear_1_24283" x1="958.6" y1="1429.81" x2="948.46" y2="1429.81" gradientUnits="userSpaceOnUse">
<stop stop-color="#121210"/>
<stop offset="1" stop-color="#33332F"/>
</linearGradient>
<linearGradient id="paint19_linear_1_24283" x1="952.38" y1="1411.74" x2="942.24" y2="1411.74" gradientUnits="userSpaceOnUse">
<stop stop-color="#121210"/>
<stop offset="1" stop-color="#33332F"/>
</linearGradient>
</defs>
</svg>
