<svg width="1660" height="1660" viewBox="0 0 1660 1660" fill="none" xmlns="http://www.w3.org/2000/svg">
<path d="M939.3 1500.33L919 1488.61C913 1500.33 907.08 1506.84 901.12 1518.61C907.7 1520.05 911.54 1526.68 918.12 1528.12C924.23 1518.82 933.13 1509.57 939.3 1500.33Z" fill="#010101"/>
<path d="M1082.28 1509.45L1081.5 1508.17C1047.75 1496.75 1039.64 1494.36 1002.72 1468.54C991.34 1460.54 987.84 1439.39 979.04 1372.21L897.26 1370.21C897.89 1396.5 897.89 1418.15 895.13 1432.27C893.337 1440.47 890.533 1448.41 886.78 1455.91C884.18 1471.82 881.573 1487.72 878.96 1503.63L915.75 1529.55V1529.07C915.75 1529.07 915.75 1528.17 915.75 1528.13C915.75 1528.09 916.25 1504.13 916.28 1502.79C922.098 1504.26 927.753 1506.31 933.16 1508.91C931.06 1511.34 927.78 1515.39 924.49 1519.43L933.16 1508.91C941.56 1513.08 948.63 1518.91 951.92 1527.14C955.21 1535.37 952.37 1539.84 955.43 1549.25C960.7 1565.49 976.23 1573.94 986.78 1579.68C1017.48 1596.38 1048.07 1591.47 1051.95 1590.79C1085.95 1584.79 1105.75 1562.79 1111.05 1556.44L1082.28 1509.45Z" fill="url(#paint0_linear_1_24791)" stroke="#010101" stroke-width="4" stroke-miterlimit="10"/>
<path d="M924.52 1519.46L915.85 1530C917.94 1527.54 921.23 1523.5 924.52 1519.46Z" fill="url(#paint1_linear_1_24791)" stroke="#010101" stroke-width="4" stroke-miterlimit="10"/>
<path d="M942.17 1423.23C941.71 1432.54 953.26 1457.75 954.3 1481.13C955.5 1508.13 1030.3 1534.03 1034.78 1534.19C1049.01 1527.72 1067.27 1514.64 1081.5 1508.19" stroke="#010101" stroke-width="5" stroke-miterlimit="10"/>
<path d="M1035.41 1534.19L1052.6 1590.82" stroke="#010101" stroke-width="5" stroke-miterlimit="10"/>
<path d="M727.34 1500.33L747.69 1488.61C753.69 1500.33 759.61 1506.84 765.57 1518.61C758.99 1520.05 755.15 1526.68 748.57 1528.12C742.41 1518.82 733.51 1509.57 727.34 1500.33Z" fill="#010101"/>
<path d="M584.35 1509.45L585.14 1508.17C618.89 1496.75 626.99 1494.36 663.92 1468.54C675.3 1460.54 678.8 1439.39 687.6 1372.21L769.37 1370.21C768.74 1396.5 768.75 1418.15 771.51 1432.27C773.297 1440.47 776.098 1448.41 779.85 1455.91L787.68 1503.63L750.88 1529.55V1529.07C750.88 1529.07 750.88 1528.17 750.88 1528.13C750.88 1528.09 750.38 1504.13 750.36 1502.79C744.542 1504.26 738.887 1506.31 733.48 1508.91C735.57 1511.34 738.86 1515.39 742.15 1519.43L733.48 1508.91C725.08 1513.08 718.01 1518.91 714.72 1527.14C711.43 1535.37 714.27 1539.84 711.21 1549.25C705.93 1565.49 690.41 1573.94 679.86 1579.68C649.16 1596.38 618.56 1591.47 614.69 1590.79C580.69 1584.79 560.89 1562.79 555.59 1556.44L584.35 1509.45Z" fill="url(#paint2_linear_1_24791)" stroke="#010101" stroke-width="4" stroke-miterlimit="10"/>
<path d="M742.12 1519.46L750.79 1529.98C748.69 1527.54 745.41 1523.5 742.12 1519.46Z" fill="url(#paint3_linear_1_24791)" stroke="#010101" stroke-width="4" stroke-miterlimit="10"/>
<path d="M724.47 1423.23C724.93 1432.54 713.38 1457.75 712.34 1481.13C711.14 1508.13 636.34 1534.03 631.86 1534.19C617.63 1527.72 599.36 1514.64 585.14 1508.19" stroke="#010101" stroke-width="5" stroke-miterlimit="10"/>
<path d="M631.23 1534.19L614.04 1590.82" stroke="#010101" stroke-width="5" stroke-miterlimit="10"/>
<defs>
<linearGradient id="paint0_linear_1_24791" x1="882.97" y1="1514.68" x2="1070.97" y2="1446.26" gradientUnits="userSpaceOnUse">
<stop offset="0.42" stop-color="#171618"/>
<stop offset="0.55" stop-color="#1E1D1E"/>
<stop offset="0.75" stop-color="#33312D"/>
<stop offset="1" stop-color="#545246"/>
</linearGradient>
<linearGradient id="paint1_linear_1_24791" x1="914.67" y1="1526.72" x2="925.7" y2="1522.71" gradientUnits="userSpaceOnUse">
<stop offset="0.42" stop-color="#171618"/>
<stop offset="0.55" stop-color="#1E1D1E"/>
<stop offset="0.75" stop-color="#33312D"/>
<stop offset="1" stop-color="#545246"/>
</linearGradient>
<linearGradient id="paint2_linear_1_24791" x1="783.66" y1="1514.68" x2="595.67" y2="1446.26" gradientUnits="userSpaceOnUse">
<stop offset="0.42" stop-color="#171618"/>
<stop offset="0.55" stop-color="#1E1D1E"/>
<stop offset="0.75" stop-color="#33312D"/>
<stop offset="1" stop-color="#545246"/>
</linearGradient>
<linearGradient id="paint3_linear_1_24791" x1="751.97" y1="1526.72" x2="740.93" y2="1522.71" gradientUnits="userSpaceOnUse">
<stop offset="0.42" stop-color="#171618"/>
<stop offset="0.55" stop-color="#1E1D1E"/>
<stop offset="0.75" stop-color="#33312D"/>
<stop offset="1" stop-color="#545246"/>
</linearGradient>
</defs>
</svg>
