<svg width="1660" height="1660" viewBox="0 0 1660 1660" fill="none" xmlns="http://www.w3.org/2000/svg">
<path d="M976.82 1386.71C972.14 1375.45 951.82 1377.33 942.72 1376.77C926.35 1375.77 894.3 1375.77 889.95 1390.51C885.18 1406.71 911.78 1437.69 940.18 1434.51C964.82 1431.66 983.05 1401.71 976.82 1386.71Z" fill="#171717" stroke="#010101" stroke-width="4" stroke-miterlimit="10"/>
<path d="M906.42 1411.46L895.12 1338.9C895.97 1336.12 897.64 1332.3 901.22 1330.06C907.44 1326.16 912.31 1331.48 922.22 1329.65C933.08 1327.65 935.81 1319.65 943.59 1321.04C946.95 1321.64 952.24 1322.6 952.95 1327.57L964.26 1406.26C964.413 1407.32 964.344 1408.41 964.058 1409.45C963.772 1410.48 963.275 1411.45 962.598 1412.29C961.921 1413.12 961.079 1413.81 960.125 1414.31C959.17 1414.8 958.123 1415.1 957.05 1415.17L914.69 1418.05C912.737 1418.18 910.805 1417.58 909.275 1416.36C907.744 1415.14 906.725 1413.39 906.42 1411.46V1411.46Z" fill="#EDEDEE" stroke="#010101" stroke-width="4" stroke-miterlimit="10"/>
<path d="M877.67 1499.75C872.88 1513.53 873.82 1528.01 876.05 1532.24C887.11 1553.24 940.41 1551.32 968.39 1561.43C990.72 1569.5 987.39 1575.89 1011.86 1588.43C1027.94 1596.69 1070.43 1615.65 1116.02 1604.1C1128.29 1601 1141.4 1597.46 1147.36 1585.67C1155.71 1569.13 1140.6 1547.2 1138.95 1544.61" fill="#F5F9EF"/>
<path d="M877.67 1499.75C872.88 1513.53 873.82 1528.01 876.05 1532.24C887.11 1553.24 940.41 1551.32 968.39 1561.43C990.72 1569.5 987.39 1575.89 1011.86 1588.43C1027.94 1596.69 1070.43 1615.65 1116.02 1604.1C1128.29 1601 1141.4 1597.46 1147.36 1585.67C1155.71 1569.13 1140.6 1547.2 1138.95 1544.61" stroke="#010101" stroke-width="4" stroke-miterlimit="10"/>
<path d="M977.75 1402.59C978.44 1395.97 979.75 1393.97 977.14 1391.59C973.4 1388.14 958.01 1388.45 950.14 1394.59C944.32 1399.11 948.14 1404.06 943.9 1408.84C935.44 1418.4 911.81 1416.97 900.08 1405.2C892.44 1397.53 892.47 1388.1 890.47 1388.35C887.14 1388.78 890.47 1414.35 887.33 1445.19C883.33 1485.11 872.98 1489.92 878.89 1503.19C885.54 1518.19 901.69 1519.05 959.97 1538.06C1006.97 1553.41 1001.06 1554.33 1025.25 1560.43C1083.49 1575.12 1111.55 1568.15 1128.25 1558.43C1137.82 1552.85 1139 1549.08 1138.94 1546.85C1138.69 1537.2 1114.79 1535.02 1084.61 1521.02C1047.61 1503.85 1017.07 1478.48 1008.02 1468.71C1001.48 1461.65 994.6 1455.51 984.26 1430.71C979.9 1420.3 976.77 1412 977.75 1402.59Z" fill="#EEE6DC" stroke="#010101" stroke-width="4" stroke-miterlimit="10"/>
<path d="M943.91 1408.83C947.98 1438.1 960.73 1466.49 970.25 1476.72C983.8 1491.27 1013.42 1512.41 1046.5 1524.49C1053.81 1527.15 1068.22 1531.91 1074.98 1545.08C1078.64 1552.21 1078.98 1563.93 1078.61 1568.84" stroke="#010101" stroke-width="4" stroke-miterlimit="10"/>
<path d="M1111.15 1531.5C1109.79 1531.6 1091.91 1535.04 1085.93 1542.89C1079.63 1551.17 1082.04 1567.68 1082.33 1568.89" stroke="#010101" stroke-width="4" stroke-miterlimit="10"/>
<path fill-rule="evenodd" clip-rule="evenodd" d="M920.53 1424.26L919.05 1424.49C919.19 1425.32 919.31 1426.15 919.46 1426.98L920.94 1426.72C920.79 1425.9 920.67 1425.08 920.53 1424.26Z" fill="#231F20"/>
<path fill-rule="evenodd" clip-rule="evenodd" d="M919.88 1419.82L918.39 1420.01L918.75 1422.51L920.23 1422.29L919.88 1419.82Z" fill="#231F20"/>
<path fill-rule="evenodd" clip-rule="evenodd" d="M919.35 1415.37L917.86 1415.54L918.15 1418.04L919.63 1417.86L919.35 1415.37Z" fill="#231F20"/>
<path fill-rule="evenodd" clip-rule="evenodd" d="M923.13 1437.48L921.67 1437.83L922.28 1440.28L923.73 1439.91L923.13 1437.48Z" fill="#231F20"/>
<path fill-rule="evenodd" clip-rule="evenodd" d="M922.15 1433.1L920.69 1433.41L921.23 1435.87L922.69 1435.54L922.15 1433.1Z" fill="#231F20"/>
<path fill-rule="evenodd" clip-rule="evenodd" d="M921.3 1428.71L919.82 1428.98C919.96 1429.81 920.13 1430.63 920.3 1431.46L921.77 1431.17C921.6 1430.35 921.44 1429.53 921.3 1428.71Z" fill="#231F20"/>
<path fill-rule="evenodd" clip-rule="evenodd" d="M926.77 1450.45L925.35 1450.92L926.15 1453.31L927.57 1452.82L926.77 1450.45Z" fill="#231F20"/>
<path fill-rule="evenodd" clip-rule="evenodd" d="M925.44 1446.17L924 1446.59L924.74 1449.01L926.17 1448.56L925.44 1446.17Z" fill="#231F20"/>
<path fill-rule="evenodd" clip-rule="evenodd" d="M924.24 1441.86L922.78 1442.25L923.45 1444.68L924.9 1444.27L924.24 1441.86Z" fill="#231F20"/>
<path fill-rule="evenodd" clip-rule="evenodd" d="M931.51 1463.06L930.14 1463.65L931.17 1465.96L932.54 1465.34L931.51 1463.06Z" fill="#231F20"/>
<path fill-rule="evenodd" clip-rule="evenodd" d="M929.81 1458.91L928.41 1459.46L929.37 1461.8L930.75 1461.22L929.81 1458.91Z" fill="#231F20"/>
<path fill-rule="evenodd" clip-rule="evenodd" d="M928.24 1454.72L926.82 1455.23L927.7 1457.6L929.1 1457.07L928.24 1454.72Z" fill="#231F20"/>
<path fill-rule="evenodd" clip-rule="evenodd" d="M937.47 1475.12L936.16 1475.86C936.55 1476.61 937 1477.32 937.43 1478.05L938.72 1477.29C938.3 1476.57 937.85 1475.86 937.47 1475.12Z" fill="#231F20"/>
<path fill-rule="evenodd" clip-rule="evenodd" d="M935.34 1471.18L934.01 1471.87C934.39 1472.62 934.81 1473.35 935.21 1474.09L936.53 1473.38C936.13 1472.65 935.72 1471.92 935.34 1471.18Z" fill="#231F20"/>
<path fill-rule="evenodd" clip-rule="evenodd" d="M933.37 1467.17L932.01 1467.81L933.13 1470.08L934.47 1469.41L933.37 1467.17Z" fill="#231F20"/>
<path fill-rule="evenodd" clip-rule="evenodd" d="M944.61 1486.54L943.38 1487.39L944.83 1489.46L946.05 1488.58L944.61 1486.54Z" fill="#231F20"/>
<path fill-rule="evenodd" clip-rule="evenodd" d="M942.12 1482.81L940.86 1483.63L942.24 1485.74L943.48 1484.91L942.12 1482.81Z" fill="#231F20"/>
<path fill-rule="evenodd" clip-rule="evenodd" d="M939.75 1479L938.47 1479.78C938.91 1480.5 939.31 1481.24 939.78 1481.93L941.05 1481.14C940.59 1480.47 940.19 1479.73 939.75 1479Z" fill="#231F20"/>
<path fill-rule="evenodd" clip-rule="evenodd" d="M952.78 1497.24L951.63 1498.21L953.29 1500.12L954.42 1499.13L952.78 1497.24Z" fill="#231F20"/>
<path fill-rule="evenodd" clip-rule="evenodd" d="M949.95 1493.77L948.77 1494.7L950.37 1496.66L951.53 1495.7L949.95 1493.77Z" fill="#231F20"/>
<path fill-rule="evenodd" clip-rule="evenodd" d="M947.24 1490.21L946.03 1491.11L947.56 1493.12L948.75 1492.21L947.24 1490.21Z" fill="#231F20"/>
<path fill-rule="evenodd" clip-rule="evenodd" d="M961.93 1507.13L960.88 1508.19L962.7 1509.94L963.74 1508.86L961.93 1507.13Z" fill="#231F20"/>
<path fill-rule="evenodd" clip-rule="evenodd" d="M958.79 1503.93L957.7 1504.96L959.47 1506.77L960.54 1505.71L958.79 1503.93Z" fill="#231F20"/>
<path fill-rule="evenodd" clip-rule="evenodd" d="M955.75 1500.65L954.63 1501.65L956.35 1503.51L957.45 1502.48L955.75 1500.65Z" fill="#231F20"/>
<path fill-rule="evenodd" clip-rule="evenodd" d="M971.92 1516.17L970.96 1517.32L972.9 1518.93L973.85 1517.77L971.92 1516.17Z" fill="#231F20"/>
<path fill-rule="evenodd" clip-rule="evenodd" d="M968.51 1513.25L967.52 1514.37L969.43 1516.03L970.4 1514.89L968.51 1513.25Z" fill="#231F20"/>
<path fill-rule="evenodd" clip-rule="evenodd" d="M965.2 1510.25L964.17 1511.35L966.04 1513.05L967.05 1511.93L965.2 1510.25Z" fill="#231F20"/>
<path fill-rule="evenodd" clip-rule="evenodd" d="M982.53 1524.5L981.63 1525.7C982.31 1526.2 982.95 1526.7 983.63 1527.19L984.52 1525.98C983.85 1525.53 983.2 1525 982.53 1524.5Z" fill="#231F20"/>
<path fill-rule="evenodd" clip-rule="evenodd" d="M978.94 1521.79L978.03 1522.98L980.03 1524.5L980.94 1523.31L978.94 1521.79Z" fill="#231F20"/>
<path fill-rule="evenodd" clip-rule="evenodd" d="M975.42 1519L974.48 1520.17L976.48 1521.73L977.41 1520.55C976.72 1520.07 976.07 1519.55 975.42 1519Z" fill="#231F20"/>
<path fill-rule="evenodd" clip-rule="evenodd" d="M993.89 1531.6L993.23 1532.95L995.54 1534.01L996.15 1532.64L993.89 1531.6Z" fill="#231F20"/>
<path fill-rule="evenodd" clip-rule="evenodd" d="M989.96 1529.48L989.21 1530.78L991.43 1532.02L992.13 1530.7L989.96 1529.48Z" fill="#231F20"/>
<path fill-rule="evenodd" clip-rule="evenodd" d="M986.21 1527.11L985.36 1528.35L987.47 1529.78L988.27 1528.5L986.21 1527.11Z" fill="#231F20"/>
<path fill-rule="evenodd" clip-rule="evenodd" d="M1006.41 1536.44L1005.97 1537.87C1006.77 1538.14 1007.59 1538.34 1008.39 1538.58L1008.81 1537.14C1008 1536.9 1007.2 1536.71 1006.41 1536.44Z" fill="#231F20"/>
<path fill-rule="evenodd" clip-rule="evenodd" d="M1002.15 1535.05L1001.65 1536.46L1004.06 1537.25L1004.52 1535.83L1002.15 1535.05Z" fill="#231F20"/>
<path fill-rule="evenodd" clip-rule="evenodd" d="M997.99 1533.46L997.41 1534.85L999.78 1535.75L1000.32 1534.35L997.99 1533.46Z" fill="#231F20"/>
<path d="M1019.45 1540.05L1019.07 1541.5L1021.5 1542.13L1021.88 1540.68L1019.45 1540.05Z" fill="#231F20"/>
<path d="M1015.09 1538.91L1014.71 1540.36L1017.13 1540.99L1017.52 1539.54L1015.09 1538.91Z" fill="#231F20"/>
<path fill-rule="evenodd" clip-rule="evenodd" d="M1010.75 1537.69L1010.35 1539.14L1012.78 1539.8L1013.17 1538.35C1012.36 1538.14 1011.55 1537.93 1010.75 1537.69Z" fill="#231F20"/>
<path fill-rule="evenodd" clip-rule="evenodd" d="M1032.46 1543.72L1031.99 1545.15L1034.34 1545.96L1034.84 1544.55L1032.46 1543.72Z" fill="#231F20"/>
<path fill-rule="evenodd" clip-rule="evenodd" d="M1028.14 1542.39L1027.72 1543.83L1030.1 1544.55L1030.55 1543.12L1028.14 1542.39Z" fill="#231F20"/>
<path fill-rule="evenodd" clip-rule="evenodd" d="M1023.82 1541.16L1023.42 1542.61L1025.83 1543.27L1026.24 1541.82L1023.82 1541.16Z" fill="#231F20"/>
<path fill-rule="evenodd" clip-rule="evenodd" d="M1045.06 1548.77L1044.41 1550.13L1046.65 1551.2L1047.34 1549.86L1045.06 1548.77Z" fill="#231F20"/>
<path fill-rule="evenodd" clip-rule="evenodd" d="M1040.94 1546.9L1040.36 1548.28C1041.13 1548.59 1041.9 1548.9 1042.63 1549.28L1043.25 1547.92C1042.5 1547.53 1041.72 1547.21 1040.94 1546.9Z" fill="#231F20"/>
<path fill-rule="evenodd" clip-rule="evenodd" d="M1036.76 1545.22L1036.24 1546.62C1037.01 1546.91 1037.77 1547.24 1038.54 1547.55L1039.1 1546.15C1038.32 1545.84 1037.55 1545.51 1036.76 1545.22Z" fill="#231F20"/>
<path fill-rule="evenodd" clip-rule="evenodd" d="M1056.84 1555.54L1056 1556.78C1056.69 1557.24 1057.39 1557.68 1058.06 1558.16L1058.94 1556.94C1058.25 1556.46 1057.54 1556 1056.84 1555.54Z" fill="#231F20"/>
<path fill-rule="evenodd" clip-rule="evenodd" d="M1053.05 1553.05L1052.28 1554.34C1052.98 1554.77 1053.66 1555.24 1054.35 1555.69L1055.17 1554.43C1054.46 1554 1053.77 1553.49 1053.05 1553.05Z" fill="#231F20"/>
<path fill-rule="evenodd" clip-rule="evenodd" d="M1049.12 1550.84L1048.41 1552.16L1050.57 1553.38L1051.32 1552.08L1049.12 1550.84Z" fill="#231F20"/>
<path fill-rule="evenodd" clip-rule="evenodd" d="M1066.73 1564.82L1065.36 1565.43C1065.69 1566.19 1066.01 1566.96 1066.41 1567.77L1067.75 1567.09C1067.39 1566.37 1067.07 1565.59 1066.73 1564.82Z" fill="#231F20"/>
<path fill-rule="evenodd" clip-rule="evenodd" d="M1064.14 1560.94L1063.14 1562.07C1063.74 1562.5 1064.21 1563.07 1064.52 1563.74L1065.82 1562.98C1065.43 1562.18 1064.86 1561.48 1064.14 1560.94V1560.94Z" fill="#231F20"/>
<path fill-rule="evenodd" clip-rule="evenodd" d="M1060.55 1558.18L1059.65 1559.38L1061.62 1560.89L1062.55 1559.71L1060.55 1558.18Z" fill="#231F20"/>
<path d="M908.67 1443.61C905.88 1437.81 904.43 1437.15 903.45 1437.07C898.4 1436.67 890.83 1450.41 892.45 1463.21C892.62 1464.49 894.58 1478.28 903.95 1481.21C905.04 1481.55 908.88 1482.76 911.95 1480.84C919.83 1475.91 914.22 1455.1 908.67 1443.61Z" fill="#EDEDEE" stroke="#010101" stroke-width="4" stroke-miterlimit="10"/>
<path d="M935.17 1520.57C934.76 1519.79 934.156 1519.13 933.417 1518.65C932.678 1518.17 931.829 1517.89 930.95 1517.84C927.66 1517.84 924.24 1521.84 925.82 1524.78C926.5 1525.79 927.47 1526.57 928.602 1527.01C929.735 1527.46 930.975 1527.55 932.16 1527.27C932.839 1527.09 933.469 1526.76 934.005 1526.3C934.54 1525.85 934.967 1525.28 935.255 1524.63C935.543 1523.99 935.685 1523.3 935.67 1522.59C935.656 1521.89 935.485 1521.2 935.17 1520.57V1520.57Z" fill="#010101" stroke="white" stroke-miterlimit="10"/>
<path d="M961.5 1528.43C961.078 1527.67 960.47 1527.02 959.732 1526.56C958.994 1526.1 958.15 1525.83 957.28 1525.78C953.98 1525.78 950.56 1529.69 952.15 1532.53C952.846 1533.52 953.82 1534.27 954.948 1534.7C956.075 1535.13 957.305 1535.21 958.48 1534.94C959.152 1534.78 959.779 1534.47 960.314 1534.03C960.849 1533.6 961.278 1533.04 961.568 1532.42C961.859 1531.79 962.004 1531.11 961.992 1530.42C961.98 1529.73 961.812 1529.05 961.5 1528.43V1528.43Z" fill="#010101" stroke="white" stroke-miterlimit="10"/>
<path d="M938.35 1428.69C937.939 1427.91 937.335 1427.25 936.597 1426.77C935.858 1426.3 935.008 1426.02 934.13 1425.96C930.83 1425.96 927.41 1429.96 929 1432.9C929.679 1433.91 930.648 1434.68 931.778 1435.13C932.908 1435.57 934.147 1435.66 935.33 1435.39C936.009 1435.21 936.639 1434.88 937.174 1434.42C937.71 1433.96 938.138 1433.4 938.426 1432.76C938.715 1432.11 938.858 1431.42 938.845 1430.71C938.832 1430.01 938.663 1429.32 938.35 1428.69V1428.69Z" fill="#010101" stroke="white" stroke-miterlimit="10"/>
<path d="M946.48 1452.25C946.068 1451.47 945.463 1450.81 944.725 1450.34C943.986 1449.86 943.138 1449.58 942.26 1449.52C938.96 1449.52 935.54 1453.52 937.13 1456.52C937.81 1457.53 938.78 1458.3 939.91 1458.74C941.04 1459.19 942.278 1459.28 943.46 1459C944.147 1458.82 944.785 1458.49 945.326 1458.03C945.868 1457.57 946.299 1457 946.589 1456.35C946.879 1455.7 947.02 1455 947.001 1454.29C946.982 1453.58 946.804 1452.88 946.48 1452.25V1452.25Z" fill="#010101" stroke="white" stroke-miterlimit="10"/>
<path d="M960.77 1476.56C960.358 1475.78 959.754 1475.13 959.015 1474.65C958.276 1474.17 957.427 1473.89 956.55 1473.84C953.25 1473.84 949.83 1477.84 951.42 1480.78C952.1 1481.79 953.07 1482.56 954.2 1483C955.33 1483.45 956.568 1483.54 957.75 1483.26C958.43 1483.08 959.061 1482.75 959.598 1482.29C960.134 1481.84 960.563 1481.27 960.852 1480.63C961.141 1479.99 961.284 1479.29 961.269 1478.58C961.255 1477.88 961.085 1477.19 960.77 1476.56V1476.56Z" fill="#010101" stroke="white" stroke-miterlimit="10"/>
<path d="M978.14 1497.68C977.73 1496.9 977.126 1496.24 976.387 1495.76C975.648 1495.28 974.798 1495 973.92 1494.95C970.63 1494.95 967.2 1498.95 968.79 1501.95C969.47 1502.96 970.44 1503.73 971.57 1504.17C972.7 1504.62 973.938 1504.71 975.12 1504.43C975.807 1504.25 976.444 1503.92 976.986 1503.46C977.528 1503 977.959 1502.43 978.249 1501.78C978.539 1501.13 978.68 1500.43 978.661 1499.72C978.642 1499.01 978.464 1498.31 978.14 1497.68V1497.68Z" fill="#010101" stroke="white" stroke-miterlimit="10"/>
<path d="M1001.78 1514.1C1001.37 1513.32 1000.77 1512.66 1000.03 1512.18C999.288 1511.7 998.438 1511.42 997.56 1511.37C994.27 1511.37 990.85 1515.37 992.43 1518.37C993.111 1519.38 994.082 1520.15 995.214 1520.6C996.346 1521.04 997.586 1521.13 998.77 1520.85C999.456 1520.67 1000.09 1520.34 1000.63 1519.88C1001.17 1519.42 1001.6 1518.84 1001.89 1518.2C1002.18 1517.55 1002.32 1516.84 1002.3 1516.14C1002.28 1515.43 1002.1 1514.73 1001.78 1514.1V1514.1Z" fill="#010101" stroke="white" stroke-miterlimit="10"/>
<path d="M1027.78 1528.38C1027.37 1527.6 1026.77 1526.94 1026.03 1526.46C1025.29 1525.98 1024.44 1525.7 1023.56 1525.65C1020.27 1525.65 1016.85 1529.65 1018.43 1532.59C1019.11 1533.6 1020.08 1534.37 1021.21 1534.82C1022.35 1535.26 1023.59 1535.35 1024.77 1535.07C1025.45 1534.89 1026.08 1534.56 1026.61 1534.1C1027.15 1533.65 1027.58 1533.08 1027.86 1532.44C1028.15 1531.8 1028.3 1531.1 1028.28 1530.4C1028.27 1529.7 1028.09 1529.01 1027.78 1528.38V1528.38Z" fill="#010101" stroke="white" stroke-miterlimit="10"/>
<path d="M1054.18 1539.28C1053.77 1538.5 1053.17 1537.84 1052.43 1537.36C1051.69 1536.89 1050.84 1536.61 1049.96 1536.55C1046.66 1536.55 1043.24 1540.55 1044.83 1543.49C1045.51 1544.5 1046.48 1545.27 1047.61 1545.71C1048.74 1546.16 1049.98 1546.25 1051.16 1545.97C1051.84 1545.79 1052.47 1545.46 1053 1545C1053.54 1544.55 1053.97 1543.98 1054.26 1543.34C1054.55 1542.7 1054.69 1542 1054.68 1541.3C1054.66 1540.6 1054.49 1539.91 1054.18 1539.28V1539.28Z" fill="#010101" stroke="white" stroke-miterlimit="10"/>
<path d="M1033.74 1578.77C1003.9 1575.27 986.66 1554.92 971.87 1550.56C945.54 1542.79 930.55 1543.85 901.19 1534.43C890 1530.85 878.27 1523.17 873.41 1518.71" stroke="#010101" stroke-width="4" stroke-miterlimit="10"/>
<path d="M903.16 1446.65L900.79 1454.09L896.96 1450.63L899.94 1458.86L896.96 1468.37L902.2 1463.04L906.74 1472.34L905.47 1461.35L911.94 1461.03L905.03 1456.28L903.16 1446.65Z" fill="#9F83B2"/>
<path d="M1054.91 1513.23C1054.91 1513.52 1054.79 1513.84 1054.79 1514.13C1054.79 1514.58 1054.98 1513.74 1054.79 1514.02L1054.57 1514.47C1054.51 1514.37 1055.13 1513.77 1054.75 1514.17C1053.97 1515.14 1053.35 1516.22 1052.89 1517.38C1051.7 1519.87 1050.56 1522.38 1049.57 1524.97C1047.43 1530.18 1046.18 1535.72 1045.87 1541.35C1045.8 1543.48 1048.03 1544.49 1049.87 1544.35C1051.71 1544.21 1054.57 1542.99 1054.64 1540.78C1054.9 1535.43 1056.1 1530.17 1058.19 1525.24C1059.19 1522.75 1060.29 1520.24 1061.47 1517.88C1061.62 1517.59 1061.77 1517.29 1061.93 1517C1062.09 1516.71 1062.07 1516.83 1061.87 1517.08C1062.21 1516.64 1062.52 1516.17 1062.8 1515.68C1063.28 1514.75 1063.57 1513.73 1063.64 1512.68C1064.11 1508.14 1055.24 1509.26 1054.82 1513.3L1054.91 1513.23Z" fill="#ECEFEA"/>
<path d="M1031.86 1494.89C1026.95 1506.37 1022.55 1518.04 1018.65 1529.89C1018.01 1531.89 1019.29 1533.38 1021.31 1533.56C1023.15 1533.74 1026.31 1532.96 1026.97 1530.9C1030.86 1519.03 1035.26 1507.36 1040.17 1495.9C1040.99 1493.98 1039.4 1492.4 1037.52 1492.23C1035.64 1492.06 1032.73 1492.86 1031.86 1494.89V1494.89Z" fill="#ECEFEA"/>
<path d="M1025.62 1484.13C1020.62 1483.97 1015.68 1485.28 1011.42 1487.9C1008.25 1489.9 1005.64 1492.72 1002.92 1495.27C996.61 1501.2 990.23 1508.9 991.61 1518.18C991.81 1519.53 995.61 1518.61 996.34 1518.41C997.25 1518.15 1000.52 1517.3 1000.34 1515.85C999.18 1508.07 1004 1501.37 1009.25 1496.2C1011.61 1493.88 1013.99 1491.5 1016.53 1489.39C1016.95 1489.02 1017.39 1488.69 1017.86 1488.39L1018.66 1487.89C1017.96 1488.3 1018.95 1487.78 1019.09 1487.71C1019.23 1487.64 1019.28 1487.62 1018.82 1487.82C1019.29 1487.65 1019.22 1487.67 1018.59 1487.87C1018.78 1487.75 1019.93 1487.55 1018.72 1487.87C1019.63 1487.66 1018.16 1487.87 1019.05 1487.87H1019.79C1019.5 1487.87 1019.58 1487.87 1020.03 1487.87C1022.2 1487.93 1024.34 1487.36 1026.18 1486.22C1027.49 1485.35 1027.42 1484.28 1025.65 1484.22L1025.62 1484.13Z" fill="#ECEFEA"/>
<path d="M1004 1466.13C995.48 1467.87 988.31 1472.7 982.23 1478.75C979.375 1481.63 976.681 1484.66 974.16 1487.84C971.35 1491.34 968.56 1495.57 968.79 1500.25C968.9 1502.36 970.79 1503.35 972.79 1503.15C974.4 1502.98 977.68 1501.78 977.58 1499.61C977.38 1495.61 979.58 1492.74 981.95 1489.81C984.32 1486.88 986.65 1484.22 989.22 1481.63L990.22 1480.7L990.63 1480.31C990.33 1480.58 990.36 1480.56 990.7 1480.25C991.35 1479.67 992 1479.09 992.7 1478.53C994.039 1477.45 995.441 1476.44 996.9 1475.53C996.04 1476.08 997.37 1475.26 997.53 1475.17C997.85 1474.99 998.18 1474.82 998.53 1474.65C999.3 1474.25 1000.09 1473.89 1000.9 1473.55L1001.6 1473.27C1001.06 1473.47 1001.04 1473.47 1001.54 1473.27L1002.63 1472.92C1003.63 1472.61 1004.63 1472.37 1005.63 1472.16C1007.38 1471.8 1009.71 1470 1009.16 1467.98C1008.58 1465.8 1005.73 1465.78 1004.01 1466.13H1004Z" fill="#ECEFEA"/>
<path d="M992.47 1450C984.26 1450.53 977.38 1454.42 970.99 1459.33C964.25 1464.5 958.64 1470.77 953.12 1477.18C951.89 1478.62 952.24 1480.56 954.12 1481.11C955.199 1481.4 956.338 1481.41 957.418 1481.12C958.499 1480.83 959.483 1480.26 960.27 1479.46C962.8 1476.52 965.33 1473.58 968.01 1470.77C970.461 1468.13 973.116 1465.68 975.95 1463.46C977.29 1462.46 978.63 1461.4 980.02 1460.46C980.7 1459.98 981.39 1459.52 982.1 1459.08C982.26 1458.98 983.42 1458.31 982.59 1458.77L983.59 1458.24C984.25 1457.9 984.92 1457.58 985.59 1457.3C985.71 1457.24 987 1456.77 986.41 1456.96C985.82 1457.15 987.15 1456.74 987.27 1456.71C987.64 1456.6 988 1456.5 988.37 1456.42C988.5 1456.42 989.76 1456.13 988.72 1456.32C989.66 1456.16 990.608 1456.05 991.56 1456C993.38 1455.88 996.11 1454.7 996.38 1452.63C996.65 1450.56 994.01 1449.92 992.43 1450.02L992.47 1450Z" fill="#ECEFEA"/>
<path d="M985.24 1434.25C967.13 1432.03 949.43 1441.44 938.24 1455.19C937.03 1456.68 939.31 1457 940.38 1456.92C942.16 1456.81 944.95 1456.26 946.17 1454.77C950.34 1449.52 955.463 1445.11 961.27 1441.77C962.677 1440.99 964.145 1440.32 965.66 1439.77L966.92 1439.31C967.92 1438.96 966.56 1439.39 967.49 1439.14L968.78 1438.78L969.65 1438.56C970.13 1438.45 970.23 1438.43 969.94 1438.5L970.88 1438.32L972.43 1438.09C972.89 1438.02 973.55 1437.97 974.43 1437.93C976.193 1437.85 977.961 1437.93 979.71 1438.16C981.889 1438.33 984.06 1437.75 985.86 1436.51C987.25 1435.51 986.97 1434.51 985.26 1434.29L985.24 1434.25Z" fill="#ECEFEA"/>
<path d="M978.15 1416.75C969.75 1416.64 961.364 1417.47 953.15 1419.23C945.33 1420.91 936.91 1423.1 930.57 1428.23C929.09 1429.42 929.77 1431.08 931.44 1431.48C932.523 1431.68 933.636 1431.63 934.699 1431.35C935.762 1431.07 936.749 1430.55 937.59 1429.84C938.122 1429.42 938.684 1429.05 939.27 1428.71L939.92 1428.34C939.68 1428.46 939.78 1428.42 940.2 1428.2L940.79 1427.93C941.51 1427.6 942.25 1427.3 942.99 1427.02C943.16 1426.96 944.34 1426.54 943.5 1426.83L944.5 1426.49C947.89 1425.4 951.335 1424.49 954.82 1423.76L955.63 1423.6L955.98 1423.53L956.68 1423.41C957.54 1423.26 958.4 1423.11 959.26 1422.98C960.99 1422.73 962.72 1422.51 964.45 1422.34C967.875 1422 971.318 1421.86 974.76 1421.92C976.71 1421.92 979.38 1421.29 980.48 1419.51C981.58 1417.73 979.57 1416.8 978.08 1416.78L978.15 1416.75Z" fill="#ECEFEA"/>
<path d="M1082.9 1520.75C1068.57 1522.75 1054.9 1530.16 1046.25 1541.84C1045.32 1543.09 1049.42 1542.7 1049.71 1542.65C1051.42 1542.32 1053.71 1541.78 1054.82 1540.3C1058.24 1535.7 1062.52 1531.82 1067.42 1528.85C1068.48 1528.19 1069.57 1527.6 1070.7 1527.07C1071.34 1526.76 1071.99 1526.48 1072.64 1526.19C1073.54 1525.8 1072.24 1526.33 1073.08 1526.02L1074.17 1525.61L1075.27 1525.23C1076.1 1524.93 1074.89 1525.32 1075.42 1525.17C1076.11 1524.97 1076.79 1524.78 1077.48 1524.6C1077.6 1524.6 1078.87 1524.29 1077.82 1524.51L1078.97 1524.28C1079.73 1524.13 1080.5 1524.01 1081.27 1523.9C1082.42 1523.73 1083.53 1523.39 1084.58 1522.9C1085.02 1522.69 1086.17 1522.15 1086.37 1521.58C1086.86 1520.12 1083.37 1520.71 1082.9 1520.78V1520.75Z" fill="#F8FBF4"/>
<path d="M1061.42 1509.3C1053.55 1509.55 1045.82 1511.43 1038.71 1514.81C1031.72 1518.3 1025.37 1522.95 1019.93 1528.56C1019.62 1528.81 1019.38 1529.15 1019.26 1529.53C1019.13 1529.91 1019.12 1530.33 1019.23 1530.71C1019.33 1531.1 1019.55 1531.45 1019.86 1531.72C1020.16 1531.98 1020.53 1532.15 1020.93 1532.21C1022.01 1532.46 1023.14 1532.45 1024.21 1532.16C1025.28 1531.87 1026.27 1531.33 1027.08 1530.57C1028.39 1529.25 1029.73 1527.98 1031.08 1526.76L1031.96 1526C1032.31 1525.7 1032.35 1525.66 1032.07 1525.9L1032.52 1525.53C1033.16 1525.02 1033.81 1524.53 1034.52 1524.02C1035.87 1523.02 1037.26 1522.02 1038.69 1521.19L1039.8 1520.53C1039.89 1520.47 1040.96 1519.88 1040.11 1520.34C1040.86 1519.94 1041.62 1519.54 1042.39 1519.17C1043.82 1518.48 1045.28 1517.88 1046.76 1517.31C1045.64 1517.74 1047.16 1517.18 1047.36 1517.11L1048.42 1516.78C1049.25 1516.53 1050.08 1516.31 1050.93 1516.1C1051.78 1515.89 1052.39 1515.77 1053.13 1515.62C1052 1515.85 1053.62 1515.54 1053.82 1515.51L1054.96 1515.35C1056.79 1515.1 1058.63 1514.97 1060.47 1514.9C1062.31 1514.83 1065.03 1513.62 1065.33 1511.67C1065.66 1509.53 1062.87 1509.25 1061.45 1509.3H1061.42Z" fill="#F8FBF4"/>
<path d="M1045.76 1497.55C1026.89 1497.87 1008.61 1504.21 993.58 1515.63C993.14 1515.97 992.5 1516.63 992.67 1517.32C992.84 1518.01 993.75 1518.24 994.3 1518.32C996.486 1518.58 998.688 1517.99 1000.45 1516.67C1003.57 1514.26 1006.88 1512.13 1010.36 1510.28C1011.23 1509.81 1012.11 1509.36 1013.01 1508.92C1013.18 1508.82 1013.37 1508.73 1013.56 1508.66L1015.11 1507.96C1016.93 1507.17 1018.77 1506.44 1020.65 1505.78L1021.45 1505.51H1021.32L1022.74 1505.06C1023.74 1504.77 1024.65 1504.5 1025.61 1504.25C1026.57 1504 1027.53 1503.76 1028.5 1503.54L1029.33 1503.36C1028.85 1503.45 1028.88 1503.45 1029.41 1503.36L1030.66 1503.13C1034.48 1502.4 1038.37 1502.02 1042.26 1501.99C1044.16 1501.99 1046.83 1501.33 1048.02 1499.71C1049.21 1498.09 1047.02 1497.49 1045.76 1497.51V1497.55Z" fill="#F8FBF4"/>
<path d="M1026.68 1483.7C1007.13 1482.57 987.66 1487.05 970.57 1496.61C969.41 1497.26 967.97 1498.98 969.77 1499.83C971.57 1500.68 974.27 1499.89 975.91 1498.97C979.563 1496.92 983.367 1495.15 987.29 1493.68C988.29 1493.32 989.22 1492.97 990.2 1492.68C989.36 1492.97 991 1492.42 991.15 1492.38L992.42 1491.98C994.52 1491.35 996.66 1490.79 998.81 1490.3L1000.53 1489.92C999.75 1490.09 1000.92 1489.85 1001.08 1489.82C1002.24 1489.6 1003.4 1489.41 1004.56 1489.23C1006.56 1488.93 1008.64 1488.69 1010.69 1488.52C1012.36 1488.38 1014.42 1488.29 1016.63 1488.28C1018.84 1488.27 1021.04 1488.28 1023.24 1488.47C1025.11 1488.58 1027.88 1487.75 1028.99 1486.14C1030.1 1484.53 1027.99 1483.83 1026.68 1483.75V1483.7Z" fill="#F8FBF4"/>
<path d="M1007 1466.68C988.817 1465.97 970.728 1469.6 954.23 1477.28C953.59 1477.57 951.23 1478.92 953.1 1479.28C954.97 1479.64 957.5 1478.88 959.16 1478.11C962.621 1476.48 966.177 1475.07 969.81 1473.88L971.05 1473.48C971.217 1473.41 971.391 1473.35 971.57 1473.32C972.57 1473.04 973.51 1472.76 974.49 1472.51C975.47 1472.26 976.16 1472.08 977 1471.88C976.09 1472.09 977.78 1471.72 977.93 1471.69L979.2 1471.43C980.11 1471.25 981.03 1471.09 981.95 1470.94C982.09 1470.94 983.4 1470.71 982.79 1470.8L984.07 1470.63C985.94 1470.38 987.82 1470.2 989.69 1470.06C993.555 1469.82 997.431 1469.78 1001.3 1469.96C1003.46 1469.98 1005.59 1469.42 1007.45 1468.32C1007.79 1468.11 1008.63 1467.66 1008.45 1467.14C1008.27 1466.62 1007.28 1466.66 1006.95 1466.65L1007 1466.68Z" fill="#F8FBF4"/>
<path d="M992.3 1449.47C984.13 1449.68 976.3 1448.37 967.99 1448.47C958.99 1448.53 949.99 1450.03 941.99 1454.25C940.88 1454.84 939.33 1456.5 941.13 1457.25C942.93 1458 945.6 1457.25 947.26 1456.34C949.918 1455 952.769 1454.07 955.71 1453.6C959.187 1453.04 962.71 1452.81 966.23 1452.92C973.67 1453.01 981.14 1454.15 988.79 1453.92C990.7 1453.92 993.35 1453.28 994.55 1451.64C995.75 1450 993.55 1449.41 992.29 1449.44L992.3 1449.47Z" fill="#F8FBF4"/>
<path d="M986 1432.82L959.8 1428.92C955.467 1428.25 951.133 1427.61 946.8 1426.99C941.86 1426.26 937.1 1426.42 932.55 1428.7C931.55 1429.22 929.82 1430.82 931.64 1431.54C933.46 1432.26 936.09 1431.41 937.75 1430.54C937.554 1430.64 937.345 1430.71 937.13 1430.76L937.53 1430.65C937.02 1430.76 937.02 1430.78 937.53 1430.65H937.27C937.938 1430.61 938.608 1430.64 939.27 1430.74C941.11 1430.93 942.94 1431.25 944.77 1431.52L956.77 1433.31L980.52 1436.84C982.703 1437.08 984.898 1436.5 986.67 1435.2C988.05 1434.12 987.74 1432.96 986 1432.7V1432.82Z" fill="#F8FBF4"/>
<path d="M977.75 1402.59C978.44 1395.97 979.75 1393.97 977.14 1391.59C973.4 1388.14 958.01 1388.45 950.14 1394.59C944.32 1399.11 948.14 1404.06 943.9 1408.84C935.44 1418.4 911.81 1416.97 900.08 1405.2C892.44 1397.53 892.47 1388.1 890.47 1388.35C887.14 1388.78 890.47 1414.35 887.33 1445.19C883.33 1485.11 872.98 1489.92 878.89 1503.19C885.54 1518.19 901.69 1519.05 959.97 1538.06C1006.97 1553.41 1001.06 1554.33 1025.25 1560.43C1083.49 1575.12 1111.55 1568.15 1128.25 1558.43C1137.82 1552.85 1139 1549.08 1138.94 1546.85C1138.69 1537.2 1114.79 1535.02 1084.61 1521.02C1047.61 1503.85 1017.07 1478.48 1008.02 1468.71C1001.48 1461.65 994.6 1455.51 984.26 1430.71C979.9 1420.3 976.77 1412 977.75 1402.59Z" stroke="#010101" stroke-width="4" stroke-miterlimit="10"/>
<g opacity="0.71">
<path opacity="0.71" d="M969.29 1419.46C968.647 1418.99 968.146 1418.35 967.842 1417.62C967.539 1416.88 967.445 1416.08 967.57 1415.29C967.678 1414.56 967.974 1413.87 968.43 1413.29C968.25 1413.55 968.31 1413.29 968.52 1413.29C967.89 1413.45 967.28 1413.92 966.61 1414.07C966.281 1414.14 965.946 1414.17 965.61 1414.18C965.05 1414.18 966.11 1414.31 965.53 1414.18C966.274 1414.34 966.951 1414.72 967.472 1415.27C967.992 1415.83 968.33 1416.53 968.44 1417.28C968.544 1418.16 968.351 1419.06 967.89 1419.82C967.713 1420.09 967.512 1420.35 967.29 1420.58C967.57 1420.25 966.87 1420.76 967.29 1420.58C968.125 1420.11 969.063 1419.85 970.02 1419.83L972.29 1420.32C960.71 1408.07 941.66 1407.21 926.08 1409.92C916.66 1411.56 905.89 1414.59 900.08 1422.78C897.68 1426.14 896.15 1430.22 896.73 1434.4C897.002 1436.28 897.68 1438.08 898.716 1439.67C899.752 1441.27 901.121 1442.62 902.73 1443.63C907.59 1446.48 913.48 1445.49 918.49 1443.54C923.132 1441.64 927.543 1439.22 931.64 1436.32C939.12 1431.22 946.23 1424.81 953.7 1420.19C955.7 1418.98 957.7 1417.85 959.7 1416.78C960.66 1416.28 961.63 1415.8 962.61 1415.34L963.39 1414.97C964.057 1414.67 964.723 1414.38 965.39 1414.1C967.51 1413.21 969.67 1412.39 971.86 1411.67C971.07 1411.93 972.35 1411.52 972.57 1411.46L974.22 1410.97C975.4 1410.64 976.58 1410.33 977.77 1410.06L978.6 1409.87C978.6 1409.87 979.34 1409.71 978.86 1409.81L979.32 1409.72L980.17 1409.56C981.363 1409.34 982.563 1409.15 983.77 1408.99C984.33 1408.91 984.9 1408.85 985.47 1408.78H985.78H986.3C987.513 1408.68 988.723 1408.61 989.93 1408.57C994.087 1408.45 998.245 1408.79 1002.33 1409.57C1017.04 1412.29 1031.55 1421.5 1039.11 1434.8C1040.07 1436.49 1040.92 1438.23 1041.66 1440.03L1047.81 1436.8C1038.32 1437.48 1029.01 1434.1 1020.13 1431.11C1010.89 1427.99 1001.76 1424.56 992.74 1420.83C988.233 1418.96 983.76 1417.01 979.32 1414.99C976.75 1413.83 974.43 1412.77 971.52 1413.05C968.324 1413.27 965.34 1414.73 963.21 1417.12C960.62 1420.33 958.79 1424.51 957.27 1428.31C955.703 1432.25 954.53 1436.33 953.77 1440.5C952.017 1449.98 952.403 1459.74 954.9 1469.05C955.32 1470.6 958.7 1469.88 959.7 1469.6C961.07 1469.21 963.53 1468.46 963.59 1466.73L964.45 1442.9C964.58 1439.09 964.68 1435.27 964.87 1431.46C964.898 1428.46 965.46 1425.49 966.53 1422.69C966.996 1421.53 967.675 1420.48 968.53 1419.57L968.83 1419.33C969.19 1419.08 969.24 1419.04 968.97 1419.22C968.715 1419.29 968.465 1419.37 968.22 1419.47C969.37 1419.17 966.79 1419.83 966.72 1419.62C966.72 1419.62 967.72 1420.23 967.72 1420.3C968.839 1421.56 969.741 1423 970.39 1424.56C971.21 1426.18 971.94 1427.85 972.63 1429.56C975.31 1436.05 977.92 1442.44 981.63 1448.45C985.657 1455.02 990.488 1461.07 996.01 1466.45C997.86 1468.24 1005.95 1465.04 1004.15 1463.29C996.121 1455.49 989.655 1446.23 985.1 1436C983.48 1432.44 982.17 1428.75 980.6 1425.17C979.83 1423.36 978.952 1421.59 977.97 1419.88C977.03 1418.26 976.07 1416.73 974.3 1415.94C972.13 1414.94 969.38 1415.33 967.17 1415.94C964.71 1416.6 962.463 1417.88 960.65 1419.67C955.65 1424.78 956.2 1433 955.96 1439.6L954.91 1468.88L963.6 1466.56C959.365 1450.85 961.372 1434.11 969.2 1419.85C969.63 1419.08 970.05 1418.31 970.53 1417.58C970.8 1417.15 971.13 1416.78 971.43 1416.37C971.43 1416.37 971.72 1415.99 971.66 1416.12C971.622 1416.15 971.577 1416.17 971.53 1416.18C970.548 1416.65 969.478 1416.91 968.39 1416.94C970.39 1417.75 972.31 1418.57 974.25 1419.45C978.483 1421.35 982.743 1423.18 987.03 1424.94C995.61 1428.46 1004.3 1431.7 1013.1 1434.67C1023.1 1438.05 1033.5 1441.53 1044.22 1440.76C1045.75 1440.68 1047.25 1440.28 1048.61 1439.58C1049.12 1439.3 1050.73 1438.4 1050.37 1437.58C1043.3 1420.52 1026.81 1409.29 1009.11 1405.58C987.45 1401.11 964.5 1408.13 946.25 1419.78C937.59 1425.31 929.74 1432.78 921.13 1437.87C920.02 1438.52 918.89 1439.13 917.74 1439.71L916.97 1440.08C916.21 1440.46 916.62 1440.26 916.79 1440.18C916.44 1440.34 916.09 1440.49 915.73 1440.63L915.09 1440.89C914.61 1441.05 914.5 1441.09 914.78 1441.01C915.25 1440.85 914.34 1441.12 914.25 1441.15C913.57 1441.38 915.11 1441.15 913.85 1441.23C914.35 1441.23 913.39 1441.23 913.26 1441.23C912.358 1441.12 911.491 1440.82 910.72 1440.34C908.958 1439.23 907.526 1437.66 906.576 1435.81C905.626 1433.96 905.192 1431.88 905.32 1429.8C905.666 1427.05 906.683 1424.42 908.28 1422.16C909.877 1419.89 912.006 1418.05 914.48 1416.8L915.48 1416.32C915.31 1416.4 914.87 1416.57 915.66 1416.24C916.45 1415.91 916.99 1415.7 917.66 1415.45L918.48 1415.17C917.68 1415.43 918.59 1415.17 918.78 1415.09C919.407 1414.91 920.037 1414.74 920.67 1414.58L922.36 1414.18C921.55 1414.36 922.47 1414.18 922.67 1414.12C923.1 1414.04 923.52 1413.95 923.95 1413.88C924.95 1413.68 926.04 1413.51 927.09 1413.36L928.76 1413.14L929.69 1413.04C930.59 1412.93 929.11 1413.04 930.1 1413.04C932.36 1412.86 934.61 1412.75 936.87 1412.77C937.98 1412.77 938.31 1412.77 939.68 1412.9C940.79 1412.98 941.91 1413.09 943.02 1413.24C945.134 1413.5 947.224 1413.94 949.27 1414.53C953.417 1415.68 957.304 1417.62 960.72 1420.24C961.576 1420.91 962.398 1421.62 963.18 1422.38C963.492 1422.73 963.826 1423.07 964.18 1423.38C965.18 1424.13 966.87 1423.88 968.01 1423.7C971.01 1423.24 974.33 1421.83 976.01 1419.2C976.623 1418.38 977.004 1417.41 977.113 1416.39C977.223 1415.37 977.056 1414.34 976.63 1413.41C976.084 1412.51 975.338 1411.74 974.448 1411.17C973.558 1410.6 972.55 1410.25 971.5 1410.13C966.5 1409.29 958.95 1411.89 958.79 1417.8C958.764 1418.72 958.962 1419.64 959.366 1420.46C959.77 1421.29 960.368 1422.01 961.11 1422.56C962.59 1423.63 965.24 1422.95 966.77 1422.32C967.38 1422.07 970.7 1420.45 969.25 1419.4L969.29 1419.46Z" fill="#A5A4A4"/>
</g>
<g opacity="0.21">
<path opacity="0.21" d="M1084.57 1521.76C1070.24 1523.76 1056.57 1531.17 1047.92 1542.85C1046.99 1544.1 1051.09 1543.71 1051.38 1543.65C1053.09 1543.32 1055.38 1542.79 1056.49 1541.3C1059.91 1536.71 1064.19 1532.82 1069.09 1529.86C1070.15 1529.2 1071.24 1528.61 1072.37 1528.08C1073.01 1527.77 1073.66 1527.49 1074.31 1527.2C1075.21 1526.81 1073.91 1527.34 1074.75 1527.02L1075.84 1526.62C1076.2 1526.48 1076.57 1526.36 1076.94 1526.23C1077.77 1525.94 1076.56 1526.33 1077.09 1526.23C1077.78 1526.03 1078.46 1525.83 1079.15 1525.66C1079.28 1525.66 1080.54 1525.35 1079.49 1525.57L1080.64 1525.34C1081.4 1525.19 1082.17 1525.07 1082.94 1524.96C1084.09 1524.79 1085.2 1524.45 1086.25 1523.96C1086.69 1523.75 1087.84 1523.21 1088.04 1522.64C1088.54 1521.18 1085.04 1521.77 1084.57 1521.84V1521.76Z" fill="#A5A4A4"/>
</g>
<g opacity="0.21">
<path opacity="0.21" d="M1063.09 1510.31C1055.22 1510.56 1047.49 1512.43 1040.38 1515.82C1033.39 1519.31 1027.04 1523.96 1021.6 1529.57C1021.29 1529.82 1021.05 1530.16 1020.93 1530.54C1020.8 1530.92 1020.79 1531.34 1020.9 1531.72C1021 1532.11 1021.22 1532.46 1021.53 1532.73C1021.83 1532.99 1022.2 1533.16 1022.6 1533.22C1023.68 1533.47 1024.81 1533.45 1025.88 1533.17C1026.95 1532.88 1027.94 1532.33 1028.75 1531.57C1030.06 1530.26 1031.4 1528.99 1032.75 1527.77L1033.63 1527C1033.98 1526.71 1034.02 1526.67 1033.74 1526.9L1034.19 1526.54C1034.83 1526.02 1035.48 1525.54 1036.19 1525.03C1037.53 1524.03 1038.92 1523.03 1040.35 1522.2L1041.46 1521.53C1041.55 1521.53 1042.62 1520.89 1041.77 1521.35C1042.52 1520.95 1043.28 1520.55 1044.05 1520.18C1045.48 1519.49 1046.94 1518.89 1048.42 1518.32C1047.3 1518.75 1048.82 1518.19 1049.02 1518.12L1050.08 1517.79C1050.91 1517.54 1051.74 1517.32 1052.59 1517.11C1053.44 1516.9 1054.05 1516.78 1054.79 1516.63C1053.66 1516.86 1055.28 1516.55 1055.48 1516.52L1056.62 1516.36C1058.45 1516.12 1060.29 1515.97 1062.13 1515.91C1063.87 1515.85 1066.69 1514.63 1066.99 1512.67C1067.32 1510.54 1064.53 1510.26 1063.11 1510.31H1063.09Z" fill="#A5A4A4"/>
</g>
<g opacity="0.21">
<path opacity="0.21" d="M1047.43 1498.56C1028.56 1498.88 1010.28 1505.22 995.25 1516.64C994.81 1516.98 994.17 1517.64 994.34 1518.33C994.51 1519.02 995.42 1519.25 995.97 1519.33C998.155 1519.6 1000.36 1519.01 1002.12 1517.69C1005.24 1515.28 1008.55 1513.15 1012.03 1511.3C1012.9 1510.83 1013.79 1510.38 1014.68 1509.94C1014.85 1509.84 1015.04 1509.75 1015.23 1509.68L1016.78 1508.98C1018.6 1508.19 1020.45 1507.47 1022.32 1506.8L1023.12 1506.52C1022.73 1506.65 1022.68 1506.67 1023 1506.52C1023.32 1506.37 1023.94 1506.21 1024.42 1506.07C1025.37 1505.78 1026.32 1505.51 1027.28 1505.26C1028.24 1505.01 1029.2 1504.77 1030.17 1504.55L1031 1504.37C1030.52 1504.46 1030.55 1504.46 1031.08 1504.37L1032.33 1504.14C1036.15 1503.41 1040.04 1503.02 1043.93 1502.99C1045.83 1502.99 1048.5 1502.34 1049.69 1500.71C1050.88 1499.08 1048.69 1498.5 1047.43 1498.52V1498.56Z" fill="#A5A4A4"/>
</g>
<g opacity="0.21">
<path opacity="0.21" d="M1028.35 1484.71C1008.8 1483.58 989.339 1488.05 972.25 1497.61C971.08 1498.27 969.64 1499.99 971.44 1500.84C973.24 1501.69 975.94 1500.9 977.58 1499.98C981.235 1497.93 985.043 1496.16 988.97 1494.69C989.97 1494.32 990.89 1493.97 991.87 1493.69C991.03 1493.98 992.67 1493.43 992.87 1493.38L994.14 1492.99C996.25 1492.36 998.38 1491.79 1000.53 1491.31L1002.25 1490.93C1001.47 1491.09 1002.64 1490.86 1002.8 1490.83C1003.96 1490.61 1005.12 1490.41 1006.28 1490.24C1008.28 1489.94 1010.36 1489.7 1012.41 1489.53C1014.08 1489.39 1016.15 1489.3 1018.36 1489.28C1020.57 1489.26 1022.76 1489.34 1024.96 1489.48C1026.83 1489.59 1029.6 1488.76 1030.71 1487.15C1031.82 1485.54 1029.71 1484.84 1028.4 1484.76L1028.35 1484.71Z" fill="#A5A4A4"/>
</g>
<g opacity="0.21">
<path opacity="0.21" d="M1008.68 1467.69C990.498 1466.98 972.408 1470.61 955.91 1478.29C955.27 1478.58 952.91 1479.93 954.78 1480.29C956.65 1480.65 959.18 1479.88 960.84 1479.12C964.301 1477.49 967.857 1476.08 971.49 1474.89L972.73 1474.49C972.897 1474.42 973.072 1474.36 973.25 1474.33C974.25 1474.05 975.19 1473.77 976.17 1473.51L978.68 1472.89C977.77 1473.1 979.46 1472.73 979.61 1472.7L980.88 1472.44C981.79 1472.26 982.71 1472.1 983.63 1471.95C983.77 1471.95 985.09 1471.72 984.47 1471.81L985.76 1471.63C987.62 1471.39 989.5 1471.21 991.37 1471.07C995.235 1470.83 999.111 1470.79 1002.98 1470.97C1005.14 1470.99 1007.27 1470.43 1009.13 1469.33C1009.47 1469.12 1010.31 1468.66 1010.13 1468.15C1009.95 1467.64 1008.96 1467.67 1008.63 1467.66L1008.68 1467.69Z" fill="#A5A4A4"/>
</g>
<g opacity="0.21">
<path opacity="0.21" d="M994 1450.48C985.83 1450.69 978 1449.38 969.69 1449.48C960.69 1449.54 951.69 1451.04 943.69 1455.26C942.58 1455.84 941.03 1457.51 942.83 1458.26C944.63 1459.01 947.3 1458.26 948.96 1457.35C951.615 1456 954.467 1455.07 957.41 1454.61C960.886 1454.04 964.41 1453.81 967.93 1453.93C975.37 1454.02 982.84 1455.16 990.49 1454.93C992.4 1454.93 995.05 1454.29 996.25 1452.65C997.45 1451.01 995.25 1450.42 993.99 1450.45L994 1450.48Z" fill="#A5A4A4"/>
</g>
<g opacity="0.21">
<path opacity="0.21" d="M987.69 1433.83L961.49 1429.93C957.157 1429.26 952.823 1428.62 948.49 1428C943.55 1427.27 938.79 1427.43 934.24 1429.71C933.24 1430.23 931.51 1431.83 933.33 1432.54C935.15 1433.25 937.78 1432.42 939.45 1431.54C939.251 1431.64 939.039 1431.71 938.82 1431.75L939.22 1431.65C938.71 1431.76 938.72 1431.78 939.22 1431.65H938.96C939.628 1431.62 940.297 1431.64 940.96 1431.73C942.8 1431.93 944.63 1432.25 946.46 1432.52L958.46 1434.31L982.21 1437.84C984.395 1438.08 986.591 1437.5 988.36 1436.19C989.74 1435.12 989.43 1433.95 987.69 1433.7V1433.83Z" fill="#A5A4A4"/>
</g>
<path d="M970.65 1417.88C970.181 1417.54 969.786 1417.11 969.487 1416.62C969.189 1416.12 968.994 1415.57 968.913 1415C968.833 1414.43 968.869 1413.84 969.02 1413.28C969.171 1412.73 969.432 1412.2 969.79 1411.75C969.61 1412.01 969.67 1411.75 969.88 1411.75C969.25 1411.91 968.64 1412.38 967.97 1412.53C967.641 1412.6 967.306 1412.63 966.97 1412.64C966.41 1412.64 967.47 1412.78 966.89 1412.64C967.634 1412.8 968.312 1413.18 968.832 1413.74C969.353 1414.29 969.69 1415 969.8 1415.75C969.899 1416.63 969.706 1417.53 969.25 1418.29C969.07 1418.56 968.87 1418.81 968.65 1419.04C968.93 1418.71 968.23 1419.23 968.65 1419.04C969.485 1418.57 970.423 1418.32 971.38 1418.3L973.65 1418.78C962.07 1406.53 943.02 1405.67 927.44 1408.38C918.02 1410.02 907.25 1413.05 901.44 1421.25C899.04 1424.6 897.51 1428.69 898.1 1432.87C898.37 1434.75 899.046 1436.55 900.083 1438.14C901.119 1439.73 902.49 1441.08 904.1 1442.09C908.96 1444.95 914.85 1443.95 919.87 1442C924.509 1440.1 928.917 1437.68 933.01 1434.79C940.49 1429.68 947.6 1423.27 955.07 1418.66C957.07 1417.44 959.07 1416.31 961.07 1415.25C962.07 1414.75 963 1414.25 963.98 1413.8L964.76 1413.43C965.2 1413.23 964.84 1413.43 964.76 1413.43C965.41 1413.13 966.08 1412.85 966.76 1412.57C968.88 1411.67 971.037 1410.86 973.23 1410.14C972.44 1410.4 973.72 1409.99 973.94 1409.92L975.6 1409.43C976.77 1409.1 977.95 1408.8 979.14 1408.52L979.97 1408.33C979.97 1408.33 980.71 1408.18 980.23 1408.27L980.69 1408.18L981.54 1408.02C982.73 1407.81 983.93 1407.61 985.14 1407.45L986.84 1407.25C986.84 1407.25 987.53 1407.18 987.15 1407.25C986.77 1407.32 987.59 1407.25 987.67 1407.25C988.88 1407.15 990.09 1407.08 991.3 1407.05C995.459 1406.91 999.62 1407.23 1003.71 1408C1018.41 1410.72 1032.92 1419.94 1040.48 1433.23C1041.44 1434.92 1042.29 1436.67 1043.03 1438.46L1049.18 1435.23C1039.69 1435.92 1030.38 1432.53 1021.5 1429.54C1012.26 1426.43 1003.13 1423 994.11 1419.26C989.603 1417.39 985.13 1415.45 980.69 1413.43C978.12 1412.26 975.8 1411.2 972.89 1411.49C969.694 1411.7 966.708 1413.16 964.58 1415.55C961.99 1418.76 960.16 1422.94 958.65 1426.75C957.077 1430.69 955.901 1434.77 955.14 1438.94C953.387 1448.42 953.773 1458.18 956.27 1467.49C956.69 1469.04 960.07 1468.32 961.07 1468.03C962.44 1467.64 964.9 1466.89 964.96 1465.16L965.82 1441.33C965.95 1437.52 966.05 1433.7 966.24 1429.89C966.268 1426.89 966.83 1423.93 967.9 1421.13C968.362 1419.97 969.041 1418.91 969.9 1418L970.19 1417.77C970.55 1417.51 970.6 1417.47 970.34 1417.65C970.08 1417.72 969.826 1417.8 969.58 1417.91C970.73 1417.6 968.15 1418.26 968.08 1418.05C968.08 1418.05 969.08 1418.66 969.08 1418.73C970.199 1419.99 971.101 1421.43 971.75 1422.99C972.57 1424.62 973.3 1426.29 973.99 1427.99C976.67 1434.49 979.29 1440.88 982.99 1446.88C987.02 1453.45 991.851 1459.5 997.37 1464.88C999.22 1466.67 1007.31 1463.47 1005.51 1461.73C1000.16 1456.57 995.479 1450.75 991.58 1444.42C989.646 1441.28 987.913 1438.01 986.39 1434.65C984.77 1431.09 983.46 1427.41 981.9 1423.82C981.119 1422.01 980.237 1420.24 979.26 1418.53C978.32 1416.91 977.36 1415.38 975.59 1414.59C973.42 1413.59 970.67 1413.99 968.46 1414.59C966 1415.24 963.753 1416.52 961.94 1418.31C956.94 1423.43 957.49 1431.65 957.25 1438.24L956.2 1467.53L965 1465C960.765 1449.29 962.772 1432.55 970.6 1418.29C971.03 1417.53 971.45 1416.76 971.93 1416.02C972.2 1415.6 972.53 1415.23 972.83 1414.82C972.83 1414.82 973.12 1414.43 973.06 1414.56L972.93 1414.63C971.946 1415.09 970.877 1415.35 969.79 1415.38C971.79 1416.19 973.71 1417.02 975.65 1417.89C979.883 1419.79 984.147 1421.62 988.44 1423.38C997.013 1426.91 1005.7 1430.16 1014.5 1433.12C1024.5 1436.49 1034.9 1439.97 1045.62 1439.2C1047.15 1439.11 1048.64 1438.7 1050 1438C1050.52 1437.72 1052.12 1436.82 1051.76 1436C1044.69 1418.94 1028.2 1407.71 1010.5 1404.06C988.84 1399.59 965.89 1406.6 947.64 1418.26C938.98 1423.78 931.13 1431.26 922.52 1436.34C921.41 1436.99 920.28 1437.61 919.13 1438.18L918.36 1438.56L918.18 1438.65C917.83 1438.81 917.48 1438.96 917.12 1439.1L916.48 1439.36C916 1439.53 915.89 1439.57 916.17 1439.48C916.64 1439.32 915.73 1439.6 915.64 1439.63C914.96 1439.86 916.5 1439.63 915.24 1439.7C915.74 1439.7 914.78 1439.7 914.65 1439.7C913.749 1439.59 912.882 1439.29 912.11 1438.81C910.349 1437.7 908.919 1436.13 907.969 1434.28C907.019 1432.42 906.585 1430.35 906.71 1428.27C907.056 1425.52 908.072 1422.89 909.67 1420.63C911.267 1418.36 913.396 1416.52 915.87 1415.27L916.87 1414.79C916.7 1414.87 916.26 1415.05 917.05 1414.71C917.84 1414.37 918.38 1414.17 919.05 1413.93L919.87 1413.65C919.07 1413.9 919.98 1413.65 920.17 1413.57C920.8 1413.38 921.43 1413.21 922.06 1413.05C922.69 1412.89 923.18 1412.78 923.75 1412.66L924.06 1412.59L925.34 1412.35C926.34 1412.16 927.43 1411.99 928.48 1411.84C929.04 1411.76 929.59 1411.68 930.15 1411.62L931.08 1411.51C931.98 1411.4 930.5 1411.51 931.49 1411.51C933.75 1411.33 936 1411.22 938.27 1411.24C939.37 1411.24 939.7 1411.24 941.07 1411.36C942.18 1411.44 943.3 1411.55 944.41 1411.7C946.524 1411.97 948.614 1412.4 950.66 1413C954.806 1414.15 958.693 1416.08 962.11 1418.7C962.969 1419.37 963.79 1420.09 964.57 1420.85C964.885 1421.2 965.218 1421.54 965.57 1421.85C966.57 1422.59 968.26 1422.34 969.4 1422.17C972.4 1421.7 975.72 1420.29 977.4 1417.66C978.013 1416.84 978.394 1415.87 978.503 1414.85C978.613 1413.83 978.446 1412.8 978.02 1411.87C977.473 1410.97 976.726 1410.2 975.836 1409.63C974.947 1409.06 973.939 1408.71 972.89 1408.59C967.89 1407.75 960.34 1410.35 960.18 1416.26C960.155 1417.18 960.353 1418.1 960.757 1418.92C961.161 1419.75 961.759 1420.47 962.5 1421.02C963.98 1422.09 966.63 1421.41 968.17 1420.78C968.77 1420.53 972.09 1418.91 970.64 1417.87L970.65 1417.88Z" fill="url(#paint0_linear_1_23909)"/>
<path d="M688 1386.71C692.68 1375.45 713 1377.33 722.09 1376.77C738.46 1375.77 770.52 1375.77 774.86 1390.51C779.63 1406.71 753.04 1437.69 724.63 1434.51C700 1431.66 681.72 1401.71 688 1386.71Z" fill="#171717" stroke="#010101" stroke-width="4" stroke-miterlimit="10"/>
<path d="M758.35 1411.46L769.65 1338.9C768.81 1336.12 767.14 1332.3 763.56 1330.06C757.34 1326.16 752.47 1331.48 742.56 1329.65C731.71 1327.65 728.98 1319.65 721.19 1321.04C717.84 1321.64 712.55 1322.6 711.83 1327.57C708.063 1353.8 704.297 1380.03 700.53 1406.26C700.376 1407.32 700.444 1408.41 700.729 1409.45C701.013 1410.48 701.509 1411.45 702.185 1412.29C702.861 1413.12 703.702 1413.81 704.657 1414.31C705.611 1414.8 706.657 1415.1 707.73 1415.17L750.09 1418.05C752.042 1418.19 753.974 1417.58 755.504 1416.36C757.033 1415.14 758.049 1413.39 758.35 1411.46V1411.46Z" fill="#EDEDEE" stroke="#010101" stroke-width="4" stroke-miterlimit="10"/>
<path d="M787.11 1499.75C791.9 1513.53 790.96 1528.01 788.73 1532.24C777.67 1553.24 724.37 1551.32 696.39 1561.43C674.06 1569.5 677.39 1575.89 652.92 1588.43C636.83 1596.69 594.35 1615.65 548.76 1604.1C536.49 1601 523.37 1597.46 517.42 1585.67C509.07 1569.13 524.18 1547.2 525.82 1544.61" fill="#F5F9EF"/>
<path d="M787.11 1499.75C791.9 1513.53 790.96 1528.01 788.73 1532.24C777.67 1553.24 724.37 1551.32 696.39 1561.43C674.06 1569.5 677.39 1575.89 652.92 1588.43C636.83 1596.69 594.35 1615.65 548.76 1604.1C536.49 1601 523.37 1597.46 517.42 1585.67C509.07 1569.13 524.18 1547.2 525.82 1544.61" stroke="#010101" stroke-width="4" stroke-miterlimit="10"/>
<path d="M687 1402.59C686.31 1395.97 685.05 1393.97 687.62 1391.59C691.36 1388.14 706.74 1388.45 714.62 1394.59C720.43 1399.11 716.62 1404.06 720.85 1408.84C729.31 1418.4 752.95 1416.97 764.68 1405.2C772.31 1397.53 772.28 1388.1 774.29 1388.35C777.62 1388.78 774.29 1414.35 777.43 1445.19C781.43 1485.11 791.78 1489.92 785.87 1503.19C779.21 1518.19 763.06 1519.05 704.79 1538.06C657.79 1553.41 663.69 1554.33 639.51 1560.43C581.27 1575.12 553.2 1568.15 536.51 1558.43C526.95 1552.85 525.77 1549.08 525.83 1546.85C526.07 1537.2 549.97 1535.02 580.15 1521.02C617.15 1503.85 647.7 1478.48 656.74 1468.71C663.28 1461.65 670.17 1455.51 680.51 1430.71C684.87 1420.3 688 1412 687 1402.59Z" fill="#EEE6DC" stroke="#010101" stroke-width="4" stroke-miterlimit="10"/>
<path d="M720.86 1408.83C716.8 1438.1 704.05 1466.49 694.52 1476.72C680.98 1491.27 651.36 1512.41 618.28 1524.49C610.97 1527.15 596.56 1531.91 589.8 1545.08C586.14 1552.21 585.8 1563.93 586.16 1568.84" stroke="#010101" stroke-width="4" stroke-miterlimit="10"/>
<path d="M553.62 1531.5C554.99 1531.6 572.86 1535.04 578.84 1542.89C585.14 1551.17 582.74 1567.68 582.44 1568.89" stroke="#010101" stroke-width="4" stroke-miterlimit="10"/>
<path fill-rule="evenodd" clip-rule="evenodd" d="M745.29 1424.42L743.81 1424.19C743.67 1425.01 743.55 1425.83 743.4 1426.65L744.88 1426.9C745 1426.08 745.15 1425.25 745.29 1424.42Z" fill="#231F20"/>
<path fill-rule="evenodd" clip-rule="evenodd" d="M745.95 1419.95L744.46 1419.76L744.11 1422.23L745.59 1422.45L745.95 1419.95Z" fill="#231F20"/>
<path fill-rule="evenodd" clip-rule="evenodd" d="M746.48 1415.49L744.99 1415.33L744.71 1417.81L746.19 1417.99L746.48 1415.49Z" fill="#231F20"/>
<path fill-rule="evenodd" clip-rule="evenodd" d="M742.68 1437.72L741.22 1437.38L740.62 1439.8L742.07 1440.17L742.68 1437.72Z" fill="#231F20"/>
<path fill-rule="evenodd" clip-rule="evenodd" d="M743.66 1433.32L742.19 1433.01L741.65 1435.45L743.12 1435.78L743.66 1433.32Z" fill="#231F20"/>
<path fill-rule="evenodd" clip-rule="evenodd" d="M744.52 1428.9L743.05 1428.63C742.91 1429.45 742.74 1430.27 742.58 1431.08L744.05 1431.37C744.22 1430.55 744.38 1429.73 744.52 1428.9Z" fill="#231F20"/>
<path fill-rule="evenodd" clip-rule="evenodd" d="M739.01 1450.78L737.59 1450.32L736.79 1452.68L738.21 1453.17L739.01 1450.78Z" fill="#231F20"/>
<path fill-rule="evenodd" clip-rule="evenodd" d="M740.35 1446.47L738.91 1446.04L738.19 1448.43L739.62 1448.88L740.35 1446.47Z" fill="#231F20"/>
<path fill-rule="evenodd" clip-rule="evenodd" d="M741.57 1442.13L740.12 1441.75L739.46 1444.15L740.9 1444.56L741.57 1442.13Z" fill="#231F20"/>
<path fill-rule="evenodd" clip-rule="evenodd" d="M734.24 1463.47L732.86 1462.88L731.84 1465.15L733.21 1465.77L734.24 1463.47Z" fill="#231F20"/>
<path fill-rule="evenodd" clip-rule="evenodd" d="M735.96 1459.3L734.56 1458.75L733.62 1461.06L735 1461.63L735.96 1459.3Z" fill="#231F20"/>
<path fill-rule="evenodd" clip-rule="evenodd" d="M737.54 1455.08L736.13 1454.58L735.26 1456.91L736.67 1457.44L737.54 1455.08Z" fill="#231F20"/>
<path fill-rule="evenodd" clip-rule="evenodd" d="M728.23 1475.64L726.92 1474.91C726.54 1475.65 726.09 1476.35 725.67 1477.07L726.97 1477.82C727.39 1477.1 727.84 1476.39 728.23 1475.64Z" fill="#231F20"/>
<path fill-rule="evenodd" clip-rule="evenodd" d="M730.38 1471.67L729 1471C728.63 1471.74 728.22 1472.46 727.82 1473.19L729.14 1473.91C729.58 1473.15 730 1472.41 730.38 1471.67Z" fill="#231F20"/>
<path fill-rule="evenodd" clip-rule="evenodd" d="M732.37 1467.63L731.01 1466.98L729.91 1469.22L731.25 1469.88L732.37 1467.63Z" fill="#231F20"/>
<path fill-rule="evenodd" clip-rule="evenodd" d="M721.03 1487.14L719.8 1486.29L718.37 1488.33L719.59 1489.2L721.03 1487.14Z" fill="#231F20"/>
<path fill-rule="evenodd" clip-rule="evenodd" d="M723.54 1483.39L722.28 1482.57L720.93 1484.66L722.17 1485.5L723.54 1483.39Z" fill="#231F20"/>
<path fill-rule="evenodd" clip-rule="evenodd" d="M725.93 1479.57L724.65 1478.79C724.22 1479.5 723.82 1480.23 723.35 1480.92L724.62 1481.72C725.09 1481 725.49 1480.29 725.93 1479.57Z" fill="#231F20"/>
<path fill-rule="evenodd" clip-rule="evenodd" d="M712.8 1497.93L711.66 1496.96L710.02 1498.84L711.15 1499.83L712.8 1497.93Z" fill="#231F20"/>
<path fill-rule="evenodd" clip-rule="evenodd" d="M715.66 1494.42L714.48 1493.49L712.91 1495.43L714.07 1496.38L715.66 1494.42Z" fill="#231F20"/>
<path fill-rule="evenodd" clip-rule="evenodd" d="M718.39 1490.84L717.18 1489.95L715.68 1491.94L716.87 1492.85L718.39 1490.84Z" fill="#231F20"/>
<path fill-rule="evenodd" clip-rule="evenodd" d="M703.59 1507.88L702.54 1506.81L700.74 1508.54L701.77 1509.62L703.59 1507.88Z" fill="#231F20"/>
<path fill-rule="evenodd" clip-rule="evenodd" d="M706.76 1504.66L705.67 1503.62L703.92 1505.4L704.99 1506.46L706.76 1504.66Z" fill="#231F20"/>
<path fill-rule="evenodd" clip-rule="evenodd" d="M709.82 1501.36L708.7 1500.36L707.01 1502.18L708.11 1503.21L709.82 1501.36Z" fill="#231F20"/>
<path fill-rule="evenodd" clip-rule="evenodd" d="M693.54 1516.98L692.57 1515.83L690.65 1517.42L691.6 1518.59L693.54 1516.98Z" fill="#231F20"/>
<path fill-rule="evenodd" clip-rule="evenodd" d="M696.96 1514.04L695.97 1512.92L694.09 1514.55L695.06 1515.69L696.96 1514.04Z" fill="#231F20"/>
<path fill-rule="evenodd" clip-rule="evenodd" d="M700.3 1511.02L699.28 1509.93L697.44 1511.61L698.44 1512.72L700.3 1511.02Z" fill="#231F20"/>
<path fill-rule="evenodd" clip-rule="evenodd" d="M682.89 1525.35L681.99 1524.15C681.31 1524.64 680.66 1525.15 679.99 1525.63L680.88 1526.84C681.56 1526.37 682.21 1525.85 682.89 1525.35Z" fill="#231F20"/>
<path fill-rule="evenodd" clip-rule="evenodd" d="M686.48 1522.63L685.57 1521.44L683.57 1522.96L684.48 1524.15L686.48 1522.63Z" fill="#231F20"/>
<path fill-rule="evenodd" clip-rule="evenodd" d="M690 1519.86L689.06 1518.68C688.41 1519.21 687.76 1519.68 687.06 1520.23L687.98 1521.42C688.71 1520.91 689.36 1520.38 690 1519.86Z" fill="#231F20"/>
<path fill-rule="evenodd" clip-rule="evenodd" d="M671.35 1532.55L670.69 1531.2L668.45 1532.24L669.06 1533.61L671.35 1532.55Z" fill="#231F20"/>
<path fill-rule="evenodd" clip-rule="evenodd" d="M675.35 1530.4L674.6 1529.11L672.44 1530.31L673.14 1531.64L675.35 1530.4Z" fill="#231F20"/>
<path fill-rule="evenodd" clip-rule="evenodd" d="M679.17 1527.98L678.32 1526.74L676.28 1528.13L677.07 1529.4L679.17 1527.98Z" fill="#231F20"/>
<path fill-rule="evenodd" clip-rule="evenodd" d="M658.68 1537.45L658.24 1536.02C657.45 1536.29 656.64 1536.48 655.84 1536.72L656.26 1538.16C657.07 1537.92 657.88 1537.72 658.68 1537.45Z" fill="#231F20"/>
<path fill-rule="evenodd" clip-rule="evenodd" d="M662.98 1536.05L662.48 1534.63L660.12 1535.41L660.58 1536.83L662.98 1536.05Z" fill="#231F20"/>
<path fill-rule="evenodd" clip-rule="evenodd" d="M667.2 1534.44L666.62 1533.05L664.3 1533.94L664.84 1535.34L667.2 1534.44Z" fill="#231F20"/>
<path d="M645.269 1539.53L642.84 1540.17L643.22 1541.62L645.648 1540.99L645.269 1539.53Z" fill="#231F20"/>
<path d="M649.634 1538.39L647.207 1539.03L647.588 1540.48L650.015 1539.84L649.634 1538.39Z" fill="#231F20"/>
<path fill-rule="evenodd" clip-rule="evenodd" d="M654.31 1538.72L653.91 1537.27C653.11 1537.5 652.3 1537.72 651.5 1537.93L651.88 1539.38L654.31 1538.72Z" fill="#231F20"/>
<path fill-rule="evenodd" clip-rule="evenodd" d="M632.65 1544.73L632.18 1543.31L629.79 1544.14L630.29 1545.55L632.65 1544.73Z" fill="#231F20"/>
<path fill-rule="evenodd" clip-rule="evenodd" d="M636.93 1543.4L636.51 1541.97L634.09 1542.7L634.54 1544.13L636.93 1543.4Z" fill="#231F20"/>
<path fill-rule="evenodd" clip-rule="evenodd" d="M641.24 1542.18L640.84 1540.74L638.41 1541.4L638.82 1542.84L641.24 1542.18Z" fill="#231F20"/>
<path fill-rule="evenodd" clip-rule="evenodd" d="M620.17 1549.73L619.53 1548.38L617.24 1549.47L617.92 1550.81L620.17 1549.73Z" fill="#231F20"/>
<path fill-rule="evenodd" clip-rule="evenodd" d="M624.25 1547.88L623.66 1546.5C622.88 1546.81 622.1 1547.13 621.34 1547.5L621.96 1548.86C622.7 1548.5 623.47 1548.19 624.25 1547.88Z" fill="#231F20"/>
<path fill-rule="evenodd" clip-rule="evenodd" d="M628.39 1546.21L627.86 1544.8C627.07 1545.1 626.3 1545.43 625.51 1545.8L626.07 1547.19C626.84 1546.83 627.61 1546.5 628.39 1546.21Z" fill="#231F20"/>
<path fill-rule="evenodd" clip-rule="evenodd" d="M608.53 1556.42L607.69 1555.17C606.99 1555.64 606.28 1556.1 605.58 1556.58L606.46 1557.8C607.14 1557.32 607.84 1556.88 608.53 1556.42Z" fill="#231F20"/>
<path fill-rule="evenodd" clip-rule="evenodd" d="M612.27 1554L611.49 1552.72C610.77 1553.16 610.08 1553.64 609.37 1554.1L610.18 1555.36C610.88 1554.87 611.57 1554.4 612.27 1554Z" fill="#231F20"/>
<path fill-rule="evenodd" clip-rule="evenodd" d="M616.16 1551.77L615.44 1550.45L613.23 1551.7L613.99 1552.99L616.16 1551.77Z" fill="#231F20"/>
<path fill-rule="evenodd" clip-rule="evenodd" d="M599 1565.26L597.63 1564.65C597.28 1565.42 596.96 1566.2 596.63 1566.89L597.96 1567.57C598.36 1566.79 598.68 1566 599 1565.26Z" fill="#231F20"/>
<path fill-rule="evenodd" clip-rule="evenodd" d="M601.34 1561.74L600.34 1560.61C599.586 1561.18 598.973 1561.91 598.55 1562.76L599.85 1563.52C600.185 1562.81 600.698 1562.2 601.34 1561.74V1561.74Z" fill="#231F20"/>
<path fill-rule="evenodd" clip-rule="evenodd" d="M604.86 1559.03L603.96 1557.83L601.96 1559.37L602.88 1560.55L604.86 1559.03Z" fill="#231F20"/>
<path d="M756.1 1443.61C758.9 1437.81 760.34 1437.15 761.33 1437.07C766.33 1436.67 773.95 1450.41 772.33 1463.21C772.17 1464.49 770.21 1478.28 760.84 1481.21C759.74 1481.55 755.91 1482.76 752.84 1480.84C744.94 1475.91 750.56 1455.1 756.1 1443.61Z" fill="#EDEDEE" stroke="#010101" stroke-width="4" stroke-miterlimit="10"/>
<path d="M729.6 1520.57C730.012 1519.79 730.616 1519.13 731.354 1518.66C732.093 1518.18 732.942 1517.9 733.82 1517.84C737.12 1517.84 740.54 1521.84 738.95 1524.78C738.271 1525.79 737.302 1526.56 736.172 1527.01C735.042 1527.45 733.803 1527.54 732.62 1527.27C731.941 1527.09 731.311 1526.76 730.776 1526.3C730.24 1525.84 729.813 1525.28 729.524 1524.64C729.235 1523.99 729.092 1523.3 729.105 1522.59C729.118 1521.89 729.287 1521.2 729.6 1520.57V1520.57Z" fill="#010101" stroke="white" stroke-miterlimit="10"/>
<path d="M703.28 1528.43C703.701 1527.67 704.309 1527.02 705.047 1526.56C705.785 1526.1 706.629 1525.83 707.5 1525.78C710.79 1525.78 714.21 1529.69 712.63 1532.53C711.933 1533.52 710.957 1534.27 709.828 1534.7C708.698 1535.13 707.466 1535.21 706.29 1534.94C705.619 1534.78 704.993 1534.47 704.459 1534.03C703.925 1533.59 703.498 1533.04 703.208 1532.41C702.918 1531.79 702.774 1531.1 702.787 1530.41C702.799 1529.72 702.968 1529.05 703.28 1528.43V1528.43Z" fill="#010101" stroke="white" stroke-miterlimit="10"/>
<path d="M726.43 1428.69C726.84 1427.91 727.444 1427.25 728.183 1426.77C728.922 1426.29 729.771 1426.01 730.65 1425.96C733.94 1425.96 737.36 1429.96 735.78 1432.9C735.1 1433.91 734.13 1434.69 732.998 1435.13C731.865 1435.58 730.625 1435.67 729.44 1435.39C728.761 1435.21 728.131 1434.88 727.595 1434.42C727.06 1433.97 726.633 1433.4 726.345 1432.75C726.057 1432.11 725.915 1431.42 725.93 1430.71C725.944 1430.01 726.115 1429.32 726.43 1428.69V1428.69Z" fill="#010101" stroke="white" stroke-miterlimit="10"/>
<path d="M718.3 1452.25C718.712 1451.47 719.316 1450.81 720.054 1450.34C720.793 1449.86 721.642 1449.58 722.52 1449.52C725.81 1449.52 729.23 1453.52 727.65 1456.52C726.969 1457.53 725.998 1458.3 724.866 1458.75C723.734 1459.19 722.494 1459.28 721.31 1459C720.624 1458.82 719.987 1458.49 719.447 1458.03C718.906 1457.57 718.476 1456.99 718.187 1456.35C717.898 1455.7 717.758 1454.99 717.778 1454.29C717.797 1453.58 717.976 1452.88 718.3 1452.25V1452.25Z" fill="#010101" stroke="white" stroke-miterlimit="10"/>
<path d="M704 1476.56C704.412 1475.78 705.017 1475.13 705.755 1474.65C706.494 1474.17 707.343 1473.89 708.22 1473.84C711.51 1473.84 714.93 1477.84 713.34 1480.78C712.66 1481.79 711.69 1482.56 710.56 1483C709.43 1483.45 708.192 1483.54 707.01 1483.26C706.331 1483.08 705.701 1482.75 705.166 1482.29C704.63 1481.84 704.203 1481.27 703.915 1480.62C703.627 1479.98 703.485 1479.29 703.5 1478.58C703.514 1477.88 703.685 1477.19 704 1476.56V1476.56Z" fill="#010101" stroke="white" stroke-miterlimit="10"/>
<path d="M686.63 1497.68C687.043 1496.9 687.649 1496.24 688.389 1495.76C689.13 1495.29 689.98 1495.01 690.86 1494.95C694.15 1494.95 697.57 1498.95 695.98 1501.95C695.299 1502.96 694.33 1503.73 693.2 1504.17C692.07 1504.62 690.832 1504.71 689.65 1504.43C688.964 1504.25 688.328 1503.92 687.787 1503.46C687.247 1503 686.816 1502.42 686.526 1501.78C686.236 1501.13 686.095 1500.43 686.113 1499.72C686.131 1499.01 686.308 1498.31 686.63 1497.68V1497.68Z" fill="#010101" stroke="white" stroke-miterlimit="10"/>
<path d="M663 1514.1C663.412 1513.32 664.016 1512.66 664.754 1512.19C665.493 1511.71 666.342 1511.43 667.22 1511.37C670.52 1511.37 673.94 1515.37 672.35 1518.37C671.67 1519.38 670.7 1520.15 669.57 1520.59C668.44 1521.04 667.202 1521.13 666.02 1520.85C665.333 1520.67 664.695 1520.34 664.154 1519.88C663.612 1519.42 663.18 1518.85 662.891 1518.2C662.601 1517.55 662.46 1516.85 662.479 1516.14C662.498 1515.43 662.676 1514.73 663 1514.1Z" fill="#010101" stroke="white" stroke-miterlimit="10"/>
<path d="M637 1528.38C637.413 1527.6 638.019 1526.94 638.759 1526.46C639.5 1525.99 640.35 1525.71 641.23 1525.65C644.52 1525.65 647.94 1529.65 646.35 1532.59C645.669 1533.6 644.7 1534.37 643.57 1534.81C642.44 1535.26 641.202 1535.35 640.02 1535.07C639.341 1534.89 638.711 1534.56 638.176 1534.1C637.64 1533.65 637.213 1533.08 636.924 1532.44C636.635 1531.8 636.492 1531.1 636.505 1530.4C636.518 1529.7 636.687 1529.01 637 1528.38Z" fill="#010101" stroke="white" stroke-miterlimit="10"/>
<path d="M610.6 1539.28C611.01 1538.5 611.614 1537.84 612.353 1537.36C613.092 1536.88 613.941 1536.6 614.82 1536.55C618.11 1536.55 621.53 1540.55 619.95 1543.49C619.269 1544.5 618.298 1545.27 617.166 1545.72C616.034 1546.16 614.794 1546.25 613.61 1545.97C612.931 1545.79 612.301 1545.46 611.766 1545C611.23 1544.55 610.803 1543.98 610.515 1543.34C610.227 1542.7 610.085 1542 610.099 1541.3C610.114 1540.6 610.285 1539.91 610.6 1539.28V1539.28Z" fill="#010101" stroke="white" stroke-miterlimit="10"/>
<path d="M631 1578.77C660.84 1575.27 678.09 1554.92 692.88 1550.56C719.2 1542.79 734.2 1543.85 763.56 1534.43C774.74 1530.85 786.48 1523.17 791.34 1518.71" stroke="#010101" stroke-width="4" stroke-miterlimit="10"/>
<path d="M761.62 1446.65L763.99 1454.09L767.82 1450.63L764.84 1458.86L767.82 1468.37L762.58 1463.04L758.03 1472.34L759.3 1461.35L752.84 1461.03L759.74 1456.28L761.62 1446.65Z" fill="#9F83B2"/>
<path d="M601.11 1514.08C601.31 1515.93 602.29 1517.08 603.11 1518.66C604.334 1521.05 605.426 1523.52 606.38 1526.03C608.466 1530.89 609.7 1536.07 610.03 1541.35C610.09 1543.47 612.08 1544.5 614.03 1544.35C615.7 1544.18 618.87 1542.97 618.8 1540.78C618.564 1535.08 617.346 1529.47 615.2 1524.18C614.2 1521.6 613.06 1519.08 611.87 1516.6C611.412 1515.53 610.849 1514.5 610.19 1513.54C610.12 1513.44 610.05 1513.27 609.96 1513.21C609.87 1513.15 610.13 1513.88 610.03 1513.35C609.907 1512.84 609.813 1512.32 609.75 1511.8C609.66 1510.96 608.58 1510.24 607.89 1509.98C606.819 1509.62 605.665 1509.6 604.58 1509.91C602.58 1510.51 600.82 1511.91 601.05 1514.13L601.11 1514.08Z" fill="#ECEFEA"/>
<path d="M624.42 1496.56C629.32 1508.04 633.72 1519.71 637.62 1531.56C638.28 1533.56 640.99 1533.92 642.77 1533.39C644.35 1532.91 647 1531.32 646.31 1529.23C642.417 1517.36 638.017 1505.7 633.11 1494.23C632.27 1492.23 629.87 1491.83 627.96 1492.41C626.53 1492.84 623.55 1494.54 624.42 1496.56Z" fill="#ECEFEA"/>
<path d="M640.1 1487.74C640.432 1487.78 640.766 1487.8 641.1 1487.8C641.318 1487.82 641.536 1487.85 641.75 1487.89C642.505 1488.02 643.246 1488.22 643.96 1488.5C645.14 1489.02 646.246 1489.69 647.25 1490.5C649.897 1492.65 652.415 1494.96 654.79 1497.41C660.24 1502.65 665.79 1509.71 664.54 1517.79C664.32 1519.33 667.18 1518.86 668.04 1518.7C669.184 1518.52 670.297 1518.18 671.35 1517.7C671.85 1517.46 673.04 1516.94 673.13 1516.33C674.46 1507.33 668.8 1500.01 662.66 1494.15C660.1 1491.71 657.59 1489 654.66 1486.99C651.4 1484.74 647.75 1484.14 643.85 1484.22C642.02 1484.22 639.36 1484.95 638.04 1486.31C636.72 1487.67 639.3 1487.83 640.12 1487.81L640.1 1487.74Z" fill="#ECEFEA"/>
<path d="M658.45 1472.33L659.23 1472.5C658.86 1472.41 658.91 1472.43 659.37 1472.5L660.67 1472.87C661.52 1473.14 662.36 1473.44 663.18 1473.77C663.58 1473.93 663.98 1474.11 664.38 1474.29C664.5 1474.34 665.7 1474.94 665.21 1474.68C665.97 1475.08 666.72 1475.51 667.45 1475.97C670.242 1477.77 672.834 1479.86 675.18 1482.21C677.75 1484.79 680.18 1487.57 682.44 1490.39C684.7 1493.21 687.33 1496.49 687.15 1500.21C687.05 1502.34 689.34 1503.3 691.15 1503.11C692.96 1502.92 695.83 1501.77 695.93 1499.57C696.16 1494.83 693.77 1490.76 690.93 1487.18C688.415 1484 685.724 1480.97 682.87 1478.09C680.071 1475.2 676.932 1472.66 673.52 1470.53C669.788 1468.32 665.707 1466.75 661.45 1465.91C660.348 1465.74 659.219 1465.9 658.211 1466.38C657.203 1466.85 656.362 1467.63 655.8 1468.59C654.85 1470.67 656.67 1471.93 658.46 1472.29L658.45 1472.33Z" fill="#ECEFEA"/>
<path d="M671.19 1456C672.19 1456.06 673.08 1456.17 674.03 1456.32C674.82 1456.44 673.73 1456.21 674.56 1456.43C674.93 1456.52 675.3 1456.61 675.66 1456.72C676.499 1456.96 677.323 1457.24 678.13 1457.57C678.652 1457.77 679.16 1458.01 679.65 1458.28C682.621 1459.91 685.439 1461.81 688.07 1463.95C694.07 1468.62 699.07 1474.44 704.07 1480.2C705.43 1481.79 708.23 1481.58 709.94 1480.71C711.27 1480.04 713.49 1478.14 712.06 1476.48C706.63 1470.17 701.12 1463.97 694.5 1458.88C688.5 1454.23 682.07 1450.53 674.3 1450.03C672.3 1449.9 669.61 1450.65 668.62 1452.62C667.63 1454.59 669.44 1455.89 671.2 1456H671.19Z" fill="#ECEFEA"/>
<path d="M681.56 1438C681.03 1438.06 682.33 1437.93 682.48 1437.92C683 1437.92 683.48 1437.86 684.04 1437.85C684.82 1437.85 685.38 1437.85 686.21 1437.85C688.031 1437.95 689.84 1438.21 691.62 1438.6C695.321 1439.44 698.889 1440.78 702.22 1442.6C708.506 1446.14 714.048 1450.86 718.54 1456.5C718.92 1456.97 720.33 1456.93 720.79 1456.9C721.952 1456.84 723.096 1456.59 724.18 1456.17C725.07 1455.81 727.76 1454.72 726.7 1453.42C721.869 1447.33 715.807 1442.33 708.91 1438.75C700.922 1434.75 691.923 1433.21 683.06 1434.34C681.906 1434.5 680.787 1434.86 679.75 1435.39C679.26 1435.65 678.19 1436.23 678.01 1436.87C677.53 1438.52 680.9 1438.07 681.56 1437.99V1438Z" fill="#ECEFEA"/>
<path d="M686.62 1421.89C697.403 1421.71 708.14 1423.33 718.39 1426.68C721.358 1427.53 724.149 1428.9 726.63 1430.74C728.2 1432 730.63 1431.74 732.41 1430.91C733.28 1430.5 736.3 1428.57 734.68 1427.27C731.677 1424.98 728.291 1423.23 724.68 1422.12C721.046 1420.9 717.343 1419.9 713.59 1419.12C705.814 1417.47 697.879 1416.68 689.93 1416.79C687.93 1416.79 685.32 1417.39 684.2 1419.21C683.08 1421.03 685.1 1421.95 686.6 1421.93L686.62 1421.89Z" fill="#ECEFEA"/>
<path d="M579.12 1524C591.388 1525.77 602.455 1532.33 609.9 1542.24C610.79 1543.44 613.41 1542.73 614.6 1542.39C614.99 1542.28 619.29 1540.85 618.6 1539.91C614.743 1534.74 609.903 1530.37 604.357 1527.07C598.811 1523.77 592.668 1521.59 586.28 1520.67C584.191 1520.46 582.085 1520.85 580.21 1521.79C579.59 1522.08 577.13 1523.72 579.13 1524H579.12Z" fill="#F8FBF4"/>
<path d="M602.25 1514.92C608.746 1515.05 615.139 1516.57 621 1519.38C627.061 1522.44 632.564 1526.5 637.28 1531.38C638.73 1532.84 641.39 1532.6 643.11 1531.75C644.25 1531.19 646.81 1529.28 645.3 1527.75C640.15 1522.38 634.124 1517.93 627.48 1514.59C620.591 1511.32 613.101 1509.52 605.48 1509.28C603.48 1509.21 600.82 1509.89 599.79 1511.8C598.76 1513.71 600.63 1514.8 602.29 1514.91L602.25 1514.92Z" fill="#F8FBF4"/>
<path d="M619 1502C635.186 1502.42 650.828 1507.94 663.7 1517.76C665.2 1518.91 667.81 1518.35 669.4 1517.66C670.11 1517.36 673.31 1515.66 671.81 1514.5C657.614 1503.71 640.332 1497.75 622.5 1497.5C620.63 1497.5 617.91 1498.19 616.74 1499.78C615.57 1501.37 617.74 1501.96 619 1501.98V1502Z" fill="#F8FBF4"/>
<path d="M638.1 1488.42C655.517 1487.34 672.876 1491.3 688.1 1499.83C689.82 1500.83 692.69 1499.9 694.24 1498.97C695.49 1498.23 696.8 1496.72 695.05 1495.75C678.732 1486.74 660.182 1482.58 641.58 1483.75C639.63 1483.87 637.03 1484.33 635.83 1486.08C634.63 1487.83 636.83 1488.55 638.14 1488.47L638.1 1488.42Z" fill="#F8FBF4"/>
<path d="M657.77 1470C665.662 1469.62 673.571 1470.18 681.33 1471.67C689.143 1473.26 696.74 1475.78 703.96 1479.16C705.54 1479.89 707.96 1479.11 709.53 1478.55C709.87 1478.42 713.42 1476.86 712.18 1476.28C696.992 1469.09 680.251 1465.79 663.47 1466.69C661.316 1466.73 659.205 1467.3 657.32 1468.34C656.97 1468.55 656.13 1469 656.27 1469.51C656.41 1470.02 657.44 1470.02 657.77 1470V1470Z" fill="#F8FBF4"/>
<path d="M672.47 1454C676.301 1454.06 680.133 1453.93 683.95 1453.6L685.88 1453.45C686.38 1453.45 686.44 1453.4 686.06 1453.45L686.69 1453.4C687.63 1453.33 688.56 1453.26 689.5 1453.21C691.5 1453.08 693.5 1453 695.5 1452.98C702.71 1452.93 710.05 1453.83 716.68 1457.32C718.4 1458.22 721.26 1457.32 722.81 1456.41C724 1455.72 725.42 1454.3 723.67 1453.41C716.4 1449.58 708 1448.55 699.88 1448.54C695.65 1448.54 691.45 1448.87 687.23 1449.2C687.93 1449.14 686.74 1449.2 686.65 1449.2L685.39 1449.29C684.39 1449.36 683.39 1449.42 682.39 1449.47C680.26 1449.57 678.12 1449.6 675.99 1449.54C674.11 1449.54 671.39 1450.24 670.22 1451.82C669.05 1453.4 671.28 1453.99 672.48 1454.02L672.47 1454Z" fill="#F8FBF4"/>
<path d="M680.8 1436.9L705.04 1433.3L717.04 1431.51L719.98 1431.07L721.21 1430.9C721.3 1430.9 722.49 1430.76 721.8 1430.82C723.264 1430.6 724.76 1430.85 726.07 1431.54C726.983 1431.81 727.949 1431.85 728.88 1431.65C730.037 1431.49 731.157 1431.13 732.19 1430.58C733.33 1429.95 734.84 1428.58 733.1 1427.74C729.36 1425.87 724.85 1426.53 720.88 1427.12L707.88 1429.05L682.16 1432.88C680.68 1433.1 677.64 1433.83 677.16 1435.54C676.68 1437.25 680 1437.02 680.78 1436.9H680.8Z" fill="#F8FBF4"/>
<path d="M687 1402.59C686.31 1395.97 685.05 1393.97 687.62 1391.59C691.36 1388.14 706.74 1388.45 714.62 1394.59C720.43 1399.11 716.62 1404.06 720.85 1408.84C729.31 1418.4 752.95 1416.97 764.68 1405.2C772.31 1397.53 772.28 1388.1 774.29 1388.35C777.62 1388.78 774.29 1414.35 777.43 1445.19C781.43 1485.11 791.78 1489.92 785.87 1503.19C779.21 1518.19 763.06 1519.05 704.79 1538.06C657.79 1553.41 663.69 1554.33 639.51 1560.43C581.27 1575.12 553.2 1568.15 536.51 1558.43C526.95 1552.85 525.77 1549.08 525.83 1546.85C526.07 1537.2 549.97 1535.02 580.15 1521.02C617.15 1503.85 647.7 1478.48 656.74 1468.71C663.28 1461.65 670.17 1455.51 680.51 1430.71C684.87 1420.3 688 1412 687 1402.59Z" stroke="#010101" stroke-width="4" stroke-miterlimit="10"/>
<g opacity="0.21">
<path opacity="0.21" d="M575.72 1527C587.987 1528.77 599.053 1535.33 606.5 1545.24C607.39 1546.44 610.01 1545.73 611.2 1545.39C611.59 1545.28 615.89 1543.85 615.2 1542.91C611.346 1537.73 606.506 1533.37 600.96 1530.07C595.413 1526.76 589.269 1524.59 582.88 1523.67C580.791 1523.46 578.685 1523.85 576.81 1524.79C576.19 1525.08 573.73 1526.72 575.73 1527H575.72Z" fill="#A5A4A4"/>
</g>
<g opacity="0.21">
<path opacity="0.21" d="M598.85 1517.9C605.346 1518.03 611.739 1519.55 617.6 1522.36C623.661 1525.42 629.164 1529.48 633.88 1534.36C635.33 1535.82 637.99 1535.57 639.71 1534.73C640.85 1534.17 643.41 1532.26 641.89 1530.73C636.742 1525.37 630.72 1520.92 624.08 1517.58C617.19 1514.31 609.701 1512.5 602.08 1512.26C600.08 1512.19 597.42 1512.88 596.38 1514.78C595.34 1516.68 597.23 1517.84 598.89 1517.9H598.85Z" fill="#A5A4A4"/>
</g>
<g opacity="0.21">
<path opacity="0.21" d="M615.61 1505C631.794 1505.43 647.432 1510.95 660.3 1520.77C661.81 1521.92 664.42 1521.36 666.01 1520.67C666.72 1520.37 669.92 1518.67 668.41 1517.51C654.216 1506.72 636.938 1500.76 619.11 1500.51C617.23 1500.51 614.52 1501.2 613.35 1502.79C612.18 1504.38 614.35 1504.97 615.61 1504.99V1505Z" fill="#A5A4A4"/>
</g>
<g opacity="0.21">
<path opacity="0.21" d="M634.7 1491.4C652.117 1490.32 669.476 1494.28 684.7 1502.81C686.42 1503.81 689.29 1502.88 690.84 1501.95C692.09 1501.2 693.4 1499.7 691.65 1498.73C675.329 1489.72 656.775 1485.56 638.17 1486.73C636.23 1486.85 633.63 1487.31 632.42 1489.06C631.21 1490.81 633.42 1491.53 634.74 1491.45L634.7 1491.4Z" fill="#A5A4A4"/>
</g>
<g opacity="0.21">
<path opacity="0.21" d="M654.36 1473C662.255 1472.62 670.167 1473.18 677.93 1474.67C685.743 1476.26 693.339 1478.77 700.56 1482.15C702.14 1482.88 704.56 1482.15 706.13 1481.54C706.47 1481.42 710.02 1479.85 708.78 1479.28C693.592 1472.09 676.851 1468.79 660.07 1469.69C657.916 1469.73 655.805 1470.3 653.92 1471.34C653.57 1471.54 652.73 1472 652.92 1472.51C653.11 1473.02 654.09 1473.02 654.41 1473H654.36Z" fill="#A5A4A4"/>
</g>
<g opacity="0.21">
<path opacity="0.21" d="M669.07 1456.93C672.901 1456.99 676.733 1456.86 680.55 1456.53L682.48 1456.37C682.98 1456.37 683.04 1456.37 682.65 1456.37H683.29L686.1 1456.17C688.1 1456.05 690.1 1455.97 692.1 1455.95C699.31 1455.89 706.65 1456.79 713.28 1460.29C715 1461.19 717.86 1460.29 719.41 1459.38C720.6 1458.69 722.02 1457.27 720.26 1456.38C712.99 1452.55 704.6 1451.52 696.48 1451.51C692.25 1451.51 688.04 1451.83 683.83 1452.16C684.53 1452.16 683.34 1452.16 683.25 1452.16L681.99 1452.25C680.99 1452.32 679.99 1452.38 678.99 1452.43C676.86 1452.53 674.72 1452.55 672.59 1452.5C670.71 1452.5 667.99 1453.2 666.82 1454.78C665.65 1456.36 667.88 1456.95 669.08 1456.98L669.07 1456.93Z" fill="#A5A4A4"/>
</g>
<g opacity="0.21">
<path opacity="0.21" d="M677.4 1439.88L701.64 1436.27L713.64 1434.49L716.57 1434.05L717.81 1433.88C717.9 1433.88 719.09 1433.74 718.4 1433.8C719.863 1433.57 721.359 1433.82 722.67 1434.51C723.581 1434.79 724.548 1434.83 725.48 1434.63C726.638 1434.47 727.759 1434.1 728.79 1433.55C729.93 1432.92 731.44 1431.55 729.7 1430.72C725.96 1428.85 721.45 1429.51 717.48 1430.1L704.48 1432.03L678.77 1435.85C677.29 1436.08 674.25 1436.85 673.77 1438.52C673.29 1440.19 676.61 1440 677.39 1439.88H677.4Z" fill="#A5A4A4"/>
</g>
<g opacity="0.71">
<path opacity="0.71" d="M712.81 1423C713.709 1422.4 714.451 1421.59 714.973 1420.64C715.495 1419.69 715.782 1418.63 715.81 1417.55C715.849 1416.6 715.644 1415.66 715.213 1414.82C714.782 1413.98 714.14 1413.26 713.35 1412.74C710.93 1411.24 707.76 1411.45 705.12 1412.15C702.48 1412.85 699.5 1414.22 698.12 1416.75C697.656 1417.63 697.44 1418.63 697.496 1419.62C697.553 1420.62 697.879 1421.58 698.44 1422.41C699.109 1423.42 700.034 1424.24 701.12 1424.79C702.207 1425.33 703.418 1425.57 704.63 1425.5C706.324 1425.46 707.977 1424.97 709.42 1424.08C710.059 1423.62 710.649 1423.09 711.18 1422.51C711.89 1421.79 712.649 1421.12 713.45 1420.51C715.034 1419.26 716.763 1418.21 718.6 1417.37C718.75 1417.29 719.34 1417.04 718.6 1417.37L719.26 1417.08C719.76 1416.87 720.26 1416.67 720.77 1416.49C721.03 1416.39 722.6 1415.89 721.52 1416.21C722.1 1416.04 722.68 1415.86 723.27 1415.7L724.86 1415.3C725.12 1415.3 725.95 1415.09 724.95 1415.3L725.68 1415.16C726.83 1414.95 727.99 1414.78 729.16 1414.64H729.55H730.12L731.62 1414.54C732.87 1414.48 734.12 1414.45 735.38 1414.46H736.88H737H737.94C739.127 1414.53 740.317 1414.63 741.51 1414.76C750.65 1415.76 761.77 1418.01 766.97 1426.48C769.37 1430.39 770.14 1435.12 768.04 1439.32C767.601 1440.18 767.042 1440.98 766.38 1441.68C766.177 1441.92 765.949 1442.14 765.7 1442.34C765.52 1442.49 765.34 1442.62 765.15 1442.76H765.09L764.79 1442.93L764.49 1443.08C764.91 1442.89 764.98 1442.85 764.69 1442.96C764.12 1443.22 765.54 1442.76 765.52 1442.76C765.33 1442.76 764.74 1442.84 765.57 1442.76C765.65 1442.76 764.92 1442.76 765.15 1442.76C763.807 1442.62 762.493 1442.29 761.25 1441.76C751.43 1437.94 743.46 1430.42 735.09 1424.24C717.62 1411.35 696.26 1403.84 674.42 1406.24C655.69 1408.32 636.94 1418.47 627.21 1434.95C626.101 1436.83 625.129 1438.79 624.3 1440.81C623.91 1441.74 625.23 1442.12 625.86 1442.17C636.16 1442.91 646.06 1440.04 655.74 1436.87C664.7 1433.94 673.563 1430.72 682.33 1427.21C686.637 1425.48 690.913 1423.68 695.16 1421.82C697.54 1420.82 699.92 1419.71 702.28 1418.63L703.15 1418.22C702.98 1418.3 702.93 1418.45 703.15 1418.22C703.37 1417.99 703.29 1418.22 703.06 1418.22L701.57 1418.36C701.71 1418.53 702.22 1418.71 702.42 1418.88C702.791 1419.21 703.126 1419.57 703.42 1419.97C705.81 1423.05 707.42 1427.04 708.86 1430.66C710.342 1434.48 711.45 1438.44 712.17 1442.47C713.818 1451.56 713.422 1460.9 711.01 1469.82L719.67 1467.99L718.74 1442.18C718.6 1438.27 718.59 1434.33 718.24 1430.43C718.111 1427.18 717.158 1424.01 715.47 1421.22C714.414 1419.57 712.882 1418.28 711.077 1417.52C709.271 1416.76 707.277 1416.57 705.36 1416.97C702.606 1417.33 700.069 1418.66 698.2 1420.71C697.022 1422.26 696.016 1423.94 695.2 1425.71C693.45 1429.26 692.12 1432.99 690.59 1436.64C689.162 1440.07 687.525 1443.41 685.69 1446.64C681.537 1453.85 676.39 1460.44 670.4 1466.21C668.93 1467.63 671.66 1468.21 672.58 1468.13C674.71 1468.1 676.76 1467.31 678.37 1465.92C683.316 1461.13 687.701 1455.79 691.44 1450C695.211 1444.02 698.39 1437.69 700.93 1431.09C702.154 1427.65 703.705 1424.34 705.56 1421.2C705.845 1420.85 706.105 1420.49 706.34 1420.11C706.1 1420.7 703.87 1421.38 703.26 1420.92C703.01 1420.73 703.98 1421.17 703.9 1421.14C705.247 1421.8 706.367 1422.84 707.12 1424.14C708.57 1426.78 709.385 1429.73 709.5 1432.74C709.82 1436.31 709.84 1439.92 709.96 1443.5L710.96 1470.3C710.96 1470.9 712.21 1471.12 712.55 1471.17C713.428 1471.25 714.314 1471.18 715.17 1470.97C716.46 1470.69 719.17 1469.97 719.62 1468.47C724.075 1452.02 721.838 1434.48 713.4 1419.68C712.46 1418.05 711.46 1416.18 709.79 1415.19C707.01 1413.52 703.43 1414.28 700.55 1415.29C698.08 1416.15 696.28 1417.17 694.09 1418.15C691.9 1419.13 689.56 1420.15 687.27 1421.15C678.423 1425.05 669.423 1428.59 660.27 1431.77C654.98 1433.61 651.06 1434.98 645.7 1436.45C644.4 1436.8 643.09 1437.13 641.77 1437.45C642.4 1437.31 641.63 1437.45 641.54 1437.45L640.38 1437.67L638.51 1437.98C637.391 1438.15 636.262 1438.26 635.13 1438.3C633.875 1438.38 632.616 1438.38 631.36 1438.3L632.92 1439.66C635.853 1432.7 640.419 1426.56 646.23 1421.74C647.734 1420.5 649.303 1419.34 650.93 1418.27C651.33 1418 651.74 1417.73 652.16 1417.47C651.69 1417.76 652.21 1417.47 652.29 1417.4L652.92 1417.03C653.76 1416.53 654.62 1416.03 655.49 1415.61C656.36 1415.19 657.24 1414.72 658.13 1414.32C657.33 1414.68 658.64 1414.11 658.82 1414.03L660.19 1413.47C661.1 1413.12 662.03 1412.79 662.95 1412.47C663.15 1412.4 663.8 1412.21 662.86 1412.47L663.57 1412.25C664.09 1412.09 664.63 1411.94 665.16 1411.8C666.04 1411.55 666.94 1411.34 667.83 1411.13C668.04 1411.08 668.7 1410.96 667.74 1411.13L668.46 1410.98C669 1410.88 669.54 1410.78 670.08 1410.7C670.99 1410.55 671.9 1410.42 672.81 1410.32C673.72 1410.22 674.38 1410.16 675.73 1410.09C680.123 1409.87 684.528 1410.11 688.87 1410.81C697.827 1412.28 706.476 1415.24 714.46 1419.56C722.64 1423.9 729.73 1429.7 737.08 1435.26C740.694 1438.08 744.519 1440.63 748.52 1442.87C753.25 1445.45 758.23 1447.61 763.75 1446.75C768.53 1446.01 773.19 1443.57 775.82 1439.41C776.902 1437.72 777.602 1435.82 777.874 1433.84C778.145 1431.85 777.98 1429.83 777.39 1427.92C774.71 1419.14 765.87 1414.56 757.55 1412.53C749.025 1410.41 740.203 1409.77 731.46 1410.61C722.84 1411.48 714.04 1414.19 707.04 1419.42C705.376 1420.67 703.823 1422.06 702.4 1423.58L709.13 1421.4C708.467 1421.25 707.867 1420.9 707.41 1420.4C706.791 1419.75 706.377 1418.93 706.22 1418.05C706.024 1417.19 706.167 1416.29 706.62 1415.54L706.89 1415.24C707.07 1415.04 706.53 1415.31 707.07 1415.09C706.82 1415.19 706.56 1415.36 706.3 1415.47C706.99 1415.17 705.97 1415.58 705.72 1415.63C705.392 1415.71 705.057 1415.75 704.72 1415.75C704.22 1415.75 705.15 1415.93 704.63 1415.75C704.95 1415.83 705.255 1415.97 705.53 1416.15C706.199 1416.64 706.671 1417.35 706.86 1418.15C707.108 1418.94 707.132 1419.78 706.93 1420.58C706.834 1421.01 706.669 1421.43 706.44 1421.81C706.53 1421.67 706.25 1422.03 706.27 1422.01C705.81 1422.6 706.6 1421.82 705.98 1422.26C705.58 1422.55 704.87 1423.2 704.98 1423.81C705.09 1424.42 706.09 1424.61 706.58 1424.68C708.76 1424.86 710.935 1424.28 712.73 1423.03L712.81 1423Z" fill="#A5A4A4"/>
</g>
<path d="M711.45 1421.43C712.349 1420.83 713.09 1420.02 713.612 1419.07C714.134 1418.12 714.421 1417.06 714.45 1415.98C714.489 1415.04 714.282 1414.1 713.851 1413.26C713.42 1412.42 712.779 1411.7 711.99 1411.18C709.57 1409.68 706.39 1409.89 703.75 1410.58C701.11 1411.27 698.14 1412.65 696.75 1415.19C696.283 1416.07 696.066 1417.06 696.123 1418.06C696.179 1419.06 696.507 1420.02 697.07 1420.84C697.739 1421.85 698.663 1422.68 699.749 1423.22C700.836 1423.76 702.047 1424.01 703.26 1423.94C704.955 1423.89 706.607 1423.4 708.05 1422.51C708.689 1422.05 709.279 1421.52 709.81 1420.94C710.52 1420.22 711.279 1419.55 712.08 1418.94C713.666 1417.69 715.395 1416.63 717.23 1415.79C717.38 1415.71 717.96 1415.47 717.23 1415.79L717.89 1415.5L719.4 1414.91C719.66 1414.81 721.23 1414.31 720.15 1414.63C720.73 1414.46 721.31 1414.28 721.89 1414.13C722.47 1413.98 722.96 1413.85 723.49 1413.73C723.75 1413.67 724.58 1413.52 723.58 1413.73L724.3 1413.59C725.46 1413.37 726.62 1413.2 727.79 1413.07C727.9 1413.07 728.68 1412.97 728.17 1413.07H728.75L730.25 1412.98C731.5 1412.91 732.75 1412.88 734.01 1412.89H735.51H735.69L736.63 1412.94C737.82 1413.01 739.01 1413.11 740.19 1413.24C749.34 1414.24 760.46 1416.49 765.66 1424.96C768.06 1428.87 768.83 1433.6 766.73 1437.8C766.288 1438.66 765.73 1439.46 765.07 1440.17C764.864 1440.41 764.637 1440.63 764.39 1440.83L763.84 1441.24C763.48 1441.48 763.46 1441.5 763.78 1441.24L763.48 1441.4L763.18 1441.55C763.6 1441.36 763.67 1441.33 763.38 1441.44C762.8 1441.69 764.23 1441.23 764.21 1441.24C764.02 1441.24 763.43 1441.31 764.26 1441.24C764.34 1441.24 763.61 1441.24 763.84 1441.24C762.498 1441.1 761.184 1440.76 759.94 1440.24C750.12 1436.42 742.15 1428.9 733.78 1422.73C716.31 1409.83 694.95 1402.33 673.11 1404.73C654.38 1406.82 635.63 1416.96 625.9 1433.44C624.791 1435.32 623.819 1437.28 622.99 1439.3C622.6 1440.23 623.92 1440.62 624.55 1440.66C634.85 1441.4 644.75 1438.53 654.43 1435.37C663.39 1432.43 672.253 1429.21 681.02 1425.7C685.327 1423.98 689.603 1422.19 693.85 1420.32C696.23 1419.27 698.61 1418.2 700.97 1417.12C701.26 1416.99 701.55 1416.84 701.84 1416.72C701.66 1416.79 701.62 1416.95 701.84 1416.72C702.06 1416.49 701.98 1416.72 701.75 1416.72L700.26 1416.86C700.4 1417.03 700.91 1417.22 701.11 1417.39C701.478 1417.72 701.813 1418.08 702.11 1418.47C704.5 1421.55 706.11 1425.55 707.55 1429.16C709.03 1432.98 710.139 1436.94 710.86 1440.97C712.508 1450.06 712.112 1459.41 709.7 1468.33L718.36 1466.49L717.43 1440.68C717.29 1436.77 717.28 1432.83 716.93 1428.93C716.8 1425.68 715.847 1422.51 714.16 1419.72C713.106 1418.07 711.574 1416.78 709.767 1416.02C707.961 1415.26 705.966 1415.07 704.05 1415.48C701.297 1415.84 698.76 1417.16 696.89 1419.21C695.73 1420.77 694.741 1422.44 693.94 1424.21C692.19 1427.75 690.86 1431.49 689.33 1435.13C687.904 1438.56 686.267 1441.9 684.43 1445.13C680.273 1452.34 675.126 1458.92 669.14 1464.7C667.67 1466.12 670.4 1466.7 671.32 1466.62C673.447 1466.59 675.495 1465.81 677.1 1464.41C682.05 1459.62 686.438 1454.28 690.18 1448.5C693.951 1442.52 697.13 1436.18 699.67 1429.58C700.898 1426.14 702.448 1422.83 704.3 1419.69C704.585 1419.35 704.845 1418.99 705.08 1418.61C704.84 1419.2 702.61 1419.87 702 1419.41C701.75 1419.22 702.72 1419.66 702.64 1419.63C703.988 1420.29 705.109 1421.33 705.86 1422.63C707.312 1425.27 708.127 1428.21 708.24 1431.22C708.56 1434.79 708.58 1438.4 708.7 1441.98L709.7 1468.78C709.7 1469.38 710.95 1469.61 711.29 1469.65C712.168 1469.73 713.054 1469.66 713.91 1469.45C715.2 1469.18 717.91 1468.45 718.36 1466.95C722.813 1450.5 720.577 1432.96 712.14 1418.16C711.14 1416.54 710.2 1414.66 708.53 1413.67C705.75 1412.01 702.17 1412.76 699.29 1413.77C696.82 1414.63 695.02 1415.66 692.83 1416.63C690.64 1417.6 688.29 1418.63 686.01 1419.63C677.11 1423.42 668.087 1426.9 658.94 1430.08C653.65 1431.92 649.73 1433.29 644.37 1434.75C643.07 1435.11 641.76 1435.44 640.44 1435.75L640.21 1435.8L639.05 1436.02C638.43 1436.13 637.8 1436.23 637.18 1436.32C636.061 1436.5 634.932 1436.61 633.8 1436.65C632.544 1436.73 631.286 1436.73 630.03 1436.65L631.59 1438.01C634.523 1431.06 639.088 1424.91 644.9 1420.1C646.406 1418.86 647.975 1417.7 649.6 1416.62C650 1416.35 650.41 1416.08 650.83 1415.83L650.96 1415.75L651.59 1415.38C652.43 1414.89 653.29 1414.38 654.16 1413.96C655.03 1413.54 655.91 1413.08 656.8 1412.67C656 1413.03 657.31 1412.46 657.49 1412.38L658.86 1411.83C659.77 1411.47 660.7 1411.14 661.62 1410.83C661.82 1410.76 662.47 1410.58 661.53 1410.83L662.24 1410.61L663.83 1410.15C664.71 1409.91 665.61 1409.69 666.5 1409.48C666.71 1409.48 667.37 1409.32 666.41 1409.48L667.13 1409.34C667.67 1409.23 668.21 1409.14 668.75 1409.05C669.66 1408.9 670.57 1408.78 671.48 1408.67C672.39 1408.56 673.05 1408.52 674.4 1408.45C678.793 1408.22 683.198 1408.46 687.54 1409.17C696.493 1410.67 705.132 1413.65 713.1 1418C721.27 1422.34 728.37 1428.15 735.72 1433.71C739.337 1436.53 743.161 1439.07 747.16 1441.32C751.89 1443.89 756.87 1446.06 762.39 1445.2C767.17 1444.45 771.82 1442.02 774.46 1437.86C775.541 1436.17 776.241 1434.27 776.512 1432.29C776.784 1430.3 776.619 1428.28 776.03 1426.37C773.35 1417.59 764.51 1413 756.19 1410.97C747.665 1408.85 738.843 1408.21 730.1 1409.05C721.48 1409.92 712.68 1412.63 705.68 1417.86C704.005 1419.1 702.439 1420.49 701 1422L707.74 1419.82C707.074 1419.67 706.469 1419.32 706.01 1418.82C705.398 1418.17 704.988 1417.36 704.83 1416.48C704.633 1415.62 704.777 1414.72 705.23 1413.96C705.326 1413.87 705.416 1413.77 705.5 1413.66C705.68 1413.46 705.14 1413.73 705.68 1413.51C705.42 1413.62 705.17 1413.78 704.91 1413.9C705.6 1413.59 704.58 1414 704.33 1414.06C704 1414.13 703.666 1414.17 703.33 1414.18C702.83 1414.18 703.76 1414.35 703.24 1414.18C703.561 1414.27 703.865 1414.4 704.14 1414.59C704.811 1415.07 705.284 1415.78 705.47 1416.59C705.718 1417.38 705.742 1418.22 705.54 1419.02C705.44 1419.45 705.275 1419.87 705.05 1420.25C705.14 1420.11 704.86 1420.47 704.88 1420.44C704.42 1421.03 705.21 1420.25 704.59 1420.7C704.19 1420.99 703.48 1421.64 703.64 1422.25C703.8 1422.86 704.75 1423.05 705.24 1423.11C707.42 1423.3 709.598 1422.72 711.39 1421.46L711.45 1421.43Z" fill="url(#paint1_linear_1_23909)"/>
<defs>
<linearGradient id="paint0_linear_1_23909" x1="900.82" y1="1435.48" x2="1049.55" y2="1435.48" gradientUnits="userSpaceOnUse">
<stop stop-color="#D6D0C7"/>
<stop offset="0.26" stop-color="#DEDCD4"/>
<stop offset="0.67" stop-color="#E8EAE4"/>
<stop offset="1" stop-color="#ECEFEA"/>
</linearGradient>
<linearGradient id="paint1_linear_1_23909" x1="625.08" y1="1437.1" x2="773.81" y2="1437.1" gradientUnits="userSpaceOnUse">
<stop stop-color="#D6D0C7"/>
<stop offset="0.26" stop-color="#DEDCD4"/>
<stop offset="0.67" stop-color="#E8EAE4"/>
<stop offset="1" stop-color="#ECEFEA"/>
</linearGradient>
</defs>
</svg>
