<svg width="1660" height="1660" viewBox="0 0 1660 1660" fill="none" xmlns="http://www.w3.org/2000/svg">
<path d="M878.74 1404.18C885.86 1384.52 906.19 1360.01 933.67 1358.54C968.54 1356.68 990.74 1393.21 992.07 1395.47C1002.93 1413.96 995.35 1420.68 1007.53 1445.29C1017.21 1464.83 1024.06 1464.76 1039.43 1489.03C1055.43 1514.3 1063.43 1526.94 1059.92 1538.9C1050.84 1569.9 972.59 1570.07 940.54 1560.38C933.36 1558.2 920.3 1554.07 912.2 1542.38C906.73 1534.47 909.2 1531.38 904.47 1524.38C892.97 1507.38 870.88 1514.58 863.62 1501.86C858.43 1492.76 867.44 1485.03 873.55 1459.97C881 1429.15 871.65 1423.75 878.74 1404.18Z" fill="url(#paint0_linear_1_24209)" stroke="#010101" stroke-width="4" stroke-miterlimit="10"/>
<path d="M861.82 1502.29C859.52 1502.85 857.66 1509.37 860.05 1536.76C860.197 1538.47 860.741 1540.12 861.641 1541.58C862.54 1543.05 863.77 1544.28 865.23 1545.18C874.493 1550.82 884.895 1554.32 895.68 1555.44C898.334 1555.71 900.994 1555 903.162 1553.45C905.329 1551.89 906.854 1549.6 907.45 1547C908.96 1540.29 909.55 1531.17 904.45 1524.3C899.8 1518.03 890.45 1513.73 883.88 1512.02C879.48 1510.88 875.88 1510.77 870.57 1507.89C864.89 1504.79 863.5 1501.88 861.82 1502.29Z" fill="#B5A187" stroke="#010101" stroke-width="4" stroke-miterlimit="10"/>
<path d="M910.26 1539.13C906.26 1538.74 901.92 1553.3 901.02 1556.34C896.87 1570.28 894.35 1578.74 898.17 1584.34C901.17 1588.74 907.82 1590.89 947.29 1586.2C983.92 1581.86 978.36 1580.75 996.29 1579.6C1020.29 1578.07 1047.8 1581.34 1047.8 1581.34C1054.7 1582.5 1062.92 1584.34 1068.34 1579.6C1074.09 1574.6 1073.41 1565.18 1073.08 1560.6C1072.29 1549.65 1066.57 1537.14 1061.37 1537.41C1058.3 1537.57 1056.87 1542.1 1054.64 1545.8C1044.22 1563.12 1015.01 1564.7 991.51 1565.96C971.51 1567.04 958.24 1564.37 946.01 1561.82C922.4 1556.88 916.22 1549.95 913.84 1545.05C912.29 1541.86 912.22 1539.32 910.26 1539.13Z" fill="#C8BAA2" stroke="#010101" stroke-width="4" stroke-miterlimit="10"/>
<path d="M873 1461.91C876.73 1463.41 883.19 1466 887.18 1470.65C896.79 1481.86 895.84 1498.29 899.43 1498.35C901.57 1498.35 902.43 1492.56 906.13 1492.23C908.76 1492 910.94 1494.66 911.13 1494.86C916.13 1501.14 907.77 1512.28 911.42 1515.86C913.76 1518.14 919.07 1515.43 923.67 1514.11C937.27 1510.21 945.36 1518.28 963.67 1523.44C969.46 1525.08 1008.1 1536.01 1023.73 1519.94C1027.73 1515.88 1030.87 1509.38 1038.31 1507.94C1042.9 1507.08 1049.81 1509.09 1052.7 1510.52" stroke="#010101" stroke-width="4" stroke-miterlimit="10"/>
<path d="M891.36 1412.32C890.12 1416.53 889.03 1422.72 892.22 1427.22C895.28 1431.55 899.37 1430.22 902.53 1434.1C907.95 1440.81 899.47 1449.17 903.97 1458.74C907.66 1466.61 915.14 1464.74 918.87 1473.07C922.39 1481.01 917.19 1486.15 920.3 1491.98C924.11 1499.12 935.96 1499.36 946.66 1499.72C963.24 1500.27 963.11 1496.38 978.47 1496.56C994.3 1496.76 1000.11 1500.96 1012.85 1497.14C1016.27 1496.14 1024.22 1493.72 1024.85 1489.14C1025.61 1483.85 1016.04 1480.82 1014.53 1471.95C1013.77 1467.46 1015.39 1463.36 1017.03 1460.43" stroke="#010101" stroke-width="4" stroke-miterlimit="10"/>
<path d="M911 1395.54C909.24 1400.16 907.43 1407.01 910.71 1411.54C914.65 1416.95 922.23 1413.91 926.13 1418.96C931.52 1425.96 920.48 1436.17 925.28 1446.09C929.46 1454.76 940.49 1452.34 943.55 1461.23C945.9 1468.04 940.34 1472.15 943.55 1478.65C945.99 1483.57 951.36 1485.65 955.95 1487.35C961.53 1489.47 966.01 1489.51 973.56 1489.58C980.84 1489.64 984.56 1489.58 988.96 1487.79C990.56 1487.11 999.16 1483.49 999.24 1478.36C999.31 1473.53 991.75 1472.91 990.1 1466.65C988.24 1459.6 996.78 1456.29 996.1 1448.09C995.37 1439.37 985.33 1438.74 983.82 1428.96C982.56 1420.8 988.97 1417.6 986.39 1410.96C984.25 1405.47 979.06 1405.62 976.11 1399.53C973.76 1394.7 974.54 1389.45 975.54 1385.83" stroke="#010101" stroke-width="4" stroke-miterlimit="10"/>
<path d="M957.68 1504.08L965.88 1503.45C967.342 1503.34 968.796 1503.75 969.982 1504.61C971.168 1505.48 972.007 1506.73 972.35 1508.16L975.52 1521.4" stroke="#010101" stroke-width="4" stroke-miterlimit="10"/>
<path d="M1006.78 1519.81C1003.72 1516.13 1000.66 1512.46 997.59 1508.81C997.186 1508.33 996.926 1507.74 996.84 1507.12C996.753 1506.5 996.844 1505.86 997.102 1505.29C997.36 1504.71 997.774 1504.22 998.297 1503.87C998.82 1503.52 999.431 1503.33 1000.06 1503.31L1009.36 1503.03" stroke="#010101" stroke-width="4" stroke-miterlimit="10"/>
<path d="M946.08 1418.13C951.085 1430.57 954.255 1443.66 955.49 1457.01" stroke="#010101" stroke-width="4" stroke-miterlimit="10"/>
<path d="M964.38 1415.52C968.798 1427.15 971.842 1439.26 973.45 1451.6" stroke="#010101" stroke-width="4" stroke-miterlimit="10"/>
<path d="M954.09 1483.69C964.27 1474.83 976.887 1469.26 990.29 1467.69C994.167 1467.25 998.075 1467.15 1001.97 1467.37C1002.77 1467.37 1003.53 1467.05 1004.09 1466.49C1004.65 1465.93 1004.97 1465.17 1004.97 1464.37C1004.97 1463.57 1004.65 1462.81 1004.09 1462.25C1003.53 1461.69 1002.77 1461.37 1001.97 1461.37C982.896 1460.32 964.174 1466.81 949.85 1479.45C949.288 1480.01 948.973 1480.77 948.973 1481.57C948.973 1482.37 949.288 1483.13 949.85 1483.69C950.42 1484.24 951.18 1484.54 951.97 1484.54C952.76 1484.54 953.52 1484.24 954.09 1483.69V1483.69Z" fill="#B59C86"/>
<path d="M949.67 1465C953.98 1460 960.39 1457.81 966.48 1455.69C973.76 1453.16 981.19 1449.77 989.02 1449.61C992.866 1449.42 996.684 1450.35 1000.02 1452.27C1003.33 1454.27 1006.35 1449.09 1003.02 1447.09C995.72 1442.67 986.8 1443.09 978.83 1445.18C974.58 1446.32 970.49 1447.93 966.34 1449.39C962.76 1450.65 959.15 1451.87 955.68 1453.39C951.761 1455.05 948.252 1457.55 945.4 1460.71C944.859 1461.28 944.558 1462.04 944.558 1462.83C944.558 1463.62 944.859 1464.38 945.4 1464.95C945.679 1465.23 946.01 1465.45 946.375 1465.6C946.739 1465.75 947.13 1465.83 947.525 1465.83C947.92 1465.83 948.311 1465.75 948.676 1465.6C949.04 1465.45 949.371 1465.23 949.65 1464.95L949.67 1465Z" fill="#B59C86"/>
<path d="M932.6 1450C946.062 1440.79 961.319 1434.53 977.37 1431.63C982.13 1430.78 987.13 1430.15 991.97 1430.81C992.735 1430.99 993.542 1430.88 994.226 1430.49C994.911 1430.1 995.423 1429.47 995.66 1428.72C996.04 1427.32 995.18 1425.25 993.56 1425.03C984.4 1423.77 975 1425.62 966.15 1428.03C957.78 1430.29 949.677 1433.44 941.98 1437.43C937.694 1439.64 933.55 1442.12 929.57 1444.84C928.897 1445.26 928.409 1445.91 928.208 1446.68C928.007 1447.44 928.108 1448.26 928.49 1448.95C928.688 1449.29 928.952 1449.59 929.266 1449.83C929.581 1450.07 929.939 1450.24 930.321 1450.34C930.703 1450.44 931.1 1450.47 931.492 1450.41C931.883 1450.36 932.259 1450.23 932.6 1450.03V1450Z" fill="#B59C86"/>
<path d="M930.93 1429.55C942.83 1417.67 960.87 1416.23 976.72 1415C981.28 1414.65 985.85 1414.5 990.15 1416.26C991.65 1416.88 993.45 1415.6 993.84 1414.17C994.033 1413.4 993.924 1412.59 993.535 1411.91C993.145 1411.22 992.506 1410.71 991.75 1410.48C987.57 1408.77 982.94 1408.61 978.48 1408.88C974.02 1409.15 969.3 1409.6 964.73 1410.13C955.65 1411.19 946.65 1412.95 938.39 1417.01C934.064 1419.12 930.112 1421.92 926.69 1425.3C923.95 1428.04 928.19 1432.3 930.93 1429.55V1429.55Z" fill="#B59C86"/>
<path d="M915.91 1414.56C921.8 1408.16 929.69 1404.28 937.91 1401.79C947.455 1399.02 957.279 1397.31 967.2 1396.71C969.969 1396.45 972.75 1396.36 975.53 1396.43C977.53 1396.53 979.84 1396.87 981.46 1398.13C982.035 1398.67 982.793 1398.97 983.58 1398.97C984.368 1398.97 985.126 1398.67 985.7 1398.13C986.7 1397.13 986.99 1394.88 985.7 1393.89C981.42 1390.57 976.29 1390.23 971.05 1390.48C965.163 1390.78 959.296 1391.37 953.47 1392.27C943.58 1393.78 933.64 1396.06 924.67 1400.62C919.797 1403.06 915.396 1406.34 911.67 1410.32C911.108 1410.88 910.793 1411.65 910.793 1412.44C910.794 1413.24 911.112 1414 911.675 1414.56C912.239 1415.13 913.003 1415.44 913.799 1415.44C914.595 1415.44 915.358 1415.12 915.92 1414.56H915.91Z" fill="#B59C86"/>
<path d="M1012.57 1479.1C992.334 1474.75 971.485 1474.04 951 1477C945.245 1477.83 939.538 1478.96 933.9 1480.38C930.16 1481.32 931.74 1487.1 935.49 1486.16C954.787 1481.34 974.788 1479.98 994.56 1482.16C1000.07 1482.77 1005.55 1483.67 1010.97 1484.85C1011.74 1485.06 1012.56 1484.96 1013.25 1484.56C1013.94 1484.17 1014.45 1483.52 1014.66 1482.75C1014.87 1481.98 1014.77 1481.16 1014.37 1480.47C1013.98 1479.78 1013.33 1479.27 1012.56 1479.06L1012.57 1479.1Z" fill="url(#paint1_linear_1_24209)"/>
<path d="M917.76 1454.07C925.76 1450.8 934.59 1451.18 942.99 1452.43C952.45 1453.83 961.83 1455.85 971.21 1457.7C973.93 1458.24 976.66 1458.7 979.37 1459.31C981.86 1459.84 984.28 1460.65 986.72 1461.37C990.43 1462.47 992.02 1456.68 988.32 1455.59C986.1 1454.93 983.89 1454.2 981.63 1453.67C979.19 1453.11 976.71 1452.67 974.25 1452.2C969.37 1451.2 964.49 1450.27 959.61 1449.33C950.33 1447.55 940.86 1445.45 931.36 1445.53C926.165 1445.48 921.007 1446.41 916.16 1448.28C915.407 1448.51 914.771 1449.02 914.382 1449.71C913.994 1450.4 913.882 1451.2 914.07 1451.97C914.46 1453.39 916.25 1454.68 917.76 1454.07V1454.07Z" fill="url(#paint2_linear_1_24209)"/>
<path d="M917.53 1431.36C921.961 1430.6 926.468 1430.39 930.95 1430.74C935.617 1430.95 940.253 1431.33 944.86 1431.88C953.838 1432.91 962.717 1434.66 971.41 1437.13C975.54 1438.32 979.71 1439.88 983.06 1442.66C983.634 1443.2 984.395 1443.51 985.185 1443.51C985.976 1443.51 986.736 1443.2 987.31 1442.66C987.872 1442.1 988.187 1441.34 988.187 1440.54C988.187 1439.75 987.872 1438.98 987.31 1438.42C980.31 1432.58 971.02 1430.58 962.31 1428.73C952.62 1426.69 942.788 1425.38 932.9 1424.84C927.246 1424.36 921.552 1424.6 915.96 1425.57C915.194 1425.78 914.543 1426.29 914.151 1426.98C913.759 1427.67 913.658 1428.49 913.87 1429.26C914.096 1430.02 914.606 1430.66 915.294 1431.05C915.981 1431.44 916.793 1431.55 917.56 1431.36H917.53Z" fill="url(#paint3_linear_1_24209)"/>
<path d="M902.32 1420.21C910.87 1415.02 921.27 1413.56 931.11 1413.21C941.834 1412.97 952.555 1413.81 963.11 1415.72C969.2 1416.72 975.27 1417.92 981.33 1419.11C982.096 1419.3 982.907 1419.19 983.594 1418.8C984.281 1418.42 984.792 1417.78 985.02 1417.02C985.232 1416.25 985.131 1415.43 984.739 1414.74C984.347 1414.05 983.696 1413.54 982.93 1413.33C960.93 1408.99 938.06 1404.53 915.69 1408.95C909.893 1410.01 904.326 1412.07 899.24 1415.05C895.94 1417.05 898.95 1422.25 902.24 1420.23L902.32 1420.21Z" fill="url(#paint4_linear_1_24209)"/>
<path d="M903.62 1399.7C910.9 1395.82 919.31 1395.27 927.4 1395.51C936.82 1395.78 946.22 1396.85 955.57 1397.98C960.18 1398.54 965.31 1398.73 969.57 1400.7C970.264 1401.07 971.075 1401.17 971.838 1400.97C972.601 1400.77 973.26 1400.29 973.68 1399.62C974.08 1398.93 974.191 1398.12 973.988 1397.35C973.786 1396.58 973.286 1395.92 972.6 1395.52C968.12 1393.46 963.34 1392.95 958.5 1392.35C953.5 1391.72 948.5 1391.14 943.5 1390.64C934.26 1389.74 924.77 1388.79 915.5 1389.99C910.295 1390.58 905.242 1392.11 900.59 1394.52C900.221 1394.7 899.893 1394.96 899.627 1395.27C899.36 1395.58 899.161 1395.95 899.042 1396.34C898.923 1396.74 898.885 1397.15 898.933 1397.56C898.98 1397.97 899.111 1398.36 899.317 1398.72C899.523 1399.07 899.8 1399.38 900.131 1399.63C900.462 1399.87 900.839 1400.04 901.24 1400.14C901.64 1400.23 902.056 1400.24 902.46 1400.16C902.864 1400.09 903.249 1399.93 903.59 1399.7H903.62Z" fill="url(#paint5_linear_1_24209)"/>
<path d="M928.05 1466.29C944.05 1467.37 959.5 1471.96 975.13 1475.23C979.61 1476.17 984.13 1477 988.64 1477.63C989.407 1477.82 990.216 1477.7 990.903 1477.32C991.59 1476.93 992.104 1476.29 992.34 1475.54C992.72 1474.13 991.85 1472.07 990.24 1471.85C974.03 1469.59 958.34 1464.69 942.24 1462C937.55 1461.21 932.83 1460.61 928.08 1460.29C927.284 1460.29 926.521 1460.61 925.959 1461.17C925.396 1461.73 925.08 1462.49 925.08 1463.29C925.095 1464.08 925.416 1464.83 925.976 1465.39C926.535 1465.95 927.289 1466.27 928.08 1466.29H928.05Z" fill="url(#paint6_linear_1_24209)"/>
<path d="M900.8 1422.27C903.368 1422.27 905.45 1420.19 905.45 1417.62C905.45 1415.05 903.368 1412.97 900.8 1412.97C898.232 1412.97 896.15 1415.05 896.15 1417.62C896.15 1420.19 898.232 1422.27 900.8 1422.27Z" fill="#B59C86"/>
<path d="M912.31 1434.08C914.878 1434.08 916.96 1432 916.96 1429.43C916.96 1426.86 914.878 1424.78 912.31 1424.78C909.742 1424.78 907.66 1426.86 907.66 1429.43C907.66 1432 909.742 1434.08 912.31 1434.08Z" fill="#B59C86"/>
<path d="M916.73 1455.87C919.298 1455.87 921.38 1453.79 921.38 1451.22C921.38 1448.65 919.298 1446.57 916.73 1446.57C914.162 1446.57 912.08 1448.65 912.08 1451.22C912.08 1453.79 914.162 1455.87 916.73 1455.87Z" fill="#B59C86"/>
<path d="M926.43 1467.78C928.998 1467.78 931.08 1465.7 931.08 1463.13C931.08 1460.56 928.998 1458.48 926.43 1458.48C923.862 1458.48 921.78 1460.56 921.78 1463.13C921.78 1465.7 923.862 1467.78 926.43 1467.78Z" fill="#B59C86"/>
<path d="M932.7 1487.49C935.268 1487.49 937.35 1485.41 937.35 1482.84C937.35 1480.27 935.268 1478.19 932.7 1478.19C930.132 1478.19 928.05 1480.27 928.05 1482.84C928.05 1485.41 930.132 1487.49 932.7 1487.49Z" fill="#B59C86"/>
<path d="M1011.78 1486.47C1014.13 1486.47 1016.04 1484.56 1016.04 1482.21C1016.04 1479.86 1014.13 1477.95 1011.78 1477.95C1009.43 1477.95 1007.52 1479.86 1007.52 1482.21C1007.52 1484.56 1009.43 1486.47 1011.78 1486.47Z" fill="#A9917E"/>
<path d="M1005.1 1469.01C1007.45 1469.01 1009.36 1467.1 1009.36 1464.75C1009.36 1462.4 1007.45 1460.49 1005.1 1460.49C1002.75 1460.49 1000.84 1462.4 1000.84 1464.75C1000.84 1467.1 1002.75 1469.01 1005.1 1469.01Z" fill="#A9917E"/>
<path d="M1001.97 1454.65C1004.32 1454.65 1006.23 1452.74 1006.23 1450.39C1006.23 1448.04 1004.32 1446.13 1001.97 1446.13C999.617 1446.13 997.71 1448.04 997.71 1450.39C997.71 1452.74 999.617 1454.65 1001.97 1454.65Z" fill="#A9917E"/>
<path d="M994.41 1431.88C996.763 1431.88 998.67 1429.97 998.67 1427.62C998.67 1425.27 996.763 1423.36 994.41 1423.36C992.057 1423.36 990.15 1425.27 990.15 1427.62C990.15 1429.97 992.057 1431.88 994.41 1431.88Z" fill="#A9917E"/>
<path d="M991.78 1418.13C994.133 1418.13 996.04 1416.22 996.04 1413.87C996.04 1411.52 994.133 1409.61 991.78 1409.61C989.427 1409.61 987.52 1411.52 987.52 1413.87C987.52 1416.22 989.427 1418.13 991.78 1418.13Z" fill="#A9917E"/>
<path d="M985.18 1400.98C987.533 1400.98 989.44 1399.07 989.44 1396.72C989.44 1394.37 987.533 1392.46 985.18 1392.46C982.827 1392.46 980.92 1394.37 980.92 1396.72C980.92 1399.07 982.827 1400.98 985.18 1400.98Z" fill="#A9917E"/>
<path d="M897.99 1405.63C900.558 1405.63 902.64 1403.55 902.64 1400.98C902.64 1398.41 900.558 1396.33 897.99 1396.33C895.422 1396.33 893.34 1398.41 893.34 1400.98C893.34 1403.55 895.422 1405.63 897.99 1405.63Z" fill="#B59C86"/>
<path d="M910.3 1365.8C915.901 1362.37 922.129 1360.08 928.62 1359.08C937.38 1357.77 946.33 1358.81 954.56 1362.08C956.513 1368.02 958.47 1373.96 960.43 1379.91C945.628 1378.49 930.692 1380.25 916.63 1385.09L910.3 1365.8Z" fill="#E2DFDE" stroke="#010101" stroke-width="4" stroke-miterlimit="10"/>
<path d="M947.86 1392.75C947.084 1391.93 946.433 1390.99 945.93 1389.98C945.78 1389.67 945.695 1389.33 945.68 1388.98C945.62 1388.08 945.62 1389.2 945.68 1388.69C945.68 1388.54 945.76 1388.39 945.81 1388.24C945.73 1388.42 945.73 1388.43 945.81 1388.24C945.89 1388.05 946.13 1387.57 945.97 1388C946.28 1387.16 946.18 1388 946.06 1387.93L945.88 1388C946.14 1387.86 946.23 1387.85 946.14 1388C946.05 1388.15 946.84 1388.29 946.65 1388.22C947.739 1388.59 948.772 1389.12 949.72 1389.77C950.421 1390.23 950.981 1390.88 951.34 1391.64C951.399 1391.84 951.436 1392.04 951.45 1392.25C951.47 1392.45 951.47 1392.66 951.45 1392.86C951.52 1392.33 951.31 1393.24 951.3 1393.26C951.45 1392.83 951.24 1393.39 951.17 1393.5C950.9 1393.93 951.63 1393.09 951.02 1393.71C950.95 1393.79 950.59 1394.03 951.02 1393.78C950.44 1394.17 950.87 1393.78 950.95 1393.78C950.22 1393.62 951.29 1394.15 950.5 1393.78C950.56 1393.78 951.04 1393.96 950.33 1393.69C950.66 1393.81 950.16 1393.61 950.14 1393.59C949.832 1393.43 949.535 1393.26 949.25 1393.06C948.31 1392.43 947.45 1391.7 946.47 1391.12C945.058 1390.32 943.494 1389.83 941.88 1389.68C938.94 1389.34 935.96 1390.04 933.07 1390.55C927.28 1391.55 921.49 1392.65 915.77 1394.01C895.77 1398.76 874.25 1408.67 865.52 1428.67C863.52 1433.12 860.68 1440.04 865.25 1443.87C867.47 1445.72 870.53 1446.11 873.33 1446.14C876.326 1446.14 879.3 1445.63 882.13 1444.65C887.552 1442.61 892.538 1439.55 896.82 1435.65C901.47 1431.65 905.82 1427.33 910.28 1423.13L924 1410.22C928.35 1406.11 932.68 1401.97 937.3 1398.22C945.62 1391.39 955.67 1385.4 966.69 1384.85C977.05 1384.34 986.69 1388.85 994.84 1394.85C998.974 1397.93 1002.84 1401.35 1006.41 1405.07C1010.06 1408.63 1013.1 1412.75 1015.41 1417.29C1016.43 1419.47 1017.13 1421.79 1017.49 1424.17L1020.38 1420.37C1017.9 1420.37 1015.77 1419.2 1013.73 1417.92C1011.41 1416.47 1009.15 1414.92 1006.8 1413.53C1002 1410.68 997.02 1408.15 991.89 1405.95C986.71 1403.74 981.43 1401.95 976.07 1400.22C971.29 1398.7 966.48 1397.15 962.12 1394.6C957.92 1392.16 954.73 1388.45 950.67 1385.81C946.35 1382.99 940.98 1382.34 936.75 1385.7C932.75 1388.87 931.43 1394.33 931.94 1399.2C932.52 1404.75 934.45 1410.05 935.03 1415.61C936.288 1427.59 934.153 1439.69 928.87 1450.52C928.487 1451.21 928.385 1452.02 928.584 1452.78C928.783 1453.55 929.269 1454.21 929.94 1454.62C930.28 1454.82 930.656 1454.95 931.047 1455.01C931.437 1455.06 931.835 1455.04 932.217 1454.94C932.599 1454.84 932.957 1454.66 933.272 1454.43C933.586 1454.19 933.851 1453.89 934.05 1453.55C941.369 1438.88 943.275 1422.1 939.43 1406.16C938.66 1403.51 938.131 1400.8 937.85 1398.05C937.643 1396.01 938.054 1393.95 939.03 1392.15C939.38 1391.41 939.905 1390.78 940.559 1390.29C941.212 1389.8 941.975 1389.48 942.78 1389.36C943.433 1389.29 944.094 1389.35 944.72 1389.55C945.648 1389.84 946.53 1390.25 947.34 1390.79C951.34 1393.26 954.34 1396.9 958.34 1399.36C962.908 1401.98 967.773 1404.04 972.83 1405.5C977.83 1407.1 982.83 1408.66 987.66 1410.65C993.275 1412.97 998.71 1415.7 1003.92 1418.83C1009 1421.83 1014.08 1426.45 1020.34 1426.37C1022.46 1426.37 1023.53 1424.48 1023.23 1422.57C1021.5 1411.57 1013.14 1402.75 1005.15 1395.57C996.96 1388.26 987.29 1381.74 976.36 1379.57C964.57 1377.25 952.86 1380.57 942.79 1386.81C932.24 1393.34 923.45 1402.44 914.48 1410.91L900.05 1424.52C895.85 1428.52 891.7 1432.63 886.8 1435.74C882.25 1438.62 876.63 1440.84 871.15 1440C870.335 1439.97 869.553 1439.68 868.93 1439.15C868.706 1438.51 868.685 1437.81 868.87 1437.15C869.365 1434.84 870.148 1432.6 871.2 1430.48C875.43 1421.57 882.8 1414.58 891.2 1409.59C901.3 1403.59 912.82 1400.59 924.2 1398.25C927.2 1397.64 930.2 1397.09 933.2 1396.55C935.85 1396.07 938.86 1395.18 941.57 1395.63C943.75 1395.99 945.23 1397.86 947.15 1398.82C949.77 1400.13 952.92 1400.13 955.1 1397.96C956.029 1397 956.709 1395.83 957.08 1394.54C957.451 1393.26 957.503 1391.91 957.23 1390.6C956.875 1389.25 956.249 1387.98 955.389 1386.88C954.529 1385.78 953.455 1384.86 952.23 1384.19C949.91 1382.75 946.69 1381.29 943.97 1382.26C942.649 1382.79 941.523 1383.72 940.742 1384.91C939.961 1386.1 939.563 1387.51 939.6 1388.93C939.6 1392.09 941.6 1394.66 943.54 1396.93C944.102 1397.49 944.865 1397.81 945.66 1397.81C946.455 1397.81 947.217 1397.49 947.78 1396.93C948.325 1396.36 948.629 1395.6 948.629 1394.81C948.629 1394.02 948.325 1393.26 947.78 1392.69L947.86 1392.75Z" fill="url(#paint7_radial_1_24209)"/>
<path d="M945.51 1391.59C945.625 1391.54 945.746 1391.5 945.87 1391.47C945.97 1391.47 946.47 1391.54 946.52 1391.55C947.475 1391.82 948.367 1392.28 949.14 1392.9C950.876 1394.38 952.433 1396.06 953.78 1397.9C956.746 1401.64 959.145 1405.8 960.9 1410.24C962.9 1415.24 964.04 1420.61 965.82 1425.73C969.297 1435.8 975.164 1444.87 982.92 1452.17C985.73 1454.82 989.98 1450.59 987.16 1447.93C979.675 1440.84 974.115 1431.97 971 1422.14C969.22 1416.56 967.85 1410.9 965.43 1405.55C963.193 1400.63 960.252 1396.07 956.7 1392C952.98 1387.71 946.77 1382.77 941.31 1387.35C940.748 1387.91 940.433 1388.68 940.433 1389.47C940.433 1390.27 940.748 1391.03 941.31 1391.59C941.883 1392.14 942.644 1392.44 943.435 1392.44C944.226 1392.44 944.987 1392.14 945.56 1391.59H945.51Z" fill="url(#paint8_radial_1_24209)"/>
<path d="M786.84 1404.18C779.72 1384.52 759.38 1360.01 731.9 1358.54C697.04 1356.68 674.83 1393.21 673.5 1395.47C662.64 1413.96 670.23 1420.68 658.04 1445.29C648.37 1464.83 641.51 1464.76 626.14 1489.03C610.14 1514.3 602.14 1526.94 605.65 1538.9C614.73 1569.9 692.98 1570.07 725.03 1560.38C732.22 1558.2 745.27 1554.07 753.38 1542.38C758.84 1534.47 756.38 1531.38 761.11 1524.38C772.6 1507.38 794.69 1514.58 801.95 1501.86C807.14 1492.76 798.14 1485.03 792.03 1459.97C784.53 1429.15 793.92 1423.75 786.84 1404.18Z" fill="url(#paint9_linear_1_24209)" stroke="#010101" stroke-width="4" stroke-miterlimit="10"/>
<path d="M803.76 1502.29C806.06 1502.85 807.92 1509.37 805.52 1536.76C805.374 1538.47 804.829 1540.12 803.929 1541.58C803.03 1543.05 801.801 1544.28 800.34 1545.18C791.077 1550.82 780.675 1554.32 769.89 1555.44C767.237 1555.71 764.576 1555 762.408 1553.45C760.241 1551.89 758.716 1549.6 758.12 1547C756.61 1540.29 756.02 1531.17 761.12 1524.3C765.76 1518.03 775.07 1513.73 781.68 1512.02C786.08 1510.88 789.68 1510.77 794.99 1507.89C800.68 1504.79 802.08 1501.88 803.76 1502.29Z" fill="#B5A187" stroke="#010101" stroke-width="4" stroke-miterlimit="10"/>
<path d="M755.31 1539.13C759.31 1538.74 763.65 1553.3 764.56 1556.34C768.71 1570.28 771.22 1578.74 767.4 1584.34C764.4 1588.74 757.75 1590.89 718.28 1586.2C681.65 1581.86 687.21 1580.75 669.28 1579.6C645.28 1578.07 617.76 1581.34 617.76 1581.34C610.86 1582.5 602.65 1584.34 597.23 1579.6C591.48 1574.6 592.16 1565.18 592.49 1560.6C593.28 1549.65 599 1537.14 604.2 1537.41C607.26 1537.57 608.7 1542.1 610.92 1545.8C621.35 1563.12 650.55 1564.7 674.05 1565.96C694.05 1567.04 707.33 1564.37 719.56 1561.82C743.17 1556.88 749.34 1549.95 751.73 1545.05C753.28 1541.86 753.35 1539.32 755.31 1539.13Z" fill="#C8BAA2" stroke="#010101" stroke-width="4" stroke-miterlimit="10"/>
<path d="M792.53 1461.91C788.8 1463.41 782.34 1466 778.35 1470.65C768.74 1481.86 769.7 1498.29 766.1 1498.35C763.96 1498.35 763.1 1492.56 759.4 1492.23C756.78 1492 754.59 1494.66 754.4 1494.86C749.4 1501.14 757.77 1512.28 754.11 1515.86C751.77 1518.14 746.47 1515.43 741.86 1514.11C728.27 1510.21 720.17 1518.28 701.92 1523.44C696.12 1525.08 657.48 1536.01 641.85 1519.94C637.9 1515.88 634.71 1509.38 627.27 1507.94C622.68 1507.08 615.78 1509.09 612.88 1510.52" stroke="#010101" stroke-width="4" stroke-miterlimit="10"/>
<path d="M774.21 1412.32C775.46 1416.53 776.54 1422.72 773.35 1427.22C770.29 1431.55 766.21 1430.22 763.04 1434.1C757.62 1440.81 766.1 1449.17 761.61 1458.74C757.91 1466.61 750.43 1464.74 746.71 1473.07C743.18 1481.01 748.39 1486.15 745.27 1491.98C741.46 1499.12 729.61 1499.36 718.91 1499.72C702.34 1500.27 702.46 1496.38 687.11 1496.56C671.27 1496.76 665.46 1500.96 652.72 1497.14C649.3 1496.14 641.35 1493.72 640.72 1489.14C639.95 1483.85 649.52 1480.82 651.03 1471.95C651.8 1467.46 650.17 1463.36 648.53 1460.43" stroke="#010101" stroke-width="4" stroke-miterlimit="10"/>
<path d="M754.59 1395.54C756.34 1400.16 758.15 1407.01 754.87 1411.54C750.93 1416.95 743.35 1413.91 739.45 1418.96C734.06 1425.96 745.1 1436.17 740.31 1446.09C736.12 1454.76 725.09 1452.34 722.03 1461.23C719.69 1468.04 725.24 1472.15 722.03 1478.65C719.6 1483.57 714.22 1485.65 709.63 1487.35C704.05 1489.47 699.57 1489.51 692.02 1489.58C684.74 1489.64 681.02 1489.58 676.62 1487.79C675.03 1487.11 666.43 1483.49 666.34 1478.36C666.27 1473.53 673.84 1472.91 675.48 1466.65C677.34 1459.6 668.8 1456.29 669.48 1448.09C670.21 1439.37 680.24 1438.74 681.76 1428.96C683.02 1420.8 676.6 1417.6 679.19 1410.96C681.32 1405.47 686.51 1405.62 689.47 1399.53C691.82 1394.7 691.04 1389.45 690.04 1385.83" stroke="#010101" stroke-width="4" stroke-miterlimit="10"/>
<path d="M707.89 1504.08L699.69 1503.45C698.228 1503.34 696.775 1503.75 695.59 1504.62C694.405 1505.48 693.565 1506.74 693.22 1508.16L690.05 1521.4" stroke="#010101" stroke-width="4" stroke-miterlimit="10"/>
<path d="M658.79 1519.81L667.98 1508.81C668.384 1508.33 668.644 1507.74 668.73 1507.12C668.817 1506.5 668.726 1505.86 668.468 1505.29C668.21 1504.71 667.796 1504.22 667.273 1503.87C666.75 1503.52 666.139 1503.33 665.51 1503.31L656.22 1503.03" stroke="#010101" stroke-width="4" stroke-miterlimit="10"/>
<path d="M719.49 1418.13C717.186 1423.87 715.265 1429.75 713.74 1435.74C711.961 1442.72 710.738 1449.83 710.08 1457.01" stroke="#010101" stroke-width="4" stroke-miterlimit="10"/>
<path d="M701.19 1415.52C696.772 1427.15 693.728 1439.26 692.12 1451.6" stroke="#010101" stroke-width="4" stroke-miterlimit="10"/>
<path d="M715.73 1479.45C704.53 1469.69 690.652 1463.52 675.9 1461.76C671.82 1461.27 667.704 1461.13 663.6 1461.37C662.809 1461.39 662.055 1461.71 661.496 1462.27C660.936 1462.82 660.615 1463.58 660.6 1464.37C660.6 1465.17 660.916 1465.93 661.479 1466.49C662.041 1467.05 662.804 1467.37 663.6 1467.37C677.186 1466.61 690.685 1469.97 702.33 1477.01C705.572 1478.96 708.634 1481.2 711.48 1483.69C712.053 1484.24 712.814 1484.54 713.605 1484.54C714.396 1484.54 715.157 1484.24 715.73 1483.69C716.292 1483.13 716.607 1482.36 716.607 1481.57C716.607 1480.77 716.292 1480.01 715.73 1479.45V1479.45Z" fill="#B59C86"/>
<path d="M720.15 1460.77C715.15 1454.95 707.71 1452.36 700.69 1449.92C692.69 1447.12 684.59 1443.62 675.93 1443.62C671.229 1443.53 666.593 1444.73 662.53 1447.1C659.23 1449.1 662.24 1454.28 665.53 1452.28C671.75 1448.51 679.31 1449.28 686 1451.28C689.93 1452.4 693.74 1453.88 697.58 1455.28C700.74 1456.39 703.95 1457.41 706.99 1458.8C710.38 1460.22 713.416 1462.37 715.88 1465.1C716.442 1465.66 717.205 1465.98 718 1465.98C718.795 1465.98 719.557 1465.66 720.12 1465.1C720.668 1464.53 720.973 1463.77 720.973 1462.98C720.973 1462.19 720.668 1461.43 720.12 1460.86L720.15 1460.77Z" fill="#B59C86"/>
<path d="M736 1444.81C721.72 1435.06 705.499 1428.51 688.45 1425.61C683.029 1424.57 677.483 1424.37 672 1425C670.4 1425.22 669.52 1427.27 669.91 1428.69C670.38 1430.42 671.99 1431 673.6 1430.78C677.862 1430.32 682.168 1430.49 686.38 1431.29C698.456 1433.26 710.141 1437.14 721 1442.78C725.141 1444.94 729.148 1447.36 733 1450C733.687 1450.4 734.505 1450.51 735.273 1450.31C736.042 1450.11 736.699 1449.61 737.1 1448.92C737.488 1448.23 737.594 1447.42 737.394 1446.65C737.195 1445.88 736.706 1445.22 736.03 1444.81H736Z" fill="#B59C86"/>
<path d="M738.88 1425.3C725.77 1412.2 706.37 1410.36 688.88 1409C683.88 1408.61 678.6 1408.54 673.88 1410.48C673.125 1410.71 672.486 1411.22 672.096 1411.91C671.705 1412.59 671.592 1413.4 671.78 1414.17C672.17 1415.59 673.96 1416.88 675.47 1416.26C679.22 1414.73 683.15 1414.64 687.14 1414.88C691.57 1415.14 696.01 1415.57 700.42 1416.07C708.54 1417 716.82 1418.56 724.21 1422.2C728.085 1424.05 731.627 1426.54 734.69 1429.55C737.43 1432.28 741.69 1428.04 738.93 1425.3H738.88Z" fill="#B59C86"/>
<path d="M753.91 1410.32C747.24 1403.08 738.18 1398.67 728.91 1395.88C718.417 1392.91 707.622 1391.14 696.73 1390.6C690.82 1390.24 684.82 1390.08 679.91 1393.89C678.63 1394.89 678.86 1397.08 679.91 1398.13C680.483 1398.67 681.242 1398.97 682.03 1398.97C682.818 1398.97 683.577 1398.67 684.15 1398.13C687.33 1395.66 692.49 1396.35 696.25 1396.57C701.519 1396.87 706.769 1397.45 711.98 1398.28C720.9 1399.73 729.98 1401.73 738.09 1405.89C742.449 1408.07 746.386 1411.01 749.72 1414.56C749.995 1414.85 750.326 1415.09 750.694 1415.26C751.062 1415.42 751.459 1415.51 751.862 1415.51C752.265 1415.52 752.665 1415.45 753.038 1415.3C753.412 1415.15 753.751 1414.92 754.036 1414.64C754.321 1414.35 754.546 1414.01 754.697 1413.64C754.847 1413.26 754.922 1412.86 754.914 1412.46C754.907 1412.06 754.819 1411.66 754.655 1411.29C754.491 1410.93 754.255 1410.59 753.96 1410.32H753.91Z" fill="#B59C86"/>
<path d="M654.59 1484.89C673.931 1480.72 693.861 1480.05 713.44 1482.89C719.027 1483.71 724.57 1484.81 730.07 1486.19C733.81 1487.13 735.41 1481.35 731.66 1480.41C711.694 1475.39 690.991 1473.99 670.53 1476.26C664.637 1476.93 658.793 1477.88 653 1479.11C652.62 1479.21 652.264 1479.39 651.953 1479.63C651.641 1479.88 651.381 1480.18 651.186 1480.52C650.991 1480.86 650.865 1481.24 650.816 1481.63C650.767 1482.02 650.796 1482.42 650.9 1482.8C651.005 1483.18 651.183 1483.54 651.425 1483.85C651.667 1484.16 651.968 1484.42 652.31 1484.61C652.653 1484.81 653.031 1484.93 653.422 1484.98C653.813 1485.03 654.21 1485 654.59 1484.9V1484.89Z" fill="url(#paint10_linear_1_24209)"/>
<path d="M750.13 1449C741.55 1445 732.13 1445.14 722.99 1446.58C713.32 1448.1 703.76 1450.58 694.22 1452.72C691.54 1453.34 688.86 1453.93 686.22 1454.56C683.62 1455.25 681.057 1456.06 678.54 1457.01C677.784 1457.24 677.145 1457.75 676.755 1458.44C676.366 1459.12 676.257 1459.93 676.45 1460.7C676.554 1461.08 676.732 1461.44 676.974 1461.75C677.216 1462.06 677.517 1462.32 677.86 1462.52C678.202 1462.71 678.58 1462.84 678.971 1462.88C679.363 1462.93 679.76 1462.9 680.14 1462.8C682.25 1462.07 684.33 1461.27 686.48 1460.68C688.63 1460.09 690.99 1459.62 693.25 1459.1C697.96 1458.03 702.67 1456.95 707.39 1455.89C716.06 1453.95 724.91 1451.62 733.85 1451.58C738.415 1451.45 742.951 1452.34 747.13 1454.18C747.821 1454.56 748.633 1454.66 749.396 1454.46C750.16 1454.26 750.817 1453.77 751.23 1453.1C751.631 1452.41 751.743 1451.6 751.543 1450.83C751.342 1450.06 750.845 1449.4 750.16 1449H750.13Z" fill="url(#paint11_linear_1_24209)"/>
<path d="M749.64 1425.57C744.766 1424.69 739.802 1424.4 734.86 1424.73C729.973 1424.94 725.1 1425.35 720.24 1425.94C710.606 1427 701.081 1428.89 691.77 1431.58C686.854 1432.92 682.262 1435.25 678.27 1438.42C677.708 1438.98 677.393 1439.74 677.393 1440.54C677.393 1441.34 677.708 1442.1 678.27 1442.66C678.84 1443.21 679.6 1443.51 680.39 1443.51C681.18 1443.51 681.94 1443.21 682.51 1442.66C685.506 1440.34 688.922 1438.63 692.57 1437.61C696.777 1436.33 701.045 1435.27 705.36 1434.42C714.37 1432.54 723.509 1431.34 732.7 1430.84C737.8 1430.56 743.01 1430.33 748.04 1431.36C748.807 1431.55 749.618 1431.44 750.305 1431.05C750.991 1430.66 751.502 1430.02 751.73 1429.26C751.942 1428.49 751.841 1427.67 751.449 1426.98C751.057 1426.29 750.406 1425.78 749.64 1425.57V1425.57Z" fill="url(#paint12_linear_1_24209)"/>
<path d="M766.28 1415C757.03 1409.38 745.84 1407.67 735.19 1407.19C723.84 1406.68 712.49 1407.97 701.3 1409.8C695.04 1410.8 688.82 1412.05 682.59 1413.28C681.824 1413.49 681.173 1414 680.781 1414.69C680.389 1415.38 680.288 1416.2 680.5 1416.97C680.724 1417.73 681.234 1418.37 681.922 1418.76C682.611 1419.15 683.424 1419.26 684.19 1419.06C704.93 1414.97 726.69 1410.56 747.8 1414.6C753.245 1415.52 758.481 1417.41 763.26 1420.18C766.57 1422.18 769.58 1417.01 766.26 1415H766.28Z" fill="url(#paint13_linear_1_24209)"/>
<path d="M765 1394.52C756.89 1390.2 747.66 1389.26 738.61 1389.52C728.72 1389.78 718.84 1390.93 709.03 1392.13C703.57 1392.8 698.03 1393.22 692.96 1395.55C692.275 1395.95 691.778 1396.61 691.577 1397.38C691.377 1398.15 691.489 1398.96 691.89 1399.65C692.303 1400.32 692.96 1400.81 693.724 1401.01C694.487 1401.21 695.299 1401.11 695.99 1400.73C699.71 1399.02 703.99 1398.73 708.05 1398.25C712.88 1397.66 717.73 1397.1 722.58 1396.63C731.38 1395.78 740.41 1394.88 749.23 1395.91C753.685 1396.37 758.016 1397.66 762 1399.7C762.691 1400.08 763.503 1400.19 764.267 1399.99C765.032 1399.78 765.688 1399.29 766.1 1398.62C766.501 1397.93 766.613 1397.12 766.413 1396.35C766.212 1395.58 765.715 1394.92 765.03 1394.52H765Z" fill="url(#paint14_linear_1_24209)"/>
<path d="M737.52 1460.29C719.58 1461.72 702.52 1467.62 685.17 1471.95C680.27 1473.16 675.34 1474.25 670.36 1475.06C669.594 1475.27 668.943 1475.78 668.551 1476.47C668.159 1477.16 668.058 1477.98 668.27 1478.75C668.496 1479.51 669.006 1480.15 669.693 1480.54C670.381 1480.93 671.193 1481.04 671.96 1480.85C689.34 1477.99 705.96 1471.85 723.2 1468.37C727.927 1467.39 732.709 1466.69 737.52 1466.29C738.309 1466.27 739.061 1465.95 739.619 1465.39C740.177 1464.83 740.5 1464.08 740.52 1463.29C740.52 1462.49 740.204 1461.73 739.641 1461.17C739.079 1460.61 738.316 1460.29 737.52 1460.29V1460.29Z" fill="url(#paint15_linear_1_24209)"/>
<path d="M764.77 1422.27C767.338 1422.27 769.42 1420.19 769.42 1417.62C769.42 1415.05 767.338 1412.97 764.77 1412.97C762.202 1412.97 760.12 1415.05 760.12 1417.62C760.12 1420.19 762.202 1422.27 764.77 1422.27Z" fill="#B59C86"/>
<path d="M753.26 1434.08C755.828 1434.08 757.91 1432 757.91 1429.43C757.91 1426.86 755.828 1424.78 753.26 1424.78C750.692 1424.78 748.61 1426.86 748.61 1429.43C748.61 1432 750.692 1434.08 753.26 1434.08Z" fill="#B59C86"/>
<path d="M748.84 1455.87C751.408 1455.87 753.49 1453.79 753.49 1451.22C753.49 1448.65 751.408 1446.57 748.84 1446.57C746.272 1446.57 744.19 1448.65 744.19 1451.22C744.19 1453.79 746.272 1455.87 748.84 1455.87Z" fill="#B59C86"/>
<path d="M739.14 1467.78C741.708 1467.78 743.79 1465.7 743.79 1463.13C743.79 1460.56 741.708 1458.48 739.14 1458.48C736.572 1458.48 734.49 1460.56 734.49 1463.13C734.49 1465.7 736.572 1467.78 739.14 1467.78Z" fill="#B59C86"/>
<path d="M732.87 1487.49C735.438 1487.49 737.52 1485.41 737.52 1482.84C737.52 1480.27 735.438 1478.19 732.87 1478.19C730.302 1478.19 728.22 1480.27 728.22 1482.84C728.22 1485.41 730.302 1487.49 732.87 1487.49Z" fill="#B59C86"/>
<path d="M653.8 1486.47C656.153 1486.47 658.06 1484.56 658.06 1482.21C658.06 1479.86 656.153 1477.95 653.8 1477.95C651.447 1477.95 649.54 1479.86 649.54 1482.21C649.54 1484.56 651.447 1486.47 653.8 1486.47Z" fill="#A9917E"/>
<path d="M660.47 1469.01C662.823 1469.01 664.73 1467.1 664.73 1464.75C664.73 1462.4 662.823 1460.49 660.47 1460.49C658.117 1460.49 656.21 1462.4 656.21 1464.75C656.21 1467.1 658.117 1469.01 660.47 1469.01Z" fill="#A9917E"/>
<path d="M663.6 1454.65C665.953 1454.65 667.86 1452.74 667.86 1450.39C667.86 1448.04 665.953 1446.13 663.6 1446.13C661.247 1446.13 659.34 1448.04 659.34 1450.39C659.34 1452.74 661.247 1454.65 663.6 1454.65Z" fill="#A9917E"/>
<path d="M671.16 1431.88C673.513 1431.88 675.42 1429.97 675.42 1427.62C675.42 1425.27 673.513 1423.36 671.16 1423.36C668.807 1423.36 666.9 1425.27 666.9 1427.62C666.9 1429.97 668.807 1431.88 671.16 1431.88Z" fill="#A9917E"/>
<path d="M673.79 1418.13C676.143 1418.13 678.05 1416.22 678.05 1413.87C678.05 1411.52 676.143 1409.61 673.79 1409.61C671.437 1409.61 669.53 1411.52 669.53 1413.87C669.53 1416.22 671.437 1418.13 673.79 1418.13Z" fill="#A9917E"/>
<path d="M680.39 1400.98C682.743 1400.98 684.65 1399.07 684.65 1396.72C684.65 1394.37 682.743 1392.46 680.39 1392.46C678.037 1392.46 676.13 1394.37 676.13 1396.72C676.13 1399.07 678.037 1400.98 680.39 1400.98Z" fill="#A9917E"/>
<path d="M767.58 1405.63C770.148 1405.63 772.23 1403.55 772.23 1400.98C772.23 1398.41 770.148 1396.33 767.58 1396.33C765.012 1396.33 762.93 1398.41 762.93 1400.98C762.93 1403.55 765.012 1405.63 767.58 1405.63Z" fill="#B59C86"/>
<path d="M755.28 1365.8C748.706 1361.76 741.278 1359.31 733.59 1358.65C725.902 1357.99 718.166 1359.14 711 1362C709.04 1367.94 707.083 1373.88 705.13 1379.83C719.932 1378.41 734.868 1380.17 748.93 1385.01L755.28 1365.8Z" fill="#E2DFDE" stroke="#010101" stroke-width="4" stroke-miterlimit="10"/>
<path d="M722 1397C723.93 1394.7 725.92 1392.14 725.93 1389C725.968 1387.58 725.571 1386.18 724.792 1384.98C724.013 1383.79 722.889 1382.87 721.57 1382.33C718.8 1381.33 715.47 1382.87 713.14 1384.33C710.81 1385.79 708.76 1388.02 708.27 1390.79C708.018 1392.1 708.094 1393.45 708.49 1394.73C708.886 1396 709.59 1397.16 710.54 1398.1C712.8 1400.19 715.91 1400.16 718.54 1398.79C720.54 1397.79 722.03 1395.86 724.39 1395.63C727.16 1395.36 730.07 1396.18 732.78 1396.63C753.78 1400.41 777.69 1405.63 790.78 1424.22C793.51 1428.1 796.03 1432.63 796.78 1437.34C796.931 1437.93 796.9 1438.55 796.69 1439.12C796.069 1439.64 795.291 1439.94 794.48 1439.97C791.752 1440.31 788.982 1440.06 786.36 1439.23C780.93 1437.64 776.27 1434.23 772.08 1430.53C767.32 1426.33 762.79 1421.87 758.18 1417.53L743.75 1404C739.33 1399.83 734.87 1395.68 730.06 1392C720.62 1384.68 709.41 1378.83 697.2 1378.82C686.09 1378.82 675.64 1383.73 666.92 1390.29C662.449 1393.66 658.258 1397.38 654.39 1401.43C650.502 1405.28 647.275 1409.74 644.84 1414.64C643.638 1417.16 642.793 1419.83 642.33 1422.58C642.03 1424.49 643.1 1426.35 645.22 1426.38C650.87 1426.45 655.35 1422.71 659.9 1419.9C664.583 1417 669.45 1414.41 674.47 1412.14C679.242 1410.03 684.134 1408.19 689.12 1406.65C694.212 1405.18 699.186 1403.32 704 1401.1C708.5 1398.88 712 1395.66 715.87 1392.5C717.304 1391.22 718.957 1390.2 720.75 1389.5C721.439 1389.28 722.169 1389.21 722.887 1389.31C723.605 1389.4 724.293 1389.65 724.9 1390.05C726.362 1391.23 727.329 1392.91 727.61 1394.77C727.943 1397.17 727.797 1399.62 727.18 1401.97C726 1407.35 724.74 1412.59 724.39 1418.11C723.669 1430.32 726.151 1442.5 731.59 1453.45C731.992 1454.13 732.65 1454.63 733.419 1454.83C734.187 1455.03 735.004 1454.92 735.69 1454.52C736.365 1454.11 736.854 1453.45 737.055 1452.69C737.256 1451.92 737.154 1451.11 736.77 1450.42C732.085 1440.86 729.864 1430.28 730.31 1419.64C730.53 1414.11 731.79 1408.94 732.96 1403.56C734.09 1398.39 734.41 1392.69 731.22 1388.15C729.848 1386.08 727.809 1384.55 725.443 1383.81C723.077 1383.06 720.528 1383.15 718.22 1384.06C713.66 1385.86 710.48 1389.57 706.65 1392.46C702.65 1395.46 697.92 1397.37 693.19 1398.96C688.13 1400.65 683.02 1402.14 678.05 1404.09C672.046 1406.43 666.223 1409.21 660.63 1412.41C657.91 1413.96 655.29 1415.66 652.63 1417.41C650.39 1418.86 648.02 1420.35 645.26 1420.32L648.16 1424.12C649.76 1413.93 657.6 1406.12 665.01 1399.53C672.64 1392.77 681.62 1386.92 691.82 1385.18C702.51 1383.35 713.08 1387.46 721.82 1393.33C731.69 1399.93 740.05 1408.74 748.66 1416.85L762.54 1429.95C766.81 1433.95 771.11 1438.05 776.12 1441.15C780.937 1444.3 786.539 1446.03 792.29 1446.15C795.14 1446.15 798.29 1445.71 800.5 1443.76C802.71 1441.81 803.07 1438.49 802.5 1435.6C801.393 1430.84 799.402 1426.33 796.63 1422.31C793.838 1418.12 790.472 1414.34 786.63 1411.09C778.32 1403.99 768.39 1399.35 757.98 1396.2C752.346 1394.54 746.632 1393.18 740.86 1392.1C737.94 1391.53 735 1391 732.07 1390.48C729.14 1389.96 726.37 1389.36 723.5 1389.72C722.017 1389.89 720.581 1390.34 719.27 1391.05C718.27 1391.62 717.33 1392.41 716.34 1393.05C716.1 1393.21 715.86 1393.36 715.61 1393.5C715.53 1393.5 714.9 1393.82 715.26 1393.68C715.19 1393.68 714.76 1393.93 715.1 1393.77H714.76C714.97 1393.77 714.98 1393.77 714.76 1393.77C714.4 1393.77 715.11 1394.09 714.56 1393.69C714.67 1393.77 714.9 1394.03 714.5 1393.62C714.1 1393.21 714.37 1393.44 714.43 1393.54C714.324 1393.37 714.227 1393.2 714.14 1393.02C714.23 1393.22 714.25 1393.22 714.14 1393.02C713.975 1392.54 713.975 1392.02 714.14 1391.54C714.554 1390.66 715.232 1389.93 716.08 1389.46C716.94 1388.91 717.864 1388.46 718.83 1388.12L719.36 1387.93C719.23 1387.93 719.8 1387.85 719.52 1387.93C719.24 1388.01 719.25 1387.39 719.52 1387.93C719.31 1387.48 719.75 1388.31 719.75 1388.31C719.58 1387.95 719.75 1388.41 719.75 1388.47C719.96 1389.19 719.86 1388.16 719.81 1388.91C719.805 1389.26 719.723 1389.6 719.57 1389.91C719.066 1390.93 718.412 1391.87 717.63 1392.7C717.089 1393.27 716.788 1394.03 716.788 1394.82C716.788 1395.61 717.089 1396.37 717.63 1396.94C717.909 1397.22 718.24 1397.44 718.605 1397.59C718.969 1397.74 719.36 1397.82 719.755 1397.82C720.15 1397.82 720.541 1397.74 720.905 1397.59C721.27 1397.44 721.601 1397.22 721.88 1396.94L722 1397Z" fill="url(#paint16_radial_1_24209)"/>
<path d="M724.31 1387.35C719.56 1383.35 713.8 1386.72 710.21 1390.57C706.521 1394.52 703.423 1398.98 701.01 1403.81C698.43 1409.03 696.91 1414.58 695.24 1420.14C693.795 1425.15 691.75 1429.96 689.15 1434.48C686.23 1439.45 682.613 1443.98 678.41 1447.92C675.6 1450.58 679.85 1454.82 682.65 1452.16C689.959 1445.24 695.603 1436.75 699.16 1427.34C701.08 1422.34 702.23 1417.01 704.04 1411.94C705.679 1407.37 707.969 1403.07 710.84 1399.16C712.335 1397.01 714.062 1395.04 715.99 1393.27C716.74 1392.6 717.604 1392.07 718.54 1391.7C718.874 1391.54 719.241 1391.47 719.61 1391.48C719.771 1391.46 719.935 1391.5 720.07 1391.59C720.643 1392.13 721.402 1392.43 722.19 1392.43C722.978 1392.43 723.736 1392.13 724.31 1391.59C724.872 1391.03 725.187 1390.26 725.187 1389.47C725.187 1388.67 724.872 1387.91 724.31 1387.35V1387.35Z" fill="url(#paint17_radial_1_24209)"/>
<defs>
<linearGradient id="paint0_linear_1_24209" x1="899.5" y1="1538.34" x2="1018.98" y2="1418.86" gradientUnits="userSpaceOnUse">
<stop stop-color="#C8BAA2"/>
<stop offset="0.02" stop-color="#C9BBA3"/>
<stop offset="0.26" stop-color="#D2C7B2"/>
<stop offset="0.54" stop-color="#D7CFBA"/>
<stop offset="1" stop-color="#D9D1BD"/>
</linearGradient>
<linearGradient id="paint1_linear_1_24209" x1="934.46" y1="1480.76" x2="1011.99" y2="1480.76" gradientUnits="userSpaceOnUse">
<stop stop-color="#BEAF9C"/>
<stop offset="0.44" stop-color="#BCAC97"/>
<stop offset="0.95" stop-color="#B6A289"/>
<stop offset="1" stop-color="#B5A187"/>
</linearGradient>
<linearGradient id="paint2_linear_1_24209" x1="916.58" y1="1453.52" x2="987.8" y2="1453.52" gradientUnits="userSpaceOnUse">
<stop stop-color="#BEAF9C"/>
<stop offset="0.44" stop-color="#BCAC97"/>
<stop offset="0.95" stop-color="#B6A289"/>
<stop offset="1" stop-color="#B5A187"/>
</linearGradient>
<linearGradient id="paint3_linear_1_24209" x1="916.52" y1="1434.07" x2="985.83" y2="1434.07" gradientUnits="userSpaceOnUse">
<stop stop-color="#BEAF9C"/>
<stop offset="0.44" stop-color="#BCAC97"/>
<stop offset="0.95" stop-color="#B6A289"/>
<stop offset="1" stop-color="#B5A187"/>
</linearGradient>
<linearGradient id="paint4_linear_1_24209" x1="900.28" y1="1413.89" x2="982.37" y2="1413.89" gradientUnits="userSpaceOnUse">
<stop stop-color="#BEAF9C"/>
<stop offset="0.44" stop-color="#BCAC97"/>
<stop offset="0.95" stop-color="#B6A289"/>
<stop offset="1" stop-color="#B5A187"/>
</linearGradient>
<linearGradient id="paint5_linear_1_24209" x1="901.62" y1="1395.24" x2="971.54" y2="1395.24" gradientUnits="userSpaceOnUse">
<stop stop-color="#BEAF9C"/>
<stop offset="0.44" stop-color="#BCAC97"/>
<stop offset="0.95" stop-color="#B6A289"/>
<stop offset="1" stop-color="#B5A187"/>
</linearGradient>
<linearGradient id="paint6_linear_1_24209" x1="927.99" y1="1468.98" x2="989.58" y2="1468.98" gradientUnits="userSpaceOnUse">
<stop stop-color="#BEAF9C"/>
<stop offset="0.44" stop-color="#BCAC97"/>
<stop offset="0.95" stop-color="#B6A289"/>
<stop offset="1" stop-color="#B5A187"/>
</linearGradient>
<radialGradient id="paint7_radial_1_24209" cx="0" cy="0" r="1" gradientUnits="userSpaceOnUse" gradientTransform="translate(943.03 1416.59) scale(61)">
<stop stop-color="#B5A187"/>
<stop offset="0.87" stop-color="#AB937F"/>
<stop offset="1" stop-color="#A9917E"/>
</radialGradient>
<radialGradient id="paint8_radial_1_24209" cx="0" cy="0" r="1" gradientUnits="userSpaceOnUse" gradientTransform="translate(964.24 1419.13) scale(27.05)">
<stop stop-color="#A9917E"/>
<stop offset="1" stop-color="#B5A187"/>
</radialGradient>
<linearGradient id="paint9_linear_1_24209" x1="788.72" y1="1396.2" x2="623.94" y2="1560.99" gradientUnits="userSpaceOnUse">
<stop stop-color="#C8BAA2"/>
<stop offset="0.25" stop-color="#D0C5AF"/>
<stop offset="0.6" stop-color="#D7CEB9"/>
<stop offset="1" stop-color="#D9D1BD"/>
</linearGradient>
<linearGradient id="paint10_linear_1_24209" x1="653.58" y1="1480.74" x2="731.11" y2="1480.74" gradientUnits="userSpaceOnUse">
<stop stop-color="#BEAF9C"/>
<stop offset="0.44" stop-color="#BCAC97"/>
<stop offset="0.95" stop-color="#B6A289"/>
<stop offset="1" stop-color="#B5A187"/>
</linearGradient>
<linearGradient id="paint11_linear_1_24209" x1="678.99" y1="1454.24" x2="749.05" y2="1454.24" gradientUnits="userSpaceOnUse">
<stop stop-color="#BEAF9C"/>
<stop offset="0.44" stop-color="#BCAC97"/>
<stop offset="0.95" stop-color="#B6A289"/>
<stop offset="1" stop-color="#B5A187"/>
</linearGradient>
<linearGradient id="paint12_linear_1_24209" x1="679.74" y1="1434.07" x2="749.05" y2="1434.07" gradientUnits="userSpaceOnUse">
<stop stop-color="#BEAF9C"/>
<stop offset="0.44" stop-color="#BCAC97"/>
<stop offset="0.95" stop-color="#B6A289"/>
<stop offset="1" stop-color="#B5A187"/>
</linearGradient>
<linearGradient id="paint13_linear_1_24209" x1="683.2" y1="1413.89" x2="765.29" y2="1413.89" gradientUnits="userSpaceOnUse">
<stop stop-color="#BEAF9C"/>
<stop offset="0.44" stop-color="#BCAC97"/>
<stop offset="0.95" stop-color="#B6A289"/>
<stop offset="1" stop-color="#B5A187"/>
</linearGradient>
<linearGradient id="paint14_linear_1_24209" x1="694.04" y1="1395.26" x2="763.95" y2="1395.26" gradientUnits="userSpaceOnUse">
<stop stop-color="#BEAF9C"/>
<stop offset="0.44" stop-color="#BCAC97"/>
<stop offset="0.95" stop-color="#B6A289"/>
<stop offset="1" stop-color="#B5A187"/>
</linearGradient>
<linearGradient id="paint15_linear_1_24209" x1="671" y1="1470.59" x2="737.6" y2="1470.59" gradientUnits="userSpaceOnUse">
<stop stop-color="#BEAF9C"/>
<stop offset="0.44" stop-color="#BCAC97"/>
<stop offset="0.95" stop-color="#B6A289"/>
<stop offset="1" stop-color="#B5A187"/>
</linearGradient>
<radialGradient id="paint16_radial_1_24209" cx="0" cy="0" r="1" gradientUnits="userSpaceOnUse" gradientTransform="translate(722.52 1416.59) scale(60.88)">
<stop stop-color="#B5A187"/>
<stop offset="0.87" stop-color="#AB937F"/>
<stop offset="1" stop-color="#A9917E"/>
</radialGradient>
<radialGradient id="paint17_radial_1_24209" cx="0" cy="0" r="1" gradientUnits="userSpaceOnUse" gradientTransform="translate(701.33 1419.13) scale(27.07)">
<stop stop-color="#A9917E"/>
<stop offset="1" stop-color="#B4A187"/>
</radialGradient>
</defs>
</svg>
