<svg width="1660" height="1660" viewBox="0 0 1660 1660" fill="none" xmlns="http://www.w3.org/2000/svg">
<path d="M762.91 809.83L702.43 839.49C699.294 841.003 696.634 843.348 694.74 846.27C689.74 854.13 685.56 861.47 682.5 870.7C669.81 908.91 647.88 957.99 636.21 990.64C633.05 999.48 642.87 999.25 653.21 1000.64C660.03 1001.52 663.29 1002.18 670.56 1006.08C680.73 1011.53 685.79 1017.38 699.45 1024.32C704.22 1026.74 741.67 940.73 742.14 945.6C748.36 1010.98 776.22 1066.32 741.06 1133.6C740.06 1135.5 717.84 1150.95 718.45 1157.6L922.67 1163.83C926.18 1164.03 909.51 1131.06 909.48 1127.93C908.85 1066.93 892.65 1008.93 914.95 941.11C917.45 933.5 954.43 1023.6 963.24 1021.89L988.24 1017.06C990.972 1016.56 993.568 1015.49 995.865 1013.93C998.162 1012.37 1000.11 1010.35 1001.58 1007.99C1002.59 1006.33 1003.79 1004.79 1005.14 1003.39C1008.68 999.74 1009.86 999.83 1013.45 997.79C1025.87 990.79 1026.23 995.64 1021.63 983.48C1010.63 954.56 995.63 916.62 975.63 871.4C971.18 861.4 963.63 845.05 956.84 837.58C954.9 835.45 953.99 834.18 951.18 833.04L889.36 807.92C886.609 806.823 883.667 806.288 880.707 806.344C877.746 806.401 874.827 807.049 872.12 808.25C862.901 812.363 853.165 815.202 843.18 816.69C822.053 819.609 800.529 817.029 780.69 809.2C777.842 808.077 774.794 807.554 771.734 807.662C768.675 807.771 765.671 808.509 762.91 809.83V809.83Z" fill="url(#paint0_linear_1_27259)" stroke="#030303" stroke-width="4" stroke-miterlimit="10"/>
<path d="M770.78 814.77C788.985 823.459 808.873 828.052 829.044 828.225C849.215 828.398 869.179 824.146 887.53 815.77" stroke="#030303" stroke-width="4" stroke-miterlimit="10"/>
<path d="M744.47 892.9C742.131 907.539 741.127 922.36 741.47 937.18C742.14 964.82 740.64 978.18 735.41 999.54C730.41 1020.06 729.75 1019.86 722.28 1041C712.7 1068.08 680.58 1136.78 665.45 1278.2C665.227 1280.33 665.473 1282.47 666.173 1284.49C666.873 1286.51 668.008 1288.36 669.498 1289.89C670.989 1291.42 672.798 1292.61 674.798 1293.36C676.797 1294.12 678.939 1294.42 681.07 1294.26C693.07 1293.36 707.59 1291.26 713.72 1290.89C724.38 1290.19 725.62 1285.89 734.53 1285.89C746.36 1285.89 749.53 1293.29 770.21 1296.97C775.93 1297.97 780.59 1298.28 783.1 1296.97C786.22 1295.33 783.39 1292.57 786.1 1290.88C789.18 1288.88 796.91 1290.06 810.88 1292.54C834.88 1296.8 842.21 1298.78 845.56 1296.97C849.56 1294.82 842.83 1290.15 847.56 1286.97C851.92 1284.06 863.63 1284.06 868.37 1286.97C872.37 1289.4 869.32 1292.56 872.37 1293.61C877.03 1295.24 884.86 1287.89 900.12 1285.31C910.41 1283.57 915.03 1285.53 935.8 1286.42C944.34 1286.78 966.63 1289.85 983.38 1291.89C985.699 1292.18 988.054 1291.93 990.262 1291.17C992.471 1290.4 994.474 1289.14 996.117 1287.48C997.76 1285.82 998.999 1283.8 999.738 1281.58C1000.48 1279.36 1000.7 1277.01 1000.38 1274.69C981.43 1134.76 947.53 1069.09 937.96 1041.91C929.64 1018.27 929.66 1016.68 923.83 996.91C917.89 976.71 914.26 963.17 915.03 934.96C915.383 921.181 914.039 907.411 911.03 893.96C886.59 902.79 865.36 968.73 840.91 977.55C835.78 979.39 830.17 979.39 825.04 977.55C799.22 968.42 770.24 902.1 744.47 892.9Z" fill="url(#paint1_linear_1_27259)" stroke="#010101" stroke-width="4" stroke-miterlimit="10"/>
<path d="M725.18 830.3C729.74 840.3 739.65 885.21 744.18 895.23" stroke="#010101" stroke-width="4" stroke-miterlimit="10"/>
<path d="M926.45 822.89C920.05 835.75 914.05 886.83 909.45 896.89" stroke="#010101" stroke-width="4" stroke-miterlimit="10"/>
<path d="M698.41 1010.73C690.163 1001.04 679.695 993.496 667.9 988.73C659.828 985.508 651.273 983.659 642.59 983.26" stroke="#030303" stroke-width="4" stroke-miterlimit="10"/>
<path d="M957.36 1007.21C970.63 1008.35 978.24 1004.96 982.75 1001.62C988.88 997.07 990.14 991.97 997.92 986.11C1002.91 982.399 1008.6 979.739 1014.65 978.29" stroke="#030303" stroke-width="4" stroke-miterlimit="10"/>
<path d="M851.75 1268C846.86 1247.46 845.45 1226.14 843.75 1205.14C843.12 1196.4 842.42 1186.81 841.69 1178.14C841.174 1172.02 841.314 1165.86 842.11 1159.77C843.18 1150.99 845.68 1141.7 847.81 1133.13C848.56 1130.21 849.102 1127.24 849.43 1124.25C849.428 1127.27 849.167 1130.28 848.65 1133.25C847.24 1142.15 845.35 1151.04 844.71 1160C843.49 1172 846.08 1183.83 846.98 1195.78C849.12 1219.78 849.78 1243.98 851.74 1267.97L851.75 1268Z" fill="#E893BE"/>
<path d="M883.63 1265.79C885.13 1248.15 887.63 1230.63 888.98 1213.01C893.11 1169.27 886.27 1124.54 883.44 1080.83C882.79 1072 882.03 1063.17 881.75 1054.31C882.29 1061.84 883.75 1073.07 884.52 1080.72C888.2 1115.59 893.08 1151.72 894.09 1186.72C894.3 1213.43 889.85 1239.98 883.63 1265.84V1265.79Z" fill="#E893BE"/>
<path d="M724.84 1268C707.75 1199.61 708.22 1188.12 729.94 1120.78C732.01 1113.98 734.55 1107.26 735.49 1100.19C735.41 1107.37 733.39 1114.36 731.83 1121.31C730.11 1128.25 728.3 1135.15 726.53 1142.04C723.1 1155.75 719.59 1169.59 717.53 1183.59C713.68 1211.98 721.67 1239.89 724.82 1268H724.84Z" fill="#E893BE"/>
<path d="M761.81 1268C754.71 1239.31 740.63 1230.52 747.6 1197.37C750.97 1178.93 754.86 1160.52 756.8 1141.84C757.95 1163.35 753.52 1184.84 750.23 1205.92C746.52 1231.4 759.88 1244.4 761.81 1268V1268Z" fill="#E893BE"/>
<path d="M798.7 1258.67C792.49 1232.81 788.03 1206.26 788.24 1179.55C789.24 1144.55 794.14 1108.44 797.82 1073.61C798.63 1065.98 800.04 1054.78 800.58 1047.19C800.3 1056.05 799.58 1064.88 798.89 1073.71C796.06 1117.44 789.22 1162.14 793.35 1205.89C794.75 1223.51 797.2 1241.03 798.7 1258.67Z" fill="#E893BE"/>
<path d="M923.37 1258.67C924.75 1241.05 928.22 1223.99 927.72 1206.37C926.72 1189.22 924.58 1170.95 923.08 1153.75C922.66 1148.75 922.14 1143.75 922 1138.66C922.46 1142.93 923.52 1149.29 924.15 1153.66C926.99 1173.44 930.57 1193.93 931.44 1213.88C931.65 1229.18 928.35 1244.35 923.37 1258.71V1258.67Z" fill="#E893BE"/>
<path d="M990.23 1106C1002.67 1131.33 1004.02 1153.78 993.92 1162.06C988.12 1166.82 977.24 1167.96 973.27 1163.54C967.73 1157.37 978.38 1143.47 973.27 1138.46C967.78 1133.08 953.9 1143.99 952.64 1141.27C947.35 1129.84 957.47 1131.51 969.58 1119.27C974.23 1114.57 976.04 1111.38 979.9 1105.99C982.24 1102.72 987.47 1105.14 990.23 1106Z" fill="#010101" stroke="black" stroke-width="4" stroke-miterlimit="10"/>
<path d="M671.56 1099.6C659.12 1124.93 657.77 1147.38 667.87 1155.66C673.67 1160.41 684.55 1161.56 688.52 1157.13C694.06 1150.96 683.41 1137.07 688.52 1132.05C694.01 1126.68 707.89 1137.59 709.15 1134.87C714.44 1123.44 704.32 1125.1 692.21 1112.87C687.56 1108.18 685.74 1104.99 681.89 1099.6C679.55 1096.33 674.32 1098.75 671.56 1099.6Z" fill="#010101" stroke="#010101" stroke-width="4" stroke-miterlimit="10"/>
<defs>
<linearGradient id="paint0_linear_1_27259" x1="677.288" y1="1081.67" x2="997.494" y2="911.914" gradientUnits="userSpaceOnUse">
<stop stop-color="#F0EEE3"/>
<stop offset="1" stop-color="white"/>
</linearGradient>
<linearGradient id="paint1_linear_1_27259" x1="632.99" y1="1227.5" x2="985.89" y2="1023.76" gradientUnits="userSpaceOnUse">
<stop stop-color="#F7B2C4"/>
<stop offset="0.29" stop-color="#F7B9C8"/>
<stop offset="0.69" stop-color="#F7CBD4"/>
<stop offset="1" stop-color="#F7DEE1"/>
</linearGradient>
</defs>
</svg>
