<svg width="1660" height="1660" viewBox="0 0 1660 1660" fill="none" xmlns="http://www.w3.org/2000/svg">
<path d="M767.5 804.67C759.83 799.3 681.89 829.57 652.5 873.08C559.9 1010.08 562.5 1212.35 570.09 1248.94C571.43 1255.44 555.27 1281.42 570.23 1289.94C587.18 1299.65 602.16 1296.59 623.42 1298.46C634.05 1299.4 627.11 1284.87 637.73 1267.77C650.73 1246.89 669.73 1222.49 671.55 1231.19C673.19 1238.85 659.55 1288.35 685.86 1292.56C779.04 1307.47 872.06 1288.44 975.94 1296.1C981.27 1296.49 978.94 1246.57 988.94 1237.1C995.05 1231.29 1019.26 1266.59 1033.46 1300.16C1036.31 1306.91 1091.78 1289.22 1094.31 1287.85C1100.02 1284.74 1090.57 1255.12 1093.01 1252.44C1095.44 1236.77 1093.41 1204.23 1093.57 1177.35C1093.8 1137.35 1093.14 1109.35 1069.57 1025.84C1042.46 929.72 1017.38 870.84 989.86 852.84C926.63 811.48 885.23 794.35 880.86 802.52C867.93 826.47 798.65 826.47 767.5 804.67Z" fill="url(#paint0_radial_1_27276)" stroke="#010101" stroke-width="4" stroke-miterlimit="10"/>
<path d="M570.08 1248.94C581.056 1249.37 591.966 1250.85 602.66 1253.36C614.315 1256.09 625.641 1260.07 636.44 1265.24" stroke="#010101" stroke-width="4" stroke-miterlimit="10"/>
<path d="M671.49 1256C728.63 1255.67 785.78 1255.42 842.94 1255.23C889.5 1255.09 936.053 1255 982.6 1254.95" stroke="#010101" stroke-width="4" stroke-miterlimit="10"/>
<path d="M1018.19 1266C1030.1 1262 1042.22 1258.66 1054.5 1256C1067.32 1253.23 1080.29 1251.2 1093.34 1249.91" stroke="#010101" stroke-width="4" stroke-miterlimit="10"/>
<path d="M662.64 886C663.44 900.65 664.4 923.48 664.28 951.45C664.03 1007.64 659.65 1033.73 658.81 1071.45C658.17 1100.08 661.72 1184.37 671.49 1236.62" stroke="#010101" stroke-width="4" stroke-miterlimit="10"/>
<path d="M994.88 908.27C995.04 948.47 995.88 980.99 996.67 1002.52C998.74 1062.85 1001.45 1088.83 999.25 1131.88C997.63 1163.77 986.06 1234.14 983.55 1249.95" stroke="#010101" stroke-width="4" stroke-miterlimit="10"/>
<path d="M786.73 953.83C787.22 952.46 787.65 951.02 788.23 949.68C788.3 949.52 788.8 948.78 788.59 948.97C788.59 948.97 789.34 948.53 788.95 948.74C789.3 948.55 789.66 948.38 790.01 948.2L794.01 946.2L795.94 945.2L796.94 944.72L797.58 944.39C798.07 944.17 797.93 944.2 797.15 944.47L795.76 944.39C797 944.59 798.24 946.1 798.83 947.16C799.511 948.375 799.762 949.785 799.54 951.16C799.14 953.65 805.01 952.73 805.37 950.53C805.563 949.302 805.485 948.047 805.139 946.852C804.793 945.658 804.189 944.555 803.37 943.62C802.481 942.58 801.361 941.762 800.1 941.23C798.1 940.41 796.1 941.23 794.27 942.13C791.35 943.61 788.27 944.93 785.46 946.61C784.124 947.379 783.101 948.593 782.57 950.04C782 951.5 781.5 953.04 780.97 954.46C780.5 955.75 782.78 956.03 783.53 955.93C784.213 955.911 784.879 955.706 785.453 955.336C786.028 954.965 786.49 954.445 786.79 953.83H786.73Z" fill="#989798"/>
<path d="M780.48 955C781.901 960.591 782.699 966.323 782.86 972.09C782.94 974.91 782.76 977.73 782.78 980.56C782.78 982.93 782.84 985.68 784.03 987.81C785.22 989.94 787.62 990.71 790.11 990.33C792.86 989.92 794.92 988.25 797.43 987.33C799.94 986.41 802.43 985.52 804.43 983.64C806.071 982.041 807.1 979.918 807.34 977.64C807.519 974.712 807.157 971.776 806.27 968.98C805.6 966.56 804.34 964.81 801.79 964.3C800.71 964.08 797.32 964.67 797.09 966.11C796.765 968.01 796.765 969.95 797.09 971.85C797.35 973.43 803.18 972.1 802.88 970.3C802.595 968.625 802.595 966.915 802.88 965.24L798.18 967.05C799.56 967.33 800.18 969.4 800.51 970.54C801.152 972.673 801.538 974.875 801.66 977.1C801.784 979.146 801.217 981.175 800.05 982.86C798.9 984.37 797.23 984.86 795.52 985.46C794.523 985.826 793.551 986.257 792.61 986.75L791.4 987.44C791.46 987.44 790.71 987.84 790.7 987.82C790.69 987.8 791.15 987.82 791.29 987.74C791.61 987.55 791.35 987.79 791.07 987.57C790.95 987.49 790.82 987.42 790.71 987.33C790.369 987.053 790.084 986.714 789.87 986.33C789.456 985.58 789.172 984.765 789.03 983.92C788.12 979.26 788.86 974.38 788.67 969.66C788.441 964.216 787.65 958.811 786.31 953.53C785.9 951.88 780.09 953.38 780.52 955.08L780.48 955Z" fill="#989798"/>
<path d="M828.41 933.92H827.61L825.84 936.27L831.76 935.19C832.7 935.02 833.64 934.84 834.59 934.69C835.31 934.56 834 934.77 834.73 934.69C835.29 934.61 834.44 934.69 834.95 934.69C835.19 934.69 835.23 934.69 835.08 934.69H835.28C835.419 934.721 835.556 934.761 835.69 934.81C835.52 934.59 835.44 934.58 835.46 934.81L835.73 934.22L835.64 934.31L839.51 932.9H839.4C838.625 932.95 837.863 933.118 837.14 933.4C836.544 933.591 835.993 933.901 835.52 934.31C834.61 935.31 836.35 935.36 836.91 935.31C837.845 935.27 838.765 935.052 839.62 934.67C840.13 934.45 841 934.08 841.22 933.51C841.44 932.94 840.64 932.51 840.13 932.41C838.475 932.094 836.772 932.125 835.13 932.5C832.39 932.98 829.66 933.5 826.92 934C826.154 934.127 825.409 934.362 824.71 934.7C824.294 934.857 823.928 935.123 823.65 935.47C823.09 936.38 824.65 936.37 825.16 936.35H825.96C826.734 936.298 827.496 936.13 828.22 935.85C828.813 935.659 829.36 935.349 829.83 934.94C830.74 933.94 829.01 933.89 828.44 933.94L828.41 933.92Z" fill="#989798"/>
<path d="M829.07 936.47C820.98 948.82 821.67 964.34 815.29 977.38C814.67 978.64 815.85 979.51 817.01 979.63C817.739 979.719 818.478 979.605 819.146 979.302C819.815 978.998 820.387 978.517 820.8 977.91C827.18 964.91 826.51 949.3 834.58 937C835.37 935.79 833.89 934.85 832.86 934.74C832.131 934.66 831.394 934.779 830.727 935.083C830.06 935.388 829.487 935.867 829.07 936.47V936.47Z" fill="#989798"/>
<path d="M817.53 980.51C816.71 981.03 817.35 980.63 817.53 980.51L817.99 980.26C818.32 980.08 818.66 979.92 818.99 979.76L819.99 979.36L819.67 979.48H819.81L820.39 979.3C821.08 979.09 821.77 978.96 822.47 978.8C821.47 979.03 822.19 978.8 822.47 978.8L822.92 978.74C823.327 978.7 823.737 978.67 824.15 978.65C824.939 978.594 825.696 978.313 826.33 977.84C826.592 977.657 826.815 977.424 826.986 977.155C827.158 976.885 827.275 976.585 827.33 976.27C827.39 974.78 825.88 974.27 824.63 974.27C820.743 974.478 816.976 975.683 813.69 977.77C812.69 978.42 812.26 980.1 813.4 980.84C814.051 981.194 814.791 981.352 815.529 981.293C816.268 981.235 816.973 980.963 817.56 980.51H817.53Z" fill="#989798"/>
<path d="M824.67 967.92C825.74 967.62 826.82 967.34 827.91 967.09C828.45 966.96 829 966.85 829.55 966.73H829.4L829.9 966.63L830.67 966.49C832.87 966.1 835.1 965.81 837.34 965.62C838.34 965.53 840.34 964.91 840.65 963.73C840.96 962.55 838.84 962.57 838.19 962.63C833.388 963.055 828.637 963.932 824 965.25C823.22 965.47 821.15 966.25 821.46 967.36C821.77 968.47 824 968.12 824.72 967.92H824.67Z" fill="#989798"/>
<path d="M830.13 938.22C833.917 951.52 837.523 964.877 840.95 978.29C841.53 980.59 847.34 979.07 846.74 976.74C843.327 963.327 839.72 949.967 835.92 936.66C835.27 934.36 829.47 935.92 830.13 938.22Z" fill="#989798"/>
<path d="M836.12 978.6L837.37 978.52H838C838.8 978.52 839.6 978.52 840.4 978.6C841.2 978.68 841.93 978.74 842.7 978.83C843.28 978.9 842.28 978.76 842.8 978.83L843.37 978.92L844.69 979.18C845.412 979.332 846.159 979.308 846.87 979.11C847.585 978.945 848.245 978.601 848.79 978.11C849.11 977.76 849.51 977.24 849.33 976.73C849.23 976.491 849.072 976.281 848.869 976.12C848.666 975.959 848.425 975.853 848.17 975.81C844.45 975.011 840.633 974.759 836.84 975.06C836.06 975.138 835.31 975.399 834.65 975.82C834.25 976.09 833.65 976.62 833.57 977.15C833.44 978.52 835.17 978.68 836.13 978.61L836.12 978.6Z" fill="#989798"/>
<path d="M853.61 938L860.95 942.34C861.413 942.562 861.93 942.649 862.44 942.59C863.214 942.54 863.977 942.372 864.7 942.09C865.303 941.919 865.856 941.603 866.31 941.17C866.5 940.94 866.77 940.54 866.4 940.31L859.06 935.97C858.597 935.747 858.079 935.663 857.57 935.73C856.795 935.775 856.032 935.944 855.31 936.23C854.706 936.401 854.154 936.717 853.7 937.15C853.51 937.38 853.24 937.78 853.61 938Z" fill="#989798"/>
<path d="M856.36 939.43C857.14 949.13 862.67 957.66 863.71 967.31C863.92 969.31 869.71 968 869.5 965.76C868.5 956.11 862.94 947.58 862.16 937.88C862.06 936.64 859.56 936.97 858.86 937.16C857.86 937.44 856.26 938.16 856.36 939.43Z" fill="#989798"/>
<path d="M871.47 947.43L878.62 952.91C879.213 953.292 879.917 953.465 880.62 953.4C881.409 953.355 882.165 953.073 882.79 952.59C883.057 952.406 883.283 952.168 883.455 951.893C883.627 951.618 883.741 951.311 883.79 950.99C883.806 950.695 883.749 950.401 883.623 950.134C883.498 949.867 883.308 949.635 883.07 949.46L875.91 944C875.316 943.619 874.613 943.446 873.91 943.51C873.119 943.558 872.36 943.84 871.73 944.32C871.464 944.505 871.237 944.742 871.066 945.017C870.894 945.292 870.779 945.599 870.73 945.92C870.708 946.215 870.763 946.512 870.889 946.78C871.015 947.048 871.208 947.279 871.45 947.45L871.47 947.43Z" fill="#989798"/>
<path d="M875 948.12C873.72 951.12 872.43 954.22 870.87 957.12C869.377 959.918 867.587 962.546 865.53 964.96C865.327 965.177 865.182 965.443 865.11 965.731C865.038 966.02 865.041 966.322 865.118 966.609C865.195 966.896 865.344 967.159 865.551 967.373C865.758 967.586 866.015 967.744 866.3 967.83C867.017 968.062 867.785 968.082 868.513 967.887C869.24 967.692 869.896 967.29 870.4 966.73C874.92 961.37 877.85 955.22 880.55 948.81C880.654 948.526 880.687 948.221 880.647 947.922C880.607 947.622 880.494 947.337 880.319 947.091C880.144 946.845 879.911 946.645 879.641 946.509C879.371 946.373 879.072 946.305 878.77 946.31C877.43 946.17 875.58 946.73 875 948.1V948.12Z" fill="#989798"/>
<path d="M864.61 965.42C863.943 971.613 863.417 977.82 863.03 984.04C862.85 986.93 868.73 986.04 868.88 983.54C869.247 977.32 869.773 971.113 870.46 964.92C870.78 962.08 864.88 962.92 864.61 965.42Z" fill="#989798"/>
<path d="M859 981.94L870.28 988.36C870.884 988.602 871.533 988.712 872.183 988.682C872.833 988.653 873.47 988.485 874.05 988.19C874.655 987.989 875.204 987.646 875.65 987.19C875.84 986.96 876.09 986.47 875.71 986.25L864.43 979.82C863.823 979.583 863.173 979.476 862.522 979.505C861.871 979.534 861.233 979.7 860.65 979.99C860.048 980.192 859.503 980.535 859.06 980.99C858.86 981.23 858.61 981.72 859 981.99V981.94Z" fill="#989798"/>
<path d="M812.34 989.94C812.74 993.09 813.01 996.25 813.13 999.42C813.13 999.94 813.65 1000.1 814.13 1000.06C814.61 1000.02 815.36 999.73 815.34 999.22C815.22 995.887 814.953 992.6 814.54 989.36C814.47 988.85 813.61 988.88 813.27 988.97C812.93 989.06 812.27 989.42 812.36 989.97L812.34 989.94Z" fill="#989798"/>
<path d="M813.51 990.4H813.42H813.54H813.79H814.09H814.22C814.34 990.4 814.22 990.4 814.22 990.4C814.389 990.38 814.561 990.38 814.73 990.4H815.28H815.45L815.7 990.45C815.879 990.483 816.056 990.526 816.23 990.58L816.46 990.64H816.56C816.56 990.64 816.45 990.64 816.56 990.64L816.79 990.75L816.89 990.81C816.99 990.87 816.83 990.75 816.89 990.81C816.987 990.881 817.066 990.975 817.12 991.083C817.174 991.19 817.201 991.309 817.2 991.43C817.2 991.33 817.2 991.52 817.2 991.55C817.205 991.617 817.205 991.683 817.2 991.75V991.84C817.2 991.84 817.2 991.95 817.2 991.84C817.2 991.73 817.2 991.84 817.2 991.84L817.13 991.95C817.096 992.011 817.056 992.068 817.01 992.12C817.1 992.01 817.01 992.12 816.96 992.12L816.85 992.22L816.73 992.3C816.61 992.38 816.45 992.44 816.34 992.53H816.42L816.31 992.58L816.08 992.69C815.253 993.014 814.481 993.463 813.79 994.02C813.718 994.08 813.662 994.158 813.627 994.245C813.592 994.332 813.58 994.427 813.59 994.52C813.625 994.609 813.684 994.686 813.76 994.744C813.835 994.802 813.925 994.839 814.02 994.85C814.289 994.904 814.568 994.896 814.833 994.825C815.099 994.753 815.344 994.622 815.55 994.44L815.67 994.34C815.67 994.34 815.78 994.25 815.67 994.34L815.82 994.24L816.05 994.1C816.18 994.03 815.88 994.19 816.05 994.1L816.19 994.03L817.19 993.56C818.003 993.222 818.699 992.651 819.19 991.92C819.391 991.608 819.484 991.238 819.455 990.868C819.426 990.498 819.277 990.147 819.03 989.87C818.353 989.344 817.535 989.031 816.68 988.97C815.569 988.818 814.44 988.852 813.34 989.07C812.99 989.14 812.29 989.5 812.41 989.95C812.53 990.4 813.32 990.31 813.66 990.25L813.51 990.4Z" fill="#989798"/>
<path d="M821.92 990.84L822.79 998.38C822.85 998.83 823.79 998.71 824.03 998.63C824.27 998.55 825.03 998.27 824.97 997.79L824.09 990.26C824.04 989.8 823.09 989.92 822.86 990C822.63 990.08 821.86 990.36 821.92 990.84Z" fill="#989798"/>
<path d="M824.4 990.5C824.45 990.5 824.67 990.2 824.3 990.5C824.2 990.57 824.3 990.5 824.43 990.5C824.741 990.556 825.046 990.643 825.34 990.76C825.628 990.816 825.899 990.935 826.136 991.108C826.373 991.28 826.569 991.503 826.71 991.76C826.793 992.018 826.793 992.296 826.711 992.554C826.628 992.812 826.467 993.038 826.25 993.2C825.836 993.471 825.354 993.62 824.86 993.63C824.54 993.69 823.69 993.86 823.6 994.26C823.51 994.66 824.3 994.56 824.49 994.54C825.37 994.43 827.04 994.35 827.41 995.41C827.54 995.881 827.54 996.379 827.41 996.85C827.262 997.377 827.228 997.929 827.31 998.47C827.43 999.02 829.62 998.47 829.49 997.89C829.23 996.73 830.22 995.38 829.34 994.34C828.853 993.888 828.223 993.623 827.56 993.59C826.677 993.475 825.783 993.475 824.9 993.59L824.53 994.5C825.766 994.384 826.956 993.973 828 993.3C828.402 993.063 828.699 992.683 828.833 992.236C828.966 991.789 828.926 991.309 828.72 990.89C827.889 990.072 826.784 989.591 825.619 989.539C824.454 989.487 823.31 989.869 822.41 990.61C822.1 990.99 822.68 991.06 822.94 991.04C823.473 991.044 823.989 990.852 824.39 990.5H824.4Z" fill="#989798"/>
<path d="M832.49 990.94C833.109 993.335 833.471 995.789 833.57 998.26C833.57 998.54 834.57 998.26 834.73 998.26C834.89 998.26 835.73 998.02 835.73 997.69C835.631 995.219 835.269 992.765 834.65 990.37C834.55 989.97 832.37 990.53 832.48 990.95L832.49 990.94Z" fill="#989798"/>
<path d="M838.13 990.25C838.874 992.778 839.425 995.359 839.78 997.97L841.95 997.38L841.7 996.89C841.42 996.33 839.33 997.08 839.53 997.48L839.78 997.97C839.95 998.31 840.69 998.12 840.96 998.04C841.23 997.96 841.96 997.76 841.96 997.38C841.609 994.772 841.06 992.195 840.32 989.67C840.16 989.14 837.99 989.73 838.14 990.25H838.13Z" fill="#989798"/>
<path d="M840.29 990.41L840.49 990.31C840.398 990.355 840.301 990.385 840.2 990.4H840.26C840.505 990.404 840.747 990.445 840.98 990.52C841.481 990.687 841.939 990.964 842.32 991.33C843.094 992.098 843.643 993.063 843.91 994.12C844.055 994.664 844.115 995.227 844.09 995.79C844.113 996.316 843.95 996.832 843.63 997.25C843.63 997.25 843.43 997.37 843.52 997.33C843.61 997.29 843.33 997.33 843.52 997.33C843.324 997.352 843.126 997.352 842.93 997.33C842.392 997.306 841.865 997.173 841.38 996.94C840.916 996.815 840.423 996.861 839.99 997.07C839.9 997.07 838.99 997.52 839.33 997.67C840.516 998.2 841.839 998.34 843.11 998.07C844.41 997.82 845.92 997.34 846.19 995.88C846.384 994.743 846.235 993.575 845.763 992.522C845.291 991.47 844.518 990.582 843.54 989.97C842.835 989.638 842.061 989.479 841.282 989.505C840.503 989.531 839.742 989.742 839.06 990.12C838.87 990.22 838.33 990.52 838.79 990.66C839.31 990.733 839.84 990.635 840.3 990.38L840.29 990.41Z" fill="#989798"/>
<path d="M847.76 990.74C848 992 848.22 993.27 848.4 994.54C848.48 995.15 848.56 995.76 848.63 996.37C848.63 996.68 848.7 996.98 848.73 997.29C848.735 997.6 848.775 997.909 848.85 998.21C849.02 998.71 849.61 998.8 850.07 998.82C850.53 998.84 851.3 998.82 851.91 998.76C852.685 998.779 853.451 998.592 854.13 998.22C854.48 998.01 854.91 997.47 854.41 997.16C854.181 997.079 853.937 997.047 853.695 997.064C853.452 997.081 853.216 997.148 853 997.26C852.88 997.26 852 997.7 852.36 997.91C852.72 998.12 851.98 998.34 852.85 997.98C853.72 997.62 853.26 997.81 852.99 997.83H852.69C852.28 997.83 851.76 997.9 851.41 997.83C851.06 997.76 850.99 997.52 850.96 997.18C850.93 996.84 850.86 996.18 850.8 995.73C850.59 993.84 850.29 991.96 849.93 990.1C849.83 989.6 847.64 990.1 847.76 990.68V990.74Z" fill="#989798"/>
<path d="M849.94 995L852.81 994.37C853.077 994.308 853.325 994.181 853.53 994C853.64 993.89 853.8 993.68 853.74 993.5C853.57 993.04 852.86 993.13 852.5 993.21L849.63 993.84C849.362 993.905 849.115 994.036 848.91 994.22C848.8 994.33 848.64 994.54 848.7 994.71C848.87 995.18 849.59 995.08 849.94 995Z" fill="#989798"/>
<path d="M850.46 991.42C850.6 991.31 850.26 991.54 850.46 991.42L850.59 991.35C850.59 991.35 850.34 991.46 850.5 991.35H850.62H850.53C850.72 991.29 850.23 991.35 850.43 991.35H850.56C850.67 991.35 850.27 991.35 850.49 991.35H850.62C850.8 991.35 850.4 991.35 850.62 991.35L850.89 991.41C850.99 991.41 850.73 991.35 850.89 991.41L851.03 991.47C851.123 991.511 851.213 991.557 851.3 991.61L851.15 991.52C851.394 991.679 851.601 991.886 851.76 992.13L851.68 992.01C851.83 992.248 851.919 992.519 851.94 992.8C851.94 992.97 852.24 993.06 852.35 993.08C852.621 993.121 852.898 993.1 853.16 993.02C853.52 992.92 854.16 992.69 854.16 992.22C854.108 991.795 853.933 991.394 853.658 991.066C853.383 990.738 853.019 990.496 852.61 990.37C851.98 990.182 851.315 990.146 850.668 990.264C850.022 990.382 849.413 990.652 848.89 991.05C848.816 991.099 848.756 991.166 848.715 991.245C848.675 991.323 848.656 991.412 848.66 991.5C848.66 991.67 848.93 991.75 849.08 991.78C849.629 991.849 850.182 991.698 850.62 991.36L850.46 991.42Z" fill="#989798"/>
<path d="M816.11 1004.92C816.521 1006.15 816.806 1007.41 816.96 1008.7L818.41 1008.32C817.784 1007.34 817.496 1006.19 817.59 1005.03C817.597 1004.77 817.673 1004.53 817.81 1004.31V1004.31C817.687 1004.37 817.555 1004.4 817.42 1004.41C816.87 1004.55 816.96 1004.41 817.12 1004.54C817.216 1004.61 817.289 1004.71 817.33 1004.82C817.586 1005.37 817.686 1005.97 817.62 1006.57C817.62 1006.69 818.1 1006.62 818.12 1006.62C818.391 1006.58 818.654 1006.49 818.9 1006.37C818.805 1006.45 818.696 1006.5 818.579 1006.53C818.462 1006.56 818.34 1006.57 818.22 1006.55H818.3L818.45 1006.6C818.547 1006.65 818.638 1006.71 818.72 1006.78C818.803 1006.88 818.864 1006.99 818.897 1007.11C818.93 1007.24 818.934 1007.37 818.91 1007.49C818.858 1007.76 818.704 1008.01 818.48 1008.17C818.444 1008.2 818.404 1008.23 818.36 1008.25C818.43 1008.25 818.24 1008.33 818.36 1008.25H818.29H818.15C817.958 1008.29 817.77 1008.34 817.59 1008.42C817.53 1008.42 817.32 1008.54 817.29 1008.63C817.26 1008.72 817.8 1008.73 817.86 1008.72C818.79 1008.57 820.34 1008.11 820.37 1006.93C820.371 1006.74 820.311 1006.55 820.198 1006.39C820.085 1006.23 819.925 1006.11 819.74 1006.05C819.415 1005.96 819.076 1005.94 818.742 1005.99C818.409 1006.03 818.089 1006.15 817.8 1006.32L819.07 1006.12C819.112 1005.75 819.088 1005.37 819 1005C818.947 1004.68 818.816 1004.38 818.62 1004.12C818.31 1003.79 817.75 1003.9 817.36 1004C816.921 1004.07 816.53 1004.32 816.27 1004.68C816.139 1004.98 816.078 1005.3 816.09 1005.62C816.07 1005.97 816.09 1006.32 816.15 1006.67C816.265 1007.38 816.527 1008.06 816.92 1008.67C817.04 1008.86 817.53 1008.67 817.7 1008.67C817.87 1008.67 818.4 1008.5 818.37 1008.29C818.213 1007 817.928 1005.73 817.52 1004.5C817.46 1004.31 816.87 1004.5 816.75 1004.5C816.63 1004.5 816.01 1004.69 816.07 1004.88L816.11 1004.92Z" fill="#989798"/>
<path d="M820.29 1005C820.45 1006.09 820.53 1007.19 820.53 1008.29L821.97 1007.9C821.736 1006.66 821.784 1005.39 822.11 1004.17L820.71 1004.55C821.276 1004.8 821.778 1005.18 822.183 1005.65C822.587 1006.12 822.883 1006.67 823.05 1007.27C823.11 1007.49 823.7 1007.34 823.83 1007.27C824.006 1007.23 824.175 1007.15 824.33 1007.06C824.39 1007.06 824.52 1006.93 824.49 1006.84C824.316 1006.22 824.011 1005.65 823.595 1005.16C823.179 1004.67 822.662 1004.28 822.08 1004.01C821.837 1003.93 821.573 1003.93 821.33 1004.01C821.206 1004.04 821.085 1004.08 820.97 1004.14C820.9 1004.14 820.7 1004.27 820.68 1004.36C820.336 1005.62 820.284 1006.95 820.53 1008.23C820.53 1008.32 820.73 1008.33 820.78 1008.34C820.959 1008.34 821.138 1008.32 821.31 1008.27C821.5 1008.21 821.97 1008.09 821.97 1007.84C821.978 1006.74 821.901 1005.64 821.74 1004.55C821.74 1004.46 821.54 1004.45 821.49 1004.45C821.311 1004.44 821.131 1004.47 820.96 1004.52C820.782 1004.56 820.613 1004.62 820.46 1004.72C820.39 1004.72 820.28 1004.84 820.29 1004.94V1005Z" fill="#989798"/>
<path d="M822.11 1007.4L823.59 1006.28C823.7 1006.2 823.84 1006.09 823.86 1005.95C823.873 1005.89 823.866 1005.83 823.838 1005.78C823.81 1005.73 823.765 1005.69 823.71 1005.67C823.56 1005.6 823.393 1005.58 823.23 1005.6C823.035 1005.62 822.847 1005.69 822.68 1005.79L821.19 1006.92C821.09 1007 820.95 1007.1 820.92 1007.24C820.912 1007.3 820.924 1007.36 820.953 1007.41C820.981 1007.46 821.026 1007.5 821.08 1007.53C821.231 1007.6 821.398 1007.62 821.56 1007.59C821.756 1007.57 821.945 1007.51 822.11 1007.4V1007.4Z" fill="#989798"/>
<path d="M823.51 1005C823.733 1005.59 823.916 1006.2 824.06 1006.81C824.177 1007.1 824.398 1007.34 824.68 1007.47C825.168 1007.64 825.702 1007.64 826.19 1007.47C826.461 1007.43 826.719 1007.33 826.946 1007.17C827.172 1007.02 827.362 1006.82 827.5 1006.58C827.6 1006.34 827.01 1006.44 826.93 1006.46C826.739 1006.49 826.553 1006.54 826.38 1006.63C826.28 1006.63 826.12 1006.73 826.08 1006.84C826.047 1006.91 826.01 1006.98 825.97 1007.04V1007.04H825.92L825.83 1007.12H825.91H825.97H826.07H826.15C826.04 1007.12 826.31 1007.12 826.15 1007.12C825.99 1007.12 826.23 1007.12 826.15 1007.12H826.03C825.96 1007.12 826.03 1007.12 826.03 1007.12C825.892 1007.05 825.767 1006.95 825.66 1006.84V1006.84C825.16 1006.24 825.3 1005.36 824.91 1004.71C824.86 1004.62 824.74 1004.62 824.66 1004.62C824.481 1004.62 824.302 1004.64 824.13 1004.69C823.954 1004.73 823.786 1004.8 823.63 1004.89C823.63 1004.89 823.41 1005.02 823.46 1005.09L823.51 1005Z" fill="#989798"/>
<path d="M827.35 1005C827.29 1005.43 827.29 1005.86 827.35 1006.29C827.388 1006.7 827.533 1007.09 827.77 1007.42C828.01 1007.69 828.342 1007.85 828.7 1007.89C829.25 1007.97 829.81 1007.86 830.29 1007.58C830.5 1007.46 830.72 1007.14 830.41 1006.99C830.244 1006.94 830.068 1006.92 829.896 1006.94C829.723 1006.97 829.557 1007.03 829.41 1007.12C829.29 1007.19 829.57 1007.05 829.41 1007.12C829.25 1007.19 829.61 1007.07 829.48 1007.12C829.62 1007.12 829.48 1007.12 829.48 1007.12C829.48 1007.12 829.65 1007.12 829.53 1007.12H829.43C829.43 1007.12 829.58 1007.12 829.43 1007.12H829.34C829.25 1007.12 829.34 1007.12 829.34 1007.12H829.25H829.16C829.22 1007.12 829.16 1007.12 829.16 1007.12L829.09 1007.06C829.041 1007 828.998 1006.94 828.96 1006.87L829.01 1006.96C828.795 1006.49 828.692 1005.97 828.71 1005.45V1005.56C828.7 1005.38 828.7 1005.2 828.71 1005.02C828.71 1004.69 828.31 1004.65 828.08 1004.69C827.886 1004.71 827.698 1004.77 827.53 1004.87C827.43 1004.95 827.28 1005.05 827.26 1005.19L827.35 1005Z" fill="#989798"/>
<path d="M828.25 1006.82C828.593 1006.79 828.93 1006.71 829.25 1006.58C829.546 1006.46 829.823 1006.29 830.07 1006.09C830.121 1006.05 830.161 1006 830.185 1005.94C830.21 1005.88 830.218 1005.81 830.21 1005.75C830.184 1005.69 830.144 1005.64 830.093 1005.6C830.043 1005.56 829.983 1005.54 829.92 1005.53C829.743 1005.48 829.557 1005.48 829.38 1005.53L829.19 1005.59C829.081 1005.64 828.98 1005.7 828.89 1005.78V1005.78L829.02 1005.68C828.933 1005.75 828.839 1005.81 828.74 1005.86L828.9 1005.78C828.801 1005.83 828.698 1005.88 828.59 1005.91L828.78 1005.85L828.47 1005.93H828.67C828.6 1005.93 828.53 1005.93 828.46 1005.93C828.265 1005.95 828.077 1006.02 827.91 1006.12C827.81 1006.18 827.65 1006.32 827.64 1006.45C827.64 1006.79 828.04 1006.82 828.28 1006.8L828.25 1006.82Z" fill="#989798"/>
<path d="M828.16 1005.29L828.36 1005.23H828.24H828.31H828.4H828.6C828.34 1005.23 828.6 1005.23 828.66 1005.23H828.94H829.36C829.539 1005.25 829.719 1005.23 829.89 1005.17C830.068 1005.13 830.237 1005.06 830.39 1004.96C830.44 1004.96 830.59 1004.82 830.55 1004.73C830.51 1004.64 830.38 1004.62 830.29 1004.61C829.529 1004.51 828.756 1004.57 828.02 1004.79C827.848 1004.84 827.683 1004.91 827.53 1005C827.53 1005 827.33 1005.15 827.37 1005.23C827.41 1005.31 827.54 1005.35 827.63 1005.35C827.809 1005.36 827.988 1005.34 828.16 1005.29V1005.29Z" fill="#989798"/>
<path d="M830.32 1005.35C830.44 1006.1 830.6 1006.85 830.78 1007.59C830.86 1007.91 831.27 1007.98 831.55 1007.94C831.83 1007.9 832.24 1007.68 832.24 1007.35C832.232 1006.54 832.128 1005.73 831.93 1004.95L831.82 1005.38C831.9 1005.27 831.6 1005.53 831.62 1005.52L831.48 1005.57H831.35H831.26C831.26 1005.57 831.14 1005.52 831.18 1005.57H831.26C831.26 1005.57 831.14 1005.5 831.26 1005.57L831.38 1005.65C831.38 1005.65 831.47 1005.74 831.38 1005.65C831.29 1005.56 831.38 1005.65 831.38 1005.65L831.51 1005.8L831.81 1006.15L832.98 1007.52C833.082 1007.62 833.211 1007.7 833.352 1007.73C833.493 1007.77 833.641 1007.76 833.78 1007.72C833.925 1007.69 834.059 1007.62 834.165 1007.52C834.272 1007.42 834.346 1007.28 834.38 1007.14C834.475 1006.29 834.475 1005.43 834.38 1004.58C834.38 1004.44 834.18 1004.31 834.07 1004.27C833.895 1004.22 833.709 1004.22 833.532 1004.27C833.356 1004.31 833.196 1004.41 833.07 1004.54C833.023 1004.6 832.989 1004.67 832.97 1004.74C832.951 1004.82 832.948 1004.89 832.96 1004.97C832.965 1005.05 832.965 1005.14 832.96 1005.22V1005.07C833.03 1005.79 833.03 1006.52 832.96 1007.24L834.35 1006.87L833.35 1005.68C833.058 1005.26 832.692 1004.89 832.27 1004.6C831.965 1004.43 831.608 1004.39 831.27 1004.47C831.048 1004.53 830.847 1004.65 830.69 1004.82C830.602 1004.91 830.546 1005.03 830.53 1005.15C830.516 1005.24 830.516 1005.33 830.53 1005.42C830.65 1005.91 830.73 1006.41 830.77 1006.91V1006.76C830.77 1006.98 830.77 1007.19 830.77 1007.41L832.23 1007.16C832.04 1006.42 831.89 1005.67 831.77 1004.92C831.747 1004.85 831.706 1004.78 831.653 1004.73C831.599 1004.67 831.533 1004.63 831.46 1004.61C831.278 1004.55 831.082 1004.55 830.9 1004.61C830.58 1004.71 830.26 1004.95 830.32 1005.33V1005.35Z" fill="#989798"/>
<path d="M837.76 1004.51C837.478 1004.38 837.171 1004.31 836.86 1004.31C836.549 1004.31 836.242 1004.38 835.96 1004.51C835.72 1004.58 835.497 1004.7 835.303 1004.86C835.109 1005.01 834.948 1005.21 834.83 1005.43C834.766 1005.65 834.751 1005.89 834.784 1006.12C834.818 1006.35 834.899 1006.57 835.024 1006.77C835.149 1006.96 835.313 1007.13 835.507 1007.26C835.702 1007.39 835.921 1007.47 836.15 1007.51C836.607 1007.56 837.068 1007.49 837.49 1007.31C837.821 1007.17 838.133 1006.99 838.42 1006.77C838.48 1006.77 838.6 1006.62 838.58 1006.52C838.56 1006.42 838.39 1006.38 838.31 1006.37C837.955 1006.35 837.603 1006.45 837.31 1006.65L837.07 1006.81H837L836.89 1006.87C836.82 1006.87 836.89 1006.87 836.94 1006.87H836.87H836.98H837.06C836.93 1006.87 837.24 1006.87 837.06 1006.87C837.17 1006.87 837.06 1006.87 837.06 1006.87C837.06 1006.87 836.91 1006.8 836.97 1006.87L836.75 1006.71C836.619 1006.6 836.505 1006.48 836.41 1006.34L836.46 1006.41C836.288 1006.16 836.197 1005.86 836.2 1005.56V1005.64C836.207 1005.47 836.255 1005.31 836.34 1005.17C836.28 1005.27 836.34 1005.17 836.34 1005.17L836.42 1005.09L836.35 1005.14H836.27C836.45 1005.14 836.1 1005.14 836.27 1005.14C836.44 1005.14 836.07 1005.14 836.27 1005.14C836.27 1005.14 836.35 1005.14 836.38 1005.14C836.528 1005.21 836.688 1005.24 836.85 1005.24C837.012 1005.24 837.172 1005.21 837.32 1005.14C837.471 1005.09 837.608 1005.01 837.72 1004.9C837.72 1004.83 837.83 1004.72 837.72 1004.66L837.76 1004.51Z" fill="#989798"/>
<path d="M838.39 1004.45C838.468 1005.63 838.673 1006.8 839 1007.94C839.07 1008.2 839.63 1008.08 839.8 1008.03C839.975 1007.99 840.141 1007.91 840.29 1007.81C840.36 1007.75 840.48 1007.66 840.45 1007.55C840.123 1006.41 839.918 1005.24 839.84 1004.06C839.84 1003.96 839.63 1003.92 839.57 1003.91C839.391 1003.89 839.211 1003.91 839.04 1003.97C838.84 1004.03 838.37 1004.16 838.39 1004.45Z" fill="#989798"/>
<path d="M839.9 1005.45C840.281 1006.36 840.547 1007.32 840.69 1008.3L842.14 1007.92C842.002 1007.4 841.938 1006.86 841.95 1006.32C841.96 1006.05 841.99 1005.78 842.04 1005.51C842.058 1005.4 842.081 1005.3 842.11 1005.19C842.105 1005.16 842.105 1005.14 842.11 1005.11C842.11 1005.11 842.11 1005.11 842.11 1005.11C841.939 1005.23 841.738 1005.29 841.53 1005.3H841.42H841.47L841.58 1005.37C841.676 1005.44 841.76 1005.53 841.83 1005.63C841.997 1005.83 842.15 1006.03 842.29 1006.25C842.565 1006.66 842.796 1007.11 842.98 1007.57C843.09 1007.84 843.57 1007.76 843.79 1007.7C843.968 1007.66 844.135 1007.58 844.28 1007.47C844.35 1007.4 844.47 1007.29 844.43 1007.18C844.24 1006.72 844.012 1006.28 843.75 1005.86C843.62 1005.66 843.48 1005.46 843.34 1005.27C843.2 1005.08 843.036 1004.91 842.85 1004.76C842.558 1004.56 842.199 1004.48 841.85 1004.54C841.641 1004.55 841.436 1004.61 841.249 1004.7C841.062 1004.8 840.895 1004.93 840.76 1005.09C840.639 1005.27 840.563 1005.48 840.54 1005.7C840.494 1005.96 840.467 1006.23 840.46 1006.49C840.43 1007.09 840.49 1007.69 840.64 1008.27C840.64 1008.39 840.82 1008.43 840.91 1008.45C841.088 1008.49 841.272 1008.49 841.45 1008.45C841.66 1008.39 842.13 1008.22 842.09 1007.93C841.948 1006.95 841.683 1005.99 841.3 1005.08C841.19 1004.8 840.71 1004.88 840.49 1004.94C840.313 1004.98 840.147 1005.06 840 1005.17C839.93 1005.24 839.81 1005.35 839.85 1005.46L839.9 1005.45Z" fill="#989798"/>
<path d="M842.57 1008L844.19 1007C844.254 1006.96 844.31 1006.9 844.353 1006.84C844.396 1006.78 844.425 1006.71 844.44 1006.63C844.45 1006.56 844.438 1006.49 844.408 1006.43C844.378 1006.37 844.33 1006.32 844.27 1006.28C844.109 1006.21 843.932 1006.18 843.757 1006.2C843.581 1006.21 843.413 1006.28 843.27 1006.38L841.66 1007.38C841.594 1007.42 841.537 1007.48 841.492 1007.54C841.448 1007.61 841.416 1007.68 841.4 1007.76C841.393 1007.83 841.405 1007.89 841.435 1007.96C841.465 1008.02 841.512 1008.07 841.57 1008.1C841.73 1008.17 841.907 1008.21 842.082 1008.19C842.258 1008.17 842.426 1008.11 842.57 1008.01V1008Z" fill="#989798"/>
<path d="M847.5 1004.66C847.175 1004.59 846.838 1004.58 846.511 1004.64C846.183 1004.71 845.873 1004.84 845.6 1005.03C845.416 1005.14 845.263 1005.3 845.155 1005.49C845.046 1005.67 844.986 1005.88 844.98 1006.1C844.979 1006.52 845.124 1006.93 845.39 1007.25C845.527 1007.43 845.707 1007.57 845.912 1007.67C846.118 1007.77 846.343 1007.81 846.57 1007.8C846.964 1007.8 847.352 1007.7 847.7 1007.51C847.824 1007.46 847.935 1007.38 848.028 1007.28C848.121 1007.18 848.193 1007.07 848.24 1006.94C848.33 1006.66 847.78 1006.7 847.64 1006.72C847.447 1006.74 847.26 1006.81 847.09 1006.9C846.99 1006.96 846.84 1007.04 846.8 1007.16C846.806 1007.19 846.806 1007.21 846.8 1007.24V1007.24C846.74 1007.32 846.88 1007.16 846.8 1007.24C846.72 1007.32 846.93 1007.17 846.8 1007.24L846.91 1007.19C846.83 1007.19 846.91 1007.19 847.01 1007.19H847.14C847.32 1007.19 847.02 1007.19 847.14 1007.19L847.03 1007.14L847 1007C846.885 1006.91 846.787 1006.8 846.71 1006.67L846.76 1006.74C846.561 1006.44 846.456 1006.1 846.46 1005.74V1005.83C846.47 1005.69 846.5 1005.56 846.55 1005.43C846.55 1005.43 846.62 1005.33 846.55 1005.43V1005.37L846.62 1005.3C846.68 1005.23 846.55 1005.3 846.62 1005.3C846.643 1005.3 846.667 1005.3 846.69 1005.3C846.77 1005.24 846.59 1005.3 846.69 1005.3C846.79 1005.3 846.78 1005.3 846.63 1005.3C846.63 1005.3 846.77 1005.3 846.63 1005.3H846.58H846.47C846.58 1005.3 846.32 1005.3 846.41 1005.3C846.5 1005.3 846.26 1005.3 846.41 1005.3C846.56 1005.3 846.31 1005.3 846.41 1005.3C846.752 1005.37 847.107 1005.31 847.41 1005.14C847.52 1005.08 847.66 1005 847.7 1004.87C847.706 1004.85 847.707 1004.82 847.703 1004.8C847.699 1004.78 847.69 1004.76 847.676 1004.74C847.663 1004.72 847.646 1004.7 847.626 1004.69C847.606 1004.68 847.583 1004.67 847.56 1004.67L847.5 1004.66Z" fill="#989798"/>
<path d="M848.44 1006C848.585 1006.57 848.665 1007.16 848.68 1007.75L850.13 1007.36C849.947 1006.91 849.823 1006.44 849.76 1005.96C849.745 1005.72 849.745 1005.48 849.76 1005.24C849.76 1005.13 849.76 1005.02 849.76 1004.92C849.76 1004.82 849.76 1004.84 849.76 1004.81C849.754 1004.79 849.754 1004.76 849.76 1004.74C849.691 1004.84 849.587 1004.91 849.47 1004.93L849.09 1005.03C848.78 1005.03 848.69 1005.03 848.83 1005.03L848.98 1005.13L849.28 1005.36C849.466 1005.52 849.643 1005.68 849.81 1005.86C850.134 1006.2 850.41 1006.58 850.63 1007C850.76 1007.25 851.22 1007.16 851.43 1007.1C851.608 1007.06 851.775 1006.98 851.92 1006.87C851.98 1006.87 852.13 1006.71 852.08 1006.61C851.671 1005.85 851.101 1005.18 850.41 1004.66C850.222 1004.49 849.99 1004.38 849.74 1004.34C849.458 1004.31 849.173 1004.34 848.91 1004.45C848.702 1004.52 848.515 1004.64 848.37 1004.8C848.258 1005 848.21 1005.23 848.23 1005.46C848.215 1005.7 848.215 1005.94 848.23 1006.18C848.282 1006.71 848.41 1007.23 848.61 1007.73C848.72 1007.99 849.22 1007.88 849.41 1007.83C849.6 1007.78 850.07 1007.63 850.06 1007.34C850.045 1006.75 849.964 1006.16 849.82 1005.59C849.82 1005.49 849.63 1005.46 849.55 1005.44C849.371 1005.42 849.191 1005.44 849.02 1005.5C848.842 1005.54 848.675 1005.61 848.53 1005.72C848.45 1005.78 848.34 1005.87 848.37 1005.98L848.44 1006Z" fill="#989798"/>
<path d="M849.15 1007.19C850.003 1007.04 850.804 1006.68 851.48 1006.14C851.48 1006.14 851.58 1006.01 851.48 1005.96C851.359 1005.93 851.231 1005.93 851.11 1005.96C850.92 1005.98 850.732 1006.02 850.55 1006.08C850.402 1006.13 850.263 1006.2 850.14 1006.29L849.98 1006.42L849.9 1006.48C850.03 1006.38 849.9 1006.48 849.9 1006.48L849.75 1006.57L849.66 1006.62L849.47 1006.71H849.55H849.45H849.35H849.47H849.37H849.48H849.43C849.241 1006.75 849.057 1006.8 848.88 1006.88C848.81 1006.88 848.61 1007.01 848.58 1007.1C848.55 1007.19 848.58 1007.22 848.7 1007.23C848.849 1007.26 849.002 1007.26 849.15 1007.23V1007.19Z" fill="#989798"/>
<path d="M848.58 1007.21C848.616 1007.12 848.646 1007.03 848.67 1006.93C848.68 1006.84 848.68 1006.75 848.67 1006.66C848.65 1006.51 848.599 1006.37 848.52 1006.24C848.399 1006.05 848.235 1005.89 848.042 1005.78C847.85 1005.67 847.633 1005.6 847.41 1005.58C847.28 1005.57 847.15 1005.57 847.02 1005.58C846.825 1005.6 846.638 1005.67 846.47 1005.77C846.344 1005.85 846.251 1005.97 846.21 1006.11C846.21 1006.45 846.6 1006.52 846.85 1006.49H846.69C846.756 1006.5 846.82 1006.52 846.88 1006.55L846.74 1006.49C846.83 1006.53 846.914 1006.58 846.99 1006.64L846.89 1006.56C846.997 1006.64 847.082 1006.74 847.14 1006.86V1006.75C847.194 1006.86 847.225 1006.97 847.23 1007.09V1007C847.244 1007.08 847.244 1007.17 847.23 1007.25V1007.13C847.217 1007.16 847.211 1007.19 847.211 1007.22C847.211 1007.25 847.217 1007.28 847.23 1007.31C847.225 1007.34 847.228 1007.37 847.238 1007.4C847.249 1007.43 847.267 1007.45 847.29 1007.47C847.342 1007.52 847.404 1007.56 847.473 1007.59C847.542 1007.62 847.616 1007.63 847.69 1007.63C847.886 1007.64 848.083 1007.61 848.26 1007.52L848.42 1007.44C848.507 1007.38 848.582 1007.31 848.64 1007.22L848.58 1007.21Z" fill="#989798"/>
<path d="M827.16 1013.1C827.313 1013.7 827.52 1014.29 827.78 1014.86C827.868 1015.1 828.011 1015.31 828.196 1015.49C828.382 1015.66 828.606 1015.79 828.85 1015.86C829.406 1015.96 829.979 1015.87 830.48 1015.61C830.981 1015.35 831.382 1014.93 831.62 1014.42C831.84 1013.85 831.81 1013.22 832.01 1012.64C832.01 1012.55 832.12 1012.45 832.14 1012.37C832.16 1012.29 832.6 1012.19 831.89 1012.37C831.18 1012.55 831.57 1012.37 831.69 1012.52C831.866 1012.69 832.026 1012.88 832.17 1013.08C832.383 1013.51 832.548 1013.97 832.66 1014.44C832.758 1014.93 832.986 1015.38 833.32 1015.75C833.627 1015.92 833.985 1015.98 834.33 1015.91C834.676 1015.85 834.987 1015.66 835.21 1015.39C835.587 1014.82 835.782 1014.15 835.77 1013.46C835.77 1013.1 834.32 1013.34 834.32 1013.85C834.31 1014.15 834.259 1014.45 834.17 1014.74C834.115 1014.97 834.024 1015.2 833.9 1015.4L834.45 1015.22C834.68 1015.22 834.73 1015.22 834.6 1015.14C834.551 1015.09 834.511 1015.04 834.48 1014.98C834.424 1014.88 834.374 1014.77 834.33 1014.66C834.24 1014.45 834.17 1014.22 834.1 1014C833.984 1013.53 833.817 1013.08 833.6 1012.65C833.494 1012.43 833.34 1012.23 833.15 1012.07C832.96 1011.92 832.738 1011.8 832.5 1011.74C832.194 1011.7 831.883 1011.73 831.593 1011.84C831.303 1011.94 831.044 1012.12 830.84 1012.35C830.554 1012.79 830.391 1013.3 830.37 1013.83C830.331 1014.12 830.26 1014.41 830.16 1014.68C830.108 1014.8 830.037 1014.91 829.95 1015C829.95 1015 829.78 1015.15 829.77 1015.17C829.76 1015.19 829.77 1014.96 829.86 1015.17L829.73 1015.12C829.538 1014.94 829.379 1014.73 829.26 1014.49C828.983 1013.91 828.765 1013.3 828.61 1012.67C828.51 1012.24 827.05 1012.62 827.16 1013.06V1013.1Z" fill="#989798"/>
<path d="M835 1012.52L837 1014.96C837.29 1015.3 838 1015.09 838.26 1014.82C838.587 1014.48 838.864 1014.09 839.08 1013.67L837.83 1014.01L837.96 1014.09C838.026 1014.16 838.086 1014.23 838.14 1014.31C838.223 1014.45 838.274 1014.6 838.29 1014.76C838.29 1014.88 838.48 1014.97 838.59 1015C838.767 1015.04 838.953 1015.04 839.13 1015C839.41 1014.91 839.79 1014.72 839.74 1014.38C839.698 1014.14 839.602 1013.91 839.461 1013.7C839.319 1013.5 839.134 1013.33 838.92 1013.21C838.705 1013.11 838.462 1013.09 838.233 1013.15C838.004 1013.21 837.804 1013.35 837.67 1013.55C837.582 1013.73 837.482 1013.9 837.37 1014.06C837.273 1014.2 837.162 1014.34 837.04 1014.46L838.3 1014.33L836.3 1011.89C836.08 1011.64 835.59 1011.71 835.3 1011.89C835.01 1012.07 834.7 1012.27 834.93 1012.54L835 1012.52Z" fill="#989798"/>
<path d="M785.5 953C786 951.63 786.42 950.19 787 948.85C787.07 948.69 787.57 947.95 787.36 948.15C787.36 948.15 788.11 947.7 787.72 947.91C788.07 947.72 788.43 947.55 788.78 947.37L792.78 945.37L794.71 944.37L795.71 943.89L796.35 943.56C796.84 943.34 796.7 943.37 795.92 943.64L794.53 943.56C795.77 943.76 797.01 945.27 797.61 946.33C798.283 947.548 798.53 948.956 798.31 950.33C797.91 952.82 803.78 951.9 804.14 949.7C804.331 948.472 804.252 947.217 803.906 946.023C803.56 944.829 802.958 943.726 802.14 942.79C801.247 941.749 800.124 940.931 798.86 940.4C796.86 939.58 794.86 940.4 793.03 941.31C790.11 942.78 787.03 944.1 784.22 945.79C782.883 946.552 781.859 947.764 781.33 949.21C780.76 950.67 780.26 952.21 779.73 953.63C779.26 954.92 781.54 955.2 782.29 955.1C782.973 955.081 783.639 954.876 784.213 954.505C784.788 954.135 785.25 953.615 785.55 953H785.5Z" fill="#EEF0EC"/>
<path d="M779.25 954.14C780.67 959.732 781.471 965.463 781.64 971.23C781.71 974.06 781.53 976.87 781.55 979.7C781.55 982.07 781.61 984.82 782.8 986.95C783.99 989.08 786.39 989.85 788.88 989.47C791.63 989.06 793.69 987.39 796.2 986.47C798.71 985.55 801.2 984.66 803.2 982.78C804.834 981.178 805.86 979.056 806.1 976.78C806.285 973.81 805.912 970.832 805 968C804.33 965.58 803.07 963.83 800.52 963.32C799.44 963.1 796.05 963.7 795.82 965.13C795.495 967.03 795.495 968.971 795.82 970.87C796.08 972.45 801.92 971.12 801.61 969.32C801.33 967.645 801.33 965.935 801.61 964.26L796.91 966.07C798.29 966.35 798.91 968.42 799.25 969.56C799.884 971.695 800.266 973.896 800.39 976.12C800.515 978.166 799.947 980.195 798.78 981.88C797.63 983.39 795.96 983.88 794.25 984.48C793.255 984.844 792.286 985.275 791.35 985.77C790.94 985.99 790.54 986.23 790.13 986.46C790.19 986.46 789.44 986.86 789.43 986.84C789.42 986.82 789.88 986.84 790.02 986.76C790.34 986.57 790.08 986.81 789.8 986.59C789.68 986.51 789.55 986.44 789.44 986.35C789.099 986.073 788.814 985.734 788.6 985.35C788.186 984.6 787.902 983.785 787.76 982.94C786.85 978.28 787.59 973.4 787.4 968.68C787.174 963.237 786.387 957.831 785.05 952.55C784.63 950.9 778.82 952.41 779.25 954.1V954.14Z" fill="#EEF0EC"/>
<path d="M827.18 933H826.38L824.61 935.35L830.54 934.27C831.48 934.1 832.42 933.92 833.36 933.77C834.08 933.64 832.77 933.85 833.5 933.77C834.06 933.7 833.21 933.77 833.72 933.77C833.96 933.77 834.01 933.77 833.85 933.77H834.05C834.189 933.799 834.327 933.84 834.46 933.89C834.29 933.67 834.21 933.66 834.23 933.89L834.5 933.3L834.41 933.39L838.29 931.98H838.17C837.394 932.029 836.632 932.202 835.91 932.49C835.313 932.673 834.761 932.98 834.29 933.39C833.38 934.39 835.12 934.44 835.69 934.39C836.625 934.347 837.544 934.13 838.4 933.75C838.9 933.53 839.78 933.16 839.99 932.59C840.2 932.02 839.41 931.59 838.9 931.49C837.245 931.174 835.542 931.205 833.9 931.58C831.16 932.06 828.43 932.58 825.69 933.08C824.924 933.207 824.179 933.442 823.48 933.78C823.064 933.937 822.698 934.203 822.42 934.55C821.86 935.46 823.42 935.45 823.93 935.43H824.73C825.504 935.402 826.269 935.257 827 935C827.593 934.809 828.14 934.499 828.61 934.09C829.52 933.09 827.79 933.09 827.22 933.09L827.18 933Z" fill="#EEF0EC"/>
<path d="M827.84 935.59C819.75 947.94 820.45 963.46 814.06 976.5C813.44 977.76 814.62 978.63 815.78 978.75C816.509 978.839 817.248 978.725 817.916 978.422C818.585 978.118 819.157 977.637 819.57 977.03C825.95 964.03 825.28 948.42 833.35 936.12C834.14 934.91 832.66 933.97 831.63 933.86C830.901 933.78 830.164 933.899 829.497 934.203C828.83 934.508 828.257 934.987 827.84 935.59V935.59Z" fill="#EEF0EC"/>
<path d="M816.3 979.63C815.48 980.15 816.12 979.75 816.3 979.63L816.76 979.38C817.09 979.2 817.43 979.04 817.76 978.88L818.76 978.48L818.44 978.6L818.58 978.55L819.16 978.37C819.85 978.16 820.54 978.03 821.24 977.87C820.24 978.1 820.96 977.87 821.24 977.87L821.69 977.81C822.103 977.77 822.513 977.74 822.92 977.72C823.709 977.664 824.466 977.383 825.1 976.91C825.362 976.727 825.585 976.494 825.756 976.225C825.928 975.955 826.045 975.655 826.1 975.34C826.16 973.85 824.65 973.34 823.4 973.34C819.513 973.548 815.745 974.753 812.46 976.84C811.46 977.49 811.03 979.17 812.17 979.91C812.821 980.264 813.56 980.422 814.299 980.363C815.038 980.305 815.743 980.033 816.33 979.58L816.3 979.63Z" fill="#EEF0EC"/>
<path d="M823.44 967C824.51 966.7 825.59 966.42 826.68 966.17C827.22 966.04 827.77 965.93 828.32 965.81H828.17L828.67 965.71L829.44 965.57C831.647 965.183 833.87 964.893 836.11 964.7C837.11 964.61 839.11 963.99 839.42 962.81C839.73 961.63 837.61 961.65 836.96 961.71C832.142 962.122 827.374 962.989 822.72 964.3C821.94 964.52 819.87 965.3 820.18 966.41C820.49 967.52 822.72 967.17 823.44 966.97V967Z" fill="#EEF0EC"/>
<path d="M828.9 937.34C832.7 950.64 836.307 963.997 839.72 977.41C840.3 979.71 846.11 978.19 845.51 975.86C842.097 962.453 838.493 949.093 834.7 935.78C834.04 933.48 828.24 935.04 828.9 937.34V937.34Z" fill="#EEF0EC"/>
<path d="M834.9 977.72L836.14 977.64H836.76C837.56 977.64 838.36 977.64 839.16 977.72C839.96 977.8 840.69 977.86 841.46 977.95C842.04 978.03 841.04 977.88 841.56 977.95L842.13 978.04L843.45 978.3C844.172 978.452 844.92 978.428 845.63 978.23C846.345 978.065 847.005 977.721 847.55 977.23C847.87 976.88 848.27 976.36 848.09 975.85C847.99 975.611 847.832 975.401 847.629 975.24C847.426 975.079 847.185 974.973 846.93 974.93C843.21 974.131 839.393 973.879 835.6 974.18C834.821 974.258 834.07 974.519 833.41 974.94C833.01 975.21 832.41 975.74 832.34 976.27C832.2 977.64 833.93 977.8 834.9 977.73V977.72Z" fill="#EEF0EC"/>
<path d="M852.39 937.08L859.72 941.41C860.18 941.641 860.7 941.728 861.21 941.66C861.985 941.61 862.747 941.442 863.47 941.16C864.073 940.989 864.626 940.673 865.08 940.24C865.27 940.01 865.54 939.61 865.17 939.38L857.83 935C857.367 934.777 856.85 934.693 856.34 934.76C855.565 934.806 854.802 934.975 854.08 935.26C853.477 935.431 852.924 935.747 852.47 936.18C852.28 936.41 852.01 936.81 852.39 937.04V937.08Z" fill="#EEF0EC"/>
<path d="M855.13 938.55C855.91 948.25 861.44 956.78 862.48 966.43C862.69 968.43 868.48 967.13 868.27 964.88C867.27 955.23 861.71 946.7 860.93 937C860.83 935.76 858.33 936.09 857.63 936.28C856.63 936.56 855.03 937.28 855.13 938.55Z" fill="#EEF0EC"/>
<path d="M870.24 946.55L877.39 952.03C877.983 952.412 878.687 952.585 879.39 952.52C880.181 952.472 880.94 952.19 881.57 951.71C881.837 951.526 882.064 951.289 882.236 951.014C882.408 950.739 882.522 950.431 882.57 950.11C882.591 949.815 882.536 949.519 882.41 949.251C882.284 948.983 882.091 948.752 881.85 948.58L874.7 943.1C874.107 942.719 873.403 942.546 872.7 942.61C871.909 942.658 871.151 942.94 870.52 943.42C870.254 943.605 870.027 943.842 869.855 944.117C869.684 944.392 869.569 944.699 869.52 945.02C869.498 945.315 869.553 945.612 869.679 945.88C869.805 946.148 869.998 946.379 870.24 946.55V946.55Z" fill="#EEF0EC"/>
<path d="M873.73 947.24C872.45 950.24 871.16 953.34 869.6 956.24C868.111 959.04 866.32 961.669 864.26 964.08C864.044 964.294 863.888 964.561 863.807 964.854C863.726 965.147 863.723 965.456 863.797 965.751C863.872 966.046 864.022 966.316 864.233 966.535C864.444 966.754 864.708 966.914 865 967C865.717 967.232 866.485 967.252 867.213 967.057C867.94 966.862 868.596 966.46 869.1 965.9C873.62 960.54 876.55 954.39 879.26 947.98C879.362 947.695 879.393 947.39 879.351 947.091C879.31 946.792 879.196 946.507 879.02 946.261C878.844 946.015 878.611 945.816 878.341 945.68C878.071 945.544 877.772 945.475 877.47 945.48C876.13 945.35 874.28 945.9 873.7 947.27L873.73 947.24Z" fill="#EEF0EC"/>
<path d="M863.38 964.54C862.713 970.733 862.187 976.94 861.8 983.16C861.63 986.05 867.51 985.16 867.65 982.66C868.017 976.44 868.547 970.233 869.24 964.04C869.55 961.2 863.65 962.04 863.38 964.54Z" fill="#EEF0EC"/>
<path d="M857.8 981.06L869.08 987.48C869.684 987.722 870.333 987.832 870.983 987.802C871.633 987.773 872.27 987.605 872.85 987.31C873.456 987.111 874.006 986.768 874.45 986.31C874.64 986.08 874.89 985.59 874.51 985.37L863.23 979C862.623 978.763 861.973 978.656 861.322 978.685C860.671 978.714 860.033 978.879 859.45 979.17C858.848 979.372 858.303 979.715 857.86 980.17C857.67 980.4 857.42 980.89 857.8 981.11V981.06Z" fill="#EEF0EC"/>
<path d="M811.83 989.6C812.23 992.753 812.49 995.913 812.61 999.08C812.61 999.6 813.13 999.76 813.61 999.72C814.09 999.68 814.84 999.39 814.82 998.89C814.7 995.59 814.44 992.3 814.02 989.02C813.95 988.51 813.09 988.54 812.75 988.63C812.41 988.72 811.75 989.08 811.85 989.63L811.83 989.6Z" fill="#EEF0EC"/>
<path d="M813 990.06C813 990.06 812.78 990.06 812.91 990.06H813.04H813.29H813.58H813.71C813.83 990.06 813.77 990.06 813.71 990.06C813.879 990.04 814.051 990.04 814.22 990.06H814.76C814.87 990.06 814.76 990.06 814.76 990.06H814.92H815.17L815.7 990.19L815.93 990.26H816.04C816.04 990.26 815.93 990.21 816.04 990.26C816.15 990.31 816.19 990.32 816.27 990.37H816.36C816.46 990.43 816.3 990.31 816.36 990.37C816.461 990.436 816.543 990.527 816.599 990.634C816.655 990.74 816.683 990.86 816.68 990.98C816.68 990.89 816.68 991.08 816.68 991.11C816.685 991.173 816.685 991.237 816.68 991.3V991.4C816.68 991.4 816.68 991.5 816.68 991.4C816.66 991.442 816.637 991.482 816.61 991.52C816.579 991.577 816.542 991.631 816.5 991.68C816.58 991.57 816.5 991.68 816.44 991.73L816.34 991.83C816.43 991.75 816.34 991.83 816.34 991.83L816.22 991.91C816.1 991.99 815.94 992.05 815.83 992.14H815.91H815.81L815.57 992.26C814.744 992.578 813.974 993.027 813.29 993.59C813.213 993.647 813.153 993.723 813.116 993.811C813.079 993.899 813.067 993.996 813.08 994.09C813.119 994.176 813.178 994.252 813.253 994.309C813.328 994.367 813.417 994.405 813.51 994.42C813.781 994.47 814.06 994.459 814.326 994.388C814.592 994.317 814.84 994.188 815.05 994.01L815.16 993.9C815.16 993.9 815.28 993.82 815.16 993.9L815.32 993.8L815.55 993.66C815.67 993.58 815.38 993.74 815.55 993.66L815.69 993.59C816.03 993.42 816.37 993.28 816.69 993.11C817.507 992.778 818.205 992.206 818.69 991.47C818.891 991.158 818.984 990.788 818.955 990.418C818.926 990.048 818.777 989.697 818.53 989.42C817.855 988.892 817.036 988.581 816.18 988.53C815.07 988.37 813.94 988.4 812.84 988.62C812.5 988.69 811.84 989.05 811.92 989.5C812 989.95 812.83 989.86 813.16 989.8L813 990.06Z" fill="#EEF0EC"/>
<path d="M821.4 990.5L822.28 998.04C822.33 998.5 823.28 998.37 823.51 998.3C823.74 998.23 824.51 997.93 824.45 997.46L823.58 989.92C823.52 989.46 822.58 989.59 822.34 989.66C822.1 989.73 821.34 990.03 821.4 990.5Z" fill="#EEF0EC"/>
<path d="M823.89 990.17C823.89 990.11 824.15 989.87 823.79 990.17C823.68 990.24 823.79 990.17 823.91 990.17C824.224 990.227 824.532 990.314 824.83 990.43C825.116 990.492 825.385 990.613 825.621 990.785C825.857 990.957 826.054 991.177 826.2 991.43C826.278 991.69 826.276 991.967 826.194 992.226C826.112 992.485 825.954 992.713 825.74 992.88C825.322 993.141 824.843 993.289 824.35 993.31C824.02 993.36 823.17 993.53 823.08 993.94C822.99 994.35 823.78 994.24 823.97 994.21C824.85 994.11 826.52 994.02 826.9 995.08C827.035 995.551 827.035 996.049 826.9 996.52C826.756 997.051 826.725 997.606 826.81 998.15C826.93 998.69 829.11 998.15 828.98 997.57C828.72 996.4 829.71 995.05 828.84 994.02C828.358 993.561 827.725 993.295 827.06 993.27C826.177 993.155 825.283 993.155 824.4 993.27L824.02 994.17C825.257 994.064 826.45 993.662 827.5 993C827.899 992.763 828.194 992.384 828.326 991.939C828.458 991.494 828.416 991.016 828.21 990.6C827.545 989.863 826.628 989.399 825.64 989.3C824.983 989.141 824.296 989.149 823.643 989.324C822.99 989.499 822.39 989.834 821.9 990.3C821.59 990.67 822.18 990.74 822.44 990.73C822.973 990.731 823.488 990.539 823.89 990.19V990.17Z" fill="#EEF0EC"/>
<path d="M832 990.61C832.62 993.005 832.982 995.458 833.08 997.93C833.08 998.2 834.08 997.93 834.25 997.93C834.42 997.93 835.25 997.69 835.25 997.35C835.148 994.881 834.782 992.431 834.16 990.04C834.06 989.63 831.88 990.2 831.99 990.62L832 990.61Z" fill="#EEF0EC"/>
<path d="M837.62 989.92C838.362 992.445 838.91 995.022 839.26 997.63L841.43 997.05L841.19 996.56C840.91 995.99 838.82 996.74 839.02 997.14L839.26 997.63C839.43 997.97 840.17 997.78 840.45 997.71C840.73 997.64 841.45 997.42 841.45 997.05C841.099 994.439 840.551 991.858 839.81 989.33C839.65 988.8 837.49 989.4 837.64 989.92H837.62Z" fill="#EEF0EC"/>
<path d="M839.78 990.07L839.98 989.97C839.886 990.018 839.784 990.052 839.68 990.07H839.75C839.991 990.08 840.229 990.12 840.46 990.19C840.965 990.354 841.424 990.635 841.8 991.01C842.577 991.776 843.127 992.741 843.39 993.8C843.535 994.341 843.595 994.901 843.57 995.46C843.598 995.986 843.435 996.505 843.11 996.92C843.11 996.92 842.92 997.04 843 997C843.08 996.96 842.82 997 843 997C842.804 997.017 842.606 997.017 842.41 997C841.872 996.972 841.344 996.836 840.86 996.6C840.391 996.481 839.896 996.53 839.46 996.74C839.37 996.74 838.46 997.18 838.81 997.34C839.993 997.867 841.314 998.004 842.58 997.73C843.88 997.49 845.39 997 845.66 995.54C845.853 994.404 845.705 993.237 845.235 992.185C844.766 991.133 843.995 990.244 843.02 989.63C842.312 989.303 841.537 989.146 840.757 989.172C839.978 989.198 839.215 989.406 838.53 989.78C838.34 989.88 837.8 990.19 838.26 990.32C838.784 990.392 839.317 990.294 839.78 990.04V990.07Z" fill="#EEF0EC"/>
<path d="M847.24 990.4C847.49 991.66 847.7 992.93 847.88 994.2C847.97 994.81 848.04 995.42 848.12 996.03L848.21 996.95C848.213 997.26 848.254 997.569 848.33 997.87C848.51 998.38 849.09 998.47 849.56 998.48C850.03 998.49 850.79 998.48 851.4 998.42C852.174 998.442 852.94 998.259 853.62 997.89C853.96 997.67 854.39 997.13 853.89 996.82C853.39 996.51 852.89 996.82 852.48 996.92C852.36 996.97 851.48 997.36 851.85 997.58C852.22 997.8 851.46 998 852.34 997.65C853.06 997.36 852.74 997.48 852.48 997.49H852.17C851.76 997.49 851.24 997.56 850.9 997.49C850.56 997.42 850.47 997.18 850.44 996.84L850.29 995.39C850.07 993.5 849.78 991.63 849.41 989.76C849.32 989.26 847.13 989.76 847.24 990.34V990.4Z" fill="#EEF0EC"/>
<path d="M849.43 994.7L852.29 994.08C852.556 994.01 852.802 993.88 853.01 993.7C853.13 993.59 853.29 993.38 853.22 993.21C853.06 992.74 852.34 992.84 851.98 992.92L849.12 993.55C848.85 993.612 848.599 993.739 848.39 993.92C848.28 994.03 848.12 994.24 848.19 994.42C848.35 994.88 849.07 994.78 849.43 994.7Z" fill="#EEF0EC"/>
<path d="M849.94 991.09C850.09 990.98 849.74 991.21 849.94 991.09C849.966 991.064 849.986 991.034 850 991C850 991 849.75 991.12 849.92 991.05L850.03 991C849.7 991.15 849.85 991.07 849.94 991C850.03 990.93 849.65 991 849.85 991H849.97C850.09 991 849.68 991 849.9 991H850.03C850.22 991 849.81 991 850.03 991H850.31L850.45 991.06L850.71 991.2L850.57 991.11C850.813 991.271 851.017 991.482 851.17 991.73L851.1 991.6C851.241 991.841 851.326 992.111 851.35 992.39C851.35 992.56 851.65 992.65 851.77 992.67C852.037 992.73 852.313 992.73 852.58 992.67C852.94 992.56 853.58 992.33 853.58 991.86C853.526 991.434 853.349 991.033 853.073 990.705C852.796 990.377 852.43 990.136 852.02 990.01C851.39 989.823 850.725 989.787 850.079 989.905C849.432 990.023 848.823 990.292 848.3 990.69C848.18 990.78 848.03 990.98 848.08 991.14C848.13 991.3 848.34 991.4 848.49 991.42C848.761 991.457 849.037 991.44 849.301 991.369C849.565 991.299 849.813 991.177 850.03 991.01L849.94 991.09Z" fill="#EEF0EC"/>
<path d="M820 1004.77C820.156 1005.86 820.233 1006.96 820.23 1008.06L821.68 1007.67C821.438 1006.43 821.482 1005.16 821.81 1003.94L820.42 1004.32C820.983 1004.58 821.483 1004.95 821.885 1005.42C822.288 1005.89 822.583 1006.44 822.75 1007.04C822.81 1007.26 823.4 1007.11 823.54 1007.04C823.714 1007 823.88 1006.94 824.03 1006.84C824.1 1006.84 824.22 1006.71 824.2 1006.62C824.024 1006 823.717 1005.43 823.299 1004.94C822.882 1004.45 822.363 1004.06 821.78 1003.79C821.541 1003.71 821.279 1003.71 821.04 1003.79C820.917 1003.83 820.797 1003.87 820.68 1003.92C820.61 1003.92 820.41 1004.06 820.38 1004.15C820.035 1005.41 819.984 1006.74 820.23 1008.02C820.23 1008.11 820.43 1008.12 820.49 1008.12C820.669 1008.13 820.848 1008.1 821.02 1008.05C821.2 1008 821.68 1007.88 821.68 1007.63C821.678 1006.53 821.602 1005.43 821.45 1004.34C821.45 1004.25 821.24 1004.24 821.19 1004.24C821.011 1004.23 820.832 1004.25 820.66 1004.3C820.487 1004.34 820.322 1004.42 820.17 1004.51C820.09 1004.56 819.98 1004.63 820 1004.73V1004.77Z" fill="#EEF0EC"/>
<path d="M821.84 1007.2L823.33 1006.07C823.456 1006 823.551 1005.89 823.6 1005.75C823.608 1005.69 823.598 1005.64 823.571 1005.59C823.544 1005.54 823.501 1005.49 823.45 1005.47C823.298 1005.4 823.127 1005.37 822.96 1005.4C822.768 1005.42 822.584 1005.49 822.42 1005.59L820.93 1006.72C820.82 1006.8 820.68 1006.9 820.66 1007.04C820.652 1007.1 820.663 1007.15 820.689 1007.2C820.716 1007.25 820.759 1007.3 820.81 1007.32C820.959 1007.39 821.127 1007.42 821.29 1007.39C821.485 1007.37 821.674 1007.3 821.84 1007.2V1007.2Z" fill="#EEF0EC"/>
<path d="M823.24 1004.81C823.467 1005.4 823.654 1006 823.8 1006.62C823.917 1006.9 824.134 1007.14 824.41 1007.27C824.901 1007.45 825.439 1007.45 825.93 1007.27C826.2 1007.22 826.457 1007.12 826.682 1006.96C826.908 1006.81 827.099 1006.6 827.24 1006.37C827.33 1006.14 826.75 1006.24 826.66 1006.25C826.471 1006.29 826.287 1006.34 826.11 1006.42C826.02 1006.47 825.85 1006.53 825.81 1006.64C825.783 1006.71 825.746 1006.77 825.7 1006.83V1006.83L825.6 1006.91H825.68H825.75H825.85C825.97 1006.91 826 1006.91 825.93 1006.91C825.81 1006.91 826 1006.91 825.93 1006.91H825.8C825.73 1006.91 825.8 1006.91 825.8 1006.91C825.661 1006.84 825.535 1006.74 825.43 1006.63V1006.63C824.93 1006.03 825.07 1005.15 824.67 1004.49C824.62 1004.41 824.51 1004.41 824.42 1004.4C824.241 1004.4 824.062 1004.43 823.89 1004.48C823.717 1004.52 823.551 1004.59 823.4 1004.68C823.4 1004.68 823.18 1004.81 823.22 1004.88L823.24 1004.81Z" fill="#EEF0EC"/>
<path d="M827.08 1004.81C827.025 1005.23 827.025 1005.67 827.08 1006.09C827.117 1006.5 827.262 1006.89 827.5 1007.23C827.749 1007.49 828.081 1007.66 828.44 1007.7C828.99 1007.77 829.548 1007.66 830.03 1007.39C830.23 1007.27 830.45 1006.95 830.15 1006.8C829.984 1006.75 829.808 1006.73 829.636 1006.76C829.463 1006.78 829.298 1006.84 829.15 1006.93C829.04 1007 829.32 1006.85 829.2 1006.93C829.08 1007.01 829.39 1006.93 829.27 1006.93C829.15 1006.93 829.13 1006.93 829.27 1006.93C829.41 1006.93 829.27 1006.93 829.27 1006.93C829.27 1006.93 829.44 1006.93 829.27 1006.93H829.17C829.17 1006.93 829.32 1006.93 829.17 1006.93H829.07C828.98 1006.93 829.07 1006.93 829.07 1006.93C829.04 1006.92 829.01 1006.92 828.98 1006.93L828.9 1006.88C828.9 1006.88 828.81 1006.82 828.9 1006.88C828.99 1006.94 828.9 1006.88 828.9 1006.88L828.84 1006.82C828.785 1006.76 828.738 1006.7 828.7 1006.63L828.76 1006.72C828.538 1006.25 828.432 1005.73 828.45 1005.21V1005.32C828.44 1005.14 828.44 1004.95 828.45 1004.77C828.45 1004.45 828.05 1004.41 827.82 1004.44C827.628 1004.46 827.444 1004.53 827.28 1004.63C827.17 1004.7 827.02 1004.81 827 1004.95L827.08 1004.81Z" fill="#EEF0EC"/>
<path d="M828 1006.62C828.343 1006.59 828.679 1006.51 829 1006.38C829.293 1006.26 829.566 1006.09 829.81 1005.89C829.861 1005.85 829.901 1005.8 829.925 1005.74C829.95 1005.68 829.958 1005.61 829.95 1005.55C829.926 1005.49 829.887 1005.44 829.836 1005.4C829.785 1005.36 829.724 1005.34 829.66 1005.33C829.483 1005.29 829.297 1005.29 829.12 1005.33L828.93 1005.39C828.824 1005.44 828.726 1005.5 828.64 1005.58V1005.58L828.77 1005.48C828.686 1005.55 828.596 1005.61 828.5 1005.66L828.66 1005.58L828.35 1005.71L828.54 1005.65L828.22 1005.73H828.42H828.21C828.018 1005.75 827.833 1005.82 827.67 1005.92C827.57 1005.98 827.41 1006.11 827.4 1006.25C827.4 1006.58 827.8 1006.62 828.03 1006.6L828 1006.62Z" fill="#EEF0EC"/>
<path d="M827.89 1005.08L828.09 1005.03H827.98H828.04H828.14C828.203 1005.03 828.267 1005.03 828.33 1005.03C828.08 1005.03 828.33 1005.03 828.39 1005.03C828.46 1005.02 828.53 1005.02 828.6 1005.03H828.68H829.1C829.279 1005.04 829.459 1005.02 829.63 1004.97C829.803 1004.93 829.968 1004.85 830.12 1004.76C830.18 1004.76 830.32 1004.62 830.29 1004.53C830.26 1004.44 830.12 1004.42 830.03 1004.41C829.269 1004.31 828.496 1004.37 827.76 1004.59C827.586 1004.63 827.421 1004.7 827.27 1004.8C827.27 1004.8 827.07 1004.95 827.1 1005.03C827.13 1005.11 827.27 1005.15 827.36 1005.15C827.539 1005.16 827.719 1005.13 827.89 1005.08V1005.08Z" fill="#EEF0EC"/>
<path d="M830.05 1005.15C830.18 1005.9 830.33 1006.65 830.51 1007.39C830.59 1007.71 831.01 1007.78 831.28 1007.74C831.55 1007.7 831.98 1007.48 831.97 1007.15C831.972 1006.34 831.868 1005.53 831.66 1004.75L831.55 1005.17C831.63 1005.07 831.34 1005.32 831.35 1005.32H831.22C831.07 1005.32 831.03 1005.32 831.09 1005.32H831C831.06 1005.32 830.88 1005.26 830.93 1005.32H831.01C831.01 1005.32 830.88 1005.25 831.01 1005.32L831.12 1005.4C831.12 1005.4 831.22 1005.49 831.12 1005.4L831.24 1005.55L831.55 1005.9L832.72 1007.27C832.821 1007.37 832.95 1007.45 833.091 1007.48C833.233 1007.52 833.381 1007.51 833.52 1007.47C833.78 1007.38 834.08 1007.2 834.11 1006.89C834.21 1006.04 834.21 1005.18 834.11 1004.33C834.11 1004.19 833.92 1004.06 833.8 1004.01C833.621 1003.96 833.429 1003.96 833.25 1004.01C833.067 1004.05 832.902 1004.16 832.78 1004.3C832.733 1004.36 832.699 1004.43 832.68 1004.5C832.661 1004.58 832.657 1004.65 832.67 1004.73C832.665 1004.81 832.665 1004.9 832.67 1004.98V1004.83C832.74 1005.55 832.74 1006.28 832.67 1007L834.07 1006.62L833.07 1005.44C832.781 1005.02 832.414 1004.65 831.99 1004.36C831.685 1004.19 831.328 1004.14 830.99 1004.23C830.767 1004.29 830.566 1004.41 830.41 1004.58C830.315 1004.67 830.255 1004.78 830.24 1004.91C830.22 1005 830.22 1005.08 830.24 1005.17C830.36 1005.66 830.441 1006.16 830.48 1006.67V1006.52C830.48 1006.73 830.48 1006.95 830.48 1007.16L832 1007C831.82 1006.26 831.67 1005.51 831.54 1004.76C831.519 1004.69 831.48 1004.62 831.425 1004.56C831.371 1004.51 831.304 1004.46 831.23 1004.44C831.051 1004.39 830.859 1004.39 830.68 1004.44C830.35 1004.54 830.03 1004.78 830.09 1005.16L830.05 1005.15Z" fill="#EEF0EC"/>
<path d="M837.49 1004.31C837.208 1004.18 836.901 1004.11 836.59 1004.11C836.279 1004.11 835.972 1004.18 835.69 1004.31C835.451 1004.38 835.228 1004.5 835.036 1004.66C834.843 1004.81 834.685 1005.01 834.57 1005.23C834.506 1005.45 834.49 1005.69 834.523 1005.91C834.556 1006.14 834.637 1006.36 834.761 1006.56C834.885 1006.75 835.048 1006.92 835.241 1007.05C835.434 1007.18 835.652 1007.26 835.88 1007.3C836.34 1007.36 836.807 1007.29 837.23 1007.1C837.558 1006.96 837.867 1006.78 838.15 1006.57C838.22 1006.57 838.34 1006.42 838.31 1006.32C838.28 1006.22 838.13 1006.18 838.05 1006.17C837.695 1006.15 837.344 1006.25 837.05 1006.45L836.82 1006.61C836.76 1006.61 836.82 1006.61 836.82 1006.61H836.75L836.64 1006.67H836.7H836.62H836.74C836.66 1006.67 836.74 1006.67 836.82 1006.67C836.68 1006.67 836.99 1006.67 836.82 1006.67C836.94 1006.67 836.82 1006.67 836.82 1006.67H836.74C836.661 1006.63 836.587 1006.58 836.52 1006.52C836.389 1006.41 836.274 1006.29 836.18 1006.15V1006.21C836.012 1005.96 835.925 1005.66 835.93 1005.36V1005.45C835.945 1005.29 835.992 1005.13 836.07 1004.98C836.07 1005.08 836.07 1004.98 836.07 1004.98L836.15 1004.9C836.09 1004.9 836.08 1004.96 836.15 1004.9H836.2H836.13C836.19 1004.9 836.13 1004.9 836.05 1004.9H836C836.12 1004.9 835.81 1004.9 836 1004.9C836.19 1004.9 835.86 1004.9 836 1004.9C836.05 1004.9 836 1004.9 836 1004.9H836.11H836.17C836.326 1004.97 836.497 1005.01 836.67 1005.01C836.843 1005.01 837.014 1004.97 837.17 1004.9C837.321 1004.85 837.459 1004.76 837.57 1004.65C837.57 1004.59 837.68 1004.47 837.57 1004.42L837.49 1004.31Z" fill="#EEF0EC"/>
<path d="M838.13 1004.24C838.204 1005.42 838.405 1006.6 838.73 1007.74C838.8 1007.99 839.36 1007.87 839.53 1007.83C839.704 1007.78 839.87 1007.71 840.02 1007.61C840.1 1007.55 840.21 1007.45 840.18 1007.35C839.855 1006.21 839.654 1005.03 839.58 1003.85C839.58 1003.75 839.37 1003.72 839.31 1003.71C839.128 1003.7 838.945 1003.72 838.77 1003.77C838.57 1003.82 838.11 1003.96 838.13 1004.24Z" fill="#EEF0EC"/>
<path d="M839.64 1005.25C840.018 1006.16 840.28 1007.12 840.42 1008.1L841.87 1007.71C841.735 1007.19 841.675 1006.66 841.69 1006.12C841.692 1005.84 841.719 1005.57 841.77 1005.3C841.788 1005.19 841.815 1005.08 841.85 1004.98V1004.91C841.685 1005.03 841.485 1005.1 841.28 1005.09C841.244 1005.1 841.206 1005.1 841.17 1005.09V1005.09L841.29 1005.17C841.381 1005.25 841.464 1005.33 841.54 1005.42C841.7 1005.62 841.85 1005.83 842 1006.05C842.274 1006.46 842.502 1006.91 842.68 1007.37C842.79 1007.64 843.28 1007.56 843.49 1007.5C843.668 1007.46 843.836 1007.38 843.98 1007.27C844.05 1007.2 844.18 1007.09 844.13 1006.98C843.948 1006.52 843.72 1006.08 843.45 1005.66C843.32 1005.46 843.19 1005.26 843.04 1005.07C842.909 1004.87 842.747 1004.7 842.56 1004.56C842.267 1004.36 841.909 1004.28 841.56 1004.34C841.351 1004.35 841.147 1004.41 840.96 1004.51C840.773 1004.6 840.606 1004.73 840.47 1004.89C840.353 1005.07 840.278 1005.28 840.25 1005.5C840.208 1005.76 840.182 1006.03 840.17 1006.29C840.145 1006.89 840.205 1007.49 840.35 1008.07C840.35 1008.18 840.53 1008.23 840.63 1008.25C840.805 1008.28 840.985 1008.28 841.16 1008.25C841.38 1008.18 841.84 1008.02 841.8 1007.72C841.66 1006.74 841.398 1005.78 841.02 1004.87C840.9 1004.6 840.42 1004.68 840.2 1004.74C840.025 1004.78 839.861 1004.86 839.72 1004.97C839.65 1005.04 839.52 1005.15 839.57 1005.26L839.64 1005.25Z" fill="#EEF0EC"/>
<path d="M842.3 1007.84L843.92 1006.84C843.986 1006.8 844.043 1006.74 844.088 1006.68C844.132 1006.62 844.164 1006.55 844.18 1006.47C844.185 1006.4 844.172 1006.33 844.142 1006.27C844.112 1006.21 844.067 1006.16 844.01 1006.12C843.85 1006.05 843.674 1006.01 843.498 1006.03C843.322 1006.05 843.154 1006.11 843.01 1006.21L841.39 1007.21C841.26 1007.3 841.167 1007.43 841.13 1007.58C841.125 1007.65 841.139 1007.72 841.171 1007.78C841.203 1007.84 841.251 1007.89 841.31 1007.93C841.47 1008 841.647 1008.04 841.822 1008.02C841.998 1008 842.166 1007.94 842.31 1007.84H842.3Z" fill="#EEF0EC"/>
<path d="M847.24 1004.46C846.916 1004.38 846.579 1004.38 846.252 1004.44C845.924 1004.5 845.614 1004.63 845.34 1004.82C845.155 1004.94 845.001 1005.09 844.891 1005.28C844.781 1005.47 844.719 1005.68 844.71 1005.9C844.713 1006.32 844.858 1006.72 845.12 1007.05C845.258 1007.23 845.439 1007.38 845.647 1007.47C845.854 1007.57 846.082 1007.61 846.31 1007.6C846.704 1007.6 847.092 1007.5 847.44 1007.31C847.683 1007.19 847.875 1006.99 847.98 1006.74C848.06 1006.46 847.52 1006.49 847.38 1006.52C847.187 1006.54 847 1006.6 846.83 1006.7C846.72 1006.76 846.58 1006.84 846.54 1006.96V1007.04C846.48 1007.12 846.63 1006.96 846.54 1007.04C846.45 1007.12 846.67 1006.96 846.54 1007.04L846.65 1006.98H846.75H846.88C847.07 1006.98 846.76 1006.98 846.88 1006.98C846.83 1006.98 846.83 1006.98 846.88 1006.98H846.78L846.69 1006.91C846.581 1006.81 846.483 1006.7 846.4 1006.58L846.45 1006.65C846.252 1006.35 846.147 1006.01 846.15 1005.65V1005.73C846.155 1005.6 846.185 1005.46 846.24 1005.34C846.24 1005.34 846.3 1005.24 846.24 1005.34L846.3 1005.26H846.36C846.45 1005.19 846.26 1005.26 846.36 1005.26C846.46 1005.26 846.46 1005.26 846.3 1005.26H846.19C846.3 1005.26 846.04 1005.26 846.12 1005.26C846.2 1005.26 845.98 1005.26 846.12 1005.26C846.26 1005.26 846.02 1005.26 846.12 1005.26C846.463 1005.33 846.819 1005.27 847.12 1005.09C847.22 1005.03 847.37 1004.95 847.4 1004.83C847.406 1004.81 847.407 1004.79 847.404 1004.76C847.4 1004.74 847.392 1004.72 847.38 1004.7C847.367 1004.68 847.351 1004.67 847.332 1004.65C847.313 1004.64 847.292 1004.63 847.27 1004.63L847.24 1004.46Z" fill="#EEF0EC"/>
<path d="M848.17 1005.82C848.318 1006.39 848.402 1006.98 848.42 1007.57L849.87 1007.18C849.683 1006.73 849.558 1006.26 849.5 1005.78C849.485 1005.54 849.485 1005.3 849.5 1005.06C849.5 1004.95 849.5 1004.84 849.5 1004.73C849.5 1004.62 849.5 1004.66 849.5 1004.63V1004.56C849.427 1004.65 849.325 1004.72 849.21 1004.75L848.82 1004.85C848.51 1004.85 848.42 1004.85 848.56 1004.85C848.612 1004.88 848.662 1004.91 848.71 1004.95L849.01 1005.18C849.193 1005.34 849.367 1005.5 849.53 1005.68C849.857 1006.02 850.133 1006.4 850.35 1006.82C850.49 1007.07 850.94 1006.98 851.16 1006.91C851.336 1006.87 851.503 1006.8 851.65 1006.69C851.71 1006.64 851.85 1006.52 851.8 1006.43C851.403 1005.65 850.836 1004.96 850.14 1004.43C849.945 1004.26 849.711 1004.15 849.46 1004.1C849.178 1004.08 848.894 1004.12 848.63 1004.22C848.41 1004.27 848.216 1004.4 848.091 1004.58C847.966 1004.77 847.919 1005 847.96 1005.22C847.945 1005.46 847.945 1005.7 847.96 1005.94C848.014 1006.48 848.145 1007 848.35 1007.5C848.45 1007.75 848.96 1007.65 849.15 1007.59C849.34 1007.53 849.8 1007.4 849.8 1007.11C849.782 1006.52 849.698 1005.93 849.55 1005.36C849.55 1005.26 849.37 1005.22 849.29 1005.21C849.108 1005.2 848.926 1005.21 848.75 1005.26C848.572 1005.3 848.405 1005.38 848.26 1005.49C848.19 1005.55 848.08 1005.64 848.1 1005.75L848.17 1005.82Z" fill="#EEF0EC"/>
<path d="M848.89 1007C849.742 1006.85 850.541 1006.49 851.21 1005.94C851.27 1005.94 851.32 1005.82 851.21 1005.77C851.093 1005.74 850.968 1005.74 850.85 1005.77C850.656 1005.79 850.465 1005.84 850.28 1005.9C850.134 1005.95 849.996 1006.02 849.87 1006.11L849.72 1006.24L849.64 1006.3C849.76 1006.2 849.64 1006.3 849.64 1006.3L849.49 1006.39H849.4C849.32 1006.44 849.56 1006.31 849.4 1006.39L849.21 1006.47C849.1 1006.47 849.39 1006.41 849.28 1006.47H849.18H849.09H849.2H849.1H849.22H849.17C848.981 1006.51 848.796 1006.56 848.62 1006.64C848.55 1006.64 848.34 1006.76 848.32 1006.85C848.3 1006.94 848.32 1006.98 848.43 1006.99C848.582 1007.02 848.738 1007.02 848.89 1006.99V1007Z" fill="#EEF0EC"/>
<path d="M848.31 1007C848.356 1006.92 848.387 1006.82 848.4 1006.73C848.41 1006.64 848.41 1006.55 848.4 1006.46C848.382 1006.31 848.331 1006.17 848.25 1006.04C848.074 1005.76 847.805 1005.55 847.49 1005.45C847.376 1005.41 847.259 1005.39 847.14 1005.38C847.01 1005.37 846.88 1005.37 846.75 1005.38C846.555 1005.4 846.367 1005.47 846.2 1005.57C846.071 1005.65 845.975 1005.77 845.93 1005.91C845.93 1006.25 846.33 1006.32 846.58 1006.29H846.42L846.6 1006.34L846.47 1006.29C846.559 1006.33 846.643 1006.38 846.72 1006.44L846.62 1006.36C846.721 1006.44 846.806 1006.54 846.87 1006.65L846.81 1006.55C846.867 1006.65 846.901 1006.77 846.91 1006.89V1006.77C846.909 1006.86 846.892 1006.95 846.86 1007.03L846.91 1006.91C846.889 1006.93 846.874 1006.96 846.866 1006.99C846.857 1007.03 846.855 1007.06 846.86 1007.09C846.861 1007.15 846.882 1007.21 846.92 1007.25C847.028 1007.35 847.171 1007.41 847.32 1007.41C847.516 1007.42 847.713 1007.39 847.89 1007.3L848.05 1007.21C848.142 1007.16 848.218 1007.08 848.27 1006.99L848.31 1007Z" fill="#EEF0EC"/>
<path d="M826.9 1012.9C827.047 1013.5 827.254 1014.09 827.52 1014.65C827.603 1014.89 827.743 1015.11 827.928 1015.28C828.112 1015.45 828.336 1015.58 828.58 1015.65C829.136 1015.75 829.71 1015.66 830.212 1015.41C830.715 1015.15 831.118 1014.73 831.36 1014.22C831.58 1013.65 831.54 1013.01 831.74 1012.44C831.74 1012.35 831.86 1012.25 831.88 1012.16C831.9 1012.07 832.34 1011.99 831.62 1012.16C830.9 1012.33 831.31 1012.16 831.42 1012.31C831.599 1012.48 831.763 1012.67 831.91 1012.87C832.117 1013.3 832.282 1013.75 832.4 1014.22C832.493 1014.71 832.717 1015.16 833.05 1015.53C833.358 1015.71 833.718 1015.77 834.066 1015.7C834.415 1015.63 834.728 1015.45 834.95 1015.17C835.325 1014.6 835.517 1013.93 835.5 1013.25C835.5 1012.89 834.06 1013.13 834.05 1013.63C834.05 1013.93 834.003 1014.23 833.91 1014.52C833.91 1014.68 833.72 1015.15 833.63 1015.19L834.18 1015.01C834.42 1015.01 834.47 1015.01 834.33 1014.93C834.288 1014.88 834.251 1014.83 834.22 1014.77C834.16 1014.67 834.11 1014.56 834.07 1014.45C833.975 1014.24 833.895 1014.02 833.83 1013.79C833.714 1013.32 833.547 1012.87 833.33 1012.44C833.225 1012.22 833.073 1012.02 832.885 1011.87C832.696 1011.71 832.477 1011.59 832.24 1011.53C831.934 1011.49 831.621 1011.52 831.33 1011.62C831.039 1011.73 830.778 1011.9 830.57 1012.13C830.288 1012.58 830.129 1013.09 830.11 1013.62C830.071 1013.91 829.997 1014.2 829.89 1014.47C829.843 1014.59 829.775 1014.7 829.69 1014.79L829.51 1014.95C829.45 1015.07 829.51 1014.75 829.6 1014.95H829.47C829.272 1014.77 829.112 1014.55 829 1014.31C828.714 1013.73 828.496 1013.13 828.35 1012.5C828.24 1012.07 826.79 1012.44 826.9 1012.89V1012.9Z" fill="#EEF0EC"/>
<path d="M834.74 1012.32L836.74 1014.75C837.03 1015.1 837.74 1014.89 838.01 1014.62C838.332 1014.28 838.605 1013.89 838.82 1013.47L837.57 1013.8L837.7 1013.89C837.768 1013.95 837.828 1014.02 837.88 1014.1C837.965 1014.24 838.019 1014.39 838.04 1014.55C838.04 1014.68 838.23 1014.77 838.33 1014.8C838.511 1014.84 838.699 1014.84 838.88 1014.8C839.15 1014.72 839.54 1014.53 839.49 1014.19C839.448 1013.95 839.352 1013.72 839.211 1013.51C839.069 1013.31 838.884 1013.14 838.67 1013.02C838.455 1012.92 838.211 1012.9 837.982 1012.96C837.753 1013.02 837.554 1013.16 837.42 1013.36C837.332 1013.54 837.229 1013.71 837.11 1013.87C837.013 1014.01 836.902 1014.15 836.78 1014.27L838.04 1014.14L836.04 1011.7C835.82 1011.44 835.34 1011.52 835.04 1011.64C834.74 1011.76 834.45 1012.03 834.67 1012.3L834.74 1012.32Z" fill="#EEF0EC"/>
<defs>
<radialGradient id="paint0_radial_1_27276" cx="0" cy="0" r="1" gradientUnits="userSpaceOnUse" gradientTransform="translate(830 1054.05) scale(271.23 246.819)">
<stop stop-color="#EFA7C7"/>
<stop offset="0.2" stop-color="#F1ABCA"/>
<stop offset="1" stop-color="#F7B8D3"/>
</radialGradient>
</defs>
</svg>
