<svg width="1660" height="1660" viewBox="0 0 1660 1660" fill="none" xmlns="http://www.w3.org/2000/svg">
<path d="M664.58 1263C664.209 1267.63 665.622 1272.24 668.532 1275.86C671.441 1279.49 675.625 1281.87 680.23 1282.51L763.16 1294C765.942 1294.38 768.774 1294.12 771.436 1293.22C774.098 1292.33 776.519 1290.84 778.51 1288.86C794.262 1273.49 806.751 1255.09 815.23 1234.78C831.41 1195.25 827.4 1157.45 831.23 1157.38C835.06 1157.31 833.42 1192.93 849.17 1231.95C856.933 1251 867.77 1268.66 881.25 1284.2C884.377 1287.82 888.809 1290.06 893.58 1290.43C918.582 1292.38 943.734 1290.05 967.95 1283.53C976.73 1281.16 983.26 1270.09 981.36 1264.7C980.07 1261.02 975.06 1260.79 971.45 1254.02C970.52 1252.21 969.828 1250.28 969.39 1248.29C966.95 1238.75 967.39 1231.29 967.16 1222.39C967.01 1217.12 966.35 1211.88 965.97 1206.63C964.74 1189.78 963.41 1174.75 962.19 1160.89C958.32 1116.89 956 1094.89 952.34 1084.73C948.34 1073.64 942.79 1063.86 935.07 1051.66C930.394 1044.28 925.25 1037.2 919.67 1030.48C917.979 1028.45 916.754 1026.07 916.08 1023.51C915.407 1020.95 915.301 1018.27 915.77 1015.67C920.603 988.703 925.463 975.213 930.35 975.2C942.983 975.2 955.81 1065.11 968.83 1244.92C969.5 1254.19 977.14 1263.22 986.33 1261.8C1001.49 1259.46 1014.6 1260.59 1027.82 1263.3C1038.58 1265.51 1047.64 1254.37 1046.61 1243.44C1042.64 1200.78 1035.65 1158.46 1025.68 1116.79C1011.14 1056.31 1001.68 1045.46 999.25 1001.63C996.09 944.74 994.47 915.63 1000.25 889.3C1003.29 876.61 1003.61 863.422 1001.19 850.6C999.72 843.198 997.303 836.016 994 829.23C992.188 825.468 989.142 822.44 985.37 820.65L902.8 781.58C900.535 780.504 898.072 779.907 895.566 779.828C893.06 779.748 890.564 780.187 888.235 781.118C885.907 782.048 883.796 783.45 882.034 785.235C880.273 787.02 878.899 789.149 878 791.49C869 814.96 863.42 831.82 847.88 869.71C841.64 884.91 829.23 906.63 831.25 915.36C829 905.34 819.59 885 814 869.94C799.31 830.24 791.85 814.78 782.86 792.39C781.952 790.127 780.598 788.069 778.879 786.339C777.16 784.61 775.112 783.243 772.854 782.32C770.597 781.398 768.177 780.938 765.739 780.969C763.3 781 760.893 781.521 758.66 782.5C728.94 795.5 689.87 814.79 679.89 817.97C673.22 820.1 670.28 821.16 667.45 822.61C662.91 824.95 660.56 826.06 658.19 829.69C654.114 836.134 651.644 843.463 650.99 851.06C648.89 873.75 651.99 889.76 651.99 889.76C659.11 927.18 656.13 963.36 652.93 1002.09C652.39 1008.7 651.6 1018.09 649.75 1030.44C644.59 1065.08 634.81 1086.19 626.5 1117.25C604.71 1198.77 604.5 1202.96 600.77 1238.18C600.13 1244.25 603.26 1255.66 613.97 1254.66C623.97 1253.73 632.46 1253.34 648.75 1257.01C656.05 1257.61 664.08 1262.43 668.46 1261.48C678.46 1259.3 681.97 1249.38 683.36 1245.38C694.44 1213.47 705.87 974.61 719.19 972.02C723.11 971.26 730.65 995.31 730.29 1014.84C729.88 1037.21 716.94 1049.84 704.8 1068.65" fill="url(#paint0_linear_1_25132)"/>
<path d="M664.58 1263C664.209 1267.63 665.622 1272.24 668.532 1275.86C671.441 1279.49 675.625 1281.87 680.23 1282.51L763.16 1294C765.942 1294.38 768.774 1294.12 771.436 1293.22C774.098 1292.33 776.519 1290.84 778.51 1288.86C794.262 1273.49 806.751 1255.09 815.23 1234.78C831.41 1195.25 827.4 1157.45 831.23 1157.38C835.06 1157.31 833.42 1192.93 849.17 1231.95C856.933 1251 867.77 1268.66 881.25 1284.2C884.377 1287.82 888.809 1290.06 893.58 1290.43C918.582 1292.38 943.734 1290.05 967.95 1283.53C976.73 1281.16 983.26 1270.09 981.36 1264.7C980.07 1261.02 975.06 1260.79 971.45 1254.02C970.52 1252.21 969.828 1250.28 969.39 1248.29C966.95 1238.75 967.39 1231.29 967.16 1222.39C967.01 1217.12 966.35 1211.88 965.97 1206.63C964.74 1189.78 963.41 1174.75 962.19 1160.89C958.32 1116.89 956 1094.89 952.34 1084.73C948.34 1073.64 942.79 1063.86 935.07 1051.66C930.394 1044.28 925.25 1037.2 919.67 1030.48C917.979 1028.45 916.754 1026.07 916.08 1023.51C915.407 1020.95 915.301 1018.27 915.77 1015.67C920.603 988.703 925.463 975.213 930.35 975.2C942.983 975.2 955.81 1065.11 968.83 1244.92C969.5 1254.19 977.14 1263.22 986.33 1261.8C1001.49 1259.46 1014.6 1260.59 1027.82 1263.3C1038.58 1265.51 1047.64 1254.37 1046.61 1243.44C1042.64 1200.78 1035.65 1158.46 1025.68 1116.79C1011.14 1056.31 1001.68 1045.46 999.25 1001.63C996.09 944.74 994.47 915.63 1000.25 889.3C1003.29 876.61 1003.61 863.422 1001.19 850.6C999.72 843.198 997.303 836.016 994 829.23C992.188 825.468 989.142 822.44 985.37 820.65L902.8 781.58C900.535 780.504 898.072 779.907 895.566 779.828C893.06 779.748 890.564 780.187 888.235 781.118C885.907 782.048 883.796 783.45 882.034 785.235C880.273 787.02 878.899 789.149 878 791.49C869 814.96 863.42 831.82 847.88 869.71C841.64 884.91 829.23 906.63 831.25 915.36C829 905.34 819.59 885 814 869.94C799.31 830.24 791.85 814.78 782.86 792.39C781.952 790.127 780.598 788.069 778.879 786.339C777.16 784.61 775.112 783.243 772.854 782.32C770.597 781.398 768.177 780.938 765.739 780.969C763.3 781 760.893 781.521 758.66 782.5C728.94 795.5 689.87 814.79 679.89 817.97C673.22 820.1 670.28 821.16 667.45 822.61C662.91 824.95 660.56 826.06 658.19 829.69C654.114 836.134 651.644 843.463 650.99 851.06C648.89 873.75 651.99 889.76 651.99 889.76C659.11 927.18 656.13 963.36 652.93 1002.09C652.39 1008.7 651.6 1018.09 649.75 1030.44C644.59 1065.08 634.81 1086.19 626.5 1117.25C604.71 1198.77 604.5 1202.96 600.77 1238.18C600.13 1244.25 603.26 1255.66 613.97 1254.66C623.97 1253.73 632.46 1253.34 648.75 1257.01C656.05 1257.61 664.08 1262.43 668.46 1261.48C678.46 1259.3 681.97 1249.38 683.36 1245.38C694.44 1213.47 705.87 974.61 719.19 972.02C723.11 971.26 730.65 995.31 730.29 1014.84C729.88 1037.21 716.94 1049.84 704.8 1068.65" stroke="#010101" stroke-width="4" stroke-miterlimit="10"/>
<path d="M815.07 869.94C824.94 896.04 846.38 953.58 850.47 995.79C856.59 1059.01 833.87 1132.79 830.18 1166.79" stroke="#010101" stroke-width="4" stroke-miterlimit="10"/>
<path d="M679 829.52C685.037 836.509 690.464 844.003 695.22 851.92C720.4 893.85 721.33 925.21 719.22 949.27" stroke="#010101" stroke-width="4" stroke-miterlimit="10"/>
<path d="M979.45 830.29C970.653 842.07 963.143 854.759 957.05 868.14C944.275 896.529 937.943 927.394 938.51 958.52" stroke="#010101" stroke-width="4" stroke-miterlimit="10"/>
<path d="M708.32 1103.23L763.55 1110.83" stroke="#010101" stroke-width="4" stroke-miterlimit="10"/>
<path d="M891 1111.88L945.91 1102.18" stroke="#010101" stroke-width="4" stroke-miterlimit="10"/>
<path d="M730.89 795.14C739.72 796.14 751.8 798.14 760.63 799.14L748 814.82C788.07 853.18 827.3 909.53 850.44 995.82" stroke="#010101" stroke-width="4" stroke-miterlimit="10"/>
<path d="M918.42 788.48C911.31 791.41 897.64 799.11 890.54 802.04L913.11 810.82C875.49 850.96 855.75 877.07 839.87 943.55" stroke="#010101" stroke-width="4" stroke-miterlimit="10"/>
<path d="M728.52 990.29C764.728 975.59 803.884 969.605 842.83 972.82C869.788 975.001 896.22 981.508 921.11 992.09L915.74 1017.43C855.125 998.819 790.215 999.574 730.05 1019.59C730.65 1014.09 730.589 1008.54 729.87 1003.05C729.26 998.33 729.6 993.68 728.52 990.29Z" fill="url(#paint1_linear_1_25132)" stroke="#010101" stroke-width="4" stroke-miterlimit="10"/>
<path d="M824.19 969.61H825.49C826.342 969.641 827.148 970.007 827.732 970.629C828.316 971.251 828.632 972.077 828.61 972.93C828.73 983.53 828.847 994.127 828.96 1004.72C828.979 1005.16 828.909 1005.59 828.756 1006C828.602 1006.41 828.368 1006.79 828.067 1007.11C827.765 1007.42 827.403 1007.68 827.001 1007.85C826.6 1008.02 826.168 1008.12 825.73 1008.12H824.22C823.386 1008.06 822.609 1007.67 822.051 1007.05C821.492 1006.43 821.194 1005.62 821.22 1004.78L821.06 973C821.041 972.571 821.108 972.144 821.255 971.741C821.402 971.338 821.628 970.968 821.919 970.653C822.21 970.338 822.56 970.084 822.95 969.905C823.34 969.726 823.761 969.625 824.19 969.61Z" fill="url(#paint2_linear_1_25132)" stroke="#010101" stroke-width="4" stroke-miterlimit="10"/>
<path d="M833.51 974.08C851.71 975.61 863.66 978.25 863.23 989.99C862.82 1001.57 850.92 1002.76 833.79 1003.24C833.42 1004.87 833.04 1006.5 832.67 1008.13C854.8 1008.22 870.37 1006.03 870.35 990.13C870.35 972.86 855.82 970.67 833.09 969.61L833.51 974.08Z" fill="url(#paint3_linear_1_25132)" stroke="#010101" stroke-width="4" stroke-miterlimit="10"/>
<path d="M818.51 1117.25C823.735 1117.25 827.97 1113.01 827.97 1107.79C827.97 1102.57 823.735 1098.33 818.51 1098.33C813.285 1098.33 809.05 1102.57 809.05 1107.79C809.05 1113.01 813.285 1117.25 818.51 1117.25Z" fill="url(#paint4_linear_1_25132)" stroke="#010101" stroke-width="4" stroke-miterlimit="10"/>
<path d="M833.58 1038.51C838.805 1038.51 843.04 1034.27 843.04 1029.05C843.04 1023.83 838.805 1019.59 833.58 1019.59C828.356 1019.59 824.12 1023.83 824.12 1029.05C824.12 1034.27 828.356 1038.51 833.58 1038.51Z" fill="url(#paint5_linear_1_25132)" stroke="#010101" stroke-width="4" stroke-miterlimit="10"/>
<defs>
<linearGradient id="paint0_linear_1_25132" x1="600.67" y1="1037" x2="1046.73" y2="1037" gradientUnits="userSpaceOnUse">
<stop stop-color="#101218"/>
<stop offset="0.33" stop-color="#14161E"/>
<stop offset="0.74" stop-color="#1F232E"/>
<stop offset="1" stop-color="#282E3B"/>
</linearGradient>
<linearGradient id="paint1_linear_1_25132" x1="728.52" y1="995.79" x2="921.11" y2="995.79" gradientUnits="userSpaceOnUse">
<stop stop-color="#231F20"/>
<stop offset="0.23" stop-color="#181516"/>
<stop offset="0.67" stop-color="#070606"/>
<stop offset="1" stop-color="#010101"/>
</linearGradient>
<linearGradient id="paint2_linear_1_25132" x1="821.06" y1="988.87" x2="828.96" y2="988.87" gradientUnits="userSpaceOnUse">
<stop stop-color="#C49A6C"/>
<stop offset="0.53" stop-color="#DDBD9E"/>
<stop offset="1" stop-color="#F5DFCE"/>
</linearGradient>
<linearGradient id="paint3_linear_1_25132" x1="832.67" y1="988.87" x2="870.35" y2="988.87" gradientUnits="userSpaceOnUse">
<stop stop-color="#C49A6C"/>
<stop offset="0.53" stop-color="#DDBD9E"/>
<stop offset="1" stop-color="#F5DFCE"/>
</linearGradient>
<linearGradient id="paint4_linear_1_25132" x1="809.05" y1="1107.79" x2="827.96" y2="1107.79" gradientUnits="userSpaceOnUse">
<stop stop-color="#101218"/>
<stop offset="0.47" stop-color="#16161A"/>
<stop offset="1" stop-color="#231F20"/>
</linearGradient>
<linearGradient id="paint5_linear_1_25132" x1="824.13" y1="1029.05" x2="843.04" y2="1029.05" gradientUnits="userSpaceOnUse">
<stop stop-color="#101218"/>
<stop offset="0.47" stop-color="#16161A"/>
<stop offset="1" stop-color="#231F20"/>
</linearGradient>
</defs>
</svg>
