<svg width="1660" height="1660" viewBox="0 0 1660 1660" fill="none" xmlns="http://www.w3.org/2000/svg">
<path d="M788.73 796.77C765.28 825.21 726.07 857.24 702.69 916.56C676.84 982.14 678.78 1052.24 677.46 1090.89" stroke="#010101" stroke-width="14" stroke-miterlimit="10"/>
<path d="M872.07 797.05C895.52 825.49 934.73 857.52 958.11 916.84C983.96 982.42 982.02 1052.52 983.34 1091.17" stroke="#010101" stroke-width="14" stroke-miterlimit="10"/>
<path d="M671.82 1090.42C659.38 1115.75 658.03 1138.2 668.13 1146.48C673.93 1151.24 684.81 1152.38 688.78 1147.96C694.32 1141.79 683.66 1127.9 688.78 1122.88C694.26 1117.5 708.15 1128.42 709.41 1125.69C714.7 1114.26 704.57 1115.93 692.47 1103.7C687.82 1099 686 1095.82 682.14 1090.42C679.81 1087.15 674.58 1089.58 671.82 1090.42Z" fill="#010101" stroke="#010101" stroke-width="4" stroke-miterlimit="10"/>
<path d="M988.18 1090.14C1000.62 1115.47 1001.97 1137.92 991.87 1146.2C986.07 1150.96 975.19 1152.1 971.22 1147.68C965.68 1141.51 976.34 1127.62 971.22 1122.6C965.74 1117.22 951.85 1128.14 950.59 1125.41C945.3 1113.98 955.43 1115.65 967.53 1103.42C972.18 1098.72 974 1095.54 977.86 1090.14C980.19 1086.87 985.42 1089.29 988.18 1090.14Z" fill="#010101" stroke="#010101" stroke-width="4" stroke-miterlimit="10"/>
</svg>
