<svg width="1660" height="1660" viewBox="0 0 1660 1660" fill="none" xmlns="http://www.w3.org/2000/svg">
<path d="M447.45 278.05C460.407 278.05 470.91 267.547 470.91 254.59C470.91 241.633 460.407 231.13 447.45 231.13C434.493 231.13 423.99 241.633 423.99 254.59C423.99 267.547 434.493 278.05 447.45 278.05Z" fill="#010101" stroke="#030303" stroke-miterlimit="10"/>
<path d="M653.68 342.3C646.27 327.54 616.95 294.2 571.08 258.93C476.58 186.28 457.98 240.01 443 243.48" stroke="#030303" stroke-width="6" stroke-miterlimit="10"/>
<path d="M1212.55 278.05C1225.51 278.05 1236.01 267.547 1236.01 254.59C1236.01 241.633 1225.51 231.13 1212.55 231.13C1199.59 231.13 1189.09 241.633 1189.09 254.59C1189.09 267.547 1199.59 278.05 1212.55 278.05Z" fill="#010101" stroke="#030303" stroke-miterlimit="10"/>
<path d="M1006.32 342.3C1013.73 327.54 1043.05 294.2 1088.92 258.93C1183.42 186.28 1202.02 240.01 1217 243.48" stroke="#030303" stroke-width="6" stroke-miterlimit="10"/>
</svg>
