<svg width="1660" height="1660" viewBox="0 0 1660 1660" fill="none" xmlns="http://www.w3.org/2000/svg">
<path d="M966.22 1345.84C970.78 1327.49 970.86 1325.09 970.58 1322.29C970.26 1319.13 969.95 1316.31 968.28 1313.57C965.6 1309.18 960.12 1306.1 956.34 1308.63C952.98 1310.88 952.38 1316.61 951.98 1320.55C951.5 1325.24 952.4 1325.84 953.59 1337.12C954.5 1345.75 954.25 1348.1 956.12 1350.2C958.05 1352.37 961.3 1353.22 963.47 1351.65C965.03 1350.52 965.57 1348.44 966.22 1345.84Z" fill="#090909" stroke="#010101" stroke-width="4" stroke-miterlimit="10"/>
<path d="M886.05 1356.76C885.19 1355.96 885.26 1355.22 883.41 1348.4C881.83 1342.57 881.8 1343.18 881.3 1340.84C880.21 1335.77 879.41 1332.02 880.83 1328.34C881 1327.9 881.81 1325.87 883.64 1324.27C887.15 1321.19 892.7 1321.18 895.11 1324.56C896.02 1325.84 896.26 1327.74 896.75 1331.54C897.17 1334.79 897.11 1336.59 897.22 1339.97C897.54 1349.5 898.49 1349.88 897.69 1352.01C895.81 1356.95 888.92 1359.44 886.05 1356.76Z" fill="#090909" stroke="#010101" stroke-width="4" stroke-miterlimit="10"/>
<path d="M886.27 1357.23C898.36 1352.54 915.15 1347.59 935.59 1346.14C947.59 1345.29 958.31 1345.83 967.32 1346.9C964.81 1403.23 966.27 1445.23 974.97 1468.47C981.4 1485.64 993.93 1502.47 995.36 1504.38C1002.87 1514.36 1007.63 1518.16 1012.86 1520.65C1019.74 1523.92 1026.26 1524.35 1035.27 1524.95C1050.36 1525.94 1052.74 1523.34 1058.6 1525.26C1071.02 1529.33 1081.64 1548.05 1077.94 1558.11C1065.84 1590.95 889.95 1560.71 887.62 1531.71C887.39 1528.86 888.54 1522.27 889.46 1518.2C891.9 1507.43 895.36 1502.88 898.06 1489.96C898.06 1489.96 898.68 1486.99 899.29 1482.9C901.66 1466.95 899.74 1449.82 896.83 1427.03C893.18 1398.42 891.06 1385.18 890.38 1380.98C888.79 1371.26 887.35 1363.12 886.27 1357.23Z" fill="url(#paint0_linear_87_136)" stroke="#010101" stroke-width="4" stroke-miterlimit="10"/>
<path d="M887.91 1539.38C885.21 1532.31 884.95 1521.82 887.3 1520.96C889.39 1520.2 892.39 1527.48 901.11 1530.17C904.14 1531.1 906.66 1531.11 907.56 1531.09C915.78 1530.91 919.3 1525.45 927.21 1522.19C932.51 1520 938.2 1517.66 943.48 1520.04C944.5 1520.5 947.32 1521.77 948.7 1524.64C951.07 1529.57 946.41 1533.37 948.39 1539.37C948.53 1539.79 950.08 1544.27 953.92 1545.82C957.96 1547.45 961.54 1544.63 968.04 1542.14C969.44 1541.6 979.05 1537.99 987.38 1538.46C996.93 1539 997.45 1544.5 1009.79 1548.9C1012.44 1549.84 1023.95 1553.7 1037.42 1551.36C1044.24 1550.18 1045.49 1548.46 1061.98 1543.07C1067.91 1541.13 1072.83 1539.69 1076.1 1538.77C1077.21 1543.63 1078.32 1548.48 1079.43 1553.34C1037.54 1569.89 1002.25 1571.97 979.93 1571.29C964.88 1570.83 899.16 1568.82 887.91 1539.38Z" fill="#FEBF50" stroke="#E0A24A" stroke-width="4" stroke-miterlimit="10"/>
<path d="M878.83 1552.06L878.96 1551.33C878.96 1551.32 879.38 1549 879.38 1548.99C879.39 1548.94 881.28 1538.45 881.33 1538.16C904.09 1538.17 920.12 1543.41 930.56 1548.19C944.09 1554.39 949.71 1560.52 964.52 1563.91C971.49 1565.51 974.59 1565.15 999.39 1563.91C1040.78 1561.84 1049.49 1561.97 1065.71 1557.98C1073.87 1555.98 1080.41 1553.8 1084.63 1552.28C1085.47 1556.99 1086.3 1561.7 1087.14 1566.41C1073.27 1574.15 1048.92 1585.1 1017.39 1586.26C1011.87 1586.46 981.14 1587.29 957.02 1576.66C954.94 1575.74 944.56 1571.07 930.13 1565.27C920.47 1561.38 915.63 1559.44 912.75 1558.74C904.02 1556.62 883.78 1553.36 880.9 1553.87C880.67 1553.91 879.54 1554.15 879.04 1553.58C878.79 1553.29 878.79 1552.91 878.8 1552.71C878.88 1550.48 880.67 1544.28 881.12 1542.53C881.34 1541.67 881.63 1540.37 881.8 1538.72" fill="#FEBF50"/>
<path d="M878.83 1552.06L878.96 1551.33C878.96 1551.32 879.38 1549 879.38 1548.99C879.39 1548.94 881.28 1538.45 881.33 1538.16C904.09 1538.17 920.12 1543.41 930.56 1548.19C944.09 1554.39 949.71 1560.52 964.52 1563.91C971.49 1565.51 974.59 1565.15 999.39 1563.91C1040.78 1561.84 1049.49 1561.97 1065.71 1557.98C1073.87 1555.98 1080.41 1553.8 1084.63 1552.28C1085.47 1556.99 1086.3 1561.7 1087.14 1566.41C1073.27 1574.15 1048.92 1585.1 1017.39 1586.26C1011.87 1586.46 981.14 1587.29 957.02 1576.66C954.94 1575.74 944.56 1571.07 930.13 1565.27C920.47 1561.38 915.63 1559.44 912.75 1558.74C904.02 1556.62 883.78 1553.36 880.9 1553.87C880.67 1553.91 879.54 1554.15 879.04 1553.58C878.79 1553.29 878.79 1552.91 878.8 1552.71C878.88 1550.48 880.67 1544.28 881.12 1542.53C881.34 1541.67 881.63 1540.37 881.8 1538.72" stroke="#E0A24A" stroke-width="4" stroke-miterlimit="10"/>
<path d="M875.63 1552.11C875 1561.41 874.37 1570.71 873.74 1580.01C885.65 1582.29 897.56 1584.58 909.47 1586.86C909.77 1586.55 910.08 1586.23 910.38 1585.92C910.22 1582.77 910.06 1579.62 909.91 1576.46C918.81 1579.3 927.72 1582.13 936.62 1584.97C936.24 1586.44 935.64 1588.21 936.62 1588.75C946.62 1594.29 987.71 1596.84 996.65 1595.9C997.04 1595.89 997.72 1595.87 998.56 1595.84C1010.08 1595.48 1018.13 1594.92 1024.9 1594.22C1047.09 1591.93 1058.24 1591.25 1069.96 1588.75C1079.97 1586.61 1088.04 1584.15 1093.36 1582.37C1092.65 1577.01 1091.94 1571.65 1091.23 1566.29C1016.29 1587.57 981.42 1584.91 963.57 1577.64C960.91 1576.56 948.07 1571.07 930.1 1565.28C912.74 1559.69 898.95 1556.5 889.12 1554.53C883.58 1553.42 878.92 1552.63 875.63 1552.11Z" fill="#FEBF50" stroke="#E0A24A" stroke-width="4" stroke-miterlimit="10"/>
<path d="M694.79 1345.84C690.23 1327.49 690.15 1325.09 690.43 1322.29C690.75 1319.13 691.06 1316.31 692.73 1313.57C695.41 1309.18 700.89 1306.1 704.67 1308.63C708.03 1310.88 708.63 1316.61 709.03 1320.55C709.51 1325.24 708.61 1325.84 707.42 1337.12C706.51 1345.75 706.76 1348.1 704.89 1350.2C702.96 1352.37 699.71 1353.22 697.54 1351.65C695.98 1350.52 695.44 1348.44 694.79 1345.84Z" fill="#090909" stroke="#010101" stroke-width="4" stroke-miterlimit="10"/>
<path d="M774.96 1356.76C775.82 1355.96 775.75 1355.22 777.6 1348.4C779.18 1342.57 779.21 1343.18 779.71 1340.84C780.8 1335.77 781.6 1332.02 780.18 1328.34C780.01 1327.9 779.2 1325.87 777.37 1324.27C773.86 1321.19 768.31 1321.18 765.9 1324.56C764.99 1325.84 764.75 1327.74 764.26 1331.54C763.84 1334.79 763.9 1336.59 763.79 1339.97C763.47 1349.5 762.52 1349.88 763.32 1352.01C765.2 1356.95 772.09 1359.44 774.96 1356.76Z" fill="#090909" stroke="#010101" stroke-width="4" stroke-miterlimit="10"/>
<path d="M774.74 1357.23C762.65 1352.54 745.86 1347.59 725.42 1346.14C713.42 1345.29 702.7 1345.83 693.69 1346.9C696.2 1403.23 694.74 1445.23 686.04 1468.47C679.61 1485.64 667.08 1502.47 665.65 1504.38C658.14 1514.36 653.38 1518.16 648.15 1520.65C641.27 1523.92 634.75 1524.35 625.74 1524.95C610.65 1525.94 608.27 1523.34 602.41 1525.26C589.99 1529.33 579.37 1548.05 583.07 1558.11C595.17 1590.95 771.06 1560.71 773.39 1531.71C773.62 1528.86 772.47 1522.27 771.55 1518.2C769.11 1507.43 765.65 1502.88 762.95 1489.96C762.95 1489.96 762.33 1486.99 761.72 1482.9C759.35 1466.95 761.27 1449.82 764.18 1427.03C767.83 1398.42 769.95 1385.18 770.63 1380.98C772.22 1371.26 773.66 1363.12 774.74 1357.23Z" fill="url(#paint1_linear_87_136)" stroke="#010101" stroke-width="4" stroke-miterlimit="10"/>
<path d="M773.1 1539.38C775.8 1532.31 776.06 1521.82 773.71 1520.96C771.62 1520.2 768.62 1527.48 759.9 1530.17C756.87 1531.1 754.35 1531.11 753.45 1531.09C745.23 1530.91 741.71 1525.45 733.8 1522.19C728.5 1520 722.81 1517.66 717.53 1520.04C716.51 1520.5 713.69 1521.77 712.31 1524.64C709.94 1529.57 714.6 1533.37 712.62 1539.37C712.48 1539.79 710.93 1544.27 707.09 1545.82C703.05 1547.45 699.47 1544.63 692.97 1542.14C691.57 1541.6 681.96 1537.99 673.63 1538.46C664.08 1539 663.56 1544.5 651.22 1548.9C648.57 1549.84 637.06 1553.7 623.59 1551.36C616.77 1550.18 615.52 1548.46 599.03 1543.07C593.1 1541.13 588.18 1539.69 584.91 1538.77C583.8 1543.63 582.69 1548.48 581.58 1553.34C623.47 1569.89 658.76 1571.97 681.08 1571.29C696.13 1570.83 761.85 1568.82 773.1 1539.38Z" fill="#FEBF50" stroke="#E0A24A" stroke-width="4" stroke-miterlimit="10"/>
<path d="M782.18 1552.06L782.05 1551.33C782.05 1551.32 781.63 1549 781.63 1548.99C781.62 1548.94 779.73 1538.45 779.68 1538.16C756.92 1538.17 740.89 1543.41 730.45 1548.19C716.92 1554.39 711.3 1560.52 696.49 1563.91C689.52 1565.51 686.42 1565.15 661.62 1563.91C620.23 1561.84 611.52 1561.97 595.3 1557.98C587.14 1555.98 580.6 1553.8 576.38 1552.28C575.54 1556.99 574.71 1561.7 573.87 1566.41C587.74 1574.15 612.09 1585.1 643.62 1586.26C649.14 1586.46 679.87 1587.29 703.99 1576.66C706.07 1575.74 716.45 1571.07 730.88 1565.27C740.54 1561.38 745.38 1559.44 748.26 1558.74C756.99 1556.62 777.23 1553.36 780.11 1553.87C780.34 1553.91 781.47 1554.15 781.97 1553.58C782.22 1553.29 782.22 1552.91 782.21 1552.71C782.13 1550.48 780.34 1544.28 779.89 1542.53C779.67 1541.67 779.38 1540.37 779.21 1538.72" fill="#FEBF50"/>
<path d="M782.18 1552.06L782.05 1551.33C782.05 1551.32 781.63 1549 781.63 1548.99C781.62 1548.94 779.73 1538.45 779.68 1538.16C756.92 1538.17 740.89 1543.41 730.45 1548.19C716.92 1554.39 711.3 1560.52 696.49 1563.91C689.52 1565.51 686.42 1565.15 661.62 1563.91C620.23 1561.84 611.52 1561.97 595.3 1557.98C587.14 1555.98 580.6 1553.8 576.38 1552.28C575.54 1556.99 574.71 1561.7 573.87 1566.41C587.74 1574.15 612.09 1585.1 643.62 1586.26C649.14 1586.46 679.87 1587.29 703.99 1576.66C706.07 1575.74 716.45 1571.07 730.88 1565.27C740.54 1561.38 745.38 1559.44 748.26 1558.74C756.99 1556.62 777.23 1553.36 780.11 1553.87C780.34 1553.91 781.47 1554.15 781.97 1553.58C782.22 1553.29 782.22 1552.91 782.21 1552.71C782.13 1550.48 780.34 1544.28 779.89 1542.53C779.67 1541.67 779.38 1540.37 779.21 1538.72" stroke="#E0A24A" stroke-width="4" stroke-miterlimit="10"/>
<path d="M785.38 1552.11C786.01 1561.41 786.64 1570.71 787.27 1580.01C775.36 1582.29 763.45 1584.58 751.54 1586.86C751.24 1586.55 750.93 1586.23 750.63 1585.92C750.79 1582.77 750.95 1579.62 751.1 1576.46C742.2 1579.3 733.29 1582.13 724.39 1584.97C724.77 1586.44 725.37 1588.21 724.39 1588.75C714.39 1594.29 673.3 1596.84 664.36 1595.9C663.97 1595.89 663.29 1595.87 662.45 1595.84C650.93 1595.48 642.88 1594.92 636.11 1594.22C613.92 1591.93 602.77 1591.25 591.05 1588.75C581.04 1586.61 572.97 1584.15 567.65 1582.37C568.36 1577.01 569.07 1571.65 569.78 1566.29C644.72 1587.57 679.59 1584.91 697.44 1577.64C700.1 1576.56 712.94 1571.07 730.91 1565.28C748.27 1559.69 762.06 1556.5 771.89 1554.53C777.43 1553.42 782.09 1552.63 785.38 1552.11Z" fill="#FEBF50" stroke="#E0A24A" stroke-width="4" stroke-miterlimit="10"/>
<defs>
<linearGradient id="paint0_linear_87_136" x1="886.267" y1="1459.05" x2="1078.67" y2="1459.05" gradientUnits="userSpaceOnUse">
<stop stop-color="#010101"/>
<stop offset="0.1443" stop-color="#0D0D0D"/>
<stop offset="0.4052" stop-color="#212222"/>
<stop offset="0.7504" stop-color="#3A3B3B"/>
<stop offset="1" stop-color="#4E4E4E"/>
</linearGradient>
<linearGradient id="paint1_linear_87_136" x1="774.743" y1="1459.05" x2="582.337" y2="1459.05" gradientUnits="userSpaceOnUse">
<stop stop-color="#010101"/>
<stop offset="0.1443" stop-color="#0D0D0D"/>
<stop offset="0.4052" stop-color="#212222"/>
<stop offset="0.7504" stop-color="#3A3B3B"/>
<stop offset="1" stop-color="#4E4E4E"/>
</linearGradient>
</defs>
</svg>
