<svg width="1660" height="1660" viewBox="0 0 1660 1660" fill="none" xmlns="http://www.w3.org/2000/svg">
<path opacity="0.51" d="M1328.01 450.6C1374.02 450.6 1411.32 413.301 1411.32 367.29C1411.32 321.279 1374.02 283.98 1328.01 283.98C1282 283.98 1244.7 321.279 1244.7 367.29C1244.7 413.301 1282 450.6 1328.01 450.6Z" fill="url(#paint0_radial_1_11974)"/>
<path d="M1481.27 738.67C1516.57 697.17 1526.89 645.47 1510.36 593.11C1493.83 540.75 1453.92 498.77 1398 474.92C1345.53 452.54 1281.52 447.01 1217.76 459.34C1151.3 472.2 1099 498.16 1066.46 534.4C1030 575.07 1020.3 626.94 1038.46 684.4C1056.62 741.86 1096.06 784.23 1152.53 806.92C1202.87 827.12 1264.61 831.01 1331.07 818.15C1394.81 805.83 1448.17 777.6 1481.27 738.67ZM1055.11 681.19C1019.91 569.72 1101.53 498.28 1222.65 474.84C1343.77 451.4 1462 496 1493.71 596.33C1525.42 696.66 1447.28 779.23 1326.16 802.67C1205.04 826.11 1090.3 792.66 1055.11 681.19V681.19Z" fill="url(#paint1_linear_1_11974)"/>
<path opacity="0.3" d="M1481.27 738.67C1483 736.67 1484.67 734.617 1486.27 732.51C1485.95 732.91 1485.61 733.3 1485.27 733.69C1452.18 772.63 1398.82 800.85 1335.06 813.19C1268.6 826.05 1206.87 822.19 1156.53 801.96C1100.05 779.27 1060.6 736.91 1042.45 679.44C1025.59 626.04 1032.77 577.44 1063.12 538.24C1029.42 578.31 1020.87 628.74 1038.45 684.42C1056.59 741.88 1096.05 784.24 1152.52 806.94C1202.86 827.14 1264.6 831.03 1331.06 818.17C1394.81 805.83 1448.17 777.6 1481.27 738.67Z" fill="#010101"/>
<path d="M1125.24 796.1C1082.12 771.53 1051.61 733.54 1036.24 684.85C1017.88 626.69 1027.7 574.18 1064.64 532.99C1097.45 496.41 1150.17 470.23 1217.11 457.27C1281.36 444.84 1345.9 450.43 1398.84 473.02C1455.45 497.16 1495.84 539.65 1512.59 592.68C1529.34 645.71 1518.87 698 1483.14 740C1449.75 779.28 1395.97 807.76 1331.71 820.2C1264.78 833.2 1202.55 829.2 1151.71 808.82C1142.61 805.181 1133.77 800.931 1125.24 796.1ZM1420.7 488.47C1413.08 484.141 1405.22 480.252 1397.15 476.82C1345.15 454.64 1281.68 449.17 1218.4 461.41C1152.4 474.18 1100.52 499.91 1068.3 535.82C1032.3 575.97 1022.74 627.2 1040.67 683.99C1055.67 731.55 1085.46 768.64 1127.51 792.59C1135.82 797.31 1144.44 801.463 1153.31 805.02C1203.19 825.02 1264.42 828.87 1330.4 816.1C1393.69 803.86 1446.6 775.87 1479.4 737.29C1514.26 696.29 1524.47 645.29 1508.14 593.54C1494.24 549.51 1463.59 512.91 1420.7 488.47ZM1133.52 782.83C1118.76 774.502 1105.31 764.058 1093.58 751.83C1075.2 732.57 1061.51 708.96 1052.89 681.65C1044.27 654.34 1042.32 628.46 1047.12 604.65C1051.66 582.22 1062.19 561.65 1078.42 543.57C1109 509.52 1158.62 485 1222 472.78C1282.6 461.05 1343.17 466.19 1392.56 487.26C1417.73 498 1439.31 512.5 1456.7 530.38C1474.75 548.832 1488.19 571.279 1495.94 595.9C1503.75 620.64 1505.19 644.95 1500.21 668.18C1495.46 690.33 1485 711.04 1469.12 729.72C1437.95 766.37 1387.42 793.01 1326.83 804.72C1263.45 816.98 1204.95 813.42 1157.64 794.42C1149.35 791.111 1141.29 787.239 1133.52 782.83V782.83ZM1057.33 680.76C1095 800.09 1220.57 820.91 1325.51 800.6C1451.29 776.26 1521.1 690.54 1491.51 596.76C1461.92 502.98 1349.11 452.57 1223.33 476.91C1118.36 497.21 1019.65 561.43 1057.33 680.76Z" fill="black"/>
<path d="M1061 700.52L1045.71 703.52C1045.65 703.53 1045.59 703.53 1045.53 703.52C1042.91 697.36 1040.58 691.003 1038.53 684.45C1036.48 677.897 1034.75 671.413 1033.32 665C1033.37 664.974 1033.43 664.954 1033.49 664.94L1048.78 661.99C1049.08 661.929 1049.4 661.979 1049.67 662.131C1049.94 662.284 1050.15 662.528 1050.25 662.82V662.98C1051.55 669.137 1053.15 675.224 1055.06 681.22C1057.02 687.427 1059.22 693.393 1061.66 699.12V699.28C1061.74 699.532 1061.71 699.803 1061.58 700.035C1061.46 700.267 1061.25 700.442 1061 700.52V700.52Z" fill="url(#paint2_linear_1_11974)"/>
<path opacity="0.3" d="M1061 700.52L1045.71 703.52C1045.65 703.53 1045.59 703.53 1045.53 703.52C1042.91 697.36 1040.58 691.003 1038.53 684.45C1036.48 677.897 1034.75 671.413 1033.33 665C1033.38 664.971 1033.43 664.95 1033.49 664.94L1038.38 664C1039.55 668.98 1040.93 674.017 1042.54 679.11C1044.61 685.67 1046.95 692.03 1049.54 698.19C1049.6 698.204 1049.66 698.204 1049.72 698.19L1060.42 696.12C1060.82 697.12 1061.24 698.12 1061.67 699.12V699.28C1061.74 699.533 1061.72 699.806 1061.59 700.038C1061.47 700.27 1061.25 700.444 1061 700.52Z" fill="#010101"/>
<path d="M1044.38 705.26C1043.93 704.995 1043.58 704.591 1043.38 704.11C1040.73 697.88 1038.38 691.4 1036.27 684.85C1034.16 678.3 1032.46 671.67 1031.09 665.2C1031.01 664.819 1031.04 664.421 1031.2 664.062C1031.35 663.703 1031.62 663.402 1031.95 663.2C1032.23 663.025 1032.55 662.906 1032.88 662.85L1048.17 659.85C1049.07 659.677 1050 659.83 1050.8 660.283C1051.59 660.736 1052.2 661.458 1052.51 662.32V662.48C1052.51 662.543 1052.51 662.607 1052.51 662.67C1053.74 668.53 1055.34 674.6 1057.27 680.67C1059.2 686.74 1061.4 692.74 1063.8 698.38C1063.83 698.442 1063.85 698.505 1063.87 698.57V698.73C1064 699.134 1064.04 699.561 1063.99 699.982C1063.93 700.403 1063.79 700.807 1063.56 701.167C1063.34 701.526 1063.03 701.831 1062.68 702.062C1062.32 702.292 1061.92 702.441 1061.5 702.5L1046.22 705.5C1045.87 705.562 1045.51 705.562 1045.16 705.5C1044.89 705.46 1044.63 705.379 1044.38 705.26V705.26ZM1036 666.62C1037.27 672.36 1038.84 678.19 1040.67 683.99C1042.5 689.79 1044.58 695.51 1046.88 701.05L1059.13 698.68C1056.84 693.23 1054.74 687.49 1052.89 681.62C1051.04 675.75 1049.47 669.91 1048.25 664.25L1036 666.62Z" fill="black"/>
<path d="M990.68 702.29L986.11 687.82L1036.45 678.08L1041.02 692.55L990.68 702.29Z" fill="url(#paint3_linear_1_11974)"/>
<path opacity="0.3" d="M1041.02 692.55L990.68 702.29L988.4 695.05L1038.73 685.31L1041.02 692.55Z" fill="#010101"/>
<path d="M989.57 704.06C989.045 703.769 988.649 703.29 988.46 702.72L983.89 688.25C983.806 687.983 983.781 687.701 983.817 687.423C983.853 687.145 983.949 686.878 984.099 686.642C984.248 686.405 984.447 686.203 984.682 686.051C984.917 685.899 985.183 685.799 985.46 685.76L1035.8 676C1036.39 675.883 1037.01 675.983 1037.54 676.283C1038.06 676.582 1038.47 677.06 1038.67 677.63L1043.24 692.1C1043.33 692.363 1043.36 692.641 1043.32 692.916C1043.29 693.191 1043.2 693.455 1043.05 693.69C1042.89 693.928 1042.69 694.131 1042.45 694.288C1042.22 694.445 1041.95 694.551 1041.67 694.6L991.33 704.34C990.729 704.452 990.107 704.353 989.57 704.06ZM988.99 689.46L992.25 699.79L1038.15 690.91L1034.88 680.58L988.99 689.46Z" fill="black"/>
<path d="M692.15 758.41L688.56 747.04L986.6 689.37L990.19 700.74L692.15 758.41Z" fill="url(#paint4_linear_1_11974)"/>
<path opacity="0.3" d="M990.19 700.74L692.15 758.41L690.36 752.72L988.4 695.05L990.19 700.74Z" fill="#010101"/>
<path d="M691 760.17C690.474 759.884 690.077 759.409 689.89 758.84L686.3 747.47C686.213 747.207 686.184 746.929 686.217 746.654C686.25 746.379 686.343 746.115 686.49 745.88C686.646 745.643 686.849 745.441 687.086 745.286C687.324 745.131 687.59 745.027 687.87 744.98L985.87 687.31C986.463 687.211 987.071 687.32 987.594 687.616C988.116 687.913 988.521 688.38 988.74 688.94L992.33 700.31C992.419 700.572 992.449 700.851 992.416 701.127C992.383 701.402 992.289 701.666 992.14 701.9C991.985 702.137 991.784 702.34 991.549 702.496C991.313 702.653 991.048 702.759 990.77 702.81L692.8 760.47C692.183 760.594 691.543 760.488 691 760.17V760.17ZM691.39 748.68L693.68 755.91L987.28 699.1L985 691.87L691.39 748.68Z" fill="black"/>
<path d="M602.72 788.32L404.72 826.64C404.72 826.64 373.72 830.95 359.02 841.54C358.402 841.951 357.699 842.216 356.964 842.314C356.228 842.413 355.48 842.343 354.776 842.11C354.071 841.877 353.429 841.487 352.898 840.969C352.367 840.451 351.961 839.818 351.71 839.12L345.5 819.45L339.29 799.79C338.36 796.84 341.05 794.3 344.29 794.98C363.56 798.98 393.59 791.5 393.59 791.5L591.59 753.19L602.72 788.32Z" fill="#4E4E4E"/>
<path opacity="0.2" d="M602.72 788.32L404.72 826.63C404.72 826.63 373.72 830.95 359.03 841.54C358.412 841.949 357.709 842.212 356.974 842.31C356.239 842.408 355.491 842.337 354.788 842.104C354.084 841.871 353.442 841.482 352.911 840.965C352.379 840.448 351.972 839.817 351.72 839.12L348.39 828.57C348.64 829.269 349.045 829.902 349.576 830.422C350.106 830.941 350.748 831.332 351.453 831.566C352.157 831.801 352.906 831.871 353.642 831.773C354.378 831.675 355.082 831.411 355.7 831C370.36 820.4 401.4 816.09 401.4 816.09L599.4 777.78L602.72 788.32Z" fill="#010101"/>
<path opacity="0.3" d="M599.4 777.78H599.39L591.63 753.18L599.4 777.78Z" fill="#010101"/>
<path d="M692.15 758.41C692.15 758.41 615.7 775.94 602.72 788.32L597.18 770.75L591.63 753.19C610.48 759.41 688.56 747.04 688.56 747.04L692.15 758.41Z" fill="url(#paint5_linear_1_11974)"/>
<path opacity="0.3" d="M602.72 788.32L600.8 782.23C613.8 769.84 690.23 752.31 690.23 752.31L692.15 758.41C692.15 758.41 615.7 775.94 602.72 788.32Z" fill="#010101"/>
<path d="M601.61 790.09C601.087 789.796 600.692 789.318 600.5 788.75L589.41 753.62C589.296 753.268 589.29 752.889 589.391 752.533C589.493 752.177 589.698 751.859 589.98 751.62C590.297 751.369 590.672 751.202 591.071 751.136C591.47 751.07 591.879 751.105 592.26 751.24C610.26 757.19 687.26 745.11 687.99 744.99C688.574 744.899 689.172 745.014 689.681 745.315C690.19 745.616 690.578 746.084 690.78 746.64L694.37 758C694.452 758.261 694.479 758.536 694.447 758.808C694.415 759.08 694.325 759.341 694.184 759.576C694.043 759.81 693.854 760.012 693.629 760.168C693.404 760.324 693.149 760.43 692.88 760.48C692.12 760.65 616.88 778.01 604.46 789.86C604.16 790.126 603.796 790.312 603.405 790.399C603.013 790.487 602.605 790.473 602.22 790.36C602.007 790.293 601.803 790.202 601.61 790.09V790.09ZM594.9 756.09L603.9 784.55C620.99 773.31 677.4 759.65 689.31 756.85L687 749.46C674.76 751.32 616.72 759.81 594.9 756.09Z" fill="black"/>
<path d="M352.72 843.46C351.189 842.608 350.033 841.213 349.48 839.55L337.06 800.22C336.728 799.239 336.683 798.184 336.929 797.178C337.175 796.172 337.703 795.257 338.45 794.54C339.273 793.785 340.268 793.243 341.349 792.96C342.429 792.678 343.563 792.664 344.65 792.92C363.12 796.78 392.54 789.54 392.84 789.46H392.96L590.96 751.15C591.554 751.052 592.164 751.162 592.686 751.46C593.209 751.759 593.613 752.229 593.83 752.79L604.92 787.92C605.006 788.187 605.032 788.47 604.998 788.748C604.963 789.026 604.868 789.294 604.72 789.532C604.571 789.77 604.373 789.973 604.138 790.126C603.903 790.279 603.638 790.38 603.36 790.42L405.36 828.73H405.23C404.93 828.73 374.58 833.1 360.53 843.24C359.6 843.881 358.531 844.292 357.411 844.438C356.292 844.584 355.153 844.462 354.09 844.08C353.615 843.917 353.156 843.709 352.72 843.46V843.46ZM394.33 793.56C392.38 794.04 363.33 801.08 343.97 797.04C343.62 796.954 343.254 796.957 342.904 797.048C342.555 797.139 342.234 797.315 341.97 797.56C341.731 797.786 341.563 798.076 341.485 798.395C341.407 798.715 341.423 799.049 341.53 799.36L353.95 838.69C354.061 839.028 354.252 839.334 354.506 839.583C354.76 839.832 355.07 840.016 355.41 840.12C355.757 840.246 356.129 840.286 356.494 840.237C356.86 840.189 357.208 840.052 357.51 839.84C372.25 829.2 402.14 824.84 404.14 824.56L599.88 786.68L590.09 755.68L394.33 793.56Z" fill="black"/>
<path d="M1489.1 694.07C1488.97 693.998 1488.87 693.881 1488.82 693.74L1431.41 511.91C1431.39 511.844 1431.38 511.773 1431.39 511.704C1431.4 511.635 1431.42 511.569 1431.46 511.51C1431.5 511.451 1431.55 511.4 1431.61 511.363C1431.66 511.325 1431.73 511.3 1431.8 511.29C1431.95 511.26 1432.1 511.285 1432.24 511.36C1432.37 511.435 1432.47 511.556 1432.52 511.7L1489.93 693.53C1489.95 693.597 1489.96 693.667 1489.95 693.736C1489.94 693.805 1489.92 693.871 1489.88 693.93C1489.84 693.989 1489.79 694.04 1489.73 694.078C1489.68 694.115 1489.61 694.14 1489.54 694.15C1489.39 694.179 1489.23 694.15 1489.1 694.07V694.07Z" fill="#333333"/>
<path d="M1479.94 711.17C1479.81 711.095 1479.71 710.974 1479.66 710.83L1413.13 500.13C1413.11 500.064 1413.1 499.993 1413.11 499.924C1413.12 499.855 1413.14 499.789 1413.18 499.73C1413.22 499.671 1413.27 499.62 1413.33 499.582C1413.38 499.545 1413.45 499.52 1413.52 499.51C1413.67 499.482 1413.82 499.508 1413.96 499.583C1414.09 499.658 1414.19 499.777 1414.24 499.92L1480.77 710.62C1480.79 710.686 1480.8 710.757 1480.79 710.826C1480.78 710.895 1480.76 710.961 1480.72 711.02C1480.68 711.079 1480.63 711.13 1480.57 711.168C1480.52 711.205 1480.45 711.23 1480.38 711.24C1480.23 711.268 1480.07 711.244 1479.94 711.17Z" fill="#333333"/>
<path d="M1469.85 725.3C1469.72 725.231 1469.62 725.113 1469.57 724.97L1395.79 491.31C1395.77 491.243 1395.76 491.172 1395.77 491.101C1395.78 491.031 1395.8 490.963 1395.84 490.903C1395.87 490.843 1395.92 490.792 1395.98 490.753C1396.04 490.714 1396.11 490.69 1396.18 490.68C1396.33 490.652 1396.48 490.678 1396.62 490.753C1396.75 490.828 1396.85 490.947 1396.9 491.09L1470.68 724.75C1470.7 724.817 1470.71 724.888 1470.7 724.958C1470.69 725.027 1470.67 725.094 1470.63 725.154C1470.59 725.214 1470.54 725.265 1470.48 725.304C1470.43 725.343 1470.36 725.369 1470.29 725.38C1470.14 725.405 1469.98 725.377 1469.85 725.3V725.3Z" fill="#333333"/>
<path d="M1459.1 737.39C1458.97 737.318 1458.87 737.201 1458.82 737.06L1379.08 484.51C1379.06 484.443 1379.05 484.372 1379.06 484.301C1379.07 484.231 1379.09 484.163 1379.13 484.103C1379.16 484.043 1379.21 483.992 1379.27 483.953C1379.33 483.914 1379.4 483.89 1379.47 483.88C1379.62 483.852 1379.77 483.878 1379.91 483.953C1380.04 484.028 1380.14 484.147 1380.19 484.29L1459.94 736.84C1459.96 736.908 1459.97 736.979 1459.96 737.05C1459.95 737.12 1459.92 737.187 1459.89 737.247C1459.85 737.307 1459.8 737.358 1459.74 737.397C1459.68 737.435 1459.61 737.46 1459.54 737.47C1459.39 737.489 1459.23 737.461 1459.1 737.39Z" fill="#333333"/>
<path d="M1447.88 747.92C1447.75 747.847 1447.65 747.725 1447.6 747.58L1362.88 479.29C1362.86 479.223 1362.85 479.152 1362.86 479.081C1362.87 479.011 1362.89 478.943 1362.93 478.883C1362.96 478.823 1363.01 478.772 1363.07 478.733C1363.13 478.694 1363.2 478.67 1363.27 478.66C1363.42 478.632 1363.57 478.658 1363.71 478.733C1363.84 478.808 1363.94 478.927 1363.99 479.07L1448.71 747.37C1448.73 747.436 1448.74 747.507 1448.73 747.576C1448.72 747.645 1448.7 747.711 1448.66 747.77C1448.62 747.829 1448.57 747.88 1448.51 747.918C1448.46 747.955 1448.39 747.98 1448.32 747.99C1448.17 748.018 1448.01 747.994 1447.88 747.92V747.92Z" fill="#333333"/>
<path d="M1436.24 757.2C1436.11 757.124 1436.01 757.003 1435.97 756.86L1347.06 475.32C1347.04 475.252 1347.03 475.181 1347.04 475.11C1347.05 475.04 1347.08 474.973 1347.11 474.913C1347.15 474.853 1347.2 474.802 1347.26 474.763C1347.32 474.725 1347.39 474.7 1347.46 474.69C1347.61 474.664 1347.76 474.691 1347.89 474.766C1348.02 474.841 1348.12 474.959 1348.17 475.1L1437.08 756.65C1437.1 756.717 1437.11 756.788 1437.1 756.858C1437.09 756.928 1437.06 756.995 1437.03 757.054C1436.99 757.113 1436.94 757.163 1436.88 757.2C1436.82 757.238 1436.75 757.262 1436.68 757.27C1436.53 757.298 1436.37 757.273 1436.24 757.2V757.2Z" fill="#333333"/>
<path d="M1424.29 765.41C1424.16 765.341 1424.06 765.223 1424.01 765.08L1331.6 472.42C1331.58 472.354 1331.57 472.283 1331.58 472.214C1331.59 472.145 1331.61 472.079 1331.65 472.02C1331.69 471.961 1331.74 471.91 1331.8 471.873C1331.85 471.835 1331.92 471.81 1331.99 471.8C1332.14 471.77 1332.29 471.795 1332.43 471.87C1332.56 471.945 1332.66 472.066 1332.71 472.21L1425.12 764.86C1425.14 764.926 1425.15 764.997 1425.14 765.066C1425.13 765.135 1425.11 765.201 1425.07 765.26C1425.03 765.319 1424.98 765.37 1424.92 765.408C1424.87 765.445 1424.8 765.47 1424.73 765.48C1424.58 765.508 1424.42 765.484 1424.29 765.41Z" fill="#333333"/>
<path d="M1412 772.71C1411.87 772.638 1411.77 772.521 1411.72 772.38L1316.38 470.43C1316.36 470.363 1316.35 470.292 1316.36 470.221C1316.37 470.151 1316.39 470.083 1316.43 470.023C1316.46 469.963 1316.51 469.912 1316.57 469.873C1316.63 469.834 1316.7 469.81 1316.77 469.8C1316.92 469.774 1317.07 469.801 1317.2 469.875C1317.34 469.95 1317.44 470.069 1317.49 470.21L1412.83 772.21C1412.85 772.276 1412.86 772.347 1412.85 772.416C1412.84 772.485 1412.82 772.551 1412.78 772.61C1412.74 772.669 1412.69 772.72 1412.63 772.758C1412.58 772.795 1412.51 772.82 1412.44 772.83C1412.28 772.847 1412.13 772.804 1412 772.71V772.71Z" fill="#333333"/>
<path d="M1399.51 779.18C1399.38 779.108 1399.28 778.991 1399.23 778.85L1301.48 469.27C1301.46 469.204 1301.45 469.133 1301.46 469.064C1301.47 468.995 1301.49 468.929 1301.53 468.87C1301.57 468.811 1301.62 468.76 1301.68 468.722C1301.73 468.685 1301.8 468.66 1301.87 468.65C1302.02 468.62 1302.17 468.645 1302.31 468.72C1302.44 468.795 1302.54 468.916 1302.59 469.06L1400.34 778.63C1400.36 778.697 1400.37 778.768 1400.36 778.839C1400.35 778.909 1400.33 778.977 1400.29 779.037C1400.26 779.097 1400.21 779.148 1400.15 779.187C1400.09 779.226 1400.02 779.25 1399.95 779.26C1399.8 779.289 1399.64 779.26 1399.51 779.18V779.18Z" fill="#333333"/>
<path d="M1386.77 784.93C1386.64 784.851 1386.54 784.732 1386.49 784.59L1286.79 468.83C1286.77 468.764 1286.76 468.693 1286.77 468.624C1286.78 468.555 1286.8 468.489 1286.84 468.43C1286.88 468.371 1286.93 468.32 1286.99 468.283C1287.04 468.245 1287.11 468.22 1287.18 468.21C1287.33 468.18 1287.48 468.205 1287.62 468.28C1287.75 468.355 1287.85 468.476 1287.9 468.62L1387.6 784.38C1387.62 784.446 1387.63 784.517 1387.62 784.586C1387.61 784.655 1387.59 784.721 1387.55 784.78C1387.51 784.839 1387.46 784.89 1387.4 784.927C1387.35 784.965 1387.28 784.99 1387.21 785C1387.06 785.028 1386.9 785.003 1386.77 784.93Z" fill="#333333"/>
<path d="M1373.81 790C1373.68 789.931 1373.58 789.813 1373.53 789.67L1272.3 469.08C1272.28 469.013 1272.27 468.942 1272.28 468.872C1272.29 468.802 1272.32 468.735 1272.35 468.676C1272.39 468.617 1272.44 468.567 1272.5 468.53C1272.56 468.492 1272.63 468.468 1272.7 468.46C1272.85 468.432 1273 468.458 1273.13 468.534C1273.26 468.609 1273.36 468.728 1273.41 468.87L1374.64 789.44C1374.66 789.506 1374.67 789.577 1374.66 789.647C1374.65 789.717 1374.63 789.784 1374.59 789.843C1374.56 789.903 1374.51 789.953 1374.45 789.991C1374.39 790.028 1374.32 790.052 1374.25 790.06C1374.1 790.091 1373.95 790.069 1373.81 790Z" fill="#333333"/>
<path d="M1360.65 794.41C1360.52 794.338 1360.42 794.221 1360.37 794.08L1258 470C1257.98 469.933 1257.97 469.862 1257.98 469.792C1257.99 469.723 1258.01 469.656 1258.05 469.596C1258.09 469.536 1258.14 469.485 1258.2 469.446C1258.25 469.407 1258.32 469.381 1258.39 469.37C1258.54 469.342 1258.69 469.368 1258.83 469.443C1258.96 469.518 1259.06 469.637 1259.11 469.78L1361.45 793.89C1361.47 793.956 1361.48 794.027 1361.47 794.097C1361.46 794.167 1361.44 794.234 1361.4 794.293C1361.37 794.353 1361.32 794.403 1361.26 794.441C1361.2 794.478 1361.13 794.502 1361.06 794.51C1360.92 794.522 1360.77 794.487 1360.65 794.41Z" fill="#333333"/>
<path d="M1347.3 798.24C1347.17 798.168 1347.07 798.05 1347.02 797.91L1243.94 471.45C1243.92 471.383 1243.91 471.312 1243.92 471.241C1243.93 471.171 1243.95 471.103 1243.99 471.043C1244.02 470.983 1244.07 470.932 1244.13 470.893C1244.19 470.854 1244.26 470.83 1244.33 470.82C1244.48 470.794 1244.63 470.821 1244.76 470.895C1244.9 470.97 1245 471.089 1245.05 471.23L1348.13 797.69C1348.15 797.757 1348.16 797.828 1348.15 797.899C1348.14 797.969 1348.12 798.037 1348.08 798.097C1348.05 798.157 1348 798.208 1347.94 798.247C1347.88 798.286 1347.81 798.31 1347.74 798.32C1347.59 798.349 1347.43 798.32 1347.3 798.24V798.24Z" fill="#333333"/>
<path d="M1333.76 801.49C1333.63 801.414 1333.53 801.293 1333.48 801.15L1230 473.51C1229.98 473.444 1229.97 473.373 1229.98 473.304C1229.99 473.235 1230.01 473.169 1230.05 473.11C1230.09 473.051 1230.14 473 1230.2 472.963C1230.25 472.925 1230.32 472.9 1230.39 472.89C1230.54 472.862 1230.69 472.888 1230.83 472.963C1230.96 473.038 1231.06 473.157 1231.11 473.3L1334.56 800.94C1334.58 801.006 1334.59 801.077 1334.58 801.146C1334.57 801.215 1334.55 801.281 1334.51 801.34C1334.47 801.399 1334.42 801.45 1334.36 801.487C1334.31 801.525 1334.24 801.55 1334.17 801.56C1334.03 801.581 1333.89 801.556 1333.76 801.49V801.49Z" fill="#333333"/>
<path d="M1320.07 804.19C1319.94 804.121 1319.84 804.003 1319.79 803.86L1216.3 476.11C1216.28 476.044 1216.27 475.973 1216.28 475.904C1216.29 475.835 1216.31 475.769 1216.35 475.71C1216.39 475.651 1216.44 475.6 1216.5 475.563C1216.55 475.525 1216.62 475.5 1216.69 475.49C1216.84 475.46 1216.99 475.485 1217.13 475.56C1217.26 475.635 1217.36 475.756 1217.41 475.9L1320.9 803.64C1320.92 803.707 1320.93 803.778 1320.92 803.848C1320.91 803.917 1320.89 803.984 1320.85 804.044C1320.81 804.104 1320.76 804.155 1320.7 804.194C1320.65 804.233 1320.58 804.259 1320.51 804.27C1320.36 804.3 1320.2 804.271 1320.07 804.19V804.19Z" fill="#333333"/>
<path d="M1306.2 806.41C1306.14 806.376 1306.08 806.329 1306.03 806.272C1305.99 806.216 1305.95 806.15 1305.93 806.08L1202.71 479.2C1202.69 479.134 1202.68 479.063 1202.69 478.994C1202.7 478.925 1202.72 478.859 1202.76 478.8C1202.8 478.741 1202.85 478.69 1202.91 478.653C1202.96 478.615 1203.03 478.59 1203.1 478.58C1203.25 478.55 1203.4 478.575 1203.54 478.65C1203.67 478.725 1203.77 478.846 1203.82 478.99L1307 805.87C1307.02 805.937 1307.03 806.008 1307.02 806.078C1307.01 806.148 1306.98 806.215 1306.95 806.274C1306.91 806.333 1306.86 806.383 1306.8 806.42C1306.74 806.458 1306.67 806.481 1306.6 806.49C1306.46 806.509 1306.32 806.481 1306.2 806.41V806.41Z" fill="#333333"/>
<path d="M1292.21 808.17C1292.08 808.097 1291.98 807.975 1291.93 807.83L1189.28 482.76C1189.26 482.693 1189.25 482.622 1189.26 482.552C1189.27 482.483 1189.29 482.416 1189.33 482.356C1189.37 482.296 1189.42 482.245 1189.48 482.206C1189.53 482.167 1189.6 482.141 1189.67 482.13C1189.82 482.102 1189.97 482.128 1190.11 482.203C1190.24 482.278 1190.34 482.397 1190.39 482.54L1293 807.62C1293.02 807.686 1293.03 807.757 1293.02 807.826C1293.01 807.895 1292.99 807.961 1292.95 808.02C1292.91 808.079 1292.86 808.13 1292.8 808.168C1292.75 808.205 1292.68 808.23 1292.61 808.24C1292.47 808.259 1292.33 808.235 1292.21 808.17Z" fill="#333333"/>
<path d="M1278 809.39C1277.87 809.314 1277.77 809.193 1277.72 809.05L1176 486.85C1175.98 486.783 1175.97 486.712 1175.98 486.641C1175.99 486.571 1176.01 486.503 1176.05 486.443C1176.08 486.383 1176.13 486.332 1176.19 486.293C1176.25 486.254 1176.32 486.23 1176.39 486.22C1176.54 486.192 1176.69 486.218 1176.83 486.293C1176.96 486.368 1177.06 486.487 1177.11 486.63L1278.85 808.84C1278.87 808.906 1278.88 808.977 1278.87 809.046C1278.86 809.115 1278.84 809.181 1278.8 809.24C1278.76 809.299 1278.71 809.35 1278.65 809.388C1278.6 809.425 1278.53 809.45 1278.46 809.46C1278.3 809.492 1278.14 809.468 1278 809.39V809.39Z" fill="#333333"/>
<path d="M1263.69 810.06C1263.56 809.984 1263.46 809.863 1263.41 809.72L1162.92 491.49C1162.9 491.423 1162.89 491.352 1162.9 491.282C1162.91 491.213 1162.93 491.146 1162.97 491.086C1163.01 491.026 1163.06 490.975 1163.12 490.936C1163.17 490.897 1163.24 490.871 1163.31 490.86C1163.46 490.832 1163.61 490.858 1163.75 490.933C1163.88 491.008 1163.98 491.127 1164.03 491.27L1264.52 809.51C1264.54 809.576 1264.55 809.647 1264.54 809.716C1264.53 809.785 1264.51 809.851 1264.47 809.91C1264.43 809.969 1264.38 810.02 1264.32 810.057C1264.27 810.095 1264.2 810.12 1264.13 810.13C1263.98 810.158 1263.82 810.133 1263.69 810.06V810.06Z" fill="#333333"/>
<path d="M1249.15 810.12C1249.02 810.047 1248.92 809.925 1248.87 809.78L1150.02 496.78C1150 496.714 1149.99 496.643 1150 496.574C1150.01 496.505 1150.03 496.439 1150.07 496.38C1150.11 496.321 1150.16 496.27 1150.22 496.232C1150.27 496.195 1150.34 496.17 1150.41 496.16C1150.56 496.13 1150.71 496.155 1150.85 496.23C1150.98 496.305 1151.08 496.426 1151.13 496.57L1250 809.57C1250.02 809.636 1250.03 809.707 1250.02 809.776C1250.01 809.845 1249.99 809.911 1249.95 809.97C1249.91 810.029 1249.86 810.08 1249.8 810.117C1249.75 810.155 1249.68 810.18 1249.61 810.19C1249.45 810.223 1249.29 810.198 1249.15 810.12V810.12Z" fill="#333333"/>
<path d="M1234.39 809.5C1234.26 809.427 1234.16 809.305 1234.11 809.16L1137.33 502.67C1137.31 502.603 1137.3 502.532 1137.31 502.461C1137.32 502.391 1137.34 502.323 1137.38 502.263C1137.41 502.203 1137.46 502.152 1137.52 502.113C1137.58 502.074 1137.65 502.05 1137.72 502.04C1137.87 502.012 1138.02 502.038 1138.16 502.113C1138.29 502.188 1138.39 502.307 1138.44 502.45L1235.22 809C1235.24 809.066 1235.25 809.137 1235.24 809.206C1235.23 809.275 1235.21 809.341 1235.17 809.4C1235.13 809.459 1235.08 809.51 1235.02 809.547C1234.97 809.585 1234.9 809.61 1234.83 809.62C1234.67 809.634 1234.52 809.591 1234.39 809.5V809.5Z" fill="#333333"/>
<path d="M1219.4 808.12C1219.27 808.048 1219.17 807.931 1219.12 807.79L1124.89 509.35C1124.87 509.284 1124.86 509.213 1124.87 509.143C1124.88 509.073 1124.9 509.006 1124.94 508.947C1124.97 508.887 1125.02 508.837 1125.08 508.799C1125.14 508.762 1125.21 508.738 1125.28 508.73C1125.43 508.701 1125.58 508.726 1125.71 508.799C1125.84 508.872 1125.95 508.989 1126 509.13L1220.23 807.57C1220.25 807.637 1220.26 807.708 1220.25 807.779C1220.24 807.849 1220.22 807.917 1220.18 807.977C1220.15 808.037 1220.1 808.088 1220.04 808.127C1219.98 808.166 1219.91 808.19 1219.84 808.2C1219.69 808.229 1219.53 808.2 1219.4 808.12V808.12Z" fill="#333333"/>
<path d="M1204.13 805.89C1204.07 805.856 1204.01 805.809 1203.96 805.752C1203.92 805.696 1203.88 805.63 1203.86 805.56L1112.71 516.89C1112.69 516.824 1112.68 516.753 1112.69 516.684C1112.7 516.615 1112.72 516.549 1112.76 516.49C1112.8 516.431 1112.85 516.38 1112.91 516.342C1112.96 516.305 1113.03 516.28 1113.1 516.27C1113.25 516.242 1113.4 516.268 1113.54 516.343C1113.67 516.418 1113.77 516.537 1113.82 516.68L1205 805.34C1205.02 805.408 1205.03 805.479 1205.02 805.55C1205.01 805.62 1204.98 805.687 1204.95 805.747C1204.91 805.807 1204.86 805.858 1204.8 805.897C1204.74 805.935 1204.67 805.96 1204.6 805.97C1204.44 805.996 1204.27 805.968 1204.13 805.89V805.89Z" fill="#333333"/>
<path d="M1188.55 802.63C1188.49 802.596 1188.43 802.549 1188.38 802.492C1188.34 802.436 1188.3 802.37 1188.28 802.3L1100.86 525.46C1100.84 525.393 1100.83 525.322 1100.84 525.251C1100.85 525.181 1100.87 525.113 1100.91 525.053C1100.94 524.993 1100.99 524.942 1101.05 524.903C1101.11 524.864 1101.18 524.84 1101.25 524.83C1101.4 524.802 1101.55 524.828 1101.69 524.903C1101.82 524.978 1101.92 525.097 1101.97 525.24L1189.39 802.08C1189.41 802.148 1189.42 802.219 1189.41 802.29C1189.4 802.36 1189.37 802.427 1189.34 802.487C1189.3 802.547 1189.25 802.598 1189.19 802.637C1189.13 802.675 1189.06 802.7 1188.99 802.71C1188.84 802.739 1188.68 802.71 1188.55 802.63V802.63Z" fill="#333333"/>
<path d="M1172.58 798.16C1172.45 798.084 1172.35 797.963 1172.3 797.82L1089.39 535.24C1089.37 535.174 1089.36 535.103 1089.37 535.034C1089.38 534.965 1089.4 534.899 1089.44 534.84C1089.48 534.781 1089.53 534.73 1089.59 534.692C1089.64 534.655 1089.71 534.63 1089.78 534.62C1089.93 534.592 1090.08 534.618 1090.22 534.693C1090.35 534.768 1090.45 534.887 1090.5 535.03L1173.41 797.61C1173.43 797.676 1173.44 797.747 1173.43 797.816C1173.42 797.885 1173.4 797.951 1173.36 798.01C1173.32 798.069 1173.27 798.12 1173.21 798.158C1173.16 798.195 1173.09 798.22 1173.02 798.23C1172.87 798.257 1172.71 798.233 1172.58 798.16Z" fill="#333333"/>
<path d="M1156.13 792.14C1156 792.068 1155.9 791.951 1155.85 791.81L1078.41 546.57C1078.39 546.503 1078.38 546.432 1078.39 546.362C1078.4 546.293 1078.42 546.226 1078.46 546.166C1078.5 546.106 1078.55 546.055 1078.61 546.016C1078.66 545.977 1078.73 545.951 1078.8 545.94C1078.95 545.912 1079.1 545.938 1079.24 546.013C1079.37 546.088 1079.47 546.207 1079.52 546.35L1157 791.59C1157.02 791.657 1157.03 791.728 1157.02 791.799C1157.01 791.869 1156.99 791.937 1156.95 791.997C1156.92 792.057 1156.87 792.108 1156.81 792.147C1156.75 792.186 1156.68 792.21 1156.61 792.22C1156.53 792.24 1156.44 792.243 1156.36 792.229C1156.28 792.215 1156.2 792.185 1156.13 792.14V792.14Z" fill="#333333"/>
<path d="M1139 784.09C1138.94 784.056 1138.88 784.009 1138.83 783.952C1138.79 783.896 1138.75 783.83 1138.73 783.76L1068.05 559.93C1068.03 559.863 1068.02 559.792 1068.03 559.721C1068.04 559.651 1068.06 559.583 1068.1 559.523C1068.13 559.463 1068.18 559.412 1068.24 559.373C1068.3 559.334 1068.37 559.309 1068.44 559.3C1068.59 559.272 1068.74 559.298 1068.88 559.373C1069.01 559.448 1069.11 559.567 1069.16 559.71L1139.84 783.54C1139.86 783.608 1139.87 783.679 1139.86 783.75C1139.85 783.82 1139.82 783.887 1139.79 783.947C1139.75 784.007 1139.7 784.058 1139.64 784.097C1139.58 784.135 1139.51 784.16 1139.44 784.17C1139.29 784.199 1139.13 784.17 1139 784.09Z" fill="#333333"/>
<path d="M1303.7 806.77C1303.57 806.694 1303.47 806.573 1303.42 806.43C1303.4 806.364 1303.39 806.293 1303.4 806.224C1303.41 806.155 1303.43 806.089 1303.47 806.03C1303.51 805.971 1303.56 805.92 1303.62 805.883C1303.67 805.845 1303.74 805.82 1303.81 805.81L1345.99 797.65C1346.14 797.622 1346.29 797.648 1346.42 797.724C1346.55 797.799 1346.65 797.918 1346.7 798.06C1346.72 798.126 1346.73 798.197 1346.72 798.266C1346.71 798.335 1346.69 798.401 1346.65 798.46C1346.61 798.519 1346.56 798.57 1346.5 798.607C1346.45 798.645 1346.38 798.67 1346.31 798.68L1304.14 806.84C1303.99 806.868 1303.83 806.843 1303.7 806.77V806.77Z" fill="#333333"/>
<path d="M1224.06 808.63C1224 808.596 1223.94 808.549 1223.89 808.492C1223.85 808.436 1223.81 808.37 1223.79 808.3C1223.77 808.234 1223.76 808.163 1223.77 808.093C1223.78 808.023 1223.8 807.956 1223.84 807.897C1223.87 807.837 1223.92 807.787 1223.98 807.749C1224.04 807.712 1224.11 807.688 1224.18 807.68L1413.34 771.07C1413.49 771.044 1413.64 771.071 1413.77 771.145C1413.91 771.22 1414.01 771.339 1414.06 771.48C1414.08 771.547 1414.09 771.618 1414.08 771.689C1414.07 771.759 1414.05 771.827 1414.01 771.887C1413.98 771.947 1413.93 771.998 1413.87 772.037C1413.81 772.076 1413.74 772.1 1413.67 772.11L1224.5 808.71C1224.35 808.739 1224.19 808.71 1224.06 808.63V808.63Z" fill="#333333"/>
<path d="M1187 802.25C1186.87 802.178 1186.77 802.06 1186.72 801.92C1186.7 801.853 1186.69 801.782 1186.7 801.712C1186.71 801.643 1186.73 801.576 1186.77 801.516C1186.81 801.456 1186.86 801.405 1186.92 801.366C1186.97 801.327 1187.04 801.301 1187.11 801.29L1441.9 752C1442.05 751.972 1442.2 751.998 1442.34 752.073C1442.47 752.148 1442.57 752.267 1442.62 752.41C1442.64 752.476 1442.65 752.547 1442.64 752.616C1442.63 752.685 1442.61 752.751 1442.57 752.81C1442.53 752.869 1442.48 752.92 1442.42 752.957C1442.37 752.995 1442.3 753.02 1442.23 753.03L1187.45 802.33C1187.3 802.362 1187.13 802.333 1187 802.25V802.25Z" fill="#333333"/>
<path d="M1160.41 793.85C1160.28 793.771 1160.18 793.652 1160.13 793.51C1160.11 793.443 1160.1 793.372 1160.11 793.302C1160.12 793.232 1160.15 793.165 1160.18 793.106C1160.22 793.047 1160.27 792.997 1160.33 792.96C1160.39 792.922 1160.46 792.899 1160.53 792.89L1460.82 734.78C1460.97 734.754 1461.12 734.781 1461.25 734.855C1461.39 734.93 1461.49 735.049 1461.54 735.19C1461.56 735.258 1461.57 735.329 1461.56 735.4C1461.55 735.47 1461.52 735.537 1461.49 735.597C1461.45 735.657 1461.4 735.708 1461.34 735.747C1461.28 735.785 1461.21 735.81 1461.14 735.82L1160.85 793.92C1160.7 793.948 1160.54 793.923 1160.41 793.85Z" fill="#333333"/>
<path d="M1139.52 784.35C1139.39 784.277 1139.29 784.155 1139.24 784.01C1139.22 783.944 1139.21 783.873 1139.22 783.804C1139.23 783.735 1139.25 783.669 1139.29 783.61C1139.33 783.551 1139.38 783.5 1139.44 783.462C1139.49 783.425 1139.56 783.4 1139.63 783.39L1474.33 718.63C1474.48 718.6 1474.63 718.625 1474.77 718.7C1474.9 718.775 1475 718.896 1475.05 719.04C1475.07 719.106 1475.08 719.177 1475.07 719.246C1475.06 719.315 1475.04 719.381 1475 719.44C1474.96 719.499 1474.91 719.55 1474.85 719.588C1474.8 719.625 1474.73 719.65 1474.66 719.66L1140 784.42C1139.84 784.458 1139.67 784.433 1139.52 784.35Z" fill="#333333"/>
<path d="M1122.44 774.1C1122.31 774.031 1122.21 773.913 1122.16 773.77C1122.14 773.703 1122.13 773.632 1122.14 773.561C1122.15 773.491 1122.17 773.423 1122.21 773.363C1122.24 773.303 1122.29 773.252 1122.35 773.213C1122.41 773.174 1122.48 773.15 1122.55 773.14L1484.2 703.14C1484.35 703.11 1484.5 703.135 1484.64 703.21C1484.77 703.285 1484.87 703.406 1484.92 703.55C1484.94 703.616 1484.95 703.687 1484.94 703.756C1484.93 703.825 1484.91 703.891 1484.87 703.95C1484.83 704.009 1484.78 704.06 1484.72 704.098C1484.67 704.135 1484.6 704.16 1484.53 704.17L1122.88 774.17C1122.73 774.193 1122.58 774.169 1122.44 774.1V774.1Z" fill="#333333"/>
<path d="M1108.18 763.32C1108.05 763.244 1107.95 763.123 1107.9 762.98C1107.88 762.913 1107.87 762.843 1107.88 762.774C1107.89 762.705 1107.91 762.639 1107.95 762.58C1107.99 762.521 1108.04 762.47 1108.1 762.432C1108.15 762.395 1108.22 762.37 1108.29 762.36L1491.29 688.25C1491.44 688.224 1491.59 688.251 1491.72 688.325C1491.86 688.4 1491.96 688.519 1492.01 688.66C1492.03 688.727 1492.04 688.798 1492.03 688.868C1492.02 688.938 1491.99 689.005 1491.96 689.064C1491.92 689.123 1491.87 689.173 1491.81 689.21C1491.75 689.248 1491.68 689.271 1491.61 689.28L1108.61 763.39C1108.46 763.415 1108.31 763.391 1108.18 763.32V763.32Z" fill="#333333"/>
<path d="M1096.12 752.1C1095.99 752.024 1095.89 751.903 1095.84 751.76C1095.82 751.694 1095.81 751.623 1095.82 751.554C1095.83 751.485 1095.85 751.419 1095.89 751.36C1095.93 751.301 1095.98 751.25 1096.04 751.212C1096.09 751.175 1096.16 751.15 1096.23 751.14L1496.16 673.76C1496.31 673.732 1496.46 673.758 1496.6 673.833C1496.73 673.908 1496.83 674.027 1496.88 674.17C1496.9 674.237 1496.91 674.308 1496.9 674.378C1496.89 674.448 1496.86 674.515 1496.83 674.574C1496.79 674.633 1496.74 674.683 1496.68 674.72C1496.62 674.758 1496.55 674.781 1496.48 674.79L1096.56 752.17C1096.41 752.198 1096.25 752.173 1096.12 752.1Z" fill="#333333"/>
<path d="M1085.87 740.54C1085.74 740.468 1085.64 740.351 1085.59 740.21C1085.57 740.142 1085.56 740.071 1085.57 740C1085.58 739.93 1085.61 739.863 1085.64 739.803C1085.68 739.743 1085.73 739.692 1085.79 739.653C1085.85 739.615 1085.92 739.59 1085.99 739.58L1499.13 659.64C1499.28 659.61 1499.43 659.635 1499.57 659.71C1499.7 659.785 1499.8 659.906 1499.85 660.05C1499.87 660.116 1499.88 660.187 1499.87 660.257C1499.86 660.327 1499.84 660.394 1499.8 660.453C1499.77 660.513 1499.72 660.563 1499.66 660.601C1499.6 660.638 1499.53 660.662 1499.46 660.67L1086.31 740.61C1086.16 740.638 1086 740.613 1085.87 740.54Z" fill="#333333"/>
<path d="M1077.16 728.67C1077.1 728.636 1077.04 728.589 1076.99 728.532C1076.95 728.476 1076.91 728.41 1076.89 728.34C1076.87 728.273 1076.86 728.202 1076.87 728.131C1076.88 728.061 1076.9 727.993 1076.94 727.933C1076.97 727.873 1077.02 727.822 1077.08 727.783C1077.14 727.744 1077.21 727.72 1077.28 727.71L1500.49 645.83C1500.64 645.802 1500.79 645.828 1500.93 645.903C1501.06 645.978 1501.16 646.097 1501.21 646.24C1501.23 646.307 1501.24 646.378 1501.23 646.448C1501.22 646.518 1501.19 646.585 1501.16 646.644C1501.12 646.703 1501.07 646.753 1501.01 646.79C1500.95 646.828 1500.88 646.851 1500.81 646.86L1077.6 728.75C1077.45 728.779 1077.29 728.75 1077.16 728.67V728.67Z" fill="#333333"/>
<path d="M1069.76 716.55C1069.63 716.481 1069.53 716.362 1069.48 716.22C1069.46 716.153 1069.45 716.082 1069.46 716.011C1069.47 715.941 1069.49 715.873 1069.53 715.813C1069.56 715.753 1069.61 715.702 1069.67 715.663C1069.73 715.624 1069.8 715.6 1069.87 715.59L1500.4 632.29C1500.55 632.264 1500.7 632.291 1500.83 632.366C1500.96 632.441 1501.06 632.559 1501.11 632.7C1501.13 632.767 1501.14 632.838 1501.13 632.909C1501.12 632.979 1501.1 633.047 1501.06 633.107C1501.03 633.167 1500.98 633.218 1500.92 633.257C1500.86 633.296 1500.79 633.32 1500.72 633.33L1070.2 716.63C1070.05 716.66 1069.89 716.631 1069.76 716.55V716.55Z" fill="#333333"/>
<path d="M1063.52 704.22C1063.39 704.147 1063.29 704.025 1063.24 703.88C1063.22 703.814 1063.21 703.743 1063.22 703.674C1063.23 703.605 1063.25 703.539 1063.29 703.48C1063.33 703.421 1063.38 703.37 1063.44 703.332C1063.49 703.295 1063.56 703.27 1063.63 703.26L1499 619C1499.15 618.974 1499.3 619.001 1499.43 619.075C1499.57 619.15 1499.67 619.269 1499.72 619.41C1499.74 619.477 1499.75 619.548 1499.74 619.618C1499.73 619.688 1499.7 619.755 1499.67 619.814C1499.63 619.873 1499.58 619.923 1499.52 619.96C1499.46 619.998 1499.39 620.021 1499.32 620.03L1064 704.29C1063.84 704.328 1063.67 704.303 1063.52 704.22Z" fill="#333333"/>
<path d="M1058.29 691.68C1058.16 691.604 1058.07 691.483 1058.02 691.34C1058 691.274 1057.99 691.203 1058 691.134C1058.01 691.065 1058.03 690.999 1058.07 690.94C1058.11 690.881 1058.16 690.83 1058.22 690.792C1058.27 690.755 1058.34 690.73 1058.41 690.72L1496.41 605.97C1496.56 605.944 1496.71 605.971 1496.84 606.046C1496.97 606.121 1497.07 606.239 1497.12 606.38C1497.14 606.447 1497.15 606.518 1497.14 606.589C1497.13 606.659 1497.11 606.727 1497.07 606.787C1497.04 606.847 1496.99 606.898 1496.93 606.937C1496.87 606.976 1496.8 607 1496.73 607.01L1058.73 691.75C1058.58 691.776 1058.42 691.751 1058.29 691.68V691.68Z" fill="#333333"/>
<path d="M1054 679C1053.87 678.928 1053.77 678.81 1053.72 678.67C1053.7 678.604 1053.69 678.533 1053.7 678.464C1053.71 678.395 1053.73 678.329 1053.77 678.27C1053.81 678.211 1053.86 678.16 1053.92 678.122C1053.97 678.085 1054.04 678.06 1054.11 678.05L1492.66 593.19C1492.81 593.164 1492.96 593.191 1493.09 593.265C1493.23 593.34 1493.33 593.459 1493.38 593.6C1493.4 593.668 1493.41 593.739 1493.4 593.81C1493.39 593.88 1493.36 593.947 1493.33 594.007C1493.29 594.067 1493.24 594.118 1493.18 594.157C1493.12 594.195 1493.05 594.22 1492.98 594.23L1054.45 679C1054.31 679.056 1054.14 679.056 1054 679V679Z" fill="#333333"/>
<path d="M1050.61 666.07C1050.48 665.998 1050.38 665.88 1050.33 665.74C1050.31 665.673 1050.3 665.602 1050.31 665.532C1050.32 665.463 1050.34 665.396 1050.38 665.336C1050.42 665.276 1050.47 665.225 1050.53 665.186C1050.58 665.147 1050.65 665.121 1050.72 665.11L1487.87 580.53C1488.02 580.502 1488.17 580.528 1488.31 580.603C1488.44 580.678 1488.54 580.797 1488.59 580.94C1488.61 581.007 1488.62 581.078 1488.61 581.148C1488.6 581.218 1488.57 581.285 1488.54 581.344C1488.5 581.403 1488.45 581.453 1488.39 581.49C1488.33 581.528 1488.26 581.551 1488.19 581.56L1051.05 666.14C1050.9 666.168 1050.74 666.143 1050.61 666.07V666.07Z" fill="#333333"/>
<path d="M1048.19 653C1048.06 652.921 1047.96 652.802 1047.91 652.66C1047.89 652.593 1047.88 652.523 1047.89 652.454C1047.9 652.385 1047.92 652.319 1047.96 652.26C1048 652.201 1048.05 652.15 1048.11 652.112C1048.16 652.075 1048.23 652.05 1048.3 652.04L1481.92 568.14C1482.07 568.112 1482.22 568.138 1482.36 568.213C1482.49 568.288 1482.59 568.407 1482.64 568.55C1482.66 568.617 1482.67 568.688 1482.66 568.758C1482.65 568.828 1482.62 568.895 1482.59 568.954C1482.55 569.013 1482.5 569.063 1482.44 569.1C1482.38 569.138 1482.31 569.161 1482.24 569.17L1048.63 653.07C1048.48 653.098 1048.32 653.073 1048.19 653Z" fill="#333333"/>
<path d="M1046.82 639.71C1046.69 639.634 1046.59 639.513 1046.54 639.37C1046.52 639.303 1046.51 639.232 1046.52 639.162C1046.53 639.092 1046.56 639.025 1046.59 638.966C1046.63 638.907 1046.68 638.857 1046.74 638.82C1046.8 638.782 1046.87 638.758 1046.94 638.75L1474.72 556C1474.87 555.97 1475.02 555.995 1475.16 556.07C1475.29 556.145 1475.39 556.266 1475.44 556.41C1475.46 556.476 1475.47 556.547 1475.46 556.616C1475.45 556.685 1475.43 556.751 1475.39 556.81C1475.35 556.869 1475.3 556.92 1475.24 556.957C1475.19 556.995 1475.12 557.02 1475.05 557.03L1047.26 639.8C1047.11 639.821 1046.95 639.79 1046.82 639.71V639.71Z" fill="#333333"/>
<path d="M1046.7 626.18C1046.57 626.111 1046.47 625.992 1046.42 625.85C1046.4 625.783 1046.39 625.712 1046.4 625.641C1046.41 625.571 1046.43 625.503 1046.47 625.443C1046.5 625.383 1046.55 625.332 1046.61 625.293C1046.67 625.254 1046.74 625.229 1046.81 625.22L1466.17 544.08C1466.32 544.052 1466.47 544.078 1466.61 544.153C1466.74 544.228 1466.84 544.347 1466.89 544.49C1466.91 544.557 1466.92 544.628 1466.91 544.698C1466.9 544.768 1466.87 544.835 1466.84 544.894C1466.8 544.953 1466.75 545.003 1466.69 545.04C1466.63 545.078 1466.56 545.101 1466.49 545.11L1047.14 626.26C1046.99 626.285 1046.83 626.257 1046.7 626.18V626.18Z" fill="#333333"/>
<path d="M1048 612.4C1047.87 612.324 1047.77 612.203 1047.73 612.06C1047.71 611.994 1047.7 611.923 1047.71 611.854C1047.72 611.785 1047.74 611.719 1047.78 611.66C1047.82 611.601 1047.87 611.55 1047.93 611.512C1047.98 611.475 1048.05 611.45 1048.12 611.44L1456.12 532.44C1456.27 532.412 1456.42 532.438 1456.56 532.513C1456.69 532.588 1456.79 532.707 1456.84 532.85C1456.86 532.917 1456.87 532.988 1456.86 533.058C1456.85 533.128 1456.82 533.195 1456.79 533.254C1456.75 533.313 1456.7 533.363 1456.64 533.4C1456.58 533.438 1456.51 533.461 1456.44 533.47L1048.44 612.47C1048.29 612.497 1048.13 612.473 1048 612.4Z" fill="#333333"/>
<path d="M1050.85 598.28C1050.72 598.208 1050.62 598.091 1050.57 597.95C1050.55 597.883 1050.54 597.812 1050.55 597.742C1050.56 597.673 1050.58 597.606 1050.62 597.546C1050.66 597.486 1050.71 597.435 1050.77 597.396C1050.82 597.357 1050.89 597.331 1050.96 597.32L1444.3 521.22C1444.45 521.19 1444.6 521.215 1444.74 521.29C1444.87 521.365 1444.97 521.486 1445.02 521.63C1445.04 521.696 1445.05 521.767 1445.04 521.836C1445.03 521.905 1445.01 521.971 1444.97 522.03C1444.93 522.089 1444.88 522.14 1444.82 522.177C1444.76 522.215 1444.7 522.24 1444.63 522.25L1051.29 598.36C1051.14 598.389 1050.98 598.36 1050.85 598.28V598.28Z" fill="#333333"/>
<path d="M1055.7 583.8C1055.57 583.728 1055.47 583.611 1055.42 583.47C1055.4 583.402 1055.39 583.331 1055.4 583.26C1055.41 583.19 1055.44 583.123 1055.47 583.063C1055.51 583.003 1055.56 582.952 1055.62 582.913C1055.68 582.875 1055.75 582.85 1055.82 582.84L1430.49 510.35C1430.64 510.32 1430.79 510.345 1430.93 510.42C1431.06 510.495 1431.16 510.616 1431.21 510.76C1431.23 510.826 1431.24 510.897 1431.23 510.966C1431.22 511.035 1431.2 511.101 1431.16 511.16C1431.12 511.219 1431.07 511.27 1431.01 511.308C1430.96 511.345 1430.89 511.37 1430.82 511.38L1056.14 583.88C1055.99 583.909 1055.83 583.88 1055.7 583.8V583.8Z" fill="#333333"/>
<path d="M1063 568.84C1062.94 568.806 1062.88 568.759 1062.83 568.702C1062.79 568.646 1062.75 568.58 1062.73 568.51C1062.71 568.443 1062.7 568.372 1062.71 568.301C1062.72 568.231 1062.74 568.163 1062.78 568.103C1062.81 568.043 1062.86 567.992 1062.92 567.953C1062.98 567.914 1063.05 567.89 1063.12 567.88L1414.29 499.94C1414.44 499.912 1414.59 499.936 1414.72 500.01C1414.85 500.083 1414.95 500.2 1415 500.34C1415.02 500.407 1415.03 500.478 1415.02 500.549C1415.01 500.619 1414.99 500.687 1414.95 500.747C1414.92 500.807 1414.87 500.858 1414.81 500.897C1414.75 500.936 1414.68 500.96 1414.61 500.97L1063.44 568.92C1063.29 568.944 1063.13 568.916 1063 568.84V568.84Z" fill="#333333"/>
<path d="M1073.44 553.27C1073.31 553.191 1073.21 553.072 1073.16 552.93C1073.14 552.863 1073.13 552.792 1073.14 552.722C1073.15 552.652 1073.18 552.585 1073.21 552.526C1073.25 552.467 1073.3 552.417 1073.36 552.38C1073.42 552.342 1073.49 552.319 1073.56 552.31L1394.94 490.12C1395.09 490.092 1395.24 490.118 1395.38 490.193C1395.51 490.268 1395.61 490.387 1395.66 490.53C1395.68 490.597 1395.69 490.668 1395.68 490.739C1395.67 490.809 1395.65 490.877 1395.61 490.937C1395.58 490.997 1395.53 491.048 1395.47 491.087C1395.41 491.126 1395.34 491.15 1395.27 491.16L1073.88 553.34C1073.73 553.368 1073.57 553.343 1073.44 553.27Z" fill="#333333"/>
<path d="M1088.33 536.84C1088.2 536.768 1088.1 536.651 1088.05 536.51C1088.03 536.442 1088.02 536.371 1088.03 536.3C1088.04 536.23 1088.07 536.163 1088.1 536.103C1088.14 536.043 1088.19 535.992 1088.25 535.953C1088.31 535.915 1088.38 535.89 1088.45 535.88L1371.45 481.14C1371.6 481.111 1371.75 481.136 1371.88 481.209C1372.01 481.282 1372.12 481.399 1372.17 481.54C1372.19 481.607 1372.2 481.678 1372.19 481.749C1372.18 481.819 1372.16 481.887 1372.12 481.947C1372.09 482.007 1372.04 482.058 1371.98 482.097C1371.92 482.136 1371.85 482.161 1371.78 482.17L1088.78 536.92C1088.63 536.952 1088.46 536.923 1088.33 536.84V536.84Z" fill="#333333"/>
<path d="M1110.3 519C1110.17 518.927 1110.07 518.804 1110.03 518.66C1110.01 518.594 1110 518.523 1110.01 518.454C1110.02 518.385 1110.04 518.319 1110.08 518.26C1110.12 518.201 1110.17 518.15 1110.23 518.112C1110.28 518.075 1110.35 518.05 1110.42 518.04L1341.22 473.38C1341.37 473.352 1341.52 473.378 1341.66 473.453C1341.79 473.528 1341.89 473.647 1341.94 473.79C1341.96 473.857 1341.97 473.928 1341.96 473.998C1341.95 474.067 1341.93 474.134 1341.89 474.194C1341.85 474.254 1341.8 474.305 1341.74 474.344C1341.69 474.383 1341.62 474.409 1341.55 474.42L1110.74 519.07C1110.59 519.098 1110.43 519.073 1110.3 519Z" fill="#333333"/>
<path d="M1147.55 498.29C1147.42 498.221 1147.32 498.103 1147.27 497.96C1147.25 497.893 1147.24 497.822 1147.25 497.751C1147.26 497.681 1147.28 497.613 1147.32 497.553C1147.35 497.493 1147.4 497.442 1147.46 497.403C1147.52 497.364 1147.59 497.34 1147.66 497.33L1297.11 468.42C1297.26 468.392 1297.41 468.418 1297.55 468.493C1297.68 468.568 1297.78 468.687 1297.83 468.83C1297.85 468.897 1297.86 468.968 1297.85 469.038C1297.84 469.108 1297.81 469.175 1297.78 469.234C1297.74 469.293 1297.69 469.343 1297.63 469.38C1297.57 469.418 1297.5 469.442 1297.43 469.45L1148 498.37C1147.85 498.403 1147.68 498.374 1147.55 498.29V498.29Z" fill="#333333"/>
<path d="M391.37 830.67C391.138 830.542 390.928 830.377 390.75 830.18L360.63 797.33C360.428 797.13 360.271 796.889 360.169 796.623C360.068 796.357 360.024 796.073 360.041 795.789C360.058 795.505 360.135 795.228 360.268 794.977C360.401 794.725 360.585 794.505 360.81 794.33C361.314 793.996 361.921 793.854 362.521 793.93C363.121 794.005 363.674 794.292 364.08 794.74L394.21 827.59C394.412 827.791 394.568 828.032 394.669 828.298C394.769 828.565 394.812 828.849 394.794 829.133C394.776 829.417 394.698 829.694 394.564 829.945C394.431 830.196 394.245 830.416 394.02 830.59C393.633 830.857 393.177 831.007 392.707 831.021C392.237 831.036 391.772 830.913 391.37 830.67V830.67Z" fill="black"/>
<path d="M413.35 826.51C413.123 826.379 412.917 826.213 412.74 826.02L383.82 794.49C383.618 794.29 383.461 794.049 383.359 793.783C383.258 793.517 383.214 793.233 383.231 792.949C383.248 792.665 383.325 792.388 383.458 792.137C383.591 791.885 383.775 791.665 384 791.49C384.503 791.152 385.111 791.008 385.712 791.083C386.313 791.159 386.866 791.449 387.27 791.9L416.19 823.43C416.392 823.63 416.549 823.871 416.651 824.137C416.752 824.403 416.796 824.687 416.779 824.971C416.762 825.255 416.685 825.532 416.552 825.783C416.419 826.035 416.235 826.255 416.01 826.43C415.62 826.695 415.163 826.843 414.692 826.857C414.221 826.871 413.755 826.751 413.35 826.51V826.51Z" fill="black"/>
<path d="M435.26 822.27C435.033 822.139 434.827 821.973 434.65 821.78L405.65 790.12C405.448 789.919 405.292 789.678 405.191 789.412C405.091 789.145 405.048 788.861 405.066 788.577C405.084 788.293 405.162 788.016 405.296 787.765C405.429 787.514 405.615 787.294 405.84 787.12C406.344 786.786 406.951 786.644 407.551 786.72C408.151 786.795 408.704 787.082 409.11 787.53L438.11 819.19C438.312 819.391 438.468 819.632 438.569 819.898C438.669 820.165 438.712 820.449 438.694 820.733C438.676 821.017 438.598 821.294 438.464 821.545C438.331 821.796 438.145 822.016 437.92 822.19C437.531 822.457 437.073 822.607 436.602 822.621C436.13 822.635 435.664 822.513 435.26 822.27V822.27Z" fill="black"/>
<path d="M457.18 818C456.953 817.869 456.747 817.703 456.57 817.51L427.52 785.85C427.318 785.649 427.162 785.408 427.061 785.142C426.961 784.875 426.918 784.591 426.936 784.307C426.954 784.023 427.032 783.746 427.166 783.495C427.299 783.244 427.485 783.024 427.71 782.85C428.212 782.515 428.818 782.372 429.416 782.447C430.015 782.523 430.567 782.811 430.97 783.26L460 815C460.202 815.201 460.358 815.442 460.459 815.708C460.559 815.974 460.602 816.259 460.584 816.543C460.566 816.827 460.488 817.104 460.354 817.355C460.221 817.606 460.035 817.826 459.81 818C459.417 818.249 458.961 818.381 458.495 818.381C458.029 818.381 457.573 818.249 457.18 818V818Z" fill="black"/>
<path d="M479.09 813.79C478.86 813.659 478.651 813.494 478.47 813.3L449.47 781.64C449.268 781.439 449.112 781.198 449.011 780.931C448.911 780.665 448.868 780.381 448.886 780.097C448.904 779.813 448.982 779.536 449.116 779.285C449.249 779.034 449.435 778.814 449.66 778.64C450.162 778.305 450.768 778.162 451.366 778.237C451.965 778.313 452.517 778.601 452.92 779.05L481.92 810.71C482.122 810.911 482.278 811.152 482.379 811.418C482.479 811.685 482.522 811.969 482.504 812.253C482.486 812.537 482.408 812.814 482.274 813.065C482.141 813.316 481.955 813.536 481.73 813.71C481.343 813.973 480.889 814.12 480.422 814.134C479.954 814.148 479.492 814.029 479.09 813.79V813.79Z" fill="black"/>
<path d="M501 809.55C500.768 809.421 500.559 809.256 500.38 809.06L471.38 777.4C471.178 777.2 471.021 776.959 470.919 776.693C470.818 776.427 470.774 776.143 470.791 775.859C470.808 775.575 470.885 775.298 471.018 775.047C471.151 774.795 471.335 774.575 471.56 774.4C472.063 774.064 472.671 773.921 473.271 773.996C473.872 774.072 474.425 774.36 474.83 774.81L503.83 806.47C504.032 806.67 504.189 806.911 504.291 807.177C504.392 807.443 504.436 807.727 504.419 808.011C504.402 808.295 504.325 808.572 504.192 808.823C504.059 809.075 503.875 809.295 503.65 809.47C503.262 809.735 502.806 809.883 502.337 809.898C501.867 809.912 501.403 809.791 501 809.55V809.55Z" fill="black"/>
<path d="M522.92 805.31C522.688 805.181 522.479 805.016 522.3 804.82L493.3 773.16C493.098 772.96 492.941 772.719 492.839 772.453C492.738 772.187 492.694 771.903 492.711 771.619C492.728 771.335 492.805 771.058 492.938 770.807C493.071 770.555 493.255 770.335 493.48 770.16C493.983 769.822 494.591 769.678 495.192 769.753C495.793 769.829 496.346 770.119 496.75 770.57L525.75 802.23C525.952 802.43 526.109 802.671 526.211 802.937C526.312 803.202 526.356 803.487 526.339 803.771C526.322 804.055 526.245 804.332 526.112 804.583C525.979 804.835 525.795 805.055 525.57 805.23C525.182 805.495 524.726 805.643 524.257 805.658C523.787 805.672 523.323 805.551 522.92 805.31Z" fill="black"/>
<path d="M544.84 801.07C544.608 800.941 544.399 800.776 544.22 800.58L515.22 768.92C515.018 768.72 514.861 768.479 514.759 768.213C514.658 767.947 514.614 767.663 514.631 767.379C514.648 767.095 514.725 766.818 514.858 766.567C514.991 766.315 515.175 766.095 515.4 765.92C515.903 765.582 516.511 765.438 517.112 765.513C517.713 765.589 518.266 765.879 518.67 766.33L547.67 797.99C547.872 798.19 548.029 798.431 548.131 798.697C548.232 798.963 548.276 799.247 548.259 799.531C548.242 799.815 548.165 800.092 548.032 800.343C547.899 800.595 547.715 800.815 547.49 800.99C547.102 801.255 546.646 801.403 546.177 801.418C545.707 801.432 545.243 801.311 544.84 801.07Z" fill="black"/>
<path d="M566.75 796.83C566.518 796.701 566.309 796.536 566.13 796.34L537.13 764.68C536.928 764.48 536.771 764.239 536.669 763.973C536.568 763.707 536.524 763.423 536.541 763.139C536.558 762.855 536.635 762.578 536.768 762.327C536.901 762.075 537.085 761.855 537.31 761.68C537.813 761.342 538.421 761.198 539.022 761.273C539.623 761.348 540.176 761.639 540.58 762.09L569.58 793.75C569.782 793.95 569.939 794.191 570.041 794.457C570.142 794.723 570.186 795.007 570.169 795.291C570.152 795.575 570.075 795.852 569.942 796.103C569.809 796.355 569.625 796.575 569.4 796.75C569.012 797.015 568.556 797.163 568.087 797.178C567.617 797.192 567.153 797.071 566.75 796.83V796.83Z" fill="black"/>
<path d="M588.65 792.59C588.423 792.459 588.217 792.293 588.04 792.1L559.04 760.44C558.838 760.24 558.681 759.999 558.579 759.733C558.478 759.467 558.434 759.183 558.451 758.899C558.468 758.615 558.545 758.338 558.678 758.087C558.811 757.835 558.995 757.615 559.22 757.44C559.724 757.106 560.331 756.964 560.931 757.04C561.531 757.115 562.084 757.402 562.49 757.85L591.49 789.51C591.692 789.71 591.849 789.951 591.951 790.217C592.052 790.482 592.096 790.767 592.079 791.051C592.062 791.335 591.985 791.612 591.852 791.863C591.719 792.115 591.535 792.335 591.31 792.51C590.92 792.775 590.463 792.923 589.992 792.937C589.521 792.951 589.055 792.831 588.65 792.59V792.59Z" fill="black"/>
<g opacity="0.6">
<path opacity="0.6" d="M1042 667.12C1042.73 666.82 1043.47 666.58 1044.21 666.34L1045.33 666H1045.47H1045.69C1045.85 665.975 1046.01 665.975 1046.17 666C1046.5 666.062 1046.81 666.226 1047.04 666.47C1047.15 666.587 1047.25 666.722 1047.32 666.87C1047.36 666.943 1047.39 667.02 1047.41 667.1V667.25L1047.56 667.79L1047.85 668.87L1048.39 671.04C1048.71 672.49 1049.04 673.94 1049.31 675.4C1049.58 676.86 1049.83 678.32 1049.97 679.82C1049.23 678.464 1048.61 677.045 1048.12 675.58C1047.62 674.153 1047.2 672.701 1046.86 671.23C1046.7 670.5 1046.53 669.77 1046.4 669.03L1046.21 667.93L1046.13 667.38V667.26V667.21C1046.14 667.184 1046.14 667.156 1046.13 667.13C1046.09 667.066 1046.04 667.017 1045.97 666.99C1045.88 666.99 1045.88 666.99 1045.63 666.99L1044.44 667.1C1043.6 667.07 1042.8 667.13 1042 667.12Z" fill="white"/>
</g>
<g opacity="0.6">
<path opacity="0.6" d="M1033.8 682.73C1032.21 683.333 1030.59 683.84 1028.94 684.25C1027.3 684.69 1025.63 685.04 1023.94 685.38C1022.25 685.72 1020.57 685.99 1018.85 686.2C1017.13 686.44 1015.39 686.584 1013.65 686.63C1015.24 686.027 1016.86 685.52 1018.51 685.11C1020.15 684.68 1021.82 684.32 1023.51 683.98C1025.2 683.64 1026.87 683.38 1028.59 683.17C1030.32 682.926 1032.06 682.779 1033.8 682.73V682.73Z" fill="white"/>
</g>
<g opacity="0.6">
<path opacity="0.6" d="M943.8 701.42C935.3 703.23 926.8 704.95 918.25 706.72L892.66 711.88C875.59 715.3 858.48 718.6 841.39 721.97C824.3 725.34 807.17 728.54 790.03 731.74L764.31 736.51C755.72 738.05 747.15 739.63 738.55 741.13C747.05 739.32 755.55 737.59 764.09 735.82L789.69 730.66C806.76 727.24 823.87 723.94 840.95 720.57C858.03 717.2 875.18 714 892.32 710.81L918 706C926.63 704.5 935.2 702.91 943.8 701.42Z" fill="white"/>
</g>
<path d="M778.81 809.2C759.47 887.43 690.35 904.3 653.68 902.93C601.32 900.98 560.68 890.84 511.68 821.71" stroke="black" stroke-width="14" stroke-miterlimit="10"/>
<path d="M509.07 807C516.36 802.23 513.22 791.47 516.28 783.35C520.71 771.57 530.92 792.49 524.42 808.42C521.92 814.54 521.42 818.17 519.96 824.64C519.05 828.55 513.3 828.31 510.42 828.59C502.48 821.59 498.68 818.05 494.17 811.16" fill="#010101"/>
<path d="M509.07 807C516.36 802.23 513.22 791.47 516.28 783.35C520.71 771.57 530.92 792.49 524.42 808.42C521.92 814.54 521.42 818.17 519.96 824.64C519.05 828.55 513.3 828.31 510.42 828.59C502.48 821.59 498.68 818.05 494.17 811.16" stroke="black" stroke-width="4" stroke-miterlimit="10"/>
<path d="M1294.66 337.28C1294.66 337.28 1291.18 324.44 1283.45 316.54C1275.72 308.64 1266.61 293.46 1258.36 296.04L1261.23 304.69L1256.9 302.9C1256.9 302.9 1259 311.14 1263.5 315.14C1263.5 315.14 1281.19 333.47 1285.79 336.14C1290.39 338.81 1291.44 340.4 1291.44 340.4C1291.88 338.495 1291.56 336.493 1290.55 334.82L1294.66 337.28Z" fill="#F3F3F3"/>
<path d="M1284.63 278C1284.38 278.38 1284.12 278.76 1283.86 279.13L1282.58 279.63L1284.63 278Z" fill="#333333"/>
<path d="M1333.62 288.49C1333.47 285.05 1333.32 281.6 1333.2 278.16C1333.14 276.43 1333.09 274.71 1333.06 272.99C1333.06 272.12 1333.06 271.26 1333.06 270.4C1333.04 269.538 1333.08 268.677 1333.18 267.82C1333.16 268.678 1333.19 269.536 1333.28 270.39C1333.34 271.25 1333.43 272.1 1333.52 272.96C1333.69 274.67 1333.89 276.38 1334.09 278.09C1334.5 281.51 1334.94 284.92 1335.38 288.34L1333.62 288.49Z" fill="#333333"/>
<path d="M1294.14 279.47C1294.47 277.17 1297.29 274.24 1299.27 272.47C1300.38 271.47 1301.27 270.79 1301.27 270.79C1303.53 270.518 1305.83 270.778 1307.97 271.551C1310.11 272.324 1312.04 273.587 1313.61 275.24C1315.34 276.945 1316.76 278.934 1317.82 281.12C1323.37 291.438 1325.37 303.294 1323.51 314.86C1323.04 318.135 1322.2 321.346 1321 324.43C1317.74 323.094 1314.78 321.119 1312.3 318.62C1312.39 312.95 1311.13 305.16 1305.92 296.2C1299.58 285.35 1297.44 281.25 1294.14 279.47Z" fill="#F3F3F3"/>
<path opacity="0.3" d="M1294.14 279.47C1294.47 277.17 1297.29 274.24 1299.27 272.47C1300.38 271.47 1301.27 270.79 1301.27 270.79C1301.72 270.733 1302.18 270.7 1302.63 270.69C1302.33 270.94 1301.97 271.25 1301.63 271.61C1299.63 273.41 1296.83 276.34 1296.5 278.61C1299.8 280.39 1301.94 284.49 1308.23 295.31C1313.45 304.31 1314.71 312.06 1314.61 317.73C1316.64 319.781 1319.01 321.472 1321.61 322.73C1321.25 323.79 1321 324.35 1321 324.35C1317.74 323.013 1314.79 321.038 1312.31 318.54C1312.4 312.87 1311.14 305.08 1305.93 296.12C1299.58 285.35 1297.44 281.25 1294.14 279.47Z" fill="#010101"/>
<path d="M1278.27 287.81L1282.68 278.56L1282.75 278.4L1283.15 277.58C1288.77 278.11 1291.76 278.18 1294.15 279.47C1297.45 281.25 1299.59 285.35 1305.89 296.17C1311.1 305.17 1312.36 312.92 1312.27 318.59C1312.3 321.931 1311.68 325.247 1310.47 328.36L1301.2 324.01C1299.93 318.734 1297.66 313.751 1294.51 309.33C1287.39 298.89 1283.9 290.85 1278.27 287.81Z" fill="#F3F3F3"/>
<path opacity="0.3" d="M1278.26 287.81L1282.68 278.56L1282.75 278.4L1283.14 277.58L1284.73 277.72V277.8L1280.31 287.06C1285.95 290.06 1289.44 298.13 1296.55 308.57C1299.7 312.993 1301.97 317.98 1303.24 323.26L1311.03 326.91C1310.89 327.405 1310.71 327.889 1310.5 328.36L1301.23 324.01C1299.96 318.734 1297.69 313.751 1294.54 309.33C1287.39 298.89 1283.9 290.85 1278.26 287.81Z" fill="#010101"/>
<path d="M1277.86 287.65L1277.87 287.63L1278.66 287.99L1277.86 287.65Z" fill="#333333"/>
<path d="M1266.91 298.8L1269.37 287.57L1269.52 286.85H1269.68C1272.57 286.152 1275.62 286.507 1278.27 287.85C1283.9 290.85 1287.39 298.93 1294.5 309.37C1297.65 313.791 1299.92 318.774 1301.19 324.05C1302.57 330.34 1301.34 334.05 1301.34 334.05L1290.84 327.35C1287.86 321.956 1284.16 316.994 1279.84 312.6C1273.14 305.63 1269.73 301.29 1266.91 298.8Z" fill="#F3F3F3"/>
<path opacity="0.3" d="M1266.91 298.8L1269.36 287.57L1269.52 286.85H1269.68C1270.3 286.74 1270.89 286.65 1271.46 286.6V286.83L1269 298C1271.81 300.49 1275.22 304.83 1281.91 311.73C1286.23 316.121 1289.93 321.084 1292.91 326.48V326.48L1301.75 332.12C1301.68 332.742 1301.56 333.358 1301.39 333.96L1290.89 327.26C1287.91 321.866 1284.21 316.904 1279.89 312.51C1273.14 305.63 1269.73 301.3 1266.91 298.8Z" fill="#010101"/>
<path d="M1317.78 281.09C1316.72 278.904 1315.3 276.915 1313.57 275.21C1313.01 269.58 1320.83 265.46 1320.83 265.46C1320.83 265.46 1321.25 265.58 1321.92 265.81C1324.07 266.54 1326.12 267.548 1328.01 268.81C1329.03 269.507 1329.95 270.342 1330.74 271.29C1332.61 273.6 1333.74 280.88 1334.43 288.41C1334.92 294.01 1335.16 299.74 1335.25 303.67C1335.28 306.613 1334.91 309.546 1334.15 312.39C1333.32 315.634 1332.12 318.771 1330.57 321.74V321.74C1330.57 321.74 1325.33 318.49 1323.47 314.81C1325.32 303.25 1323.32 291.402 1317.78 281.09V281.09Z" fill="#F3F3F3"/>
<path opacity="0.3" d="M1317.78 281.09C1316.72 278.904 1315.3 276.915 1313.57 275.21C1313 269.58 1320.83 265.46 1320.83 265.46C1320.83 265.46 1321.25 265.58 1321.92 265.81C1322.59 266.04 1323.19 266.27 1324 266.63L1323.57 266.48C1322.9 266.24 1322.48 266.13 1322.48 266.13C1322.48 266.13 1314.66 270.25 1315.22 275.87C1316.95 277.579 1318.37 279.571 1319.43 281.76C1324.98 292.077 1326.98 303.934 1325.12 315.5C1326.35 317.93 1329.06 320.17 1330.75 321.41L1330.57 321.75C1330.57 321.75 1325.33 318.5 1323.47 314.82C1325.32 303.257 1323.32 291.405 1317.78 281.09Z" fill="#010101"/>
<path d="M1327.61 268.65V268.64L1328.4 269L1327.61 268.65Z" fill="#333333"/>
<path d="M1337.18 271.12L1337.24 287.72L1336.31 271.15L1337.18 271.12Z" fill="#333333"/>
<path d="M1334.15 312.4C1334.91 309.556 1335.28 306.623 1335.25 303.68C1335.16 299.75 1334.92 294.02 1334.43 288.42C1333.75 280.89 1332.61 273.61 1330.74 271.3C1329.95 270.352 1329.03 269.517 1328.01 268.82C1328.1 268.68 1329.76 266.08 1331.63 265.94C1333.5 265.8 1336.75 271.13 1336.75 271.13L1339.34 268.4C1339.34 268.4 1339.86 269.6 1340.61 271.26C1341.8 273.85 1343.55 277.55 1344.76 279.56C1345.23 280.33 1345.44 281.23 1345.37 282.13L1342.26 318.57L1342.17 317.38C1341.27 315.908 1340.51 314.351 1339.91 312.73C1339.89 313.591 1339.62 314.428 1339.14 315.138C1338.65 315.848 1337.97 316.402 1337.17 316.73V316.73C1337.17 316.73 1335.39 316.09 1334.15 312.4Z" fill="#F3F3F3"/>
<path d="M1318 385.68L1314.55 376.55L1350.11 363.13L1353.56 372.26C1355.34 376.976 1355.17 382.205 1353.1 386.798C1351.02 391.39 1347.21 394.97 1342.49 396.75C1337.77 398.53 1332.55 398.363 1327.95 396.287C1323.36 394.211 1319.78 390.396 1318 385.68V385.68Z" fill="#F3F3F3"/>
<path opacity="0.3" d="M1318 385.68L1314.55 376.55L1317.21 375.55L1320.65 384.67C1322.34 389.159 1325.67 392.843 1329.96 394.982C1334.25 397.12 1339.2 397.556 1343.8 396.2C1343.37 396.4 1342.93 396.58 1342.49 396.75C1340.16 397.632 1337.67 398.045 1335.17 397.966C1332.68 397.886 1330.23 397.317 1327.95 396.289C1325.68 395.261 1323.63 393.795 1321.92 391.974C1320.21 390.154 1318.88 388.015 1318 385.68V385.68Z" fill="#010101"/>
<path d="M1314.57 376.55L1312.48 370.99C1312.32 370.584 1312.25 370.151 1312.26 369.716C1312.28 369.281 1312.38 368.854 1312.56 368.457C1312.74 368.061 1312.99 367.705 1313.31 367.408C1313.63 367.112 1314 366.881 1314.41 366.73L1343.77 355.65C1344.18 355.496 1344.61 355.424 1345.05 355.437C1345.48 355.451 1345.91 355.55 1346.31 355.729C1346.7 355.909 1347.06 356.164 1347.36 356.482C1347.65 356.799 1347.89 357.173 1348.04 357.58L1350.13 363.13L1314.57 376.55Z" fill="#4E4E4E"/>
<path opacity="0.2" d="M1314.57 376.55L1312.48 370.99C1312.33 370.584 1312.25 370.151 1312.27 369.717C1312.28 369.282 1312.38 368.855 1312.56 368.459C1312.74 368.063 1313 367.707 1313.31 367.41C1313.63 367.113 1314 366.882 1314.41 366.73L1343.77 355.65C1344.52 355.363 1345.35 355.36 1346.1 355.642C1346.86 355.923 1347.48 356.47 1347.86 357.18C1347.71 357.206 1347.56 357.246 1347.42 357.3L1318.06 368.38C1317.24 368.692 1316.57 369.316 1316.21 370.116C1315.85 370.917 1315.82 371.828 1316.13 372.65L1317.23 375.55L1314.57 376.55Z" fill="#010101"/>
<path d="M1311.56 368C1311.8 367.472 1312.14 366.996 1312.56 366.6C1312.98 366.203 1313.48 365.894 1314.02 365.69L1343.38 354.62C1344.47 354.208 1345.68 354.245 1346.75 354.725C1347.81 355.205 1348.65 356.088 1349.06 357.18L1351.54 363.76L1313.94 378L1311.46 371.42C1311.25 370.872 1311.15 370.287 1311.16 369.7C1311.18 369.113 1311.32 368.535 1311.56 368ZM1348.73 362.48L1347 358C1346.79 357.45 1346.37 357.005 1345.83 356.76C1345.29 356.519 1344.68 356.501 1344.13 356.71L1314.77 367.79C1314.5 367.892 1314.25 368.047 1314.03 368.247C1313.82 368.446 1313.65 368.686 1313.53 368.951C1313.41 369.217 1313.34 369.504 1313.34 369.796C1313.33 370.087 1313.38 370.378 1313.48 370.65L1315.19 375.18L1348.73 362.48Z" fill="#333333"/>
<path d="M1330.48 360.54C1328.44 353.06 1326.34 345.583 1324.17 338.11C1322 330.637 1319.78 323.193 1317.5 315.78C1315.2 308.35 1312.83 300.96 1310.27 293.62C1308.99 289.95 1307.66 286.3 1306.27 282.69C1304.89 279.056 1303.27 275.518 1301.42 272.1C1303.37 275.466 1305.09 278.961 1306.57 282.56C1308.1 286.14 1309.57 289.76 1310.92 293.39C1313.68 300.67 1316.27 308.01 1318.78 315.39C1321.29 322.77 1323.71 330.15 1326.09 337.56C1328.47 344.97 1330.78 352.39 1333.03 359.84L1330.48 360.54Z" fill="black"/>
<path d="M1325.31 362.71C1322.13 355.583 1318.9 348.467 1315.63 341.36C1312.36 334.253 1309.04 327.173 1305.69 320.12C1302.32 313.07 1298.89 306.04 1295.32 299.12C1293.53 295.64 1291.72 292.18 1289.82 288.77C1287.97 285.328 1285.9 282.01 1283.61 278.84C1285.99 281.948 1288.16 285.212 1290.1 288.61C1292.1 291.97 1294.01 295.38 1295.9 298.81C1299.67 305.67 1303.29 312.61 1306.9 319.57C1310.51 326.53 1313.98 333.57 1317.45 340.57C1320.92 347.57 1324.34 354.57 1327.73 361.68L1325.31 362.71Z" fill="black"/>
<path d="M1319.46 365.09C1311.55 351.97 1303.51 338.917 1295.34 325.93C1291.25 319.437 1287.11 312.987 1282.9 306.58C1278.68 300.18 1274.42 293.81 1269.83 287.67C1274.59 293.67 1279.04 299.93 1283.44 306.22C1287.84 312.51 1292.17 318.84 1296.44 325.22C1304.99 337.96 1313.4 350.79 1321.69 363.71L1319.46 365.09Z" fill="black"/>
<path d="M1316.48 366.22C1311.92 360.293 1307.33 354.383 1302.71 348.49C1298.09 342.597 1293.42 336.737 1288.71 330.91C1284 325.09 1279.28 319.28 1274.43 313.58C1273.23 312.14 1271.99 310.74 1270.77 309.33L1268.93 307.21L1267.05 305.12L1265.2 303L1263.26 301C1261.99 299.61 1260.59 298.38 1259.26 297.09C1260.64 298.35 1262.08 299.56 1263.37 300.92L1265.37 302.92L1267.29 304.97L1269.21 306.97L1271.1 309.05C1272.35 310.44 1273.62 311.82 1274.84 313.24C1279.84 318.84 1284.64 324.57 1289.46 330.29C1294.28 336.01 1299.04 341.81 1303.78 347.61C1308.52 353.41 1313.23 359.23 1317.9 365.09L1316.48 366.22Z" fill="black"/>
<path d="M1313.74 367.29C1309.28 361.897 1304.79 356.53 1300.28 351.19C1295.77 345.85 1291.23 340.517 1286.67 335.19C1282.1 329.89 1277.53 324.6 1272.86 319.39C1270.52 316.79 1268.18 314.19 1265.78 311.64C1265.18 311 1264.59 310.36 1263.99 309.73L1262.16 307.85C1260.95 306.58 1259.66 305.4 1258.4 304.19C1259.68 305.37 1261.01 306.52 1262.23 307.77L1264.1 309.61C1264.72 310.23 1265.33 310.87 1265.94 311.49C1268.39 313.99 1270.78 316.54 1273.18 319.1C1277.96 324.21 1282.65 329.41 1287.33 334.61C1292.01 339.81 1296.65 345.07 1301.27 350.32C1305.89 355.57 1310.5 360.85 1315.07 366.15L1313.74 367.29Z" fill="black"/>
<path d="M1335.22 358.59L1328.37 312.41L1324.87 289.33L1323.08 277.79C1322.45 273.95 1321.87 270.1 1321.14 266.28C1321.98 270.08 1322.67 273.91 1323.4 277.74L1325.52 289.22L1329.66 312.22L1337.81 358.22L1335.22 358.59Z" fill="black"/>
<path d="M1340.34 356.7C1338.94 341.9 1337.61 327.097 1336.34 312.29C1335.67 304.89 1335.05 297.483 1334.47 290.07C1334.18 286.37 1333.91 282.663 1333.64 278.95C1333.52 277.1 1333.4 275.24 1333.3 273.39C1333.25 272.463 1333.21 271.533 1333.18 270.6C1333.18 270.14 1333.18 269.67 1333.18 269.21V268.51L1333.23 267.82V268.51V269.21C1333.23 269.67 1333.23 270.14 1333.29 270.6C1333.29 271.53 1333.4 272.45 1333.46 273.38C1333.6 275.23 1333.75 277.09 1333.91 278.94C1334.24 282.64 1334.58 286.337 1334.91 290.03C1335.64 297.43 1336.41 304.823 1337.21 312.21C1338.79 326.983 1340.43 341.753 1342.13 356.52L1340.34 356.7Z" fill="black"/>
<path d="M1344.12 355.25C1343.16 341.323 1342.28 327.383 1341.47 313.43C1341.07 306.43 1340.69 299.49 1340.39 292.51L1340.17 287.27C1340.1 285.53 1340.04 283.78 1340 282.04L1339.93 279.42V276.8C1339.93 275.05 1339.93 273.31 1339.93 271.56C1339.93 273.31 1339.93 275.05 1339.99 276.8L1340.08 279.41L1340.21 282.03C1340.28 283.77 1340.38 285.51 1340.49 287.26L1340.81 292.48C1341.26 299.48 1341.81 306.41 1342.33 313.37C1343.42 327.29 1344.6 341.203 1345.85 355.11L1344.12 355.25Z" fill="black"/>
<path d="M1304.19 354.88C1317.81 341.08 1342.63 338.53 1343.68 338.43L1343.85 340.17C1343.6 340.17 1318.6 342.77 1305.43 356.11L1304.19 354.88Z" fill="black"/>
<path d="M1292.64 341.48C1311.64 323.19 1342 319.81 1342.31 319.77L1342.49 321.51C1342.19 321.51 1312.42 324.88 1293.85 342.74L1292.64 341.48Z" fill="black"/>
<path d="M1294.14 278C1295.71 274.53 1300.72 270.59 1300.96 270.4L1301.06 270.33H1301.18C1312.75 268.93 1318.12 280.81 1318.18 280.93C1321.73 287.58 1323.85 294.902 1324.4 302.423C1324.95 309.943 1323.91 317.495 1321.36 324.59L1321.19 324.97L1320.8 324.82C1317.47 323.465 1314.46 321.448 1311.94 318.89L1312.57 318.3C1314.91 320.645 1317.67 322.524 1320.71 323.84C1323.12 316.906 1324.07 309.547 1323.5 302.227C1322.93 294.908 1320.85 287.786 1317.39 281.31C1317.33 281.16 1312.25 269.96 1301.39 271.19C1300.59 271.83 1295.01 276.4 1294.55 279.54L1293.69 279.41C1293.77 278.92 1293.92 278.445 1294.14 278V278Z" fill="black"/>
<path d="M1277.86 287.64L1282.86 277.12H1283.16L1285.51 277.33C1295.89 278.24 1296.07 278.38 1304.51 292.98L1306.21 295.92C1317.05 314.54 1310.88 328.37 1310.82 328.52L1310.64 328.91L1300.64 324.25L1301.01 323.45L1310.15 327.74C1311.05 325.36 1314.99 312.8 1305.42 296.36L1303.71 293.42C1295.4 279.08 1295.4 279.08 1285.37 278.2L1283.37 278.02L1278.61 288.02L1277.86 287.64Z" fill="black"/>
<path d="M1269.15 286.48L1269.43 286.42C1279.37 284.47 1283.18 290.59 1289.49 300.74C1291.05 303.24 1292.82 306.08 1294.86 309.08C1304.99 323.95 1301.86 333.72 1301.75 334.13L1301.57 334.66L1290.57 327.66L1291.04 326.92L1301.04 333.3C1301.52 331.05 1302.64 322.1 1294.12 309.59C1292.07 306.59 1290.29 303.72 1288.73 301.21C1282.47 291.15 1278.99 285.56 1269.86 287.21L1267.25 299.21L1266.4 299.02L1269.15 286.48Z" fill="black"/>
<path d="M1257.77 295.65H1258.32C1264.46 295.15 1266.32 297.22 1272.53 304.08C1274.53 306.27 1276.96 308.98 1280.14 312.26C1293.07 325.59 1295.53 337.86 1295.55 337.98L1294.69 338.15C1294.69 338.03 1292.25 326 1279.52 312.87C1276.32 309.58 1273.86 306.87 1271.88 304.67C1265.96 298.11 1264.22 296.19 1258.95 296.48L1261.79 305.08L1257.49 303.6C1258.99 310.28 1261.79 313.01 1268.23 319.29C1269.72 320.74 1271.42 322.39 1273.33 324.29C1279.18 330.284 1285.57 335.72 1292.42 340.53L1291.94 341.26C1285.04 336.414 1278.6 330.937 1272.71 324.9C1270.8 322.98 1269.11 321.33 1267.62 319.9C1260.81 313.26 1257.99 310.51 1256.47 303.01L1256.32 302.26L1260.41 303.67L1257.77 295.65Z" fill="black"/>
<path d="M1313.76 271.74C1315.54 267.8 1320.37 265.21 1320.63 265.08L1320.78 265H1320.95C1321.22 265.08 1327.76 266.9 1331.08 271C1334.85 275.65 1335.58 299 1335.69 303.65C1335.9 312.9 1331 321.86 1330.95 321.95L1330.73 322.35L1330.34 322.11C1330.12 321.97 1324.97 318.75 1323.08 315.01L1323.86 314.62C1325.35 317.56 1329.17 320.28 1330.4 321.11C1331.35 319.26 1335 311.56 1334.81 303.67C1334.52 291 1333.19 274.99 1330.4 271.55C1327.61 268.11 1321.92 266.23 1320.88 265.91C1319.82 266.52 1313.52 270.3 1314.01 275.14L1313.14 275.23C1313.03 274.032 1313.24 272.827 1313.76 271.74V271.74Z" fill="black"/>
<path d="M1327.63 268.6C1327.71 268.48 1329.47 265.66 1331.63 265.51C1333.47 265.37 1335.91 268.92 1336.85 270.42L1339.5 267.63L1339.76 268.23C1339.76 268.31 1343.21 276.1 1345.17 279.34C1345.69 280.188 1345.92 281.18 1345.83 282.17L1342.72 318.63L1341.85 318.55L1344.96 282.1C1345.03 281.292 1344.84 280.484 1344.42 279.79C1342.73 277 1340.08 271.09 1339.23 269.18L1336.69 271.85L1336.4 271.36C1335.22 269.36 1332.9 266.29 1331.7 266.36C1330.01 266.48 1328.42 269.01 1328.4 269.04L1327.63 268.6Z" fill="black"/>
<path d="M1337.18 271.12L1337.24 287.72L1336.31 271.15L1337.18 271.12Z" fill="#333333"/>
<path d="M1337.21 289.27C1337.51 291.27 1337.68 293.33 1337.81 295.36C1337.94 297.39 1338.03 299.44 1337.98 301.49C1337.68 299.49 1337.51 297.43 1337.38 295.39C1337.25 293.35 1337.16 291.32 1337.21 289.27Z" fill="#333333"/>
<path d="M1261.41 304.03L1272.25 315.39L1260.79 304.65L1261.41 304.03Z" fill="black"/>
<path d="M1273.55 316.92C1274.55 317.82 1275.42 318.74 1276.33 319.67C1277.24 320.6 1278.13 321.55 1279.02 322.5C1279.91 323.45 1280.78 324.41 1281.64 325.39C1282.5 326.37 1283.35 327.39 1284.17 328.39C1283.17 327.5 1282.3 326.58 1281.39 325.65C1280.48 324.72 1279.59 323.77 1278.7 322.82C1277.81 321.87 1276.94 320.91 1276.08 319.93C1275.22 318.95 1274.37 317.94 1273.55 316.92Z" fill="#333333"/>
<path d="M1294.58 338C1293.74 337.48 1292.97 336.93 1292.2 336.35C1291.43 335.77 1290.69 335.17 1289.97 334.53C1288.53 333.276 1287.2 331.912 1285.97 330.45C1287.3 331.807 1288.73 333.058 1290.25 334.19C1291 334.77 1291.78 335.3 1292.58 335.81C1293.38 336.32 1294.18 336.81 1295 337.24L1294.58 338Z" fill="black"/>
<path d="M1341.81 317.62C1341.31 316.738 1340.86 315.826 1340.46 314.89C1340.07 313.962 1339.74 313.014 1339.46 312.05C1339.18 311.089 1338.96 310.11 1338.81 309.12C1338.67 308.127 1338.61 307.123 1338.65 306.12C1338.69 307.113 1338.82 308.1 1339.03 309.07C1339.24 310.037 1339.53 310.986 1339.88 311.91C1340.23 312.831 1340.63 313.733 1341.08 314.61C1341.52 315.481 1342.01 316.323 1342.56 317.13L1341.81 317.62Z" fill="black"/>
<path d="M1311.56 368C1311.8 367.472 1312.14 366.996 1312.56 366.6C1312.98 366.203 1313.48 365.894 1314.02 365.69L1343.38 354.62C1343.92 354.413 1344.5 354.316 1345.07 354.333C1345.65 354.35 1346.22 354.482 1346.75 354.72C1347.81 355.203 1348.64 356.087 1349.06 357.18L1354.6 371.86C1355.59 374.342 1356.08 376.996 1356.04 379.669C1355.99 382.342 1355.42 384.979 1354.34 387.426C1353.26 389.873 1351.71 392.081 1349.77 393.92C1347.83 395.76 1345.54 397.193 1343.04 398.138C1340.54 399.082 1337.88 399.519 1335.21 399.421C1332.53 399.323 1329.91 398.693 1327.48 397.569C1325.06 396.444 1322.88 394.847 1321.08 392.871C1319.28 390.895 1317.89 388.579 1317 386.06L1311.46 371.38C1311.25 370.838 1311.16 370.26 1311.17 369.68C1311.19 369.1 1311.32 368.529 1311.56 368V368ZM1352.11 386.33C1353.08 384.188 1353.62 381.875 1353.7 379.524C1353.77 377.173 1353.38 374.83 1352.55 372.63L1347 358C1346.79 357.45 1346.37 357.005 1345.83 356.76C1345.29 356.519 1344.68 356.501 1344.13 356.71L1314.77 367.79C1314.5 367.892 1314.25 368.047 1314.03 368.247C1313.82 368.446 1313.65 368.686 1313.53 368.951C1313.41 369.217 1313.34 369.504 1313.33 369.796C1313.33 370.087 1313.38 370.378 1313.48 370.65L1319.02 385.33C1320.27 388.643 1322.48 391.51 1325.37 393.568C1328.25 395.625 1331.68 396.78 1335.22 396.887C1338.76 396.994 1342.25 396.048 1345.26 394.169C1348.26 392.29 1350.64 389.562 1352.09 386.33H1352.11Z" fill="black"/>
<path d="M1334.56 312.26C1334.69 312.68 1334.83 313.1 1334.99 313.5C1335.16 313.905 1335.35 314.299 1335.56 314.68C1335.77 315.055 1336.01 315.41 1336.29 315.74C1336.57 316.06 1336.91 316.327 1337.29 316.53H1337.14C1337.55 316.376 1337.93 316.163 1338.28 315.9C1338.63 315.632 1338.94 315.312 1339.2 314.95C1339.47 314.582 1339.66 314.169 1339.78 313.73C1339.91 313.291 1339.97 312.836 1339.96 312.38C1340 312.841 1339.98 313.306 1339.89 313.76C1339.8 314.22 1339.63 314.661 1339.39 315.06C1339.15 315.47 1338.84 315.84 1338.49 316.16C1338.13 316.48 1337.73 316.746 1337.29 316.95H1337.22H1337.14C1336.69 316.75 1336.29 316.465 1335.95 316.11C1335.61 315.781 1335.31 315.419 1335.05 315.03C1334.79 314.64 1334.55 314.236 1334.34 313.82C1334.14 313.4 1333.95 312.98 1333.78 312.54L1334.56 312.26Z" fill="black"/>
<path d="M1291 339.8C1291.17 339.408 1291.28 338.994 1291.33 338.57C1291.38 338.122 1291.38 337.668 1291.33 337.22C1291.27 336.762 1291.16 336.312 1291 335.88C1290.84 335.439 1290.64 335.014 1290.4 334.61C1290.7 334.977 1290.97 335.372 1291.2 335.79C1291.44 336.212 1291.63 336.662 1291.76 337.13C1291.9 337.605 1291.97 338.096 1291.99 338.59C1292.01 339.11 1291.95 339.629 1291.81 340.13L1291 339.8Z" fill="black"/>
<g opacity="0.6">
<path opacity="0.6" d="M1320.52 294.68C1320.7 295.48 1320.89 296.27 1321.04 297.07Z" fill="white"/>
</g>
<g opacity="0.3">
<path opacity="0.3" d="M1287.22 331.77C1285.22 329.99 1283.22 328.12 1281.29 326.22C1279.36 324.32 1277.48 322.37 1275.62 320.42L1272.86 317.42C1271.96 316.42 1271.04 315.42 1270.15 314.42C1268.37 312.42 1266.62 310.32 1264.96 308.17C1266.96 309.95 1268.96 311.82 1270.9 313.72C1271.9 314.66 1272.81 315.63 1273.76 316.59L1276.57 319.52C1278.41 321.52 1280.25 323.52 1282.03 325.52C1283.81 327.52 1285.56 329.61 1287.22 331.77Z" fill="#010101"/>
</g>
<g opacity="0.3">
<path opacity="0.3" d="M1339 309.52C1338.55 306.7 1338.23 303.87 1338 301.04C1337.77 298.21 1337.52 295.38 1337.33 292.54L1337.1 288.29C1337.1 286.87 1336.98 285.45 1336.95 284.03C1336.87 281.19 1336.84 278.34 1336.95 275.49C1337.4 278.31 1337.72 281.14 1337.95 283.96C1338.1 285.38 1338.2 286.8 1338.32 288.21L1338.62 292.46C1338.78 295.3 1338.93 298.14 1339 300.98C1339.07 303.82 1339.07 306.66 1339 309.52Z" fill="#010101"/>
</g>
<path d="M867.57 800.12C891.01 828.56 936.78 873.37 960.17 932.7C986 998.27 984.08 1068.38 985.4 1107" stroke="black" stroke-width="14" stroke-miterlimit="10"/>
<path d="M990.23 1106C1002.67 1131.33 1004.02 1153.78 993.92 1162.06C988.12 1166.82 977.24 1167.96 973.27 1163.54C967.73 1157.37 978.38 1143.47 973.27 1138.46C967.78 1133.08 953.9 1143.99 952.64 1141.27C947.35 1129.84 957.47 1131.51 969.58 1119.27C974.23 1114.57 976.04 1111.38 979.9 1105.99C982.24 1102.72 987.47 1105.14 990.23 1106Z" fill="#010101" stroke="black" stroke-width="4" stroke-miterlimit="10"/>
<defs>
<radialGradient id="paint0_radial_1_11974" cx="0" cy="0" r="1" gradientUnits="userSpaceOnUse" gradientTransform="translate(1328.01 367.29) scale(83.31)">
<stop stop-color="#D1D3D4"/>
<stop offset="0.11" stop-color="#D2D4D5" stop-opacity="0.98"/>
<stop offset="0.25" stop-color="#D5D7D8" stop-opacity="0.9"/>
<stop offset="0.4" stop-color="#DBDCDD" stop-opacity="0.79"/>
<stop offset="0.56" stop-color="#E2E4E4" stop-opacity="0.62"/>
<stop offset="0.73" stop-color="#ECEDED" stop-opacity="0.41"/>
<stop offset="0.9" stop-color="#F8F8F8" stop-opacity="0.16"/>
<stop offset="1" stop-color="white" stop-opacity="0"/>
</radialGradient>
<linearGradient id="paint1_linear_1_11974" x1="1381.16" y1="461.246" x2="1177.95" y2="820.783" gradientUnits="userSpaceOnUse">
<stop stop-color="#FBB03C"/>
<stop offset="1" stop-color="#838BC5"/>
</linearGradient>
<linearGradient id="paint2_linear_1_11974" x1="601.974" y1="771.001" x2="1045.47" y2="626.385" gradientUnits="userSpaceOnUse">
<stop stop-color="#FBB03C"/>
<stop offset="1" stop-color="#838BC5"/>
</linearGradient>
<linearGradient id="paint3_linear_1_11974" x1="602.198" y1="771.679" x2="1045.69" y2="627.063" gradientUnits="userSpaceOnUse">
<stop stop-color="#FBB03C"/>
<stop offset="1" stop-color="#838BC5"/>
</linearGradient>
<linearGradient id="paint4_linear_1_11974" x1="594.579" y1="767.102" x2="975.201" y2="645.627" gradientUnits="userSpaceOnUse">
<stop stop-color="#FBB03C"/>
<stop offset="1" stop-color="#838BC5"/>
</linearGradient>
<linearGradient id="paint5_linear_1_11974" x1="594.579" y1="767.102" x2="975.191" y2="645.63" gradientUnits="userSpaceOnUse">
<stop stop-color="#FBB03C"/>
<stop offset="1" stop-color="#838BC5"/>
</linearGradient>
</defs>
</svg>
