<svg width="1660" height="1660" viewBox="0 0 1660 1660" fill="none" xmlns="http://www.w3.org/2000/svg">
<path d="M277.17 605.91C760.35 430.3 1102.76 301.05 1262.91 225.48C1294.76 210.48 1377.91 169.95 1449.91 203C1508.08 229.69 1557.17 303.51 1552.91 360C1534 612 438 719.69 449.52 866.53C452.06 898.9 506.33 906.45 520.98 971.62C536.57 1040.96 498.22 1135.12 422.2 1169.19C325.06 1212.71 227 1131 198 1106.78C135.8 1054.92 112.84 991.63 96.42 946.4C69.19 871.36 38 785.3 81.71 708.9C135.56 614.84 262.24 606.65 277.17 605.91Z" fill="url(#paint0_linear_1_12155)" stroke="#231F20" stroke-width="4" stroke-miterlimit="10"/>
<path d="M1258.78 255.29C1256.25 239.84 1259.17 223.991 1267.04 210.456C1274.91 196.922 1287.24 186.544 1301.92 181.1C1406.42 142.1 1517.35 186.36 1552.92 263.32C1601.85 369.09 1498.23 514.43 1422.61 515.53C1359 516.46 1285.3 415.57 1258.78 255.29Z" fill="url(#paint1_linear_1_12155)" stroke="#231F20" stroke-width="4" stroke-miterlimit="10"/>
<path d="M778.81 809.2C759.47 887.43 690.35 904.3 653.68 902.93C601.32 900.98 560.68 890.84 511.68 821.71" stroke="black" stroke-width="14" stroke-miterlimit="10"/>
<path d="M509.07 807C516.36 802.23 513.22 791.47 516.28 783.35C520.71 771.57 530.92 792.49 524.42 808.42C521.92 814.54 521.42 818.17 519.96 824.64C519.05 828.55 513.3 828.31 510.42 828.59C502.48 821.59 498.68 818.05 494.17 811.16" fill="#010101"/>
<path d="M509.07 807C516.36 802.23 513.22 791.47 516.28 783.35C520.71 771.57 530.92 792.49 524.42 808.42C521.92 814.54 521.42 818.17 519.96 824.64C519.05 828.55 513.3 828.31 510.42 828.59C502.48 821.59 498.68 818.05 494.17 811.16" stroke="black" stroke-width="4" stroke-miterlimit="10"/>
<path d="M1478.82 298.81L1553.21 262.81Z" fill="url(#paint2_linear_1_12155)"/>
<path d="M1478.82 298.81L1553.21 262.81" stroke="#231F20" stroke-width="4" stroke-miterlimit="10"/>
<path d="M1543.84 265.81C1560.24 262.15 1567.93 265.01 1579.18 275.62C1586.77 282.79 1596.5 298.2 1600.82 306.53C1618.46 340.53 1620.64 368.13 1606.57 403.73C1603.19 412.29 1596.73 421.39 1587.57 421.31C1581.85 421.26 1576.66 417.38 1573.79 412.43C1570.92 407.48 1570.04 401.64 1569.86 395.92C1569.35 379.02 1574.51 362.54 1578.67 346.14C1582.83 329.74 1586.01 312.39 1581.6 296.06C1577.19 279.73 1563.15 264.87 1546.24 264.78" fill="url(#paint3_radial_1_12155)"/>
<path d="M1544 266.34C1549.31 265.16 1555 264.34 1560.34 265.47C1564.96 266.578 1569.27 268.753 1572.9 271.82C1581.9 278.94 1588.49 288.53 1594.43 298.23C1607.63 319.78 1616.43 344.81 1613.85 370.36C1613.13 377.03 1611.82 383.623 1609.93 390.06C1608.09 396.43 1606.03 403.06 1602.87 408.89C1600.32 413.6 1596.33 419.07 1590.81 420.38C1584.89 421.8 1578.96 417.75 1575.81 413C1572.07 407.35 1571.3 400.25 1571.26 393.64C1571.32 385.969 1572.2 378.326 1573.88 370.84C1576.96 356.13 1581.88 341.84 1584.03 326.93C1586.03 313.46 1585.85 298.98 1579.52 286.61C1574.52 276.79 1565.87 268.21 1555.03 265.24C1552.46 264.54 1549.81 264.17 1547.15 264.14C1546.42 264.08 1545.7 264.274 1545.1 264.69C1544.74 265.01 1544.63 265.42 1545.29 265.43C1557.29 265.57 1567.69 273.24 1574.07 282.99C1581.84 294.86 1583.21 309.37 1581.7 323.19C1580.02 338.64 1575 353.42 1571.62 368.52C1569.85 375.933 1568.77 383.496 1568.41 391.11C1568.17 398.11 1568.52 405.73 1571.91 412.11C1574.68 417.33 1579.82 421.56 1585.91 421.97C1591.65 422.35 1597.01 419.6 1600.85 415.47C1605.16 410.83 1607.6 404.98 1609.73 399.11C1612.22 392.379 1614.15 385.456 1615.51 378.41C1617.92 365.798 1617.79 352.834 1615.15 340.27C1612.16 327.072 1607.2 314.401 1600.42 302.69C1597.53 297.57 1594.39 292.6 1590.99 287.78C1587.87 283.129 1584.29 278.807 1580.3 274.88C1576.45 271.27 1572.3 267.88 1567.36 265.76C1562.75 263.948 1557.77 263.289 1552.85 263.84C1549.79 264.141 1546.75 264.639 1543.75 265.33C1543.44 265.4 1542.31 265.76 1542.44 266.24C1542.57 266.72 1543.77 266.44 1544.03 266.38L1544 266.34Z" fill="#231F20"/>
<path d="M867.57 800.12C891.01 828.56 936.78 873.37 960.17 932.7C986 998.27 984.08 1068.38 985.4 1107" stroke="black" stroke-width="14" stroke-miterlimit="10"/>
<path d="M990.23 1106C1002.67 1131.33 1004.02 1153.78 993.92 1162.06C988.12 1166.82 977.24 1167.96 973.27 1163.54C967.73 1157.37 978.38 1143.47 973.27 1138.46C967.78 1133.08 953.9 1143.99 952.64 1141.27C947.35 1129.84 957.47 1131.51 969.58 1119.27C974.23 1114.57 976.04 1111.38 979.9 1105.99C982.24 1102.72 987.47 1105.14 990.23 1106Z" fill="#010101" stroke="black" stroke-width="4" stroke-miterlimit="10"/>
<defs>
<linearGradient id="paint0_linear_1_12155" x1="59.92" y1="686.05" x2="1553.21" y2="686.05" gradientUnits="userSpaceOnUse">
<stop stop-color="#D9A18E"/>
<stop offset="1" stop-color="#FED4AA"/>
</linearGradient>
<linearGradient id="paint1_linear_1_12155" x1="1257.87" y1="341.09" x2="1565.61" y2="341.09" gradientUnits="userSpaceOnUse">
<stop stop-color="#D9A18E"/>
<stop offset="1" stop-color="#FED4AA"/>
</linearGradient>
<linearGradient id="paint2_linear_1_12155" x1="1478.82" y1="280.81" x2="1553.21" y2="280.81" gradientUnits="userSpaceOnUse">
<stop stop-color="#D9A18E"/>
<stop offset="1" stop-color="#FED4AA"/>
</linearGradient>
<radialGradient id="paint3_radial_1_12155" cx="0" cy="0" r="1" gradientUnits="userSpaceOnUse" gradientTransform="translate(1579.81 342.8) scale(61.06)">
<stop stop-color="#F9F7DE"/>
<stop offset="1" stop-color="#EEF1F6"/>
</radialGradient>
</defs>
</svg>
