<svg width="1660" height="1660" viewBox="0 0 1660 1660" fill="none" xmlns="http://www.w3.org/2000/svg">
<path d="M778.81 809.2C759.47 887.43 690.35 904.3 653.68 902.93C601.32 900.98 560.68 890.84 511.68 821.71" stroke="black" stroke-width="14" stroke-miterlimit="10"/>
<path d="M465.55 855.34C524.22 739.28 654.06 801.61 742.18 739.24C821.35 683.24 766.69 551.31 754.78 525.11C748.23 497.11 711.07 359.23 614.15 363.11C506.27 367.45 441.43 496.05 324.15 439.89C206.87 383.73 -25.75 439.84 81.3 754.35C188.39 1068.88 406.89 971.39 465.55 855.34Z" fill="url(#paint0_linear_1_12180)" stroke="#010101" stroke-width="4" stroke-miterlimit="10"/>
<path d="M1315.07 250.34L1325.6 246.76C1325.82 246.686 1326.02 246.564 1326.19 246.404C1326.36 246.244 1326.49 246.05 1326.58 245.834C1326.66 245.618 1326.7 245.385 1326.69 245.153C1326.67 244.921 1326.61 244.695 1326.5 244.49C1322.81 237.49 1314.82 233.94 1307.5 236.43C1300.18 238.92 1296.01 246.62 1297.36 254.43C1297.4 254.658 1297.49 254.876 1297.62 255.067C1297.75 255.258 1297.92 255.418 1298.12 255.537C1298.32 255.656 1298.54 255.73 1298.77 255.755C1299 255.78 1299.23 255.754 1299.45 255.68L1309.99 252.09L1312.71 260.09L1317.8 258.36L1315.07 250.34Z" fill="#BC9B6F" stroke="#010101" stroke-width="4" stroke-miterlimit="10"/>
<path d="M1438.87 376.27L1428.33 379.86C1428.11 379.934 1427.91 380.055 1427.74 380.215C1427.58 380.374 1427.45 380.568 1427.36 380.783C1427.28 380.999 1427.24 381.23 1427.25 381.461C1427.27 381.691 1427.33 381.916 1427.44 382.12C1431.12 389.12 1439.11 392.68 1446.44 390.18C1453.77 387.68 1457.93 379.99 1456.58 372.18C1456.54 371.952 1456.45 371.734 1456.32 371.543C1456.19 371.352 1456.02 371.191 1455.82 371.073C1455.62 370.954 1455.4 370.879 1455.17 370.855C1454.94 370.83 1454.71 370.856 1454.49 370.93L1444 374.54L1441.28 366.54L1436.2 368.27L1438.87 376.27Z" fill="#BC9B6F" stroke="#010101" stroke-width="4" stroke-miterlimit="10"/>
<path d="M1452.17 362.83L1457.25 361.09L1465.88 358.16C1470.55 356.568 1474.47 353.305 1476.88 348.998C1479.29 344.691 1480.03 339.645 1478.94 334.83C1476.56 324.02 1474.66 308.21 1476.43 287.83C1476.66 285.112 1476.32 282.375 1475.44 279.793C1474.56 277.211 1473.15 274.84 1471.31 272.83C1457.48 257.77 1449.31 244.08 1444.63 234.06C1442.55 229.584 1438.89 226.035 1434.35 224.095C1429.82 222.155 1424.72 221.961 1420.05 223.55L1411.42 226.49L1406.34 228.22L1360.94 243.68L1355.85 245.41L1310.46 260.86L1305.37 262.59L1283.9 269.9C1279.02 271.602 1274.97 275.099 1272.57 279.68C1260.27 302.68 1223.19 314.98 1216.47 317.05L1215.47 317.36L1246.57 408.71L1247.57 408.32C1254.16 405.85 1291.03 392.97 1314.82 403.7C1319.51 405.866 1324.86 406.163 1329.76 404.53L1351.23 397.23L1356.32 395.49L1401.68 380L1406.77 378.27L1452.17 362.83Z" fill="#51200E" stroke="#010101" stroke-width="4" stroke-miterlimit="10"/>
<path d="M1392.68 223.92L1403.22 220.33C1403.44 220.256 1403.64 220.135 1403.81 219.975C1403.97 219.816 1404.1 219.622 1404.19 219.407C1404.27 219.191 1404.31 218.96 1404.3 218.729C1404.28 218.499 1404.22 218.274 1404.11 218.07C1400.43 211.07 1392.43 207.52 1385.11 210.01C1377.79 212.5 1373.62 220.2 1374.97 228.01C1375.01 228.238 1375.1 228.456 1375.23 228.647C1375.36 228.838 1375.53 228.998 1375.73 229.117C1375.93 229.236 1376.15 229.31 1376.38 229.335C1376.61 229.36 1376.84 229.334 1377.06 229.26L1387.6 225.67L1390.32 233.67L1395.4 231.94L1392.68 223.92Z" fill="#BC9B6F" stroke="#010101" stroke-width="4" stroke-miterlimit="10"/>
<path d="M1349.82 408.55C1353.5 415.55 1361.5 419.1 1368.82 416.6C1376.14 414.1 1380.31 406.41 1378.97 398.6C1378.93 398.371 1378.84 398.154 1378.71 397.963C1378.58 397.772 1378.41 397.612 1378.21 397.494C1378.01 397.376 1377.78 397.303 1377.55 397.28C1377.32 397.257 1377.09 397.284 1376.87 397.36L1366.34 401L1363.62 393L1358.53 394.73L1361.25 402.73L1350.71 406.32C1350.5 406.396 1350.3 406.517 1350.14 406.675C1349.97 406.832 1349.85 407.023 1349.76 407.234C1349.68 407.445 1349.64 407.671 1349.65 407.898C1349.66 408.125 1349.72 408.347 1349.82 408.55V408.55Z" fill="#BC9B6F" stroke="#010101" stroke-width="4" stroke-miterlimit="10"/>
<path d="M220.55 594.646L188.742 605.474C185.428 606.602 183.655 610.204 184.784 613.519L249.23 802.83C250.359 806.144 253.961 807.916 257.275 806.788L289.083 795.96C292.397 794.832 294.17 791.23 293.041 787.915L228.595 598.604C227.466 595.289 223.864 593.517 220.55 594.646Z" fill="#4B1E0F"/>
<path d="M1208.49 319.668L543.54 546.037L574.638 637.389L1239.59 411.02L1208.49 319.668Z" fill="#6B3521" stroke="#010101" stroke-width="4" stroke-miterlimit="10"/>
<path d="M525.37 689.81C573.203 689.81 611.98 651.033 611.98 603.2C611.98 555.367 573.203 516.59 525.37 516.59C477.537 516.59 438.76 555.367 438.76 603.2C438.76 651.033 477.537 689.81 525.37 689.81Z" fill="#975F38" stroke="black" stroke-width="4" stroke-miterlimit="10"/>
<path d="M525.37 686.5C571.375 686.5 608.67 649.205 608.67 603.2C608.67 557.195 571.375 519.9 525.37 519.9C479.365 519.9 442.07 557.195 442.07 603.2C442.07 649.205 479.365 686.5 525.37 686.5Z" fill="#121212"/>
<path d="M1215.41 317.314L1208.49 319.67L1239.59 411.022L1246.51 408.666L1215.41 317.314Z" fill="#BC9B6F" stroke="#010101" stroke-width="4" stroke-miterlimit="10"/>
<g opacity="0.34">
<path d="M1207.46 320.04L1208.5 319.69L1239.6 411.04L1238.55 411.39" fill="#010101"/>
<path d="M1207.46 320.04L1208.5 319.69L1239.6 411.04L1238.55 411.39" stroke="#010101" stroke-width="4" stroke-miterlimit="10"/>
</g>
<g opacity="0.34">
<path d="M1247.54 408.29L1246.54 408.68L1215.44 317.33L1216.44 317.02" fill="white"/>
<path d="M1247.54 408.29L1246.54 408.68L1215.44 317.33L1216.44 317.02" stroke="#010101" stroke-width="4" stroke-miterlimit="10"/>
</g>
<path d="M1153.82 338.279L1150.91 339.268L1182.01 430.62L1184.92 429.63L1153.82 338.279Z" fill="#BC9B6F"/>
<path opacity="0.34" d="M1150.9 339.279L1150.47 339.427L1181.57 430.779L1182 430.63L1150.9 339.279Z" fill="#010101"/>
<path opacity="0.34" d="M1154.26 338.13L1153.82 338.278L1184.92 429.63L1185.36 429.482L1154.26 338.13Z" fill="white"/>
<path d="M1093.84 358.709L1090.94 359.698L1122.03 451.05L1124.94 450.061L1093.84 358.709Z" fill="#BC9B6F"/>
<path opacity="0.34" d="M1090.93 359.699L1090.5 359.847L1121.6 451.199L1122.03 451.05L1090.93 359.699Z" fill="#010101"/>
<path opacity="0.34" d="M1094.28 358.56L1093.84 358.708L1124.94 450.06L1125.38 449.912L1094.28 358.56Z" fill="white"/>
<path d="M1033.86 379.119L1030.95 380.109L1062.05 471.46L1064.96 470.471L1033.86 379.119Z" fill="#BC9B6F"/>
<path opacity="0.34" d="M1030.95 380.109L1030.52 380.258L1061.62 471.609L1062.05 471.461L1030.95 380.109Z" fill="#010101"/>
<path opacity="0.34" d="M1034.3 378.971L1033.86 379.119L1064.96 470.471L1065.39 470.322L1034.3 378.971Z" fill="white"/>
<path d="M973.889 399.536L970.983 400.526L1002.08 491.877L1004.99 490.888L973.889 399.536Z" fill="#BC9B6F"/>
<path opacity="0.34" d="M970.982 400.526L970.547 400.675L1001.65 492.026L1002.08 491.878L970.982 400.526Z" fill="#010101"/>
<path opacity="0.34" d="M974.326 399.387L973.89 399.536L1004.99 490.887L1005.42 490.739L974.326 399.387Z" fill="white"/>
<path d="M913.91 419.956L911.004 420.946L942.102 512.297L945.009 511.308L913.91 419.956Z" fill="#BC9B6F"/>
<path opacity="0.34" d="M911.003 420.946L910.567 421.095L941.666 512.446L942.101 512.298L911.003 420.946Z" fill="#010101"/>
<path opacity="0.34" d="M914.346 419.808L913.911 419.956L945.01 511.307L945.445 511.159L914.346 419.808Z" fill="white"/>
<path d="M853.927 440.367L851.021 441.356L882.12 532.708L885.026 531.719L853.927 440.367Z" fill="#BC9B6F"/>
<path opacity="0.34" d="M851.02 441.357L850.585 441.505L881.683 532.857L882.119 532.709L851.02 441.357Z" fill="#010101"/>
<path opacity="0.34" d="M854.374 440.218L853.938 440.366L885.037 531.718L885.473 531.57L854.374 440.218Z" fill="white"/>
<path d="M793.948 460.787L791.042 461.776L822.14 553.128L825.047 552.139L793.948 460.787Z" fill="#BC9B6F"/>
<path opacity="0.34" d="M791.05 461.774L790.615 461.922L821.713 553.274L822.149 553.125L791.05 461.774Z" fill="#010101"/>
<path opacity="0.34" d="M794.404 460.635L793.969 460.783L825.067 552.135L825.503 551.987L794.404 460.635Z" fill="white"/>
<path d="M733.978 481.204L731.072 482.193L762.171 573.545L765.077 572.556L733.978 481.204Z" fill="#BC9B6F"/>
<path opacity="0.34" d="M731.071 482.194L730.635 482.342L761.734 573.694L762.169 573.546L731.071 482.194Z" fill="#010101"/>
<path opacity="0.34" d="M734.425 481.055L733.989 481.203L765.088 572.555L765.523 572.407L734.425 481.055Z" fill="white"/>
<path d="M674.009 501.634L671.103 502.623L702.201 593.975L705.107 592.986L674.009 501.634Z" fill="#BC9B6F"/>
<path opacity="0.34" d="M671.091 502.624L670.656 502.772L701.755 594.124L702.19 593.976L671.091 502.624Z" fill="#010101"/>
<path opacity="0.34" d="M674.445 501.475L674.01 501.623L705.109 592.975L705.544 592.827L674.445 501.475Z" fill="white"/>
<path d="M614.026 522.045L611.12 523.034L642.219 614.386L645.125 613.396L614.026 522.045Z" fill="#BC9B6F"/>
<path opacity="0.34" d="M611.109 523.035L610.673 523.183L641.772 614.534L642.208 614.386L611.109 523.035Z" fill="#010101"/>
<path opacity="0.34" d="M614.463 521.896L614.027 522.044L645.126 613.396L645.561 613.247L614.463 521.896Z" fill="white"/>
<path d="M222.957 593.823L191.149 604.651C187.835 605.779 186.062 609.381 187.191 612.696L251.638 802.007C252.766 805.321 256.368 807.094 259.682 805.965L291.49 795.137C294.805 794.009 296.577 790.407 295.449 787.092L231.002 597.781C229.873 594.466 226.272 592.694 222.957 593.823Z" fill="#682D13" stroke="black" stroke-width="4" stroke-miterlimit="10"/>
<path d="M220.114 608.928L215.693 610.433C213.492 611.182 212.315 613.574 213.064 615.775L270.086 783.275C270.835 785.476 273.227 786.653 275.428 785.904L279.849 784.399C282.05 783.65 283.227 781.258 282.478 779.057L225.456 611.557C224.707 609.356 222.315 608.179 220.114 608.928Z" fill="#BC9B6F" stroke="black" stroke-width="4" stroke-miterlimit="10"/>
<path d="M236.84 663.63L236.33 662.11L1218.88 327.64L1321.82 278.81L1322.51 280.26L1219.48 329.12L236.84 663.63Z" fill="#FFECD0"/>
<path d="M244.7 686.71L244.19 685.2L1226.71 350.73L1399.38 252.42L1400.18 253.81L1227.37 352.2L244.7 686.71Z" fill="#FFECD0"/>
<path d="M252.56 709.8L252.04 708.28L1234.71 373.77L1234.79 373.76L1431.66 346.29L1431.88 347.87L1235.08 375.33L252.56 709.8Z" fill="#FFECD0"/>
<path d="M260.42 732.88L259.9 731.37L1242.54 396.86L1242.59 396.85L1353.98 372.72L1354.32 374.28L1242.97 398.41L260.42 732.88Z" fill="#FFECD0"/>
<path d="M237.45 665.41C236.946 665.582 236.403 665.6 235.889 665.463C235.374 665.325 234.913 665.039 234.561 664.639C234.21 664.239 233.985 663.744 233.916 663.216C233.846 662.689 233.934 662.152 234.169 661.675C234.405 661.198 234.776 660.801 235.237 660.534C235.698 660.268 236.227 660.145 236.758 660.18C237.289 660.214 237.798 660.406 238.22 660.73C238.643 661.054 238.959 661.496 239.13 662C239.359 662.675 239.31 663.413 238.995 664.053C238.681 664.692 238.125 665.18 237.45 665.41V665.41Z" fill="#682D13"/>
<path d="M245.31 688.5C244.806 688.672 244.263 688.69 243.749 688.553C243.234 688.415 242.773 688.129 242.421 687.729C242.07 687.329 241.845 686.834 241.776 686.306C241.706 685.779 241.794 685.242 242.029 684.765C242.265 684.288 242.636 683.891 243.097 683.624C243.558 683.358 244.087 683.235 244.618 683.269C245.149 683.304 245.658 683.496 246.08 683.82C246.503 684.144 246.819 684.586 246.99 685.09C247.216 685.765 247.166 686.502 246.852 687.141C246.537 687.779 245.983 688.268 245.31 688.5V688.5Z" fill="#682D13"/>
<path d="M252.3 711.73C253.786 711.73 254.99 710.526 254.99 709.04C254.99 707.554 253.786 706.35 252.3 706.35C250.814 706.35 249.61 707.554 249.61 709.04C249.61 710.526 250.814 711.73 252.3 711.73Z" fill="#682D13"/>
<path d="M261 734.67C260.497 734.844 259.953 734.864 259.438 734.728C258.923 734.592 258.46 734.307 258.108 733.908C257.755 733.509 257.529 733.014 257.458 732.487C257.386 731.959 257.473 731.422 257.708 730.944C257.942 730.465 258.313 730.068 258.773 729.8C259.234 729.533 259.763 729.408 260.295 729.442C260.826 729.476 261.335 729.667 261.758 729.991C262.181 730.314 262.498 730.756 262.67 731.26C262.897 731.934 262.848 732.67 262.536 733.308C262.223 733.947 261.671 734.436 261 734.67V734.67Z" fill="#682D13"/>
<path d="M1409.28 256.488C1411.15 251.224 1408.41 245.434 1403.14 243.558C1397.88 241.681 1392.09 244.427 1390.21 249.692C1388.33 254.957 1391.08 260.746 1396.35 262.623C1401.61 264.499 1407.4 261.753 1409.28 256.488Z" fill="#BC9B6F" stroke="#010101" stroke-width="4" stroke-miterlimit="10"/>
<path d="M1322.87 289.64C1328.45 289.247 1332.65 284.408 1332.25 278.832C1331.86 273.257 1327.02 269.057 1321.45 269.451C1315.87 269.844 1311.67 274.683 1312.06 280.258C1312.46 285.834 1317.3 290.034 1322.87 289.64Z" fill="#BC9B6F" stroke="#010101" stroke-width="4" stroke-miterlimit="10"/>
<path d="M1440.84 351.538C1443.3 346.523 1441.24 340.458 1436.22 337.99C1431.21 335.522 1425.14 337.587 1422.68 342.602C1420.21 347.617 1422.27 353.683 1427.29 356.15C1432.3 358.618 1438.37 356.553 1440.84 351.538Z" fill="#BC9B6F" stroke="#010101" stroke-width="4" stroke-miterlimit="10"/>
<path d="M1355.14 383.491C1360.71 382.953 1364.78 378.008 1364.24 372.444C1363.7 366.881 1358.76 362.807 1353.2 363.345C1347.63 363.882 1343.56 368.828 1344.1 374.391C1344.63 379.955 1349.58 384.029 1355.14 383.491Z" fill="#BC9B6F" stroke="#010101" stroke-width="4" stroke-miterlimit="10"/>
<path d="M506.16 809.2C512.33 802.96 513.22 791.43 516.28 783.31C520.71 771.53 530.92 792.45 524.42 808.38C521.92 814.5 521.42 818.13 519.96 824.6C519.05 828.51 513.3 828.27 510.42 828.55C502.48 821.55 501.98 822.63 497.47 815.73" fill="#010101"/>
<path d="M506.16 809.2C512.33 802.96 513.22 791.43 516.28 783.31C520.71 771.53 530.92 792.45 524.42 808.38C521.92 814.5 521.42 818.13 519.96 824.6C519.05 828.51 513.3 828.27 510.42 828.55C502.48 821.55 501.98 822.63 497.47 815.73" stroke="black" stroke-width="4" stroke-miterlimit="10"/>
<path d="M867.57 800.12C891.01 828.56 936.78 873.37 960.17 932.7C986 998.27 984.08 1068.38 985.4 1107" stroke="black" stroke-width="14" stroke-miterlimit="10"/>
<path d="M990.23 1106C1002.67 1131.33 1004.02 1153.78 993.92 1162.06C988.12 1166.82 977.24 1167.96 973.27 1163.54C967.73 1157.37 978.38 1143.47 973.27 1138.46C967.78 1133.08 953.9 1143.99 952.64 1141.27C947.35 1129.84 957.47 1131.51 969.58 1119.27C974.23 1114.57 976.04 1111.38 979.9 1105.99C982.24 1102.72 987.47 1105.14 990.23 1106Z" fill="#010101" stroke="black" stroke-width="4" stroke-miterlimit="10"/>
<defs>
<linearGradient id="paint0_linear_1_12180" x1="53.85" y1="664.69" x2="784.25" y2="664.69" gradientUnits="userSpaceOnUse">
<stop stop-color="#B0904A"/>
<stop offset="1" stop-color="#BC9B6F"/>
</linearGradient>
</defs>
</svg>
