<svg width="1660" height="1660" viewBox="0 0 1660 1660" fill="none" xmlns="http://www.w3.org/2000/svg">
<path d="M583 605.36L577.17 599.21L574.36 596.21L568.53 590.06C568.53 590.06 478.6 553.41 371.1 644.44C274.46 746.93 306.24 838.7 306.24 838.7L312.07 844.85L314.88 847.85L320.71 853.99C320.71 853.99 410.65 890.65 518.14 799.62C614.8 697.13 583 605.36 583 605.36Z" fill="url(#paint0_linear_1_12169)" stroke="#231F20" stroke-width="4" stroke-miterlimit="10"/>
<g style="mix-blend-mode:multiply" opacity="0.54">
<path d="M335.09 858C355.564 854.407 375.723 849.208 395.38 842.45C420.952 833.718 445.215 821.542 467.5 806.26C502.826 781.88 531.174 748.699 549.74 710C557.267 694.342 563.294 678.005 567.74 661.21C571.387 647.496 574.037 633.536 575.67 619.44C576.55 611.85 577.03 605.07 577.27 599.32L577.17 599.22L574.36 596.22C574.17 602.49 573.69 610.22 572.65 619.22C570.1 641.14 563.57 674.47 546.95 708.82C519.64 765.25 459.54 834.56 327.62 856.21C329.69 856.76 332.19 857.38 335.09 858Z" fill="#3C2415"/>
</g>
<path d="M345.26 816.21C359.927 831.703 375.037 846.25 390.59 859.85C400.356 858.631 410.019 856.693 419.5 854.05C379.101 820.474 342.845 782.204 311.5 740.05C308.35 749.375 305.897 758.921 304.16 768.61C316.847 784.81 330.547 800.677 345.26 816.21Z" fill="url(#paint1_linear_1_12169)" stroke="#231F20" stroke-width="4" stroke-miterlimit="10"/>
<path d="M576.27 708.43C579.572 699.319 582.212 689.981 584.17 680.49C570.95 663.47 556.617 646.803 541.17 630.49C525.78 614.25 509.86 599 493.58 584.88C483.999 586.331 474.535 588.466 465.26 591.27C486.091 608.407 505.829 626.829 524.36 646.43C542.938 665.995 560.275 686.702 576.27 708.43V708.43Z" fill="url(#paint2_linear_1_12169)" stroke="#231F20" stroke-width="4" stroke-miterlimit="10"/>
<path d="M366.73 737.51C364.043 734.12 360.825 731.189 357.2 728.83C359.38 724.99 361.673 721.257 364.08 717.63C366.425 719.3 368.517 721.301 370.29 723.57C370.757 724.221 371.463 724.66 372.254 724.79C373.044 724.921 373.854 724.732 374.505 724.265C375.156 723.798 375.595 723.092 375.725 722.301C375.856 721.511 375.667 720.701 375.2 720.05C373.007 717.215 370.401 714.724 367.47 712.66C369.89 709.233 372.373 705.92 374.92 702.72C376.756 704.422 378.351 706.367 379.66 708.5C379.857 708.845 380.12 709.147 380.434 709.39C380.748 709.633 381.106 709.812 381.489 709.917C381.873 710.021 382.272 710.049 382.666 709.999C383.06 709.949 383.44 709.822 383.785 709.625C384.13 709.428 384.432 709.165 384.675 708.851C384.918 708.537 385.097 708.179 385.202 707.795C385.306 707.412 385.334 707.013 385.284 706.619C385.234 706.225 385.107 705.845 384.91 705.5C383.218 702.733 381.14 700.221 378.74 698.04C381.647 694.56 384.587 691.227 387.56 688.04C389.418 689.979 390.994 692.171 392.24 694.55C392.587 695.273 393.208 695.828 393.964 696.093C394.721 696.359 395.552 696.312 396.275 695.965C396.998 695.618 397.553 694.997 397.818 694.241C398.084 693.484 398.037 692.653 397.69 691.93C396.099 688.907 394.078 686.132 391.69 683.69C395.16 680.13 398.62 676.79 401.99 673.69C404.011 675.872 405.696 678.342 406.99 681.02C407.31 681.755 407.908 682.332 408.653 682.626C409.399 682.919 410.23 682.905 410.965 682.585C411.7 682.265 412.277 681.667 412.571 680.922C412.864 680.176 412.85 679.345 412.53 678.61C410.969 675.321 408.919 672.286 406.45 669.61C409.68 666.75 412.81 664.12 415.76 661.72C416.41 661.19 417.05 660.72 417.69 660.17C420.196 662.797 422.259 665.813 423.8 669.1C423.949 669.468 424.169 669.802 424.447 670.085C424.726 670.368 425.057 670.593 425.423 670.747C425.788 670.902 426.18 670.983 426.577 670.986C426.974 670.989 427.367 670.914 427.735 670.765C428.103 670.616 428.437 670.396 428.72 670.118C429.003 669.839 429.228 669.508 429.382 669.142C429.537 668.777 429.618 668.385 429.621 667.988C429.624 667.591 429.549 667.198 429.4 666.83C427.635 663.019 425.272 659.515 422.4 656.45C427.21 652.76 431.73 649.52 435.77 646.74C438.95 650.15 441.7 653.74 442.99 656.9C443.13 657.25 443.337 657.57 443.6 657.84C444.072 658.389 444.726 658.748 445.441 658.853C446.157 658.957 446.887 658.799 447.495 658.409C448.104 658.018 448.551 657.42 448.754 656.726C448.957 656.031 448.902 655.287 448.6 654.63C447.12 650.98 444.2 647.05 440.84 643.35C446.59 639.58 450.92 637.05 453.07 635.82C455.487 638.391 457.479 641.331 458.97 644.53C459.11 644.88 459.317 645.2 459.58 645.47C460.052 646.018 460.706 646.378 461.421 646.483C462.137 646.587 462.867 646.429 463.475 646.039C464.084 645.648 464.531 645.05 464.734 644.356C464.937 643.661 464.882 642.917 464.58 642.26C462.821 638.446 460.457 634.94 457.58 631.88C458.26 630.524 458.494 628.987 458.246 627.489C457.999 625.992 457.283 624.612 456.202 623.547C455.122 622.481 453.731 621.786 452.231 621.56C450.73 621.334 449.196 621.59 447.85 622.29C443.25 618.29 439.46 615.45 439.1 615.18C438.78 614.945 438.417 614.775 438.032 614.68C437.647 614.586 437.246 614.568 436.854 614.628C436.462 614.687 436.085 614.824 435.745 615.029C435.406 615.235 435.11 615.505 434.875 615.825C434.64 616.145 434.47 616.508 434.375 616.893C434.281 617.278 434.263 617.679 434.322 618.071C434.382 618.463 434.519 618.84 434.724 619.18C434.93 619.519 435.2 619.815 435.52 620.05C435.59 620.11 438.52 622.26 442.28 625.47C439.28 627.28 435.1 629.86 430.16 633.18C426.36 629.95 423.44 627.79 423.16 627.56C422.841 627.325 422.479 627.155 422.094 627.06C421.709 626.965 421.309 626.947 420.917 627.006C420.526 627.065 420.149 627.201 419.81 627.406C419.471 627.611 419.175 627.881 418.94 628.2C418.465 628.845 418.266 629.651 418.386 630.443C418.506 631.234 418.935 631.945 419.58 632.42C419.64 632.42 421.9 634.14 425.01 636.73C421.01 639.53 416.65 642.73 412.01 646.31C407.7 642.57 404.24 640.01 403.9 639.76C403.254 639.285 402.446 639.087 401.654 639.207C400.862 639.328 400.15 639.759 399.675 640.405C399.2 641.051 399.001 641.859 399.122 642.651C399.243 643.443 399.674 644.155 400.32 644.63C400.39 644.63 403.32 646.88 407.19 650.14L406.92 650.36C403.18 653.393 399.543 656.48 396.01 659.62C391.01 655.37 386.76 652.39 386.38 652.12C385.775 651.599 384.988 651.339 384.192 651.398C383.396 651.457 382.656 651.83 382.135 652.435C381.614 653.04 381.354 653.827 381.413 654.623C381.472 655.419 381.845 656.159 382.45 656.68C382.592 656.826 382.746 656.96 382.91 657.08C383 657.14 386.85 659.84 391.5 663.72C387.86 667.093 384.347 670.513 380.96 673.98C375.56 669.7 370.96 666.69 370.53 666.43C369.856 665.995 369.037 665.846 368.254 666.014C367.47 666.183 366.785 666.656 366.35 667.33C365.915 668.004 365.766 668.822 365.934 669.606C366.103 670.39 366.576 671.075 367.25 671.51C367.35 671.57 371.68 674.38 376.77 678.37C375.04 680.22 373.35 682.09 371.7 683.96C370.22 685.64 368.773 687.33 367.36 689.03C361.49 685.03 356.44 682.2 356.01 681.96C355.378 681.56 354.62 681.409 353.883 681.539C353.147 681.669 352.485 682.069 352.028 682.661C351.572 683.253 351.352 683.994 351.414 684.74C351.475 685.485 351.812 686.181 352.36 686.69C352.578 686.915 352.827 687.107 353.1 687.26C353.2 687.26 357.97 689.95 363.53 693.73C360.583 697.45 357.787 701.207 355.14 705C349.27 701.86 344.44 699.82 344.01 699.63C343.644 699.476 343.251 699.396 342.853 699.395C342.456 699.393 342.062 699.469 341.694 699.62C341.327 699.77 340.992 699.992 340.71 700.271C340.428 700.551 340.204 700.884 340.05 701.25C339.896 701.616 339.816 702.009 339.815 702.407C339.813 702.804 339.889 703.198 340.04 703.566C340.19 703.933 340.412 704.268 340.691 704.55C340.971 704.832 341.304 705.056 341.67 705.21C341.77 705.21 346.24 707.15 351.72 710.03C349.24 713.81 346.907 717.617 344.72 721.45C339.72 718.9 335.9 717.26 335.52 717.1C334.877 716.794 334.146 716.727 333.458 716.91C332.769 717.094 332.169 717.516 331.764 718.102C331.358 718.687 331.175 719.398 331.246 720.107C331.316 720.816 331.637 721.476 332.15 721.97C332.434 722.27 332.773 722.511 333.15 722.68C333.24 722.68 336.97 724.29 341.78 726.76C341.24 727.76 340.72 728.76 340.2 729.83C339.749 730.675 339.472 731.602 339.385 732.556C339.298 733.51 339.402 734.472 339.692 735.384C339.983 736.297 340.453 737.143 341.075 737.871C341.696 738.6 342.458 739.197 343.314 739.626C344.17 740.056 345.104 740.31 346.059 740.374C347.015 740.437 347.974 740.309 348.879 739.996C349.785 739.683 350.618 739.192 351.331 738.552C352.044 737.913 352.622 737.137 353.03 736.27C353.4 735.54 353.77 734.81 354.15 734.09C357.003 735.97 359.538 738.293 361.66 740.97C361.892 741.292 362.185 741.566 362.522 741.775C362.86 741.984 363.235 742.125 363.627 742.189C364.019 742.253 364.42 742.239 364.806 742.149C365.193 742.058 365.558 741.892 365.88 741.66C366.202 741.428 366.476 741.135 366.685 740.798C366.894 740.46 367.035 740.085 367.099 739.693C367.163 739.301 367.149 738.9 367.059 738.514C366.968 738.127 366.802 737.762 366.57 737.44L366.73 737.51Z" fill="white"/>
<path d="M778.81 809.2C759.47 887.43 690.35 904.3 653.68 902.93C601.32 900.98 560.68 890.84 511.68 821.71" stroke="black" stroke-width="14" stroke-miterlimit="10"/>
<path d="M509.07 807C516.36 802.23 513.22 791.47 516.28 783.35C520.71 771.57 530.92 792.49 524.42 808.42C521.92 814.54 521.42 818.17 519.96 824.64C519.05 828.55 513.3 828.31 510.42 828.59C502.48 821.59 501.98 822.67 497.47 815.77" fill="#010101"/>
<path d="M509.07 807C516.36 802.23 513.22 791.47 516.28 783.35C520.71 771.57 530.92 792.49 524.42 808.42C521.92 814.54 521.42 818.17 519.96 824.64C519.05 828.55 513.3 828.31 510.42 828.59C502.48 821.59 501.98 822.67 497.47 815.77" stroke="black" stroke-width="4" stroke-miterlimit="10"/>
<path d="M867.57 800.12C891.01 828.56 936.78 873.37 960.17 932.7C986 998.27 984.08 1068.38 985.4 1107" stroke="black" stroke-width="14" stroke-miterlimit="10"/>
<path d="M990.23 1106C1002.67 1131.33 1004.02 1153.78 993.92 1162.06C988.12 1166.82 977.24 1167.96 973.27 1163.54C967.73 1157.37 978.38 1143.47 973.27 1138.46C967.78 1133.08 953.9 1143.99 952.64 1141.27C947.35 1129.84 957.47 1131.51 969.58 1119.27C974.23 1114.57 976.04 1111.38 979.9 1105.99C982.24 1102.72 987.47 1105.14 990.23 1106Z" fill="#010101" stroke="black" stroke-width="4" stroke-miterlimit="10"/>
<defs>
<linearGradient id="paint0_linear_1_12169" x1="606.655" y1="644.004" x2="381.989" y2="754.989" gradientUnits="userSpaceOnUse">
<stop stop-color="#76342D"/>
<stop offset="0.36" stop-color="#67231A"/>
<stop offset="0.72" stop-color="#64231B"/>
<stop offset="0.96" stop-color="#5C231C"/>
</linearGradient>
<linearGradient id="paint1_linear_1_12169" x1="303.299" y1="746.491" x2="525.237" y2="1004.02" gradientUnits="userSpaceOnUse">
<stop stop-color="white"/>
<stop offset="1" stop-color="#231F20"/>
</linearGradient>
<linearGradient id="paint2_linear_1_12169" x1="484.981" y1="589.913" x2="706.919" y2="847.442" gradientUnits="userSpaceOnUse">
<stop stop-color="white"/>
<stop offset="1" stop-color="#231F20"/>
</linearGradient>
</defs>
</svg>
