<svg width="1660" height="1660" viewBox="0 0 1660 1660" fill="none" xmlns="http://www.w3.org/2000/svg">
<path d="M869.34 603.62C866.07 598.62 896.14 568.47 934.13 548.54C962.3 533.76 985.75 529.33 1001.83 526.42C1025.12 522.22 1060.1 515.9 1066.88 528.73C1071.97 538.35 1059.43 555.43 1051 563.59C1048.19 566.31 1040.06 573.59 1022 579.33C996.31 587.44 986.89 580.78 949 585.68C937.327 587.227 925.742 589.373 914.29 592.11C882.79 599.48 871.21 606.5 869.34 603.62Z" fill="#ECECEC"/>
<path d="M921.78 555.92C922.466 568.02 927.26 579.524 935.37 588.53Z" fill="url(#paint0_radial_1_22805)"/>
<path d="M921.78 555.92C922.466 568.02 927.26 579.524 935.37 588.53" stroke="#010101" stroke-width="4" stroke-miterlimit="10"/>
<path d="M1025 533.27C1023.81 530.088 1022.27 527.049 1020.41 524.21C1017.25 520.21 1006.55 517.03 963.13 534.21C952.44 538.45 939.65 546.68 923.19 555.08C923.19 556.02 921.77 554.84 921.82 555.79C921.82 555.79 922.15 557.52 922.15 557.56C922.9 567.81 926.54 577.1 935.42 588.5C939.42 587.81 943.68 587.15 948.16 586.57C986.01 581.69 995.46 588.31 1021.05 580.26C1027.78 569.087 1030.18 555.833 1027.79 543.01C1027.17 539.682 1026.24 536.421 1025 533.27V533.27Z" fill="url(#paint1_radial_1_22805)" stroke="#010101" stroke-width="4" stroke-miterlimit="10"/>
<path d="M952.13 540.72C950.129 545.59 949.577 550.934 950.54 556.11C951.358 560.566 953.256 564.752 956.069 568.304C958.881 571.855 962.521 574.663 966.671 576.48C970.82 578.298 975.352 579.07 979.869 578.729C984.386 578.388 988.751 576.945 992.581 574.525C996.41 572.105 999.588 568.783 1001.84 564.85C1004.08 560.917 1005.33 556.492 1005.47 551.964C1005.61 547.436 1004.64 542.943 1002.64 538.879C1000.64 534.814 997.673 531.302 994 528.65" fill="#010101"/>
<path d="M1005.47 559.22C1010.9 559.22 1015.3 554.819 1015.3 549.39C1015.3 543.961 1010.9 539.56 1005.47 539.56C1000.04 539.56 995.64 543.961 995.64 549.39C995.64 554.819 1000.04 559.22 1005.47 559.22Z" fill="#E4E4E4"/>
<path d="M868.46 604.55C865.19 599.55 895.26 569.4 933.25 549.47C961.42 534.68 984.88 530.25 1000.96 527.35C1024.25 523.14 1059.23 516.83 1065.96 529.66C1071.05 539.28 1058.51 556.35 1050.08 564.51C1047.27 567.23 1039.14 574.51 1021.08 580.26C995.39 588.36 985.97 581.71 948.08 586.6C936.42 588.149 924.845 590.285 913.4 593C881.91 600.41 870.33 607.43 868.46 604.55Z" stroke="#010101" stroke-width="4" stroke-miterlimit="10"/>
<path d="M868.82 601.39C869.14 601.73 888.73 572.94 930.44 550.98C978.68 525.57 1040.35 517.83 1070.98 526.34C1076.24 527.986 1081.77 528.588 1087.26 528.11C1104.81 526.45 1118.26 513.25 1127.65 500.69C1112.87 505.24 1097.68 508.322 1082.29 509.89C1062.29 511.89 1054.29 510.02 1032.41 511.95C1017.83 513.446 1003.35 515.86 989.07 519.18C927.77 533.47 868.31 600.84 868.82 601.39Z" fill="#010101"/>
<path d="M1032.72 575.84C1036.2 574.6 1058.82 566.37 1070.72 553.63C1070.72 553.63 1077.72 546.19 1079.45 536.33C1079.59 535.52 1080.25 528.11 1079.45 526.53C1077.28 522.21 1066.55 521.96 1064.15 524.81C1062.42 526.87 1066.98 534.38 1066.3 540.81C1065.93 543.869 1064.98 546.827 1063.48 549.52C1061.07 554.35 1057.81 557.58 1052.79 561.72C1046.47 566.934 1039.76 571.655 1032.72 575.84Z" fill="#010101"/>
<path d="M628.77 575.84C625.29 574.6 602.68 566.37 590.77 553.63C590.77 553.63 583.77 546.19 582.04 536.33C581.9 535.52 581.25 528.11 582.04 526.53C584.21 522.21 594.95 521.96 597.34 524.81C599.07 526.87 594.51 534.38 595.19 540.81C595.562 543.867 596.52 546.825 598.01 549.52C600.43 554.35 603.69 557.58 608.7 561.72C615.018 566.934 621.728 571.655 628.77 575.84Z" fill="#010101"/>
<path d="M790.66 602.86C793.93 597.81 763.86 567.71 725.87 547.78C697.7 533 674.25 528.57 658.17 525.66C634.88 521.46 599.9 515.14 593.17 527.97C588.08 537.6 600.62 554.67 609.05 562.83C611.86 565.55 619.99 572.83 638.05 578.57C663.74 586.68 673.16 580.02 711.05 584.92C722.722 586.467 734.308 588.613 745.76 591.35C777.21 598.73 788.79 605.75 790.66 602.86Z" fill="#ECECEC"/>
<path d="M738.22 555.16C737.534 567.26 732.74 578.764 724.63 587.77Z" fill="url(#paint2_radial_1_22805)"/>
<path d="M738.22 555.16C737.534 567.26 732.74 578.764 724.63 587.77" stroke="#010101" stroke-width="4" stroke-miterlimit="10"/>
<path d="M635.05 532.51C636.236 529.328 637.776 526.289 639.64 523.45C642.8 519.45 653.5 516.27 696.92 533.45C707.61 537.68 720.4 545.91 736.86 554.31C736.86 555.25 738.28 554.07 738.23 555.02C738.23 555.02 737.9 556.75 737.9 556.79C737.15 567.04 733.51 576.33 724.63 587.73C720.63 587.05 716.37 586.38 711.89 585.8C674.04 580.92 664.59 587.54 639 579.5C634.784 572.493 632.231 564.613 631.537 556.465C630.844 548.317 632.028 540.118 635 532.5L635.05 532.51Z" fill="url(#paint3_radial_1_22805)" stroke="#010101" stroke-width="4" stroke-miterlimit="10"/>
<path d="M707.87 540C709.871 544.87 710.423 550.214 709.46 555.39C708.648 559.852 706.753 564.045 703.941 567.603C701.13 571.161 697.487 573.975 693.334 575.796C689.182 577.618 684.645 578.392 680.123 578.051C675.601 577.709 671.232 576.263 667.4 573.839C663.567 571.414 660.389 568.086 658.143 564.147C655.897 560.207 654.653 555.776 654.52 551.243C654.387 546.71 655.368 542.214 657.379 538.149C659.389 534.084 662.367 530.575 666.05 527.93" fill="#010101"/>
<path d="M709.92 571.77C715.349 571.77 719.75 567.369 719.75 561.94C719.75 556.511 715.349 552.11 709.92 552.11C704.491 552.11 700.09 556.511 700.09 561.94C700.09 567.369 704.491 571.77 709.92 571.77Z" fill="#E4E4E4"/>
<path d="M791.54 603.79C794.81 598.79 764.74 568.64 726.75 548.71C698.58 533.92 675.12 529.49 659.04 526.59C635.75 522.39 600.77 516.07 594.04 528.9C588.95 538.52 601.49 555.59 609.92 563.75C612.73 566.47 620.86 573.75 638.92 579.5C664.61 587.6 674.03 580.95 711.92 585.84C723.591 587.397 735.176 589.544 746.63 592.27C778.09 599.65 789.67 606.67 791.54 603.79Z" stroke="#010101" stroke-width="4" stroke-miterlimit="10"/>
<path d="M791.18 600.63C790.86 600.98 771.27 572.18 729.56 550.22C681.32 524.81 619.65 517.08 589 525.59C583.739 527.226 578.21 527.827 572.72 527.36C555.17 525.69 541.72 512.49 532.33 499.93C547.111 504.48 562.304 507.562 577.69 509.13C597.64 511.13 605.69 509.26 627.57 511.19C642.154 512.686 656.63 515.1 670.91 518.42C732.23 532.71 791.69 600.08 791.18 600.63Z" fill="#010101"/>
<path opacity="0.2" d="M789.7 602.43C788.38 597.66 780.29 589.5 771.51 581.74C764.967 576.033 758.095 570.714 750.93 565.81C736.33 555.49 724.29 550.08 721.71 548.52C713.49 543.52 695.2 537.17 670.07 531.11C670.07 531.11 655.75 527.34 632.29 524.35C627.73 523.77 623.67 523.45 619.44 523.35C615.504 523.107 611.553 523.267 607.65 523.83C603.43 524.51 600.99 525.21 598.29 527.04C596.815 527.94 595.741 529.372 595.29 531.04C607.29 532.75 621.86 534.87 638.36 537.3C675.06 542.72 683.01 544.1 694.54 547.61C708.21 551.76 718.42 556.31 728.64 560.85C742.64 567.08 752.64 571.55 764.45 579.74C773.753 586.255 782.231 593.874 789.7 602.43V602.43Z" fill="#40403C"/>
<path opacity="0.2" d="M870.49 603.21C871.81 598.44 879.9 590.28 888.68 582.52C895.221 576.814 902.093 571.498 909.26 566.6C923.86 556.27 935.9 550.87 938.48 549.3C946.7 544.3 964.99 537.96 990.12 531.89C990.12 531.89 1004.44 528.13 1027.9 525.13C1032.46 524.55 1036.52 524.24 1040.75 524.13C1044.69 523.889 1048.64 524.046 1052.54 524.6C1056.76 525.28 1059.2 525.99 1061.9 527.81C1063.38 528.709 1064.45 530.141 1064.9 531.81C1052.9 533.52 1038.33 535.63 1021.83 538.07C985.13 543.48 977.18 544.87 965.65 548.37C951.98 552.53 941.76 557.07 931.55 561.62C917.55 567.85 907.55 572.32 895.74 580.51C886.434 587.025 877.955 594.648 870.49 603.21V603.21Z" fill="#40403C"/>
<defs>
<radialGradient id="paint0_radial_1_22805" cx="0" cy="0" r="1" gradientUnits="userSpaceOnUse" gradientTransform="translate(928.391 572.189) rotate(-10.5) scale(12.52)">
<stop stop-color="#F15B27"/>
<stop offset="0.16" stop-color="#EA5727"/>
<stop offset="0.38" stop-color="#D84D26"/>
<stop offset="0.65" stop-color="#BA3D25"/>
<stop offset="0.93" stop-color="#902624"/>
<stop offset="1" stop-color="#862024"/>
</radialGradient>
<radialGradient id="paint1_radial_1_22805" cx="0" cy="0" r="1" gradientUnits="userSpaceOnUse" gradientTransform="translate(975.2 554.78) scale(44.69)">
<stop stop-color="#F69320"/>
<stop offset="1" stop-color="#754D25"/>
</radialGradient>
<radialGradient id="paint2_radial_1_22805" cx="0" cy="0" r="1" gradientUnits="userSpaceOnUse" gradientTransform="translate(735.187 571.42) rotate(-169.592) scale(12.4748)">
<stop stop-color="#F15B27"/>
<stop offset="0.16" stop-color="#EA5727"/>
<stop offset="0.38" stop-color="#D84D26"/>
<stop offset="0.65" stop-color="#BA3D25"/>
<stop offset="0.93" stop-color="#902624"/>
<stop offset="1" stop-color="#862024"/>
</radialGradient>
<radialGradient id="paint3_radial_1_22805" cx="0" cy="0" r="1" gradientUnits="userSpaceOnUse" gradientTransform="translate(687.508 557.324) rotate(-169.592) scale(43.4427)">
<stop stop-color="#F69320"/>
<stop offset="1" stop-color="#754D25"/>
</radialGradient>
</defs>
</svg>
