<svg width="1660" height="1660" viewBox="0 0 1660 1660" fill="none" xmlns="http://www.w3.org/2000/svg">
<path d="M752 685.72C751.82 661.11 780.5 638.58 800.72 641.64C813.06 643.51 818.85 654.4 831.18 652.27C840.35 650.68 841.65 643.87 849.24 641.04C866.68 634.55 901.34 655.04 907.11 681.35C913.85 712.12 879.49 743.35 846.71 748.8C812.41 754.52 781 732.68 773.2 726C762.42 716.77 752.14 703 752 685.72Z" fill="url(#paint0_radial_1_22919)" stroke="#010101" stroke-width="4" stroke-miterlimit="10"/>
<path d="M753.47 684.23C766.778 688.245 780.573 690.418 794.47 690.69C797.47 690.69 803 688.12 809.23 690.23C815.23 692.23 815.66 695.85 822.14 698.07C823.8 698.64 831.25 700.95 837.82 697.61C843.15 694.9 842.82 691.06 847.5 688.38C853.69 684.86 860.88 687.74 865.5 688.85C873.62 690.8 886.3 690.3 905.62 678.24" fill="url(#paint1_radial_1_22919)"/>
<path d="M753.47 684.23C766.778 688.245 780.573 690.418 794.47 690.69C797.47 690.69 803 688.12 809.23 690.23C815.23 692.23 815.66 695.85 822.14 698.07C823.8 698.64 831.25 700.95 837.82 697.61C843.15 694.9 842.82 691.06 847.5 688.38C853.69 684.86 860.88 687.74 865.5 688.85C873.62 690.8 886.3 690.3 905.62 678.24" stroke="#010101" stroke-width="4" stroke-miterlimit="10"/>
<defs>
<radialGradient id="paint0_radial_1_22919" cx="0" cy="0" r="1" gradientUnits="userSpaceOnUse" gradientTransform="translate(830 694.79) scale(67.46)">
<stop stop-color="#931A1E"/>
<stop offset="1" stop-color="#7F143D"/>
</radialGradient>
<radialGradient id="paint1_radial_1_22919" cx="0" cy="0" r="1" gradientUnits="userSpaceOnUse" gradientTransform="translate(829.57 688.81) scale(54.32)">
<stop stop-color="#931A1E"/>
<stop offset="1" stop-color="#7F143D"/>
</radialGradient>
</defs>
</svg>
