<svg width="1660" height="1660" viewBox="0 0 1660 1660" fill="none" xmlns="http://www.w3.org/2000/svg">
<g opacity="0.7">
<path opacity="0.7" d="M1052.72 584.45C1050.96 582.74 1047.93 583.54 1046.33 585.07C1044.53 586.79 1043.52 589.61 1042.89 591.96C1041.71 596.38 1041.43 602.82 1045.52 605.91C1046.39 606.565 1047.4 607.021 1048.47 607.248C1049.54 607.474 1050.64 607.464 1051.71 607.22C1054.21 606.63 1055.88 604.74 1057.03 602.54C1058.18 600.34 1058.97 597.81 1057.95 595.54C1057.51 594.654 1056.84 593.899 1056.02 593.353C1055.19 592.807 1054.24 592.489 1053.25 592.43C1047.63 591.79 1043.82 596.43 1042.87 601.49C1042.66 602.63 1045.58 602.16 1045.77 601.14C1046.27 598.47 1047.77 594.47 1050.89 594.14C1051.57 594.059 1052.25 594.146 1052.89 594.392C1053.52 594.637 1054.08 595.035 1054.53 595.55C1055.03 596.259 1055.34 597.08 1055.45 597.939C1055.55 598.799 1055.45 599.671 1055.14 600.48C1054.68 602.241 1053.75 603.846 1052.46 605.13C1051.31 606.13 1049.85 605.76 1048.63 605.06C1045.42 603.22 1044.88 598.87 1045.13 595.54C1045.3 593.345 1045.8 591.19 1046.63 589.15C1047.04 588.15 1048.52 584.15 1050.03 585.64C1050.78 586.37 1053.52 585.27 1052.72 584.49V584.45Z" fill="#232620"/>
<path opacity="0.7" d="M1067.69 575.43C1065.87 573.67 1062.95 574.33 1061.28 575.98C1059.61 577.63 1058.5 580.55 1057.86 582.98C1056.66 587.48 1056.46 593.81 1060.49 596.98C1061.36 597.661 1062.37 598.141 1063.45 598.387C1064.53 598.632 1065.65 598.637 1066.73 598.4C1069.24 597.83 1070.89 595.82 1072.04 593.64C1073.19 591.46 1073.93 588.86 1072.93 586.57C1072.49 585.664 1071.82 584.887 1071 584.316C1070.17 583.744 1069.2 583.398 1068.2 583.31C1062.53 582.56 1058.78 587.44 1057.84 592.47C1057.59 593.83 1060.54 593.47 1060.77 592.21C1061.28 589.48 1062.77 585.72 1065.92 585.28C1066.58 585.179 1067.26 585.244 1067.89 585.471C1068.51 585.699 1069.08 586.08 1069.52 586.58C1070.01 587.275 1070.32 588.081 1070.43 588.926C1070.53 589.77 1070.42 590.627 1070.11 591.42C1069.64 593.161 1068.71 594.741 1067.41 595.99C1066.85 596.381 1066.18 596.59 1065.5 596.59C1064.82 596.59 1064.15 596.381 1063.59 595.99C1060.4 594.15 1059.87 589.92 1060.13 586.59C1060.29 584.363 1060.81 582.177 1061.68 580.12C1062.06 579.24 1063.61 575.32 1065.02 576.69C1065.9 577.54 1068.65 576.39 1067.69 575.45V575.43Z" fill="#232620"/>
<path opacity="0.7" d="M1082.87 565.29C1081.15 563.63 1078.06 564.55 1076.5 565.98C1074.67 567.65 1073.67 570.47 1073.05 572.8C1071.88 577.17 1071.54 583.66 1075.65 586.68C1076.53 587.313 1077.54 587.748 1078.6 587.955C1079.66 588.162 1080.76 588.137 1081.81 587.88C1082.97 587.558 1084.04 586.989 1084.95 586.212C1085.86 585.435 1086.6 584.469 1087.1 583.38C1088.23 581.38 1089.1 578.63 1088.1 576.38C1087.66 575.519 1087.01 574.788 1086.2 574.261C1085.39 573.734 1084.45 573.43 1083.49 573.38C1082.24 573.26 1080.99 573.393 1079.8 573.771C1078.6 574.149 1077.5 574.764 1076.55 575.58C1074.65 577.389 1073.42 579.778 1073.03 582.37C1072.86 583.31 1075.75 582.82 1075.92 581.95C1076.4 579.36 1077.86 575.11 1081.01 574.8C1081.7 574.74 1082.39 574.846 1083.02 575.109C1083.66 575.372 1084.23 575.784 1084.67 576.31C1085.17 577.031 1085.49 577.861 1085.6 578.732C1085.71 579.602 1085.61 580.487 1085.31 581.31C1084.83 583.056 1083.93 584.657 1082.68 585.97C1081.53 587.07 1080.03 586.66 1078.77 585.89C1075.59 583.95 1075.03 579.68 1075.27 576.29C1075.44 574.095 1075.94 571.94 1076.77 569.9C1077.17 568.843 1077.7 567.836 1078.33 566.9C1078.56 566.59 1078.93 566 1079.33 565.9C1079.08 565.98 1079.33 565.9 1079.46 565.9C1079.74 565.982 1079.99 566.142 1080.19 566.36C1080.84 566.99 1083.55 565.92 1082.9 565.29H1082.87Z" fill="#232620"/>
</g>
<g opacity="0.7">
<path opacity="0.7" d="M551 567.3C553.732 573.278 557.127 578.93 561.12 584.15C561.61 584.78 564.39 583.83 563.84 583.15C559.912 578.016 556.578 572.454 553.9 566.57C553.52 565.74 550.7 566.68 551 567.35V567.3Z" fill="#2B332A"/>
</g>
<g opacity="0.7">
<path opacity="0.7" d="M553.38 583.93C556.884 577.571 561.556 571.929 567.15 567.3C567.65 566.89 566.69 566.87 566.48 566.89C565.762 566.914 565.067 567.147 564.48 567.56C558.799 572.27 554.05 578.002 550.48 584.46C550.23 584.89 551.48 584.71 551.62 584.69C552.1 584.6 553.06 584.41 553.33 583.93H553.38Z" fill="#2B332A"/>
</g>
<g opacity="0.7">
<path opacity="0.7" d="M570.55 573.42C573.903 578.392 577.699 583.051 581.89 587.34C582.4 587.85 585.04 586.79 584.63 586.34C580.5 582.112 576.755 577.524 573.44 572.63C572.98 571.94 570.33 573.09 570.55 573.4V573.42Z" fill="#2B332A"/>
</g>
<g opacity="0.7">
<path opacity="0.7" d="M573 587L586.37 577C586.84 576.64 587.13 576 586.54 575.55C586.211 575.389 585.843 575.321 585.478 575.355C585.113 575.388 584.764 575.522 584.47 575.74L571.09 585.74C570.62 586.1 570.33 586.79 570.92 587.19C571.251 587.353 571.62 587.422 571.987 587.388C572.354 587.355 572.704 587.22 573 587Z" fill="#2B332A"/>
</g>
<g opacity="0.7">
<path opacity="0.7" d="M551.13 595.89C560.33 603.83 574.58 602.46 582.42 593.31C583.62 591.92 580.86 591.45 580 592.45C576.803 596.226 572.24 598.581 567.31 599C562.209 599.314 557.192 597.592 553.36 594.21C552.36 593.37 549.86 594.79 551.13 595.89V595.89Z" fill="#2B332A"/>
</g>
</svg>
