<svg width="1660" height="1660" viewBox="0 0 1660 1660" fill="none" xmlns="http://www.w3.org/2000/svg">
<path d="M344.92 833.81C343.98 859.06 349.36 883.81 364.19 905.24C368.796 911.93 374.233 918.009 380.37 923.33C390.37 931.88 402.73 937.81 416.25 941.18C413.79 939.496 411.512 937.563 409.45 935.41V935.41C361.4 909.77 376.67 850.56 376.67 850.56C381.89 875.21 396.82 870.13 396.82 870.13C399.491 868.187 401.898 865.905 403.98 863.34C409.63 857.03 414.91 850.21 419.98 843.41C425.05 836.61 432.79 828.7 435.98 820.33C434.52 824.42 432.53 828.61 433.59 832.81C435.25 839.4 440.81 836.3 443.88 832.81C451.56 824.13 451.13 811.57 450.65 800.71C451.06 805.81 455.22 809.37 458.38 812.96C465.51 821.03 470.38 830.82 473.98 840.91C474.77 843.12 482.23 866.57 480.6 866.91C490.93 864.91 498.85 851.46 499.88 841.85C499.63 844.12 502.27 848.06 502.8 850.43C505.37 861.92 501.9 871.82 496.23 881.65C495.32 883.24 494.4 884.82 493.62 886.49C493.01 887.84 492.76 889.41 492.27 890.82C496.66 889.38 502.05 889.13 506.39 887.26C513.05 884.38 520.31 877.47 520.11 869.7C520.84 883.7 518.03 900.7 510.92 912.84C505.6 921.95 497.01 929.07 487.06 934.25C485.613 935.816 484.033 937.254 482.34 938.55C497.47 933.62 511.43 925.67 522.43 914.73C547.95 889.39 554.77 848.28 548.73 813.99C546.33 800.35 540.06 787.1 540.37 773.08C540.01 789.58 539.37 817.65 520.79 824.77C517.2 805.97 524.73 787.56 525.68 768.91C526.68 749.58 516.95 733.73 512.5 715.46C517.5 735.85 529.76 768.21 502.25 778.05C504.96 777.05 499.25 749.05 498.5 746.05C488.72 708.8 454.94 664.05 411.05 672.35C415.678 671.654 420.399 672.69 424.31 675.26C443.31 689.08 443.93 719.35 433.05 738.26C429.61 744.26 414.87 755.5 416.57 762.68C414.91 755.68 413.83 748.52 411.52 741.54C409.71 736.07 405.6 728.68 406.6 722.76C404.03 737.95 405.17 753.56 401.94 768.66C398.94 782.54 391.28 792.94 382.21 803.51C379.9 806.2 372.12 814.08 373.12 818.82C372.94 818.58 372.75 818.35 372.56 818.11C370.01 813.28 364.56 806.67 360.66 799.7C354.93 789.45 354.86 775.26 355.44 763.81C354.56 781.22 349.33 798.26 346.75 815.46C345.799 821.538 345.188 827.664 344.92 833.81V833.81ZM524.48 893.53C524.48 893.53 524.9 892.58 525.68 890.97C526.08 890.18 526.54 889.2 527.12 888.12C527.7 887.04 528.12 885.72 528.77 884.33C529.07 883.64 529.4 882.94 529.7 882.19C530 881.44 530.28 880.64 530.58 879.84C530.88 879.04 531.2 878.22 531.53 877.38C531.86 876.54 532.1 875.65 532.39 874.76C532.68 873.87 532.99 872.98 533.29 872.07C533.59 871.16 533.8 870.21 534.08 869.27L534.89 866.43C535.11 865.43 535.33 864.49 535.56 863.52C536.07 861.6 536.39 859.63 536.8 857.71C537.21 855.79 537.44 853.87 537.8 852.03C538.16 850.19 538.35 848.38 538.51 846.66C538.67 844.94 538.92 843.33 539.04 841.82C539.16 840.31 539.28 838.93 539.4 837.7C539.52 836.47 539.57 835.39 539.61 834.5C539.65 833.61 539.7 832.91 539.72 832.43C539.74 831.95 539.72 831.69 539.72 831.69C539.72 831.69 539.8 831.93 539.91 832.4C540.02 832.87 540.2 833.56 540.36 834.4C540.52 835.24 540.72 836.4 540.89 837.61C541.06 838.82 541.23 840.26 541.3 841.81C541.3 842.58 541.39 843.38 541.44 844.22C541.49 845.06 541.44 845.91 541.44 846.8C541.44 847.69 541.44 848.6 541.38 849.53C541.32 850.46 541.3 851.41 541.25 852.38C541.2 853.35 541.06 854.32 540.96 855.32C540.86 856.32 540.76 857.32 540.57 858.32C540.25 860.32 539.92 862.38 539.41 864.39C539.16 865.39 538.92 866.39 538.67 867.39C538.42 868.39 538.06 869.39 537.75 870.34C537.44 871.29 537.16 872.28 536.75 873.21C536.34 874.14 535.99 875.06 535.63 875.96C535.27 876.86 534.92 877.76 534.49 878.59L533.23 881.03C532.81 881.81 532.41 882.58 532.01 883.32C531.61 884.06 531.12 884.7 530.7 885.32C529.86 886.62 529.08 887.8 528.33 888.81C527.58 889.82 526.83 890.63 526.25 891.32C525.18 892.79 524.48 893.53 524.48 893.53ZM460.76 694.22C460.76 694.22 461.76 695.15 463.3 696.9C464.84 698.65 467.04 701.22 469.44 704.46C470.64 706.08 471.92 707.85 473.18 709.78C474.44 711.71 475.79 713.78 477.06 715.94C478.33 718.1 479.61 720.41 480.81 722.78C482.01 725.15 483.16 727.6 484.21 730.09C485.26 732.58 486.21 735.09 487.05 737.66C487.49 738.92 487.84 740.2 488.22 741.46C488.6 742.72 488.89 743.98 489.22 745.21C489.55 746.44 489.77 747.68 489.97 748.9C490.17 750.12 490.36 751.29 490.5 752.46C490.64 753.63 490.77 754.75 490.83 755.85C490.89 756.95 490.92 758.01 490.96 759.03C491 760.05 490.96 761.03 490.91 761.95C490.86 762.87 490.77 763.76 490.71 764.58C490.71 764.99 490.63 765.39 490.6 765.77C490.57 766.15 490.48 766.52 490.42 766.87L490.09 768.8C489.86 769.96 489.58 770.85 489.44 771.46L489.18 772.39L489.29 768.72C489.29 768.14 489.29 767.5 489.29 766.8C489.29 766.45 489.29 766.09 489.29 765.71C489.29 765.33 489.29 764.95 489.21 764.55C489.14 763.75 489.13 762.9 489.01 762C488.89 761.1 488.81 760.17 488.7 759.2C488.59 758.23 488.38 757.2 488.21 756.2C488.04 755.2 487.79 754.09 487.58 752.99C487.37 751.89 487.05 750.77 486.77 749.62C486.49 748.47 486.14 747.33 485.82 746.14C485.5 744.95 485.08 743.78 484.71 742.58C484.34 741.38 483.89 740.17 483.45 738.96C482.56 736.54 481.63 734.09 480.59 731.68C479.55 729.27 478.48 726.87 477.4 724.52C476.83 723.35 476.28 722.19 475.73 721.04C475.18 719.89 474.59 718.79 474.03 717.68C472.89 715.49 471.8 713.35 470.71 711.36C469.62 709.37 468.56 707.48 467.59 705.75C466.62 704.02 465.69 702.43 464.88 701.03L462.74 697.4L460.76 694.22ZM435.89 820.32C436.21 819.44 436.49 818.56 436.72 817.68C436.84 817.22 436.95 816.76 437.03 816.3C436.95 816.76 436.84 817.23 436.72 817.68C436.495 818.575 436.218 819.457 435.89 820.32Z" fill="#F99E3F"/>
<path d="M435.89 820.32C436.21 819.44 436.49 818.56 436.72 817.68C436.495 818.575 436.218 819.457 435.89 820.32Z" fill="#F4793B"/>
<path d="M436.72 817.68C436.84 817.22 436.95 816.76 437.03 816.3C437 816.76 436.84 817.23 436.72 817.68Z" fill="#F4793B"/>
<path d="M491.28 928.47C490.061 930.541 488.616 932.469 486.97 934.22C496.92 929.04 505.51 921.92 510.83 912.81C517.94 900.66 520.75 883.63 520.02 869.67C520.22 877.44 512.96 884.35 506.3 887.23C501.96 889.1 496.57 889.35 492.18 890.79C492.67 889.38 492.92 887.79 493.53 886.46C494.31 884.79 495.23 883.21 496.14 881.62C501.81 871.79 505.28 861.89 502.71 850.4C502.18 848.03 499.54 844.09 499.79 841.82C498.79 851.43 490.79 864.9 480.51 866.88C482.14 866.57 474.68 843.12 473.89 840.88C470.29 830.79 465.42 821 458.29 812.93C455.13 809.34 450.97 805.78 450.56 800.68C451.04 811.54 451.47 824.1 443.79 832.78C440.72 836.26 435.16 839.36 433.5 832.78C432.44 828.58 434.43 824.39 435.89 820.3C432.73 828.67 424.89 836.64 419.89 843.38C414.89 850.12 409.6 857 404 863.33C401.918 865.894 399.511 868.177 396.84 870.12C396.84 870.12 381.91 875.2 376.69 850.55C376.69 850.55 361.42 909.76 409.47 935.4C390.57 915.61 398.38 885.4 398.38 885.4C402.01 902.46 412.38 898.94 412.38 898.94C414.226 897.597 415.89 896.021 417.33 894.25C421.26 889.88 424.91 885.15 428.39 880.44C431.87 875.73 437.27 870.25 439.46 864.44C438.46 867.27 437.06 870.17 437.81 873.09C438.95 877.65 442.81 875.5 444.93 873.09C450.24 867.09 449.93 858.37 449.63 850.86C449.91 854.39 452.77 856.86 454.97 859.34C459.91 864.93 463.28 871.71 465.77 878.7C466.32 880.22 471.49 896.47 470.37 896.7C477.51 895.34 482.99 886 483.71 879.35C483.54 880.93 485.37 883.65 485.71 885.35C487.48 893.35 485.08 900.16 481.16 906.96C480.52 908.06 479.89 909.17 479.35 910.32C478.92 911.25 478.76 912.32 478.41 913.32C481.41 912.32 485.19 912.16 488.19 910.86C492.8 908.86 497.83 904.08 497.7 898.7C498.15 908.26 496.2 920.06 491.28 928.47ZM440.17 861.63C440.11 861.94 440.03 862.27 439.95 862.63C439.797 863.251 439.606 863.862 439.38 864.46C439.59 863.85 439.79 863.24 439.95 862.63C440 862.27 440.11 861.94 440.17 861.63V861.63Z" fill="#F4793B"/>
<path d="M440 862.58C439.847 863.201 439.656 863.812 439.43 864.41C439.59 863.8 439.79 863.19 440 862.58Z" fill="#F05338"/>
<path d="M409.42 935.4C390.52 915.61 398.33 885.4 398.33 885.4C401.96 902.46 412.33 898.94 412.33 898.94C414.176 897.597 415.84 896.021 417.28 894.25C421.21 889.88 424.86 885.15 428.34 880.44C431.82 875.73 437.22 870.25 439.41 864.44C438.41 867.27 437.01 870.17 437.76 873.09C438.9 877.65 442.76 875.5 444.88 873.09C450.19 867.09 449.88 858.37 449.58 850.86C449.86 854.39 452.72 856.86 454.92 859.34C459.86 864.93 463.23 871.71 465.72 878.7C466.27 880.22 471.44 896.47 470.32 896.7C477.46 895.34 482.94 886 483.66 879.35C483.49 880.93 485.32 883.65 485.66 885.35C487.43 893.35 485.03 900.16 481.11 906.96C480.47 908.06 479.84 909.17 479.3 910.32C478.87 911.25 478.71 912.32 478.36 913.32C481.36 912.32 485.14 912.16 488.14 910.86C492.75 908.86 497.78 904.08 497.65 898.7C498.15 908.37 496.2 920.17 491.28 928.58C490.062 930.651 488.616 932.579 486.97 934.33C485.523 935.896 483.943 937.334 482.25 938.63C471.325 942.183 459.952 944.176 448.47 944.55C446.61 944.64 444.78 944.66 443 944.63H442.33C433.538 944.522 424.787 943.404 416.25 941.3C413.79 939.616 411.512 937.683 409.45 935.53L409.42 935.4Z" fill="#F05338"/>
<path d="M463.3 696.9C464.86 698.66 467.04 701.22 469.44 704.46C470.64 706.08 471.92 707.85 473.18 709.78C474.44 711.71 475.79 713.78 477.06 715.94C478.33 718.1 479.61 720.41 480.81 722.78C482.01 725.15 483.16 727.6 484.21 730.09C485.26 732.58 486.21 735.09 487.05 737.66C487.49 738.92 487.84 740.2 488.22 741.46C488.6 742.72 488.89 743.98 489.22 745.21C489.55 746.44 489.77 747.68 489.97 748.9C490.17 750.12 490.36 751.29 490.5 752.46C490.64 753.63 490.77 754.75 490.83 755.85C490.89 756.95 490.92 758.01 490.96 759.03C491 760.05 490.96 761.03 490.91 761.95C490.86 762.87 490.77 763.76 490.71 764.58C490.71 764.99 490.63 765.39 490.6 765.77C490.57 766.15 490.48 766.52 490.42 766.87L490.09 768.8C489.86 769.96 489.58 770.85 489.44 771.46L489.18 772.39L489.29 768.72C489.29 768.14 489.29 767.5 489.29 766.8C489.29 766.45 489.29 766.09 489.29 765.71C489.29 765.33 489.29 764.95 489.21 764.55C489.14 763.75 489.13 762.9 489.01 762C488.89 761.1 488.81 760.17 488.7 759.2C488.59 758.23 488.38 757.2 488.21 756.2C488.04 755.2 487.79 754.09 487.58 752.99C487.37 751.89 487.05 750.77 486.77 749.62C486.49 748.47 486.14 747.33 485.82 746.14C485.5 744.95 485.08 743.78 484.71 742.58C484.34 741.38 483.89 740.17 483.45 738.96C482.56 736.54 481.63 734.09 480.59 731.68C479.55 729.27 478.48 726.87 477.4 724.52C476.83 723.35 476.28 722.19 475.73 721.04C475.18 719.89 474.59 718.79 474.03 717.68C472.89 715.49 471.8 713.35 470.71 711.36C469.62 709.37 468.56 707.48 467.59 705.75C466.62 704.02 465.69 702.43 464.88 701.03L462.74 697.4L460.84 694.25C460.84 694.25 461.73 695.15 463.3 696.9Z" fill="#FBAE40"/>
<path d="M527.12 888.12C527.61 886.99 528.12 885.72 528.77 884.33C529.07 883.64 529.4 882.94 529.7 882.19C530 881.44 530.28 880.64 530.58 879.84C530.88 879.04 531.2 878.22 531.53 877.38C531.86 876.54 532.1 875.65 532.39 874.76C532.68 873.87 532.99 872.98 533.29 872.07C533.59 871.16 533.8 870.21 534.08 869.27L534.89 866.43C535.11 865.43 535.33 864.49 535.56 863.52C536.07 861.6 536.39 859.63 536.8 857.71C537.21 855.79 537.44 853.87 537.8 852.03C538.16 850.19 538.35 848.38 538.51 846.66C538.67 844.94 538.92 843.33 539.04 841.82C539.16 840.31 539.28 838.93 539.4 837.7C539.52 836.47 539.57 835.39 539.61 834.5C539.65 833.61 539.7 832.91 539.72 832.43C539.74 831.95 539.72 831.69 539.72 831.69C539.72 831.69 539.8 831.93 539.91 832.4C540.02 832.87 540.2 833.56 540.36 834.4C540.52 835.24 540.72 836.4 540.89 837.61C541.06 838.82 541.23 840.26 541.3 841.81C541.3 842.58 541.39 843.38 541.44 844.22C541.49 845.06 541.44 845.91 541.44 846.8C541.44 847.69 541.44 848.6 541.38 849.53C541.32 850.46 541.3 851.41 541.25 852.38C541.2 853.35 541.06 854.32 540.96 855.32C540.86 856.32 540.76 857.32 540.57 858.32C540.25 860.32 539.92 862.38 539.41 864.39C539.16 865.39 538.92 866.39 538.67 867.39C538.42 868.39 538.06 869.39 537.75 870.34C537.44 871.29 537.16 872.28 536.75 873.21C536.34 874.14 535.99 875.06 535.63 875.96C535.27 876.86 534.92 877.76 534.49 878.59L533.23 881.03C532.81 881.81 532.41 882.58 532.01 883.32C531.61 884.06 531.12 884.7 530.7 885.32C529.86 886.62 529.08 887.8 528.33 888.81C527.58 889.82 526.83 890.63 526.25 891.32C525.08 892.69 524.38 893.43 524.38 893.43C524.38 893.43 524.8 892.48 525.58 890.87C526.08 890.18 526.54 889.2 527.12 888.12Z" fill="#FBAE40"/>
<path d="M783.17 807.5C759.72 835.94 740.7 880.74 697.17 927.29C634.87 993.85 514.79 995.97 476.89 979.82" stroke="black" stroke-width="14" stroke-miterlimit="10"/>
<path d="M482 985.87C459.07 1002.31 437.15 1007.35 427.31 998.76C421.66 993.82 418.74 983.28 422.45 978.63C427.62 972.15 443.08 980.37 447.19 974.49C451.58 968.19 439.85 978.6 438.19 972C435.19 959.77 451.4 957.77 465.46 967.69C470.86 971.5 474.3 972.77 480.26 975.69C483.89 977.45 482.37 983 482 985.87Z" fill="#010101" stroke="black" stroke-width="4" stroke-miterlimit="10"/>
<path d="M447.57 973.3C451.97 967.01 440.23 977.41 438.57 970.81C435.57 958.59 451.78 956.58 465.84 966.5C471.24 970.31 474.68 971.58 480.64 974.5C484.25 976.26 482.72 981.82 482.34 984.68" fill="#010101"/>
<path d="M447.57 973.3C451.97 967.01 440.23 977.41 438.57 970.81C435.57 958.59 451.78 956.58 465.84 966.5C471.24 970.31 474.68 971.58 480.64 974.5C484.25 976.26 482.72 981.82 482.34 984.68" stroke="black" stroke-width="4" stroke-miterlimit="10"/>
<path d="M867.57 800.12C891.01 828.56 936.78 873.37 960.17 932.7C986 998.27 984.08 1068.38 985.4 1107" stroke="black" stroke-width="14" stroke-miterlimit="10"/>
<path d="M990.23 1106C1002.67 1131.33 1004.02 1153.78 993.92 1162.06C988.12 1166.82 977.24 1167.96 973.27 1163.54C967.73 1157.37 978.38 1143.47 973.27 1138.46C967.78 1133.08 953.9 1143.99 952.64 1141.27C947.35 1129.84 957.47 1131.51 969.58 1119.27C974.23 1114.57 976.04 1111.38 979.9 1105.99C982.24 1102.72 987.47 1105.14 990.23 1106Z" fill="#010101" stroke="black" stroke-width="4" stroke-miterlimit="10"/>
</svg>
