<svg width="1660" height="1660" viewBox="0 0 1660 1660" fill="none" xmlns="http://www.w3.org/2000/svg">
<path d="M279.3 887.22C279.24 885.54 315.72 882.52 346.3 882.22C381.83 881.9 420.9 885.22 420.85 886.97C420.72 890.35 279.41 890.52 279.3 887.22Z" fill="#D8D8D8" stroke="#010101" stroke-width="4" stroke-miterlimit="10"/>
<path d="M317.57 891C306.02 869.57 310.42 840.6 324.26 821.13C338.47 801.13 352.96 804.79 360.68 787.68C372.92 760.56 346.45 729.31 351.76 725.99C357.07 722.67 390.92 748.88 389.67 778.77C388.72 801.44 368.47 804.19 365.88 830.05C363.42 854.61 380.61 862.87 374.8 885.8C371.85 897.46 362.87 913.22 349.53 914.8C331.89 916.9 318.5 892.76 317.57 891Z" fill="url(#paint0_linear_1_36153)"/>
<path d="M461.43 976.36C488.09 981.36 445.35 979.08 443.96 972.43C441.4 960.1 457.67 958.68 471.37 969.1C476.63 973.1 480.02 974.49 485.88 977.61C489.42 979.51 487.7 985.01 487.21 987.85" fill="#010101"/>
<path d="M461.43 976.36C488.09 981.36 445.35 979.08 443.96 972.43C441.4 960.1 457.67 958.68 471.37 969.1C476.63 973.1 480.02 974.49 485.88 977.61C489.42 979.51 487.7 985.01 487.21 987.85" stroke="black" stroke-width="4" stroke-miterlimit="10"/>
<path d="M290.8 1077.51C290.799 1078.12 290.917 1078.72 291.149 1079.28C291.38 1079.84 291.721 1080.35 292.15 1080.78C292.579 1081.21 293.089 1081.55 293.65 1081.79C294.211 1082.02 294.812 1082.14 295.42 1082.14H405.22C406.448 1082.14 407.626 1081.65 408.494 1080.78C409.362 1079.92 409.85 1078.74 409.85 1077.51V1072.85H290.85L290.8 1077.51Z" fill="#92949B" stroke="#010101" stroke-width="4" stroke-miterlimit="10"/>
<path d="M418.51 886.61H388.35C384.295 886.608 380.242 886.822 376.21 887.25L358.14 889.17C347.864 890.27 337.51 890.46 327.2 889.74L282.14 886.61C281.212 886.609 280.294 886.796 279.44 887.158C278.587 887.52 277.815 888.051 277.17 888.718C276.526 889.386 276.023 890.176 275.692 891.043C275.36 891.909 275.206 892.833 275.24 893.76L280.76 932.61C281.722 939.348 281.987 946.167 281.55 952.96L279.32 987.66C279.001 992.659 279.091 997.676 279.59 1002.66L282.31 1029.81C282.722 1033.94 282.819 1038.1 282.6 1042.25L281.35 1066.17C281.417 1067.96 282.175 1069.65 283.463 1070.89C284.751 1072.13 286.471 1072.83 288.26 1072.83H412.39C414.179 1072.83 415.899 1072.14 417.186 1070.89C418.473 1069.65 419.228 1067.96 419.29 1066.17L419.74 1053.63L421.92 992.07L421.55 944.91L425.41 893.74C425.441 892.815 425.285 891.893 424.952 891.029C424.619 890.165 424.116 889.377 423.472 888.711C422.828 888.046 422.057 887.517 421.205 887.156C420.352 886.795 419.436 886.609 418.51 886.61V886.61Z" fill="#EDF2F5" stroke="#010101" stroke-width="4" stroke-miterlimit="10"/>
<path d="M439.73 919.4C435.098 919.39 430.508 920.273 426.21 922L425.51 941.73C428.273 938.901 431.816 936.96 435.687 936.154C439.558 935.348 443.582 935.715 447.244 937.207C450.906 938.698 454.04 941.248 456.246 944.529C458.453 947.811 459.631 951.676 459.63 955.63V1003.76C459.63 1008.07 458.232 1012.26 455.645 1015.71C453.058 1019.15 449.422 1021.66 445.285 1022.86C441.147 1024.06 436.731 1023.89 432.702 1022.37C428.672 1020.84 425.246 1018.05 422.94 1014.41L422.19 1035.48C427.708 1038.54 433.929 1040.1 440.237 1040.02C446.545 1039.93 452.722 1038.2 458.156 1035C463.59 1031.79 468.094 1027.23 471.222 1021.75C474.35 1016.27 475.993 1010.07 475.99 1003.76V955.66C475.979 946.046 472.156 936.83 465.358 930.032C458.56 923.234 449.343 919.411 439.73 919.4V919.4Z" fill="#CEB3BB" stroke="#010101" stroke-width="4" stroke-miterlimit="10"/>
<path d="M343.87 960.45H306.6C304.684 960.45 303.13 962.003 303.13 963.92V1008.7C303.13 1010.62 304.684 1012.17 306.6 1012.17H343.87C345.786 1012.17 347.34 1010.62 347.34 1008.7V963.92C347.34 962.003 345.786 960.45 343.87 960.45Z" fill="#F2D290" stroke="#010101" stroke-width="4" stroke-miterlimit="10"/>
<path d="M325.23 963.84C324.534 963.84 323.853 964.047 323.274 964.433C322.695 964.82 322.244 965.37 321.978 966.013C321.711 966.656 321.642 967.364 321.778 968.047C321.913 968.73 322.249 969.357 322.741 969.849C323.233 970.341 323.86 970.677 324.543 970.812C325.226 970.948 325.934 970.879 326.577 970.612C327.22 970.346 327.77 969.895 328.157 969.316C328.544 968.737 328.75 968.056 328.75 967.36C328.747 966.427 328.376 965.534 327.716 964.874C327.056 964.214 326.163 963.843 325.23 963.84V963.84Z" fill="#D35342" stroke="#010101" stroke-width="4" stroke-miterlimit="10"/>
<path d="M323.45 966.31C323.443 966.53 323.481 966.75 323.561 966.955C323.641 967.161 323.762 967.348 323.916 967.506C324.07 967.663 324.254 967.788 324.458 967.873C324.661 967.958 324.879 968.001 325.1 968H325.36C325.576 968.001 325.791 967.96 325.991 967.878C326.191 967.796 326.373 967.675 326.526 967.523C326.679 967.371 326.801 967.189 326.884 966.99C326.967 966.79 327.01 966.576 327.01 966.36L327.2 889.79L323.45 889.65V966.31Z" fill="#647A8A" stroke="#010101" stroke-width="4" stroke-miterlimit="10"/>
<path opacity="0.67" d="M416.73 888.64H382.64L386.64 917.75C387.453 923.741 387.547 929.807 386.92 935.82L383.34 970.24C382.9 974.446 382.68 978.672 382.68 982.9L386.46 1030.11C387.231 1039.69 386.719 1049.33 384.94 1058.77L382.68 1070.77L412.44 1070.95C415.94 1070.95 417.44 1068.07 417.51 1064.43L420.01 988.8L419.42 945.64C419.42 944.64 419.48 943.64 419.56 942.71L423.27 895.59C423.31 894.701 423.172 893.813 422.862 892.979C422.553 892.144 422.08 891.38 421.47 890.732C420.86 890.084 420.126 889.565 419.312 889.206C418.498 888.846 417.62 888.654 416.73 888.64V888.64Z" fill="#E1E6E9"/>
<path d="M783.17 807.5C759.72 835.94 740.7 880.74 697.17 927.29C634.87 993.85 514.79 995.97 476.89 979.82" stroke="black" stroke-width="14" stroke-miterlimit="10"/>
<path d="M461.49 969.75C458.63 964.75 449.95 960.75 445.21 963.9C443.15 965.28 442.73 969.16 442.73 971.6C442.73 989.81 455.04 990.14 459.63 986.31C462.38 984 463.51 973.26 461.49 969.75Z" fill="#010101" stroke="black" stroke-width="4" stroke-miterlimit="10"/>
<path d="M477.73 971C479.63 976.92 487.46 977.78 487.99 982C488.12 983.08 487.83 984.7 485.65 986.84C481.315 982.92 477.186 978.778 473.28 974.43C469.7 970.43 467.04 967.1 465.18 962.43C462.55 955.83 464.27 953.53 464.77 952.94C465.228 952.37 465.802 951.904 466.454 951.571C467.105 951.238 467.819 951.047 468.55 951.01C473 951.19 476.78 960.01 477.46 967.01C477.72 969.66 477.29 969.6 477.73 971Z" fill="#010101" stroke="black" stroke-width="4" stroke-miterlimit="10"/>
<path d="M361.07 938.05C360.69 937.82 360.32 937.58 359.97 937.33L359.5 936.98L359.4 936.9C359.319 936.842 359.242 936.779 359.17 936.71C358.496 936.148 357.861 935.54 357.27 934.89C357 934.59 356.73 934.27 356.47 933.94C356.6 934.11 356.47 933.94 356.4 933.84L356.23 933.61C356.1 933.43 355.97 933.25 355.85 933.06C355.37 932.33 354.939 931.568 354.56 930.78L352.87 932.98C353.49 933.19 354.11 933.42 354.72 933.67L354.97 933.77L355.42 933.97L356.42 934.43C357.622 935.026 358.788 935.694 359.91 936.43C360.139 936.561 360.398 936.63 360.662 936.63C360.925 936.629 361.184 936.56 361.413 936.428C361.641 936.297 361.832 936.108 361.964 935.88C362.097 935.652 362.168 935.394 362.17 935.13L362.03 932.68C362.03 932.31 361.98 931.94 361.97 931.57C361.965 931.504 361.965 931.437 361.97 931.37C361.97 931.19 361.97 931.19 361.97 931.37C361.899 931.509 361.796 931.628 361.67 931.72C361.566 931.791 361.445 931.832 361.32 931.84C361.12 931.84 361.07 931.79 361.19 931.84C361.31 931.89 361.26 931.84 361.08 931.79C361.23 931.88 361.21 931.87 361.08 931.79C360.95 931.71 360.96 931.61 361.02 931.71C361.08 931.81 361.07 931.79 361.02 931.71C361.02 931.88 361.07 931.89 361.02 931.71C361.025 931.783 361.025 931.857 361.02 931.93C361.024 932.562 360.939 933.191 360.77 933.8C360.628 934.505 360.441 935.199 360.21 935.88C360.09 936.25 359.95 936.61 359.81 936.97C359.781 937.06 359.744 937.147 359.7 937.23L359.43 937.83L359.2 938.28L359.06 938.55L359.13 938.47C359.258 938.358 359.415 938.284 359.582 938.256C359.75 938.228 359.922 938.246 360.08 938.31C360.19 938.4 360.18 938.38 360.08 938.31C360.22 938.53 359.95 938.14 359.95 938.14C359.854 937.989 359.767 937.832 359.69 937.67C359.64 937.58 359.64 937.58 359.69 937.67C359.69 937.58 359.62 937.48 359.58 937.38C359.54 937.28 359.49 937.09 359.46 936.94L359.4 936.64C359.4 936.793 359.4 936.773 359.4 936.58L356.84 937.65C357.576 938.207 358.194 938.904 358.66 939.7C358.76 939.87 358.892 940.019 359.049 940.138C359.207 940.257 359.386 940.344 359.577 940.393C359.768 940.443 359.966 940.454 360.162 940.427C360.357 940.4 360.545 940.335 360.715 940.235C360.885 940.135 361.034 940.003 361.153 939.846C361.272 939.688 361.358 939.509 361.408 939.318C361.458 939.128 361.469 938.929 361.442 938.733C361.415 938.538 361.35 938.35 361.25 938.18C360.646 937.168 359.871 936.268 358.96 935.52C358.745 935.316 358.476 935.179 358.186 935.124C357.895 935.069 357.594 935.099 357.32 935.21C357.049 935.322 356.817 935.512 356.653 935.756C356.489 936 356.401 936.287 356.4 936.58C356.463 937.508 356.715 938.413 357.14 939.24C357.334 939.707 357.625 940.126 357.994 940.471C358.363 940.816 358.802 941.078 359.28 941.24C360.56 941.53 361.41 940.68 361.93 939.63C362.352 938.795 362.719 937.933 363.03 937.05C363.303 936.268 363.527 935.47 363.7 934.66C363.893 933.786 363.993 932.895 364 932C364.023 931.484 363.916 930.971 363.691 930.507C363.466 930.043 363.129 929.642 362.71 929.34C362.326 929.084 361.878 928.937 361.417 928.916C360.955 928.895 360.496 929 360.09 929.22C359.01 929.83 358.93 931.03 358.99 932.13L359.17 935.19L361.43 933.9C359.019 932.326 356.418 931.063 353.69 930.14C353.405 930.062 353.104 930.07 352.824 930.165C352.544 930.259 352.299 930.435 352.12 930.67C351.941 930.907 351.835 931.191 351.813 931.487C351.792 931.784 351.857 932.08 352 932.34C353.669 935.796 356.301 938.695 359.58 940.69C359.924 940.887 360.332 940.941 360.716 940.84C361.099 940.739 361.428 940.491 361.63 940.15C361.826 939.807 361.88 939.4 361.781 939.018C361.682 938.635 361.438 938.306 361.1 938.1L361.07 938.05Z" fill="#FCDCE5"/>
<path d="M373.9 999.23C374.12 999.51 373.9 999.23 373.9 999.15L373.69 998.85C373.57 998.67 373.45 998.48 373.34 998.29C373.07 997.914 372.857 997.499 372.71 997.06C372.71 997.25 372.71 997.18 372.71 997.06C372.71 996.94 372.62 996.84 372.58 996.73C372.54 996.62 372.43 996.31 372.37 996.09C372.241 995.646 372.137 995.195 372.06 994.74C372.06 994.57 372 994.53 372.06 994.74C372.045 994.624 372.045 994.506 372.06 994.39C372.065 994.29 372.065 994.19 372.06 994.09L371.93 994.58C371.832 994.753 371.685 994.894 371.506 994.983C371.328 995.072 371.128 995.106 370.93 995.08C370.8 995.08 370.49 994.93 370.78 995.08C370.92 995.14 370.61 994.88 370.78 995.08L371 995.34C371 995.34 371.27 995.7 371.07 995.42C371.341 995.781 371.585 996.162 371.8 996.56C371.92 996.78 372.02 997 372.13 997.22C372.02 996.98 372.13 997.22 372.13 997.32L372.25 997.67C372.354 998.015 372.576 998.312 372.879 998.508C373.181 998.704 373.543 998.786 373.9 998.74C374.259 998.696 374.589 998.522 374.829 998.251C375.068 997.98 375.2 997.631 375.2 997.27C375.2 997.04 375.2 996.81 375.2 996.58C375.2 996.35 375.2 996.35 375.2 996.23C375.2 996.11 375.2 996.08 375.2 996V996.18C375.204 996.067 375.228 995.955 375.27 995.85C375.27 995.78 375.32 995.71 375.34 995.64L375.28 995.8C375.311 995.733 375.348 995.67 375.39 995.61L375.29 995.73C375.318 995.689 375.352 995.652 375.39 995.62L375.21 995.75C375.283 995.721 375.35 995.681 375.41 995.63C375.17 995.73 375.12 995.75 375.27 995.7H375.35C375.61 995.6 375 995.7 375.26 995.7C375.337 995.705 375.413 995.705 375.49 995.7C375.22 995.65 375.16 995.65 375.31 995.7H375.38C375.11 995.7 375.11 995.55 375.28 995.7C375.08 995.53 375.03 995.49 375.14 995.6L374.99 995.4C375.06 995.53 375.04 995.48 374.93 995.24C374.93 995.03 374.93 994.94 374.93 995.24L374.87 995.42C374.93 995.27 374.94 995.25 374.87 995.35C374.8 995.45 374.66 995.84 374.55 996.08C374.32 996.56 374.09 997.08 373.84 997.5C373.34 998.45 372.79 999.38 372.21 1000.29C372.027 1000.63 371.98 1001.02 372.079 1001.39C372.177 1001.77 372.414 1002.09 372.74 1002.29C373.086 1002.48 373.493 1002.54 373.876 1002.44C374.26 1002.34 374.591 1002.1 374.8 1001.76C375.534 1000.61 376.202 999.424 376.8 998.2C377.5 996.79 378.61 994.89 377.28 993.5C376.8 993.045 376.179 992.769 375.52 992.718C374.861 992.667 374.204 992.844 373.66 993.22C372.33 994.14 372.14 995.8 372.22 997.3L375.16 996.9C374.729 995.568 374.05 994.33 373.16 993.25C372.915 992.926 372.602 992.659 372.242 992.469C371.883 992.279 371.486 992.17 371.08 992.15C370.56 992.166 370.067 992.383 369.704 992.756C369.342 993.13 369.14 993.63 369.14 994.15C369.146 994.808 369.233 995.463 369.4 996.1C369.529 996.692 369.703 997.274 369.92 997.84C370.409 999.124 371.083 1000.33 371.92 1001.42C372.201 1001.7 372.583 1001.86 372.98 1001.86C373.378 1001.86 373.759 1001.7 374.04 1001.42C374.312 1001.13 374.463 1000.75 374.463 1000.36C374.463 999.965 374.312 999.586 374.04 999.3L373.9 999.23Z" fill="#FCDCE5"/>
<path d="M322.27 1042C322.51 1042.1 322.07 1041.91 321.99 1041.87C321.798 1041.79 321.611 1041.69 321.43 1041.59C321.1 1041.42 320.78 1041.23 320.43 1041.03C320.08 1040.83 319.77 1040.6 319.43 1040.36C319.55 1040.45 319.48 1040.36 319.43 1040.36L319.21 1040.18L318.74 1039.77C318.47 1039.52 318.2 1039.25 317.95 1038.98L317.58 1038.56L317.36 1038.29C317.29 1038.21 317.24 1038.14 317.36 1038.29C316.883 1037.66 316.458 1036.99 316.09 1036.29L314.8 1038.55C315.05 1038.54 315.3 1038.54 315.55 1038.55C315.68 1038.55 315.85 1038.55 315.63 1038.55L316.03 1038.63C316.274 1038.68 316.515 1038.75 316.75 1038.83L317.07 1038.95C316.79 1038.83 317.19 1039.01 317.22 1039.03C317.42 1039.13 317.62 1039.24 317.81 1039.36L318.15 1039.59C317.94 1039.45 318.22 1039.65 318.27 1039.7C318.32 1039.75 318.61 1040.01 318.77 1040.17L319.04 1040.48C318.87 1040.28 319.04 1040.56 319.13 1040.62C319.302 1040.9 319.559 1041.12 319.863 1041.24C320.166 1041.36 320.502 1041.39 320.82 1041.31C321.138 1041.22 321.418 1041.03 321.617 1040.77C321.816 1040.51 321.923 1040.19 321.92 1039.86C321.9 1039.53 321.9 1039.19 321.92 1038.86C321.91 1038.68 321.91 1038.51 321.92 1038.33C321.92 1038.01 321.92 1038.46 321.92 1038.12C321.92 1037.78 322.05 1037.52 322.13 1037.23L322.28 1036.79C322.39 1036.49 322.28 1036.85 322.37 1036.59C322.46 1036.33 322.52 1036.27 322.61 1036.12C322.7 1035.97 322.86 1035.75 322.76 1035.87C322.66 1035.99 322.76 1035.93 322.81 1035.87C322.33 1035.99 322.24 1036.1 321.66 1035.51C321.61 1035.36 321.6 1035.34 321.66 1035.44C321.681 1035.5 321.698 1035.57 321.71 1035.63C321.71 1035.72 321.71 1036.06 321.71 1035.75C321.71 1036.03 321.71 1036.3 321.71 1036.58C321.71 1036.69 321.71 1036.67 321.71 1036.5C321.715 1036.57 321.715 1036.63 321.71 1036.7C321.686 1036.85 321.653 1037 321.61 1037.15C321.548 1037.41 321.472 1037.67 321.38 1037.92C321.21 1038.47 321 1039 320.83 1039.54C320.38 1040.77 320.252 1042.1 320.46 1043.39L323.36 1042.6L322.22 1039.87C322.096 1039.5 321.836 1039.19 321.492 1039.01C321.149 1038.82 320.748 1038.77 320.37 1038.87C319.996 1038.99 319.683 1039.24 319.496 1039.59C319.309 1039.93 319.264 1040.33 319.37 1040.71L320.5 1043.43C320.605 1043.81 320.858 1044.14 321.204 1044.34C321.55 1044.54 321.96 1044.59 322.345 1044.49C322.73 1044.38 323.057 1044.13 323.255 1043.78C323.452 1043.44 323.505 1043.02 323.4 1042.64C323.4 1042.46 323.4 1042.46 323.4 1042.64C323.4 1042.56 323.4 1042.47 323.4 1042.38C323.4 1042.29 323.4 1042.04 323.4 1041.86C323.4 1041.68 323.4 1041.69 323.4 1041.86C323.412 1041.77 323.429 1041.69 323.45 1041.6C323.48 1041.42 323.521 1041.25 323.57 1041.08C323.74 1040.42 323.98 1039.78 324.21 1039.14C324.815 1037.73 324.962 1036.17 324.63 1034.67C324.562 1034.39 324.439 1034.12 324.268 1033.89C324.097 1033.66 323.882 1033.46 323.635 1033.31C323.387 1033.17 323.112 1033.07 322.827 1033.02C322.541 1032.98 322.25 1033 321.97 1033.07C321.531 1033.22 321.128 1033.46 320.784 1033.77C320.44 1034.08 320.163 1034.46 319.97 1034.88C319.162 1036.42 318.814 1038.15 318.97 1039.88L321.77 1039.12C321.006 1038 319.972 1037.08 318.764 1036.46C317.555 1035.84 316.209 1035.53 314.85 1035.56C314.587 1035.56 314.331 1035.64 314.105 1035.77C313.879 1035.9 313.691 1036.09 313.56 1036.32C313.429 1036.55 313.359 1036.81 313.358 1037.07C313.356 1037.33 313.422 1037.59 313.55 1037.82C315.291 1041.07 318.125 1043.6 321.55 1044.97C321.933 1045.07 322.341 1045.02 322.685 1044.82C323.029 1044.63 323.282 1044.3 323.39 1043.92C323.484 1043.54 323.428 1043.13 323.232 1042.79C323.037 1042.44 322.718 1042.19 322.34 1042.07L322.27 1042Z" fill="#FCDCE5"/>
<path d="M299 937.88C298.997 937.937 298.98 937.992 298.95 938.04L299.34 937.38C299.541 937.204 299.794 937.099 300.06 937.08C300.3 937.08 300.34 937.08 300.17 937.08C300.36 937.16 300.38 937.17 300.24 937.08C300.4 937.21 300.42 937.22 300.31 937.08L300.17 936.91C300.05 936.75 299.93 936.59 299.82 936.42C299.631 936.121 299.46 935.81 299.31 935.49L299.18 935.22C299.18 935.35 299.18 935.33 299.18 935.16L299 934.66C298.89 934.299 298.8 933.931 298.73 933.56C298.73 933.56 298.65 933.08 298.73 933.37C298.73 933.17 298.73 932.96 298.67 932.76C298.652 932.427 298.652 932.093 298.67 931.76C298.67 931.7 298.74 931.13 298.67 931.41C298.67 931.21 298.74 931.01 298.78 930.81L296.27 931.47L298 933.3C298.189 933.486 298.423 933.619 298.679 933.685C298.935 933.752 299.205 933.75 299.46 933.68C299.693 933.603 299.905 933.472 300.078 933.298C300.252 933.125 300.382 932.913 300.46 932.68C300.38 932.88 300.55 932.49 300.57 932.45L300.79 932.02C300.94 931.74 301.11 931.47 301.29 931.2C301.615 930.73 301.987 930.294 302.4 929.9L300.05 929.6C300.13 929.73 300.2 929.86 300.27 930C300.34 930.14 300.27 929.93 300.36 930.2C300.45 930.47 300.45 930.49 300.48 930.64C300.51 930.79 300.57 931.1 300.54 930.85C300.565 931.16 300.565 931.471 300.54 931.78V932.25C300.54 931.99 300.49 932.48 300.48 932.54C300.157 933.84 299.649 935.086 298.97 936.24H301.56C301.444 936.062 301.337 935.879 301.24 935.69V935.61C301.207 935.539 301.181 935.465 301.16 935.39C301.103 935.213 301.056 935.033 301.02 934.85C301.02 934.67 301.02 934.65 301.02 934.78C301.02 934.68 301.02 934.57 301.02 934.47C301.017 934.073 300.858 933.693 300.578 933.412C300.297 933.132 299.917 932.973 299.52 932.97C299.125 932.98 298.75 933.141 298.471 933.421C298.191 933.7 298.03 934.075 298.02 934.47L297.9 936.39C297.903 936.787 298.061 937.167 298.342 937.448C298.623 937.729 299.003 937.887 299.4 937.89C299.795 937.88 300.17 937.719 300.449 937.44C300.729 937.16 300.89 936.785 300.9 936.39L301.02 934.47H298.02C298.048 935.634 298.394 936.768 299.02 937.75C299.154 937.974 299.344 938.159 299.571 938.287C299.798 938.416 300.054 938.483 300.315 938.483C300.576 938.483 300.832 938.416 301.059 938.287C301.286 938.159 301.476 937.974 301.61 937.75C302.472 936.282 303.103 934.69 303.48 933.03C303.845 931.323 303.563 929.541 302.69 928.03C302.57 927.836 302.408 927.671 302.217 927.548C302.025 927.425 301.808 927.346 301.582 927.317C301.355 927.288 301.126 927.31 300.909 927.382C300.692 927.453 300.495 927.572 300.33 927.73C299.156 928.903 298.231 930.301 297.61 931.84L300.12 931.17L298.39 929.34C298.203 929.159 297.973 929.029 297.721 928.964C297.47 928.898 297.205 928.898 296.954 928.964C296.702 929.031 296.472 929.161 296.286 929.342C296.099 929.524 295.963 929.75 295.89 930C295.397 932.302 295.663 934.702 296.65 936.84C297.071 937.921 297.759 938.878 298.65 939.62C299.7 940.34 301.65 940.24 301.9 938.62C301.982 938.244 301.917 937.852 301.718 937.523C301.519 937.194 301.201 936.954 300.83 936.853C300.459 936.751 300.064 936.796 299.725 936.978C299.386 937.16 299.13 937.465 299.01 937.83L299 937.88Z" fill="#FCDCE5"/>
<path d="M384.63 918.18C384.36 917.531 384.14 916.862 383.97 916.18C383.88 915.84 383.81 915.5 383.75 915.18C383.75 915.18 383.67 914.64 383.7 914.86C383.7 914.7 383.7 914.54 383.65 914.38C383.6 913.684 383.6 912.986 383.65 912.29C383.691 911.672 383.788 911.06 383.94 910.46L381.2 910.82C381.504 911.187 381.772 911.582 382 912C382.06 912.11 382.11 912.22 382.16 912.33C382.1 912.19 382.16 912.33 382.16 912.39C382.25 912.63 382.33 912.86 382.4 913.1C382.47 913.34 382.51 913.54 382.55 913.76C382.55 913.76 382.61 914.14 382.55 913.88V914.18C382.595 914.676 382.595 915.174 382.55 915.67C382.547 915.999 382.654 916.32 382.853 916.582C383.052 916.845 383.332 917.034 383.65 917.12C383.968 917.203 384.305 917.181 384.61 917.057C384.915 916.932 385.171 916.712 385.34 916.43C385.46 916.22 385.58 916.01 385.72 915.8C385.72 915.8 386 915.43 385.84 915.63L386.07 915.35C386.24 915.17 386.41 915 386.59 914.83L386.87 914.59C386.68 914.75 387.01 914.5 387.04 914.48L384.83 912.78C384.689 913.295 384.522 913.802 384.33 914.3L384.27 914.44L384.12 914.79C384 915.04 383.87 915.29 383.74 915.54C383.5 915.993 383.24 916.433 382.96 916.86C382.8 917.09 382.64 917.32 382.47 917.54C382.3 917.76 382.69 917.28 382.38 917.66L382.09 918.02C381.825 918.304 381.681 918.68 381.688 919.069C381.695 919.458 381.852 919.828 382.127 920.103C382.402 920.378 382.772 920.535 383.161 920.542C383.55 920.549 383.926 920.405 384.21 920.14C385.839 918.23 387.039 915.993 387.73 913.58C387.804 913.293 387.792 912.99 387.696 912.709C387.6 912.428 387.424 912.182 387.19 912C386.955 911.816 386.671 911.707 386.373 911.685C386.076 911.664 385.779 911.732 385.52 911.88C384.38 912.656 383.433 913.682 382.75 914.88L385.55 915.63C385.772 913.353 385.137 911.075 383.77 909.24C383.613 908.992 383.389 908.793 383.123 908.667C382.857 908.542 382.562 908.494 382.27 908.53C381.98 908.565 381.708 908.686 381.487 908.876C381.266 909.067 381.107 909.319 381.03 909.6C380.277 912.706 380.522 915.971 381.73 918.93C381.854 919.298 382.113 919.605 382.454 919.791C382.795 919.976 383.194 920.026 383.57 919.93C383.952 919.822 384.275 919.569 384.472 919.225C384.668 918.881 384.722 918.473 384.62 918.09L384.63 918.18Z" fill="#FCDCE5"/>
<path d="M389.3 1045C388.91 1044.34 388.53 1043.66 388.18 1043C387.877 1042.44 387.629 1041.84 387.44 1041.23C387.34 1040.89 387.24 1040.55 387.17 1040.23C387.17 1040.17 387.08 1039.6 387.11 1039.9C387.11 1039.76 387.11 1039.61 387.11 1039.46C387.076 1039.13 387.076 1038.79 387.11 1038.46C387.11 1038.76 387.18 1038.2 387.19 1038.14C387.2 1038.08 387.3 1037.76 387.37 1037.57L384.86 1038.24C385.102 1038.46 385.333 1038.7 385.55 1038.95C385.55 1038.95 385.92 1039.42 385.76 1039.2L386.04 1039.61C386.222 1039.88 386.389 1040.17 386.54 1040.46L386.75 1040.91C386.63 1040.65 386.84 1041.16 386.86 1041.21C386.945 1041.49 387.108 1041.74 387.329 1041.93C387.55 1042.12 387.821 1042.25 388.11 1042.29C388.401 1042.33 388.698 1042.28 388.962 1042.15C389.227 1042.02 389.449 1041.82 389.6 1041.57C390.14 1040.57 390.6 1039.63 391.21 1038.69C391.21 1038.69 391.43 1038.39 391.31 1038.53C391.19 1038.67 391.46 1038.38 391.46 1038.4C391.35 1038.69 390.81 1038.46 390.71 1038.4C390.588 1038.43 390.457 1038.42 390.345 1038.36C390.234 1038.3 390.149 1038.2 390.11 1038.08C390.009 1037.97 389.955 1037.83 389.96 1037.68C389.96 1037.94 390.04 1037.54 389.96 1037.68C389.932 1037.77 389.909 1037.86 389.89 1037.95C389.82 1038.2 389.73 1038.45 389.64 1038.7C389.55 1038.95 389.46 1039.19 389.36 1039.44C389.36 1039.53 389.29 1039.63 389.25 1039.73L389.16 1039.95C388.96 1040.41 388.75 1040.86 388.53 1041.31C388.058 1042.28 387.531 1043.22 386.95 1044.13L389.75 1044.88L389.68 1042.78C389.68 1042.38 389.522 1042 389.241 1041.72C388.959 1041.44 388.578 1041.28 388.18 1041.28C387.782 1041.28 387.401 1041.44 387.119 1041.72C386.838 1042 386.68 1042.38 386.68 1042.78L386.75 1044.88C386.759 1045.2 386.872 1045.52 387.072 1045.77C387.272 1046.03 387.55 1046.21 387.863 1046.3C388.176 1046.38 388.508 1046.36 388.81 1046.25C389.112 1046.13 389.368 1045.92 389.54 1045.64C390.276 1044.49 390.928 1043.29 391.49 1042.04C391.81 1041.35 392.1 1040.65 392.37 1039.94C392.651 1039.3 392.843 1038.63 392.94 1037.94C392.985 1037.52 392.906 1037.1 392.714 1036.73C392.522 1036.36 392.225 1036.05 391.86 1035.84C391.424 1035.63 390.933 1035.57 390.459 1035.66C389.985 1035.76 389.554 1036 389.23 1036.36C388.754 1036.91 388.356 1037.52 388.05 1038.18L387 1040L389.74 1040.35C389.183 1038.7 388.244 1037.21 387 1036C386.813 1035.82 386.581 1035.69 386.329 1035.62C386.077 1035.56 385.812 1035.56 385.561 1035.63C385.309 1035.7 385.079 1035.83 384.893 1036.01C384.707 1036.19 384.572 1036.42 384.5 1036.67C383.27 1040.06 385.03 1043.58 386.73 1046.47C386.932 1046.81 387.261 1047.06 387.647 1047.16C388.032 1047.26 388.442 1047.21 388.785 1047.01C389.128 1046.8 389.378 1046.47 389.478 1046.09C389.578 1045.7 389.522 1045.29 389.32 1044.95L389.3 1045Z" fill="#FCDCE5"/>
<path d="M410.16 988.53L410.69 989.15L412.51 986.8L412.17 986.54C412.3 986.64 412.17 986.54 412.17 986.54L411.56 986.05C411.19 985.72 410.82 985.39 410.46 985.05C409.766 984.374 409.115 983.656 408.51 982.9L408.44 982.81L408.23 982.53L408.12 982.35V982.45C408.14 982.57 408.119 982.693 408.06 982.8C408.058 982.855 408.045 982.91 408.02 982.96C407.996 983.01 407.962 983.054 407.92 983.09C407.805 983.241 407.643 983.35 407.46 983.4C407.73 983.32 407.1 983.4 407.39 983.4C407.25 983.4 407.1 983.31 407.31 983.4C407.52 983.49 407.02 983.19 407.25 983.4C407.48 983.61 407.07 983.25 407.25 983.4C407.43 983.55 407.34 983.52 407.25 983.4C407.37 983.57 407.47 983.75 407.58 983.92C407.827 984.401 408.167 984.83 408.58 985.18C408.82 985.406 409.126 985.55 409.453 985.591C409.78 985.632 410.111 985.569 410.4 985.41C410.675 985.233 410.888 984.976 411.012 984.674C411.135 984.372 411.162 984.038 411.09 983.72C411.15 984.1 411.09 983.57 411.09 983.49C411.09 983.41 411.09 983.15 411.09 982.99C411.09 982.83 411.09 982.82 411.09 982.74C411.09 982.93 411.09 982.94 411.09 982.74C411.09 982.54 411.15 982.46 411.2 982.32C411.25 982.18 411.29 982.04 411.34 981.9C411.21 982.23 411.42 981.75 411.45 981.69L411.72 981.26C411.82 981.12 411.82 981.13 411.72 981.26L411.89 981.07L409.38 980.4C409.49 980.92 409.58 981.4 409.66 981.97V982C409.66 982.13 409.66 982.26 409.66 982.39C409.66 982.52 409.72 982.92 409.74 983.18C409.827 984.211 409.853 985.246 409.82 986.28L412.39 985.22L411.74 984.46C411.456 984.181 411.073 984.025 410.675 984.025C410.277 984.025 409.894 984.181 409.61 984.46C409.341 984.747 409.191 985.126 409.191 985.52C409.191 985.914 409.341 986.293 409.61 986.58L410.26 987.34C410.47 987.55 410.737 987.692 411.028 987.75C411.318 987.808 411.62 987.778 411.894 987.665C412.168 987.551 412.402 987.359 412.567 987.113C412.732 986.866 412.82 986.577 412.82 986.28C412.875 984.025 412.674 981.77 412.22 979.56C412.148 979.31 412.013 979.082 411.827 978.899C411.641 978.717 411.411 978.585 411.159 978.518C410.908 978.451 410.643 978.449 410.391 978.515C410.138 978.58 409.907 978.709 409.72 978.89C409.049 979.63 408.556 980.515 408.281 981.475C408.005 982.436 407.953 983.446 408.13 984.43L410.64 982.97C410.58 982.92 410.25 982.56 410.46 982.85C410.388 982.75 410.321 982.647 410.26 982.54C410.11 982.3 409.98 982.04 409.82 981.81C409.428 981.201 408.838 980.745 408.15 980.52C407.811 980.412 407.453 980.377 407.099 980.419C406.746 980.46 406.405 980.576 406.1 980.76C405.695 981.027 405.39 981.423 405.236 981.883C405.082 982.344 405.087 982.843 405.25 983.3C405.568 984.04 406.015 984.717 406.57 985.3C406.98 985.79 407.4 986.3 407.85 986.72C408.819 987.704 409.869 988.603 410.99 989.41C411.303 989.593 411.673 989.654 412.029 989.583C412.385 989.511 412.702 989.31 412.92 989.02C413.145 988.729 413.258 988.367 413.238 988C413.218 987.632 413.066 987.284 412.81 987.02L412.28 986.4C412.141 986.259 411.975 986.148 411.792 986.072C411.609 985.996 411.413 985.956 411.215 985.956C411.017 985.956 410.821 985.996 410.638 986.072C410.455 986.148 410.289 986.259 410.15 986.4C409.881 986.687 409.731 987.066 409.731 987.46C409.731 987.854 409.881 988.233 410.15 988.52L410.16 988.53Z" fill="#FCDCE5"/>
<path d="M363.8 1063.18C361.254 1062.1 359.005 1060.42 357.24 1058.29C356.83 1057.81 356.52 1057.18 356.1 1056.72L355.99 1056.53C355.93 1056.61 355.93 1056.61 355.99 1056.53C356.05 1056.45 355.99 1056.53 355.99 1056.53L356.29 1056.44C356.16 1056.44 356.56 1056.44 356.37 1056.44C356.622 1056.49 356.859 1056.6 357.06 1056.76C357.503 1057.15 357.887 1057.59 358.2 1058.09C358.393 1058.39 358.684 1058.61 359.022 1058.71C359.36 1058.81 359.724 1058.8 360.05 1058.66C360.376 1058.52 360.644 1058.27 360.807 1057.96C360.969 1057.65 361.017 1057.29 360.94 1056.94C360.767 1055.92 360.637 1054.9 360.55 1053.88C360.55 1053.37 360.46 1052.88 360.44 1052.34C360.44 1052.22 360.44 1051.9 360.44 1051.88C360.56 1052.13 359.44 1052.68 359.34 1052.29C359.41 1052.54 359.72 1052.96 359.84 1053.29C359.96 1053.62 360.2 1054.15 360.37 1054.59C360.743 1055.55 361.077 1056.52 361.37 1057.5C361.66 1058.5 361.91 1059.5 362.12 1060.5C362.163 1061.01 362.264 1061.52 362.42 1062.01C362.62 1061.29 362.95 1061.01 363.42 1061.1H363.27C363.36 1061.21 363.06 1060.97 363.18 1061.1C362.385 1060.44 361.646 1059.72 360.97 1058.94L358.51 1056.51L357.05 1059.01C357.944 1059.39 358.761 1059.93 359.46 1060.61C359.625 1060.77 359.823 1060.88 360.04 1060.95C360.256 1061.02 360.485 1061.05 360.711 1061.02C360.936 1060.99 361.153 1060.91 361.345 1060.79C361.537 1060.67 361.699 1060.5 361.82 1060.31C362.061 1059.96 362.164 1059.53 362.11 1059.11C362.057 1058.68 361.851 1058.29 361.53 1058.01C361.244 1057.74 360.864 1057.59 360.47 1057.59C360.076 1057.59 359.696 1057.74 359.41 1058.01C359.129 1058.29 358.971 1058.67 358.971 1059.07C358.971 1059.47 359.129 1059.85 359.41 1060.13L359.52 1060.22L359.13 1059.55V1059.44L359.34 1058.68L359.25 1058.79L361.61 1058.49C360.522 1057.47 359.254 1056.67 357.87 1056.12C356.42 1055.53 355.43 1057.65 356.41 1058.63L359.06 1061.25C359.826 1062.12 360.674 1062.91 361.59 1063.62C362.019 1063.94 362.536 1064.13 363.073 1064.15C363.609 1064.17 364.139 1064.02 364.59 1063.73C365.72 1062.83 365.33 1061.4 365.09 1060.18C364.626 1057.87 363.957 1055.62 363.09 1053.43C362.762 1052.29 362.208 1051.24 361.46 1050.32C361.056 1049.87 360.49 1049.59 359.883 1049.55C359.277 1049.51 358.679 1049.71 358.22 1050.11C357.22 1051.03 357.45 1052.44 357.55 1053.64C357.66 1055.06 357.85 1056.48 358.08 1057.88L360.82 1056.73C359.6 1055.01 358.04 1053.29 355.72 1053.73C355.188 1053.79 354.682 1053.99 354.251 1054.31C353.82 1054.62 353.48 1055.05 353.264 1055.54C353.049 1056.03 352.965 1056.57 353.022 1057.1C353.08 1057.63 353.275 1058.14 353.59 1058.57C355.833 1062.09 359.14 1064.8 363.03 1066.31C363.407 1066.42 363.81 1066.37 364.153 1066.18C364.497 1066 364.754 1065.68 364.87 1065.31C364.968 1064.93 364.92 1064.53 364.734 1064.19C364.548 1063.85 364.239 1063.59 363.87 1063.47L363.8 1063.18Z" fill="#FCDCE5"/>
<path d="M295.58 1006.72C294.001 1004.27 293.161 1001.41 293.16 998.49L290.6 999.55C291.699 1000.35 292.493 1001.51 292.85 1002.82C292.95 1003.17 293.172 1003.47 293.475 1003.66C293.778 1003.86 294.142 1003.94 294.5 1003.89C294.855 1003.84 295.179 1003.66 295.417 1003.39C295.654 1003.12 295.79 1002.78 295.8 1002.42C295.8 1002.42 295.85 1002.02 295.8 1002.21C295.75 1002.4 295.8 1002.04 295.8 1002C295.8 1001.77 295.88 1001.55 295.93 1001.32C296.023 1000.87 296.15 1000.42 296.31 999.99C296.31 999.87 296.37 999.84 296.31 999.99C296.37 999.87 296.42 999.75 296.49 999.63C296.53 999.555 296.573 999.481 296.62 999.41C296.62 999.41 296.84 999.1 296.72 999.25C296.6 999.4 296.83 999.14 296.85 999.11C296.87 999.08 297.13 998.85 296.98 998.98C296.83 999.11 297.1 998.9 297.14 998.88C297.18 998.86 297.54 998.68 297.25 998.8L295.35 997.35C295.155 1000.28 294.437 1003.15 293.23 1005.83L296.03 1006.58V1004.06H293.03L293.11 1005.22C293.12 1005.61 293.281 1005.99 293.561 1006.27C293.84 1006.55 294.215 1006.71 294.61 1006.72C295.007 1006.72 295.387 1006.56 295.668 1006.28C295.948 1006 296.107 1005.62 296.11 1005.22L296.03 1004.06C296.02 1003.67 295.859 1003.29 295.579 1003.01C295.3 1002.73 294.925 1002.57 294.53 1002.56C294.134 1002.57 293.755 1002.72 293.475 1003.01C293.195 1003.29 293.035 1003.66 293.03 1004.06V1006.58C293.031 1006.91 293.14 1007.23 293.34 1007.49C293.539 1007.75 293.819 1007.94 294.136 1008.02C294.452 1008.11 294.789 1008.09 295.093 1007.97C295.397 1007.84 295.653 1007.62 295.82 1007.34C297.268 1004.19 298.125 1000.8 298.35 997.34C298.349 997.109 298.294 996.882 298.191 996.675C298.089 996.469 297.94 996.288 297.756 996.148C297.573 996.008 297.359 995.912 297.133 995.868C296.907 995.823 296.673 995.83 296.45 995.89C295.83 996.133 295.265 996.496 294.788 996.96C294.31 997.423 293.93 997.978 293.67 998.59C293.168 999.812 292.858 1001.1 292.75 1002.42L295.7 1002.02C295.212 1000.21 294.162 998.603 292.7 997.43C292.488 997.225 292.222 997.087 291.932 997.032C291.643 996.977 291.344 997.007 291.072 997.12C290.8 997.233 290.567 997.422 290.401 997.666C290.236 997.909 290.145 998.196 290.14 998.49C290.144 1001.94 291.125 1005.32 292.97 1008.23C293.065 1008.41 293.195 1008.56 293.352 1008.69C293.509 1008.82 293.69 1008.91 293.884 1008.97C294.078 1009.02 294.281 1009.04 294.481 1009.01C294.681 1008.98 294.874 1008.92 295.048 1008.82C295.222 1008.72 295.374 1008.58 295.494 1008.42C295.615 1008.26 295.702 1008.07 295.75 1007.88C295.797 1007.68 295.805 1007.48 295.773 1007.28C295.74 1007.08 295.668 1006.89 295.56 1006.72H295.58Z" fill="#FCDCE5"/>
<path d="M298.85 1062.11C296.542 1060.17 294.968 1057.5 294.39 1054.54L292.54 1056.39C293.662 1056.85 294.681 1057.53 295.54 1058.39C295.753 1058.59 296.02 1058.72 296.307 1058.78C296.595 1058.83 296.892 1058.8 297.162 1058.69C297.433 1058.57 297.665 1058.39 297.831 1058.15C297.997 1057.91 298.091 1057.62 298.1 1057.33L298.47 1052.27L295.68 1053.03C297.088 1055.77 297.575 1058.88 297.07 1061.92L299.81 1061.56L298.26 1059.02C298.165 1058.84 298.035 1058.69 297.878 1058.56C297.721 1058.43 297.54 1058.34 297.346 1058.28C297.152 1058.23 296.949 1058.21 296.749 1058.24C296.549 1058.27 296.356 1058.33 296.182 1058.43C296.008 1058.53 295.856 1058.67 295.736 1058.83C295.615 1058.99 295.528 1059.18 295.48 1059.37C295.433 1059.57 295.425 1059.77 295.457 1059.97C295.49 1060.17 295.562 1060.36 295.67 1060.53L297.22 1063.07C297.84 1064.07 299.73 1064.07 299.96 1062.72C300.642 1058.9 300.049 1054.96 298.27 1051.51C298.099 1051.23 297.841 1051.01 297.535 1050.88C297.228 1050.76 296.89 1050.74 296.57 1050.82C296.26 1050.92 295.987 1051.11 295.79 1051.37C295.593 1051.63 295.482 1051.94 295.47 1052.27L295.1 1057.33L297.66 1056.27C296.416 1055.04 294.932 1054.09 293.3 1053.46C292.15 1053.01 291.3 1054.31 291.45 1055.31C292.167 1058.77 294.009 1061.9 296.69 1064.2C296.975 1064.47 297.355 1064.63 297.75 1064.63C298.145 1064.63 298.525 1064.47 298.81 1064.2C299.089 1063.92 299.245 1063.54 299.245 1063.14C299.245 1062.74 299.089 1062.36 298.81 1062.08L298.85 1062.11Z" fill="#FCDCE5"/>
<path d="M307.68 904.69C306.507 903.386 304.994 902.434 303.31 901.94C302.887 901.788 302.44 901.713 301.99 901.72C301.581 901.728 301.184 901.862 300.853 902.104C300.522 902.345 300.273 902.683 300.14 903.07C299.76 904.34 300.87 905.29 301.67 906.07C302.3 906.7 302.95 907.32 303.62 907.91L304.62 908.74C305.074 909.157 305.594 909.495 306.16 909.74C306.457 909.84 306.771 909.875 307.083 909.842C307.394 909.81 307.695 909.712 307.965 909.554C308.235 909.395 308.468 909.181 308.648 908.925C308.829 908.669 308.952 908.378 309.01 908.07C309.162 907.306 309.209 906.526 309.15 905.75C309.155 904.879 309.013 904.013 308.73 903.19C308.388 902.214 307.752 901.369 306.91 900.77C306.566 900.573 306.158 900.519 305.774 900.62C305.391 900.721 305.062 900.969 304.86 901.31C304.364 902.232 304.104 903.263 304.104 904.31C304.104 905.357 304.364 906.388 304.86 907.31C305.064 907.652 305.394 907.9 305.78 908.001C306.165 908.102 306.574 908.048 306.92 907.85C307.241 907.642 307.473 907.322 307.571 906.952C307.669 906.582 307.626 906.19 307.45 905.85C307.45 905.77 307.38 905.69 307.34 905.62C307.3 905.55 307.44 905.91 307.34 905.62C307.28 905.46 307.23 905.296 307.19 905.13C307.19 905.03 307.19 904.93 307.12 904.83C307.05 904.73 307.12 904.83 307.12 904.93C307.135 904.74 307.135 904.55 307.12 904.36C307.12 904.19 307.12 904.02 307.12 903.85C307.12 903.68 307.04 904.22 307.12 903.85L307.18 903.6C307.219 903.433 307.27 903.27 307.33 903.11C307.43 902.84 307.33 903.11 307.33 903.11C307.33 903.11 307.45 902.87 307.47 902.83L305.42 903.37C305.04 903.09 305.42 903.37 305.48 903.44C305.54 903.51 305.57 903.54 305.62 903.59C305.67 903.64 305.67 903.75 305.54 903.48C305.59 903.57 305.67 903.66 305.72 903.75C305.757 903.808 305.791 903.868 305.82 903.93C305.82 903.93 305.98 904.27 305.87 904.02C305.76 903.77 305.92 904.18 305.94 904.24C305.979 904.347 306.01 904.458 306.03 904.57C306.03 904.7 306.09 904.83 306.11 904.96C306.13 905.09 306.11 905.28 306.11 904.87C306.106 904.943 306.106 905.017 306.11 905.09C306.15 905.646 306.15 906.204 306.11 906.76C306.11 906.87 306.11 906.99 306.11 907.11C306.115 907.163 306.115 907.217 306.11 907.27C306.11 907.56 306.19 906.97 306.11 907.16C306.105 907.226 306.105 907.293 306.11 907.36C306.11 907.47 305.98 907.58 306.18 907.23C306.11 907.34 306.07 907.33 306.29 907.11C306.21 907.19 306.22 907.18 306.29 907.11C306.379 907.025 306.49 906.966 306.61 906.94C307.04 906.81 307.29 906.94 307.02 906.94C307.32 907.03 307.21 907 307.11 906.94C306.81 906.8 307.29 907.1 307.11 906.94L306.88 906.76L306.08 906.08C305.53 905.61 305 905.08 304.48 904.63C303.96 904.18 303.48 903.63 303 903.14C303 903.14 302.81 902.97 302.82 902.94L302.88 903.01C302.947 903.087 302.992 903.18 303.01 903.28C303.086 903.566 303.046 903.871 302.898 904.128C302.75 904.385 302.506 904.573 302.22 904.65C302.42 904.57 302.07 904.65 302.05 904.65C302.33 904.65 301.74 904.58 301.92 904.65H302.16C302.323 904.687 302.483 904.734 302.64 904.79L303.11 904.95C303.2 904.95 303.33 905.08 303.03 904.95L303.3 905.08C303.604 905.224 303.898 905.387 304.18 905.57L304.59 905.85C304.86 906.04 304.4 905.69 304.59 905.85L304.79 906.01C305.067 906.249 305.328 906.506 305.57 906.78C305.853 907.058 306.233 907.214 306.63 907.214C307.027 907.214 307.407 907.058 307.69 906.78C307.964 906.495 308.117 906.115 308.117 905.72C308.117 905.325 307.964 904.945 307.69 904.66L307.68 904.69Z" fill="#FCDCE5"/>
<path d="M351.77 915C351.098 914.442 350.473 913.829 349.9 913.17C349.84 913.1 349.78 913.02 349.71 912.95L349.56 912.76C349.64 912.86 349.47 912.64 349.46 912.62L349.24 912.33C348.99 911.97 348.75 911.6 348.53 911.23C348.31 910.86 348.13 910.51 347.94 910.14L347.67 909.55C347.77 909.77 347.67 909.48 347.62 909.43L347.52 909.16C347.202 908.323 346.958 907.459 346.79 906.58L344.59 908.27C344.59 908.27 345.07 908.62 344.88 908.47L345.33 908.85C345.618 909.111 345.892 909.389 346.15 909.68C346.15 909.68 346.54 910.15 346.38 909.95C346.5 910.11 346.62 910.27 346.72 910.43C346.937 910.753 347.137 911.087 347.32 911.43C347.471 911.68 347.692 911.882 347.955 912.009C348.219 912.136 348.514 912.184 348.804 912.147C349.094 912.11 349.367 911.99 349.59 911.8C349.813 911.611 349.977 911.36 350.06 911.08C350.166 910.596 350.3 910.119 350.46 909.65C350.591 909.246 350.759 908.854 350.96 908.48L351.12 908.19C351.36 907.75 351.46 907.91 350.47 908.01C350.06 908.28 349.78 908.28 349.61 908.01C349.55 907.92 349.55 907.92 349.61 908.01C349.67 908.1 349.61 907.77 349.61 908.01L349.67 908.28C349.67 908.28 349.73 908.69 349.67 908.55C349.61 908.41 349.67 908.72 349.67 908.75V909.15C349.695 909.603 349.695 910.057 349.67 910.51L349.61 911.23C349.56 911.73 349.61 911.1 349.61 911.39C349.61 911.49 349.61 911.6 349.56 911.7C349.48 912.173 349.369 912.641 349.23 913.1C349.16 913.33 349.08 913.56 349 913.79C348.92 914.02 348.92 913.99 348.89 914.08C348.7 914.56 349 913.85 348.78 914.31H351.37C351.201 914.049 351.047 913.779 350.91 913.5C351 913.68 350.91 913.42 350.85 913.35C350.79 913.28 350.75 913.06 350.71 912.91L350.62 912.53C350.62 912.53 350.55 912.05 350.62 912.31C350.6 912 350.6 911.69 350.62 911.38L347.68 911.77C347.969 912.513 348.167 913.289 348.27 914.08C348.278 914.475 348.438 914.852 348.718 915.132C348.997 915.412 349.375 915.572 349.77 915.58C350.167 915.577 350.547 915.418 350.828 915.138C351.108 914.857 351.267 914.477 351.27 914.08C351.188 913.018 350.952 911.974 350.57 910.98C350.476 910.626 350.257 910.319 349.953 910.116C349.649 909.913 349.281 909.828 348.918 909.877C348.556 909.926 348.224 910.106 347.985 910.383C347.746 910.66 347.616 911.014 347.62 911.38C347.551 912.954 347.978 914.511 348.84 915.83C349.41 916.68 350.94 916.93 351.43 915.83C352.645 913.226 353.029 910.31 352.53 907.48C352.478 907.112 352.349 906.76 352.153 906.445C351.957 906.13 351.697 905.859 351.39 905.65C350.95 905.405 350.434 905.334 349.945 905.453C349.455 905.572 349.029 905.871 348.75 906.29C348.358 906.894 348.039 907.541 347.8 908.22C347.529 908.885 347.312 909.571 347.15 910.27L349.9 909.91C348.997 908.203 347.689 906.743 346.09 905.66C345.833 905.511 345.538 905.443 345.242 905.465C344.946 905.486 344.663 905.596 344.43 905.78C344.197 905.961 344.023 906.206 343.927 906.485C343.831 906.763 343.818 907.064 343.89 907.35C344.637 911.161 346.666 914.602 349.64 917.1C349.924 917.365 350.3 917.509 350.689 917.502C351.078 917.495 351.448 917.338 351.723 917.063C351.998 916.788 352.155 916.418 352.162 916.029C352.169 915.64 352.025 915.264 351.76 914.98L351.77 915Z" fill="#FCDCE5"/>
<path d="M396.32 958.38C396.54 958.47 396.16 958.31 396.12 958.28C395.978 958.217 395.841 958.143 395.71 958.06L395.32 957.82C395.32 957.82 394.95 957.55 395.13 957.69C394.892 957.497 394.664 957.29 394.45 957.07L394.14 956.73L394 956.55C393.818 956.3 393.651 956.04 393.5 955.77L393.29 955.36C393.15 955.1 393.29 955.46 393.2 955.16C393.098 954.895 393.012 954.625 392.94 954.35C392.94 954.2 392.87 954.05 392.85 953.9C392.845 953.827 392.845 953.753 392.85 953.68C392.85 953.82 392.85 953.8 392.85 953.62L390.59 954.91C391.756 955.685 392.801 956.629 393.69 957.71C394.56 958.71 396.23 957.86 396.25 956.65C396.26 955.299 396.441 953.955 396.79 952.65C396.97 951.97 397.194 951.302 397.46 950.65L397.53 950.47C397.53 950.54 397.53 950.53 397.53 950.47C397.53 950.41 397.53 950.38 397.53 950.47C397.387 950.623 397.193 950.718 396.984 950.736C396.776 950.755 396.568 950.695 396.4 950.57C396.4 950.57 395.89 950.23 396.14 950.41C396.08 950.25 396.06 950.23 396.14 950.33C396.22 950.43 396.14 950.45 396.14 950.52C396.08 950.32 396.14 950.39 396.14 950.52V950.9C396.14 951.3 396.06 951.71 396.01 952.11C395.93 952.78 395.82 953.45 395.7 954.11C395.44 955.576 395.106 957.028 394.7 958.46L396.9 957.56C396.73 957.46 396.84 957.49 396.9 957.56C396.96 957.63 396.9 957.63 396.9 957.56C396.9 957.49 396.85 957.49 396.9 957.62V957.49V957.62C396.9 957.46 396.9 957.44 396.9 957.54C396.9 957.64 396.9 957.63 396.9 957.48C396.993 957.101 396.935 956.701 396.737 956.364C396.54 956.028 396.219 955.781 395.843 955.677C395.467 955.573 395.066 955.62 394.723 955.807C394.381 955.994 394.125 956.307 394.01 956.68C393.834 957.328 393.875 958.015 394.128 958.637C394.381 959.258 394.832 959.78 395.41 960.12C395.609 960.233 395.831 960.3 396.06 960.315C396.288 960.33 396.517 960.292 396.729 960.206C396.941 960.119 397.13 959.985 397.283 959.814C397.436 959.644 397.547 959.44 397.61 959.22C398.154 957.334 398.569 955.413 398.85 953.47C399.09 951.85 399.7 949.57 398.37 948.25C397.984 947.868 397.463 947.653 396.92 947.653C396.377 947.653 395.856 947.868 395.47 948.25C394.874 949.015 394.457 949.903 394.25 950.85C393.66 952.7 393.35 954.628 393.33 956.57L395.89 955.51C394.825 954.243 393.578 953.141 392.19 952.24C391.961 952.109 391.702 952.04 391.438 952.041C391.175 952.041 390.916 952.11 390.687 952.242C390.458 952.373 390.268 952.562 390.136 952.79C390.003 953.018 389.932 953.276 389.93 953.54C390.077 955.221 390.689 956.828 391.697 958.181C392.706 959.534 394.071 960.579 395.64 961.2C396.018 961.301 396.42 961.254 396.764 961.068C397.108 960.882 397.368 960.572 397.49 960.2C397.584 959.816 397.528 959.41 397.332 959.067C397.137 958.723 396.818 958.466 396.44 958.35L396.32 958.38Z" fill="#FCDCE5"/>
<path d="M361.06 974.1C360.92 973.99 361 974.1 361.06 974.1C360.99 974.1 360.91 973.97 360.84 973.92L360.49 973.62C360.234 973.396 359.991 973.159 359.76 972.91C359.53 972.68 359.32 972.44 359.11 972.19C359.11 972.14 358.98 972.07 358.97 972.01L359.03 972.09L359 972L358.7 971.58C358.326 971.049 357.992 970.49 357.7 969.91L357.49 969.44C357.4 969.25 357.58 969.69 357.49 969.44L357.39 969.17C357.27 968.85 357.16 968.53 357.07 968.17L354.9 970C355.29 970.187 355.664 970.405 356.02 970.65C356.02 970.65 356.36 970.9 356.18 970.76C356 970.62 356.26 970.83 356.29 970.86C356.32 970.89 356.63 971.15 356.79 971.31C356.94 971.45 357.081 971.6 357.21 971.76L357.39 971.97C357.62 972.22 357.26 971.77 357.44 971.97C357.698 972.334 357.932 972.715 358.14 973.11C358.291 973.36 358.512 973.562 358.775 973.689C359.039 973.816 359.334 973.864 359.624 973.827C359.914 973.79 360.187 973.67 360.41 973.48C360.633 973.291 360.797 973.04 360.88 972.76C360.947 972.344 361.041 971.934 361.16 971.53C361.16 971.34 361.28 971.15 361.35 970.96C361.42 970.77 361.42 970.74 361.35 970.96C361.394 970.847 361.444 970.737 361.5 970.63C361.68 970.285 361.88 969.951 362.1 969.63C362.151 969.543 362.208 969.459 362.27 969.38L362.37 969.23L361.47 969.73C360.97 969.54 360.82 969.51 361.01 969.61C361.2 969.71 361.06 969.61 360.89 969.52C360.72 969.43 360.75 969.26 360.68 969.13C360.61 969 360.74 969.21 360.68 969.29V969.13V969.31L360.53 969.96C360.417 970.42 360.297 970.88 360.17 971.34C359.91 972.25 359.61 973.14 359.27 974.03C359.166 974.413 359.218 974.822 359.415 975.167C359.611 975.512 359.937 975.765 360.32 975.87C360.698 975.966 361.098 975.917 361.441 975.732C361.783 975.546 362.044 975.239 362.17 974.87C362.601 973.731 362.968 972.57 363.27 971.39C363.63 970.02 364.15 968.29 362.82 967.26C362.456 966.942 361.989 966.767 361.505 966.767C361.021 966.767 360.554 966.942 360.19 967.26C359.791 967.717 359.455 968.224 359.19 968.77C358.612 969.771 358.209 970.863 358 972L360.74 971.64C359.788 969.806 358.279 968.321 356.43 967.4C356.17 967.257 355.874 967.192 355.577 967.213C355.281 967.234 354.997 967.341 354.76 967.52C354.527 967.701 354.353 967.946 354.257 968.225C354.161 968.503 354.148 968.804 354.22 969.09C355.117 972.146 356.993 974.823 359.56 976.71C359.904 976.907 360.312 976.961 360.696 976.86C361.079 976.759 361.408 976.511 361.61 976.17C361.783 975.829 361.823 975.436 361.723 975.066C361.624 974.697 361.391 974.378 361.07 974.17L361.06 974.1Z" fill="#FCDCE5"/>
<path d="M412.6 906.12C412.272 905.835 411.968 905.524 411.69 905.19C411.46 904.91 411.87 905.46 411.69 905.19L411.51 904.93C411.39 904.74 411.28 904.56 411.18 904.37L411 904C411 903.9 410.78 903.65 411 904C410.902 903.803 410.828 903.595 410.78 903.38C410.72 903.19 410.68 903 410.63 902.81C410.616 902.702 410.596 902.596 410.57 902.49C410.57 902.37 410.57 902.42 410.57 902.62C410.565 902.547 410.565 902.473 410.57 902.4L408.31 903.7L408.68 903.93L408.77 903.99H408.72C408.883 904.165 409.06 904.325 409.25 904.47L409.5 904.75C409.71 904.97 409.35 904.52 409.5 904.75C409.645 904.959 409.779 905.176 409.9 905.4C410.052 905.651 410.274 905.852 410.539 905.978C410.803 906.105 411.099 906.15 411.39 906.11C411.679 906.07 411.951 905.949 412.172 905.759C412.394 905.569 412.556 905.32 412.64 905.04C412.64 904.89 412.75 904.75 412.8 904.6C412.85 904.45 412.86 904.46 412.8 904.6L412.89 904.38C413.02 904.1 413.17 903.83 413.32 903.56C413.47 903.29 413.64 903.02 413.82 902.77C413.902 902.638 413.992 902.511 414.09 902.39L414.22 902.24L411.72 900.78L409.6 907.6C409.496 907.983 409.548 908.392 409.745 908.737C409.941 909.082 410.267 909.335 410.65 909.44C411.026 909.541 411.427 909.494 411.77 909.307C412.112 909.121 412.37 908.811 412.49 908.44L414.61 901.62C414.7 901.3 414.68 900.96 414.555 900.652C414.43 900.344 414.207 900.086 413.92 899.919C413.633 899.752 413.298 899.685 412.969 899.729C412.639 899.772 412.334 899.924 412.1 900.16C411.082 901.369 410.289 902.751 409.76 904.24L412.5 903.88C411.864 902.729 410.927 901.772 409.79 901.11C409.562 900.982 409.305 900.915 409.044 900.916C408.782 900.917 408.526 900.986 408.299 901.116C408.072 901.246 407.883 901.433 407.75 901.658C407.617 901.883 407.545 902.139 407.54 902.4C407.724 904.653 408.774 906.746 410.47 908.24C410.755 908.514 411.135 908.667 411.53 908.667C411.925 908.667 412.305 908.514 412.59 908.24C412.869 907.957 413.025 907.577 413.025 907.18C413.025 906.783 412.869 906.403 412.59 906.12H412.6Z" fill="#FCDCE5"/>
<path opacity="0.43" d="M304.07 782.75C297.85 771.21 300.22 755.61 307.67 745.12C315.33 734.35 323.13 736.32 327.29 727.12C333.88 712.51 319.62 695.68 322.48 693.89C325.34 692.1 343.57 706.22 342.9 722.32C342.39 734.53 331.49 736.01 330.09 749.94C328.76 763.17 338.02 767.61 334.89 779.94C333.3 786.22 328.47 794.71 321.28 795.55C311.78 796.68 304.57 783.68 304.07 782.75Z" fill="url(#paint1_linear_1_36153)"/>
<path d="M867.57 800.12C891.01 828.56 936.78 873.37 960.17 932.7C986 998.27 984.08 1068.38 985.4 1107" stroke="black" stroke-width="14" stroke-miterlimit="10"/>
<path d="M990.23 1106C1002.67 1131.33 1004.02 1153.78 993.92 1162.06C988.12 1166.82 977.24 1167.96 973.27 1163.54C967.73 1157.37 978.38 1143.47 973.27 1138.46C967.78 1133.08 953.9 1143.99 952.64 1141.27C947.35 1129.84 957.47 1131.51 969.58 1119.27C974.23 1114.57 976.04 1111.38 979.9 1105.99C982.24 1102.72 987.47 1105.14 990.23 1106Z" fill="#010101" stroke="black" stroke-width="4" stroke-miterlimit="10"/>
<defs>
<linearGradient id="paint0_linear_1_36153" x1="298.55" y1="875.65" x2="403.76" y2="770.44" gradientUnits="userSpaceOnUse">
<stop stop-color="#F1F2F2" stop-opacity="0.7"/>
<stop offset="0.12" stop-color="#F2F2F2" stop-opacity="0.67"/>
<stop offset="0.28" stop-color="#F3F4F4" stop-opacity="0.6"/>
<stop offset="0.47" stop-color="#F5F6F6" stop-opacity="0.48"/>
<stop offset="0.69" stop-color="#F9F9F9" stop-opacity="0.31"/>
<stop offset="0.91" stop-color="#FDFDFD" stop-opacity="0.09"/>
<stop offset="1" stop-color="white" stop-opacity="0"/>
</linearGradient>
<linearGradient id="paint1_linear_1_36153" x1="293.82" y1="774.46" x2="350.49" y2="717.8" gradientUnits="userSpaceOnUse">
<stop stop-color="white" stop-opacity="0"/>
<stop offset="1" stop-color="#F1F2F2" stop-opacity="0.7"/>
</linearGradient>
</defs>
</svg>
