<svg width="1660" height="1660" viewBox="0 0 1660 1660" fill="none" xmlns="http://www.w3.org/2000/svg">
<path d="M783.17 807.5C759.72 835.94 740.7 880.74 697.17 927.29C634.87 993.85 514.79 995.97 476.89 979.82" stroke="black" stroke-width="14" stroke-miterlimit="10"/>
<path d="M482 985.87C459.07 1002.31 437.15 1007.35 427.31 998.76C421.66 993.82 418.74 983.28 422.45 978.63C427.62 972.15 443.08 980.37 447.19 974.49C451.58 968.19 439.85 978.6 438.19 972C435.19 959.77 451.4 957.77 465.46 967.69C470.86 971.5 474.3 972.77 480.26 975.69C483.89 977.45 482.37 983 482 985.87Z" fill="#010101" stroke="black" stroke-width="4" stroke-miterlimit="10"/>
<path d="M447.57 973.3C451.97 967.01 440.23 977.41 438.57 970.81C435.57 958.59 451.78 956.58 465.84 966.5C471.24 970.31 474.68 971.58 480.64 974.5C484.25 976.26 482.72 981.82 482.34 984.68" fill="#010101"/>
<path d="M447.57 973.3C451.97 967.01 440.23 977.41 438.57 970.81C435.57 958.59 451.78 956.58 465.84 966.5C471.24 970.31 474.68 971.58 480.64 974.5C484.25 976.26 482.72 981.82 482.34 984.68" stroke="black" stroke-width="4" stroke-miterlimit="10"/>
<path d="M444.13 1028.16C562.424 1028.16 658.32 932.264 658.32 813.97C658.32 695.676 562.424 599.78 444.13 599.78C325.836 599.78 229.94 695.676 229.94 813.97C229.94 932.264 325.836 1028.16 444.13 1028.16Z" fill="url(#paint0_radial_1_35621)"/>
<path d="M444.11 689.51L442.44 695.18V859.77L444.11 861.43L520.51 816.28L444.11 689.51Z" fill="#F1A12B"/>
<path d="M444.11 689.51L367.71 816.28L444.11 861.43V781.55V689.51Z" fill="#FFF4EC"/>
<path d="M444.11 875.9L443.17 877.05V935.68L444.11 938.42L520.55 830.76L444.11 875.9Z" fill="#C7882B"/>
<path d="M444.11 938.42V875.9L367.71 830.76L444.11 938.42Z" fill="#FFF4EC"/>
<path d="M867.57 800.12C891.01 828.56 936.78 873.37 960.17 932.7C986 998.27 984.08 1068.38 985.4 1107" stroke="black" stroke-width="14" stroke-miterlimit="10"/>
<path d="M990.23 1106C1002.67 1131.33 1004.02 1153.78 993.92 1162.06C988.12 1166.82 977.24 1167.96 973.27 1163.54C967.73 1157.37 978.38 1143.47 973.27 1138.46C967.78 1133.08 953.9 1143.99 952.64 1141.27C947.35 1129.84 957.47 1131.51 969.58 1119.27C974.23 1114.57 976.04 1111.38 979.9 1105.99C982.24 1102.72 987.47 1105.14 990.23 1106Z" fill="#010101" stroke="black" stroke-width="4" stroke-miterlimit="10"/>
<defs>
<radialGradient id="paint0_radial_1_35621" cx="0" cy="0" r="1" gradientUnits="userSpaceOnUse" gradientTransform="translate(444.13 813.97) scale(214.19)">
<stop stop-color="#FBB040"/>
<stop offset="0.44" stop-color="#FDB832" stop-opacity="0.54"/>
<stop offset="0.83" stop-color="#FEBF27" stop-opacity="0.15"/>
<stop offset="1" stop-color="#FFC222" stop-opacity="0"/>
</radialGradient>
</defs>
</svg>
