<svg width="1660" height="1660" viewBox="0 0 1660 1660" fill="none" xmlns="http://www.w3.org/2000/svg">
<path d="M783.17 807.5C759.72 835.94 740.7 880.74 697.17 927.29C634.87 993.85 514.79 995.97 476.89 979.82" stroke="black" stroke-width="14" stroke-miterlimit="10"/>
<path d="M482 985.87C459.07 1002.31 437.15 1007.35 427.31 998.76C421.66 993.82 418.74 983.28 422.45 978.63C427.62 972.15 443.08 980.37 447.19 974.49C451.58 968.19 439.85 978.6 438.19 972C435.19 959.77 451.4 957.77 465.46 967.69C470.86 971.5 474.3 972.77 480.26 975.69C483.89 977.45 482.37 983 482 985.87Z" fill="#010101" stroke="black" stroke-width="4" stroke-miterlimit="10"/>
<path d="M520 1073.1C522.35 1076.1 526.67 1082.83 529 1085.85C531 1094.78 535 1113.07 536.61 1120.68C542.11 1145.78 545.85 1171.23 550.61 1196.47C554.19 1215.24 556.08 1224.27 551.2 1228.08C545.55 1232.48 535.34 1225.74 525.65 1222.57C509.65 1217.34 469.84 1204.3 430.36 1203.09C408.81 1202.43 386.14 1205.27 370.7 1209.29C352.56 1214.01 345.01 1216.55 345.01 1216.55C333.11 1220.55 330.58 1222.35 325.13 1222.65C311.45 1223.4 301.22 1217.82 297.43 1214.11C296.8 1213.49 295.54 1212.27 295.2 1211.89" fill="url(#paint0_radial_1_35633)"/>
<path d="M520 1073.1C522.35 1076.1 526.67 1082.83 529 1085.85C531 1094.78 535 1113.07 536.61 1120.68C542.11 1145.78 545.85 1171.23 550.61 1196.47C554.19 1215.24 556.08 1224.27 551.2 1228.08C545.55 1232.48 535.34 1225.74 525.65 1222.57C509.65 1217.34 469.84 1204.3 430.36 1203.09C408.81 1202.43 386.14 1205.27 370.7 1209.29C352.56 1214.01 345.01 1216.55 345.01 1216.55C333.11 1220.55 330.58 1222.35 325.13 1222.65C311.45 1223.4 301.22 1217.82 297.43 1214.11C296.8 1213.49 295.54 1212.27 295.2 1211.89" stroke="#010101" stroke-width="4" stroke-miterlimit="10"/>
<path d="M296.78 1210.12C307.707 1164.87 318.64 1119.62 329.58 1074.36L519.65 1073.79C521.73 1123.38 523.8 1171.25 525.87 1220.79C503.28 1209.79 463.31 1195.67 411.04 1193.1C372.205 1191.22 333.381 1197 296.78 1210.12V1210.12Z" fill="url(#paint1_radial_1_35633)" stroke="#010101" stroke-width="4" stroke-miterlimit="10"/>
<path d="M370.61 1072.9C366.61 1072.06 367.3 1054.59 367.45 1053.53C369.45 1039.42 370.29 1035.14 373.67 1026.01C379.42 1010.46 382.3 1002.68 388.44 994.35C392.79 988.44 411.92 962.44 439.57 964.85C460.92 966.72 474.42 984.41 475.62 986.05C478.623 990.378 481.135 995.027 483.11 999.91C484.87 1003.91 486.67 1008.61 491.83 1030.71C495.66 1047.14 494.96 1051.46 494.5 1055.09C493.24 1065.15 488.63 1073.61 485.28 1073.09C484.35 1072.95 483.37 1071.9 481.68 1065.14C479.57 1056.71 480.21 1054.22 479.78 1045.14C479.38 1036.73 478.78 1017.98 468.31 1001.2C466.81 998.81 454.96 980.48 436.4 979.78C413.63 978.93 398.51 1005.25 397 1007.96C391.439 1018.48 387.566 1029.82 385.52 1041.54C384.424 1048.58 382.283 1055.41 379.17 1061.81C377.47 1065.29 373.44 1073.51 370.61 1072.9Z" fill="url(#paint2_radial_1_35633)" stroke="#010101" stroke-width="4" stroke-miterlimit="10"/>
<path d="M306.09 1171.58C340.872 1161.72 376.847 1156.7 413 1156.67C449.005 1156.84 484.792 1162.26 519.23 1172.77C518.16 1140.87 517.08 1105.69 516.01 1073.77" stroke="#010101" stroke-width="4" stroke-miterlimit="10"/>
<path opacity="0.23" d="M304.75 1175.36C339.532 1165.5 375.508 1160.49 411.66 1160.46C456.05 1160.65 498.36 1170 523.66 1177.73" stroke="#010101" stroke-width="4" stroke-miterlimit="10"/>
<path opacity="0.26" d="M431.32 1186C429.8 1183.53 428.32 1183.1 428.32 1181.36C428.32 1179.62 429.93 1178.97 431.07 1175.97C431.579 1174.51 431.842 1172.98 431.85 1171.43C431.78 1165.51 424.19 1161.15 423.54 1160.79L393.13 1160.25L392 1202.5L424.87 1203.5C425.45 1203.21 433.19 1199.24 433.36 1193.06C433.332 1190.57 432.627 1188.13 431.32 1186ZM420.05 1197.26L399.33 1196.78L399.54 1185.67L421.15 1186.26C422.06 1186.79 422.828 1187.53 423.387 1188.42C423.947 1189.32 424.28 1190.33 424.36 1191.38C424.361 1192.69 423.943 1193.97 423.168 1195.03C422.393 1196.08 421.301 1196.87 420.05 1197.26V1197.26ZM420.53 1179.65L399.81 1179.17L400.02 1168.06L421.63 1168.65C422.54 1169.18 423.308 1169.92 423.867 1170.81C424.427 1171.71 424.76 1172.72 424.84 1173.77C424.839 1175.08 424.421 1176.36 423.646 1177.41C422.871 1178.47 421.78 1179.25 420.53 1179.65V1179.65Z" fill="#010101" stroke="#010101" stroke-width="4" stroke-miterlimit="10"/>
<path d="M431.44 1187.45C430.03 1185.15 428.7 1184.76 428.67 1183.15C428.64 1181.54 430.16 1180.94 431.22 1178.15C431.69 1176.8 431.93 1175.38 431.93 1173.95C431.87 1168.47 424.85 1164.44 424.25 1164.1L396.1 1163.6L395.03 1202.7L425.46 1203.7C425.99 1203.44 433.16 1199.76 433.31 1194.04C433.301 1191.71 432.654 1189.43 431.44 1187.45V1187.45ZM421 1197.87L401.81 1197.43C401.877 1194 401.943 1190.57 402.01 1187.14L422.01 1187.69C422.857 1188.17 423.573 1188.86 424.096 1189.68C424.619 1190.51 424.932 1191.45 425.01 1192.42C425.008 1193.64 424.618 1194.82 423.897 1195.8C423.176 1196.78 422.161 1197.51 421 1197.87V1197.87ZM421.44 1181.57L402.26 1181.13C402.32 1177.7 402.387 1174.27 402.46 1170.84L422.46 1171.39C423.307 1171.88 424.023 1172.56 424.546 1173.38C425.069 1174.21 425.382 1175.15 425.46 1176.12C425.462 1177.34 425.075 1178.52 424.355 1179.5C423.636 1180.48 422.621 1181.21 421.46 1181.57H421.44Z" fill="url(#paint3_radial_1_35633)" stroke="#977458" stroke-width="2" stroke-miterlimit="10"/>
<path d="M406.24 1156.67C405.65 1156.67 405.19 1157.5 405.24 1158.46C405.39 1160.35 405.51 1162.4 405.58 1164.59C405.65 1166.78 405.64 1168.94 405.58 1170.89C405.532 1171.23 405.597 1171.57 405.763 1171.87C405.929 1172.16 406.188 1172.4 406.5 1172.53C411.269 1173.69 416.227 1173.85 421.06 1172.99C421.59 1172.9 421.81 1171.7 421.85 1170.84C421.96 1168.54 421.93 1167.49 421.85 1164.66C421.76 1162.32 421.6 1160.16 421.4 1158.22C421.32 1157.46 420.92 1156.9 420.45 1156.89L406.24 1156.67Z" fill="url(#paint4_linear_1_35633)" stroke="#010101" stroke-width="4" stroke-miterlimit="10"/>
<path d="M447.2 973.33C447.2 974.71 440.2 977.41 438.61 970.81C435.61 958.59 451.82 956.58 465.88 966.5C471.28 970.31 474.72 971.58 480.68 974.5C484.29 976.26 482.76 981.82 482.38 984.68" fill="#010101"/>
<path d="M447.2 973.33C447.2 974.71 440.2 977.41 438.61 970.81C435.61 958.59 451.82 956.58 465.88 966.5C471.28 970.31 474.72 971.58 480.68 974.5C484.29 976.26 482.76 981.82 482.38 984.68" stroke="black" stroke-width="4" stroke-miterlimit="10"/>
<path d="M427.3 998.76C421.65 993.82 418.73 983.28 422.44 978.63C427.61 972.15 436.66 978.27 443.21 981.18" fill="#010101"/>
<path d="M427.3 998.76C421.65 993.82 418.73 983.28 422.44 978.63C427.61 972.15 436.66 978.27 443.21 981.18" stroke="black" stroke-width="4" stroke-miterlimit="10"/>
<path d="M867.57 800.12C891.01 828.56 936.78 873.37 960.17 932.7C986 998.27 984.08 1068.38 985.4 1107" stroke="black" stroke-width="14" stroke-miterlimit="10"/>
<path d="M990.23 1106C1002.67 1131.33 1004.02 1153.78 993.92 1162.06C988.12 1166.82 977.24 1167.96 973.27 1163.54C967.73 1157.37 978.38 1143.47 973.27 1138.46C967.78 1133.08 953.9 1143.99 952.64 1141.27C947.35 1129.84 957.47 1131.51 969.58 1119.27C974.23 1114.57 976.04 1111.38 979.9 1105.99C982.24 1102.72 987.47 1105.14 990.23 1106Z" fill="#010101" stroke="black" stroke-width="4" stroke-miterlimit="10"/>
<defs>
<radialGradient id="paint0_radial_1_35633" cx="0" cy="0" r="1" gradientUnits="userSpaceOnUse" gradientTransform="translate(424.72 1151.32) scale(106.96)">
<stop stop-color="#333132"/>
<stop offset="0.51" stop-color="#2D2B2C"/>
<stop offset="1" stop-color="#231F20"/>
</radialGradient>
<radialGradient id="paint1_radial_1_35633" cx="0" cy="0" r="1" gradientUnits="userSpaceOnUse" gradientTransform="translate(411.32 1147.32) scale(96.25)">
<stop stop-color="#414042"/>
<stop offset="0.43" stop-color="#3C3A3C"/>
<stop offset="1" stop-color="#2D2A2B"/>
</radialGradient>
<radialGradient id="paint2_radial_1_35633" cx="0" cy="0" r="1" gradientUnits="userSpaceOnUse" gradientTransform="translate(431.1 1018.9) scale(59.18)">
<stop stop-color="#414042"/>
<stop offset="0.43" stop-color="#3C3A3C"/>
<stop offset="1" stop-color="#2D2A2B"/>
</radialGradient>
<radialGradient id="paint3_radial_1_35633" cx="0" cy="0" r="1" gradientUnits="userSpaceOnUse" gradientTransform="translate(414.679 1183.59) rotate(1.56) scale(19.39)">
<stop stop-color="#B58B62"/>
<stop offset="1" stop-color="#C09774"/>
</radialGradient>
<linearGradient id="paint4_linear_1_35633" x1="415.06" y1="1173.08" x2="415.06" y2="1156.23" gradientUnits="userSpaceOnUse">
<stop stop-color="#2D2A2B"/>
<stop offset="0.05" stop-color="#2F2C2D"/>
<stop offset="0.58" stop-color="#3C3B3D"/>
<stop offset="0.99" stop-color="#414042"/>
</linearGradient>
</defs>
</svg>
