<svg width="1660" height="1660" viewBox="0 0 1660 1660" fill="none" xmlns="http://www.w3.org/2000/svg">
<path d="M548.65 676.53C551.878 675.077 554.596 672.688 556.451 669.673C558.307 666.659 559.216 663.157 559.06 659.62C558.5 650.92 551.15 646.35 550.46 645.94L514.52 645.16L513.88 707L548.12 707.25C551.297 706.158 554.06 704.114 556.035 701.397C558.01 698.679 559.101 695.419 559.159 692.061C559.217 688.702 558.239 685.407 556.359 682.623C554.479 679.839 551.787 677.701 548.65 676.5V676.53ZM546.41 690.69C546.281 692.518 545.757 694.297 544.873 695.903C543.989 697.509 542.766 698.903 541.29 699.99H526.78L526.57 680.58H543.42C545.677 683.441 546.748 687.061 546.41 690.69V690.69ZM546.52 663.3C546.303 664.856 545.728 666.341 544.839 667.638C543.951 668.934 542.773 670.006 541.4 670.77H526.89L526.68 655.19H543.53C544.6 656.235 545.423 657.505 545.94 658.907C546.458 660.31 546.656 661.811 546.52 663.3Z" fill="url(#paint0_linear_1_46201)" stroke="#010101" stroke-width="4" stroke-miterlimit="10"/>
<path d="M536.08 602.71C533.08 604.07 531.31 606.78 530.08 609.54C526.36 618.06 516.92 652.54 531.36 661.17C534.76 663.17 539.89 664.04 542.46 661.81C546.26 658.49 540.46 651.87 541.18 639.41C541.85 628.24 547.18 622.67 546.5 610.17C546.37 607.71 545.97 604.34 543.5 602.71C540.58 600.73 536.46 602.54 536.08 602.71Z" fill="url(#paint1_linear_1_46201)" stroke="#010101" stroke-width="4" stroke-miterlimit="10"/>
<path d="M1140.27 676.53C1143.5 675.076 1146.21 672.687 1148.07 669.672C1149.92 666.658 1150.83 663.156 1150.67 659.62C1150.11 650.92 1142.76 646.35 1142.08 645.94L1106.13 645.16L1105.49 707.03L1139.73 707.28C1142.91 706.189 1145.67 704.146 1147.65 701.429C1149.62 698.712 1150.71 695.453 1150.77 692.094C1150.83 688.735 1149.86 685.44 1147.98 682.655C1146.1 679.871 1143.41 677.732 1140.27 676.53V676.53ZM1138 690.69C1137.87 692.519 1137.35 694.298 1136.47 695.904C1135.58 697.511 1134.36 698.905 1132.88 699.99H1118.37L1118.16 680.58H1135C1137.27 683.438 1138.34 687.059 1138 690.69ZM1138.12 663.3C1137.9 664.857 1137.33 666.343 1136.43 667.639C1135.54 668.936 1134.37 670.007 1132.99 670.77H1118.49C1118.42 665.583 1118.35 660.39 1118.27 655.19H1135.13C1136.2 656.234 1137.03 657.503 1137.55 658.906C1138.07 660.309 1138.27 661.81 1138.14 663.3H1138.12Z" fill="url(#paint2_linear_1_46201)" stroke="#010101" stroke-width="4" stroke-miterlimit="10"/>
<path d="M1125.74 602.71C1128.74 604.07 1130.5 606.78 1131.74 609.54C1135.46 618.06 1144.91 652.54 1130.46 661.17C1127.07 663.17 1121.93 664.04 1119.37 661.81C1115.56 658.49 1121.37 651.87 1120.64 639.41C1119.98 628.24 1114.64 622.67 1115.32 610.17C1115.46 607.71 1115.86 604.34 1118.32 602.71C1121.23 600.73 1125.35 602.54 1125.74 602.71Z" fill="url(#paint3_linear_1_46201)" stroke="#010101" stroke-width="4" stroke-miterlimit="10"/>
<defs>
<linearGradient id="paint0_linear_1_46201" x1="513.88" y1="676.22" x2="559.15" y2="676.22" gradientUnits="userSpaceOnUse">
<stop stop-color="#603A17"/>
<stop offset="0.42" stop-color="#623B17"/>
<stop offset="0.58" stop-color="#694119"/>
<stop offset="0.69" stop-color="#744A1C"/>
<stop offset="0.77" stop-color="#855821"/>
<stop offset="0.85" stop-color="#9B6927"/>
<stop offset="0.92" stop-color="#B77F2E"/>
<stop offset="0.98" stop-color="#D69836"/>
<stop offset="1" stop-color="#E5A43A"/>
</linearGradient>
<linearGradient id="paint1_linear_1_46201" x1="523.62" y1="632.46" x2="546.58" y2="632.46" gradientUnits="userSpaceOnUse">
<stop stop-color="#603A17"/>
<stop offset="0.15" stop-color="#653E18"/>
<stop offset="0.33" stop-color="#73491C"/>
<stop offset="0.52" stop-color="#8B5C22"/>
<stop offset="0.73" stop-color="#AD772B"/>
<stop offset="0.94" stop-color="#D79936"/>
<stop offset="1" stop-color="#E5A43A"/>
</linearGradient>
<linearGradient id="paint2_linear_1_46201" x1="1105.49" y1="676.22" x2="1150.76" y2="676.22" gradientUnits="userSpaceOnUse">
<stop stop-color="#603A17"/>
<stop offset="0.15" stop-color="#7C511E"/>
<stop offset="0.42" stop-color="#A9742A"/>
<stop offset="0.66" stop-color="#CA8E33"/>
<stop offset="0.86" stop-color="#DE9E38"/>
<stop offset="1" stop-color="#E5A43A"/>
</linearGradient>
<linearGradient id="paint3_linear_1_46201" x1="1138.2" y1="632.46" x2="1115.24" y2="632.46" gradientUnits="userSpaceOnUse">
<stop stop-color="#E5A43A"/>
<stop offset="1" stop-color="#603A17"/>
</linearGradient>
</defs>
</svg>
