<svg width="1660" height="1660" viewBox="0 0 1660 1660" fill="none" xmlns="http://www.w3.org/2000/svg">
<path d="M628.64 576.22C625.16 574.98 602.54 566.75 590.64 554.01C590.64 554.01 583.64 546.57 581.91 536.71C581.77 535.9 581.11 528.49 581.91 526.91C584.08 522.59 594.81 522.34 597.21 525.19C598.94 527.25 594.38 534.76 595.06 541.19C595.427 544.249 596.385 547.207 597.88 549.9C600.29 554.73 603.55 557.96 608.57 562.1C614.891 567.311 621.6 572.031 628.64 576.22V576.22Z" fill="#010101"/>
<path d="M790.52 603.24C793.8 598.24 763.73 568.09 725.74 548.16C697.56 533.38 674.11 529 658 526C634.71 521.8 599.73 515.48 593 528.31C587.92 537.93 600.46 555.01 608.88 563.17C611.7 565.89 619.83 573.17 637.88 578.91C663.56 587.02 672.99 580.36 710.88 585.26C722.552 586.807 734.138 588.953 745.59 591.69C777.08 599.1 788.66 606.13 790.52 603.24Z" fill="#ECECEC"/>
<path d="M726.7 545.11C726.01 546.23 725.78 551.86 717.26 557.73C682.92 581.4 653.97 558.82 646.18 549.3C643.907 546.722 641.956 543.878 640.37 540.83C637.778 535.376 636.125 529.524 635.48 523.52C634.79 516.82 634.86 516.11 635.43 513.02" fill="url(#paint0_radial_1_46486)"/>
<path d="M726.7 545.11C726.01 546.23 725.78 551.86 717.26 557.73C682.92 581.4 653.97 558.82 646.18 549.3C643.907 546.722 641.956 543.878 640.37 540.83C637.778 535.376 636.125 529.524 635.48 523.52C634.79 516.82 634.86 516.11 635.43 513.02" stroke="#010101" stroke-width="4" stroke-miterlimit="10"/>
<path d="M708.6 533.7C705.83 548.64 692.83 555.64 677.89 552.87C670.683 551.498 664.309 547.336 660.153 541.289C655.998 535.243 654.398 527.8 655.7 520.58" fill="#010101"/>
<path d="M705.73 553.97C711.159 553.97 715.56 549.569 715.56 544.14C715.56 538.711 711.159 534.31 705.73 534.31C700.301 534.31 695.9 538.711 695.9 544.14C695.9 549.569 700.301 553.97 705.73 553.97Z" fill="#E4E4E4"/>
<path d="M791.4 604.17C794.67 599.17 764.6 569.02 726.61 549.09C698.44 534.3 675 529.87 658.91 527C635.62 522.79 600.64 516.48 593.91 529.31C588.83 538.93 601.36 556 609.79 564.16C612.6 566.88 620.79 574.16 638.79 579.91C664.47 588.01 673.89 581.36 711.79 586.25C723.461 587.809 735.045 589.955 746.5 592.68C778 600 789.53 607.05 791.4 604.17Z" stroke="#010101" stroke-width="4" stroke-miterlimit="10"/>
<path d="M791 601C790.69 601.34 771.1 572.55 729.39 550.59C681.18 525.19 619.51 517.45 588.89 526C583.631 527.646 578.1 528.247 572.61 527.77C555.05 526.11 541.61 512.91 532.21 500.35C546.994 504.899 562.191 507.981 577.58 509.55C597.53 511.55 605.58 509.68 627.46 511.61C642.041 513.105 656.513 515.52 670.79 518.84C732.1 533.09 791.56 600.46 791 601Z" fill="#010101"/>
<path opacity="0.2" d="M789.56 602.81C788.24 598.04 780.16 589.88 771.37 582.12C764.831 576.408 757.958 571.089 750.79 566.19C736.19 555.87 724.15 550.46 721.58 548.9C713.36 543.9 695.07 537.55 669.93 531.49C669.93 531.49 655.62 527.72 632.15 524.73C627.6 524.15 623.53 523.83 619.31 523.73C615.371 523.487 611.417 523.648 607.51 524.21C603.3 524.89 600.85 525.59 598.15 527.42C596.67 528.315 595.595 529.748 595.15 531.42C607.15 533.13 621.72 535.25 638.21 537.68C674.91 543.1 682.86 544.48 694.39 547.99C708.06 552.14 718.28 556.69 728.49 561.23C742.49 567.46 752.49 571.93 764.31 580.12C773.616 586.631 782.095 594.25 789.56 602.81V602.81Z" fill="#40403C"/>
<path d="M1031.36 576.22C1034.84 574.98 1057.46 566.75 1069.36 554.01C1069.36 554.01 1076.36 546.57 1078.09 536.71C1078.23 535.9 1078.89 528.49 1078.09 526.91C1075.92 522.59 1065.19 522.34 1062.79 525.19C1061.06 527.25 1065.62 534.76 1064.94 541.19C1064.57 544.249 1063.62 547.207 1062.12 549.9C1059.71 554.73 1056.45 557.96 1051.43 562.1C1045.11 567.311 1038.4 572.031 1031.36 576.22Z" fill="#010101"/>
<path d="M869.48 603.24C866.2 598.24 896.27 568.09 934.26 548.16C962.44 533.38 985.89 529 1002 526C1025.29 521.8 1060.27 515.48 1067 528.31C1072.08 537.93 1059.54 555.01 1051.12 563.17C1048.3 565.89 1040.12 573.17 1022.12 578.91C996.44 587.02 987.01 580.36 949.12 585.26C937.447 586.807 925.862 588.953 914.41 591.69C882.92 599.1 871.34 606.13 869.48 603.24Z" fill="#ECECEC"/>
<path d="M933.3 545.11C933.99 546.23 934.22 551.86 942.74 557.73C977.08 581.4 1006.03 558.82 1013.82 549.3C1016.09 546.722 1018.04 543.878 1019.63 540.83C1022.22 535.376 1023.88 529.524 1024.52 523.52C1025.21 516.82 1025.14 516.11 1024.52 513.02" fill="url(#paint1_radial_1_46486)"/>
<path d="M933.3 545.11C933.99 546.23 934.22 551.86 942.74 557.73C977.08 581.4 1006.03 558.82 1013.82 549.3C1016.09 546.722 1018.04 543.878 1019.63 540.83C1022.22 535.376 1023.88 529.524 1024.52 523.52C1025.21 516.82 1025.14 516.11 1024.52 513.02" stroke="#010101" stroke-width="4" stroke-miterlimit="10"/>
<path d="M951.4 533.7C954.17 548.64 967.17 555.64 982.11 552.87C989.317 551.498 995.691 547.336 999.846 541.289C1004 535.243 1005.6 527.8 1004.3 520.58" fill="#010101"/>
<path d="M954.27 553.97C959.699 553.97 964.1 549.569 964.1 544.14C964.1 538.711 959.699 534.31 954.27 534.31C948.841 534.31 944.44 538.711 944.44 544.14C944.44 549.569 948.841 553.97 954.27 553.97Z" fill="#E4E4E4"/>
<path d="M868.6 604.17C865.33 599.17 895.4 569.02 933.39 549.09C961.56 534.3 985.01 529.87 1001.09 526.97C1024.38 522.76 1059.36 516.45 1066.14 529.28C1071.22 538.9 1058.69 555.97 1050.26 564.13C1047.45 566.85 1039.26 574.13 1021.26 579.88C995.58 587.98 986.16 581.33 948.26 586.22C936.589 587.778 925.005 589.925 913.55 592.65C882.05 600 870.47 607.05 868.6 604.17Z" stroke="#010101" stroke-width="4" stroke-miterlimit="10"/>
<path d="M869 601C869.31 601.34 888.9 572.55 930.61 550.59C978.86 525.18 1040.53 517.44 1071.15 525.95C1076.41 527.596 1081.94 528.197 1087.43 527.72C1104.99 526.06 1118.43 512.86 1127.83 500.3C1113.05 504.849 1097.85 507.931 1082.46 509.5C1062.46 511.5 1054.46 509.63 1032.58 511.56C1018 513.055 1003.53 515.47 989.25 518.79C927.9 533.09 868.44 600.46 869 601Z" fill="#010101"/>
<path opacity="0.2" d="M870.44 602.81C871.76 598.04 879.84 589.88 888.63 582.12C895.169 576.408 902.041 571.089 909.21 566.19C923.81 555.87 935.85 550.46 938.42 548.9C946.64 543.9 964.93 537.55 990.07 531.49C990.07 531.49 1004.38 527.72 1027.85 524.73C1032.4 524.15 1036.47 523.83 1040.69 523.73C1044.63 523.487 1048.58 523.648 1052.49 524.21C1056.7 524.89 1059.15 525.59 1061.85 527.42C1063.33 528.315 1064.41 529.748 1064.85 531.42C1052.85 533.13 1038.28 535.25 1021.79 537.68C985.09 543.1 977.14 544.48 965.61 547.99C951.94 552.14 941.72 556.69 931.51 561.23C917.51 567.46 907.51 571.93 895.69 580.12C886.384 586.631 877.905 594.25 870.44 602.81V602.81Z" fill="#40403C"/>
<defs>
<radialGradient id="paint0_radial_1_46486" cx="0" cy="0" r="1" gradientUnits="userSpaceOnUse" gradientTransform="translate(681.962 544.331) rotate(-169.592) scale(37.3349)">
<stop stop-color="#75A54F"/>
<stop offset="0.34" stop-color="#73A451"/>
<stop offset="0.52" stop-color="#6BA059"/>
<stop offset="0.66" stop-color="#5E9A66"/>
<stop offset="0.77" stop-color="#4C9179"/>
<stop offset="0.88" stop-color="#348592"/>
<stop offset="0.97" stop-color="#1677AF"/>
<stop offset="1" stop-color="#0C72BA"/>
</radialGradient>
<radialGradient id="paint1_radial_1_46486" cx="0" cy="0" r="1" gradientUnits="userSpaceOnUse" gradientTransform="translate(981.762 543.653) rotate(-10.5) scale(37.47)">
<stop stop-color="#75A54F"/>
<stop offset="0.34" stop-color="#73A451"/>
<stop offset="0.52" stop-color="#6BA059"/>
<stop offset="0.66" stop-color="#5E9A66"/>
<stop offset="0.77" stop-color="#4C9179"/>
<stop offset="0.88" stop-color="#348592"/>
<stop offset="0.97" stop-color="#1677AF"/>
<stop offset="1" stop-color="#0C72BA"/>
</radialGradient>
</defs>
</svg>
