<svg width="1660" height="1660" viewBox="0 0 1660 1660" fill="none" xmlns="http://www.w3.org/2000/svg">
<path d="M885.6 1340.44C898.276 1345 911.833 1346.59 925.221 1345.07C938.608 1343.55 951.466 1338.98 962.8 1331.69C962.28 1339.27 961.69 1351.23 962 1365.91C962.54 1391.32 965.36 1404.98 967.57 1428.78C971.41 1470.18 966.57 1468.34 969.96 1487.67C979.52 1541.5 1020.29 1565.37 1006.34 1576.59C990.34 1589.42 940.43 1580.18 916.64 1562.48C912.38 1559.32 915.22 1558.32 904.7 1512.34C897.26 1479.82 895.01 1473.28 889.58 1465.39C882.74 1455.39 877.73 1453.32 871.28 1440.72C866.88 1432.13 862.18 1422.96 863.28 1412.07C864.7 1398.43 873.89 1395.07 880.79 1380.23C884.62 1372 888.2 1359.29 885.6 1340.44Z" fill="url(#paint0_linear_1_37764)" stroke="#010101" stroke-width="4" stroke-miterlimit="10"/>
<path d="M883.94 1337.57C891.8 1333.16 904.04 1328.42 919.33 1326.12C929.959 1324.69 940.739 1324.83 951.33 1326.51C956.51 1327.32 961.11 1327.31 964.21 1328.16C957.33 1337.54 949.41 1343.42 944.87 1345.79C919.53 1359.06 893.77 1346.31 891.01 1344.34C888.405 1342.36 886.034 1340.09 883.94 1337.57V1337.57Z" fill="#010101" stroke="#010101" stroke-miterlimit="10"/>
<path d="M877.41 1450.73V1520.12L887.35 1520.35L885.16 1451.68L879.4 1450.5L877.5 1450.32" fill="#010101"/>
<path d="M877.41 1450.73V1520.12L887.35 1520.35L885.16 1451.68L879.4 1450.5L877.5 1450.32" stroke="#010101" stroke-width="4" stroke-miterlimit="10"/>
<path d="M774.4 1340.44C761.724 1345 748.167 1346.59 734.779 1345.07C721.392 1343.55 708.534 1338.98 697.2 1331.69C697.72 1339.27 698.31 1351.23 698 1365.91C697.46 1391.32 694.64 1404.98 692.43 1428.78C688.59 1470.18 693.43 1468.34 690.04 1487.67C680.48 1541.5 639.71 1565.37 653.66 1576.59C669.66 1589.42 719.57 1580.18 743.36 1562.48C747.62 1559.32 744.78 1558.32 755.3 1512.34C762.74 1479.82 764.99 1473.28 770.42 1465.39C777.26 1455.39 782.27 1453.32 788.72 1440.72C793.12 1432.13 797.82 1422.96 796.72 1412.07C795.3 1398.43 786.11 1395.07 779.21 1380.23C775.38 1372 771.8 1359.29 774.4 1340.44Z" fill="url(#paint1_linear_1_37764)" stroke="#010101" stroke-width="4" stroke-miterlimit="10"/>
<path d="M776 1337.57C768.14 1333.16 755.94 1328.42 740.65 1326.12C730.021 1324.69 719.241 1324.83 708.65 1326.51C703.47 1327.32 699.32 1327.94 695.83 1328.29C702.71 1337.67 710.57 1343.42 715.11 1345.79C740.45 1359.06 766.21 1346.31 768.97 1344.34C771.564 1342.36 773.922 1340.09 776 1337.57V1337.57Z" fill="#010101" stroke="#010101" stroke-miterlimit="10"/>
<path d="M782.59 1450.73V1520.12L772.65 1520.35L774.84 1451.68L780.6 1450.5L782.5 1450.32" fill="#010101"/>
<path d="M782.59 1450.73V1520.12L772.65 1520.35L774.84 1451.68L780.6 1450.5L782.5 1450.32" stroke="#010101" stroke-width="4" stroke-miterlimit="10"/>
<defs>
<linearGradient id="paint0_linear_1_37764" x1="878.48" y1="1497.6" x2="1013.56" y2="1419.61" gradientUnits="userSpaceOnUse">
<stop stop-color="#010101"/>
<stop offset="1" stop-color="#1A1A1A"/>
</linearGradient>
<linearGradient id="paint1_linear_1_37764" x1="650.78" y1="1457.13" x2="796.85" y2="1457.13" gradientUnits="userSpaceOnUse">
<stop stop-color="#1A1A1A"/>
<stop offset="1" stop-color="#010101"/>
</linearGradient>
</defs>
</svg>
