<svg width="1660" height="1660" viewBox="0 0 1660 1660" fill="none" xmlns="http://www.w3.org/2000/svg">
<path d="M587.48 582.69C587.001 584.36 586.949 586.124 587.33 587.82C587.524 588.501 587.875 589.126 588.354 589.647C588.834 590.168 589.428 590.57 590.09 590.82C590.821 590.991 591.584 590.962 592.3 590.737C593.016 590.512 593.658 590.098 594.16 589.54C595.287 588.478 596.251 587.255 597.02 585.91C597.914 584.379 598.555 582.715 598.92 580.98C599.12 580.04 597.68 579.63 597.48 580.58C597.137 582.216 596.532 583.786 595.69 585.23C594.915 586.641 593.868 587.885 592.61 588.89C592.33 589.129 591.997 589.299 591.64 589.386C591.282 589.472 590.908 589.474 590.55 589.39C589.967 589.184 589.476 588.781 589.16 588.25C588.16 586.72 588.6 584.77 588.93 583.1C589.12 582.16 587.67 581.76 587.48 582.71V582.69Z" fill="#9F3333"/>
<path d="M595.52 577.79C597 578 597.66 579.47 598.06 580.79C598.57 582.496 598.931 584.242 599.14 586.01C599.593 589.674 599.461 593.387 598.75 597.01C598.6 597.78 599.75 598.41 600.13 597.59C601.255 595.039 602.593 592.587 604.13 590.26C604.839 589.121 605.639 588.041 606.52 587.03C607 586.494 607.56 586.035 608.18 585.67C608.74 585.37 610.18 584.94 610.34 585.99C610.5 587.04 611.96 586.99 611.84 585.99C611.804 585.658 611.7 585.338 611.536 585.048C611.371 584.758 611.149 584.504 610.883 584.303C610.617 584.102 610.313 583.957 609.989 583.877C609.666 583.798 609.329 583.785 609 583.84C607.26 584.04 605.85 585.44 604.81 586.74C602.398 589.84 600.382 593.23 598.81 596.83L600.18 597.41C601.006 593.207 601.094 588.893 600.44 584.66C600.01 581.96 599.37 576.83 595.9 576.34C594.95 576.21 594.54 577.66 595.5 577.79H595.52Z" fill="#9F3333"/>
<path d="M610.66 590.4C612.24 592.4 610.4 595.23 610.45 597.4C610.421 598.216 610.653 599.02 611.111 599.696C611.57 600.372 612.231 600.885 613 601.16C614.74 601.62 616.17 600.16 617.09 598.87C618.26 597.218 618.892 595.245 618.9 593.22C618.898 593.04 618.831 592.868 618.712 592.733C618.593 592.598 618.429 592.511 618.251 592.487C618.073 592.462 617.892 592.503 617.742 592.601C617.591 592.699 617.48 592.848 617.43 593.02C616.914 595.427 616.746 597.895 616.93 600.35C617.04 601.69 617.01 604.19 618.53 604.84C620.05 605.49 621.26 603.37 621.86 602.24C622.852 600.327 623.489 598.25 623.74 596.11H622.24L622.99 604.18H624.49C624.361 603.064 624.498 601.933 624.89 600.88C625.26 599.88 626.62 597.42 627.89 598.33C628.82 599 629.21 600.65 629.5 601.7C629.851 603.004 630.019 604.35 630 605.7L631.47 605.5C631.313 604.79 631.321 604.054 631.495 603.348C631.668 602.642 632.002 601.986 632.47 601.43C632.85 600.97 633.7 600.04 634.34 600.67C634.58 600.9 634.51 601.9 634.54 602.24C634.59 602.83 634.62 603.43 634.62 604.02C634.62 605.58 634.62 608.81 637 608.51C638.2 608.37 639 607.21 639.69 606.36C640.823 605.027 641.903 603.65 642.93 602.23C644.73 599.76 646.61 597.11 647.36 594.1C647.7 592.75 648.17 587.76 645.75 588.1C644.75 588.23 644.27 589.19 644.02 590.04C643.605 591.725 643.324 593.441 643.18 595.17C642.674 598.679 642.387 602.216 642.32 605.76C642.32 607.93 643.22 611.17 646.05 610.76C648.6 610.38 649.41 606.95 649.05 604.82C648.66 602.45 645.82 600.44 643.81 602.51C643.13 603.2 644.19 604.26 644.87 603.57C645.93 602.48 647.27 603.74 647.54 604.85C647.774 605.94 647.636 607.077 647.15 608.08C646.61 609.16 645.47 609.78 644.52 608.69C643.57 607.6 643.81 605.92 643.86 604.62C643.96 602.05 644.16 599.5 644.45 596.95C644.61 595.58 644.81 594.22 645.03 592.87C645.03 592.56 645.53 589.66 645.82 589.81C646.11 589.96 646.14 591.21 646.15 591.34C646.192 591.935 646.158 592.533 646.05 593.12C645.796 594.36 645.362 595.556 644.76 596.67C643.598 598.757 642.26 600.741 640.76 602.6C639.97 603.65 639.14 604.67 638.28 605.67C637.992 606.1 637.637 606.481 637.23 606.8C636.39 607.26 636.23 606.49 636.09 605.8C635.84 603.8 636.45 601.41 635.52 599.58C634.59 597.75 632.14 599.41 631.25 600.5C630.627 601.256 630.19 602.147 629.973 603.102C629.756 604.057 629.765 605.049 630 606C630.056 606.168 630.169 606.311 630.319 606.405C630.469 606.499 630.647 606.537 630.823 606.513C630.998 606.489 631.16 606.405 631.28 606.275C631.4 606.145 631.471 605.977 631.48 605.8C631.514 603.767 631.154 601.746 630.42 599.85C629.9 598.54 629.19 596.76 627.55 596.63C625.91 596.5 624.83 597.94 624.13 599.1C623.215 600.634 622.819 602.423 623 604.2C623.09 605.15 624.59 605.2 624.5 604.2L623.75 596.13C623.75 595.931 623.671 595.74 623.53 595.6C623.39 595.459 623.199 595.38 623 595.38C622.801 595.38 622.61 595.459 622.47 595.6C622.329 595.74 622.25 595.931 622.25 596.13C622.07 597.608 621.68 599.053 621.09 600.42C620.817 601.05 620.503 601.661 620.15 602.25C619.79 602.86 619.24 603.91 618.79 602.82C618.391 601.403 618.245 599.927 618.36 598.46C618.358 596.779 618.536 595.103 618.89 593.46L617.41 593.26C617.399 594.951 616.88 596.599 615.92 597.99C615.481 598.752 614.818 599.36 614.02 599.73C613.02 600.01 612.22 598.93 612.02 598.04C611.66 596.41 612.57 594.67 612.73 593.04C612.824 592.386 612.783 591.72 612.611 591.082C612.439 590.445 612.14 589.848 611.73 589.33C611.12 588.58 610.07 589.65 610.67 590.39L610.66 590.4Z" fill="#9F3333"/>
<path d="M572.75 583.54C576.61 583.54 576.62 577.54 572.75 577.54C568.88 577.54 568.88 583.54 572.75 583.54Z" fill="#3F3C3C"/>
<path d="M579.43 597.24C583.29 597.24 583.29 591.24 579.43 591.24C575.57 591.24 575.56 597.24 579.43 597.24Z" fill="#3F3C3C"/>
<path d="M591.37 607.43C595.23 607.43 595.24 601.43 591.37 601.43C587.5 601.43 587.5 607.43 591.37 607.43Z" fill="#3F3C3C"/>
</svg>
