<svg width="1660" height="1660" viewBox="0 0 1660 1660" fill="none" xmlns="http://www.w3.org/2000/svg">
<path d="M840.28 491.29C841.751 489.598 842.693 487.512 842.99 485.29C843.16 483.61 842.99 481.66 841.51 480.56C840.861 480.132 840.1 479.908 839.322 479.917C838.545 479.926 837.789 480.167 837.15 480.61C836.781 480.831 836.461 481.125 836.209 481.474C835.957 481.823 835.779 482.22 835.685 482.64C835.592 483.06 835.585 483.495 835.665 483.918C835.744 484.341 835.91 484.743 836.15 485.1C837.22 486.91 839.15 488.04 840.89 489.1C843.132 490.37 845.177 491.96 846.96 493.82C849.96 497.07 852.8 503.15 848.09 506.37C844.99 508.49 842.29 505.37 841.53 502.45C841.295 501.744 841.281 500.984 841.488 500.27C841.695 499.555 842.114 498.921 842.69 498.45C843.155 498.026 843.739 497.755 844.363 497.672C844.987 497.59 845.621 497.701 846.18 497.99C846.57 498.24 847.91 497.65 847.33 497.29C844.33 495.4 839.6 498.51 839.93 501.96C840.067 503.073 840.45 504.142 841.052 505.088C841.654 506.034 842.46 506.835 843.41 507.43C844.332 507.817 845.34 507.954 846.332 507.828C847.324 507.701 848.265 507.316 849.06 506.71C853.23 503.89 852.35 498.71 849.82 495.1C848.351 493.045 846.525 491.271 844.43 489.86C842.34 488.43 839.85 487.37 838.16 485.41C837.16 484.24 836.25 481.74 838.24 480.89C839.79 480.22 841.04 481.56 841.43 482.89C842.27 485.81 840.78 489.02 838.97 491.22C838.57 491.7 840.02 491.6 840.32 491.22L840.28 491.29Z" fill="#2B332A"/>
<path d="M844.2 481.55C844.995 483.951 845.964 486.29 847.1 488.55C848 490.35 848.95 492.68 850.91 493.55C851.18 493.68 852.2 493.55 852.31 493.18C852.747 491.809 853.002 490.387 853.07 488.95C853.07 488.77 851.63 488.95 851.62 489.33C851.56 490.73 851.311 492.116 850.88 493.45L852.28 493.07C851.369 492.645 850.614 491.946 850.12 491.07C849.5 490.07 848.96 489.07 848.44 487.99C847.352 485.799 846.419 483.533 845.65 481.21C845.55 480.91 844.11 481.33 844.2 481.6V481.55Z" fill="#2B332A"/>
<path d="M846.07 490.16L848.71 485.78C848.87 485.51 848.56 485.41 848.33 485.42C848.1 485.43 847.54 485.52 847.33 485.8L844.69 490.18C844.52 490.45 844.83 490.55 845.07 490.54C845.254 490.551 845.438 490.522 845.61 490.457C845.783 490.391 845.939 490.29 846.07 490.16V490.16Z" fill="#2B332A"/>
<path d="M854.17 480.66C852.26 479.82 850.79 481.48 850.52 483.25C850.35 484.321 850.471 485.419 850.868 486.428C851.265 487.437 851.926 488.322 852.78 488.99C853.098 489.192 853.461 489.312 853.836 489.339C854.212 489.365 854.588 489.297 854.931 489.141C855.274 488.985 855.572 488.746 855.799 488.446C856.026 488.145 856.174 487.792 856.23 487.42C856.72 485.07 855.36 482.16 854.17 480.23C853.88 479.75 852.48 480.23 852.83 480.83C853.98 482.73 856.61 486.24 859.06 484.02C860.18 483.02 860.39 481.08 860.52 479.67C860.677 477.826 860.463 475.97 859.89 474.21C859.7 473.63 858.29 474 858.44 474.59C859.66 479.5 860.91 484.41 862.1 489.32C862.763 491.456 862.971 493.708 862.71 495.93C862.547 497.004 862.148 498.029 861.54 498.93C860.41 500.49 858.54 500.03 857.28 498.93C853.64 495.69 856.69 490.78 859.45 488.18C861.96 485.82 866.68 482.83 865.7 478.73C865.56 478.14 864.11 478.52 864.25 479.12C865.25 483.32 859.56 486.34 857.19 488.92C855.01 491.31 853.12 494.86 854.81 498.05C856.15 500.6 859.73 502.05 862.1 499.94C864.98 497.43 864.47 492.94 863.7 489.6C862.5 484.47 861.16 479.37 859.89 474.26L858.44 474.64C859.207 476.994 859.303 479.514 858.72 481.92C858.669 482.433 858.49 482.924 858.2 483.35C857.34 484.2 856.7 483.35 856.15 482.82C855.378 482.062 854.706 481.208 854.15 480.28L852.81 480.88C853.545 482.052 854.095 483.33 854.44 484.67C854.61 485.37 855.33 488.33 854.19 488.39C853.19 488.44 852.27 486.12 852.08 485.39C851.97 484.99 851.71 480.88 853.01 481.45C853.51 481.67 854.81 480.98 854.15 480.69L854.17 480.66Z" fill="#2B332A"/>
<path d="M870 480.19C869 482.35 871.94 482.55 873.23 481.78C876 480.12 874.89 477.04 874.23 474.53C873.4 471.35 872.36 468.14 871.82 464.9C871.483 463.347 871.549 461.733 872.011 460.212C872.473 458.691 873.316 457.314 874.46 456.21H873.15C873.131 459.171 873.389 462.127 873.92 465.04C874.184 466.443 874.517 467.831 874.92 469.2C875.143 470.284 875.596 471.307 876.25 472.2C876.524 472.533 876.866 472.803 877.253 472.992C877.641 473.18 878.064 473.284 878.495 473.294C878.926 473.304 879.354 473.222 879.75 473.052C880.146 472.882 880.501 472.629 880.79 472.31C882.25 470.6 881.79 467.31 881.36 465.31C881.25 464.8 879.8 465.16 879.91 465.7C880.158 466.856 880.262 468.038 880.22 469.22C880.294 470.16 880.114 471.103 879.7 471.95C878.09 474.06 876.59 469.65 876.3 468.65C875.134 464.535 874.548 460.277 874.56 456C874.56 455.4 873.5 455.73 873.25 456C869.94 459.05 869.74 463.19 870.76 467.34C871.37 469.8 872.04 472.26 872.68 474.72C873.065 475.92 873.362 477.147 873.57 478.39C873.673 479.138 873.51 479.899 873.11 480.54C872.97 480.805 872.76 481.027 872.502 481.18C872.245 481.334 871.95 481.413 871.65 481.41C871.546 481.367 871.452 481.301 871.377 481.217C871.301 481.134 871.244 481.035 871.21 480.927C871.177 480.819 871.168 480.705 871.183 480.593C871.199 480.482 871.239 480.375 871.3 480.28C871.61 479.64 870.16 479.79 869.95 480.23L870 480.19Z" fill="#2B332A"/>
<path d="M871.38 473.33L875.52 466.33C875.68 466.06 875.01 466.09 874.92 466.1C874.755 466.108 874.595 466.152 874.449 466.23C874.304 466.308 874.178 466.417 874.08 466.55L869.94 473.55C869.78 473.81 870.45 473.79 870.54 473.78C870.704 473.768 870.863 473.721 871.007 473.644C871.152 473.566 871.279 473.459 871.38 473.33V473.33Z" fill="#2B332A"/>
<path d="M880.81 465.43C880.997 464.617 881.374 463.86 881.91 463.22C882.06 463.04 882.25 462.88 882.4 462.69C882.55 462.5 882.59 462.51 882.3 462.6C882.01 462.69 881.99 462.6 882.17 462.8C882.297 463.25 882.454 463.691 882.64 464.12L883.64 466.86L884.15 468.29C884.201 468.614 884.368 468.909 884.62 469.12C884.912 469.222 885.225 469.249 885.53 469.2C885.836 469.152 886.124 469.028 886.37 468.84C886.634 468.634 886.84 468.361 886.966 468.051C887.092 467.74 887.135 467.402 887.09 467.07L887.27 460.9L885.82 461.29C885.995 462.195 886.233 463.087 886.53 463.96C886.767 464.752 887.103 465.512 887.53 466.22C887.749 466.474 888.027 466.671 888.339 466.794C888.651 466.917 888.989 466.962 889.322 466.926C889.656 466.89 889.976 466.773 890.254 466.585C890.532 466.398 890.761 466.145 890.92 465.85C891.212 465.198 891.329 464.481 891.26 463.77C891.26 462.82 891.12 461.88 891.06 460.94C890.847 459.146 891.288 457.336 892.3 455.84C892.65 455.37 891.22 455.52 890.97 455.84C890.177 456.909 889.705 458.182 889.61 459.51C889.588 460.936 889.652 462.362 889.8 463.78C889.882 464.453 889.813 465.136 889.6 465.78C889.46 466.09 889.44 466.23 889.16 465.98C888.93 465.724 888.747 465.43 888.62 465.11C888.013 463.749 887.564 462.323 887.28 460.86C887.19 460.41 885.85 460.86 885.83 461.25L885.66 467.16C885.675 467.426 885.675 467.694 885.66 467.96C885.66 468.09 885.4 468.51 885.41 468.55L885.83 468.36C885.791 468.276 885.757 468.189 885.73 468.1C885.64 467.86 885.56 467.62 885.48 467.39L884.48 464.65C884.273 463.821 883.978 463.017 883.6 462.25C883.24 461.68 882.43 461.84 881.92 462.08C881.282 462.461 880.73 462.971 880.3 463.577C879.87 464.183 879.57 464.872 879.42 465.6C879.32 466.06 880.76 465.84 880.86 465.39L880.81 465.43Z" fill="#2B332A"/>
<path d="M897.1 452.7C895.043 453.543 893.345 455.078 892.3 457.04C891.35 458.92 891.17 461.82 892.99 463.28C894.32 464.36 895.99 463.11 896.65 461.85C897.689 459.245 898.096 456.432 897.84 453.64L896.39 454.03C896.54 455.48 896.73 457.31 898.2 458.03C898.758 458.269 899.363 458.378 899.97 458.349C900.576 458.319 901.168 458.152 901.7 457.86C904.7 456.31 905.26 451.4 904.43 448.53C904.32 448.13 903.07 448.53 902.99 448.83C902.511 450.409 902.539 452.098 903.07 453.66C903.46 454.72 904.13 455.98 905.42 455.88C908.23 455.67 909.8 451.8 910.23 449.49L908.79 449.79C908.71 457.54 907.96 465.31 904.53 472.37C902.929 475.723 900.753 478.769 898.1 481.37C896.1 483.3 891.36 486.85 888.95 483.62C887.09 481.12 888.35 476.98 889.38 474.38C890.634 471.281 892.478 468.456 894.81 466.06C897.258 463.395 900.281 461.322 903.65 460C905.257 459.285 907.07 459.178 908.75 459.7C910.4 460.41 910.9 462.16 910.75 463.82C910.253 468.01 908.122 471.834 904.82 474.46C903.17 475.69 900.56 476.81 898.69 475.4C898.027 474.823 897.598 474.025 897.482 473.154C897.366 472.283 897.572 471.4 898.06 470.67C898.21 470.41 896.85 470.51 896.62 470.9C896.187 471.579 895.972 472.375 896.006 473.18C896.04 473.985 896.321 474.76 896.81 475.4C897.342 475.953 898.005 476.362 898.738 476.59C899.47 476.817 900.249 476.855 901 476.7C905 476.17 908 473.25 910 469.9C911.52 467.21 914.13 461.45 910.39 459.34C907.39 457.68 903.22 459.34 900.53 460.79C893.72 464.42 887.53 471.59 886.72 479.49C886.54 481.16 886.61 483.13 887.82 484.43C888.363 484.935 889.022 485.298 889.739 485.488C890.456 485.679 891.208 485.689 891.93 485.52C895.74 484.95 898.93 482.15 901.35 479.32C908.49 470.91 910.15 460.1 910.26 449.41C910.26 449.08 908.88 449.41 908.81 449.72C908.6 450.85 907.06 455.81 905.43 454.85C904.72 454.44 904.35 452.85 904.22 452.13C904.041 450.957 904.119 449.759 904.45 448.62L903 448.92C903.636 451.268 903.357 453.77 902.22 455.92C901.54 457.25 900.12 458.36 898.86 456.98C898.192 455.992 897.843 454.823 897.86 453.63C897.86 453.27 896.39 453.57 896.41 454.02C896.519 455.916 896.361 457.818 895.94 459.67C895.795 460.491 895.556 461.293 895.23 462.06C894.63 463.29 894.1 462.74 893.57 461.72C891.84 458.4 894.62 454.45 897.65 453.12C898.59 452.71 897.71 452.43 897.12 452.69L897.1 452.7Z" fill="#2B332A"/>
</svg>
