<svg width="1660" height="1660" viewBox="0 0 1660 1660" fill="none" xmlns="http://www.w3.org/2000/svg">
<path d="M696.46 1054.81C703.37 1128.02 706.91 1206.97 714.24 1279.47C714.425 1280.69 715.038 1281.8 715.969 1282.61C716.899 1283.42 718.087 1283.87 719.32 1283.88L936.01 1291.48C939.91 1291.7 943.1 1289.88 943.41 1286.39C950.03 1211.21 962.47 1139.79 964.02 1064.14C964.2 1055.14 964.75 1048.14 974.54 1046.28L1002.38 1040.86C1005.42 1040.29 1008.31 1039.1 1010.86 1037.35C1013.41 1035.61 1015.57 1033.35 1017.2 1030.72C1018.34 1028.86 1019.68 1027.13 1021.2 1025.57C1025.13 1021.47 1030.2 1019.57 1034.2 1017.32C1047.99 1009.43 1052.73 1010.58 1047.61 996.97C1035.43 964.58 1022.8 922.68 1000.54 872.04C995.6 860.8 985.92 852.51 978.37 844.14C976.153 841.708 973.42 839.805 970.37 838.57L892.43 806.7C889.378 805.467 886.108 804.864 882.817 804.927C879.526 804.991 876.282 805.72 873.28 807.07C863.038 811.67 852.214 814.846 841.11 816.51C817.628 819.772 793.702 816.884 771.67 808.13C768.5 806.887 765.106 806.317 761.704 806.458C758.301 806.6 754.966 807.448 751.91 808.95C728.16 820.68 694.43 835.9 677.16 847.32C638.57 872.82 604.56 919.91 588.39 933.88C580.51 940.68 592.85 947.13 603.23 956.81C610.07 963.2 614.41 972.45 626.9 980.75C635.03 986.14 657.63 1017.38 663.02 1020.75C666.78 1023.13 680.18 1000.14 685.52 992.28C688.86 987.35 690.57 983.28 693.18 996.12C694.76 1021.58 695.94 1040.56 697.52 1066.02" fill="url(#paint0_radial_1_39084)"/>
<path d="M696.46 1054.81C703.37 1128.02 706.91 1206.97 714.24 1279.47C714.425 1280.69 715.038 1281.8 715.969 1282.61C716.899 1283.42 718.087 1283.87 719.32 1283.88L936.01 1291.48C939.91 1291.7 943.1 1289.88 943.41 1286.39C950.03 1211.21 962.47 1139.79 964.02 1064.14C964.2 1055.14 964.75 1048.14 974.54 1046.28L1002.38 1040.86C1005.42 1040.29 1008.31 1039.1 1010.86 1037.35C1013.41 1035.61 1015.57 1033.35 1017.2 1030.72C1018.34 1028.86 1019.68 1027.13 1021.2 1025.57C1025.13 1021.47 1030.2 1019.57 1034.2 1017.32C1047.99 1009.43 1052.73 1010.58 1047.61 996.97C1035.43 964.58 1022.8 922.68 1000.54 872.04C995.6 860.8 985.92 852.51 978.37 844.14C976.153 841.708 973.42 839.805 970.37 838.57L892.43 806.7C889.378 805.467 886.108 804.864 882.817 804.927C879.526 804.991 876.282 805.72 873.28 807.07C863.038 811.67 852.214 814.846 841.11 816.51C817.628 819.772 793.702 816.884 771.67 808.13C768.5 806.887 765.106 806.317 761.704 806.458C758.301 806.6 754.966 807.448 751.91 808.95C728.16 820.68 694.43 835.9 677.16 847.32C638.57 872.82 604.56 919.91 588.39 933.88C580.51 940.68 592.85 947.13 603.23 956.81C610.07 963.2 614.41 972.45 626.9 980.75C635.03 986.14 657.63 1017.38 663.02 1020.75C666.78 1023.13 680.18 1000.14 685.52 992.28C688.86 987.35 690.57 983.28 693.18 996.12C694.76 1021.58 695.94 1040.56 697.52 1066.02" stroke="#010101" stroke-width="4" stroke-miterlimit="10"/>
<path d="M780.59 1013.56V980.45L775 982C780.453 993.02 785.507 1004.22 790.16 1015.6C790.354 1016.22 790.737 1016.77 791.255 1017.16C791.772 1017.55 792.4 1017.78 793.05 1017.8C793.708 1017.8 794.348 1017.59 794.872 1017.19C795.396 1016.79 795.775 1016.23 795.95 1015.6C798.114 1003.8 801.327 992.225 805.55 981H799.76C801.593 992.333 803.083 1003.72 804.23 1015.15C804.255 1015.94 804.579 1016.69 805.136 1017.24C805.694 1017.8 806.442 1018.12 807.23 1018.15C808.026 1018.15 808.789 1017.83 809.351 1017.27C809.914 1016.71 810.23 1015.95 810.23 1015.15C809.03 1003.19 807.47 991.273 805.55 979.4C805.375 978.766 804.996 978.207 804.472 977.81C803.948 977.412 803.308 977.198 802.65 977.2C801.999 977.219 801.37 977.442 800.852 977.836C800.334 978.231 799.952 978.777 799.76 979.4C795.548 990.63 792.342 1002.21 790.18 1014.01H796C791.16 1002.15 785.903 990.483 780.23 979.01C778.87 976.26 774.64 977.67 774.64 980.52V1013.63C774.64 1017.49 780.64 1017.5 780.64 1013.63L780.59 1013.56Z" fill="#010101"/>
<path d="M816.16 1012.38C817.16 1000.44 822.85 989.51 828.23 979.04L822.75 978.32C827.71 990.127 832.15 1002.13 836.07 1014.32C836.296 1015.08 836.806 1015.72 837.493 1016.11C838.181 1016.5 838.993 1016.61 839.76 1016.42C840.14 1016.32 840.496 1016.14 840.808 1015.9C841.119 1015.65 841.38 1015.35 841.575 1015.01C841.77 1014.67 841.896 1014.29 841.945 1013.9C841.993 1013.51 841.965 1013.11 841.86 1012.73C837.94 1000.53 833.497 988.53 828.53 976.73C828.37 976.168 828.048 975.665 827.606 975.283C827.164 974.901 826.619 974.657 826.04 974.58C825.455 974.496 824.858 974.587 824.324 974.842C823.79 975.096 823.343 975.503 823.04 976.01C817.14 987.5 811.23 999.3 810.15 1012.38C810.15 1013.18 810.466 1013.94 811.029 1014.5C811.591 1015.06 812.354 1015.38 813.15 1015.38C813.94 1015.36 814.693 1015.04 815.252 1014.48C815.81 1013.92 816.132 1013.17 816.15 1012.38H816.16Z" fill="#010101"/>
<path d="M819.72 1008.45H830.15C830.946 1008.45 831.709 1008.13 832.271 1007.57C832.834 1007.01 833.15 1006.25 833.15 1005.45C833.15 1004.65 832.834 1003.89 832.271 1003.33C831.709 1002.77 830.946 1002.45 830.15 1002.45H819.72C818.924 1002.45 818.161 1002.77 817.599 1003.33C817.036 1003.89 816.72 1004.65 816.72 1005.45C816.72 1006.25 817.036 1007.01 817.599 1007.57C818.161 1008.13 818.924 1008.45 819.72 1008.45V1008.45Z" fill="#010101"/>
<path d="M849.36 980.75C848.726 992.368 849.225 1004.02 850.85 1015.54C851.07 1017.14 853.12 1018.02 854.54 1017.63C855.297 1017.4 855.936 1016.89 856.327 1016.2C856.718 1015.52 856.83 1014.71 856.64 1013.94C855.134 1002.94 854.706 991.829 855.36 980.75C855.36 979.954 855.044 979.191 854.481 978.629C853.919 978.066 853.156 977.75 852.36 977.75C851.564 977.75 850.801 978.066 850.239 978.629C849.676 979.191 849.36 979.954 849.36 980.75V980.75Z" fill="#010101"/>
<path d="M862.66 979.58C862.353 990.82 862.583 1002.05 863.35 1013.27C863.368 1014.06 863.69 1014.81 864.248 1015.37C864.807 1015.93 865.56 1016.25 866.35 1016.27C867.146 1016.27 867.909 1015.95 868.471 1015.39C869.034 1014.83 869.35 1014.07 869.35 1013.27C869.49 1002.52 869.807 991.777 870.3 981.03L864.71 982.54L882.28 1015.82C883.68 1018.47 887.92 1017.22 887.87 1014.3L887.3 978C887.24 974.14 881.24 974.13 881.3 978L881.87 1014.26L887.46 1012.75L869.89 979.47C868.43 976.71 864.43 978.16 864.3 980.99C863.8 991.73 863.483 1002.48 863.35 1013.23H869.35C868.583 1002.02 868.353 990.787 868.66 979.54C868.76 975.68 862.76 975.68 862.66 979.54V979.58Z" fill="#010101"/>
<path d="M788 1024.51C784.646 1023.45 781.148 1022.91 777.63 1022.91C776.666 1022.88 775.71 1023.1 774.855 1023.54C774 1023.99 773.275 1024.65 772.75 1025.46C772.334 1026.18 772.071 1026.97 771.978 1027.8C771.885 1028.62 771.964 1029.46 772.21 1030.25C773.27 1033.62 776.74 1035.05 779.63 1036.51C781.09 1037.24 782.63 1037.92 784.01 1038.77C784.16 1038.86 784.29 1038.97 784.45 1039.05C784.83 1039.25 784.15 1038.74 784.45 1039.05C784.561 1039.18 784.685 1039.3 784.82 1039.4C785.15 1039.62 784.63 1039.02 784.82 1039.4C784.82 1039.49 785.15 1039.91 784.95 1039.56C784.75 1039.21 784.95 1039.56 784.95 1039.64C785.14 1040.13 784.95 1039.64 784.95 1039.53C785.01 1040.15 785.15 1039.03 784.95 1039.62C785.017 1039.43 785.115 1039.26 785.24 1039.1L785.05 1039.27C785.29 1039.1 785.31 1039.06 785.13 1039.18C784.95 1039.3 784.55 1039.45 784.89 1039.31C785.23 1039.17 784.6 1039.4 784.53 1039.42C784.369 1039.47 784.206 1039.52 784.04 1039.55C783.96 1039.55 783.27 1039.71 783.69 1039.64C784.11 1039.57 783.56 1039.64 783.46 1039.64H782.83H782.32C782.17 1039.64 781.44 1039.48 782.11 1039.64C781.74 1039.55 781.37 1039.49 781 1039.38L780.64 1039.26C779.9 1039.03 781.12 1039.54 780.43 1039.18C780.06 1038.98 779.71 1038.78 779.37 1038.55C779.03 1038.35 778.654 1038.22 778.263 1038.16C777.872 1038.11 777.475 1038.13 777.093 1038.23C776.711 1038.33 776.353 1038.51 776.038 1038.74C775.724 1038.98 775.459 1039.28 775.26 1039.62C774.878 1040.31 774.777 1041.13 774.978 1041.89C775.179 1042.66 775.667 1043.31 776.34 1043.73C777.735 1044.64 779.304 1045.24 780.948 1045.51C782.591 1045.77 784.271 1045.69 785.88 1045.26C786.928 1045.06 787.911 1044.6 788.742 1043.93C789.574 1043.26 790.229 1042.39 790.65 1041.41C790.932 1040.55 791.011 1039.64 790.883 1038.74C790.755 1037.85 790.422 1037 789.91 1036.25C788.824 1034.81 787.394 1033.67 785.75 1032.93L781.06 1030.55C780.46 1030.25 779.85 1029.95 779.27 1029.61C778.97 1029.44 778.7 1029.25 778.41 1029.07C778.87 1029.35 778.54 1029.18 778.41 1029.07C778.28 1028.96 778.07 1028.73 777.89 1028.55C777.97 1028.63 778.31 1028.95 777.89 1028.55C777.47 1028.15 778.26 1028.61 777.89 1028.74L777.78 1028.37C777.64 1027.93 777.98 1028.52 777.78 1028.59C777.78 1028.59 777.78 1028.18 777.78 1028.21C777.78 1028.24 777.68 1029 777.78 1028.45C777.78 1028.26 778.02 1027.96 777.69 1028.64C777.92 1028.18 777.35 1028.97 777.6 1028.73C777.85 1028.49 777.1 1029.05 777.44 1028.85C777.62 1028.75 777.55 1028.78 777.23 1028.94L777.49 1028.87C777.23 1029.06 777.15 1028.87 777.49 1028.87H778.34C779.26 1028.87 780.17 1028.99 781.09 1029.09C781.16 1029.09 781.67 1029.18 781.2 1029.09C781.45 1029.09 781.71 1029.16 781.96 1029.21C782.41 1029.28 782.86 1029.37 783.31 1029.46C784.31 1029.67 785.31 1029.93 786.31 1030.23C787.078 1030.44 787.898 1030.34 788.59 1029.94C789.282 1029.55 789.789 1028.9 790 1028.13C790.211 1027.36 790.108 1026.54 789.714 1025.85C789.32 1025.16 788.668 1024.65 787.9 1024.44L788 1024.51Z" fill="#010101"/>
<path d="M794.7 1027.76H803.46C804.256 1027.76 805.019 1027.44 805.581 1026.88C806.144 1026.32 806.46 1025.56 806.46 1024.76C806.46 1023.96 806.144 1023.2 805.581 1022.64C805.019 1022.08 804.256 1021.76 803.46 1021.76H794.7C793.904 1021.76 793.141 1022.08 792.579 1022.64C792.016 1023.2 791.7 1023.96 791.7 1024.76C791.7 1025.56 792.016 1026.32 792.579 1026.88C793.141 1027.44 793.904 1027.76 794.7 1027.76V1027.76Z" fill="#010101"/>
<path d="M795.87 1026.69V1044.06C795.87 1044.86 796.186 1045.62 796.749 1046.18C797.311 1046.74 798.074 1047.06 798.87 1047.06C799.666 1047.06 800.429 1046.74 800.991 1046.18C801.554 1045.62 801.87 1044.86 801.87 1044.06V1026.69C801.87 1025.89 801.554 1025.13 800.991 1024.57C800.429 1024.01 799.666 1023.69 798.87 1023.69C798.074 1023.69 797.311 1024.01 796.749 1024.57C796.186 1025.13 795.87 1025.89 795.87 1026.69V1026.69Z" fill="#010101"/>
<path d="M806.55 1025.52L807.15 1045.52H813.15C812.7 1041.84 812.43 1038.14 812.24 1034.44C812.15 1032.77 812.01 1031.08 812.06 1029.44C812.058 1028.8 812.155 1028.15 812.35 1027.54C812.458 1027.07 812.697 1026.65 813.04 1026.31C813.293 1026.04 813.605 1025.84 813.95 1025.71L814.43 1025.59C814.22 1025.59 814.23 1025.59 814.43 1025.59H814.73C815.162 1025.81 815.54 1026.13 815.836 1026.51C816.132 1026.9 816.338 1027.34 816.44 1027.82C816.561 1028.23 816.579 1028.67 816.492 1029.09C816.405 1029.51 816.215 1029.91 815.94 1030.24C816.16 1029.91 815.67 1030.56 815.6 1030.62C815.53 1030.68 814.89 1031.24 815.22 1030.99C814.735 1031.38 814.167 1031.65 813.56 1031.78C812.866 1031.98 812.266 1032.42 811.871 1033.02C811.476 1033.63 811.312 1034.35 811.41 1035.07C811.506 1035.78 811.856 1036.44 812.396 1036.92C812.936 1037.4 813.629 1037.66 814.35 1037.67C813.99 1037.67 814.81 1037.77 814.86 1037.78C815.27 1037.91 814.96 1037.78 815.18 1037.92C815.599 1038.11 815.968 1038.4 816.26 1038.76C816.958 1039.51 817.532 1040.37 817.96 1041.3C819.17 1043.67 820.29 1046.16 822.45 1047.83C823.026 1048.37 823.783 1048.66 824.57 1048.66C825.357 1048.66 826.114 1048.37 826.69 1047.83C827.69 1046.83 827.98 1044.58 826.69 1043.58C824.53 1041.92 823.84 1039.17 822.31 1036.82C820.46 1033.97 817.83 1031.9 814.31 1031.67L815.11 1037.56C816.761 1037.14 818.276 1036.3 819.512 1035.12C820.748 1033.95 821.663 1032.48 822.17 1030.85C822.632 1029.04 822.539 1027.13 821.902 1025.37C821.266 1023.61 820.115 1022.08 818.6 1020.98C817.113 1019.93 815.298 1019.46 813.488 1019.64C811.678 1019.82 809.996 1020.65 808.75 1021.98C805.98 1024.78 805.92 1028.71 806.09 1032.39C806.29 1036.76 806.57 1041.12 807.09 1045.47C807.115 1046.26 807.439 1047.01 807.996 1047.56C808.554 1048.12 809.302 1048.45 810.09 1048.47C810.886 1048.47 811.649 1048.15 812.211 1047.59C812.774 1047.03 813.09 1046.27 813.09 1045.47L812.49 1025.47C812.49 1024.67 812.174 1023.91 811.611 1023.35C811.049 1022.79 810.286 1022.47 809.49 1022.47C808.694 1022.47 807.931 1022.79 807.369 1023.35C806.806 1023.91 806.49 1024.67 806.49 1025.47L806.55 1025.52Z" fill="#010101"/>
<path d="M828 1024.37C827.705 1030.26 827.946 1036.17 828.72 1042.02C828.95 1043.8 829.09 1045.45 830.57 1046.69C832.05 1047.93 833.57 1047.78 835.22 1047.53C838.1 1047.1 840.96 1046.61 843.83 1046.14C845.43 1045.88 846.32 1043.89 845.93 1042.45C845.702 1041.69 845.191 1041.05 844.504 1040.67C843.817 1040.28 843.006 1040.17 842.24 1040.36L835.12 1041.51L834.12 1041.67L833.74 1041.73C834 1041.73 834.03 1041.73 833.81 1041.73C833.59 1041.73 833.19 1041.56 833.73 1041.82C833.993 1041.86 834.238 1041.97 834.434 1042.15C834.63 1042.33 834.768 1042.56 834.83 1042.82L834.77 1042.53C834.711 1041.44 834.574 1040.36 834.36 1039.29C833.845 1034.35 833.715 1029.37 833.97 1024.41C833.97 1023.61 833.654 1022.85 833.091 1022.29C832.529 1021.73 831.766 1021.41 830.97 1021.41C830.174 1021.41 829.411 1021.73 828.849 1022.29C828.286 1022.85 827.97 1023.61 827.97 1024.41L828 1024.37Z" fill="#010101"/>
<path d="M833.9 1038.57H839.32C840.113 1038.56 840.872 1038.24 841.44 1037.69C842.003 1037.13 842.319 1036.37 842.32 1035.57C842.321 1035.17 842.244 1034.78 842.093 1034.42C841.942 1034.05 841.72 1033.72 841.44 1033.44C840.869 1032.89 840.111 1032.58 839.32 1032.57H833.9C833.104 1032.57 832.341 1032.89 831.779 1033.45C831.216 1034.01 830.9 1034.77 830.9 1035.57C830.907 1036.36 831.223 1037.12 831.78 1037.69C832.349 1038.24 833.107 1038.56 833.9 1038.57Z" fill="#010101"/>
<path d="M833.07 1029.3H841C841.796 1029.3 842.559 1028.98 843.121 1028.42C843.684 1027.86 844 1027.1 844 1026.3C844 1025.5 843.684 1024.74 843.121 1024.18C842.559 1023.62 841.796 1023.3 841 1023.3H833.08C832.284 1023.3 831.521 1023.62 830.959 1024.18C830.396 1024.74 830.08 1025.5 830.08 1026.3C830.08 1027.1 830.396 1027.86 830.959 1028.42C831.521 1028.98 832.284 1029.3 833.08 1029.3H833.07Z" fill="#010101"/>
<path d="M853.73 1044.82C853.387 1041.19 853.353 1037.54 853.63 1033.9C853.77 1032.21 853.97 1030.54 854.27 1028.9C854.34 1028.46 854.41 1028.02 854.51 1027.59C854.51 1027.53 854.61 1026.73 854.59 1027.12C854.88 1026.68 854.78 1026.74 854.3 1027.3C854.181 1027.37 854.047 1027.4 853.91 1027.4C853.773 1027.4 853.639 1027.37 853.52 1027.3C853.325 1027.32 853.129 1027.29 852.952 1027.2C852.776 1027.12 852.626 1026.98 852.52 1026.82L852.86 1027.44C856.207 1033.55 859.021 1039.94 861.27 1046.53C861.498 1047.29 862.009 1047.93 862.696 1048.31C863.383 1048.7 864.194 1048.81 864.96 1048.62C865.34 1048.52 865.696 1048.34 866.008 1048.1C866.319 1047.85 866.58 1047.55 866.775 1047.21C866.97 1046.87 867.096 1046.49 867.144 1046.1C867.193 1045.71 867.165 1045.31 867.06 1044.93C864.86 1038.54 862.186 1032.32 859.06 1026.33C858.25 1024.8 857.52 1022.96 855.97 1022.02C855.039 1021.54 853.974 1021.37 852.941 1021.55C851.907 1021.73 850.961 1022.25 850.25 1023.02C849.01 1024.3 848.71 1026.08 848.43 1027.76C848.15 1029.44 847.89 1031.37 847.72 1033.18C847.355 1037.08 847.355 1041.01 847.72 1044.91C847.74 1045.7 848.063 1046.45 848.621 1047.01C849.179 1047.57 849.931 1047.89 850.72 1047.91C851.516 1047.91 852.279 1047.59 852.841 1047.03C853.404 1046.47 853.72 1045.71 853.72 1044.91L853.73 1044.82Z" fill="#010101"/>
<path d="M851.83 1041.68C854.695 1041.75 857.526 1041.06 860.04 1039.68C860.67 1039.25 861.116 1038.61 861.286 1037.87C861.457 1037.12 861.34 1036.35 860.959 1035.69C860.578 1035.03 859.961 1034.54 859.234 1034.32C858.506 1034.1 857.722 1034.16 857.04 1034.5C856.66 1034.7 856.27 1034.89 855.88 1035.05L856.6 1034.75C855.545 1035.18 854.44 1035.48 853.31 1035.64L854.11 1035.53C853.364 1035.63 852.612 1035.66 851.86 1035.64C851.064 1035.64 850.301 1035.96 849.739 1036.52C849.176 1037.08 848.86 1037.84 848.86 1038.64C848.878 1039.43 849.2 1040.18 849.758 1040.74C850.317 1041.3 851.07 1041.62 851.86 1041.64L851.83 1041.68Z" fill="#010101"/>
<path d="M871.26 1044.43C870.85 1037.11 870.26 1029.2 873.36 1022.31L867.88 1021.6L875.53 1047.85C876.31 1050.52 880.76 1050.9 881.32 1047.85C882.69 1040.35 884.489 1032.94 886.71 1025.65L880.81 1024.85C881.19 1031.84 882.11 1038.78 883.56 1045.63C883.772 1046.4 884.28 1047.05 884.972 1047.44C885.664 1047.83 886.483 1047.93 887.25 1047.72C888.009 1047.5 888.651 1046.99 889.041 1046.3C889.431 1045.61 889.538 1044.8 889.34 1044.03C888.002 1037.71 887.157 1031.3 886.81 1024.85C886.809 1024.12 886.545 1023.43 886.068 1022.88C885.591 1022.33 884.932 1021.98 884.214 1021.88C883.495 1021.78 882.766 1021.95 882.161 1022.35C881.555 1022.75 881.114 1023.35 880.92 1024.05C878.71 1031.35 876.91 1038.76 875.53 1046.26H881.32L873.66 1020C873 1017.74 869.28 1016.81 868.18 1019.29C864.61 1027.29 864.78 1035.87 865.26 1044.43C865.28 1045.22 865.603 1045.97 866.161 1046.53C866.719 1047.09 867.471 1047.41 868.26 1047.43C869.056 1047.43 869.819 1047.11 870.381 1046.55C870.944 1045.99 871.26 1045.23 871.26 1044.43V1044.43Z" fill="#010101"/>
<path d="M912.83 992.74C911.9 989.47 901.48 955.05 863.71 940.23C856.53 937.41 829.35 927.84 799.37 939.58C795.62 941.05 771.31 950.98 758.55 975.45C752.13 987.77 752.88 1003.73 754.4 1035.66C755.27 1054.17 757.33 1061.46 763.4 1065.76C769.72 1070.24 777.24 1069.21 784.18 1076.65C788.55 1081.33 787.53 1083.82 791.07 1087.54C797.86 1094.66 810.07 1094.34 820.13 1093.94C839.565 1093.1 858.5 1087.52 875.28 1077.68C883.47 1072.78 892.42 1067.42 900.38 1057.43C922.62 1029.54 913.51 995.17 912.83 992.74ZM892.48 1052.4C885.48 1061.12 877.7 1065.8 870.55 1070.08C855.899 1078.68 839.363 1083.56 822.39 1084.28C813.56 1084.63 802.95 1084.91 797.02 1078.69C793.92 1075.44 794.82 1073.27 791.02 1069.18C784.95 1062.69 778.39 1063.58 772.87 1059.67C767.57 1055.92 765.78 1049.55 765.02 1033.38C763.69 1005.5 763.02 991.56 768.64 980.81C779.79 959.43 801.02 950.81 804.29 949.48C830.47 939.22 854.2 947.58 860.48 950.04C893.48 963.04 902.57 993.04 903.37 995.91C904 998 911.91 1028 892.48 1052.4Z" fill="#E75B59"/>
<path d="M778.67 966.82L884.18 1060.85" stroke="#E75B59" stroke-width="10" stroke-miterlimit="10"/>
<path d="M968.7 995L964 1074Z" fill="url(#paint1_radial_1_39084)"/>
<path d="M968.7 995L964 1074" stroke="#010101" stroke-width="4" stroke-miterlimit="10"/>
<path d="M755.74 811.19C763.96 816.19 784.66 826.19 802.34 829.19C817.963 831.721 833.939 831.04 849.29 827.19C865.74 823.42 885.29 813.53 892.43 806.7" stroke="black" stroke-width="4" stroke-miterlimit="10"/>
<path d="M990.23 1106C1002.67 1131.33 1004.02 1153.78 993.92 1162.06C988.12 1166.82 977.24 1167.96 973.27 1163.54C967.73 1157.37 978.38 1143.47 973.27 1138.46C967.78 1133.08 953.9 1143.99 952.64 1141.27C947.35 1129.84 957.47 1131.51 969.58 1119.27C974.23 1114.57 976.04 1111.38 979.9 1105.99C982.24 1102.72 987.47 1105.14 990.23 1106Z" fill="#010101" stroke="black" stroke-width="4" stroke-miterlimit="10"/>
<defs>
<radialGradient id="paint0_radial_1_39084" cx="0" cy="0" r="1" gradientUnits="userSpaceOnUse" gradientTransform="translate(817.72 1042.95) scale(252.62 224.832)">
<stop offset="0.19" stop-color="#F2F2F2"/>
<stop offset="1" stop-color="white"/>
</radialGradient>
<radialGradient id="paint1_radial_1_39084" cx="0" cy="0" r="1" gradientUnits="userSpaceOnUse" gradientTransform="translate(962.251 1046.78) rotate(-177.122) scale(77.0674 28.0011)">
<stop offset="0.19" stop-color="#F2F2F2"/>
<stop offset="1" stop-color="white"/>
</radialGradient>
</defs>
</svg>
