<svg width="1660" height="1660" viewBox="0 0 1660 1660" fill="none" xmlns="http://www.w3.org/2000/svg">
<path d="M643.87 1017.12C645.255 1019.01 647.051 1020.57 649.124 1021.67C651.197 1022.78 653.492 1023.39 655.837 1023.48C658.183 1023.57 660.518 1023.13 662.668 1022.18C664.818 1021.24 666.726 1019.83 668.25 1018.04C674.51 1010.65 675.15 1005.57 683.93 988.2C695.38 965.54 696.14 941.43 696.11 942.01C694.85 967.01 693.39 987.48 692.32 1001.27C689.82 1033.27 687.63 1052.85 682.43 1109.71C675.25 1188.27 681.71 1156.27 671.67 1211.49C669.87 1221.38 672.02 1255.78 683.87 1255.77C745.71 1255.68 789.06 1260.86 850.87 1261.67C884.27 1262.1 911.11 1261.02 944.51 1261.67C954.74 1261.89 966.07 1258 968.57 1249.55C974.89 1228.19 967.67 1213.32 966.86 1181.18C966.24 1156.79 968.99 1102.08 963.57 1026.06C961.72 1000.21 949.34 952.67 950.8 939.71C950.85 939.27 959.01 993.3 959.8 998.71C963.61 1026.09 977.6 1024.07 1007.13 1011.77C1022.4 1005.42 1027.42 1005.42 1043.44 1000.58C1055.55 996.93 1064.74 987.52 1060.86 977.03C1042 926 1016.29 884.75 990 837C985.75 829.29 977.51 818.68 968.06 815.79L922.39 798.45C906.57 793.61 886.79 799.77 877.7 811.76C870.29 821.55 854.87 828.56 832.7 829.45C816.56 830.1 795.78 824.56 778.37 803.25C773.86 797.73 770.04 797.32 764.81 795.82C761.057 794.743 757.061 794.865 753.38 796.17L696.12 816.84C694.689 817.387 693.326 818.098 692.06 818.96C662.21 834.96 612.18 910.77 594.93 935.96C592.79 939.09 589.47 946.49 593.93 952.86C610.58 976.29 626.94 993.94 643.87 1017.12Z" fill="url(#paint0_linear_1_37915)" stroke="#010101" stroke-width="4" stroke-miterlimit="10"/>
<path d="M772.94 810.59C776.57 815.25 792.1 834 819.81 838.59C861.4 845.5 890.5 813.91 891.7 812.59" stroke="#628CB1" stroke-width="3" stroke-miterlimit="10"/>
<path d="M604.13 945.54C609.592 951.56 614.66 957.926 619.3 964.6C629.1 978.76 637 983.53 647.39 997.23C652.19 1003.56 654.7 1009.51 657.58 1012.51" stroke="#628CB1" stroke-width="3" stroke-miterlimit="10"/>
<path d="M973.74 1010.15C987.54 1002.97 1002 997.119 1016.91 992.69C1026.99 989.71 1037.25 987.372 1047.62 985.69" stroke="#628CB1" stroke-width="3" stroke-miterlimit="10"/>
<path d="M914.53 961.82L907.17 932H903.65L894.2 961.33H891.48V965.82H900.77L900.93 962.08L899.01 961.78L900.77 955.34L908.93 955.79L910.37 961.63L907.37 962.08L907.53 965.82H916.81V962.23L914.53 961.82ZM903.01 949.82L904.93 943.23L907.17 949.82H903.01Z" fill="#9EC8E7" stroke="#628CB1" stroke-width="3" stroke-miterlimit="10"/>
<path d="M905.15 933.14C921.51 923.6 930.97 911.57 928.32 902.65C927.48 899.82 924.46 894.05 918.9 893.47C914.9 893.05 910.69 895.47 907.96 899.47C907.71 898.68 905.96 893.27 900.83 891.67C896 890.15 890.7 892.84 888.66 895.34C880.82 904.87 904 931.82 905.15 933.14Z" fill="#9EC8E7" stroke="#628CB1" stroke-width="3" stroke-miterlimit="10"/>
<path d="M990.23 1106C1002.67 1131.33 1004.02 1153.78 993.92 1162.06C988.12 1166.82 977.24 1167.96 973.27 1163.54C967.73 1157.37 978.38 1143.47 973.27 1138.46C967.78 1133.08 953.9 1143.99 952.64 1141.27C947.35 1129.84 957.47 1131.51 969.58 1119.27C974.23 1114.57 976.04 1111.38 979.9 1105.99C982.24 1102.72 987.47 1105.14 990.23 1106Z" fill="#010101" stroke="black" stroke-width="4" stroke-miterlimit="10"/>
<defs>
<linearGradient id="paint0_linear_1_37915" x1="591.74" y1="1031.76" x2="1061.73" y2="1031.76" gradientUnits="userSpaceOnUse">
<stop stop-color="#C7E8F5"/>
<stop offset="1" stop-color="#D2DEF2"/>
</linearGradient>
</defs>
</svg>
